<svg xmlns="http://www.w3.org/2000/svg" viewBox="0 0 512 512"><defs><style>.a{fill:#3c3c3b;}.b{fill:#565555;}.c{fill:#fff;}.d,.e{fill:none;stroke-miterlimit:11.34;}.d{stroke:#fff;stroke-width:0.32px;}.e{stroke:#b33536;stroke-width:0.96px;}</style></defs><rect class="a" width="512" height="512"/><path class="b" d="M299.53,345.85l0,5.12.21,4"/><path class="b" d="M366.91,394.43l-4.3,17.8,8.85,8.64,3.06,5.11.92,7.52-8.2,7.78-21.66-20.41,2.22-22.65-2.44-3.16-18.3-.17-1.46,1.81,1.48,7.27-.31,30.43-9.19,5.21-.87,8.2-14.19.67-6.67-14.74.22-8.59,16.82-14.21v-2.38L301.4,391l-1.64-34.72H263.41l.21-22.15-1.14-1.44L254.37,329l-8.93-7.9,3.22-2.71.55-1.54-1.46-1.73-4.73,4.7-3.69-.88-7.88-.1.26-11.5-7.79.21-.12-1.43-23,.09V275.79H173.22L164.84,277l-.07,2.64-1.21,3.28.07,6.65.61.23,2.2-1.2,7.08,11.08-11,6.91-8.06-13.14-9.77,1-.29,8.05-12.56-.14v-7.91l-7.28-.07-5.59,8.52-16.82,10L90.5,322.72l-27.6,12-8.4-5.14.37-13.12L65.63,307l11.76-5,6.09-5,6.69-6.62L92,282.09l-4.89-3.42-9.43,0-10,8.7-12.28,1.71-12.24-9.24,3-16.54,14.21-6.35,34.43-.11,5-3.79,4.74-6.88-6.86-13.29-5.5-2-24.6-.09-25.68-9.54-4.27-9.53L42,203.09l8.62,1.78,8.86-.22,19.31,9.76,15.61-13.52-.61-7.59L84,181.59l-5.65-3.22-6.2-2.09-9.87-.1-8.92-8.11-2.09-8.27,8.5-8.08,18.47,3.43L92,160l15.23,15.48,6.08.61,15.27,8.79,15.25-.1.28,8.47,7,.38.37-.6-.77-11.07,13.1-1.42.06,13.85,2.9,15.89,2.43,1.27.68.35h.62v-.73l0-32,29.07-.2h1.75l.06-19.41,36.78-35.26h0l-.11-31.67H264.5V77.34h50V85.2h4.94V78.93H356.7V63.53h34.89c3.82-.3,20.26,4.49,24.66,11.29,11.49.48,19.23,2.07,20,5.7h2.34l1.61,4.83,4.06-1.63,7.05-.06,2.09.86L455,82,456,78.8l-.09-3.47h5.61l4.31,5.81,2.69,9.8L469,99l-7.86-.13L452.51,94l-4.91,5.15-9.73,0-3.37,6,.32,3,2.79,2.6,8.5,3.49,16.93-.25,11.27,1.28.09,5.29-2.62,7.94L463,131.47l-20.78-.18-4.83,2.78,2.39,4.26-.14,2.51.81,1.22,2.28.28,2,2.89,1,.57,4.52-4.43,17.64-.23,1.36,17.09-5.62.06-4.67,5-3.14-1.06-7.81,10.59h-6.8l-11.42,7.33H418.92l-3.73-3.43h-8.28l-10.63-5.25L390,170.21l-6.15,2.13v10.17h5.67v85.88H375.44v3.89l-4.6,5.52,5.69,4.69-5.95,6.67.08,1.51,6.12,18.42.09,2.18L370,332.73l6.32,9.33-1.08,6.76,0,2.46,21.09,16.55,1.87,7.11-2.55,2.85L402.8,386l7.76,5.31,3.7-2,6.05,4.07L418,406l-.87,1.73-5,1.31-5.5.58-3.69-.5-3.58-1.29-3.76-2.24-5.27-3.77-4.2-5.63-4.48-6.53-1.32-3.33,0,1.16Z"/><path class="c" d="M127.75,220.33V227H138v-6.68Zm9.79,6.23h-9.35v-5.79h9.35Z"/><path class="c" d="M138.78,194.63a11.9,11.9,0,0,1,2.67,0c.67.1,0,.19-1.46.18S138,194.73,138.78,194.63Z"/><path class="c" d="M145.91,265.64l-.13-3.21-1.67.05-3.67.09-2,.05v2.82a10.07,10.07,0,0,0,.3,3.12,14.41,14.41,0,0,0,3.8.3H146Zm-.8,2.33h-5.79v-4.9h5.79Z"/><path class="c" d="M138.43,251.49h4c2.37,0,4,.18,4,.45s-1.71.44-4.23.44H138V235.91l4.56.09,4.57.1-4.34.14-4.35.15Z"/><path class="c" d="M151.58,250.38,151.33,280h-16v-8h-18.7V254.16H130V232.79h-1.34c-.83,0-1.3-.21-1.22-.55s-1.27-.59-5.35-.68l-5.45-.13v-18.2l5.45-.12,5.46-.13-.07-2.34-.07-2.33h15.94v6.23h8l.13,11c.12,10.48.13,10.31.23-3.63l.1-14.65-6.08.29c-3.34.16-9,.29-12.47.29h-6.38v4.45H116.62v-8l3.21-4.69L123,195h2.76c1.82,0,2.81-.19,2.91-.56a29.49,29.49,0,0,0-.09-4.34l-.25-3.78-.08,3.89-.09,3.9H123l-3.62,5.22-3.62,5.22V285L119.6,289a29.25,29.25,0,0,0,4.32,3.95c.26,0-1.28-1.76-3.41-3.91l-3.89-3.9V279c0-6,0-6.12,1-6.18.55,0,2.85-.09,5.12-.12l4.12,0v8.24h24.93l-.11-15.25Zm-7.36-42.07h7.13v5.78h-7.13Zm-27.6,24h5.12c3.12,0,5.12.17,5.12.44s.6.45,1.33.45h1.34v20.48H116.62ZM134.87,280h-7.12v-7.13h7.12Z"/><path class="c" d="M174.05,271.75c0,2.27-.3,2.89-1,2.15a6.63,6.63,0,0,1-.29-2.45c0-1.61.16-2.15.66-2.15S174.05,269.87,174.05,271.75Z"/><path class="c" d="M174.05,227.58c0,2.3-.06,2.4-2.89,5.21l-2.9,2.87v17.05L174,257.5v2.56c0,2-.15,2.56-.67,2.56s-.67-.57-.69-2.33c0-2.32-.05-2.36-2.89-4.76l-2.87-2.42V235.57l2.89-3.12c2.69-2.91,2.9-3.27,2.9-5.18,0-1.52.17-2.05.66-2.05S174.05,225.78,174.05,227.58Z"/><path class="c" d="M183.29,213.76c-.12.38-1.58.6-4.71.68l-4.53.13v2c0,1.47-.17,2-.67,2s-.66-.49-.67-1.67a13.5,13.5,0,0,0-.27-2.67c-.27-1-.27-1,5.38-1C182.15,213.2,183.43,213.33,183.29,213.76Z"/><path class="c" d="M196.76,272.64c0,.86-.2,1.56-.45,1.56-.52,0-.54-.05-.61-1.78,0-.8.17-1.34.5-1.34S196.76,271.69,196.76,272.64Z"/><ellipse class="c" cx="203.44" cy="273.98" rx="0.89" ry="0.67"/><path class="c" d="M203,168.46c0-.48.49-.67,1.77-.67s1.71.14,1.51.67-.83.67-1.77.67S203,168.92,203,168.46Z"/><path class="c" d="M205.66,190.32c-3.55,0-5-.07-3.23-.15s4.68-.09,6.46,0S209.21,190.32,205.66,190.32Z"/><ellipse class="c" cx="207.22" cy="184.49" rx="4.23" ry="0.67"/><ellipse class="c" cx="211.45" cy="207.19" rx="0.45" ry="0.67"/><ellipse class="c" cx="211.45" cy="201.41" rx="0.45" ry="0.67"/><ellipse class="c" cx="211.45" cy="195.62" rx="0.45" ry="0.67"/><path class="c" d="M196.24,214.44c-4.21-.09-5.92-.28-6.05-.68s2.11-.56,10.28-.56c8,0,10.51-.13,10.66-.55.34-1,.87,0,.55,1s-.63.93-4.43.93h-4.13l0,2.07c0,1.3-.16,2.15-.5,2.27s-.56-.46-.56-2.07v-2.24Z"/><ellipse class="c" cx="211.45" cy="210.09" rx="0.45" ry="0.89"/><ellipse class="c" cx="211.45" cy="204.3" rx="0.45" ry="0.89"/><ellipse class="c" cx="211.45" cy="198.51" rx="0.45" ry="0.89"/><ellipse class="c" cx="211.45" cy="192.72" rx="0.45" ry="0.89"/><path class="c" d="M196.76,258.17v3.12c0,3.32-.87,4.47-.93,1.22,0-1-.07-2.69-.11-3.67l-.08-1.78,3.25-.13c2.21-.1,3.22-.3,3.17-.67s0-7.3,0-15.56c0-12.35.16-15,.66-15s.61,1.16.62,5.45c0,7.29,0,6.94,1.07,7.1,1.4.2,1.59,1.25.23,1.25-1.21,0-1.63,1-1.44,3.34.06.74.14,3.69.17,6.57l.08,5.23h4.15a24.63,24.63,0,0,1,4.37.21,4.41,4.41,0,0,1,0,1.78l-.18,1.57Z"/><path class="c" d="M215.31,286.89a15.16,15.16,0,0,1-.12,2.78c-.16.84-.49,1-2,1h-1.77v-5.84l1.89.14C215.22,285.11,215.23,285.12,215.31,286.89Z"/><path class="c" d="M226.06,303.73a.55.55,0,0,1-.55.74c-.41,0-.7-.38-.7-.92C224.81,302.46,225.85,302.61,226.06,303.73Z"/><path class="c" d="M238.06,236.91l-.12-6.12h-7.57l-.12,6.12-.13,6.12h8.07Zm-.79,5.68H231V231.46h6.23Z"/><path class="c" d="M239.18,305.93c1,.09.07.17-2.13.16s-3.05-.07-1.88-.17A31.48,31.48,0,0,1,239.18,305.93Z"/><path class="c" d="M230.15,195v8h11.57v-8Zm11.13,7.57H231V195.4h10.24Z"/><path class="c" d="M244.4,268.59c0,.41-.32.55-.89.39-.85-.22-.89,0-.89,4,0,2.32-.14,8.45-.3,13.63L242,296l-2.71-.08-2.72-.08,2.34-.17a4.88,4.88,0,0,0,2.35-.47c0-.17.06-2.71.11-5.65l.09-5.34-2.55-.14c-3.27-.17-3.35-1-.11-1h2.45V268h1.56C243.88,268,244.4,268.17,244.4,268.59Z"/><path class="c" d="M252.88,277.93c1.46,3,2.65,5.63,2.65,5.78a11.16,11.16,0,0,1-2.7,1.63l-2.69,1.36-2.65-5.61c-1.46-3.09-2.65-5.69-2.65-5.8a26.23,26.23,0,0,1,4.59-2.53C250.12,272.48,250.63,273.23,252.88,277.93Z"/><ellipse class="c" cx="254.41" cy="124.83" rx="8.24" ry="0.67"/><path class="c" d="M260.24,169.13H256.5l-9.84-10,.15-2.45c.08-1.35.17-5.9.2-10.13l.06-7.68H250c1.64,0,2.89-.19,2.89-.44S251.6,138,250,138h-2.89v-5.79c0-4.84-.11-5.78-.67-5.78s-.67.81-.67,4.67c0,4.16-.08,4.68-.78,4.68-.43,0-5.39,4.65-11,10.35C216.65,163.53,215,165.31,215,166.62c0,.95-.2,1.17-1.11,1.17-.7,0-1.11.26-1.11.67s.41.67,1.11.67H215v9.35h3.11v59.66h-4.22c-3.46,0-4.22.12-4.22.66s.76.67,4.23.67h4.23v18.7h6.68v15.14h-7.13c-6,0-7.12.1-7.12.67s1.09.66,7.12.66h7.13v11.61c0,9.1.12,11.58.55,11.43s.59-2,.68-6.93l.12-6.76h3.33c1.92,0,3.33-.18,3.33-.44s-1.41-.45-3.34-.45h-3.34V255.94h15.14v6.24h1.56c1.08,0,1.56-.2,1.56-.67s-.4-.67-.89-.67c-.79,0-.89-.3-.89-2.45v-2.45H246c2.51,0,3.33-.14,3.19-.55s-3.62-.59-15-.67l-14.77-.12V186.09l2.66-5.69,2.66-5.71,3.54-2c1.94-1.11,3.68-2.14,3.85-2.31s-.34-1.44-1.13-2.81a9.93,9.93,0,0,1-1.26-2.68c.1-.09,3.77-1.18,8.17-2.42l8-2.25,10.27,10.24h3.89c3.16,0,3.89-.12,3.89-.66S263.27,169.13,260.24,169.13Zm-14.61-21.08-.12,11-8.68,2.41c-4.78,1.33-8.77,2.49-8.88,2.58s.36,1.23,2.23,4.38l.81,1.35-3.61,2-3.61,2-2.14,4.64-2.15,4.65v-6h-3.11V165.71l13.91-14.21c7.65-7.81,14.27-14.27,14.7-14.35C245.7,137,245.74,137.7,245.63,148.05Z"/><ellipse class="c" cx="263.76" cy="272.86" rx="0.67" ry="2.23"/><ellipse class="c" cx="263.76" cy="286.44" rx="0.67" ry="2.45"/><path class="c" d="M265,198c-.92-.26-1.45-.7-1.45-1.18a65.63,65.63,0,0,1,1.5-8.42,6.84,6.84,0,0,1,2.26.35c1.8.45,2.06.66,1.87,1.47-.13.51-.47,2.59-.78,4.61C267.79,198.81,267.78,198.82,265,198Z"/><path class="c" d="M243,218.73,238.77,212l.88-1.83a4.32,4.32,0,0,1,1.81-2.07c1.92-.51,5.51-.24,9.52.72l4.14,1,1,3.27c.85,2.81,1.1,3.23,1.87,3,.49-.12,2.15-.35,3.68-.52l2.78-.31-.21,1.29a79.11,79.11,0,0,0-1,7.94c.07.05,1.45.7,3.07,1.45,2.91,1.34,2.93,1.37,3.22,3.47a33.07,33.07,0,0,1,.29,3.62c0,.82-.15,1.48-.33,1.46-1.14-.11-21.16-7.91-21.67-8.44C247.42,225.74,245.26,222.42,243,218.73Z"/><path class="c" d="M270.66,300.24c0,.55-.71.67-3.78.67h-3.79v-2c0-1.48.18-2,.67-2s.67.45.67,1.34v1.34h3.12C270,299.58,270.66,299.71,270.66,300.24Z"/><ellipse class="c" cx="279.79" cy="81.2" rx="0.67" ry="2"/><path class="c" d="M270.22,124.83c0-.55.79-.67,4.45-.67h4.45V106.8c0-15.14.09-17.37.67-17.37s.67,2.31.67,18v18h-5.12C271.08,125.5,270.22,125.38,270.22,124.83Z"/><path class="c" d="M280.46,138.85H269.7c-5.92,0-10.66-.1-10.54-.22.32-.31,21.22-.45,21.53-.14a15.46,15.46,0,0,1,.1,3.76l-.15,3.5Z"/><path class="c" d="M297.23,115.14a1.79,1.79,0,0,1,0,1.12c-.13.31-.23,0-.23-.56S297.1,114.84,297.23,115.14Z"/><path class="c" d="M297.71,348a40.59,40.59,0,0,1,0,4.68c-.09,1.28-.17.23-.17-2.34S297.62,346.71,297.71,348Z"/><path class="c" d="M302.79,115.7c0-.61.1-.86.22-.56a1.66,1.66,0,0,1,0,1.12C302.89,116.57,302.79,116.31,302.79,115.7Z"/><path class="c" d="M290.29,164.44c-.54-.52-.36-1,1.28-3.08l1.9-2.46,1.4,1c2.24,1.57,8,5.79,8.43,6.13.19.17-.49,1.39-1.52,2.72s-2,2.54-2.14,2.72S292.27,166.37,290.29,164.44Z"/><path class="c" d="M312.87,129.17c-.12-3.61-.2-3.91-1.1-4-.52-.08-2.69-1.93-4.8-4.12l-3.84-4h-6.07l-3.67,4c-3.24,3.55-3.83,4-5.18,4h-1.52V112.58h5.09c3.64,0,5.14.16,5.3.56.25.62.45-3.59.53-10.93,0-2.65-.12-4.91-.32-5s-.36,3.1-.36,7.15v7.37H286.69V94.33h2.78c1.87,0,2.57-.14,2.14-.41-.69-.44-3.74-.55-5-.18-.73.2-.78,1.51-.78,19.33v19.11h-5.56c-4.65,0-5.57.12-5.57.67s.92.67,5.57.67h5.56v12l6.12-.1,6.12-.09-5.67-.14-5.68-.14V133.51h1.64c1.43,0,2.06.41,5.07,3.34l3.43,3.34h6.58l3.85-3.56c2.3-2.14,4.22-3.57,4.79-3.57C313,133.06,313,132.89,312.87,129.17Zm-1.73,2.56a27,27,0,0,0-4.33,3.56L303,138.85h-5.7l-3.39-3.31c-2.92-2.83-3.65-3.32-5.19-3.45l-1.78-.14v-5.79l1.88-.13c1.72-.13,2.14-.44,5.28-3.9l3.42-3.76h5.11l3.93,4c2.16,2.2,4.19,4,4.51,4s.58.76.58,2.67C311.62,130.69,311.44,131.73,311.14,131.73Z"/><path class="c" d="M317,352.73c-.39.49-.38.68.06.84s.45.33.3.5-.51,0-.81-.37c-.58-.7-.3-1.59.5-1.59C317.36,352.11,317.34,352.32,317,352.73Z"/><path class="c" d="M318.66,349.65c.14.14,0,.5-.3.8s-.49.38-.25-.25C318.28,349.76,318.52,349.52,318.66,349.65Z"/><path class="c" d="M320.32,348.07a1,1,0,0,1-.76.48c-.3,0-.27-.25.09-.68C320.26,347.13,320.8,347.3,320.32,348.07Z"/><path class="c" d="M321.2,357c-.16-.25-.08-.45.16-.45a1,1,0,0,1,.73.45c.15.24.07.44-.17.44A1,1,0,0,1,321.2,357Z"/><path class="c" d="M321,346c0-.54.85-1.17,1.16-.86.11.11-.11.46-.48.77S321,346.25,321,346Z"/><path class="c" d="M323.42,358.2c-.37,0-.67-.17-.67-.38s.3-.37.67-.37.67.17.67.37S323.79,358.2,323.42,358.2Z"/><path class="c" d="M323.09,141.23a1.76,1.76,0,0,1,1.11,0c.31.12.06.22-.56.22S322.78,141.35,323.09,141.23Z"/><path class="c" d="M308.73,353.36c-4.16-3.44-7.65-6.48-7.75-6.73-.22-.61.63.05,8.7,6.71l6.62,5.46,1.21-1.45c.67-.8,1.13-1.7,1-2s0-.56.31-.56a2.58,2.58,0,0,0,1.29-.71c.72-.65.93-.59,2.8.78a8.16,8.16,0,0,1,2,1.85c0,.2-.88-.28-2-1.08l-2-1.44-1.67,1.95L317,358.85C316.35,359.56,315.75,359.16,308.73,353.36Z"/><path class="c" d="M326.61,116.93a1.76,1.76,0,0,1,0,1.11c-.13.31-.22,0-.22-.56S326.48,116.62,326.61,116.93Z"/><path class="c" d="M326.61,114.92c-.13.31-.22.06-.22-.55s.09-.87.22-.56A1.76,1.76,0,0,1,326.61,114.92Z"/><path class="c" d="M326.61,112.25c-.13.31-.22,0-.22-.56s.09-.86.22-.55A1.76,1.76,0,0,1,326.61,112.25Z"/><path class="c" d="M326.32,109.27c0-.38.2-.69.44-.69a.43.43,0,0,1,.45.42.94.94,0,0,1-.45.69C326.52,109.84,326.32,109.66,326.32,109.27Z"/><path class="c" d="M325.65,357.9c-.15-.25.14-.45.64-.45s.92.2.92.45-.29.44-.65.44A1.18,1.18,0,0,1,325.65,357.9Z"/><path class="c" d="M326.23,141.22a.9.9,0,0,1,.86,0c.14.14-.12.25-.59.23S325.87,141.36,326.23,141.22Z"/><ellipse class="c" cx="329.21" cy="357.9" rx="0.67" ry="0.45"/><path class="c" d="M329,109.05a1,1,0,0,1,.44-.69c.25-.16.45,0,.45.41s-.2.7-.45.7A.43.43,0,0,1,329,109.05Z"/><path class="c" d="M329.73,105.82a.9.9,0,0,1,0,.86c-.15.14-.25-.12-.23-.59S329.59,105.47,329.73,105.82Z"/><path class="c" d="M329.7,104c-.15.14-.25-.12-.23-.59s.12-.63.26-.27A.9.9,0,0,1,329.7,104Z"/><path class="c" d="M329.7,101.33c-.15.15-.25-.11-.23-.58s.12-.63.26-.27A.88.88,0,0,1,329.7,101.33Z"/><path class="c" d="M329.7,98.66c-.15.15-.25-.11-.23-.58s.12-.63.26-.27A.88.88,0,0,1,329.7,98.66Z"/><path class="c" d="M328.9,141.22a.9.9,0,0,1,.86,0c.14.14-.12.25-.59.23S328.55,141.36,328.9,141.22Z"/><path class="c" d="M329.43,95.69a1,1,0,0,1,.44-.69c.26-.15.33,0,.18.42C329.75,96.19,329.43,96.33,329.43,95.69Z"/><path class="c" d="M313.52,365.66c10.3,1.66,13.54,1,16.39-3.27a8,8,0,0,0,1.3-2.79c0-.45.22-.81.48-.81.59,0,.16,1.52-.94,3.34a11.37,11.37,0,0,1-5,4.43c-1.75.73-4.61.81-7.91.22a29.77,29.77,0,0,0-3.9-.39c-1,0-1.89-.24-1.89-.5S312.66,365.52,313.52,365.66Z"/><path class="c" d="M331.21,94c0-.54.85-1.17,1.16-.86.11.11-.11.46-.48.77S331.21,94.26,331.21,94Z"/><path class="c" d="M330.81,320.21c-2.2-1.88-4.05-5.52-4-7.92a16.59,16.59,0,0,1,.88-4.26c1.12-3.18,1.09-3.78-.09-1.55a13,13,0,0,0-1.15,5c-.18,2.85-.08,3.4,1,5.49A14.23,14.23,0,0,0,330,320.3l1.27,1.07-1.17,2c-1.4,2.38-1.82,2.29-4.62-1-3.42-4-4.33-7.06-3.6-12.17a17.88,17.88,0,0,1,2.18-6.45l1.7-3.17-2.43-1.88a12.13,12.13,0,0,0-2.58-1.74c-.08.07-1.38,3.44-2.9,7.49l-2.75,7.34,2.16,6.61,2.16,6.6,4,2.81c2.21,1.55,4,2.78,4.08,2.74s1.19-2,2.56-4.47l2.5-4.4Zm-3.29,7.91c-.49.65-.9.49-3.76-1.52l-3.21-2.24-2.07-6.21L316.42,312l2.37-6.42c1.31-3.52,2.57-6.41,2.81-6.41a3.49,3.49,0,0,1,1.4.91l1,.92-1.57,3.16c-1.43,2.85-1.6,3.59-1.78,7.75-.19,4.34-.14,4.74,1,7.13a22.83,22.83,0,0,0,3.84,5.09C328.27,326.83,328.36,327,327.52,328.12Z"/><path class="c" d="M332.66,141.23c.31.12,0,.22-.56.22s-.86-.1-.55-.22A1.76,1.76,0,0,1,332.66,141.23Z"/><ellipse class="c" cx="332.1" cy="357.9" rx="0.89" ry="0.45"/><ellipse class="c" cx="333.66" cy="92.1" rx="0.67" ry="0.45"/><path class="c" d="M334.53,346.81a9.86,9.86,0,0,1-2.65.38c-1,0-1.54.19-1.25.38a.64.64,0,0,1,.19.89c-.24.4-1.31-.2-3.75-2.12a42.72,42.72,0,0,0-3.61-2.69c-.64,0-2.38-2.12-2.11-2.57s1.46.37,3.73,2.14c3.18,2.48,3.56,2.66,5.77,2.66a18.78,18.78,0,0,1,3.46.3C335.31,346.45,335.33,346.5,334.53,346.81Z"/><path class="c" d="M302.85,105.24l.07-8.46.27,14.91h9.14l0-4.78c.09-9.49.12-9.91.7-9.91.42,0,.53,1.36.47,5.57l-.08,5.56h8l0,16.59c0,9.12,0,19.94,0,24l0,7.46h7.37c6.25,0,7.36.1,7.36.66s-1.19.67-8,.67h-8V164c0,5.44-.1,6.45-.67,6.45s-.66-1.11-.66-7.34v-7.35H313V145.56l-10-.28,5.23-.1,5.23-.09v9.79h6.68v-42.3h-8.42c-6.32,0-8.48.14-8.65.56A64.8,64.8,0,0,1,302.85,105.24Z"/><ellipse class="c" cx="335" cy="357.9" rx="0.67" ry="0.45"/><path class="c" d="M332.27,138l3,3.23v3a10.67,10.67,0,0,1-.22,3,9.53,9.53,0,0,1-.23-2.88v-2.89l-2.95-3.13c-1.63-1.73-2.86-3.24-2.73-3.37S330.65,136.26,332.27,138Z"/><path class="c" d="M335.73,92.13c.19-.58.8-.68.86-.15,0,.18-.21.41-.5.5S335.63,92.42,335.73,92.13Z"/><ellipse class="c" cx="336.56" cy="89.66" rx="0.45" ry="0.67"/><path class="c" d="M336.11,87.21c0-.25.31-.45.69-.45s.57.2.42.45a1,1,0,0,1-.69.44A.43.43,0,0,1,336.11,87.21Z"/><path class="c" d="M337.45,346.7c-.62,0-.87-.1-.56-.23a1.76,1.76,0,0,1,1.11,0C338.31,346.59,338.06,346.7,337.45,346.7Z"/><path class="c" d="M337.36,357.81c.41-.41.65-.41,1.07,0s.29.53-.54.53S336.94,358.22,337.36,357.81Z"/><path class="c" d="M338.7,86.9a.91.91,0,0,1,.85,0c.15.15-.11.25-.58.23S338.34,87.05,338.7,86.9Z"/><path class="c" d="M340.89,346.5c.14.15-.12.25-.59.23s-.62-.12-.27-.26A.9.9,0,0,1,340.89,346.5Z"/><path class="c" d="M340.48,358a.88.88,0,0,1,.85,0c.15.14-.11.25-.58.23S340.12,358.18,340.48,358Z"/><path class="c" d="M341.37,86.9a.9.9,0,0,1,.85,0c.15.15-.11.25-.58.23S341,87.05,341.37,86.9Z"/><path class="c" d="M328.76,210.53c-9.05,0-14-.15-14-.44s4.75-.45,13.36-.45h13.35v-4c0-3.26.13-4,.67-4s.67.79.67,4.45v4.45Z"/><path class="c" d="M321.17,228.79h14l.13,1.89.14,1.89,2.14-3.44,2.15-3.45L342,227c1.27.73,2.26,1.53,2.2,1.76s-4.95,8.21-5.74,9.3a4.41,4.41,0,0,1-1.7-.76c-1.5-.89-1.58-.89-1.58-.11a1.22,1.22,0,0,1-.67,1.09c-.56.21-.67-.4-.67-4v-4.22H320.53c-11.58,0-13.36-.09-13.36-.67S309,228.79,321.17,228.79Z"/><path class="c" d="M343.68,358.27c-.62,0-.86-.1-.56-.22a1.79,1.79,0,0,1,1.12,0C344.54,358.17,344.29,358.27,343.68,358.27Z"/><path class="c" d="M344,86.9a.9.9,0,0,1,.85,0c.15.15-.11.25-.58.23S343.68,87.05,344,86.9Z"/><path class="c" d="M339.89,134c1.55,0,2.1-.28,3.56-1.78.95-1,1.83-1.67,1.95-1.55s-.65,1.13-1.73,2.22c-1.68,1.72-2.21,2-3.78,2s-2.08-.28-4-2.23c-1.21-1.22-2-2.23-1.75-2.23a7.6,7.6,0,0,1,2.19,1.78C337.8,133.68,338.35,134,339.89,134Z"/><path class="c" d="M346.54,358.31c-.52,0-.63-.13-.27-.27a.88.88,0,0,1,.85,0C347.27,358.22,347,358.33,346.54,358.31Z"/><path class="c" d="M346.54,141.49c-.52,0-.63-.13-.27-.27a.88.88,0,0,1,.85,0C347.27,141.4,347,141.51,346.54,141.49Z"/><path class="c" d="M346.27,86.9a.91.91,0,0,1,.85,0c.15.15-.12.25-.58.23S345.91,87.05,346.27,86.9Z"/><path class="c" d="M349.31,350.11c-.15-.37-.07-.67.17-.67s.43.3.43.67-.08.67-.17.67S349.45,350.47,349.31,350.11Z"/><path class="c" d="M348.91,358.05a1.76,1.76,0,0,1,1.11,0c.31.12.06.22-.55.22S348.6,358.17,348.91,358.05Z"/><path class="c" d="M350,141.23c.31.12.06.22-.55.22s-.87-.1-.56-.22A1.76,1.76,0,0,1,350,141.23Z"/><path class="c" d="M346.56,138a19,19,0,0,1,3.54-3.1,18.85,18.85,0,0,1-3.08,3.54l-3.29,3.33-.32,5.78-.09-3.13-.09-3.12Z"/><path class="c" d="M350.79,353.45c-.24,0-.43-.31-.43-.67s.08-.67.17-.67.29.3.43.67S351,353.45,350.79,353.45Z"/><path class="c" d="M351.77,355.13c.29.29.43.63.3.76-.3.29-.82-.23-.82-.83C351.25,354.79,351.46,354.81,351.77,355.13Z"/><path class="c" d="M352.61,357.45a.44.44,0,0,1,.42.45c0,.24-.31.44-.7.44s-.57-.2-.41-.44A.94.94,0,0,1,352.61,357.45Z"/><path class="c" d="M352,141.23a1.76,1.76,0,0,1,1.11,0c.31.12.05.22-.56.22S351.72,141.35,352,141.23Z"/><path class="c" d="M338.34,361.7c0-.24.86.5,1.91,1.64,3,3.3,5.47,3.81,9.22,1.9a6.84,6.84,0,0,0,2.91-2.49c.39-.76.82-1.27.95-1.14.55.56-1.53,3-3.44,4.05a8.85,8.85,0,0,1-6.89.72C341.94,366,338.34,362.33,338.34,361.7Z"/><path class="c" d="M352.21,344.78c-1.73,1.15-3.21,2.42-3.29,2.82s-.23.58-.49.17a3.93,3.93,0,0,0-2.52-.56,12.24,12.24,0,0,1-2.9-.28c-1.28-.49.2-1,2.81-1,2.06,0,2.8-.28,5.52-2.05,2.06-1.32,3.3-1.88,3.58-1.59S354.27,343.41,352.21,344.78Z"/><path class="c" d="M355.17,141.22a.88.88,0,0,1,.85,0c.15.14-.11.25-.58.23S354.81,141.36,355.17,141.22Z"/><path class="c" d="M353.25,276.17,349,272.76v-9.05c0-5.55-.17-9.15-.44-9.32-.43-.27-.72,6.62-.63,14.8l0,3.23h-2.53v-8.51l-5.9,0c-3.24,0-6.35,0-6.9,0-1,0-1-.11-1-5.81v-5.79h3.56V248.6c0-3.07-.12-3.79-.67-3.79s-.67.65-.67,3.12v3.12H300.05V228.79H288.92v8.9H274.23v16.92h-6.91c-5.83,0-6.9.1-6.9.67s.45.66,1.34.66h1.33v2.9c0,2.27.15,2.89.67,2.89s.67-.47.67-1.56v-1.55H295.6v41H286c-8.21,0-9.57.09-9.57.66s1.36.67,9.57.67h9.58v15.82l-7,7-7,7-4.67.13-4.68.12-.27,4.68h2c2,0,2,0,2,1.48a3.88,3.88,0,0,0,.29,1.78c.16.17,5.6.3,12.08.3h11.78l3.92-3.83,3.91-3.84,3.46,2.7c3.09,2.41,4.18,2.91,4.18,1.93a23.72,23.72,0,0,0-3.53-3l-3.54-2.66-2.27-6.46c-1.24-3.55-2.69-7.67-3.22-9.16l-1-2.72,1.45-4.63c.8-2.55,2.43-7.74,3.63-11.54l2.18-6.9,11.12-7.79,11.13-7.79,0-4.12,0-4.12h12.46v8.46h2.12c2,0,2.41.25,6.51,3.56,2.42,2,4.48,3.56,4.57,3.56s.16-.3.16-.66S355.58,278,353.25,276.17Zm-23-13.45-.12,10.33-5.57,3.9c-3.06,2.15-8,5.61-10.93,7.7l-5.38,3.79-3.64,11.69c-2,6.42-3.64,11.88-3.64,12.13s1.41,4.44,3.13,9.33l3.13,8.88-3.67,3.69-3.69,3.7h-22.5v-1.55c0-1.55,0-1.56-2-1.56s-2-.05-2-1.34v-1.33H282l14.9-14.93V257.28H280.68c-14.15,0-16.25-.08-16.25-.67s.92-.67,5.57-.67h5.56V239h14.8l-.18-4.46-.18-4.45h8.71v22.26h31.63Z"/><ellipse class="c" cx="358.59" cy="83.2" rx="0.67" ry="2.23"/><path class="c" d="M357.65,305,355,297.13l-5.12-3-5.12-3H338c-7.66,0-7.51-.09-5.92,3.43,1.26,2.77,4.47,5.8,6.55,6.17,3.07.54,6.85,2.87,8.25,5.06,2.85,4.52,2.86,10.33,0,13.55-.61.69-.63.81-.09.65a5.62,5.62,0,0,0,1.7-2.07c1.4-2.52,1.42-7.1.05-10.3a13.93,13.93,0,0,0-5.14-5.72c-.8-.45-.8-.53.17-2.52l1-2.06,2,1.41c2.33,1.59,5.1,5.6,6.22,9a12.48,12.48,0,0,1,.46,5.64c-.38,4.66-.87,6.13-2.92,8.82l-1.76,2.32,2.53,1.79c1.38,1,2.65,1.64,2.81,1.47s1.65-3.59,3.3-7.58l3-7.25Zm-1.27,14c-3.36,8.09-2.92,7.48-4.55,6.27l-1.39-1,1.71-2.54c1.85-2.76,2.44-5.31,2.42-10.56,0-3.16-1.16-6.23-3.76-10-1.29-1.88-5.4-5.13-6.48-5.13-.26,0-.92.93-1.47,2.05-1,2-1,2.05-2.63,1.75a12.46,12.46,0,0,1-2.84-.93A12.18,12.18,0,0,1,333,293.7l-.44-1.25h12l4.65,2.71c5.26,3.07,4.63,2.08,8,12.49l1.69,5.18Z"/><path class="c" d="M365.05,251.83c0,6.3.13,11.91.28,12.46.22.81.08,1-.67,1-.94,0-1-.06-1-12.46,0-10.79.09-12.47.67-12.47S365.05,241.93,365.05,251.83Z"/><path class="c" d="M365.13,287.45c-1.84-1.48-2.65-2.4-2.36-2.69s1.36.3,3.14,1.69a13.37,13.37,0,0,1,2.7,2.48C368.61,289.89,367.7,289.5,365.13,287.45Z"/><path class="c" d="M353.55,265.07l7.53,6.14a81.17,81.17,0,0,1,7.53,6.57c0,1-1.57,0-8.35-5.66l-7.23-6,.1-6.08.09-6.08.17,5.57Z"/><path class="c" d="M364.8,334.79c2.16-1.57,3.2-2.09,3.43-1.72s.29.56.25.6L365,336.24c-2.13,1.57-3.53,2.33-3.72,2C360.87,337.67,361,337.57,364.8,334.79Z"/><path class="c" d="M363.71,209.64H368c3.22,0,4.22.14,4.08.56s-1.19.57-3,.59c-1.58,0-3.11.07-3.41.11s-.56,2.51-.56,10.54c0,8.92-.1,10.46-.66,10.46s-.68-1.15-.77-6.74l-.13-6.75-1.42,1.2-1.41,1.19-3.45-4.55-3.45-4.54,1.92-1.7a10.49,10.49,0,0,1,2.25-1.7A21.59,21.59,0,0,1,361,212l2.71,3.64Z"/><path class="c" d="M372.62,110.07l-1.34.2c-.8.11-1.33,0-1.33-.31s.6-.49,1.33-.49c1.26,0,1.34-.1,1.34-1.76a3.4,3.4,0,0,1,.44-2c.3-.18.45,3.56.45,10.89,0,7.14-.16,11.15-.45,11.15s-.44-.29-.44-.65-.84-.68-3.9-.8l-3.89-.15,3.89-.09,3.9-.09Z"/><ellipse class="c" cx="373.51" cy="266.41" rx="0.45" ry="0.67"/><path class="c" d="M359.87,350.91c.11-.11.87.15,1.69.58,1.61.84,4.54,1,9.28.5l2.89-.31-2.89.63c-4.24.93-7,.85-9.26-.26C360.53,351.54,359.76,351,359.87,350.91Z"/><path class="c" d="M350.15,156.22H358l0-7.46c0-4.1,0-18.23,0-31.39,0-21,.1-23.93.68-23.93s.67,1.19.67,8v8h3.56c2.25,0,3.57.18,3.57.48s-1.23.43-3.57.33l-3.56-.14v15.75l1.89.17,1.9.17-1.9.08-1.89.08v49.86h15.09l.16-2.78.16-2.78.09,3.22.08,3.23H359.26v6.68h7.79c4.9,0,7.79.16,7.79.44s-5.64.45-16,.45h-16v4.9c0,4-.12,4.89-.67,4.89s-.67-.84-.67-4.89v-4.9H306.28v24.93h1.34c.73,0,1.33.2,1.33.45s-.9.44-2,.44h-2v-4.9H290l.07,2.68c.06,2-.07,2.67-.55,2.67s-.63-1.1-.63-5.78v-5.77l-5.23-.13-5.24-.12-.12-7.68c-.12-7.45-.09-7.68.78-7.68s.9-.27.9-6.68v-6.68h-3.56c-2.87,0-3.56-.13-3.56-.66s.77-.67,4.23-.67h4.23v14.69h37.4V176.7h-6.68v-7.65a58.33,58.33,0,0,1,.23-7.41,58.2,58.2,0,0,1,.28,7.2l.05,7h3c4.5,0,4.43-.07,4.43,4.27v3.74h37.85V157.55h-7.8c-6.62,0-7.79-.1-7.79-.67S343.51,156.22,350.15,156.22Z"/><path class="c" d="M381.52,191.31c0,.48-16,.49-16.29,0-.13-.2,3.48-.37,8-.37S381.52,191.11,381.52,191.31Z"/><path class="c" d="M384.56,360.78c.4.41,0,5.26-.46,6.23a33.36,33.36,0,0,1-6.62,6.7,10.89,10.89,0,0,1-7.4.54c-1.81-.63-1.91-.61-2.89.45-2.52,2.7-8.47,4.44-13.63,4a40.92,40.92,0,0,1-6.73-1.4c-6.54-2-9-1.54-15.76,2.84-5,3.25-7.21,4.09-11,4.18-2.87.08-2.9.09-4.06,1.9a9,9,0,0,1-5.53,4.14c-2,.52-7.33.48-7.33-.06,0-.18,1.66-.34,3.69-.34,2.72,0,4.07-.21,5.23-.82,2.07-1.1,4.23-4,5.15-6.93.74-2.33.74-2.42-.2-3.94-1.32-2.13-1.2-2.61.19-.74,1.15,1.52,1.28,3.27.41,5.42-.28.69,0,.78,2.4.78,3.53,0,5.92-.94,11.55-4.56,6.71-4.31,8.33-4.53,16.11-2.22,7.17,2.12,13.82,1.35,18.58-2.15l1.86-1.36-2.21-2.73a13,13,0,0,1-2.21-3.39c0-.36.61.26,1.36,1.39a23.22,23.22,0,0,0,3.12,3.63c1.66,1.5,1.93,1.6,4.76,1.58,3.73,0,5-.67,8.35-4.34,2.53-2.75,2.57-2.84,2.79-5.91C384.22,362,384.43,360.65,384.56,360.78Z"/><ellipse class="c" cx="383.3" cy="210.09" rx="4.45" ry="0.45"/><ellipse class="c" cx="387.31" cy="122.6" rx="0.45" ry="0.67"/><path class="c" d="M387.76,119.46a1.19,1.19,0,0,1-.45.92c-.24.15-.45-.14-.45-.64s.21-.92.45-.92S387.76,119.11,387.76,119.46Z"/><ellipse class="c" cx="387.31" cy="116.81" rx="0.45" ry="0.67"/><ellipse class="c" cx="387.31" cy="111.03" rx="0.45" ry="0.67"/><path class="c" d="M386.86,113.92c0-.83.13-1,.54-.53s.41.65,0,1.06S386.86,114.75,386.86,113.92Z"/><path class="c" d="M387.4,107.6c.41.41.41.65,0,1.07s-.54.3-.54-.54S387,107.18,387.4,107.6Z"/><path class="c" d="M386.86,91.88V89h-3.81c-2.09,0-3.71-.15-3.6-.34a14.32,14.32,0,0,1,4.14-.24l3.94.08.13,3.14c.09,2,0,3.15-.33,3.15S386.86,93.6,386.86,91.88Z"/><path class="c" d="M371.76,153.1h13.17l1.8-4.12c1.64-3.75,1.72-4.13,1-4.26s-.84-.57-.84-3.48c0-2.11.17-3.23.45-3.06s.45,1.57.45,3.15v2.87h4.89l-.08,2.56-.08,2.56-.17-2.34c-.16-2.31-.17-2.34-1.62-2.34s-1.51.11-3.39,4.45l-1.92,4.45H371.28l.1-5,.09-5,.15,4.78Z"/><path class="c" d="M396.06,119.15a1.63,1.63,0,0,1,0,1.11c-.12.31-.22.06-.22-.55S395.94,118.84,396.06,119.15Z"/><path class="c" d="M396,117.36c-.15.15-.25-.11-.24-.58s.13-.63.27-.27A.88.88,0,0,1,396,117.36Z"/><path class="c" d="M395.77,122.58c0-.39.2-.57.44-.42a.94.94,0,0,1,.45.69.44.44,0,0,1-.45.42C396,123.27,395.77,123,395.77,122.58Z"/><path class="c" d="M395.77,111c0-.37.2-.67.43-.67s.32.3.17.67-.33.66-.43.66S395.77,111.39,395.77,111Z"/><path class="c" d="M395.77,113.89c0-.5.19-.79.43-.65a.79.79,0,0,1,.17.92C396,115.08,395.77,115,395.77,113.89Z"/><path class="c" d="M395.77,108.11c0-.51.19-.8.43-.66a.79.79,0,0,1,.17.92C396,109.29,395.77,109.18,395.77,108.11Z"/><path class="c" d="M379.39,82.07c.12-.12,6.17-.23,13.45-.23,8.08,0,13.11-.15,13-.41a31,31,0,0,0-3.42-2.64l-3.16-2.22L395.9,79a15.75,15.75,0,0,1-3.54,2.25c-.37-.37,6.67-5.24,7.25-5a41.86,41.86,0,0,1,3.7,2.5l3.14,2.29V106.8H386.86V104c0-2,.14-2.63.5-2.27a3.77,3.77,0,0,1,.32,2.32l-.17,1.82h18.05V82.31H392.35C385.09,82.31,379.26,82.2,379.39,82.07Z"/><path class="c" d="M406.45,135.85a91.45,91.45,0,0,0,.46,11.47c1.09,3.67-1.5,10.38-5,12.91a7.47,7.47,0,0,1-2.32,1.3c-.27,0-.11-.26.35-.55,4.87-3,7.49-9.23,6.06-14.33l-.56-2h-6.52l-.16,2.34-.16,2.34-.08-2.56-.09-2.56h7.12V126.39h-18l.15,2.71c.09,1.59,0,2.93-.33,3.21s-.49-.64-.49-3.61c0-2.7.17-4.09.5-4.09s.37.29.24.66c-.22.57.39.67,3.92.67s4.21-.11,4.39-.78.2-.74.25,0,.62.78,5.17.78h5.12Z"/><path class="c" d="M411.12,166.38c3.31-3.75,6-7,6-7.15a4.89,4.89,0,0,0-1.8-1.24l-1.8-.92,1.86-3.43c1-1.89,2-3.6,2.19-3.8s1.55.25,3,1a31.92,31.92,0,0,0,2.93,1.37,5.25,5.25,0,0,0,.73-1.89c1-3.83-.73-15.82-2.9-19.79-1.95-3.58-2.67-4.33-3.6-3.81-.67.38-1.18,0-3.07-2a31,31,0,0,1-2.38-2.78c-.2-.52,6.61-5.81,8.68-6.75s2.28-1.41,3.28-7.26a46.72,46.72,0,0,0-.7-15,50.1,50.1,0,0,0-5.7-12.31c-1.35-2.24-2.3-4.08-2.1-4.08.57,0,5.24,8,6.71,11.51a41.34,41.34,0,0,1,2,6.22,54.19,54.19,0,0,1,0,16.33c-.36,1.72-.66,3.27-.66,3.45s.83.34,1.84.34c2.25,0,3,.85,3,3.36,0,2.7-1.57,4.53-5.76,6.65l-3.53,1.78,1.53,2.41c1.9,3,2.67,5.36,3.53,10.73.77,4.8.88,9.77.27,11.93l-.42,1.46,3.78,1.87c3,1.49,3.73,2,3.53,2.66-.13.43-.35,1.13-.49,1.56-.19.61.4,1.1,2.74,2.25,2,1,2.83,1.62,2.52,1.93s-1.33,0-3.17-.92a19.28,19.28,0,0,0-3.1-1.37c-.21,0-.75.8-1.19,1.78s-1,1.77-1.29,1.77a42.38,42.38,0,0,1-5-2.38L418,159.47l-6.27,7.06c-5.73,6.46-6.65,7.41-6.65,6.87C405.12,173.29,407.82,170.14,411.12,166.38Z"/><ellipse class="c" cx="447.86" cy="85.87" rx="3.12" ry="0.45"/><path class="d" d="M207,255.94c-2.38,0-4,.19-4,.45s1.63.44,4,.44,4-.18,4-.44S209.37,255.94,207,255.94Zm0,0c-2.38,0-4,.19-4,.45s1.63.44,4,.44,4-.18,4-.44S209.37,255.94,207,255.94Zm6.45,30.28c-.46,0-.66.47-.66,1.56s.2,1.56.66,1.56.67-.48.67-1.56S213.92,286.22,213.45,286.22Zm0,0c-.46,0-.66.47-.66,1.56s.2,1.56.66,1.56.67-.48.67-1.56S213.92,286.22,213.45,286.22Zm8.69-30.28c-1.49,0-2.68.2-2.68.45s1.19.44,2.68.44,2.67-.19,2.67-.44S223.62,255.94,222.14,255.94Zm0,0c-1.49,0-2.68.2-2.68.45s1.19.44,2.68.44,2.67-.19,2.67-.44S223.62,255.94,222.14,255.94Zm0,0c-1.49,0-2.68.2-2.68.45s1.19.44,2.68.44,2.67-.19,2.67-.44S223.62,255.94,222.14,255.94Zm-8.69,30.28c-.46,0-.66.47-.66,1.56s.2,1.56.66,1.56.67-.48.67-1.56S213.92,286.22,213.45,286.22ZM207,255.94c-2.38,0-4,.19-4,.45s1.63.44,4,.44,4-.18,4-.44S209.37,255.94,207,255.94Z"/><path class="e" d="M299.53,345.85l0,5.12.2,5.31"/><path class="e" d="M366.91,394.43l-4.3,17.8,8.85,8.64,3.06,5.11.92,7.52-8.2,7.78-21.66-20.41,2.22-22.65-2.44-3.16-18.3-.17-1.46,1.81,1.48,7.27-.31,30.43-9.19,5.21-.87,8.2-14.19.67-6.67-14.74.22-8.59,16.82-14.21v-2.38L301.4,391l-1.64-34.72H263.41l.21-22.15-1.14-1.44L254.37,329l-8.93-7.9,3.22-2.71.55-1.54-1.46-1.73-4.73,4.7-3.69-.88-7.88-.1.26-11.5-7.79.21-.12-1.43-23,.09V275.79H173.22L164.84,277l-.07,2.64-1.21,3.28.07,6.65.61.23,2.2-1.2,7.08,11.08-11,6.91-8.06-13.14-9.77,1-.29,8.05-12.56-.14v-7.91l-7.28-.07-5.59,8.52-16.82,10L90.5,322.72l-27.6,12-8.4-5.14.37-13.12L65.63,307l11.76-5,6.09-5,6.69-6.62L92,282.09l-4.89-3.42-9.43,0-10,8.7-12.28,1.71-12.24-9.24,3-16.54,14.21-6.35,34.43-.11,5-3.79,4.74-6.88-6.86-13.29-5.5-2-24.6-.09-25.68-9.54-4.27-9.53L42,203.09l8.62,1.78,8.86-.22,19.31,9.76,15.61-13.52-.61-7.59L84,181.59l-5.65-3.22-6.2-2.09-9.87-.1-8.92-8.11-2.09-8.27,8.5-8.08,18.47,3.43L92,160l15.23,15.48,6.08.61,15.27,8.79,15.25-.1.28,8.47,7,.38.37-.6-.77-11.07,13.1-1.42.06,13.85,2.9,15.89,2.43,1.27.68.35h.62v-.73l0-32,29.07-.2h1.75l.06-19.41,36.78-35.26h0l-.11-31.67H264.5V77.34h50V85.2h4.94V78.93H356.7V63.53h34.89c3.82-.3,20.26,4.49,24.66,11.29,11.49.48,19.23,2.07,20,5.7h2.34l1.61,4.83,4.06-1.63,7.05-.06,2.09.86L455,82,456,78.8l-.09-3.47h5.61l4.31,5.81,2.69,9.8L469,99l-7.86-.13L452.51,94l-4.91,5.15-9.73,0-3.37,6,.32,3,2.79,2.6,8.5,3.49,16.93-.25,11.27,1.28.09,5.29-2.62,7.94L463,131.47l-20.78-.18-4.83,2.78,2.39,4.26-.14,2.51.81,1.22,2.28.28,2,2.89,1,.57,4.52-4.43,17.64-.23,1.36,17.09-5.62.06-4.67,5-3.14-1.06-7.81,10.59h-6.8l-11.42,7.33H418.92l-3.73-3.43h-8.28l-10.63-5.25L390,170.21l-6.15,2.13v10.17h5.67v85.88H375.44v3.89l-4.6,5.52,5.69,4.69-5.95,6.67.08,1.51,6.12,18.42.09,2.18L370,332.73l6.32,9.33-1.08,6.76,0,2.46,21.09,16.55,1.87,7.11-2.55,2.85L402.8,386l7.76,5.31,3.7-2,6.05,4.07L418,406l-.87,1.73-5,1.31-5.5.58-3.69-.5-3.58-1.29-3.76-2.24-5.27-3.77-4.2-5.63-4.48-6.53-1.32-3.33,0,1.16Z"/><path class="e" d="M301.4,391l-1.64-34.72"/></svg>