<svg xmlns="http://www.w3.org/2000/svg" viewBox="0 0 512 512"><defs><style>.a{fill:#3c3c3b;}.b{fill:#565555;}.c{fill:#fff;}.d{fill:none;stroke:#b33536;stroke-miterlimit:10;stroke-width:0.96px;}</style></defs><rect class="a" width="512" height="512"/><polyline class="b" points="77.44 262.72 81.92 255.68 87.36 252.16 92.8 252.16 101.12 247.36 103.68 243.84 116.32 244 120.16 249.76 131.36 249.76 136.16 252.32 136.16 259.04 139.36 263.84 144.8 263.84 153.12 252.32 162.4 255.84 172.96 257.12 187.68 276.96 192.8 272.8 194.08 269.6 192.8 265.44 185.54 257.2 203.04 239.84 200.05 232.66 205.6 219.36 210.72 216.16 210.72 211.36 206.56 210.08 196 188.96 197.6 185.76 206.56 181.28 209.44 177.12 196 164 197.6 160.8 204.64 155.36 203.04 145.76 197.92 141.28 208.16 130.72 214.88 136.16 220.32 141.28 224.8 143.2 229.6 141.28 238.88 148 254.88 148 262.24 145.76 267.36 131.04 272.12 126.51 281.44 126.56 289.76 120.16 297.76 120.16 296.16 107.04 288.48 98.72 289.76 89.44 318.56 73.44 343.84 86.56 345.44 100.64 348.32 106.08 361.12 111.84 376.16 103.52 395.36 127.52 395.36 148 384.48 156.64 378.08 152.48 368.48 150.88 360.8 157.28 363.68 164 370.72 170.4 374.24 186.72 381.6 201.44 357.28 228.32 357.28 267.04 373.6 297.12 366.24 306.72 368.8 316 374.24 321.44 385.12 319.52 394.08 333.28 404.64 355.68 406.24 363.68 407.52 367.52 407.52 375.84 405.28 383.2 396 391.2 391.84 392.48 389.6 380.64 396 374.24 396 367.52 390.56 372 361.44 384.16 352.8 408.8 320.8 408.8 291.68 384.16 254.88 383.52 254.47 337.59 197.85 337.79 190.24 324 186.72 314.72 182.24 312.48 176.8 313.44 177.76 319.52 174.24 331.68 154.08 330.4 132.51 330.39 113.76 325.6 114.72 319.84 111.84 308 109.6 303.84 103.84 306.72 100.96 316 79.84 297.12 83.04 284 72.48 267.68"/><path class="c" d="M394.64,385a12.37,12.37,0,0,0-1-3c-.41,0-2.3,3.93-1.95,4.05.19.08,1.05.58,1.91,1.13a5.57,5.57,0,0,0,1.71.87A16.4,16.4,0,0,0,394.64,385Zm-3.84,7.3a.41.41,0,0,0-.15.55c.3.48.51.39.51-.22C391.16,392.32,391,392.18,390.8,392.29Zm0-1.74c-.19-.12-.35,0-.35.33s.16.54.35.54a.34.34,0,0,0,.35-.33A.77.77,0,0,0,390.81,390.55Zm0-1.74c0-.29-.16-.52-.35-.52s-.35.23-.35.52.16.52.35.52S390.81,389.1,390.81,388.81Zm-.44-1.68a1.15,1.15,0,0,0-.05-.84c-.38-.38-.64.23-.37.85S390.23,387.74,390.37,387.13Zm-.26-2.15c0-.29-.15-.52-.35-.52s-.34.23-.34.52.15.52.34.52S390.11,385.27,390.11,385Zm-.48-1.57c.07,0,.13-.23.13-.52s-.15-.52-.33-.52-.25.24-.14.52S389.55,383.41,389.63,383.41Zm.13-2.24c0-.08-.15-.25-.34-.36s-.35-.05-.35.15a.37.37,0,0,0,.35.37C389.61,381.33,389.76,381.26,389.76,381.17ZM380.46,349c-2-5.46-3.74-10-3.81-10.07s-10.89,3.05-11.2,3.31,7.71,21.72,8,21.72a4.15,4.15,0,0,0,1.07-.33c.44-.18,2.88-1.07,5.43-2,3.78-1.33,4.59-1.74,4.41-2.19S382.48,354.41,380.46,349Zm-28.4-58.25-2.26-.57-3.88,2.17c-3.85,2.16-3.88,2.18-3.67,3.29a10.25,10.25,0,0,1-.4,3.38,8.71,8.71,0,0,0-.45,2.39c3.52,2.76,5.87,3.85,9.49,4.38.15,0,.58-.65,1-1.49a11.79,11.79,0,0,1,2.76-3.39L356.7,299l-.87-3.13C354.56,291.25,354.64,291.36,352.06,290.71Zm-1.95,52.81-4.5-1.79-2.8,2.13c-2.51,1.91-2.82,2.27-3,3.53-.35,2.3.82,3.87,5.43,7.33,3.88,2.9,4,3,5.72,2.87l1.74-.11.95-5.22c.52-2.87.95-5.61.95-6.09C354.6,345.38,354.21,345.15,350.11,343.52Zm-7.64-167.78-6.22,2.86a44.84,44.84,0,0,0-6,3c0,.17,2.92,6.09,6.49,13.17,4.82,9.58,6.61,12.82,7,12.67s2.35-1.48,4.61-3.06l4.11-2.87-.66-1.74-4.88-13C344.58,180.68,342.59,175.68,342.47,175.74Zm-11-11.06a.88.88,0,0,0,.25.82c.31.32.69.11,1.63-.93a46.86,46.86,0,0,1,3.52-3.33,15.15,15.15,0,0,1,2.6-2,12.47,12.47,0,0,1,2.28,2l2,2,2.64-2.36a21.27,21.27,0,0,0,2.61-2.58c0-.11-2.05-2-4.52-4.17a51.05,51.05,0,0,1-4.5-4.25c0-.16.78-2.08,1.74-4.28s1.74-4.08,1.74-4.19S336,133.88,330.88,129l-2.32-2.19-8.79,7.69-8.78,7.7-5.9-5.83-5.9-5.84-.82,1c-.69.87-.74,1.08-.31,1.32a1,1,0,0,0,.88.06c.45-.28,1.27.5,18.7,17.56C325.35,158.08,331.59,164.44,331.5,164.68Zm2.05,148.15-4,1.74-4,1.73-.76,5.06c-.67,4.52-.86,5.2-1.8,6.39l-1.05,1.33.41,2.28.43,2.28h4.93l4.52-3.87c2.49-2.13,4.62-4,4.74-4.25a38.65,38.65,0,0,0,1-4l.78-3.61-2.56-2.53Zm-18.06-203.3,2.42,1.35a16,16,0,0,0,2.8,1.37,19.62,19.62,0,0,0,3.13-3.53c1.51-2,2.88-3.76,3-4s-.49-1.71-2.17-4.31a24.69,24.69,0,0,1-2.15-3.63c.17.11.22-.16.11-.58s-.27-.59-.34-.37a.45.45,0,0,1-.62.22,21,21,0,0,0-4.17.42l-3.7.61-1,1.43-1,1.42,1.8,4.81Zm8,62.66c.43-.32.79-.65.79-.75a2.09,2.09,0,0,0-.31-.67c-.23-.37-.44-.4-.78-.13s-1.84-.92-6.55-5.35c-11.83-11.13-12.36-11.57-12.36-10.28,0,.25,4.14,4.35,9.21,9.11C322.6,172.65,322.74,172.75,323.52,172.19Zm-3.87-76.28c.08,0,.15-.16.15-.35a.36.36,0,0,0-.37-.35c-.2,0-.27.16-.15.35S319.56,95.91,319.65,95.91ZM293.7,144.62c-3.51-2.87-4.09-3.77-3.07-4.78.33-.33.33-.52,0-.84-.67-.67-1.56.5-1.6,2.09,0,1.33.08,1.46,3.79,4.52s4.36,3.39,4.36,2.34A17.82,17.82,0,0,0,293.7,144.62Zm-14.62,11a65.43,65.43,0,0,0-5.35,4.16l-5.05,4.15.43,1.07c.24.58,1.6,3.92,3,7.42a40.42,40.42,0,0,0,2.92,6.35c.19,0,3.6-1.51,7.58-3.35s7.25-3.4,7.25-3.46C289.87,171.57,279.33,155.6,279.08,155.6Zm-5.38,22.8c-.08,0-.25.16-.37.35s0,.35.16.35a.37.37,0,0,0,.37-.35C273.86,178.56,273.79,178.4,273.7,178.4Zm-2.2,1.33c-.09.25.07.33.41.2s.55-.36.55-.55C272.46,178.92,271.67,179.21,271.5,179.73Zm-1.38.42c-.44,0-.79.15-.79.34,0,.43.37.43,1,0C270.8,180.22,270.75,180.15,270.12,180.15Zm-1.81.69a.73.73,0,0,0-.54.35c-.12.19,0,.34.32.34s.55-.15.55-.34A.34.34,0,0,0,268.31,180.84Zm-.39-15.67a.36.36,0,0,0,.37-.34c0-.19-.07-.35-.16-.35s-.25.16-.36.35S267.72,165.17,267.92,165.17Zm-1.72.87c-.27.33-.3.53-.07.53a.84.84,0,0,0,.61-.37C267.11,165.59,266.68,165.46,266.2,166Zm-.7,16.23c0,.36.11.38.84.1.3-.12.47-.34.37-.51C266.49,181.5,265.5,181.83,265.5,182.27Zm-1-14.84c-.28.33-.31.53-.07.53a.84.84,0,0,0,.6-.37C265.37,167,264.94,166.85,264.47,167.43Zm-.17,15.15c-.29,0-.54.16-.54.35a.34.34,0,0,0,.33.34.72.72,0,0,0,.54-.34C264.75,182.74,264.6,182.58,264.3,182.58Zm-1.57-13.76c-.28.33-.3.53-.07.53a.8.8,0,0,0,.59-.37C263.63,168.37,263.2,168.25,262.73,168.82Zm-.14,14.45a1,1,0,0,0-.74.35c-.12.19,0,.35.3.35a1,1,0,0,0,.74-.35C263,183.43,262.87,183.27,262.59,183.27Zm-1.41-13.36c-.3.12-.55.37-.55.55,0,.46.79.17,1-.35C261.68,169.86,261.52,169.78,261.18,169.91Zm-.73,14.28c-.28.11-.52.34-.52.5s.24.21.52.1.53-.33.53-.5S260.74,184.08,260.45,184.19Zm-1-12.89c-.3.12-.55.37-.55.56,0,.45.79.17,1-.36C259.94,171.25,259.78,171.17,259.44,171.3ZM258.56,185c-.39,0-.71.16-.71.35s.22.35.5.35a.89.89,0,0,0,.71-.35C259.18,185.17,259,185,258.56,185Zm-.43-12.16c.08-.26-.05-.39-.31-.3a1.06,1.06,0,0,0-.6.61c-.09.26,0,.39.3.3A1.11,1.11,0,0,0,258.13,172.85Zm-1.31,12.86a.75.75,0,0,0-.54.35c-.12.19,0,.35.33.35s.54-.16.54-.35A.34.34,0,0,0,256.82,185.71Zm-.74-11.77a1.09,1.09,0,0,0-.6.61c-.09.26,0,.39.3.3a1.09,1.09,0,0,0,.61-.6C256.47,174,256.35,173.86,256.08,173.94Zm-1.56,12.47c-.28,0-.5.15-.5.35s.32.34.71.34.62-.15.51-.34A.91.91,0,0,0,254.52,186.41Zm.19-10.86c0-.46-.79-.17-1,.35-.09.25.07.33.41.2S254.71,175.74,254.71,175.55Zm-2.35,9.61c-.24.24.25.9.68.9.23,0,.2-.2-.07-.53S252.45,185.07,252.36,185.16Zm.61-8.58c0-.2-.23-.16-.52.08a1.38,1.38,0,0,0-.52.78c0,.2.23.16.52-.08A1.38,1.38,0,0,0,253,176.58Zm-2.12,7c-.17,0-.32.24-.32.52a.52.52,0,0,0,.52.53c.31,0,.43-.21.31-.53S251,183.62,250.85,183.62Zm0-4.7a.91.91,0,0,0,.35-.73c0-.29-.15-.43-.35-.31a1,1,0,0,0-.35.74C250.53,178.9,250.69,179,250.88,178.92Zm0,1.92c.2,0,.35-.24.35-.52s-.15-.52-.35-.52-.35.23-.35.52S250.69,180.84,250.88,180.84Zm0,2.09c.2,0,.35-.24.35-.53s-.15-.52-.35-.52-.35.24-.35.52S250.69,182.93,250.88,182.93Zm-15.48,6.23-6.1.22a35.78,35.78,0,0,0-6.52.59c-.24.19-.44.22-.45.05s-.17,0-.37.31-.54.51-.77.38-.29-.11-.15.06c.35.38-1.84,2.64-2.29,2.36-.19-.12-.24,0-.11.17s-.06.54-.42.74c-.59.31-.62.52-.3,1.93.45,1.95,1,2.42,7.85,6.31l5.09,2.91,2.44-.22c2.35-.22,2.52-.3,4.62-2.17s2.17-2,2.17-3.64c0-1.44-.34-2.29-2.35-5.84ZM203.89,137v4.68l2.34-2.25c1.29-1.24,2.41-2.29,2.5-2.34a13.61,13.61,0,0,0-2.34-.09Zm3.14-5.57c.19,0,.35-.07.35-.15s-.16-.25-.35-.37-.35,0-.35.15A.37.37,0,0,0,207,131.41Zm-1.23,1.4c.29-.24.44-.57.33-.75-.28-.44-.84,0-.84.63C205.29,133.14,205.38,133.16,205.8,132.81Zm-1.37,1.38c.29-.24.45-.51.37-.6-.25-.24-.91.25-.91.67C203.89,134.49,204.09,134.46,204.43,134.19Zm-1.58.88a.75.75,0,0,0-.35.56c0,.19.16.25.35.13a.77.77,0,0,0,.35-.56C203.2,135,203,135,202.85,135.07Zm-1.73,1.73c-.28.33-.3.53-.07.53a.8.8,0,0,0,.59-.37C202,136.35,201.59,136.22,201.12,136.8Zm-1.54,2c.14.24.32.2.51-.1s.23-.52.15-.59C200,137.81,199.37,138.44,199.58,138.78Zm-.93.7a1.11,1.11,0,0,0-.61.61c-.08.26.05.39.31.31a1.14,1.14,0,0,0,.61-.61C199,139.53,198.91,139.4,198.65,139.48Zm-1.37,1.33a.35.35,0,1,0,.35.35A.35.35,0,0,0,197.28,140.81ZM185.81,290.48a5.35,5.35,0,0,0-3.73,2.43A2.57,2.57,0,0,1,180.9,294c-.7.25-.74.44-.52,2.1.13,1,.32,2.48.43,3.29.17,1.37.68,1.88,2.2,2.17a24.42,24.42,0,0,0,2.73-.93c2.24-.85,2.65-1.14,3.26-2.34a3.49,3.49,0,0,0,.3-3.17C188.76,292.72,187.09,290.48,185.81,290.48Zm-8.72-12.18c-.87-.45-1.39-1-1.39-1.36,0-1-4.06-3.46-7-4.22-3.3-.84-4.18-.52-6.67,2.44-1.89,2.26-1.9,2.28-2.09,5.12l-.19,2.85,2.42,1.46c2.1,1.28,3,1.59,7.36,2.42,2.72.53,5.13,1,5.35,1s.72-.79,1.1-1.79l1.59-4.22a23.48,23.48,0,0,0,.91-2.69C178.49,279.14,177.86,278.69,177.09,278.3ZM154,298.66l-3.07-.7-2.35-.53-2.36,1.19c-3.1,1.57-3.75,2.34-4.42,5.23-.54,2.33-.53,2.5.19,4.7,1.37,4.22,4.22,8.18,5.66,7.87.41-.09,1.73-.33,2.92-.54,2.56-.43,7.64-3.42,7.93-4.65l.8-3.52.63-2.79-2.6-3A14.89,14.89,0,0,0,154,298.66Zm-10.75-10.72c2.2-1.22,5.08-7.63,5-11.21,0-1.91-.62-2.64-3.27-4-1.23-.61-1.43-.61-3.6-.09s-2.32.59-3.19,2.3a21.13,21.13,0,0,0-1.35,3.48c-.41,1.56-.4,1.84.18,2.81a9.18,9.18,0,0,1,.88,2.71c.22,1.49.41,1.75,2.22,3C142.4,288.56,142.22,288.5,143.23,287.94Zm-25.16-9.74c-2-1.68-3.27-2.41-4.52-2.71a14.88,14.88,0,0,1-3.38-1.41l-1.66-1L104.74,275,101,276.86l-.41,3.61c-.36,3.18-.32,4.18.29,8.46.68,4.67.75,4.89,1.83,5.82a2.77,2.77,0,0,0,1.65.81c.3-.08,1.28-.25,2.19-.37a3.35,3.35,0,0,0,2.08-.85c.24-.35,2.41-2.72,4.81-5.29,6.66-7.09,7.76-8.32,7.61-8.44Zm-4.33-35.41a.34.34,0,0,0,.35-.34.35.35,0,1,0-.69,0A.34.34,0,0,0,113.74,242.79Zm-.69,4.78a20.11,20.11,0,0,0-1.67-1.74l-1.66-1.64-3.44,3.48h3.39A30.17,30.17,0,0,0,113.05,247.57Zm-1.22-4.78c.29,0,.52-.15.52-.34s-.23-.35-.52-.35-.52.16-.52.35S111.54,242.79,111.83,242.79Zm-2.26,0c.38,0,.69-.15.69-.34s-.31-.35-.69-.35-.7.16-.7.35S109.18,242.79,109.57,242.79Zm-2.26,0c.28,0,.52-.15.52-.34s-.24-.35-.52-.35-.53.16-.53.35S107,242.79,107.31,242.79Zm-1.94,0a.36.36,0,0,0,.37-.34c0-.19-.07-.35-.16-.35s-.25.16-.36.35S105.17,242.79,105.37,242.79Z"/><path class="c" d="M231,288.83c0,.11-4.11,2.56-9.14,5.44s-9.38,5.31-9.66,5.41c-.65.25-4.52-6.92-4-7.4.83-.74,18.34-10.5,18.58-10.35A64,64,0,0,1,231,288.83Z"/><path class="c" d="M356.71,229.22l-.07,17.94-.06,17.93-22.48,0c-12.36,0-23,0-23.61,0l-1.13,0v23.85c0,15.66-.12,23.84-.35,23.84s-.35,1.28-.35,3.13.15,3.13.33,3.13.26,1.1.16,2.64c-.13,2-.07,2.59.25,2.39s.32-.11.11.23a2.22,2.22,0,0,0-.2,1.27c.08.6-.07.78-.64.78-.74,0-.74-.06-.63-6.78l.1-6.79h-7.83v13.57h-9.74l-.09,29.26c-.06,21-.2,29.15-.47,28.88s-5.81-.38-18.13-.36H254.13l-.23-34.72c-.13-19.1-.23-51.37-.23-71.71v-37H239.4c-12.46,0-14.27-.07-14.27-.52s.92-.53,6.26-.53c4.13,0,6.27-.12,6.27-.36s-.63-2.86-1.39-5.9a38.31,38.31,0,0,1-1.4-7.82,12.06,12.06,0,0,1,.11-2.28c.06,0,3.82-.78,8.35-1.74l8.25-1.74h7.27c5.5,0,7.32-.1,7.44-.43s.44-2,.77-3.92l.6-3.48,4.15-6.29,4.15-6.29,12.09-.77c6.65-.42,12.57-.76,13.16-.76,1.21,0,18.2,7.44,18.81,8.23.22.28,1.85,4.38,3.62,9.11s3.68,9.82,4.25,11.3l1,2.7Z"/><path class="d" d="M104.83,241.27l-2.69,1.3-2.48,4-7.91,3.69-5.42.26-5.54,3.72L75,262.46,72.07,264,69.91,269l6.72,7.69c2.44,2.93,3.56,6,4.84,9A99.19,99.19,0,0,1,79.08,298l22,18.9,2.41-5.27,4-6,1.79-.51,2,3.21.46,3.18-.92,4,2.12,3.8-.26,2.21-2.21,3.27,2.66,2.73,28.57,4.87,17.65-.18,14.33,2.58,3.77-10.09,1.09-9.9,3.13.1,3.48,1.34,2.84,5.63.54,3.89,3,3.16,4.48,9.15,56.65.74v46.64h36.55l30.92,24.95,33.58-.18,7.46-24.48,28.92-12.28,4.52-4v2.89l0,1.11-.88,2a9.39,9.39,0,0,1-2.66,2.58l-3,2.1"/><path class="d" d="M114.58,241.37l3.5,1.52,3.72,5.25,11.26-.08,5.39,4.26-1.06,6.92.68,2.89,2.06,1.9,5.24-4.48,6.85-9.36,8,3.5,4.33,1.14,9.72.91,13,19.33,1.4.11,2.66-1.77.81-2.26-.6-3.22L183.33,258l17.36-18.11-.12-3.17-1.52-2.44,4.41-16,5.28-1.8.06-2.75-4.69-2.15L194,189.14l2.57-4.85,8.58-3.59,2-2.58-13-13.27.5-4,7.87-7.06-1.42-6.63-5.37-5.09,0-.47"/><path class="d" d="M208,129.94l7.84,4.53,4.59,6.21,2.84.93,6.53-1.45,9.58,6.67,14.87.9,6.39-3.13,5.66-14.15,6.39-5.57,8.61,0,7-6.15,6.55.15-.31-8.7-7.21-8L283.7,99.9l.26-3.08,4.75-9.43,29.66-15.82L344.9,85.25l1.56,14,3.12,6,11.22,5L376.23,102l2.08,3.3,2.23,3L396,127.78v22l-12.77,9.39L381,155.84l-7.72-3.21h-2.43l-6,3.23-2.22,1.88-.07,1.68L364,161l2.63,0,10.47,19.09-2.32,7.47,9.81,16.22-26.58,26,.07,33.76h1.11l15,33.31-5.38,10.4,0,9.23,5.06,3,11.85-.92,10.27,15,9.57,22.25v4.36s2.36,6.6,2.68,7,.7,7,.7,7l-.74,4.58-1.7,3.83L404.84,385l-2.77,3-4,3-6.94,3.44"/></svg>