<svg xmlns="http://www.w3.org/2000/svg" viewBox="0 0 512 512">
	<defs>
        <style>
            .no-fill{fill:none;}
            .no-stroke{stroke:none;}
            
            .border-fill{fill:#b33536;}
            .road-fill{fill:#1f2223;}
			.background-fill{fill:#3c3c3b;}
            .field-fill{fill:#565555;}
            .feature-fill{fill:#6a6a6b;}
            .building-fill{fill:#fff;}
            
            .border-stroke{stroke:#b33536;}
            .road-stroke{stroke:#1f2223;}
			.background-stroke{stroke:#3c3c3b;}
            .field-stroke{stroke:#565555;}
            .feature-stroke{stroke:#6a6a6b;}
            .building-stroke{stroke:#fff;}
        </style>
        <style>
            .c{stroke-width:0.7px;}
            .d,.e{stroke-width:1.03px;}
            .g{stroke-width:0.96px;}
            .c,.d,.e,.g{stroke-miterlimit:10;}
		</style>
	</defs>
	<rect class="a background-fill" width="512" height="512" />
	<path class="b field-fill" d="M35.12,202.21C59,177.63,111.55,140.14,214.5,129.44c94.37-9.82,190,5.26,243.63,33.83,12.77,6.8,35.13,25,36.5,49.4,2.19,39,8.41,84.76-47.33,128.81-46.13,36.45-170.62,63.65-277.1,52.27,0,0-59.16-3.83-120.84-37C38.61,351,23.86,340.73,21,316.6c-4.38-37.12-4.14-63.41,1-87.62C23.55,221.56,23.18,214.51,35.12,202.21Z" />
	<path class="c feature-stroke no-fill" d="M61.59,300s64.94,1.65,100,10c45.09,10.77,48,21,48,21s-19.71,11.32-57.32,6-89.44-15-93.64-17.7Z" />
	<path class="c feature-stroke no-fill" d="M221.68,347.27l11.68,10.4,33-34.87s4.93-8.57,3.83-16.42c0,0-6.2-2-16.06,5.29Z" />
	<path class="c feature-stroke no-fill" d="M317.88,309.3s23.54,1.64,25,8.58-26.65-3.11-26.65-3.11Z" />
	<path class="c feature-stroke no-fill" d="M306.56,188.82a80,80,0,0,1,45.09-4.38c25,4.93,104,23.55,104,23.55l-4.56,20.08-109-17.89S312.76,201.05,306.56,188.82Z" />
	<path class="d feature-stroke no-fill" d="M282.83,159.43l11.86,7.12L269,208.17s-10.23,13.87-17.89,15.7c0,0,.91-14.24,6.75-23S282.83,159.43,282.83,159.43Z" />
	<path class="c feature-stroke no-fill" d="M197.4,205.07l1.1-5.66s-16.07-6.57-26.47-1.83C172,197.58,172.76,206.35,197.4,205.07Z" />
	<path class="c feature-stroke no-fill" d="M320.54,236.83H199.12c-12.54,0-22.71,9.24-22.71,20.64v6.36c0,11.4,10.17,20.64,22.71,20.64H320.54c12.54,0,22.71-9.24,22.71-20.64v-6.36C343.25,246.07,333.08,236.83,320.54,236.83Zm-22.93,25.4c0,5.33-5.33,9.65-11.9,9.65H222.08c-6.57,0-11.9-4.32-11.9-9.65v-3c0-5.33,5.33-9.65,11.9-9.65h63.63c6.57,0,11.9,4.32,11.9,9.65Z" />
	<path class="e feature-stroke no-fill" d="M296.7,256s-12.23.36-14.24-1.65-56,0-56,0-10.77.55-13.14,6c0,0,1.1,5.84,13.51,6s55.86,1.28,55.86,1.28,4.38-3.47,13.14-2.37C295.79,265.31,300.17,264.39,296.7,256Z" />
	<rect class="f building-fill" x="236.1" y="256.54" width="5.29" height="1.83" />
	<rect class="f building-fill" x="236.1" y="262.93" width="5.29" height="1.83" />
	<rect class="f building-fill" x="242.67" y="257.3" width="3.47" height="6.71" />
	<rect class="f building-fill" x="261.56" y="257.3" width="3.47" height="6.71" />
	<rect class="f building-fill" x="268.5" y="256.38" width="1.83" height="2.33" />
	<rect class="f building-fill" x="271.33" y="256.38" width="1.83" height="2.33" />
	<rect class="f building-fill" x="268.5" y="262.61" width="1.83" height="2.33" />
	<rect class="f building-fill" x="271.33" y="262.61" width="1.83" height="2.33" />
	<polygon class="f building-fill" points="84.53 310.03 98.89 311.73 99.13 308.81 132.96 313.68 133.21 306.38 150.97 308.81 150.97 314.65 183.83 319.28 183.1 335.83 148.05 331.44 147.57 336.56 130.29 334.12 130.53 327.55 97.43 322.2 97.92 319.28 83.56 317.08 84.53 310.03" />
	<polygon class="f building-fill" points="64.33 305.4 79.91 307.84 78.93 317.81 63.6 316.11 64.33 305.4" />
	<ellipse class="f building-fill" cx="183.59" cy="321.34" rx="1.95" ry="2.56" />
	<ellipse class="f building-fill" cx="189.31" cy="328.28" rx="3.29" ry="2.92" />
	<polygon class="f building-fill" points="243.46 327.31 256.12 313.43 264.15 320.49 251.25 335.1 249.67 333.51 248.21 334.73 244.07 331.44 245.16 329.5 243.46 327.31" />
	<polygon class="f building-fill" points="227.52 348.97 230.81 344.59 235.43 348.12 231.41 352.5 227.52 348.97" />
	<circle class="f building-fill" cx="233.85" cy="339.84" r="1.58" />
	<circle class="f building-fill" cx="240.54" cy="344.95" r="1.58" />
	<polygon class="f building-fill" points="330.71 315.14 331.69 315.14 331.99 313.19 334.49 313.37 334.49 314.41 337.89 314.41 338.08 315.63 339.29 315.63 339.35 316.96 338.08 317.02 338.02 318.67 334.49 318.67 334.43 317.94 330.84 317.88 330.71 315.14" />
	<polygon class="f building-fill" points="349.64 184.08 374.46 189.37 373.92 192.29 390.89 195.58 391.99 192.84 411.15 196.49 410.35 199.9 404.95 222.77 385.96 219.31 386.33 216.02 369.17 212.19 368.99 215.66 343.61 210.91 349.64 184.08" />
	<polygon class="f building-fill" points="432.33 204.34 409.44 199.9 404.58 218.94 428.53 223.5 432.33 204.34" />
	<polygon class="f building-fill" points="278.45 169.84 282.46 164.18 290.5 169.29 287.21 175.31 278.45 169.84" />
	<path class="f building-fill" d="M259.83,201.05l9.31-14.78,1.28.54,7.66-11.68L276.8,174l1.83-2.19,7.12,5.11-1.28,2-1.82-.73-6.39,12.05,1.27,1.46-8.94,14.79S259.65,208,259.83,201.05Z" />
	<path class="f building-fill" d="M87.69,224.84l3.65-5.6L109.6,227s4.14,9.25,10.22,6.09c0,0,18,9,23.36,25.31C143.18,258.43,109.84,259.89,87.69,224.84Z" />
	<path class="f building-fill" d="M381,259.89s5.36-1.95,12.66,2.68,46.73,33.1,46.73,33.1L437,300.78l-3.89-3.65-2.68,2.67-3.65-3.89,1.46-2-3.41-2.43-3.41,4.14-9.24-6.82-1.95,1.95-5.6-4.14-1.95.73-3.4-2.19.24-1.95-5.84-4.86,4.62-6.33Z" />
	<rect class="f building-fill" x="184.8" y="251.86" width="17.77" height="17.77" />
	<rect class="f building-fill" x="188.94" y="240.66" width="9.49" height="4.62" />
	<rect class="f building-fill" x="188.94" y="276.2" width="9.49" height="4.62" />
	<rect class="f building-fill" x="188.94" y="243.58" width="7.55" height="5.35" />
	<rect class="f building-fill" x="216.2" y="237.26" width="11.93" height="8.52" />
	<rect class="f building-fill" x="200.87" y="241.76" width="2.92" height="5.35" />
	<rect class="f building-fill" x="205.49" y="241.76" width="2.92" height="5.35" />
	<rect class="f building-fill" x="200.87" y="275.83" width="2.92" height="5.35" />
	<rect class="f building-fill" x="186.3" y="275.71" width="1.64" height="5.35" />
	<rect class="f building-fill" x="205.49" y="275.83" width="2.92" height="5.35" />
	<rect class="f building-fill" x="188.94" y="272.55" width="7.55" height="5.35" />
	<rect class="f building-fill" x="216.2" y="237.26" width="11.68" height="8.28" />
	<rect class="f building-fill" x="217.66" y="247.54" width="8.21" height="2.56" />
	<rect class="f building-fill" x="282.46" y="247.54" width="8.21" height="2.56" />
	<rect class="f building-fill" x="282.46" y="271.45" width="8.21" height="2.56" />
	<rect class="f building-fill" x="333.57" y="261.47" width="4.08" height="5.48" />
	<rect class="f building-fill" x="333.57" y="254.78" width="4.08" height="5.48" />
	<rect class="f building-fill" x="298.4" y="273.28" width="2.98" height="3.89" />
	<rect class="f building-fill" x="298.4" y="244.07" width="2.98" height="3.89" />
	<rect class="f building-fill" x="217.66" y="271.42" width="8.21" height="2.08" />
	<rect class="f building-fill" x="217.66" y="278.27" width="8.4" height="6.45" />
	<rect class="f building-fill" x="232.75" y="237.26" width="43.81" height="1.95" />
	<rect class="f building-fill" x="232.75" y="247.96" width="43.81" height="1.95" />
	<rect class="f building-fill" x="240.05" y="238.9" width="27.75" height="11.07" />
	<rect class="f building-fill" x="232.75" y="271.82" width="43.81" height="1.95" />
	<rect class="f building-fill" x="232.75" y="282.52" width="43.81" height="1.95" />
	<rect class="f building-fill" x="240.05" y="273.46" width="27.75" height="11.07" />
	<rect class="f building-fill" x="278.99" y="276.14" width="12.17" height="8.4" />
	<rect class="f building-fill" x="281.91" y="237.19" width="9.25" height="5.72" />
	<rect class="f building-fill" x="300.17" y="237.92" width="2.19" height="4.99" />
	<rect class="f building-fill" x="323.9" y="237.92" width="2.19" height="4.99" />
	<rect class="f building-fill" x="246.14" y="249.61" width="15.58" height="23.73" />
	<polygon class="f building-fill" points="306.01 247.23 306.01 274.25 320.61 274.25 330.11 265.73 330.11 256.24 320.61 246.99 306.01 247.23" />
	<ellipse class="f building-fill" cx="307.93" cy="261.2" rx="4.65" ry="5.75" />
	<ellipse class="f building-fill" cx="336.92" cy="194.3" rx="3.65" ry="3.16" />
	<ellipse class="f building-fill" cx="259.89" cy="210.18" rx="2.31" ry="2.25" />
	<polygon class="f building-fill" points="176.41 197.4 183.34 199.04 182.98 202.69 176.23 201.42 176.41 197.4" />
	<path class="g border-stroke no-fill" d="M35.12,202.21C59,177.63,111.55,140.14,214.5,129.44c94.37-9.82,190,5.26,243.63,33.83,12.77,6.8,35.13,25,36.5,49.4,2.19,39,8.41,84.76-47.33,128.81-46.13,36.45-170.62,63.65-277.1,52.27,0,0-59.16-3.83-120.84-37C38.61,351,23.86,340.73,21,316.6c-4.38-37.12-4.14-63.41,1-87.62C23.55,221.56,23.18,214.51,35.12,202.21Z" />
</svg>
