<svg xmlns="http://www.w3.org/2000/svg" viewBox="0 0 512 512">
	<defs>
        <style>
            .no-fill{fill:none;}
            .no-stroke{stroke:none;}
            
            .border-fill{fill:#b33536;}
            .road-fill{fill:#1f2223;}
			.background-fill{fill:#3c3c3b;}
            .field-fill{fill:#565555;}
            .feature-fill{fill:#6a6a6b;}
            .building-fill{fill:#fff;}
            
            .border-stroke{stroke:#b33536;}
            .road-stroke{stroke:#1f2223;}
			.background-stroke{stroke:#3c3c3b;}
            .field-stroke{stroke:#565555;}
            .feature-stroke{stroke:#6a6a6b;}
            .building-stroke{stroke:#fff;} 
        </style>
		<style>
            .c{opacity:0.2;}
            .c{isolation:isolate;}
            .d{stroke-width:0.32px;}
            .d,.f,.h,.i{stroke-miterlimit:10;}
            .f{stroke-width:0.36px;}
            .h{stroke-width:1.07px;}
            .i{stroke-width:0.96px;}
		</style>
	</defs>
	<rect class="a background-fill" width="512" height="512" />
	<path class="b field-fill" d="M296.71,196.15s-3,6.56,4.62,10.11c0,0-1.06,8.69,3,9.93,0,0,3.08,4.32,4.26,5.91,0,0,5.93.83,7.47-.59,2.68-2.47,7.47-9.22,7.47-9.22s2.66-10.46-4.8-15.61-9.43-3.36-12.09-6.56l.89-.53a3.73,3.73,0,0,0,1.6-4.43s-3.38-.53-3.2,2l-1.25,1.77-2.13-3.9s-8.89-4.61-8.89,5.68Z" />
	<path class="b field-fill" d="M466.49,289.26c-5.22-2.84-14.22,2.6-15.41,5.44s-5.21,6.62-5.21,6.62l1.06-4.38.48-3.43s-1.42-.35-1.42-.71.11-3.78-3.44-3.31a6,6,0,0,0-4.74,3.43l4.32,7.33-.53,2.49c-21.69,2.3-48.18-24.12-48.18-24.12-13.15-.53-24.35-8.16-24.35-8.16l-.71-4.26c-6.76-2.3-6.4-5.67-6.4-5.67L358,216.72l-13.68-9.22s2.31,37.07,3,47-.71,10.82-.71,10.82a6.07,6.07,0,0,0-5.69,5.32l-5,.17-.53-4.78h-7.11l-.54,3-11.55-.53s-3-9.93-8.18-10.29-16.89-6.56-16.89-6.56l-.71-5.67h-1.42a34,34,0,0,1-22.23-11.35c-8.17.53-4.68-3.08-4.68-3.08l12-8.45c1.54-.89,1.6-1.3.18-3.84a2.34,2.34,0,0,0-3.56-1l-13.57,8.48-.77-.62c.95-2.83-3.43-5.43-3.43-5.43a6.45,6.45,0,0,0-2.73-7.1c-8.3-6.38-6.16-19.62-6.16-19.62h3.79l7.53-5.27,4.81-5.26a8.19,8.19,0,0,1-3.8-5.54l-15.32,10.72s-.27-2.22-4-4c-2.94-1.69-2-3.37-2-3.37s3.29-3.2-6-12.42-14.31-5.23-14.31-5.23c-1.33,3.55-6.81-1.09-4.44-3s.27-7.13.27-7.13c-.89-4.08-8.63-8.33-9.87-9.75-4.58-5.22-4.62-9.84-5.42-12.42a14.58,14.58,0,0,0-5-6.47c-1.6-1.06-1.07-3.63-1.07-4.88s1.42-1,1.42-1l-.8-13.83c-45.8-19.51-78.63,7-78.63,7s-32.71,34.76-37.22,40S33.66,197,21.57,228.25c-10.43,26.92-.24,61.48-.24,61.48,10,46.11,68.27,89.62,68.27,89.62,41,35.94,133,36.56,133,36.56l191.26,1.92c21.86-.18,34.33-6.71,34.33-6.71,35.71-22.55,38.93-60.65,38.93-60.65C491.93,315.89,471.7,292.1,466.49,289.26Z" />
	<path class="b field-fill" d="M260.46,183.57l-.79.88a9.33,9.33,0,1,0-4.5-8,8.85,8.85,0,0,0,.15,1.64l.46-.32Z" />
	<path class="c field-fill" d="M260.28,183.44l.7-.77-4.09-5-.41.28A8.19,8.19,0,0,0,260.28,183.44Z" />
	<path class="b field-fill" d="M260.28,183.44l.7-.77-4.09-5-.41.28A8.19,8.19,0,0,0,260.28,183.44Z" />
	<path class="d road-stroke road-fill" d="M62.22,165.83s25,38.48,30.58,42.91c1.78,1.42,4.27,7.45,4.27,7.45A17.41,17.41,0,0,1,83.2,219s-4.62-1.24-6.4,1.42c0,0-16.53,14.9-20.09,18.62,0,0-4.8,3.9-8,4.79,0,0-11.55,6.21-2.84,14,0,0,10.49,3.72,12.62-6.39a11.42,11.42,0,0,0-4.09-8.15L77.33,222.4s1.07-2.31,7.83-1.24,12.26-2.31,12.62-3.19,2.49,9.4,2.49,9.4-.18,6.56,6.22,12.41c0,0,40.71,59.41,44.27,67.57,0,0,9.24,23.41,4.26,47.52s.36,27.49-23.64,26.43l.18,12.06,15.28.53-1.77,12.59,5.15,1.42.36-8.69S159.11,409,162.31,410l4.09.35-15.29-15.07s5.16-18.8,6.22-24.3c0,0,2.67-14.18,2.67-16.14,0,0,.53-11.35,16-6.56,0,0,24.71,8.16,37.69,11.18,0,0,5.87.88,5.87,8.69L219.38,382s4.26.53,3.91,5.85l.35,27.67,48.18,1.24V399.39h20.62V370.66h-1.77s-1.25-9.22,8.71-11.88c0,0,22.93-17.92,33.24-32.1,0,0,14.76-20.57,27.56-21.11,0,0,.35,17.38-7.11,24.3,0,0-13,20.93-11.56,30,0,0-2.67,20.93-19.73,35.65,0,0-11.74,11.7-11,20.39l2.66.36s3.2-15.43,11.2-20.22c0,0,18-17.38,19-37.07,0,0,1.25-14.54,10.67-26.6,0,0,10.67-14.54,7.82-27.84,0,0,9.78-.18,15.65,1.42s24.53,7.09,28.09,6.38c0,0-.54,25.89-4.09,32.1s-6.4,33.87,10.13,34.76,30.58-2.31,35.38-37.06l.53-24.12s17.78.35,21.69-1.24,16,4.07,16.89,6.56l-2.13-8.69a30.64,30.64,0,0,0-20.63-2.31s-17.24,4.08-46.57-2.13-44.45-12.06-51-11.35c0,0-5.86-2.3-5.86-15.6L354,212.82l-5-3.54,6.75,74.3s1.07,16.14-4.62,19.16S333,318.87,333,318.87s-5,4.26-14.58-3.9-22.76-18.26-22.76-18.26-5.51-3.37-4.62-16.32-22.22-23.23-22.22-23.23L247.29,246s-11-3.55-19.38-19-22.75-18.09-22.75-18.09-19.38-.89-27-23.94c0,0-8.35-15.61-11.2-17.2,0,0-3.55-2.48.54-7.81s4.09-11.17,1.06-17.91L165,132.84s-4.8-6,6-11.17l7.47-4.08-2.31-2.84-10.85,7.45s-23.64,18.62-28.44,25-6.93,5.49.35,13.47,3.92,4.44,3.92,4.44,4.26,3-1.25,9c0,0-3.55,3.73,1.25,11.88s17.06,34.23,17.06,34.23,3.91,5.68-3.73,9.76l-10.67,7.62s-8.53,5.85-3.73,14.37-3.2,13.47-12.09,11.17l-18-27.14s-5.68-8.68-5-13.47-5-11.71-5-11.71-4.8-5.5,2.84-12.23L129.6,173.1,123,166l-7.11,6.74,3.2,3.91-19.2,18.62s-7.64,7.8-14.4-2.84-19.91-30.5-19.91-30.5Z" />
	<path class="b field-fill" d="M52.15,244.8s-11.85,4-4,10.64c0,0,7.11,1.9,7.58-4.25C55.7,251.19,54,245.28,52.15,244.8Z" />
	<path class="b field-fill" d="M98.61,199.4s-4.51,2.37-7.35,1.19-1,0-1,0,4.74,5.67,6.88,4.73C97.19,205.32,96.24,201.53,98.61,199.4Z" />
	<path class="b field-fill" d="M143.41,259.46l2.84,3.55s-3.32-.47-4,0A9.7,9.7,0,0,0,143.41,259.46Z" />
	<path class="b field-fill" d="M135.11,274.6s-10.43-9.22,7.82-9.7c0,0,20.15,1.19,21.81,26.72,0,0,.24,11.83-11.61,11.35Z" />
	<path class="b field-fill" d="M161,341l.24,5.68s3.79-2.6,6.63-1.66S161,342.7,161,341Z" />
	<path class="b field-fill" d="M177.07,302.26s-13.75-6.62-21.1,7.33c0,0,7.11,9.7,4.74,21.76S173,342.93,173,342.93s23,5.21,29.86,10.17c0,0,18.49,4.26,28.21,4.26,0,0,42.67,4.49,54.28,1.65,0,0,19.2-1.89,37.69-27.9,0,0,2.85-7.57-1.66-10.88l-26.07-20.8s-3-3.79-7.47-.36c0,0-5.33,7.92-16.24,1.66s-26.9-12.18-26.9-12.18-18.61-3.54-25.48,8.63c-7.35,13-17.42,20-32.24,10.17Z" />
	<path class="b field-fill" d="M326.4,327.09l4.74-4.73a11.49,11.49,0,0,1-4.74-.71S327.35,326.38,326.4,327.09Z" />
	<path class="b field-fill" d="M358.4,290s-1.19,9.69-2.61,10.64,9,0,9,0S359.59,293.51,358.4,290Z" />
	<path class="b field-fill" d="M244.86,286.18S264.3,294,275,299.66s14.46-8.51,14.46-8.51,1.9-18.44-9.48-25.06-35.32-18.92-35.32-18.92-12.09-6.27-17.18-16.55-13.16-19.87-27.74-20.81c0,0-10.78-1.18-17.66-12.89s-13-22.58-13-22.58-4-10.52-13.75-8.51a20.39,20.39,0,0,0-13.63,10.4s-2.13,3.43,3,11.94,16,31,16,31,4.15,7.8-3.32,12.18S139.38,242,141.16,248.82s4.38,12.54,11.25,16.32,12.8,11.11,13.63,18.68a62.39,62.39,0,0,1-.11,14.07,23.92,23.92,0,0,1,19.43,5.91c8.89,8,22,8.51,30.34-5S235.38,284.65,244.86,286.18Z" />
	<path class="b field-fill" d="M161.42,128.76s14,27.61.48,32.81c-10.07,3.87-10.43,2.6-15.59,5.5L136,155.9s-6.58-1.9,12.39-16.32Z" />
	<path class="b field-fill" d="M230.4,368s0,27.66-1.19,30.74.24,10.16,6.88,8.51l23.23.24s6.16,1.89,5.69-5.44l-.24-7.81h19.67l.95-23.17,3.08-.47s.95-9-11.37-7.33c0,0-22.52,1.65-30.34-.24C246.76,363,227.79,359.25,230.4,368Z" />
	<path class="b field-fill" d="M408.89,313.14s17.54,5.44,35.79,4.73c0,0,2.85,37.83-8.53,50.13s-10.43,9-23.94,8.75-10.43-27-8.54-29.32C403.67,347.43,407.7,339.39,408.89,313.14Z" />
	<path class="d road-stroke road-fill" d="M323.32,415.53s19.44-9.23,24.65-11.35A71.7,71.7,0,0,1,390.16,399a27.71,27.71,0,0,1,14,8s16.59,9.23,21.81,9.7l.94,1.18-7.82-.71s-16.59-8.28-19.44-11.35c0,0-7.34-8.75-35.55-4.73,0,0-27.26,7.57-36,15.13l-4.74.48Z" />
	<rect class="e feature-fill" x="26.84" y="290.06" width="41.19" height="1.15" />
	<rect class="e feature-fill" x="26.8" y="258.49" width="14.8" height="1.15" />
	<polygon class="e feature-fill" points="30.66 229.63 59.07 206.38 59.8 207.27 31.39 230.52 30.66 229.63" />
	<polygon class="e feature-fill" points="49.39 241.25 54.58 237.01 55.31 237.9 50.12 242.15 49.39 241.25" />
	<polygon class="e feature-fill" points="55.97 235.93 60.2 232.47 60.93 233.36 56.7 236.82 55.97 235.93" />
	<polygon class="e feature-fill" points="61.67 231.14 70.45 223.96 71.18 224.85 62.41 232.03 61.67 231.14" />
	<rect class="e feature-fill" x="41.01" y="241.05" width="9.14" height="1.15" transform="translate(-0.41 0.08) rotate(-0.1)" />
	<rect class="e feature-fill" x="68.69" y="222.42" width="3.91" height="1.16" transform="matrix(0.02, -1, 1, 0.02, -154.04, 288.08)" />
	<polygon class="e feature-fill" points="70.35 221.9 58.28 207.23 59.24 206.45 71.31 221.12 70.35 221.9" />
	<polygon class="e feature-fill" points="41.01 242.21 30.75 229.74 31.66 228.98 41.92 241.46 41.01 242.21" />
	<polygon class="e feature-fill" points="58.8 241.24 60.38 239.75 61.17 240.59 59.59 242.08 58.8 241.24" />
	<polygon class="e feature-fill" points="61.2 238.94 67.83 232.75 68.62 233.59 61.99 239.78 61.2 238.94" />
	<polygon class="e feature-fill" points="68.62 231.97 76.03 225.03 76.82 225.87 69.41 232.81 68.62 231.97" />
	<polygon class="e feature-fill" points="69.17 255.88 84.66 241.4 85.45 242.24 69.96 256.72 69.17 255.88" />
	<polygon class="e feature-fill" points="88.23 285.13 93.7 274.71 94.72 275.24 89.26 285.67 88.23 285.13" />
	<rect class="e feature-fill" x="81.57" y="246.98" width="11.76" height="1.16" transform="matrix(0.09, -1, 1, 0.09, -167.14, 311.7)" />
	<polygon class="e feature-fill" points="82.5 254.57 87.04 252.39 87.54 253.43 83 255.61 82.5 254.57" />
	<polygon class="e feature-fill" points="87.36 241.55 90.09 240.24 90.59 241.28 87.86 242.59 87.36 241.55" />
	<polygon class="e feature-fill" points="73.74 304.25 67.16 300.31 67.14 300.27 67.11 300.28 67.09 300.28 67.08 300.29 60.16 303.62 60.66 304.65 67.05 301.59 73.14 305.24 73.74 304.25" />
	<polygon class="e feature-fill" points="89.07 313.37 82.43 309.4 83.03 308.41 89.67 312.38 89.07 313.37" />
	<rect class="e feature-fill" x="82.04" y="307.68" width="2.33" height="1.16" transform="translate(-232.92 353.1) rotate(-82.97)" />
	<rect class="e feature-fill" x="85.19" y="315.68" width="7.72" height="1.16" transform="translate(-228.23 401.59) rotate(-89.33)" />
	<rect class="e feature-fill" x="84.11" y="234.7" width="1.16" height="7.57" transform="translate(-9.82 3.72) rotate(-2.38)" />
	<rect class="e feature-fill" x="58.91" y="241.19" width="1.16" height="3.91" transform="translate(-10.04 2.68) rotate(-2.38)" />
	<polygon class="e feature-fill" points="84.28 235.6 75.2 225.94 76.1 225.09 85.18 234.76 84.28 235.6" />
	<polygon class="e feature-fill" points="69.41 256.13 58.96 245.01 59.86 244.17 70.31 255.29 69.41 256.13" />
	<rect class="e feature-fill" x="48.31" y="258.89" width="1.16" height="31.74" />
	<rect class="e feature-fill" x="71.07" y="258.89" width="1.16" height="29.29" transform="translate(-1.56 0.41) rotate(-0.33)" />
	<rect class="e feature-fill" x="25.38" y="259.19" width="1.16" height="31.41" />
	<rect class="e feature-fill" x="62.58" y="258.49" width="9.6" height="1.15" />
	<rect class="e feature-fill" x="55.47" y="258.49" width="5.16" height="1.15" />
	<polygon class="e feature-fill" points="67.35 290.23 71.56 287.25 72.22 288.19 68.02 291.17 67.35 290.23" />
	<polygon class="e feature-fill" points="25.85 289.56 27.31 290.13 26.88 291.2 25.43 290.63 25.85 289.56" />
	<polygon class="e feature-fill" points="25.42 259.16 26.83 258.48 27.33 259.52 25.93 260.2 25.42 259.16" />
	<rect class="e feature-fill" x="46.04" y="258.49" width="7.47" height="1.15" />
	<path class="e feature-fill" d="M118.28,321.42s8.3.94,11.62-9l.94.24s1.66,6.38-12.56,10.87Z" />
	<rect class="e feature-fill" x="122.07" y="334.18" width="1.42" height="11.82" />
	<rect class="e feature-fill" x="218.07" y="364.45" width="1.42" height="19.15" />
	<rect class="e feature-fill" x="230.64" y="364.45" width="1.42" height="15.13" />
	<rect class="e feature-fill" x="222.1" y="383.6" width="1.42" height="7.09" />
	<rect class="e feature-fill" x="230.87" y="386.91" width="1.42" height="7.09" />
	<rect class="e feature-fill" x="237.51" y="395.66" width="1.42" height="7.09" />
	<rect class="e feature-fill" x="248.41" y="395.66" width="1.42" height="7.09" />
	<rect class="e feature-fill" x="282.55" y="363.03" width="1.42" height="7.09" />
	<rect class="e feature-fill" x="292.03" y="373.44" width="1.42" height="7.09" />
	<rect class="e feature-fill" x="143.41" y="362.79" width="1.42" height="3.55" />
	<rect class="e feature-fill" x="143.64" y="352.63" width="1.42" height="3.55" />
	<rect class="e feature-fill" x="447.76" y="346.36" width="1.42" height="3.63" />
	<rect class="e feature-fill" x="447.76" y="331.11" width="1.42" height="11.26" />
	<rect class="e feature-fill" x="441.13" y="331.11" width="1.42" height="11.26" />
	<rect class="e feature-fill" x="411.55" y="325.28" width="1.42" height="7.53" transform="translate(57.44 719.34) rotate(-86.32)" />
	<rect class="e feature-fill" x="430.29" y="319.25" width="1.42" height="22.9" transform="matrix(0.1, -0.99, 0.99, 0.1, 57.64, 725.33)" />
	<rect class="e feature-fill" x="430.81" y="352.04" width="1.42" height="19.77" />
	<rect class="e feature-fill" x="441.13" y="346.24" width="1.42" height="7.33" />
	<polygon class="e feature-fill" points="447.89 349.25 449.25 349.64 445.07 364.1 443.7 363.71 447.89 349.25" />
	<rect class="e feature-fill" x="394.43" y="365.28" width="1.42" height="7.09" />
	<rect class="e feature-fill" x="394.43" y="344.35" width="1.42" height="7.09" />
	<rect class="e feature-fill" x="369.07" y="344.35" width="1.42" height="25.86" />
	<polygon class="e feature-fill" points="395.27 371.01 395.92 372.28 375.05 382.92 374.41 381.66 395.27 371.01" />
	<polygon class="e feature-fill" points="433.44 377.4 434.29 378.54 427.94 383.28 427.09 382.14 433.44 377.4" />
	<polygon class="e feature-fill" points="442.18 368.44 443.25 369.37 438.06 375.36 436.99 374.43 442.18 368.44" />
	<polygon class="e feature-fill" points="427.99 372.23 428.51 373.55 423.53 375.49 423.01 374.17 427.99 372.23" />
	<polygon class="e feature-fill" points="465.5 382.36 464.12 382.04 469.69 357.86 471.08 358.18 465.5 382.36" />
	<polygon class="e feature-fill" points="472.32 354.12 470.9 354.05 471.61 337.82 473.03 337.88 472.32 354.12" />
	<polygon class="e feature-fill" points="449.78 402.65 448.69 401.73 457.1 391.75 458.19 392.66 449.78 402.65" />
	<polygon class="e feature-fill" points="418.74 381.49 420.03 382.09 408.36 407.19 407.07 406.59 418.74 381.49" />
	<polygon class="e feature-fill" points="408.65 328.24 410.03 328.56 404.3 352.83 402.92 352.5 408.65 328.24" />
	<polygon class="e feature-fill" points="378.67 391.48 379.35 390.23 408.88 406.01 408.21 407.26 378.67 391.48" />
	<polygon class="e feature-fill" points="368.96 369.93 370.25 369.35 379.92 390.93 378.63 391.51 368.96 369.93" />
	<rect class="e feature-fill" x="292.03" y="384.55" width="1.42" height="14.9" />
	<rect class="e feature-fill" x="270.93" y="399.21" width="1.42" height="15.61" />
	<rect class="e feature-fill" x="222.1" y="392.59" width="1.42" height="12.06" />
	<rect class="e feature-fill" x="222.1" y="407.72" width="1.42" height="6.86" />
	<rect class="e feature-fill" x="130.01" y="380.06" width="1.42" height="14.66" />
	<rect class="e feature-fill" x="151.84" y="363.63" width="14.66" height="1.42" transform="translate(-226.65 460.4) rotate(-80.38)" />
	<rect class="e feature-fill" x="170.08" y="361.24" width="9.82" height="1.42" transform="translate(-211.12 474) rotate(-80.38)" />
	<polygon class="e feature-fill" points="176.15 385.59 174.75 385.35 177.94 366.59 179.35 366.61 176.15 385.59" />
	<rect class="e feature-fill" x="122.07" y="334.07" width="4.86" height="1.42" />
	<rect class="e feature-fill" x="159.76" y="356.94" width="4.86" height="1.42" />
	<polygon class="e feature-fill" points="176.53 356.94 176.27 358.38 168.3 358.36 168.3 356.94 176.53 356.94" />
	<rect class="e feature-fill" x="155.94" y="384.17" width="20.15" height="1.42" />
	<rect class="e feature-fill" x="222.07" y="413.37" width="50.28" height="1.42" />
	<rect class="e feature-fill" x="270.9" y="399.18" width="22.55" height="1.42" />
	<rect class="e feature-fill" x="409.35" y="380.72" width="10.68" height="1.42" />
	<rect class="e feature-fill" x="369.08" y="344.01" width="26.77" height="1.42" />
	<rect class="e feature-fill" x="447.66" y="331.07" width="19.48" height="1.42" />
	<rect class="e feature-fill" x="422.83" y="352.11" width="19.48" height="1.42" />
	<rect class="e feature-fill" x="403.02" y="352.11" width="14.76" height="1.42" />
	<rect class="e feature-fill" x="409.33" y="374.28" width="10.58" height="1.42" />
	<rect class="e feature-fill" x="402.93" y="352.2" width="1.42" height="14.72" />
	<polygon class="e feature-fill" points="402.96 366.79 404.1 365.94 410.63 374.72 409.49 375.57 402.96 366.79" />
	<polygon class="e feature-fill" points="465.94 332.01 467.02 331.08 473.03 337.97 471.95 338.9 465.94 332.01" />
	<polygon class="e feature-fill" points="394.31 372.13 395.11 370.96 406.44 378.63 405.64 379.81 394.31 372.13" />
	<polygon class="e feature-fill" points="427.35 382.65 428.3 381.6 449.93 400.97 448.98 402.03 427.35 382.65" />
	<polygon class="e feature-fill" points="445.36 361.44 445.84 360.1 468.02 368.05 467.54 369.39 445.36 361.44" />
	<rect class="e feature-fill" x="237.72" y="401.55" width="12.12" height="1.42" />
	<rect class="e feature-fill" x="248.62" y="395.52" width="5.01" height="1.42" />
	<rect class="e feature-fill" x="233.82" y="395.52" width="5.01" height="1.42" />
	<rect class="e feature-fill" x="237.38" y="370.69" width="5.01" height="1.42" />
	<rect class="e feature-fill" x="245.44" y="370.69" width="5.01" height="1.42" />
	<rect class="e feature-fill" x="230.86" y="366.67" width="11.99" height="1.42" />
	<rect class="e feature-fill" x="250.15" y="366.67" width="11.99" height="1.42" />
	<polygon class="e feature-fill" points="179.42 366.61 178.13 368.03 173.45 368.03 173.45 366.61 179.42 366.61" />
	<rect class="e feature-fill" x="133.45" y="334.07" width="16.12" height="1.42" />
	<rect class="e feature-fill" x="130.25" y="380.06" width="14.58" height="1.42" />
	<rect class="e feature-fill" x="130.01" y="393.42" width="14.58" height="1.42" />
	<path class="e feature-fill" d="M262.13,366.67l5.87-.05,6.44-.48a65.09,65.09,0,0,0,8.11-3.11v1.24a29,29,0,0,1-7,3.06c-3.44.75-13.38.76-13.38.76Z" />
	<path class="e feature-fill" d="M257.64,376.36H254v1.42h5v-.25c0-.71.4-2.68,3.39-2.7l0-1.45A4.76,4.76,0,0,0,257.64,376.36Z" />
	<path class="e feature-fill" d="M257.64,389.69H254v-1.42h5v.25c0,.71.4,2.68,3.39,2.7l0,1.45A4.77,4.77,0,0,1,257.64,389.69Z" />
	<polygon class="e feature-fill" points="113.3 255.44 116.12 256.07 124.7 268.75 126.58 271.27 126.58 273.65 125.37 273.53 125.1 271.01 115.31 256.83 113.44 256.57 113.3 255.44" />
	<polygon class="e feature-fill" points="130.53 277.2 129.78 277.82 132.53 282.31 132.78 285.3 134.4 285.42 134.4 282.18 130.53 277.2" />
	<path class="f feature-stroke no-fill" d="M155.38,254.85l8.18-5.32-3.92-6s12.45-2.83,10-16.31,12.44-12.77,13.16-13.48,19.2,2.13,19.2,2.13,7.82,1.77,9.6,0,2.13,2.84,2.13,2.84" />
	<line class="f feature-stroke no-fill" x1="144" y1="244.57" x2="151.47" y2="254.5" />
	<path class="f feature-stroke no-fill" d="M155,253.43l2.14,4.26s3.2,2.13,6.4.71l11.37,16.67s-5,7.8,0,10.29" />
	<path class="f feature-stroke no-fill" d="M173.87,277.91l27.73,15.25s5,2.13-3.91,15.25" />
	<path class="f feature-stroke no-fill" d="M210.13,271.88s14.58,16,24.54-8.51" />
	<path class="f feature-stroke no-fill" d="M237.16,264.78l-4.63-3.19c-4.62,1.42-3.91,6.39-3.91,6.39-4.26,3.9-11.73.35-11.73.35" />
	<path class="f feature-stroke no-fill" d="M234,262.3l7.34-14.19L237,246.22a4.6,4.6,0,0,1-3.08,1.66c-2.37.47-2.14,4-1,5.67" />
	<path class="f feature-stroke no-fill" d="M238.22,252.84s-9.72-2.12-6.87,8.52" />
	<polyline class="f feature-stroke no-fill" points="243.91 261.59 237.99 258.52 240.83 253.08" />
	<line class="f feature-stroke no-fill" x1="242.96" y1="263.96" x2="237.51" y2="261.12" />
	<path class="f feature-stroke no-fill" d="M176.59,228.25s-4.26-3.54,0-9.22" />
	<polyline class="f feature-stroke no-fill" points="172.56 250.48 165.93 255.68 179.67 273.89 186.07 267.27" />
	<polyline class="f feature-stroke no-fill" points="173.51 253.32 169.72 256.63 179.67 269.63 184.65 265.14" />
	<path class="f feature-stroke no-fill" d="M164.27,241.49a5.2,5.2,0,0,1-2.14,5.21" />
	<polyline class="f feature-stroke no-fill" points="159.29 242.2 159.53 241.26 162.37 239.37 160.47 235.82" />
	<path class="f feature-stroke no-fill" d="M162.13,238s11.38-9.7-2.6-26l2.6-1.19s3.08,3.08,3.08,5.68" />
	<path class="f feature-stroke no-fill" d="M147.2,185.22s1.42-2.84-2.84-4c0,0-4-3.79,3.55-7.1,0,0,7.59-.23,3.79,6.86l-2.84,4.73s-1.66,4.49.47,8,8.06,15.84,8.06,15.84" />
	<path class="f feature-stroke no-fill" d="M169,221.63s0-10.4-4.51-13.95" />
	<polyline class="f feature-stroke no-fill" points="175.41 215.01 156.44 185.45 170.43 176.47" />
	<polyline class="f feature-stroke no-fill" points="182.28 199.17 184.89 203.42 176.35 209.1 173.99 205.32" />
	<path class="f feature-stroke no-fill" d="M123.26,228.49s-5.45-4.73.95-9.22L122.55,216l10.9-6.62" />
	<path class="f feature-stroke no-fill" d="M129.42,216.19l10.91-7.09s5.14-4.22,10.66,7.09c4.51,9.22,1.42,8.75,1.42,8.75" />
	<polyline class="f feature-stroke no-fill" points="154.31 215.96 157.63 223.52 154.31 225.65 155.26 227.54 151.7 229.67" />
	<line class="f feature-stroke no-fill" x1="149.57" y1="232.03" x2="147.44" y2="232.98" />
	<polyline class="f feature-stroke no-fill" points="126.1 169.37 120.89 163.23 129.42 156.37 117.57 143.6 137.01 126.34 146.96 136.98" />
	<polyline class="f feature-stroke no-fill" points="149.09 139.82 164.03 155.19 159.05 160.86" />
	<polyline class="f feature-stroke no-fill" points="128.95 171.97 133.21 177.41 141.75 193.26" />
	<line class="f feature-stroke no-fill" x1="134.16" y1="176.47" x2="140.32" y2="172.21" />
	<polyline class="f feature-stroke no-fill" points="172.56 151.88 166.64 128.23 183.7 124.45 191.53 151.64" />
	<path class="f feature-stroke no-fill" d="M223.05,200.82l2.85-1.42.23-18c-7.11-3.07-23.46-20.33-23.46-20.33l-2.14-11.35-6.87.71-1.42-5.91" />
	<line class="f feature-stroke no-fill" x1="225.9" y1="199.4" x2="227.55" y2="201.3" />
	<path class="f feature-stroke no-fill" d="M219,201.06l-2.13-1.89,2.37-17.5s-.48-4.49-14.94-6.15h-6.16l-2.61-3.07,2.85-3.55" />
	<line class="f feature-stroke no-fill" x1="197.69" y1="176.7" x2="196.98" y2="183.09" />
	<line class="f feature-stroke no-fill" x1="196.5" y1="185.69" x2="196.27" y2="189.47" />
	<path class="f feature-stroke no-fill" d="M195.55,194.44l-.71,3.55-1.18,4s-4,1.41-8.77-8.75l-2.37-4.73" />
	<line class="f feature-stroke no-fill" x1="181.57" y1="185.69" x2="174.22" y2="174.81" />
	<path class="f feature-stroke no-fill" d="M171.61,170.08,168.77,168s6.87-7.81,16.83-4l6.4,6.14,2.61-4.25" />
	<polyline class="f feature-stroke no-fill" points="224 202.95 225.9 202 241.06 225.89" />
	<polyline class="f feature-stroke no-fill" points="193.66 202 206.69 204.37 209.06 201.53 213.09 201.77 215.47 203.9" />
	<polyline class="f feature-stroke no-fill" points="243.2 224.47 247.7 231.8 258.61 237.95 262.16 237.95 264.53 240.31" />
	<path class="f feature-stroke no-fill" d="M247.94,224.47l5.69-2.37,3.55,5.92,15.17-10.17,2.85,4.25-15.65,10.64,1.9,2.37,4.74.94s2.19,3.14,4.8,6.24,5.63,6.18,7.29,6.06" />
	<line class="f feature-stroke no-fill" x1="270.99" y1="242.29" x2="269.04" y2="245.99" />
	<path class="f feature-stroke no-fill" d="M260.74,250s2.37-2.61,3.08-.71" />
	<polyline class="f feature-stroke no-fill" points="233.72 201.53 241.3 197.75 240.12 195.15 246.75 190.66 248.41 192.31 255.29 188.29 254.1 186.4 258.84 182.85 263.35 184.03 267.14 184.51 272.83 180.25 273.3 173.63 269.51 169.37 263.58 167.72 257.18 171.5 256.71 176.94 255.76 179.78 238.46 191.6 234.66 187.58" />
	<line class="f feature-stroke no-fill" x1="246.64" y1="190.54" x2="248.06" y2="189.59" />
	<line class="f feature-stroke no-fill" x1="252.53" y1="187.17" x2="253.95" y2="186.22" />
	<path class="f feature-stroke no-fill" d="M279.11,251.31s4.62,5.67,7.47,6.38" />
	<path class="f feature-stroke no-fill" d="M271.64,270.81l-2.48,3.91s15.64,2.83,10.31,18.44" />
	<line class="f feature-stroke no-fill" x1="266.43" y1="276.73" x2="271.41" y2="279.56" />
	<path class="f feature-stroke no-fill" d="M270,296.11s8.05,6.63,12.8-5.2h2.37l.47-3.54" />
	<line class="f feature-stroke no-fill" x1="266.67" y1="294.93" x2="258.61" y2="290.44" />
	<line class="f feature-stroke no-fill" x1="246.04" y1="284.06" x2="256" y2="289.02" />
	<line class="f feature-stroke no-fill" x1="239.64" y1="281.45" x2="242.49" y2="282.4" />
	<path class="f feature-stroke no-fill" d="M300.56,289.73,293,285.24s-3.08,10.64,11.14,14.66" />
	<line class="f feature-stroke no-fill" x1="301.99" y1="290.91" x2="305.3" y2="293.28" />
	<path class="f feature-stroke no-fill" d="M305.3,301.32l10.2-16.79-2.14-14.9s-22-9.69-26.31-15.6" />
	<path class="f feature-stroke no-fill" d="M276.62,265.38s5.93,3.78,7.11,7.8" />
	<polyline class="f feature-stroke no-fill" points="288 265.14 289.66 262.54 298.19 268.45 294.16 274.12" />
	<line class="f feature-stroke no-fill" x1="292.98" y1="276.02" x2="291.56" y2="278.38" />
	<polyline class="f feature-stroke no-fill" points="269.99 306.75 270.93 305.1 260.74 300.37 259.79 302.5" />
	<path class="f feature-stroke no-fill" d="M257,298l-8.77,16.79s-5.93,9.69,13.27,14.42l-1.18,1.89" />
	<path class="f feature-stroke no-fill" d="M285.39,329l-1.89-.47c-5,12.53-17.78,2.36-17.78,2.36l-.71,1.42" />
	<polyline class="f feature-stroke no-fill" points="289.19 313.85 283.97 325.67 286.1 326.38" />
	<path class="f feature-stroke no-fill" d="M275,308.88l1-2.6L278,307.7s5.22-3.07,5.69,1.89l2.61,1.66-.47,1.89" />
	<line class="f feature-stroke no-fill" x1="203.38" y1="299.19" x2="176.36" y2="282.87" />
	<path class="f feature-stroke no-fill" d="M300.09,199.88s5.93,4,4.5,8.27,5.46,3.79,6.64,3.79" />
	<path class="f feature-stroke no-fill" d="M318.34,201.3s2.85,4.73-.71,8" />
	<rect class="g building-fill" x="42.67" y="225.06" width="3.2" height="3.9" />
	<polygon class="g building-fill" points="68.37 316.04 70.99 319.65 67.3 322.32 64.67 318.71 68.37 316.04" />
	<rect class="g building-fill" x="47.41" y="219.03" width="2.13" height="2.13" />
	<rect class="g building-fill" x="76.8" y="241.73" width="1.66" height="3.78" />
	<rect class="g building-fill" x="37.69" y="283.58" width="3.32" height="3.31" />
	<polygon class="g building-fill" points="143.51 369.37 141.37 366.3 136.97 369.42 131.94 369.42 128.46 364.61 125.43 366.8 129.24 372.7 129.24 372.73 139.32 372.73 139.32 372.72 139.33 372.73 143.51 369.37" />
	<polygon class="g building-fill" points="340.85 283.53 338.71 280.47 334.31 283.58 329.28 283.58 325.79 278.78 322.76 280.97 326.58 286.87 326.58 286.89 336.65 286.89 336.65 286.88 336.66 286.89 340.85 283.53" />
	<polygon class="g building-fill" points="120.07 351.48 120.07 355.5 117.23 355.5 117.23 363.48 125.73 363.48 125.73 358.51 125.73 355.5 125.73 351.48 120.07 351.48" />
	<rect class="g building-fill" x="52.39" y="284.76" width="3.79" height="2.13" />
	<polygon class="g building-fill" points="33.9 267.5 42.19 267.5 42.19 277.67 38.64 277.67 38.64 281.69 33.9 281.69 33.9 275.78 32.47 275.78 32.47 269.16 33.9 269.16 33.9 267.5" />
	<polygon class="g building-fill" points="57.6 265.61 59.5 265.61 59.5 267.03 65.66 267.03 65.66 276.96 57.6 276.96 57.6 265.61" />
	<polygon class="g building-fill" points="76.16 245.5 69.23 237.45 64.55 241.46 63.68 240.45 61.74 242.11 68.67 250.16 68.74 250.09 69.61 251.1 76.16 245.5" />
	<polygon class="g building-fill" points="138.74 341.04 138.74 344.12 130.61 344.12 130.61 352.16 143.17 352.16 143.17 349.08 143.17 344.12 143.17 341.04 138.74 341.04" />
	<rect class="g building-fill" x="162.37" y="363.27" width="2.13" height="4.49" />
	<rect class="g building-fill" x="164.25" y="324.61" width="2.4" height="6.38" />
	<polygon class="g building-fill" points="151.7 275.56 153.64 274.15 157.42 279.3 155.49 280.71 151.7 275.56" />
	<polygon class="g building-fill" points="123.52 231.22 127.18 228.54 133.37 236.97 129.71 239.65 123.52 231.22" />
	<polygon class="g building-fill" points="130.85 224.96 143.5 215.71 150.79 225.63 138.14 234.88 130.85 224.96" />
	<polygon class="g building-fill" points="175.65 153.42 171.12 134.73 183.11 131.84 187.64 150.53 175.65 153.42" />
	<polygon class="g building-fill" points="148.97 240.92 157.26 234.86 160.84 239.74 152.56 245.8 148.97 240.92" />
	<polygon class="g building-fill" points="233.15 226.71 236.96 223.92 239.32 227.13 235.51 229.92 233.15 226.71" />
	<polygon class="g building-fill" points="234.46 220.02 231.22 215.61 230.6 216.06 230.01 215.26 226.61 217.76 230.92 223.62 234.33 221.13 233.84 220.47 234.46 220.02" />
	<polygon class="g building-fill" points="268.84 177.88 264.53 172.01 261.12 174.51 261.6 175.17 260.99 175.62 264.23 180.03 264.84 179.57 265.43 180.37 268.84 177.88" />
	<polygon class="g building-fill" points="179.38 195.74 170.53 183.69 164.9 187.81 169.61 194.23 166.51 196.49 170.68 202.17 178.97 196.11 178.93 196.06 179.38 195.74" />
	<polygon class="g building-fill" points="173.93 202.92 179.56 198.8 182.07 202.22 176.44 206.33 173.93 202.92" />
	<polygon class="g building-fill" points="237.65 195.58 235.73 193.09 233.48 194.81 232.99 194.15 227.46 198.26 230.35 202.12 235.87 198.01 235.36 197.32 237.65 195.58" />
	<polygon class="g building-fill" points="244.48 232.62 242.72 235.22 245.07 236.81 244.6 237.48 250.25 241.41 253.01 237.45 247.36 233.53 246.87 234.23 244.48 232.62" />
	<polygon class="g building-fill" points="176.56 285.26 197.65 295 194.43 301.94 173.34 292.19 176.56 285.26" />
	<rect class="g building-fill" x="161.19" y="370.6" width="1.9" height="4.26" />
	<rect class="g building-fill" x="165.69" y="371.31" width="4.74" height="6.15" />
	<rect class="g building-fill" x="239.64" y="394.24" width="7.82" height="5.67" />
	<polygon class="g building-fill" points="264.77 372.96 264.77 379.82 260.5 379.82 260.5 385.73 264.77 385.73 264.77 393.3 284.68 393.3 284.68 372.96 264.77 372.96" />
	<rect class="g building-fill" x="322.37" y="371.07" width="4.74" height="4.97" />
	<polygon class="g building-fill" points="299.75 268.51 308.64 273.94 305.86 278.49 296.96 273.06 299.75 268.51" />
	<polygon class="g building-fill" points="264.2 286.47 268.74 289.23 266.84 292.33 262.31 289.57 264.2 286.47" />
	<polygon class="g building-fill" points="265.55 285.96 268.74 287.91 267.36 290.16 264.17 288.22 265.55 285.96" />
	<polygon class="g building-fill" points="261.28 242.93 261.98 241.8 258.21 239.5 257.51 240.63 256.63 240.09 254.39 243.75 259.75 247.02 261.99 243.36 261.28 242.93" />
	<polygon class="g building-fill" points="306.83 280.26 311.37 283.02 306.56 290.87 302.03 288.1 306.83 280.26" />
	<polygon class="g building-fill" points="452.97 385.03 450.6 382.93 452.08 381.27 445.72 375.63 438.71 383.49 445.07 389.13 445.09 389.12 447.45 391.22 452.97 385.03" />
	<polygon class="g building-fill" points="427.97 358.07 426.9 358.07 426.9 356.19 417.9 356.19 417.9 358.07 416.71 358.07 416.71 367.52 420.03 367.52 420.03 370.13 424.77 370.13 424.77 367.52 427.97 367.52 427.97 358.07" />
	<polygon class="g building-fill" points="435.49 336.67 435.49 333.95 426.6 333.95 426.6 336.67 426.6 341.99 426.6 344.71 437.86 344.71 437.86 336.67 435.49 336.67" />
	<polygon class="g building-fill" points="408.64 390.42 405.15 388.51 406.32 386.39 402.19 384.14 401.02 386.26 397.89 384.55 393.33 392.86 394.8 393.66 393.95 395.21 402.06 399.64 402.91 398.09 404.08 398.73 408.64 390.42" />
	<polygon class="g building-fill" points="390.16 356.53 386.84 356.53 386.84 353.34 378.31 353.34 378.31 354.99 375.7 354.99 375.7 363.03 378.31 363.03 378.31 364.21 386.84 364.21 386.84 361.61 390.16 361.61 390.16 356.53" />
	<polygon class="g building-fill" points="452.15 348.43 455.47 348.43 455.47 351.62 464 351.62 464 349.97 466.61 349.97 466.61 341.93 464 341.93 464 340.75 455.47 340.75 455.47 343.35 452.15 343.35 452.15 348.43" />
	<polygon class="g building-fill" points="330.94 331.09 336.82 324.92 338.88 326.87 333 333.04 330.94 331.09" />
	<polygon class="g building-fill" points="64.69 223.77 59.88 218.04 59.8 218.12 59.66 217.95 58.77 218.69 58.17 217.91 52.27 222.45 53.05 223.47 48.52 227.24 51.11 230.33 54.36 227.62 56.72 230.43 64.69 223.77" />
	<polygon class="g building-fill" points="460.59 379.01 462.36 380.39 460.98 382.15 459.21 380.77 460.59 379.01" />
	<rect class="g building-fill" x="420.8" y="341.57" width="3.02" height="2.31" />
	<rect class="g building-fill" x="428.63" y="315.33" width="2.31" height="8.36" transform="translate(47.82 694.87) rotate(-81.13)" />
	<polygon class="g building-fill" points="271.43 263.69 248.04 252.8 240.84 268.18 245.16 270.19 241.88 277.22 256.61 284.09 259.9 277.06 264.23 279.07 271.43 263.69" />
	<polygon class="g building-fill" points="285.24 316.79 260.29 305 258.43 308.93 255.56 307.57 251.13 316.91 273.74 327.59 275.6 323.66 280.81 326.12 285.24 316.79" />
	<polygon class="g building-fill" points="123.08 163.17 131.07 157.25 134.89 162.37 126.9 168.29 123.08 163.17" />
	<polygon class="g building-fill" points="136.31 137.49 129.38 142.63 127.55 140.18 122.38 144.02 124.2 146.47 124.16 146.51 127.98 151.63 140.13 142.61 136.31 137.49" />
	<polygon class="g building-fill" points="171.15 108.4 164.22 113.54 162.4 111.1 157.22 114.94 159.05 117.39 159 117.42 162.82 122.54 174.97 113.52 171.15 108.4" />
	<polygon class="g building-fill" points="129.48 169.91 137.47 163.98 141.29 169.11 133.3 175.03 129.48 169.91" />
	<polygon class="g building-fill" points="145.3 144.45 155.58 155.74 146.98 163.54 136.69 152.25 145.3 144.45" />
	<rect class="g building-fill" x="200.5" y="182.32" width="13.03" height="17.53" transform="translate(-11.7 368.66) rotate(-81.78)" />
	<ellipse class="g building-fill" cx="200.53" cy="244.92" rx="29.51" ry="29.44" />
	<polygon class="g building-fill" points="179.06 261.55 177.06 258.95 173.54 261.65 172.56 260.38 170.23 262.17 171.22 263.44 169.24 264.95 171.25 267.55 173.22 266.04 174.36 267.52 176.68 265.73 175.54 264.25 179.06 261.55" />
	<path class="h road-stroke no-fill" d="M317.39,188.29l-45.75,84.65a36.76,36.76,0,0,1-16.59,14.9c-11.38,5-19.67,9-51.44,11.59" />
	<path class="h road-stroke no-fill" d="M320.35,190.19l-1.3,2.36L273.3,277.2A44.53,44.53,0,0,1,255.82,291l-8,3.19s-7.46,2.74-12.62,3.37" />
	<polygon class="d road-stroke road-fill" points="246.25 291.04 246.9 290.76 248.51 294.52 247.86 294.8 246.25 291.04" />
	<polygon class="d road-stroke road-fill" points="264.25 281.24 264.68 280.67 268.4 283.48 267.97 284.05 264.25 281.24" />
	<polygon class="d road-stroke road-fill" points="275.1 265.19 275.53 264.62 279.25 267.43 278.82 268 275.1 265.19" />
	<polygon class="d road-stroke road-fill" points="285.23 246.12 285.66 245.56 289.38 248.37 288.95 248.93 285.23 246.12" />
	<polygon class="d road-stroke road-fill" points="296.61 225.37 297.04 224.81 300.76 227.62 300.33 228.18 296.61 225.37" />
	<polygon class="d road-stroke road-fill" points="309.59 201.16 310.02 200.6 313.74 203.41 313.31 203.98 309.59 201.16" />
	<polygon class="d road-stroke road-fill" points="233.61 294.75 234.26 294.47 235.76 297.95 235.1 298.23 233.61 294.75" />
	<path class="i border-stroke no-fill" d="M199.33,109.57s-34.36-27.89-86.43.54c0,0-50.27,47.8-86.23,104.66,0,0-27.48,47.18,6.4,103.22,0,0,43.34,77.57,120.89,90.44,0,0,52.26,9.92,140.18,8.57,96.62-1.47,136.44.65,136.44.65s22.73-7.11,33.2-17.58c32.21-32.19,33.64-95.61-4.66-117.43Z" />
</svg>
