<svg xmlns="http://www.w3.org/2000/svg" viewBox="0 0 512 512"><defs><style>.a{fill:#3c3c3b;}.b{fill:#565555;}.c,.d,.f,.g{fill:none;stroke-miterlimit:10;}.c,.d{stroke:#6a6a6b;stroke-width:0.52px;}.d{stroke-dasharray:2.62;}.e{fill:#fff;}.f,.g{stroke:#b33536;}.f{stroke-width:0.96px;}.g{stroke-width:2.09px;}</style></defs><rect class="a" width="512" height="512"/><path class="b" d="M38.72,109.57H54.41V94.67h69v-22H165V86.82h24.32v11h7.06V81.33h5.49V62.5h42.37V79h25.1v25.89h36.09v7.06s66.53-1.25,88.66,0,59.86,25.31,68.26,56.49c3.06,11.36,0,47.07,0,47.07L455.32,221v38.45h18.83v22H482V407.71H468.66v11.77H332.93V374.76h8.63v-80l17.26-18h24.32V259.43h50.22v-33l-6.28-9.41V181.75s-1.21-31.37-42.37-34.52c-35.2-2.69-141.22,0-141.22,0v45.51H162.68v-9.42l3.93-7.06L157.19,181h-7.06v-5.49H136.79V150.37h-11v12.55H69.32V147.23l-11-7.06H38.72Z"/><polygon class="b" points="273 215.17 286.08 203.67 329.5 203.67 343.1 216.22 343.1 264.34 333.16 277.42 294.97 277.42 294.97 285.79 301.25 292.59 301.25 300.43 296.02 306.71 290.79 306.71 286.6 310.89 275.1 310.89 275.1 316.65 286.6 316.65 294.97 326.06 294.97 355.88 287.65 355.88 287.65 405.05 262.02 405.05 262.02 414.46 195.07 414.46 195.07 457.35 160.54 457.35 152.18 463.63 139.62 463.63 139.62 459.97 135.44 459.97 135.44 463.63 83.13 463.63 83.13 434.34 69.53 434.34 69.53 397.2 89.93 397.2 94.11 391.45 87.84 381.51 87.84 353.26 117.65 353.26 117.65 356.75 136.48 356.75 136.48 330.77 159.5 330.77 165.25 325.54 187.74 325.54 187.74 312.99 251.03 312.99 251.03 318.74 254.17 318.74 254.17 310.37 231.16 310.37 231.16 261.2 258.88 261.2 258.88 258.06 269.87 258.06 269.87 263.3 273 263.3 273 215.17"/><polygon class="b" points="55.8 238.71 33.3 238.71 33.3 262.77 50.57 262.77 50.57 278.99 34.87 278.99 34.87 300.43 92.94 300.43 92.94 311.94 131.12 311.94 131.12 212.03 90.32 212.03 90.32 196.87 55.8 196.87 55.8 238.71"/><line class="c" x1="61.47" y1="137.82" x2="70.89" y2="137.82"/><polyline class="c" points="86.58 144.88 86.58 155.08 117.18 155.08 117.18 101.73 87.36 101.73 87.36 113.5"/><line class="c" x1="80.3" y1="95.45" x2="80.3" y2="112.71"/><line class="c" x1="80.51" y1="141.94" x2="80.51" y2="160.25"/><line class="c" x1="117.13" y1="117.88" x2="124.45" y2="117.88"/><line class="c" x1="117.65" y1="137.24" x2="125.5" y2="137.24"/><polyline class="c" points="124.97 97.48 124.97 105.33 124.97 146.65"/><line class="c" x1="132.3" y1="106.37" x2="124.98" y2="106.37"/><line class="c" x1="141.71" y1="72.9" x2="141.71" y2="91.21"/><polyline class="c" points="165.25 86.5 165.25 113.7 194.54 113.7"/><polyline class="c" points="168.39 141.42 168.39 174.9 203.96 174.9"/><line class="c" x1="239.53" y1="148.22" x2="168.39" y2="148.22"/><line class="c" x1="238.48" y1="142.99" x2="167.87" y2="142.99"/><polyline class="c" points="199.77 108.99 269.87 108.99 269.87 105.33"/><line class="c" x1="201.87" y1="112.65" x2="265.16" y2="112.65"/><polyline class="c" points="265.68 108.47 265.68 116.84 260.97 123.11 260.97 142.99"/><polyline class="c" points="218.08 175.42 209.71 175.42 209.71 182.22 190.36 182.22"/><line class="c" x1="216.51" y1="190.07" x2="216.51" y2="175.42"/><polyline class="c" points="206.05 82.05 237.7 82.05 237.7 71.85 224.62 71.85"/><path class="c" d="M372.91,137s57,1.84,63.29,47.08c1.36,9.78,0,39.49,0,39.49"/><path class="c" d="M375.26,120.5s70.09,2.09,78.2,57.8c1.41,9.7.79,39.23.79,39.23"/><polyline class="c" points="300.73 205.24 300.73 226.68 293.4 233.48 293.4 241.33 300.73 241.33"/><line class="c" x1="274.05" y1="260.16" x2="291.57" y2="277.68"/><line class="c" x1="287.13" y1="234.53" x2="341.53" y2="234.53"/><line class="c" x1="274.57" y1="234.53" x2="280.85" y2="234.53"/><polyline class="c" points="307 249.17 316.42 249.17 316.42 259.63 323.74 259.63 329.5 254.93"/><line class="c" x1="330.54" y1="246.03" x2="330.54" y2="235.05"/><line class="c" x1="315.9" y1="275.33" x2="315.9" y2="265.39"/><line class="c" x1="273.53" y1="249.17" x2="280.85" y2="249.17"/><line class="c" x1="286.6" y1="249.17" x2="299.16" y2="249.17"/><polyline class="c" points="272.48 270.62 276.14 270.62 285.03 278.46 285.03 285.79 290.79 285.79"/><line class="c" x1="254.7" y1="309.85" x2="262.02" y2="309.85"/><line class="c" x1="276.67" y1="306.71" x2="289.22" y2="306.71"/><polyline class="c" points="218.08 314.03 218.08 343.85 214.42 343.85"/><path class="c" d="M215.47,351.69h3.66v6.8h30.34s.52-4.18,4.18-3.66"/><polyline class="c" points="278.41 354.31 287.3 354.31 287.3 352.22"/><line class="c" x1="282.42" y1="326.59" x2="282.42" y2="348.03"/><line class="c" x1="218.6" y1="327.11" x2="249.99" y2="327.11"/><polyline class="c" points="218.6 336.52 238.48 336.52 238.48 334.43"/><polyline class="c" points="224.36 413.24 214.42 413.24 214.42 402.43 214.42 379.42 261.15 379.42 261.15 413.94"/><line class="c" x1="223.84" y1="408.88" x2="214.42" y2="408.88"/><line class="c" x1="214.42" y1="399.29" x2="191.93" y2="399.29"/><rect class="c" x="160.02" y="384.12" width="32.43" height="17.78"/><polyline class="c" points="188.79 326.59 188.79 344.37 186.17 344.37"/><line class="c" x1="165.77" y1="325.54" x2="165.77" y2="339.14"/><line class="c" x1="187.13" y1="355.97" x2="163.6" y2="355.97"/><polyline class="c" points="137.35 355.88 163.68 355.88 163.68 361.11 167.87 365.29 167.87 384.12"/><polyline class="c" points="185.13 384.12 178.85 377.32 178.85 367.91 181.47 365.29 181.47 353.26"/><path class="c" d="M145.9,339.14s4.71,8.37,10.46.52"/><polyline class="c" points="100.39 385.17 100.39 396.15 103.53 396.15 103.53 409.23"/><polyline class="c" points="84.18 433.82 84.18 423.88 90.63 423.88"/><polyline class="c" points="90.45 462.76 90.45 405.57 90.45 398.25"/><polyline class="c" points="134.56 462.76 134.39 433.82 126.02 424.4 108.24 424.4 108.24 413.42 101.44 406.62 90.45 406.62"/><line class="c" x1="94.11" y1="412.89" x2="94.11" y2="423.35"/><line class="c" x1="90.45" y1="452.12" x2="134.39" y2="452.12"/><line class="c" x1="160.02" y1="401.91" x2="160.02" y2="457.88"/><line class="c" x1="287.13" y1="377.85" x2="279.8" y2="377.85"/><line class="c" x1="49.52" y1="279.51" x2="49.52" y2="298.86"/><line class="c" x1="75.15" y1="298.86" x2="75.15" y2="278.99"/><polyline class="c" points="84.04 277.94 84.04 281.6 119.09 281.6 119.09 278.99 127.98 278.99"/><line class="c" x1="75.67" y1="201.57" x2="88.75" y2="201.57"/><line class="c" x1="75.67" y1="197.91" x2="75.67" y2="206.28"/><line class="c" x1="88.75" y1="197.91" x2="88.75" y2="206.28"/><line class="d" x1="212.68" y1="91.03" x2="212.68" y2="109.17"/><line class="d" x1="225.23" y1="96.96" x2="225.23" y2="109.17"/><line class="d" x1="244.76" y1="79.52" x2="244.76" y2="109.17"/><line class="d" x1="229.07" y1="110.21" x2="229.07" y2="147.17"/><line class="d" x1="239.53" y1="109.17" x2="239.53" y2="143.34"/><polyline class="d" points="225.93 147.87 225.93 175.77 214.07 175.77 214.07 169.84"/><line class="d" x1="213.72" y1="147.87" x2="213.72" y2="159.38"/><line class="d" x1="201.17" y1="148.22" x2="201.17" y2="174.72"/><polyline class="d" points="187.57 175.07 181.64 170.89 181.64 148.22"/><line class="d" x1="232.2" y1="356.05" x2="232.2" y2="389.53"/><line class="d" x1="240.57" y1="356.4" x2="240.57" y2="413.94"/><line class="d" x1="214.77" y1="384.65" x2="259.4" y2="384.65"/><line class="d" x1="129.68" y1="432.77" x2="164.55" y2="432.77"/><line class="d" x1="130.03" y1="440.79" x2="164.55" y2="440.79"/><line class="d" x1="101.09" y1="424.05" x2="101.09" y2="452.3"/><line class="d" x1="90.28" y1="423.7" x2="106.67" y2="423.7"/><line class="d" x1="214.42" y1="389.18" x2="220" y2="384.3"/><polygon class="e" points="149.54 97.32 151.71 101.65 148.1 103.09 146.66 121.14 143.04 121.86 137.27 109.59 140.16 102.37 149.54 97.32"/><rect class="e" x="220.92" y="339.69" width="16.6" height="7.22"/><rect class="e" x="248.15" y="273.28" width="9.02" height="9.03"/><rect class="e" x="248.15" y="287" width="9.02" height="9.03"/><rect class="e" x="271.25" y="292.05" width="9.02" height="9.03"/><rect class="e" x="270.89" y="277.98" width="9.03" height="9.02"/><rect class="e" x="311.58" y="234.93" width="20.21" height="5.05"/><rect class="e" x="311.58" y="237.21" width="14.8" height="11.69"/><rect class="e" x="251.58" y="289.53" width="9.02" height="4.33"/><rect class="e" x="164.18" y="348.36" width="20.22" height="7.22"/><rect class="e" x="62.39" y="113.16" width="13.36" height="7.22"/><rect class="e" x="67.41" y="131.8" width="14.8" height="5.41"/><rect class="e" x="91.69" y="104.37" width="5.41" height="11.55" transform="translate(-16.51 203.64) rotate(-89.53)"/><rect class="e" x="200.21" y="88.62" width="5.41" height="8.8"/><rect class="e" x="235.43" y="82.09" width="8.12" height="13.13"/><rect class="e" x="108.39" y="115.58" width="8.3" height="5.41"/><rect class="e" x="163.71" y="141.2" width="4.69" height="14.89"/><rect class="e" x="158.44" y="109.45" width="5.42" height="5.41"/><rect class="e" x="194.43" y="105.84" width="5.42" height="5.41"/><rect class="e" x="158.77" y="114.5" width="9.81" height="5.41"/><rect class="e" x="194.22" y="109.81" width="9.81" height="5.41"/><rect class="e" x="106.77" y="136.65" width="10.47" height="8.12"/><rect class="e" x="87.6" y="141.34" width="7.22" height="4.51"/><rect class="e" x="179.49" y="423.02" width="12.27" height="15.34"/><rect class="e" x="118.3" y="242.57" width="10.35" height="10.05"/><rect class="e" x="80.1" y="228.72" width="8.96" height="5.62" transform="translate(-4.82 1.82) rotate(-1.2)"/><rect class="e" x="54.01" y="256.93" width="14.68" height="13.42"/><rect class="e" x="109.72" y="213.77" width="10.35" height="9.08"/><rect class="e" x="60.35" y="292.22" width="7.82" height="5.11"/><rect class="e" x="112.97" y="295.63" width="7.82" height="5.11"/><rect class="e" x="103.76" y="268.77" width="6.02" height="11.19"/><rect class="e" x="69.65" y="280.83" width="3.49" height="6.01"/><rect class="e" x="89.71" y="281.77" width="4.36" height="3.85"/><rect class="e" x="110.63" y="282.03" width="4.36" height="3.85"/><rect class="e" x="115.38" y="261.06" width="4.36" height="3.85"/><rect class="e" x="64.85" y="233.37" width="4.36" height="3.85" transform="translate(-129.48 89.56) rotate(-37.54)"/><rect class="e" x="69.32" y="213.25" width="4.36" height="3.85" transform="translate(-18.51 7.06) rotate(-5.01)"/><rect class="e" x="111.16" y="217.51" width="5.17" height="9.08"/><rect class="e" x="109.51" y="245.07" width="12.27" height="7.55"/><rect class="e" x="60.83" y="252.77" width="10.91" height="7.55"/><rect class="e" x="67.09" y="246.51" width="18.13" height="7.55"/><rect class="e" x="76.87" y="244.59" width="7.38" height="7.55"/><rect class="e" x="168.15" y="409.15" width="7.1" height="8.12"/><rect class="e" x="147.57" y="350.43" width="7.54" height="7.16"/><rect class="e" x="172.55" y="326.41" width="15.96" height="4.03"/><rect class="e" x="178.68" y="329.84" width="9.83" height="4.03"/><rect class="e" x="148.52" y="354.23" width="5.97" height="5.67"/><rect class="e" x="150.81" y="400" width="4.88" height="11.01"/><rect class="e" x="109.42" y="374.98" width="4.88" height="11.01"/><rect class="e" x="109.9" y="404.94" width="4.88" height="5.59"/><rect class="e" x="385.02" y="288.09" width="12.27" height="4.51"/><rect class="e" x="350.53" y="371.2" width="3.97" height="11.55"/><rect class="e" x="466.59" y="369.68" width="3.97" height="11.55"/><rect class="e" x="447.96" y="271.38" width="3.97" height="11.55"/><rect class="e" x="464.6" y="298.13" width="3.97" height="11.55"/><rect class="e" x="243.94" y="332.23" width="4.96" height="15.4"/><rect class="e" x="270.9" y="328.86" width="4.96" height="11.55"/><rect class="e" x="271.38" y="361.59" width="4.96" height="17.8"/><rect class="e" x="254.95" y="322.16" width="17.81" height="6.07" transform="translate(-147.02 244.24) rotate(-39.8)"/><polygon class="e" points="198.41 333.62 193.58 329.94 202.04 318.83 206.87 322.51 198.41 333.62"/><polygon class="e" points="157.88 127.45 152.41 123.29 160.87 112.19 166.33 116.35 157.88 127.45"/><rect class="e" x="191.45" y="129.04" width="13.96" height="6.87" transform="matrix(0.76, -0.66, 0.66, 0.76, -38.28, 162.37)"/><polygon class="e" points="192.24 121.31 186.78 117.16 195.23 106.05 200.7 110.21 192.24 121.31"/><polygon class="e" points="193.39 380.14 188.56 376.46 197.01 365.35 201.85 369.03 193.39 380.14"/><polygon class="e" points="144.67 396.16 138.91 394.23 143.72 379.98 149.47 381.92 144.67 396.16"/><polygon class="e" points="139.01 375.95 135.85 372.85 143.54 365.03 146.7 368.14 139.01 375.95"/><polygon class="e" points="240.49 379.79 236.99 377.08 243.7 368.42 247.2 371.13 240.49 379.79"/><polygon class="e" points="462.83 335.52 459.92 332.19 468.17 324.98 471.09 328.32 462.83 335.52"/><polygon class="e" points="125.78 409.4 122.62 406.3 130.31 398.49 133.46 401.59 125.78 409.4"/><polygon class="e" points="269.1 357.72 265.41 360.16 259.37 351.02 263.06 348.58 269.1 357.72"/><polygon class="e" points="103.51 130.28 97.95 135.43 88.54 125.26 94.1 120.11 103.51 130.28"/><polygon class="e" points="152.54 140.81 147.69 143.92 140.22 132.25 145.07 129.14 152.54 140.81"/><polygon class="e" points="167.74 141.41 165.17 145.57 153.39 138.27 155.96 134.12 167.74 141.41"/><polygon class="e" points="205.81 118.17 201.69 123.19 190.98 114.39 195.1 109.37 205.81 118.17"/><polygon class="e" points="232.85 127.84 227.25 131.12 220.25 119.16 225.86 115.87 232.85 127.84"/><polygon class="e" points="226.91 368.05 222.07 371.26 214.55 359.88 219.4 356.67 226.91 368.05"/><polygon class="e" points="133.32 379.31 131.44 384.81 118.54 380.39 120.43 374.89 133.32 379.31"/><polygon class="e" points="107 255.17 102.88 263.2 88.92 256.04 93.03 248.01 107 255.17"/><polygon class="e" points="146.48 446.46 143.32 443.36 151 435.55 154.16 438.65 146.48 446.46"/><polygon class="e" points="80.1 234.03 77.83 229.49 91.6 222.64 93.86 227.18 80.1 234.03"/><polygon class="e" points="317.53 256.77 317.53 245.58 325.83 245.58 325.83 248.89 317.53 256.77"/><circle class="e" cx="271.45" cy="388.06" r="4.33"/><rect class="e" x="54.01" y="256.93" width="8.42" height="20.64"/><rect class="e" x="56.05" y="265.23" width="10.66" height="9.77" transform="translate(-155.53 97.84) rotate(-38.74)"/><path class="f" d="M38.72,109.57H54.41V94.67h69v-22H165V86.82h24.32v11h7.06V81.33h5.49V62.5h42.37V79h25.1v25.89h36.09v7.06s66.53-1.25,88.66,0,59.86,25.31,68.26,56.49c3.06,11.36,0,47.07,0,47.07L455.32,221v38.45h18.83v22H482V407.71H468.66v11.77H332.93V374.76h8.63v-80l17.26-18h24.32V259.43h50.22v-33l-6.28-9.41V181.75s-1.21-31.37-42.37-34.52c-35.2-2.69-141.22,0-141.22,0v45.51H162.68v-9.42l3.93-7.06L157.19,181h-7.06v-5.49H136.79V150.37h-11v12.55H69.32V147.23l-11-7.06H38.72Z"/><polygon class="f" points="273 215.17 286.08 203.67 329.5 203.67 343.1 216.22 343.1 264.34 333.16 277.42 294.97 277.42 294.97 285.79 301.25 292.59 301.25 300.43 296.02 306.71 290.79 306.71 286.6 310.89 275.1 310.89 275.1 316.65 286.6 316.65 294.97 326.06 294.97 355.88 287.65 355.88 287.65 405.05 262.02 405.05 262.02 414.46 195.07 414.46 195.07 457.35 160.54 457.35 152.18 463.63 139.62 463.63 139.62 459.97 135.44 459.97 135.44 463.63 83.13 463.63 83.13 434.34 69.53 434.34 69.53 397.2 89.93 397.2 94.11 391.45 87.84 381.51 87.84 353.26 117.65 353.26 117.65 356.05 136.48 356.05 136.48 330.77 159.5 330.77 165.25 325.54 187.74 325.54 187.74 312.99 251.03 312.99 251.03 318.74 254.17 318.74 254.17 310.37 231.16 310.37 231.16 261.2 258.88 261.2 258.88 258.06 269.87 258.06 269.87 263.3 273 263.3 273 215.17"/><polygon class="g" points="55.8 238.71 33.3 238.71 33.3 262.77 50.57 262.77 50.57 278.99 34.87 278.99 34.87 300.43 92.94 300.43 92.94 311.94 131.12 311.94 131.12 212.03 90.32 212.03 90.32 196.87 55.8 196.87 55.8 238.71"/></svg>