<svg xmlns="http://www.w3.org/2000/svg" viewBox="0 0 512 512"><defs><style>.a{fill:#3c3c3b;}.b{fill:#565555;}.c,.d,.e,.f,.g,.i,.j,.l,.m,.o,.p,.q,.r,.s{fill:none;}.c,.d,.p{stroke:#3c3c3b;}.c,.d,.e,.f,.g,.h,.i,.j,.l,.o,.p,.q,.r,.s{stroke-miterlimit:10;}.c,.d,.l,.p{stroke-width:0.64px;}.d{stroke-dasharray:4.12 4.12;}.e,.q{stroke:#6a6a6b;}.e{stroke-width:0.36px;}.f,.g,.h,.i,.j{stroke:#1f2223;}.f{stroke-width:1.92px;}.g{stroke-width:1.6px;}.h{fill:#1f2223;}.h,.q,.r{stroke-width:0.32px;}.i{stroke-width:2.24px;}.j{stroke-width:1.28px;}.k,.n{fill:#fff;}.l,.m,.o{stroke:#fff;}.m{stroke-miterlimit:10;stroke-width:0.32px;}.n{opacity:0.4;isolation:isolate;}.o,.s{stroke-width:0.96px;}.p{stroke-dasharray:3.84;}.r{stroke:#565555;}.s{stroke:#b33536;}</style></defs><rect class="a" width="512" height="512"/><path class="b" d="M61.83,225.22S73,213,76,213.55s-.59-5.83,11.78-14.58-1.18-3.5,25.34-25.67c0,0,10-23.92,15.92-23.92,0,0,7.07-11.66,17.68-9.33L155,134.8s12.37-7,17.09-1.75,6.48-4.08,8-3.79,3.84-8.46,15-7.29c0,0,5.31.29,6.19-3.5s24.75-9,24.75-9,5.9,6.71,7.66,7,5,4.67,5,4.67l1.48-3.5,5.6,5.25,5-2.33-.59-2.92,2.35,2.63,4.13-1.17-1.18-7a3.13,3.13,0,0,1,3.24,2c.89,2.33,2.95-2,2.95-2l.29-2.33-1.77-.3-.88-2.33h2.06s2.07-10.5,3.24-10.5S291.67,81.42,302,86.09c0,0,10.31-5.54,12.08-7S361.16,57,372.71,59.55C383.9,62,414.85,51.83,416.79,154c1.77,92.75,10,179.82,9.27,193.93-1.62,29.59-22,60.65-34.61,68.21-51.06,30.62-98.63,42.23-125.71,33.39-21-6.85-45.46-25.17-71.85-46.36-19.73-15.84-41.21-33.1-59.49-49.45-17.13-15.32-25.4-36.45-37.71-59.27C59.56,225.59,61.83,225.22,61.83,225.22Z"/><path class="b" d="M236.58,114.75a16.94,16.94,0,0,0,5.46-2.47c2.1-1.66,1.68,5.78,1.68,5.78l-2.94-2.48-2.52,1.24Z"/><path class="b" d="M246,112.68s4.55.82,4.77,2.25,3,0,2.6-2.46-.65-8.2-5-6.76-2.16,2.25-3.46,2.05S246,112.68,246,112.68Z"/><polyline class="c" points="283.57 117.13 284.17 118.96 282.34 119.55"/><line class="d" x1="278.42" y1="120.82" x2="233.33" y2="135.39"/><polyline class="c" points="231.37 136.03 229.54 136.62 228.95 134.79"/><polyline class="c" points="227.61 130.65 227.02 128.82 228.85 128.23"/><line class="d" x1="232.77" y1="126.96" x2="277.86" y2="112.39"/><polyline class="c" points="279.82 111.75 281.64 111.16 282.24 112.99"/><path class="e" d="M222.48,373s-1.55-6.18,8.5-9.27"/><path class="e" d="M239.28,355.83s-10.43-4.83-10,8.89"/><path class="e" d="M244.11,367.42s2.71-6.95,7.92-2.51"/><path class="e" d="M258.4,362.4s-5.21-3.09-7.72,1"/><path class="e" d="M261.3,374.37s1.93,7-.19,9.66"/><path class="e" d="M260.72,396s2.71,6,3.87,7.15"/><path class="e" d="M254.35,425s.58,8.5-9.27,7.34-.78.19-.78.19-11-5.4-6.56-9.65"/><path class="e" d="M230.2,420.15s3.29,6.76,2.13,9.08"/><path class="e" d="M351.12,377.66s-.58-6.18,3.86-6.18"/><path class="e" d="M353.82,375.92s.39-10.62,10.43-4.44"/><path class="e" d="M374.69,375.73s2.31,6.18,5,7.14"/><path class="e" d="M374.88,365.49s-1-3.48-8.11-3.09"/><path class="e" d="M360.58,350.62s-4.44,3.67-4.24,7.72"/><path class="e" d="M351.89,363.36a16.49,16.49,0,0,0-5,5.41c-1.93,3.48-3.86,2.71-3.86,2.71"/><polyline class="e" points="393.81 313.53 394 326.28 406.56 333.43"/><polyline class="e" points="410.61 336.32 417.18 339.22 423.94 328.6"/><polyline class="e" points="393.62 309.86 393.62 301.36 406.94 301.56 421.04 310.06 418.53 314.11"/><polyline class="e" points="369.28 288.61 369.08 284.94 376.04 284.94 376.04 286.88"/><polyline class="e" points="369.28 290.74 369.28 292.67 375.85 292.67 375.85 289.19"/><path class="e" d="M252.22,322.42s-1.16-6.57,4.64-6.19,4.25-3.86,4.25-3.86"/><path class="e" d="M264.2,305.8s-1.16-10.81,5-9.27"/><path class="e" d="M254.54,311.21s-5.79,5.8-7.73,6.57"/><path class="e" d="M213.21,262.92s2.31-3.86,8.49-1.93"/><path class="e" d="M225.57,251.33s-1.16,3.09-1.55,4.25-5,4.64-5,4.64"/><path class="e" d="M241.41,256.74s-1.94,4.64-.39,6.95"/><path class="e" d="M238.32,267.17s4.25,3.09,3.86,6.57"/><path class="e" d="M235.61,270.07s6.38,2.9,2.13,7.73"/><path class="e" d="M311.88,385l-.23-.84s5.55-5.38,12-5.38l1.42,4.83-12.17,3.94-.23-.72-2.66.83.57,2.94,2.89-.72-.12-.78,12.34-3.38,1.3,3.88-9.17,2.84-.17-.61-2.71.77.73,3.06,2.78-.61-.06-1,9.28-2.39,1.3,4.61-13.3,4.11s-6.09,1.17-2.77,8"/><polyline class="e" points="312.6 407.81 309.58 408.84 312.14 418.46 318.94 416.54 317.13 410.17 316.37 410.32"/><path class="e" d="M339.76,373.46l-.6-.74s-10.11,4.88-11.47,4.73l1.21,4.89,12.67-3.4-.45-.6,2.87-1,1.05,3.25-2.56.74-.61-.59-12.22,3.85,1.21,4.15,9.35-2.67-.45-.89,2.87-.59,1.06,2.81-2.72,1-.3-.74-9.06,3,1.36,4.59,12.22-3.7,2.42-3.26,13.88-4.14,8,24.43L351.23,414s1.21,7.11-4.68,9l.15,1.34"/><polyline class="e" points="352.44 413.73 355.31 422.02 325.73 430.9 323.46 422.46 317.73 424.39 315.62 417.58"/><path class="e" d="M334.63,428.24l-.3-2.08S328,429.27,325,422l-2.56.74"/><path class="e" d="M337.8,396.26l8.3-2.52,2.42,8-1.06.45s-3.77-6.52-9.06-4.74Z"/><path class="e" d="M325.43,399.66l.6,1.63s-7.09,1.48-4.68,8.74l-1.66.59-2.26-8.44Z"/><polyline class="e" points="307.81 355.04 309.9 360.69 332.36 354.15 331.31 350.28"/><polyline class="e" points="339.07 349.58 353.89 345.42 349.55 331.13 345.81 332.03 345.81 333.51"/><polyline class="e" points="337.12 335.9 336.67 334.7 339.52 333.81 340.26 335.15"/><polyline class="e" points="334.88 337.53 333.68 332.92 338.62 331.73"/><path class="e" d="M340.12,332.18a6.2,6.2,0,0,0,4.34-1.34"/><polyline class="e" points="281.75 347.01 281 355.64 286.54 355.34"/><path class="e" d="M274.86,374.23s-3.44,13.54,8.39,16.37l.6-1.93-1.8-.45"/><path class="e" d="M287.89,389.56l-2.25-.45v1.79l11.09.3s4.94-1.79,6.58-4.17c0,0,9.29-8,10-7.89"/><polyline class="e" points="289.84 330.66 283.1 329.32 283 332.29 282.8 338.54"/><line class="e" x1="289.69" y1="333.48" x2="283" y2="332.29"/><line class="e" x1="295.23" y1="336.16" x2="299.12" y2="336.01"/><line class="e" x1="295.38" y1="334.82" x2="298.52" y2="334.53"/><polyline class="e" points="299.42 338.54 298.52 333.63 295.83 333.48"/><line class="e" x1="282.8" y1="336.01" x2="289.84" y2="336.61"/><path class="e" d="M309.8,323.41a3.29,3.29,0,0,0-1.08,2.16"/><path class="e" d="M309.41,328.37a4.24,4.24,0,0,0,2.37,1.57"/><path class="e" d="M314.69,329.1S316,328,316,326.9"/><path class="e" d="M315.33,323.66a2.36,2.36,0,0,0-2.37-1.23"/><path class="e" d="M315.48,320.42s-5.33-3.19-8.84,2.26"/><path class="e" d="M305.8,325s-.2,4.22,1.58,5.25"/><path class="e" d="M311.23,332.54s3.66.54,5.34-1.18"/><path class="e" d="M319,327.14s.39-3.53-1.53-5.25"/><path class="e" d="M327.42,322s-.9-3,1.65-3.12a14.83,14.83,0,0,0,4.34-.89s2.25-.45,2.7,2.82c0,0,1.94.6,3-.15l.75,2.38"/><polyline class="e" points="297.02 323.8 297.62 322.76 289.84 319.19 288.94 321.42"/><path class="e" d="M286.54,327.67l-3-.6s1.34-7.44,2.69-10.12l2.25,1.2-1.35,3.12"/><line class="e" x1="285.14" y1="320.02" x2="287.27" y2="320.92"/><line class="e" x1="285.64" y1="318.24" x2="287.89" y2="319.46"/><line class="e" x1="285.98" y1="317.4" x2="288.17" y2="318.52"/><path class="e" d="M287.59,312.75l2.75,1.39s4.44-6.58,8.09-7.59L297,304S290.4,307.34,287.59,312.75Z"/><path class="e" d="M289.16,313.64s4.61-7.08,8.54-8.31"/><path class="e" d="M294.57,316.84l4.1,2.12,4.21-5.07L300.24,309S294.52,315.89,294.57,316.84Z"/><line class="e" x1="296.31" y1="317.74" x2="301.25" y2="310.98"/><path class="e" d="M309.34,311.86l-1.68,1-7.14-11.72s13.26-8.42,16.18-8.64,6.68-.79,5.89,1.67l-.84,2.68s-7.3-2.4-10.28-.78L301.31,302"/><path class="e" d="M314.17,295.4s-.11-2.68,8.08-.62"/><path class="e" d="M322,296s-6.63-2.57-5.9-.39"/><path class="e" d="M324.67,296s5.67,1.56,5.9,3.68"/><path class="e" d="M324.11,297.09s4.77,1.06,5.11,2.9"/><path class="e" d="M338.82,303.56l1.46-1.61s-13.42-10.49-15.22-6.92l-1.29,3.29s4.77,3.18,7.53,1.06S338.82,303.56,338.82,303.56Z"/><path class="e" d="M335.23,302.67l1.06.89s-.9,2.68.85,3.74a2.22,2.22,0,0,0,2.86-.16l1.29,1.56"/><path class="e" d="M341.07,317.9l1.46,6.59a91.67,91.67,0,0,1,10.38-1.79s-3.7-13.72-11.34-19.42l-1.51,1.57,8.92,8.31"/><path class="e" d="M348.08,322.37s3.77.95,3.71-3.07"/><polyline class="e" points="268.35 315.57 274.4 304.96 273.52 304.66 268.65 313.48 276.76 319.31 281.04 311.69"/><polyline class="e" points="284.44 311.54 276.02 306.01 274.4 308.4"/><path class="e" d="M277.21,302.57l-1.48-1.05S279,295,288.57,289.57l6.64,10.76"/><line class="e" x1="279.57" y1="304.06" x2="286.65" y2="308.1"/><path class="e" d="M289,290.76s-8.71,4-12.69,10.76"/><path class="e" d="M296.39,290.16l-1.77,1.2,4.13,6.72s14-11.2,19.48-9.71l-.59-5.53"/><path class="e" d="M317.78,286.87a32.7,32.7,0,0,0-11.95,3.44"/><path class="e" d="M293.29,289.57l-1.33-2.4s7.23-4.63,12.25-5.08l1.18,2.1A29,29,0,0,0,293.29,289.57Z"/><path class="e" d="M317.05,280.9A43.09,43.09,0,0,0,293,288.22"/><path class="e" d="M321.32,287.32s-.59-9.26,6.5-5.53c0,0,22.57,6.43,21.84,11.06"/><path class="e" d="M247.69,291.06s4.43-4,4.87-5.83a9.66,9.66,0,0,1,1.92-3.44l.89-3.43a5.25,5.25,0,0,1,2.51-2.24c1.62-.6,4.28-6.43,3.83-7.63s2.81-3.88,2.81-3.88"/><path class="e" d="M287.09,247.87s-.88-2.54-5.16-1.5-6.35.3-6.35.3-3.39,1.05-3.69,1.65-6.34,2.09-4.87,4.93c0,0-1.32,3-1.77,3.14s1.63,2.54,1.63,2.54"/><path class="e" d="M265.25,256.39a10.22,10.22,0,0,0-1.77,3.58,13.15,13.15,0,0,1-2.21,4.19l-.59,2.24"/><path class="e" d="M265.11,261.77s-1.48-1-3.55,3"/><line class="e" x1="317.49" y1="250.86" x2="322.65" y2="251.9"/><line class="e" x1="317.05" y1="256.39" x2="322.5" y2="256.39"/><line class="e" x1="332.24" y1="257.43" x2="326.93" y2="256.98"/><line class="e" x1="332.39" y1="252.05" x2="327.37" y2="252.35"/><line class="e" x1="327.23" y1="249.66" x2="326.78" y2="259.38"/><line class="e" x1="323.09" y1="249.06" x2="322.5" y2="258.93"/><path class="e" d="M273.66,238.6a30.87,30.87,0,0,1-5.46,3.74c-2.5,1.19-1.32,1.49-1.32,1.49s-2.22,1.35-2.51.75.29.6.29.6-1.62,0-1.77,4.48a4.53,4.53,0,0,1-2.95,3.59,2.39,2.39,0,0,0-1.33,3.59"/><path class="e" d="M253.15,260.87s2.51-6.87,4.87-5.53"/><polyline class="e" points="335.19 211.55 326.05 212.6 326.19 229.78"/><polyline class="e" points="339.33 210.8 350.25 209.31 350.54 226.05"/><polyline class="e" points="355.56 224.85 355.41 209.46 367.81 209.61"/><polyline class="e" points="371.64 210.5 384.63 213.79 382.86 229.49"/><polyline class="e" points="346.56 165.37 345.08 164.32 344.2 165.37"/><polyline class="e" points="339.77 174.19 338.74 175.68 340.06 176.58"/><polyline class="e" points="347.59 181.36 349.51 181.81 349.66 180.46"/><polyline class="e" points="355.26 171.65 355.85 170.3 354.52 169.55"/><polyline class="e" points="352.16 151.32 351.13 152.67 352.61 153.71"/><polyline class="e" points="359.98 157.6 361.61 158.2 362.49 157.15"/><polyline class="e" points="366.92 149.68 367.95 148.03 365.89 147.14"/><polyline class="e" points="358.51 142.65 357.18 141.76 356.29 143.55"/><path class="e" d="M255.37,198s-9.74-11.81-28.19-6-22.72,1.95-22.72,1.95"/><path class="e" d="M228.81,218s18.15-6.73,21.84-9.72"/><path class="e" d="M187.49,203.63s7.53,7.17,9.15,7.17,10.92,6.73,10.92,6.73,4.28,3.14,8.26,2.09"/><path class="e" d="M411.38,184.5s-5.4,6.95-5,10.43"/><path class="e" d="M251.84,152.44s-3.09-7-5.41-6.57-1.16-5.8-1.16-5.8-1.93-4.63-9.66-6.56"/><path class="e" d="M221.71,347.53a8.62,8.62,0,0,0-3.1,8.49"/><path class="e" d="M229.43,347.14s5.8-1.93,7.73.77,8.11,0,8.11,0l3.86,2.32"/><polyline class="e" points="142.13 354.48 175.35 321.64 170.71 316.62"/><polyline class="e" points="162.6 307.74 148.69 293.44 135.94 305.8 134.01 303.87 129.38 308.12"/><polyline class="e" points="126.29 310.44 120.11 317.01 122.81 322.8 117.4 328.98"/><line class="e" x1="126.8" y1="210.38" x2="112.46" y2="225.63"/><polyline class="e" points="110.21 227.88 108.87 228.78 109.09 240.44 110.66 241.78"/><polyline class="e" points="112.45 243.58 116.94 248.06 115.82 249.19"/><line class="e" x1="114.25" y1="250.76" x2="111.78" y2="253.67"/><polyline class="e" points="114.7 256.81 127.7 270.05 135.54 261.97"/><line class="e" x1="137.56" y1="259.95" x2="144.06" y2="253.22"/><polyline class="e" points="145.85 252.1 163.11 234.38 162.44 233.26"/><polyline class="e" points="161.32 232.14 156.84 228.1 162.89 222.05"/><line class="e" x1="164.46" y1="220.92" x2="175.89" y2="209.49"/><line class="e" x1="165.58" y1="198.94" x2="172.98" y2="206.12"/><polyline class="e" points="162.89 196.25 155.49 189.3 148.54 189.07 141.37 196.03"/><line class="e" x1="139.8" y1="197.82" x2="131.06" y2="207.02"/><polyline class="e" points="152.56 279.92 151.01 277.99 156.42 273.35 157.58 275.67"/><polyline class="e" points="159.51 277.12 160.67 279.29 155.89 283.64 154.87 282.62"/><polyline class="e" points="206.64 322.99 207.99 324.35 211.27 321.45"/><polyline class="e" points="212.63 319.32 218.03 314.3 215.52 311.98"/><polyline class="e" points="214.17 310.25 211.08 307.93 208.96 309.47"/><path class="e" d="M214.17,287.45s18.74-8.11,21.25-7.72"/><path class="e" d="M237.35,287.84l.77,2.12a88.65,88.65,0,0,0-11.59,12.17"/><polyline class="e" points="222.28 301.17 214.94 294.02 227.31 282.43 230.78 285.71 232.71 283.98 234.65 286.3"/><path class="e" d="M233.87,272.77s3.87,3.87,2.71,5.41"/><path class="e" d="M275,101.83s-5.8,5.41-2.32,8.11"/><path class="e" d="M268.45,109.17s-1.93-12,4.63-13.13c0,0,5,4.24,8.12-3.48"/><path class="e" d="M299.35,91.4s1.16-8.5,10.82-1.16l5.41.77"/><path class="e" d="M313.26,85.22s6.57-3.09,8.11-5.41"/><path class="e" d="M233.68,122.3s-5-6.18-7.34-6.18c0,0-4.25-8.11-7-1.93,0,0-5,5.8-8.12,4.25"/><path class="e" d="M166.08,141.23s10.81-2.7,12.74-1.54,7.73-4.25,7.73-4.25-1.93-10.43,3.86-10.82c0,0,6.57,5.8,8.5,5.41"/><path class="e" d="M199.3,123.46s-10.43-1.16-8.89,1.16"/><path class="e" d="M164.14,134.28s6.57-1.93,9.66,2.7,5,2.71,5,2.71"/><path class="e" d="M138.26,149s-4.25,1.93-4.63,6.18-4.25,1.93-4.25,1.93"/><path class="f" d="M128.7,347.43,158,317.59s4.93-4.06,22.89-14.78,41.14-23.47,60.56-28.68,22-7,22-7a152.78,152.78,0,0,0,17.67-8.11c8.4-4.64,22.89-6.09,29.26-6.09s36.8-.28,57.95,7.54,32.16,14.48,42.3,22.31l10.14,7.82"/><path class="g" d="M132.85,344.24s10.5-1.49,21.64-14.49c3.57-4.17,8.33-9.07,11.78-16"/><path class="h" d="M95.48,290.74,89.2,278.18a120.33,120.33,0,0,1-2.9-31.68c.67-15,11.61-30.52,16-36.12,6.13-7.74,18.13-20,33.42-33.22,7.06-6.11,14.12-13.37,22.89-18.83,9.78-6.1,21.85-10.3,33.32-14.49,11.75-4.29,22.93-8.55,34.48-12.46,58.66-19.86,106.33-35,164.28-63.16a6.36,6.36,0,0,1,4.63,2.9s-74.17,33.42-112.42,45.49c-37.39,11.8-83.15,28.68-83.15,28.68s-29.47,10.5-38.53,16.23c-5.67,3.58-15.68,12-24.34,20.28-10.11,9.6-19.7,18.83-19.7,18.83S95,222.79,91.71,240.32a62.49,62.49,0,0,0-1,18.11C92.58,276.11,95.48,290.74,95.48,290.74Z"/><path class="f" d="M148.69,169.82s32.3,17.82,46,25.11c4.35,2.32,10.65,5.41,16.71,5.12,2.55-.12,15.41-8.24,26.08-5.22,14.67,4.17,27.56,20.74,22.31,38.25l-9,18.25s-5.79,12.17-1.44,25.79c0,0,2.31,8.4-8.41,14.2s-12.45,15.35-12.45,15.35-3.77,12.17-19.71,25.5c-14.17,11.86-18.12,18.94-21.15,26.94-2.67,7.07-6.08,15.94-14.77,26.37"/><path class="f" d="M415.05,169.63s-38.82,31.29-28.39,117.63c0,0,5.79,31.87-1.74,41.72"/><path class="f" d="M208.76,331.88c1.34,1.65,7.57,5.9,14.2,7.82,3.91,1.13,5.79,1.16,11,2.32,8.6,1.91,20,3.59,28.1,1.45a74.46,74.46,0,0,1,17.39-2.61c5.83-.17,13.33.68,19.41-.29,17.13-2.72,35.21-12,50.41-13.91a87.24,87.24,0,0,1,26.37.58,50.71,50.71,0,0,1,22.6,9.28,57.25,57.25,0,0,0,23.18,9.85"/><path class="i" d="M305,340s-3.67-13.32-3.29-16.8,4.06-7.46,7.53-8.31,9.66.19,11.4,3.48c1.47,2.77,4.25,15.26,4.25,15.26"/><path class="j" d="M331,96.61s7.53,12.17,6.38,19.71-2.32,6.37,3.47,17.38,4.93,20,.29,27-14.48,13.9-6.95,24.33S338,207.87,338,207.87"/><path class="j" d="M390.14,213.67s-12.25-6.19-35.93-6c-8.49.07-18.45.2-29.84,2.8,0,0-25.79,2.32-37.67-.87s-17.38-3.48-28.39,1.74"/><path class="j" d="M386.66,231.92s-44.91,2.61-49.83,5.22-11.3,2.89-11,13.9-4.93,20.57-4.93,20.57-2,5.8-.87,7.83"/><path class="j" d="M256.57,344.05s4.63-71,71.85-64.61c0,0,21.15,2.41,25.5,12.36,0,0-.36,6-.72,7.63-.28,1.23-1.19,2.8-1,4.92.19,2.47-1.06,9.95-1.06,9.95"/><path class="j" d="M338,369.93s22.41-6.57,17-44.42c0,0-5.65-16.11-8.88-20.72-1.73-2.46-6.61-6.19-9.13-7.82-3-1.94-12.89-6.09-12.89-6.09s-9.13-.87-13.19,2-10.52,5.32-13.76,7.53a54.52,54.52,0,0,0-9.37,8.65c-2.14,2.8-5.4,7-6.56,12.5-1,4.61-2.18,18.69-2.18,18.69s.87,15.36-4.2,26.08-3.47,21,5.65,24.63,18.88,1,20.72-.87c3.21-3.21,9.12-8.41,9.12-8.41s3.38-3.93,14.35-6.37Z"/><path class="j" d="M254.93,207.68s-26.66,13.52-34,13.13-31.68.78-39.79,17c0,0-.26,6.24-8.89,13.14-7.72,6.18-2.56,10.55-1.35,13.71.91,2.35-.16,7.32,0,9.85.18,2.76,2.43,7.9,2.51,10.62.15,4.56-4,17.77-4,17.77s-1.44,5.71-.58,7.54c1.14,2.44,8.5,5.6,8.5,5.6s26.65,9.46,30.32,15.64"/><path class="j" d="M88.81,266.4s12.75,4.06,24.34-9.85"/><line class="j" x1="187.32" y1="191.65" x2="164.14" y2="219.46"/><path class="j" d="M402.89,184.69s-23.63-14.64-30.33-15.64c-7.73-1.16-20.67-4.06-29-12.56"/><path class="j" d="M351.89,89.08s6.57,7.34,25.88,3.87,27.82-1.16,31.68,1.54"/><path class="j" d="M385.12,251s1.93-4.25,13.52,6.56a155.16,155.16,0,0,0,23.18,17.77"/><path class="j" d="M387.43,330.53s-5.58,22.33-.77,31.67c2.66,5.17,2.47,11.4,1.55,23.18-.78,9.85-1.16,16.24-1.16,18,0,5.6-4.64,16.8-9.66,19.89"/><path class="j" d="M99.24,300.78s17,1.55,24-4.63S135,292.33,139,292.28c5.36-.06,8.5-2.7,16.62-13.52,7.15-9.54,15.83-9.66,15.83-9.66"/><path class="j" d="M277,361.43s5,19.32,23.95,12c9.11-3.53,15.06,4.25,15.06,4.25"/><path class="j" d="M239.47,433.67s2.71,5.8,12.75,1.94,15.84-1.16,19.71,4.24,7.72,9.66,25.11,9.28"/><rect class="k" x="181.79" y="156.69" width="15.03" height="10.2" transform="translate(-42.08 69.72) rotate(-18.82)"/><rect class="k" x="203.85" y="173.09" width="8.13" height="9.29" transform="translate(-46.22 76.58) rotate(-18.82)"/><rect class="k" x="355.39" y="241.47" width="9.29" height="8.13" transform="matrix(0, -1, 1, 0, 113.06, 604.58)"/><rect class="k" x="397.95" y="317.5" width="7.02" height="9.37" transform="translate(77.68 722.35) rotate(-89.77)"/><rect class="k" x="397.22" y="302.21" width="4.12" height="5.49" transform="translate(92.73 703.02) rotate(-89.77)"/><rect class="k" x="365.61" y="240.93" width="5.21" height="4.56" transform="translate(123.53 610.45) rotate(-89.77)"/><rect class="k" x="214.57" y="160.54" width="16.55" height="9.67" transform="translate(-41.44 80.73) rotate(-18.82)"/><rect class="k" x="219.93" y="149.75" width="9.41" height="19.56" transform="translate(-39.46 81.03) rotate(-18.83)"/><rect class="k" x="296.46" y="198.98" width="8.88" height="7.73" transform="translate(-4.02 6.09) rotate(-1.15)"/><rect class="k" x="311.56" y="151.23" width="4.55" height="3.96" transform="translate(-3.02 6.34) rotate(-1.15)"/><rect class="k" x="351.75" y="193.94" width="6.08" height="4.91" transform="translate(-3.86 7.14) rotate(-1.15)"/><rect class="k" x="358.3" y="188.32" width="3.2" height="2.8" transform="translate(-3.72 7.24) rotate(-1.15)"/><rect class="k" x="324.51" y="123.79" width="4.55" height="3.96" transform="translate(-2.46 6.59) rotate(-1.15)"/><rect class="k" x="325.83" y="111.74" width="5.71" height="4.97" transform="translate(-17.62 148.23) rotate(-24.77)"/><rect class="k" x="321.05" y="149.15" width="6.1" height="5.4" transform="translate(-30.26 101.58) rotate(-17.03)"/><rect class="k" x="295.55" y="151.27" width="6.1" height="5.4" transform="translate(-32 94.21) rotate(-17.03)"/><rect class="k" x="277.53" y="196.28" width="7.34" height="7.34"/><rect class="k" x="269.61" y="196.28" width="6.95" height="7.34"/><rect class="k" x="272.7" y="213.28" width="6.18" height="6.76"/><rect class="k" x="342.6" y="168.08" width="10.04" height="10.04" transform="translate(27.74 393.29) rotate(-61.01)"/><rect class="k" x="329.32" y="282.89" width="7.25" height="8.37" transform="translate(-79.51 439.2) rotate(-61.02)"/><rect class="k" x="339.3" y="288.24" width="7.25" height="8.37" transform="translate(-91.15 413.62) rotate(-56.06)"/><rect class="k" x="349.93" y="271.36" width="7.25" height="11.96" transform="translate(-73.94 415.78) rotate(-56.06)"/><polygon class="k" points="344.09 275.2 341.16 274.14 342.98 269.11 345.9 270.16 344.09 275.2"/><rect class="k" x="377.6" y="153" width="3.12" height="8.07" transform="translate(58.05 412.6) rotate(-61.01)"/><rect class="k" x="385.64" y="192.46" width="6.17" height="5.66" transform="translate(59.26 479.36) rotate(-67.44)"/><rect class="k" x="403.85" y="304.71" width="6.17" height="5.66" transform="translate(-33.18 565.38) rotate(-67.44)"/><rect class="k" x="410.81" y="308.17" width="6.17" height="5.66" transform="translate(-32.06 573.97) rotate(-67.45)"/><rect class="k" x="414.96" y="326.81" width="5.19" height="4.77" transform="translate(-46.57 588.63) rotate(-67.46)"/><rect class="k" x="390.74" y="186.04" width="4.22" height="3.87" transform="translate(68.56 478.66) rotate(-67.44)"/><rect class="k" x="351.8" y="193.98" width="3.03" height="5.62" transform="translate(-3.85 7.07) rotate(-1.14)"/><rect class="k" x="371.79" y="156.43" width="10.04" height="6.55" transform="translate(54.5 411.91) rotate(-61.01)"/><rect class="k" x="351.32" y="124.32" width="7.8" height="4.32" transform="translate(38.91 331.72) rotate(-52.58)"/><rect class="k" x="351.76" y="119.32" width="4.2" height="9.41" transform="translate(40.34 329.71) rotate(-52.58)"/><rect class="k" x="352.65" y="121.12" width="5.05" height="6.75" transform="translate(40.48 330.94) rotate(-52.58)"/><rect class="k" x="351.3" y="122.57" width="4.75" height="7.14" transform="matrix(0.61, -0.79, 0.79, 0.61, 38.59, 330.39)"/><circle class="k" cx="358.27" cy="145.48" r="2.17"/><circle class="k" cx="364.25" cy="148.96" r="2.17"/><circle class="k" cx="355.47" cy="151.37" r="2.17"/><circle class="k" cx="361.45" cy="154.85" r="2.17"/><rect class="k" x="196.3" y="171.94" width="4.64" height="4.35" transform="translate(-44.95 71.94) rotate(-18.48)"/><rect class="k" x="253.16" y="293.63" width="6.83" height="6.41" transform="translate(-134.46 264.72) rotate(-44.47)"/><rect class="k" x="152.84" y="192.94" width="5.59" height="23.85" transform="translate(-99.45 171.35) rotate(-45.29)"/><rect class="k" x="140.59" y="213.11" width="3.13" height="12.78" transform="translate(-113.84 166.08) rotate(-45.28)"/><polyline class="l" points="160.09 207 161.82 205.56 159.22 203.24"/><rect class="k" x="138.62" y="216.51" width="6.51" height="10.22" transform="translate(-115.42 166.51) rotate(-45.28)"/><rect class="k" x="128.16" y="222.2" width="6" height="8.27" transform="translate(-121.95 160.28) rotate(-45.28)"/><rect class="k" x="122.36" y="227.98" width="6" height="8.27" transform="translate(-127.78 157.88) rotate(-45.28)"/><rect class="k" x="115.25" y="224.73" width="4.56" height="3.76" transform="translate(-126.2 150.72) rotate(-45.29)"/><rect class="k" x="125.58" y="314.82" width="4.56" height="4.57" transform="translate(-187.46 184.89) rotate(-45.29)"/><rect class="k" x="119.49" y="330.09" width="4.56" height="4.57" transform="translate(-200.11 185.09) rotate(-45.29)"/><rect class="k" x="130.61" y="309.8" width="4.56" height="4.57" transform="translate(-182.4 186.98) rotate(-45.29)"/><polygon class="k" points="214.95 314.7 206.14 323.6 200.52 318.02 209.32 309.13 214.95 314.7"/><polygon class="k" points="217.59 346.56 211.06 354.05 205.09 348.84 211.63 341.36 217.59 346.56"/><rect class="k" x="294.67" y="309.1" width="7.71" height="7.92" transform="translate(-133.98 304.98) rotate(-45.29)"/><polygon class="k" points="297.31 320.89 296.59 328.57 288.71 327.82 289.44 320.15 297.31 320.89"/><polygon class="k" points="284.11 310.56 279.25 317.47 273.78 313.62 278.65 306.71 284.11 310.56"/><rect class="k" x="288.86" y="329.81" width="7.71" height="7.92" transform="translate(-66.99 593.96) rotate(-84.63)"/><rect class="m" x="145.09" y="296.67" width="4.87" height="3.78" transform="translate(-168.45 193.37) rotate(-45.29)"/><polygon class="l" points="146.29 323.4 138.62 331.15 133.33 325.91 141 318.16 146.29 323.4"/><rect class="k" x="148.18" y="316.66" width="4.87" height="3.78" transform="translate(-181.74 201.49) rotate(-45.29)"/><rect class="k" x="144.4" y="330.18" width="11.14" height="9.11" transform="translate(-193.41 205.79) rotate(-45.28)"/><rect class="k" x="116.71" y="233.64" width="6" height="8.27" transform="translate(-133.48 155.54) rotate(-45.28)"/><rect class="k" x="114.3" y="230.73" width="21.77" height="2.73" transform="translate(-127.83 157.75) rotate(-45.28)"/><polygon class="k" points="152.99 237.4 134 256.58 132.06 254.65 151.05 235.47 152.99 237.4"/><circle class="k" cx="134.16" cy="254.52" r="4.64"/><circle class="n" cx="153.95" cy="305.32" r="2.61"/><circle class="n" cx="145.7" cy="313.58" r="2.61"/><circle class="k" cx="143.57" cy="320.63" r="2.22"/><circle class="k" cx="139.76" cy="324.44" r="2.22"/><circle class="k" cx="136.04" cy="328.16" r="2.22"/><circle class="k" cx="143.72" cy="244.96" r="4.64"/><circle class="k" cx="153.13" cy="235.54" r="4.64"/><polyline class="o" points="148.59 300.2 153.95 305.32 142.99 316.14"/><line class="o" x1="145.7" y1="313.58" x2="151.3" y2="319.13"/><line class="l" x1="137.58" y1="321.64" x2="144.63" y2="330.04"/><path class="k" d="M167.57,322.89a1.74,1.74,0,0,1,.22,2.45l-3.34,3.73a1.75,1.75,0,0,1-2.46.06h0a1.75,1.75,0,0,1-.22-2.46l3.34-3.73a1.75,1.75,0,0,1,2.46-.05Z"/><path class="k" d="M149,341.33a1.75,1.75,0,0,1,.22,2.46l-3.34,3.73a1.76,1.76,0,0,1-2.47.05h0a1.74,1.74,0,0,1-.21-2.45l3.34-3.73a1.75,1.75,0,0,1,2.46-.06Z"/><rect class="k" x="281.97" y="395.43" width="8.11" height="8.31"/><rect class="k" x="283.13" y="343.95" width="10.91" height="6.95"/><rect class="k" x="287.57" y="376.5" width="8.11" height="8.31"/><rect class="k" x="359.43" y="387.58" width="2.7" height="2.77"/><rect class="k" x="351.12" y="386.55" width="3.86" height="2.77" transform="translate(-36.25 36.39) rotate(-5.61)"/><rect class="k" x="359.93" y="392.36" width="3.71" height="2.76" transform="translate(-68.16 75.83) rotate(-10.94)"/><rect class="k" x="361.34" y="393.48" width="1.83" height="3.92" transform="translate(-68.44 75.9) rotate(-10.94)"/><rect class="k" x="277.44" y="375.06" width="8.31" height="8.11" transform="matrix(0.14, -0.99, 0.99, 0.14, -133.98, 603.44)"/><rect class="k" x="265.59" y="328.52" width="5.52" height="5.39" transform="translate(-97.92 549.3) rotate(-81.76)"/><rect class="k" x="297.99" y="375.3" width="8.08" height="7.79" transform="translate(-77.02 76.98) rotate(-12.9)"/><polygon class="k" points="329.45 349.51 309.54 355.43 306.02 343.58 325.93 337.66 329.45 349.51"/><rect class="k" x="327.86" y="320.66" width="9.41" height="7.12" transform="translate(-78.59 108.18) rotate(-16.55)"/><rect class="k" x="339.6" y="313.66" width="7.44" height="4.17" transform="translate(-75.75 110.94) rotate(-16.56)"/><rect class="k" x="340.24" y="320.32" width="8.92" height="3.39" transform="translate(-77.46 111.56) rotate(-16.55)"/><rect class="k" x="353.9" y="311.83" width="5.76" height="4.68" transform="translate(-74.68 114.58) rotate(-16.54)"/><polygon class="k" points="360.87 323.08 356.43 323.32 356.1 317.35 360.55 317.11 360.87 323.08"/><rect class="k" x="270.48" y="391.6" width="8.71" height="8.54" transform="translate(-206.94 407.61) rotate(-56.63)"/><rect class="k" x="298.02" y="376.46" width="9.59" height="4.71" transform="translate(-76.91 77.14) rotate(-12.9)"/><polygon class="k" points="318.6 415.87 312.4 417.28 310.34 408.3 316.54 406.88 318.6 415.87"/><polygon class="k" points="364.53 404.5 355.88 408.31 353.08 401.97 361.74 398.15 364.53 404.5"/><rect class="k" x="299.72" y="343.39" width="4.59" height="6.47" transform="translate(-69.75 76.15) rotate(-12.9)"/><polygon class="k" points="322.17 353.45 318.02 354.68 313.53 339.58 317.68 338.35 322.17 353.45"/><polygon class="k" points="351.78 343.28 338.03 347.37 334.87 336.74 348.62 332.66 351.78 343.28"/><rect class="k" x="283.13" y="343.95" width="3.67" height="9.66"/><rect class="k" x="284.19" y="343.18" width="2.61" height="10.43"/><rect class="k" x="287.28" y="343.18" width="2.61" height="6.57"/><rect class="k" x="290.57" y="343.18" width="2.61" height="6.57"/><polygon class="k" points="352.54 344.32 348.76 345.44 344.91 332.49 348.68 331.37 352.54 344.32"/><polygon class="k" points="342.71 347.25 338.47 348.51 334.62 335.55 338.86 334.29 342.71 347.25"/><polygon class="k" points="346.71 345.29 344.06 346.07 340.55 334.26 343.2 333.47 346.71 345.29"/><polygon class="p" points="265.17 269.73 239.72 277.29 238.1 271.86 263.55 264.3 265.17 269.73"/><polygon class="k" points="310.57 290.87 299.95 297.37 296.18 291.2 306.79 284.7 310.57 290.87"/><polygon class="k" points="295.12 298.98 284.5 305.48 280.72 299.31 291.34 292.81 295.12 298.98"/><polygon class="k" points="291.14 276.88 279.23 284.18 275.45 278.01 287.36 270.72 291.14 276.88"/><polygon class="k" points="316.04 297.03 327.21 300.77 326.67 302.26 332.31 314.19 323.94 318.05 322.16 313.95 320.26 313.3 320.73 311.52 314.68 309.38 314.14 310.99 312.3 310.33 307.91 312.53 304.11 303.98 315.21 299.41 316.04 297.03"/><polygon class="k" points="292.37 301.67 289 303.73 284.77 296.83 288.14 294.77 292.37 301.67"/><path class="k" d="M268.45,337.29a1.16,1.16,0,0,1-1.16,1.16h-1.74a1.16,1.16,0,0,1-1.16-1.16h0a1.16,1.16,0,0,1,1.16-1.16h1.74a1.16,1.16,0,0,1,1.16,1.16Z"/><path class="k" d="M272.89,336.52a1.16,1.16,0,0,1-1.16,1.15H270a1.16,1.16,0,0,1-1.16-1.15h0a1.15,1.15,0,0,1,1.16-1.16h1.74a1.15,1.15,0,0,1,1.16,1.16Z"/><circle class="k" cx="262.65" cy="354.67" r="2.51"/><rect class="k" x="238.9" y="303.1" width="3.67" height="10.43" transform="translate(-25.39 21.63) rotate(-4.89)"/><rect class="k" x="234.07" y="305.7" width="13.33" height="8.51" transform="translate(-15.64 12.81) rotate(-2.95)"/><rect class="k" x="224.14" y="288.57" width="3.67" height="10.43" transform="translate(-144.52 283.37) rotate(-50.82)"/><rect class="k" x="218.14" y="288.42" width="13.33" height="8.51" transform="translate(-143.52 269.66) rotate(-48.9)"/><polygon class="k" points="276.48 273.52 284.02 285.28 290.11 281.37 282.57 269.62 276.48 273.52"/><rect class="k" x="297.8" y="270.85" width="8.31" height="7.92" transform="translate(-47.99 64.48) rotate(-11.3)"/><rect class="k" x="285.56" y="261.24" width="5.56" height="3.75" transform="translate(-45.98 61.62) rotate(-11.3)"/><rect class="k" x="275.5" y="264.33" width="5.56" height="3.75" transform="translate(-92.67 162.75) rotate(-28.15)"/><rect class="k" x="272.85" y="251.81" width="6.73" height="6.68" transform="matrix(0.85, -0.53, 0.53, 0.85, -93, 183.86)"/><rect class="k" x="297.24" y="256.94" width="3.67" height="9.08" transform="translate(-29.19 37.74) rotate(-6.89)"/><rect class="k" x="292.2" y="258.27" width="14.48" height="6.59" transform="translate(-29.22 37.82) rotate(-6.89)"/><rect class="k" x="269.69" y="252.54" width="9.51" height="4.61" transform="translate(-87.75 159.55) rotate(-28.14)"/><rect class="k" x="281.3" y="249.49" width="3.58" height="4.61" transform="translate(-85.3 163.32) rotate(-28.15)"/><rect class="k" x="325.99" y="284.8" width="8.67" height="3.24" transform="translate(-80.3 436.56) rotate(-61.01)"/><rect class="k" x="334.43" y="395.99" width="3.35" height="28.33" transform="translate(-93.47 99.26) rotate(-14.77)"/><rect class="k" x="329.99" y="398.97" width="13.64" height="25.4" transform="translate(-103.48 113.25) rotate(-16.58)"/><rect class="k" x="324.33" y="404.94" width="25.59" height="13.47" transform="translate(-103.47 113.34) rotate(-16.58)"/><polygon class="k" points="352.97 409.31 322.57 418.36 321.4 414.44 351.8 405.39 352.97 409.31"/><rect class="k" x="329.72" y="404.55" width="16.12" height="17.96" transform="translate(-103.97 113.6) rotate(-16.58)"/><rect class="k" x="326.74" y="406.27" width="20.3" height="10.93" transform="translate(-103.5 113.27) rotate(-16.58)"/><rect class="k" x="334.5" y="399.51" width="2.43" height="24.44" transform="translate(-190.36 485.74) rotate(-58.82)"/><polygon class="k" points="330.29 419.62 332.36 420.76 344.18 400.6 342.11 399.46 330.29 419.62"/><line class="q" x1="419.53" y1="221.2" x2="421.51" y2="218.58"/><polyline class="q" points="420.65 288.37 420.19 289.06 419.74 289.74 419.28 290.42 418.82 291.11"/><polyline class="q" points="419.29 287.33 418.84 288.01 418.38 288.69 417.92 289.38 417.46 290.06"/><polyline class="q" points="417.9 286.25 417.45 286.93 416.99 287.62 416.53 288.3 416.07 288.99"/><polyline class="q" points="416.6 285.25 416.14 285.93 415.69 286.61 415.23 287.29 414.77 287.98"/><polyline class="q" points="415.13 284.12 414.68 284.8 414.23 285.48 413.77 286.17 413.31 286.85"/><polyline class="q" points="413.86 283.13 413.41 283.81 412.95 284.49 412.49 285.18 412.03 285.87"/><polyline class="q" points="412.43 282.03 411.98 282.71 411.52 283.39 411.06 284.08 410.6 284.76"/><polyline class="q" points="410.99 280.93 410.54 281.6 410.09 282.28 409.63 282.98 409.18 283.67"/><polyline class="q" points="409.58 279.87 409.15 280.55 408.7 281.24 408.25 281.94 407.8 282.64"/><polyline class="q" points="408.16 278.83 407.73 279.51 407.3 280.21 406.86 280.91 406.42 281.62"/><polyline class="q" points="406.74 277.82 406.32 278.5 405.9 279.2 405.46 279.92 405.03 280.63"/><polyline class="q" points="405.29 276.82 404.89 277.51 404.47 278.21 404.05 278.93 403.63 279.65"/><polyline class="q" points="403.82 275.83 403.42 276.52 403.02 277.23 402.6 277.96 402.19 278.68"/><polyline class="q" points="402.36 274.88 401.98 275.58 401.58 276.3 401.18 277.03 400.78 277.76"/><polyline class="q" points="400.87 273.94 400.5 274.65 400.12 275.37 399.72 276.11 399.33 276.85"/><polyline class="q" points="399.35 273.01 398.98 273.72 398.61 274.44 398.23 275.19 397.84 275.94"/><polyline class="q" points="397.86 272.14 397.51 272.85 397.15 273.58 396.77 274.33 396.4 275.08"/><polyline class="q" points="396.33 271.26 395.99 271.98 395.64 272.71 395.28 273.47 394.92 274.23"/><polyline class="q" points="394.76 270.39 394.43 271.11 394.09 271.85 393.73 272.61 393.38 273.38"/><polyline class="q" points="393.25 269.58 392.93 270.3 392.6 271.05 392.25 271.81 391.91 272.59"/><polyline class="q" points="391.7 268.78 391.39 269.5 391.07 270.25 390.73 271.02 390.4 271.8"/><polyline class="q" points="390.1 267.97 389.8 268.7 389.49 269.45 389.16 270.23 388.84 271.01"/><polyline class="q" points="388.53 267.2 388.23 267.93 387.93 268.68 387.61 269.46 387.3 270.25"/><polyline class="q" points="386.98 266.46 386.69 267.19 386.4 267.94 386.09 268.74 385.78 269.53"/><polyline class="q" points="385.38 265.72 385.11 266.45 384.82 267.21 384.52 268 384.21 268.8"/><polyline class="q" points="383.74 264.98 383.47 265.71 383.19 266.47 382.89 267.27 382.6 268.07"/><polyline class="q" points="382.17 264.29 381.9 265.02 381.63 265.78 381.34 266.58 381.06 267.38"/><polyline class="q" points="380.59 263.61 380.33 264.34 380.07 265.11 379.79 265.91 379.5 266.71"/><polyline class="q" points="378.97 262.93 378.72 263.66 378.46 264.43 378.18 265.24 377.91 266.04"/><polyline class="q" points="377.3 262.24 377.06 262.98 376.8 263.74 376.54 264.56 376.27 265.37"/><polyline class="q" points="375.69 261.6 375.46 262.33 375.21 263.1 374.94 263.91 374.68 264.73"/><polyline class="q" points="374.11 260.97 373.88 261.71 373.64 262.48 373.38 263.29 373.12 264.11"/><polyline class="q" points="372.49 260.35 372.26 261.08 372.02 261.85 371.77 262.67 371.52 263.49"/><polyline class="q" points="370.82 259.71 370.6 260.45 370.37 261.22 370.12 262.04 369.87 262.86"/><polyline class="q" points="369.12 259.08 368.9 259.81 368.67 260.58 368.43 261.41 368.18 262.23"/><polyline class="q" points="367.48 258.49 367.28 259.23 367.07 260.01 366.84 260.84 366.62 261.67"/><polyline class="q" points="365.81 257.94 365.62 258.68 365.43 259.46 365.22 260.3 365.02 261.14"/><polyline class="q" points="364.11 257.42 363.94 258.16 363.77 258.95 363.58 259.79 363.39 260.63"/><polyline class="q" points="362.39 256.93 362.24 257.68 362.08 258.46 361.9 259.31 361.73 260.15"/><polyline class="q" points="360.65 256.47 360.52 257.21 360.37 258 360.21 258.85 360.05 259.7"/><polyline class="q" points="358.96 256.05 358.83 256.79 358.69 257.58 358.55 258.43 358.4 259.29"/><polyline class="q" points="357.24 255.65 357.13 256.39 357 257.18 356.87 258.04 356.74 258.9"/><polyline class="q" points="355.52 255.28 355.42 256.02 355.3 256.81 355.18 257.67 355.06 258.53"/><polyline class="q" points="353.79 254.92 353.69 255.67 353.59 256.46 353.48 257.32 353.37 258.19"/><polyline class="q" points="352.05 254.6 351.97 255.34 351.88 256.13 351.77 257 351.68 257.86"/><polyline class="q" points="350.31 254.29 350.23 255.03 350.15 255.82 350.06 256.69 349.97 257.56"/><polyline class="q" points="348.57 254 348.5 254.75 348.43 255.54 348.35 256.41 348.27 257.28"/><polyline class="q" points="346.83 253.74 346.77 254.48 346.7 255.27 346.63 256.14 346.56 257.01"/><polyline class="q" points="345.09 253.49 345.04 254.23 344.98 255.02 344.92 255.9 344.86 256.77"/><polyline class="q" points="343.37 253.26 343.32 254 343.27 254.79 343.22 255.67 343.17 256.54"/><polyline class="q" points="341.6 253.05 341.57 253.78 341.52 254.58 341.48 255.45 341.44 256.33"/><polyline class="q" points="339.83 252.85 339.8 253.58 339.77 254.38 339.73 255.25 339.69 256.13"/><polyline class="q" points="338.08 252.66 338.06 253.4 338.03 254.19 338 255.07 337.97 255.95"/><polyline class="q" points="336.35 252.5 336.33 253.23 336.31 254.03 336.29 254.91 336.27 255.79"/><polyline class="q" points="334.64 252.35 334.63 253.08 334.62 253.87 334.6 254.76 334.59 255.64"/><polyline class="q" points="332.86 252.21 332.85 252.94 332.84 253.73 332.83 254.61 332.83 255.5"/><polyline class="q" points="331.06 252.08 331.06 252.81 331.06 253.6 331.06 254.48 331.06 255.37"/><polyline class="q" points="329.31 251.97 329.32 252.69 329.32 253.48 329.32 254.37 329.33 255.25"/><polyline class="q" points="327.61 251.87 327.61 252.59 327.62 253.38 327.63 254.27 327.65 255.16"/><polyline class="q" points="325.9 251.78 325.92 252.5 325.93 253.29 325.95 254.18 325.96 255.07"/><polyline class="q" points="324.05 251.7 324.07 252.42 324.09 253.21 324.11 254.1 324.13 254.99"/><polyline class="q" points="322.27 251.63 322.3 252.35 322.32 253.14 322.35 254.03 322.38 254.92"/><polyline class="q" points="320.58 251.58 320.61 252.3 320.64 253.09 320.68 253.98 320.71 254.87"/><polyline class="q" points="318.87 251.54 318.91 252.26 318.94 253.05 318.98 253.94 319.02 254.83"/><polyline class="q" points="316.99 251.51 317.02 252.22 317.06 253.01 317.11 253.9 317.16 254.79"/><polyline class="q" points="315.28 251.49 315.32 252.2 315.36 252.99 315.42 253.88 315.47 254.77"/><polyline class="q" points="313.6 251.48 313.65 252.19 313.69 252.97 313.75 253.87 313.81 254.76"/><polyline class="q" points="311.7 251.48 311.75 252.19 311.8 252.97 311.86 253.87 311.92 254.76"/><polyline class="q" points="310.24 251.48 310.29 252.19 310.35 252.97 310.42 253.87 310.49 254.76"/><polyline class="q" points="308.47 251.53 308.55 252.23 308.63 253.01 308.72 253.9 308.81 254.8"/><polyline class="q" points="306.7 251.62 306.79 252.32 306.89 253.1 307 253.99 307.12 254.88"/><polyline class="q" points="304.9 251.75 305.01 252.44 305.12 253.22 305.26 254.11 305.39 255"/><polyline class="q" points="303.15 251.91 303.27 252.6 303.4 253.37 303.55 254.26 303.7 255.15"/><polyline class="q" points="301.38 252.1 301.51 252.79 301.65 253.56 301.82 254.45 301.99 255.34"/><polyline class="q" points="299.62 252.33 299.76 253.02 299.92 253.78 300.1 254.67 300.28 255.55"/><polyline class="q" points="297.87 252.59 298.03 253.27 298.2 254.03 298.4 254.91 298.6 255.8"/><polyline class="q" points="296.11 252.88 296.27 253.56 296.46 254.32 296.68 255.2 296.89 256.08"/><polyline class="q" points="294.37 253.21 294.55 253.88 294.75 254.64 294.99 255.51 295.22 256.39"/><polyline class="q" points="292.63 253.58 292.82 254.24 293.04 254.99 293.3 255.86 293.55 256.74"/><polyline class="q" points="290.88 253.99 291.1 254.65 291.33 255.39 291.61 256.26 291.89 257.12"/><polyline class="q" points="289.16 254.44 289.39 255.1 289.65 255.83 289.95 256.69 290.25 257.55"/><polyline class="q" points="287.44 254.96 287.69 255.6 287.97 256.32 288.3 257.17 288.63 258.02"/><polyline class="q" points="285.72 255.53 285.99 256.16 286.3 256.88 286.66 257.71 287.02 258.55"/><polyline class="q" points="284.05 256.16 284.35 256.78 284.69 257.48 285.08 258.3 285.48 259.13"/><polyline class="q" points="282.35 256.9 282.68 257.5 283.05 258.18 283.49 258.99 283.93 259.79"/><polyline class="q" points="280.73 257.72 281.1 258.3 281.51 258.95 282 259.73 282.49 260.5"/><polyline class="q" points="279.22 258.54 279.58 259.12 279.99 259.77 280.47 260.56 280.95 261.33"/><polyline class="q" points="277.7 259.33 278.05 259.91 278.45 260.58 278.92 261.36 279.39 262.15"/><polyline class="q" points="276.15 260.11 276.5 260.69 276.88 261.36 277.35 262.16 277.81 262.95"/><polyline class="q" points="274.62 260.85 274.95 261.44 275.33 262.12 275.78 262.92 276.24 263.72"/><polyline class="q" points="273.04 261.6 273.37 262.19 273.74 262.87 274.18 263.67 274.63 264.48"/><polyline class="q" points="271.5 262.3 271.82 262.89 272.18 263.58 272.62 264.39 273.05 265.2"/><polyline class="q" points="269.89 263.02 270.2 263.61 270.56 264.3 270.99 265.12 271.41 265.94"/><polyline class="q" points="268.33 263.69 268.63 264.29 268.98 264.98 269.4 265.8 269.82 266.63"/><polyline class="q" points="266.74 264.36 267.03 264.96 267.38 265.65 267.79 266.48 268.2 267.31"/><polyline class="q" points="265.11 265.03 265.4 265.63 265.74 266.32 266.14 267.15 266.54 267.99"/><polyline class="q" points="263.55 265.64 263.83 266.24 264.16 266.94 264.55 267.78 264.94 268.62"/><polyline class="q" points="262.01 266.33 262.31 266.92 262.66 267.61 263.08 268.44 263.5 269.26"/><polyline class="q" points="260.49 266.93 260.77 267.53 261.08 268.23 261.46 269.08 261.85 269.93"/><polyline class="q" points="258.87 267.5 259.13 268.11 259.43 268.82 259.79 269.68 260.15 270.53"/><polyline class="q" points="257.25 268.05 257.49 268.66 257.78 269.37 258.13 270.24 258.48 271.1"/><polyline class="q" points="255.65 268.57 255.89 269.18 256.17 269.89 256.51 270.76 256.85 271.63"/><polyline class="q" points="254 269.08 254.24 269.69 254.51 270.41 254.84 271.28 255.18 272.15"/><polyline class="q" points="252.3 269.6 252.52 270.21 252.79 270.92 253.12 271.8 253.45 272.68"/><polyline class="q" points="250.73 270.06 250.96 270.67 251.22 271.38 251.54 272.26 251.87 273.14"/><polyline class="q" points="249.03 270.55 249.25 271.16 249.51 271.88 249.83 272.76 250.15 273.64"/><polyline class="q" points="247.3 271.04 247.51 271.65 247.77 272.37 248.08 273.26 248.4 274.14"/><polyline class="q" points="245.74 271.48 245.96 272.09 246.21 272.81 246.52 273.69 246.83 274.58"/><polyline class="q" points="244.09 271.93 244.3 272.54 244.55 273.26 244.86 274.15 245.17 275.04"/><polyline class="q" points="242.34 272.41 242.55 273.02 242.79 273.74 243.1 274.63 243.41 275.52"/><polyline class="q" points="240.57 272.89 240.78 273.5 241.03 274.21 241.34 275.11 241.66 276"/><polyline class="q" points="238.91 273.37 239.13 273.97 239.39 274.68 239.72 275.57 240.04 276.45"/><polyline class="q" points="237.22 273.88 237.46 274.47 237.73 275.18 238.07 276.06 238.41 276.94"/><polyline class="q" points="235.53 274.42 235.77 275.01 236.05 275.71 236.41 276.59 236.76 277.47"/><polyline class="q" points="233.83 274.99 234.07 275.57 234.36 276.28 234.73 277.15 235.1 278.02"/><polyline class="q" points="232.19 275.56 232.44 276.14 232.74 276.84 233.12 277.71 233.5 278.58"/><polyline class="q" points="230.55 276.16 230.81 276.74 231.12 277.43 231.51 278.3 231.9 279.16"/><polyline class="q" points="228.91 276.78 229.17 277.35 229.49 278.04 229.89 278.9 230.28 279.77"/><polyline class="q" points="227.25 277.42 227.52 277.99 227.85 278.68 228.26 279.54 228.66 280.39"/><polyline class="q" points="225.61 278.08 225.88 278.65 226.21 279.33 226.63 280.19 227.05 281.04"/><polyline class="q" points="224 278.75 224.28 279.31 224.62 279.98 225.04 280.84 225.47 281.69"/><polyline class="q" points="222.4 279.43 222.68 279.98 223.02 280.65 223.46 281.51 223.89 282.36"/><polyline class="q" points="220.79 280.12 221.07 280.68 221.42 281.35 221.86 282.19 222.3 283.04"/><polyline class="q" points="219.17 280.84 219.46 281.39 219.82 282.05 220.26 282.9 220.71 283.75"/><polyline class="q" points="217.57 281.56 217.86 282.11 218.22 282.77 218.68 283.62 219.13 284.46"/><polyline class="q" points="215.99 282.3 216.28 282.83 216.65 283.5 217.11 284.34 217.57 285.18"/><polyline class="q" points="214.41 283.04 214.71 283.57 215.07 284.23 215.54 285.07 216.01 285.91"/><polyline class="q" points="212.82 283.79 213.13 284.33 213.5 284.98 213.97 285.82 214.45 286.65"/><polyline class="q" points="211.25 284.56 211.55 285.09 211.93 285.74 212.41 286.58 212.89 287.41"/><polyline class="q" points="209.67 285.34 209.98 285.86 210.36 286.51 210.85 287.35 211.33 288.18"/><polyline class="q" points="208.11 286.12 208.42 286.64 208.8 287.29 209.29 288.12 209.78 288.95"/><polyline class="q" points="206.55 286.91 206.86 287.43 207.25 288.07 207.75 288.9 208.24 289.73"/><polyline class="q" points="205 287.71 205.31 288.23 205.7 288.87 206.2 289.7 206.7 290.52"/><polyline class="q" points="203.45 288.52 203.76 289.03 204.16 289.67 204.66 290.5 205.17 291.32"/><polyline class="q" points="201.9 289.33 202.22 289.84 202.62 290.48 203.13 291.31 203.64 292.13"/><polyline class="q" points="200.35 290.16 200.67 290.67 201.07 291.3 201.59 292.13 202.1 292.95"/><polyline class="q" points="198.81 290.99 199.13 291.5 199.53 292.13 200.05 292.95 200.57 293.77"/><polyline class="q" points="197.28 291.82 197.6 292.33 198 292.96 198.53 293.78 199.05 294.6"/><polyline class="q" points="195.76 292.66 196.08 293.16 196.49 293.79 197.01 294.61 197.54 295.43"/><polyline class="q" points="194.24 293.51 194.56 294.01 194.97 294.63 195.5 295.45 196.03 296.27"/><polyline class="q" points="192.7 294.37 193.02 294.87 193.43 295.49 193.97 296.31 194.5 297.12"/><polyline class="q" points="191.17 295.23 191.5 295.73 191.91 296.35 192.45 297.17 192.98 297.98"/><polyline class="q" points="189.66 296.1 189.99 296.59 190.4 297.21 190.94 298.02 191.48 298.84"/><polyline class="q" points="188.16 296.96 188.49 297.44 188.9 298.06 189.45 298.88 189.99 299.69"/><polyline class="q" points="186.66 297.83 186.98 298.31 187.4 298.93 187.95 299.75 188.49 300.56"/><polyline class="q" points="185.12 298.72 185.45 299.21 185.87 299.82 186.42 300.63 186.97 301.44"/><polyline class="q" points="183.61 299.61 183.94 300.09 184.36 300.7 184.91 301.52 185.47 302.33"/><polyline class="q" points="182.12 300.49 182.45 300.97 182.87 301.58 183.43 302.39 183.98 303.2"/><polyline class="q" points="180.65 301.37 180.98 301.84 181.4 302.45 181.96 303.26 182.52 304.07"/><polyline class="q" points="179.08 302.3 179.41 302.78 179.84 303.38 180.4 304.19 180.96 305"/><polyline class="q" points="177.53 303.23 177.87 303.71 178.29 304.31 178.85 305.12 179.42 305.93"/><polyline class="q" points="176.06 304.13 176.39 304.6 176.81 305.2 177.38 306.01 177.95 306.82"/><polyline class="q" points="174.64 304.99 174.97 305.46 175.4 306.06 175.97 306.87 176.54 307.68"/><polyline class="q" points="173.13 305.92 173.46 306.38 173.89 306.99 174.47 307.79 175.04 308.6"/><polyline class="q" points="171.59 306.87 171.93 307.33 172.36 307.93 172.94 308.74 173.51 309.54"/><polyline class="q" points="170.15 307.77 170.49 308.23 170.92 308.83 171.5 309.63 172.08 310.44"/><polyline class="q" points="168.73 308.67 169.07 309.12 169.5 309.72 170.09 310.52 170.68 311.32"/><polyline class="q" points="167.18 309.66 167.51 310.11 167.95 310.71 168.54 311.5 169.13 312.31"/><polyline class="q" points="165.75 310.58 166.09 311.03 166.53 311.62 167.13 312.42 167.72 313.21"/><polyline class="q" points="164.28 311.54 164.62 311.99 165.07 312.57 165.67 313.37 166.27 314.16"/><polyline class="q" points="162.81 312.51 163.16 312.96 163.6 313.54 164.21 314.33 164.82 315.12"/><polyline class="q" points="161.38 313.49 161.72 313.93 162.18 314.5 162.79 315.29 163.41 316.07"/><polyline class="q" points="159.97 314.46 160.32 314.9 160.78 315.47 161.41 316.25 162.03 317.02"/><polyline class="q" points="158.51 315.51 158.87 315.93 159.34 316.49 159.99 317.26 160.63 318.03"/><polyline class="q" points="157 316.72 157.42 317.08 157.97 317.56 158.73 318.21 159.49 318.86"/><polyline class="q" points="155.78 317.96 156.2 318.32 156.75 318.8 157.51 319.45 158.28 320.1"/><polyline class="q" points="154.56 319.2 154.98 319.56 155.53 320.03 156.3 320.69 157.06 321.34"/><polyline class="q" points="153.34 320.44 153.76 320.8 154.31 321.27 155.08 321.93 155.84 322.58"/><polyline class="q" points="152.13 321.68 152.54 322.04 153.1 322.51 153.86 323.17 154.63 323.82"/><polyline class="q" points="150.91 322.92 151.32 323.28 151.88 323.75 152.64 324.41 153.41 325.06"/><polyline class="q" points="149.69 324.17 150.11 324.52 150.66 324.99 151.43 325.65 152.19 326.31"/><polyline class="q" points="148.48 325.4 148.89 325.76 149.44 326.23 150.21 326.89 150.97 327.55"/><polyline class="q" points="147.26 326.65 147.67 327 148.22 327.47 148.99 328.13 149.76 328.79"/><polyline class="q" points="146.04 327.89 146.45 328.24 147 328.71 147.77 329.37 148.54 330.03"/><polyline class="q" points="144.83 329.13 145.23 329.48 145.78 329.95 146.55 330.61 147.32 331.27"/><polyline class="q" points="143.61 330.37 144.02 330.72 144.57 331.19 145.34 331.85 146.11 332.51"/><polyline class="q" points="142.39 331.61 142.8 331.96 143.35 332.43 144.12 333.09 144.89 333.75"/><polyline class="q" points="141.18 332.85 141.58 333.2 142.13 333.67 142.9 334.33 143.67 334.99"/><polyline class="q" points="139.96 334.09 140.36 334.44 140.91 334.91 141.68 335.57 142.46 336.23"/><polyline class="q" points="138.74 335.33 139.14 335.68 139.69 336.15 140.47 336.81 141.24 337.48"/><polyline class="q" points="137.52 336.57 137.92 336.92 138.47 337.39 139.25 338.05 140.02 338.72"/><polyline class="q" points="136.31 337.81 136.71 338.16 137.25 338.63 138.03 339.29 138.8 339.96"/><polyline class="q" points="135.09 339.06 135.49 339.4 136.04 339.87 136.81 340.53 137.59 341.2"/><polyline class="q" points="133.87 340.3 134.27 340.64 134.82 341.11 135.59 341.77 136.37 342.44"/><polyline class="q" points="132.66 341.54 133.05 341.88 133.6 342.35 134.38 343.01 135.15 343.68"/><polyline class="q" points="131.44 342.78 131.83 343.12 132.38 343.59 133.16 344.25 133.94 344.92"/><polyline class="q" points="130.22 344.02 130.62 344.36 131.16 344.83 131.94 345.5 132.72 346.16"/><polyline class="q" points="129.01 345.26 129.4 345.6 129.94 346.07 130.72 346.74 131.5 347.4"/><path class="r" d="M131,347.53l27.38-28s4.92-4.06,22.89-14.78,41.14-23.47,60.55-28.68,22-7,22-7A153.36,153.36,0,0,0,281.49,261c8.4-4.63,22.89-6.08,29.26-6.08s36.8-.29,57.95,7.53,32.16,14.49,42.3,22.31l10.14,7.82"/><path class="r" d="M128.7,345.69,158,315.85s4.93-4.06,22.89-14.78S222,277.6,241.41,272.39s22-7,22-7a152.78,152.78,0,0,0,17.67-8.11c8.4-4.63,22.89-6.08,29.26-6.08s36.8-.29,57.95,7.53,32.16,14.49,42.3,22.31l10.14,7.82"/><path class="r" d="M135.75,342s10.14-1.88,28.1-26.51"/><polyline class="r" points="135.13 343.18 135.18 343.45 135.23 343.73 135.28 344.01 135.33 344.29 135.38 344.57 135.43 344.84 135.48 345.12 135.53 345.4"/><polyline class="r" points="136.52 341.71 136.6 342.11 136.69 342.51 136.78 342.92 136.87 343.32 136.95 343.72 137.04 344.12 137.13 344.52 137.22 344.93"/><polyline class="r" points="138.06 340.86 138.16 341.26 138.26 341.66 138.36 342.06 138.46 342.46 138.56 342.86 138.66 343.25 138.75 343.65 138.85 344.05"/><polyline class="r" points="139.48 340.02 139.59 340.42 139.7 340.82 139.81 341.21 139.92 341.61 140.03 342 140.14 342.4 140.25 342.8 140.36 343.19"/><polyline class="r" points="140.97 339.09 141.09 339.49 141.22 339.88 141.34 340.27 141.46 340.66 141.58 341.06 141.7 341.45 141.82 341.84 141.94 342.24"/><polyline class="r" points="142.35 338.18 142.49 338.57 142.62 338.96 142.75 339.35 142.88 339.74 143.01 340.13 143.14 340.52 143.27 340.91 143.4 341.3"/><polyline class="r" points="143.79 337.17 143.94 337.56 144.08 337.94 144.22 338.33 144.36 338.72 144.5 339.1 144.64 339.49 144.78 339.87 144.92 340.26"/><polyline class="r" points="145.13 336.18 145.29 336.56 145.44 336.95 145.59 337.33 145.74 337.71 145.89 338.09 146.04 338.48 146.19 338.86 146.34 339.24"/><polyline class="r" points="146.49 335.13 146.65 335.51 146.81 335.89 146.97 336.27 147.13 336.65 147.29 337.02 147.45 337.4 147.61 337.78 147.77 338.16"/><polyline class="r" points="147.83 334.03 148 334.4 148.17 334.78 148.34 335.15 148.51 335.53 148.68 335.9 148.85 336.28 149.02 336.65 149.19 337.02"/><polyline class="r" points="149.1 332.94 149.28 333.31 149.45 333.68 149.63 334.05 149.81 334.42 149.99 334.79 150.17 335.16 150.35 335.53 150.53 335.9"/><polyline class="r" points="150.38 331.78 150.56 332.15 150.75 332.52 150.94 332.88 151.13 333.25 151.31 333.61 151.5 333.98 151.69 334.35 151.88 334.71"/><polyline class="r" points="151.64 330.59 151.83 330.95 152.03 331.31 152.22 331.67 152.42 332.03 152.62 332.39 152.81 332.76 153.01 333.12 153.21 333.48"/><polyline class="r" points="152.86 329.38 153.06 329.74 153.26 330.09 153.47 330.45 153.67 330.81 153.88 331.17 154.08 331.52 154.28 331.88 154.49 332.24"/><polyline class="r" points="154.04 328.15 154.25 328.51 154.46 328.86 154.68 329.21 154.89 329.57 155.1 329.92 155.31 330.27 155.52 330.62 155.74 330.98"/><polyline class="r" points="155.21 326.89 155.43 327.24 155.65 327.59 155.87 327.94 156.09 328.28 156.31 328.63 156.53 328.98 156.75 329.32 156.97 329.67"/><polyline class="r" points="156.33 325.62 156.56 325.96 156.79 326.3 157.01 326.64 157.24 326.98 157.47 327.33 157.7 327.67 157.93 328.01 158.16 328.35"/><polyline class="r" points="157.43 324.31 157.66 324.64 157.9 324.98 158.14 325.31 158.37 325.65 158.61 325.99 158.85 326.32 159.08 326.66 159.32 327"/><polyline class="r" points="158.49 322.97 158.74 323.3 158.98 323.63 159.23 323.96 159.47 324.29 159.72 324.62 159.96 324.95 160.21 325.28 160.45 325.61"/><polyline class="r" points="159.51 321.61 159.77 321.93 160.02 322.26 160.27 322.58 160.53 322.9 160.78 323.23 161.03 323.55 161.29 323.88 161.54 324.2"/><polyline class="r" points="160.5 320.22 160.77 320.53 161.03 320.85 161.29 321.17 161.56 321.48 161.82 321.8 162.08 322.12 162.34 322.43 162.6 322.75"/><polyline class="r" points="161.45 318.81 161.72 319.12 161.99 319.43 162.26 319.74 162.53 320.05 162.8 320.36 163.07 320.67 163.34 320.98 163.62 321.28"/><polyline class="r" points="162.36 317.36 162.64 317.66 162.92 317.96 163.2 318.26 163.48 318.57 163.76 318.87 164.04 319.17 164.32 319.47 164.6 319.77"/><polyline class="r" points="163.22 315.91 163.51 316.2 163.8 316.5 164.09 316.79 164.38 317.08 164.66 317.38 164.95 317.67 165.24 317.96 165.53 318.26"/><polyline class="r" points="164.75 315.08 164.96 315.29 165.18 315.5 165.4 315.7 165.61 315.91 165.83 316.12 166.05 316.33 166.26 316.54 166.48 316.75"/><path class="r" d="M132,346.44s21.59-4.59,35.78-33.2"/><path class="s" d="M83,268.72c43.37,92.28,54.47,85.76,123.43,143.71s93.29,41.72,158.19,18,61.42-85.76,61.42-85.76-4.63-169.21-13.9-241.06-75-34.36-82.29-31.87L91.13,156.3s-51.57,19.7-27.23,73S83,268.72,83,268.72Z"/></svg>