<svg xmlns="http://www.w3.org/2000/svg" viewBox="0 0 512 512">
	<defs>
        <style>
            .no-fill{fill:none;}
            .no-stroke{stroke:none;}
            
            .border-fill{fill:#b33536;}
            .road-fill{fill:#1f2223;}
			.background-fill{fill:#3c3c3b;}
            .field-fill{fill:#565555;}
            .feature-fill{fill:#6a6a6b;}
            .building-fill{fill:#fff;}
            
            .border-stroke{stroke:#b33536;}
            .road-stroke{stroke:#1f2223;}
			.background-stroke{stroke:#3c3c3b;}
            .field-stroke{stroke:#565555;}
            .feature-stroke{stroke:#6a6a6b;}
            .building-stroke{stroke:#fff;} 
        </style>
		<style>
            .c,.d,.e,.f,.g,.h,.i,.j,.k,.l,.m,.n,.o,.p,.q,.r,.s,.t,.v{stroke-miterlimit:10;}
            .c,.d,.e,.f,.g,.h,.i,.j,.k,.l,.m,.n,.o,.p,.q,.r{stroke-width:0.64px;}
            .s{stroke-width:6.39px;}
            .t{stroke-width:4.79px;}
            .v{stroke-width:0.96px;}
            .d{stroke-dasharray:2.64 2.64;}
            .e{stroke-dasharray:2.58 2.58;}
            .f{stroke-dasharray:1.75 1.75;}
            .g{stroke-dasharray:1.04 1.04;}
            .h{stroke-dasharray:1.7 1.7;}
            .i{stroke-dasharray:2.27 2.27;}
            .j{stroke-dasharray:3.08 3.08;}
            .k{stroke-dasharray:2.13 2.13;}
            .l{stroke-dasharray:3.08 3.08;}
            .m{stroke-dasharray:2.13 2.13;}
            .n{stroke-dasharray:1.11 1.11;}
            .o{stroke-dasharray:1.11 1.11;}
            .p{stroke-dasharray:1.11 1.11;}
            .q{stroke-dasharray:1.04 1.04;}
            .r{stroke-dasharray:1.6;}
		</style>
	</defs>
	<rect class="a background-fill" width="512" height="512" />
	<path class="b field-fill" d="M39.08,246.67l.49-32.74s-2-30.29,23-44S199.75,99.34,199.75,99.34s51.47-24.76,97.08-27.8,102.07-.65,102.07-.65,68.19,2.17,74.27,59.94l.22,206.75s6.08,68.19-70.15,87.74c0,0-100.55,12.38-125.09,8.69S223,420.76,196.27,404.47s-120.74-63-120.74-63S38,323.9,38.82,278.29Z" />
	<path class="c feature-stroke no-fill" d="M104.2,335.87l-9.56,4.5s-3.85-15-16.3-12.17" />
	<path class="c feature-stroke no-fill" d="M170.64,361.44s11.49,10,11.92,14.48,7.66,8.73,16.18,10.43" />
	<path class="c feature-stroke no-fill" d="M428.65,209s3,11.5,4.68,13.41,3,9.16.85,11.92-3.62,8.31,5.54,12.78l9.15,4.47" />
	<path class="c feature-stroke no-fill" d="M436.31,119s-2.13,13,2.56,15.33a23.51,23.51,0,0,1,6.59,4.47s3.41,3,3.62,5.75" />
	<path class="c feature-stroke no-fill" d="M315.18,161.55l-9.79-11.71s-4.05-3.62-.85-9.79,4.68-10,4.68-10" />
	<path class="c feature-stroke no-fill" d="M352.44,188.16s-14.48,1.49-19.38-4.68-5.74-6-5.74-6l-.43-4" />
	<path class="c feature-stroke no-fill" d="M323.27,374.64s2.34,0,5.75-3.4,14.05-3,14.05-3" />
	<polyline class="c feature-stroke no-fill" points="205.76 326.32 205.76 298.22 213.85 290.13" />
	<polyline class="c feature-stroke no-fill" points="143.81 269.91 144.03 242.66 108.9 242.66" />
	<polyline class="c feature-stroke no-fill" points="102.3 242.44 99.75 242.44 99.64 299.18 101.13 299.18" />
	<polyline class="c feature-stroke no-fill" points="108.37 299.18 143.81 299.18 143.81 295.45" />
	<line class="c feature-stroke no-fill" x1="144.13" y1="290.45" x2="144.13" y2="282.04" />
	<polyline class="c feature-stroke no-fill" points="286.02 136.43 282.5 122.86 222.31 139.14 225.99 151.91" />
	<polyline class="c feature-stroke no-fill" points="226.78 160.38 239.4 205.88 257.76 201.09 274.04 196.78 293.36 163.89 287.61 141.22" />
	<line class="c feature-stroke no-fill" x1="236.04" y1="307.9" x2="236.2" y2="347.82" />
	<line class="c feature-stroke no-fill" x1="235.56" y1="267.51" x2="235.56" y2="301.04" />
	<polyline class="c feature-stroke no-fill" points="243.55 229.99 243.07 227.59 235.25 229.35 235.25 264.48" />
	<polyline class="c feature-stroke no-fill" points="259.35 225.2 259.19 222.8 281.07 217.38 283.94 217.38" />
	<polyline class="c feature-stroke no-fill" points="286.34 215.62 289.05 215.78 332.16 205.4 334.55 205.24" />
	<path class="c feature-stroke no-fill" d="M342.22,204.28s5.27,12.62,21.07,11.18" />
	<path class="c feature-stroke no-fill" d="M367.92,215.62s28.58-7,32.57,9.9l.48,7" />
	<path class="c feature-stroke no-fill" d="M401,235.58l.8,29.69s0,4.31,3.19,13.26" />
	<path class="c feature-stroke no-fill" d="M430.67,319.56s-5.91-28.26-21.71-34l-.64-2.71" />
	<path class="c feature-stroke no-fill" d="M431.79,322.91s3.67,20.6-11.66,32.57" />
	<path class="c feature-stroke no-fill" d="M417.58,360.27l-1.12,2.56L416,379.27s-1.28,14.05-13.41,21.08c0,0-14.69,7.82-15.49,9.1" />
	<path class="c feature-stroke no-fill" d="M382.13,411l-17.88,1s-19.32-6.54-22-9.9c0,0-3.83-2.39-4.63-2.23" />
	<path class="c feature-stroke no-fill" d="M335,397.63s-8.3-4.95-16.92-5.27-17.08-9.1-17.08-9.1-4.95-8.3-13.42-9.26-8.62,3.67-19,2.08" />
	<path class="c feature-stroke no-fill" d="M237.16,349.57s11.5,2.56,14.37,11.66,13.73,13.41,13.73,13.41" />
	<path class="c feature-stroke no-fill" d="M255.79,311.63s3.83-4.47,7-5.11,11.5-2.77,11.5-2.77l3.19,8.94-3,.43,1.28,8.51-4.68,1.49L273,331l7.45-2.13.43,1.49" />
	<path class="c feature-stroke no-fill" d="M287.72,343.14l-16.6,4s-7.67,4-10.22-1.49" />
	<path class="c feature-stroke no-fill" d="M254.94,313.54s-.85,16.82,5.53,30" />
	<path class="c feature-stroke no-fill" d="M324.12,355.7h-1.49s-.21,9.79,3.2,11.06l16.17-4s6.18-2.13,4.26-9.58" />
	<path class="c feature-stroke no-fill" d="M373.72,299.07l-.63,6.17-2.56,7h-2.34l1.92,7.45s7,3.62,7.66,3.83,3,8.52,3,8.52l7.66,4.47,12.56-3.2v-1.06s4.31,1.33,4.79-3.14-1-17.09-3-19.64-8.62-11-8.62-11-1.44-4-12-1.11S373.72,299.07,373.72,299.07Z" />
	<path class="c feature-stroke no-fill" d="M377.66,285.55v-1.12s5.91,1.92,6.55-9.26c0,0-2.08-25.86-18.84-23.15l-4.79,1.76-8.3-.32-15.81,8.46,3,13.25s9.26-.32,5.91,8.78a2.88,2.88,0,0,0,2.56,3.52l1.11,3.35s6.07-3.19,6.39,4.63l4.15-.48" />
	<polyline class="c feature-stroke no-fill" points="310.29 260.17 318.27 258.25 318.94 260.15 319.39 261.44" />
	<polyline class="c feature-stroke no-fill" points="329.92 269.27 328.98 265.55 327.21 258.57 318.94 260.15" />
	<line class="c feature-stroke no-fill" x1="336.95" y1="264.16" x2="328.98" y2="265.55" />
	<polyline class="c feature-stroke no-fill" points="295.44 264.8 285.06 267.03 287.45 280.28" />
	<polyline class="c feature-stroke no-fill" points="323.06 117.69 331.15 111.31 339.24 116.63" />
	<line class="c feature-stroke no-fill" x1="342.43" y1="119.19" x2="344.99" y2="120.89" />
	<polyline class="c feature-stroke no-fill" points="349.46 124.08 351.58 126 351.8 131.53" />
	<polyline class="c feature-stroke no-fill" points="319.01 120.89 315.39 123.23 316.46 132.17" />
	<polyline class="c feature-stroke no-fill" points="317.1 135.58 317.52 138.13 327.74 146.65" />
	<line class="c feature-stroke no-fill" x1="329.44" y1="148.56" x2="336.04" y2="154.31" />
	<polyline class="c feature-stroke no-fill" points="353.5 141.32 351.37 140.05 332.21 157.72 341.58 169.43" />
	<polyline class="c feature-stroke no-fill" points="345.62 172.19 357.76 179.43 372.23 156.23 365.21 148.35" />
	<line class="c feature-stroke no-fill" x1="358.61" y1="144.09" x2="362.02" y2="146.65" />
	<polyline class="c feature-stroke no-fill" points="381.81 157.93 383.3 166.23 388.84 169.21" />
	<polyline class="c feature-stroke no-fill" points="394.16 172.62 398.42 175.38 406.3 160.48 401.61 157.08" />
	<line class="c feature-stroke no-fill" x1="396.5" y1="154.1" x2="398.42" y2="155.16" />
	<polyline class="c feature-stroke no-fill" points="392.03 151.76 387.77 148.78 385.01 152.18" />
	<polyline class="c feature-stroke no-fill" points="390.97 140.69 388.84 143.45 392.88 146.22" />
	<polyline class="c feature-stroke no-fill" points="404.59 153.88 408.85 155.8 410.98 152.61" />
	<line class="c feature-stroke no-fill" x1="414.17" y1="140.26" x2="411.62" y2="149.2" />
	<line class="c feature-stroke no-fill" x1="413.96" y1="138.13" x2="410.98" y2="126.42" />
	<polyline class="c feature-stroke no-fill" points="410.34 123.44 406.93 113.22 402.89 110.24" />
	<line class="c feature-stroke no-fill" x1="400.12" y1="108.97" x2="383.94" y2="110.46" />
	<polyline class="c feature-stroke no-fill" points="382.24 126 381.39 122.38 379.04 120.9 375.64 118.76 370.11 118.12" />
	<polyline class="c feature-stroke no-fill" points="379.04 120.9 383.94 113.44 384.37 87.47 378.62 82.14 340.73 78.31 339.24 107.48 353.29 116.63 367.12 117.27" />
	<path class="c feature-stroke no-fill" d="M367.05,260.34l.29-1.08s-.42-.13-1.09-.27" />
	<path class="d feature-stroke no-fill" d="M363.63,258.68c-2.71-.09-6.12.62-7.35,4.36" />
	<path class="c feature-stroke no-fill" d="M356,264.32c-.06.35-.1.72-.13,1.11l1,.41" />
	<path class="e feature-stroke no-fill" d="M359.33,266.66a8.56,8.56,0,0,0,3.79.54" />
	<path class="c feature-stroke no-fill" d="M364.34,266.79c.55-.16,1.08-.29,1.08-.29l.29-1.08" />
	<line class="f feature-stroke no-fill" x1="366.16" y1="263.73" x2="366.83" y2="261.19" />
	<path class="c feature-stroke no-fill" d="M361.5,274.53c-.25-.18-.5-.37-.76-.58l.74-.61" />
	<polyline class="c feature-stroke no-fill" points="363.4 271.79 364.14 271.18 364.92 271.75" />
	<line class="g feature-stroke no-fill" x1="365.75" y1="272.36" x2="367" y2="273.29" />
	<polyline class="c feature-stroke no-fill" points="367.42 273.59 368.19 274.16 367.79 275.03" />
	<path class="c feature-stroke no-fill" d="M367.52,275.63l-.4.87a4.84,4.84,0,0,1-.95-.05" />
	<path class="h feature-stroke no-fill" d="M364.52,276.06a10.72,10.72,0,0,1-2.3-1.07" />
	<polyline class="c feature-stroke no-fill" points="333.36 299.6 334.61 299.37 334.34 297.9 333.08 298.14" />
	<line class="i feature-stroke no-fill" x1="330.85" y1="298.55" x2="327.5" y2="299.18" />
	<polyline class="c feature-stroke no-fill" points="326.39 299.39 325.13 299.62 325.4 301.09 326.66 300.85" />
	<line class="i feature-stroke no-fill" x1="328.89" y1="300.44" x2="332.24" y2="299.81" />
	<polyline class="c feature-stroke no-fill" points="323.32 296.46 322.97 294.57 321.08 294.93" />
	<line class="j feature-stroke no-fill" x1="318.06" y1="295.49" x2="307.46" y2="297.47" />
	<polyline class="c feature-stroke no-fill" points="305.94 297.75 304.06 298.11 304.41 299.99" />
	<line class="k feature-stroke no-fill" x1="304.8" y1="302.08" x2="305.39" y2="305.22" />
	<polyline class="c feature-stroke no-fill" points="305.58 306.26 305.94 308.15 307.82 307.8" />
	<line class="l feature-stroke no-fill" x1="310.85" y1="307.23" x2="321.44" y2="305.25" />
	<polyline class="c feature-stroke no-fill" points="322.96 304.97 324.84 304.62 324.49 302.73" />
	<line class="m feature-stroke no-fill" x1="324.1" y1="300.64" x2="323.51" y2="297.5" />
	<polyline class="c feature-stroke no-fill" points="400.41 135.09 400.33 134.3 401.13 134.2" />
	<line class="n feature-stroke no-fill" x1="402.23" y1="134.05" x2="403.89" y2="133.84" />
	<polyline class="c feature-stroke no-fill" points="404.44 133.76 405.23 133.66 405.3 134.46" />
	<line class="o feature-stroke no-fill" x1="405.4" y1="135.56" x2="405.54" y2="137.21" />
	<polyline class="c feature-stroke no-fill" points="405.59 137.76 405.66 138.56 404.86 138.63" />
	<line class="p feature-stroke no-fill" x1="403.76" y1="138.72" x2="402.11" y2="138.87" />
	<polyline class="c feature-stroke no-fill" points="401.56 138.91 400.76 138.98 400.69 138.19" />
	<line class="q feature-stroke no-fill" x1="400.59" y1="137.16" x2="400.45" y2="135.61" />
	<polyline class="r feature-stroke no-fill" points="392.24 160.27 388.41 164.53 393.74 166.66 394.16 161.12" />
	<polygon class="r feature-stroke no-fill" points="299.43 341.01 310.29 337.81 310.92 341.01 299.85 344.2 299.43 341.01" />
	<path class="s road-stroke no-fill" d="M168.38,115.55s24.43,32.09,31.61,39.27,25.39,39.76,25.87,63.23,2.87,149,2.87,149-1.44,18.2-5.27,24.43-9.1,23.47-9.1,23.47" />
	<path class="s road-stroke no-fill" d="M105.71,242.23s0-10.75,1.27-13.41c1.14-2.34,5.6-5.55,7.88-6.81a40.73,40.73,0,0,1,11.07-3.41c6.92-.88,21-.45,27.89.43,5.77.72,16.82,4,19.16,13.19" />
	<path class="s road-stroke no-fill" d="M167.23,255.85s-5.75-29.59,26.18-31.71l44.71-.64,90.37-21.29s9.9-4.79,31.93-6.07,29.38-9.9,30.33-10.54,18.21-18.2,21.4-27.78,7.66-27.46,7.66-27.46S431,99.07,458.13,96.51" />
	<path class="s road-stroke no-fill" d="M105,299.28s-4.79,36.08,27.78,31c0,0,10.22-1.6,18.52-6.07s15-2.56,16.93,6.39,9.9,14.05,23.63,14.05,36.72.31,36.72.31" />
	<path class="t road-stroke no-fill" d="M214.49,176s4.15-17.56,18.84-21.71,35.76-9.9,35.76-9.9" />
	<path class="t road-stroke no-fill" d="M230.46,344.63s16-3.84,20.43,9.26,11.18,21.71,30,18.52,22.35,8,22.35,8,9.58,8.3,18.2,8.62S348,401.46,348,401.46s20.43,11.5,38,4.47a45.5,45.5,0,0,0,24-22,29.44,29.44,0,0,0,1-13.73c-1.28-7.66-3.51-12.13,7.35-18.52s12.13-26.82,5.11-41.51-9.58-19.16-17.25-20.76-8.3-9.26-8-15.64-1.6-13.1-4.15-15.65-6.07-12.13-.64-19.8,2.55-21.39-10.86-21.07-34.48,9.9-44.7-16.29" />
	<path class="t road-stroke no-fill" d="M259.51,198.06s3.2,34.48,22.68,31.29,27.46-1.28,29.05-23" />
	<path class="t road-stroke no-fill" d="M327.21,379.11s-15,.64-21.39-2.87-8.31-1.6-8.31-1.6" />
	<path class="s road-stroke no-fill" d="M166.59,300.24V317.8s1,3.2-3.51,5.43" />
	<line class="t road-stroke no-fill" x1="350.52" y1="392.84" x2="346.69" y2="401.14" />
	<rect class="u building-fill" x="113.26" y="245.21" width="10.86" height="14.26" />
	<rect class="u building-fill" x="107.52" y="265.01" width="8.94" height="17.24" />
	<rect class="u building-fill" x="123.7" y="287.15" width="17.24" height="8.94" />
	<rect class="u building-fill" x="210.76" y="298.64" width="8.94" height="13.84" />
	<rect class="u building-fill" x="319.52" y="227.42" width="11.84" height="24.94" transform="translate(-43.29 74.07) rotate(-12.18)" />
	<rect class="u building-fill" x="276.99" y="294.18" width="5.61" height="11.06" transform="translate(-56.94 65.78) rotate(-12.18)" />
	<rect class="u building-fill" x="281.04" y="283.49" width="8.66" height="5.33" transform="translate(-53.95 66.65) rotate(-12.18)" />
	<rect class="u building-fill" x="290.13" y="270.91" width="5.69" height="5.92" transform="translate(-51.19 67.98) rotate(-12.18)" />
	<rect class="u building-fill" x="316.38" y="264.36" width="5.69" height="6.73" transform="translate(-49.3 73.38) rotate(-12.18)" />
	<rect class="u building-fill" x="365.47" y="286.29" width="15.96" height="13.96" transform="translate(-53.47 85.4) rotate(-12.18)" />
	<rect class="u building-fill" x="266.26" y="346.42" width="8.94" height="15.71" transform="translate(-68.66 65.1) rotate(-12.18)" />
	<rect class="u building-fill" x="281.13" y="329.33" width="3.88" height="10.75" transform="translate(-64.28 67.3) rotate(-12.19)" />
	<rect class="u building-fill" x="304.67" y="343.59" width="7.76" height="12.39" transform="translate(-66.86 72.98) rotate(-12.18)" />
	<rect class="u building-fill" x="324.32" y="355" width="2.59" height="3.55" transform="translate(-67.92 76.7) rotate(-12.18)" />
	<rect class="u building-fill" x="366.48" y="345.13" width="7.32" height="5.02" transform="translate(-65.02 85.92) rotate(-12.18)" />
	<rect class="u building-fill" x="343.55" y="347.89" width="12.62" height="5.85" transform="translate(-66.14 81.72) rotate(-12.18)" />
	<rect class="u building-fill" x="379.14" y="341.93" width="7.32" height="5.02" transform="translate(-64.06 88.52) rotate(-12.18)" />
	<polygon class="u building-fill" points="395.95 391.63 376.89 402.25 370.84 390.95 386.05 382.06 395.95 391.63" />
	<polygon class="u building-fill" points="403.66 341.36 388.94 344.54 387.01 335.58 401.73 332.4 403.66 341.36" />
	<rect class="u building-fill" x="326.45" y="363.62" width="2.59" height="3.55" transform="translate(-69.69 77.34) rotate(-12.18)" />
	<rect class="u building-fill" x="288.26" y="339.31" width="13.07" height="13.04" transform="translate(-66.33 69.99) rotate(-12.18)" />
	<rect class="u building-fill" x="320.87" y="335.52" width="1.36" height="4.85" transform="translate(-64.12 75.54) rotate(-12.19)" />
	<rect class="u building-fill" x="309.69" y="334.22" width="9.86" height="13.04" transform="translate(-64.81 74.06) rotate(-12.18)" />
	<rect class="u building-fill" x="370.07" y="303.63" width="5.11" height="7.95" transform="translate(-56.52 85.55) rotate(-12.18)" />
	<rect class="u building-fill" x="319.16" y="295.34" width="5.66" height="9.78" transform="translate(-56.1 74.7) rotate(-12.18)" />
	<rect class="u building-fill" x="296.22" y="239.09" width="4.46" height="4.16" transform="translate(-44.15 68.37) rotate(-12.18)" />
	<rect class="u building-fill" x="243.45" y="230.27" width="3.33" height="2.96" transform="translate(-43.38 56.93) rotate(-12.18)" />
	<rect class="u building-fill" x="257.1" y="225.4" width="3.33" height="2.96" transform="translate(-42.04 59.71) rotate(-12.18)" />
	<rect class="u building-fill" x="258.86" y="174.69" width="8.36" height="1.85" transform="translate(-31.13 59.46) rotate(-12.18)" />
	<rect class="u building-fill" x="284.08" y="223.37" width="5.56" height="2.47" transform="matrix(0.98, -0.21, 0.21, 0.98, -40.93, 65.58)" />
	<rect class="u building-fill" x="290.49" y="221.98" width="5.56" height="2.47" transform="translate(-40.49 66.9) rotate(-12.18)" />
	<rect class="u building-fill" x="297" y="220.57" width="5.56" height="2.47" transform="translate(-40.05 68.25) rotate(-12.18)" />
	<rect class="u building-fill" x="209.49" y="313.97" width="7.66" height="12.56" />
	<rect class="u building-fill" x="170.1" y="302.05" width="2.77" height="4.68" />
	<rect class="u building-fill" x="113.26" y="246.49" width="27.67" height="12.99" />
	<rect class="u building-fill" x="209.49" y="313.97" width="11.92" height="8.73" />
	<rect class="u building-fill" x="357.82" y="291.52" width="23.81" height="6.06" transform="translate(-53.83 84.64) rotate(-12.18)" />
	<rect class="u building-fill" x="320.62" y="295.2" width="4.3" height="10.93" transform="translate(-56.17 74.87) rotate(-12.18)" />
	<rect class="u building-fill" x="321.02" y="291.38" width="3.51" height="14.69" transform="translate(-55.79 74.87) rotate(-12.19)" />
	<rect class="u building-fill" x="299.96" y="296.7" width="4.1" height="16.63" transform="translate(-57.61 70.67) rotate(-12.19)" />
	<rect class="u building-fill" x="300.19" y="299.66" width="7.6" height="12.53" transform="translate(-57.7 71.03) rotate(-12.18)" />
	<rect class="u building-fill" x="299.82" y="301.34" width="10.94" height="5.2" transform="translate(-57.26 71.26) rotate(-12.18)" />
	<rect class="u building-fill" x="301.25" y="309.16" width="10.94" height="2.75" transform="translate(-58.62 71.71) rotate(-12.18)" />
	<rect class="u building-fill" x="295.63" y="301.41" width="11.96" height="7.42" transform="translate(-57.59 70.51) rotate(-12.18)" />
	<rect class="u building-fill" x="326.3" y="308.43" width="7.57" height="7.69" transform="matrix(0.98, -0.21, 0.21, 0.98, -58.46, 76.68)" />
	<rect class="u building-fill" x="321.9" y="316.56" width="7.57" height="5.44" transform="matrix(0.98, -0.21, 0.21, 0.98, -60.03, 75.91)" />
	<rect class="u building-fill" x="328.61" y="318.13" width="5.26" height="5.61" transform="translate(-60.28 77.16) rotate(-12.19)" />
	<polygon class="u building-fill" points="337.99 315.14 334.37 323.1 324.07 318.4 327.69 310.45 337.99 315.14" />
	<rect class="u building-fill" x="333.18" y="310.05" width="7.57" height="6.05" transform="translate(-58.47 78.15) rotate(-12.18)" />
	<rect class="u building-fill" x="290.08" y="270.5" width="32.65" height="3.46" transform="translate(-50.54 70.78) rotate(-12.18)" />
	<rect class="u building-fill" x="319.14" y="263.09" width="2.8" height="7.7" transform="translate(-49.11 73.64) rotate(-12.18)" />
	<rect class="u building-fill" x="304.12" y="270.4" width="5.94" height="5.71" transform="translate(-50.74 70.95) rotate(-12.18)" />
	<polygon class="u building-fill" points="404.48 341.19 388.94 344.54 388.13 340.78 403.66 337.42 404.48 341.19" />
	<rect class="u building-fill" x="261.01" y="174.47" width="7.3" height="12.25" transform="translate(-32.15 59.91) rotate(-12.18)" />
	<rect class="u building-fill" x="257.31" y="152.41" width="5.5" height="12.25" transform="translate(-27.6 58.44) rotate(-12.18)" />
	<rect class="u building-fill" x="261.4" y="174.78" width="3.9" height="15.52" transform="translate(-32.59 59.67) rotate(-12.18)" />
	<rect class="u building-fill" x="247.54" y="156.63" width="3.9" height="12.3" transform="translate(-28.73 56.31) rotate(-12.18)" />
	<rect class="u building-fill" x="247.41" y="156.39" width="6.23" height="11.37" transform="translate(-28.56 56.51) rotate(-12.18)" />
	<rect class="u building-fill" x="236.46" y="162.4" width="7.27" height="10.13" transform="translate(-29.93 54.43) rotate(-12.18)" />
	<rect class="u building-fill" x="245.47" y="156.6" width="7.21" height="2.11" transform="translate(-27.66 56.1) rotate(-12.18)" />
	<rect class="u building-fill" x="233.14" y="162.38" width="13.5" height="4.8" transform="translate(-29.37 54.33) rotate(-12.18)" />
	<rect class="u building-fill" x="231.49" y="165.36" width="12.24" height="4.65" transform="translate(-30.03 53.91) rotate(-12.18)" />
	<rect class="u building-fill" x="256.85" y="152.16" width="8.35" height="8.21" transform="translate(-27.09 58.59) rotate(-12.18)" />
	<rect class="u building-fill" x="271.85" y="148.18" width="5.87" height="5.86" transform="translate(-25.7 61.38) rotate(-12.18)" />
	<rect class="u building-fill" x="269.24" y="129.15" width="7.97" height="10.15" transform="translate(-22.17 60.67) rotate(-12.18)" />
	<rect class="u building-fill" x="255.48" y="152.3" width="9.21" height="3.28" transform="translate(-26.63 58.34) rotate(-12.18)" />
	<rect class="u building-fill" x="268.65" y="128.89" width="10.97" height="4.87" transform="translate(-21.54 60.8) rotate(-12.18)" />
	<rect class="u building-fill" x="268.83" y="130.55" width="11.7" height="3.11" transform="translate(-21.69 60.93) rotate(-12.18)" />
	<rect class="u building-fill" x="265.86" y="129.18" width="13.58" height="2.85" transform="translate(-21.42 60.47) rotate(-12.18)" />
	<rect class="u building-fill" x="265.08" y="131.41" width="11.41" height="5.48" transform="translate(-22.21 60.15) rotate(-12.18)" />
	<rect class="u building-fill" x="276.71" y="291.68" width="3.65" height="13.81" transform="translate(-56.71 65.46) rotate(-12.18)" />
	<rect class="u building-fill" x="276.27" y="286.87" width="9.27" height="6.13" transform="translate(-112.59 380.13) rotate(-58.82)" />
	<circle class="u building-fill" cx="366.65" cy="336.8" r="4.1" />
	<circle class="u building-fill" cx="375.96" cy="343.35" r="2.55" />
	<circle class="u building-fill" cx="358.85" cy="306.55" r="2.1" />
	<circle class="u building-fill" cx="316.86" cy="320.76" r="0.98" />
	<circle class="u building-fill" cx="311.4" cy="325.15" r="1.11" />
	<circle class="u building-fill" cx="331.36" cy="329.15" r="1.25" />
	<circle class="u building-fill" cx="358.66" cy="323.92" r="3.14" />
	<circle class="u building-fill" cx="333.76" cy="311.68" r="4.1" />
	<rect class="u building-fill" x="325.97" y="317.57" width="5.42" height="5.61" transform="translate(-125.18 388.76) rotate(-52.84)" />
	<path class="u building-fill" d="M348.92,321.21l4.37-.43.74,1.92s.32.85,1.6.11,5.11-.11,5.11-.11h2.13v1.81h-1.39a7.18,7.18,0,0,1-4.79,8.09L350.41,334l-6.6-4-1.27-3.3,1-3.94,5.53-.11Z" />
	<polygon class="u building-fill" points="353.34 353.04 347.72 354.25 345.05 341.88 350.67 340.66 353.34 353.04" />
	<polygon class="u building-fill" points="343.08 349.27 346.16 343.67 352.22 348.78 344.03 350.16 343.08 349.27" />
	<rect class="u building-fill" x="314.75" y="344.57" width="8.48" height="5.39" transform="translate(-66.06 75.09) rotate(-12.18)" />
	<path class="u building-fill" d="M310.45,344s1.43,10.53,9.42,7.66l-.8-5.59Z" />
	<rect class="u building-fill" x="319.93" y="335.61" width="1.98" height="1.74" transform="translate(-63.83 75.37) rotate(-12.19)" />
	<rect class="u building-fill" x="321.29" y="339.2" width="2.07" height="1.06" transform="translate(-64.43 75.66) rotate(-12.18)" />
	<rect class="u building-fill" x="284.97" y="337.07" width="3.88" height="8.51" transform="translate(-158.12 369.15) rotate(-53.53)" />
	<rect class="u building-fill" x="344.69" y="370.2" width="9.01" height="14.16" transform="translate(-92.9 639.64) rotate(-77.9)" />
	<rect class="u building-fill" x="365.46" y="373.54" width="7.28" height="5.73" transform="translate(-76.31 658.4) rotate(-77.9)" />
	<rect class="u building-fill" x="387.38" y="381" width="7.28" height="11.69" transform="translate(-69.19 688.09) rotate(-77.9)" />
	<rect class="u building-fill" x="362.04" y="95.95" width="12.45" height="9.95" transform="translate(246.08 462.7) rotate(-86.66)" />
	<rect class="u building-fill" x="364.37" y="93.76" width="9.06" height="11.02" transform="translate(248.33 461.77) rotate(-86.66)" />
	<rect class="u building-fill" x="358.34" y="88.85" width="3.35" height="5.11" />
	<rect class="u building-fill" x="377.76" y="85.44" width="3.35" height="3.77" transform="translate(104.55 363.07) rotate(-58.05)" />
	<rect class="u building-fill" x="327.41" y="125.6" width="9.7" height="9.21" transform="translate(8.86 281.08) rotate(-46.41)" />
	<rect class="u building-fill" x="326.69" y="124.95" width="11.94" height="8.18" transform="translate(9.83 281.01) rotate(-46.41)" />
	<rect class="u building-fill" x="326.84" y="116.63" width="3.26" height="3.04" transform="translate(16.42 274.6) rotate(-46.41)" />
	<rect class="u building-fill" x="349.63" y="149.68" width="12.25" height="9.13" transform="translate(38.99 377.87) rotate(-58.66)" />
	<rect class="u building-fill" x="349.34" y="149.15" width="8.96" height="11.67" transform="translate(37.42 376.57) rotate(-58.66)" />
	<rect class="u building-fill" x="340.44" y="160.21" width="3.17" height="3.25" transform="translate(-1.54 320.39) rotate(-50.1)" />
	<rect class="u building-fill" x="402.57" y="113.57" width="3.17" height="3.25" transform="translate(56.52 351.33) rotate(-50.1)" />
	<rect class="u building-fill" x="389.17" y="119.27" width="10.13" height="8.13" transform="translate(-18.26 145.29) rotate(-20.42)" />
	<rect class="u building-fill" x="387.83" y="120.23" width="11.64" height="7.38" transform="matrix(0.94, -0.35, 0.35, 0.94, -18.5, 145.14)" />
	<path class="v no-fill border-stroke" d="M39.08,246.67l.49-32.74s-2-30.29,23-44S199.75,99.34,199.75,99.34s51.47-24.76,97.08-27.8,102.07-.65,102.07-.65,68.19,2.17,74.27,59.94l.22,206.75s6.08,68.19-70.15,87.74c0,0-100.55,12.38-125.09,8.69S223,420.76,196.27,404.47s-120.74-63-120.74-63S38,323.9,38.82,278.29Z" />
</svg>
