<svg xmlns="http://www.w3.org/2000/svg" viewBox="0 0 512 512"><defs><style>.a,.e{fill:#3c3c3b;}.b{fill:#565555;}.c{fill:#fff;}.d,.f{fill:none;}.d,.e{stroke:#6a6a6b;}.d,.e,.f{stroke-miterlimit:10;}.d{stroke-width:0.36px;}.e{stroke-width:0.36px;}.f{stroke:#b33536;stroke-width:0.96px;}</style></defs><rect class="a" width="512" height="512"/><polygon class="b" points="96.3 189.31 96.3 149.18 117.35 149.18 117.35 233.18 124.55 233.18 124.55 185.66 178.79 185.66 192.23 197.18 203.75 186.14 221.03 186.14 221.03 233.18 255.59 233.18 255.59 222.14 239.27 222.14 239.27 125.66 320.86 125.66 320.86 107.9 331.9 106.46 341.02 96.86 364.06 96.86 367.9 98.78 369.34 96.86 382.78 102.14 382.78 95.91 406.78 95.91 406.78 100.7 415.42 100.7 415.42 121.82 423.1 121.82 423.1 139.1 473.98 139.1 473.98 170.3 461.02 170.3 461.02 191.9 473.5 191.9 473.5 228.86 442.78 228.86 442.78 302.29 449.5 302.29 449.5 327.25 476.38 327.25 476.38 409.81 449.5 409.81 449.5 391.09 437.5 391.09 437.5 399.73 390.46 399.73 390.46 394.93 362.14 394.93 362.14 360.85 348.22 360.85 348.22 373.81 320.86 373.81 320.86 416.05 258.95 416.05 258.95 360.37 273.35 360.37 273.35 308.53 319.9 308.53 319.9 301.81 323.26 301.81 323.26 297.97 254.63 297.97 236.87 289.33 218.63 289.33 218.63 345.49 200.39 345.49 186.47 336.37 169.19 341.17 165.35 346.45 144.71 345.97 136.55 336.37 128.39 336.37 128.39 289.33 121.19 289.33 121.19 283.57 117.83 283.57 117.83 335.89 90 335.89 90 331.09 50.64 331.09 50.64 295.1 35.76 295.1 35.76 213.5 50.64 213.5 50.64 189.31 96.3 189.31"/><polygon class="c" points="181.64 217.04 185.05 223.44 195.08 218.32 191.88 212.13 181.64 217.04"/><polygon class="c" points="199.77 208.29 200.62 215.76 210.01 219.81 212.57 217.04 211.08 206.16 199.77 208.29"/><polygon class="c" points="75.18 246.27 92.04 256.08 86.49 265.25 69.64 255.44 75.18 246.27"/><polygon class="c" points="124.04 254.37 143.45 254.37 143.45 264.83 124.25 264.83 124.04 254.37"/><rect class="c" x="198.49" y="254.59" width="19.84" height="10.45"/><rect class="c" x="104.41" y="217.89" width="11.52" height="14.72"/><polygon class="c" points="116.57 282.75 108.25 282.75 103.77 292.13 110.81 306.64 116.57 306.64 116.57 282.75"/><polygon class="c" points="161.58 289.57 169.69 304.72 179.29 299.6 180.78 289.57 161.58 289.57"/><polygon class="c" points="140.68 313.25 150.49 314.96 151.34 328.61 140.89 326.48 140.68 313.25"/><circle class="c" cx="172.14" cy="318.37" r="5.87"/><polygon class="c" points="191.45 310.91 204.25 308.56 199.56 323.92 191.66 318.59 191.45 310.91"/><polygon class="c" points="202.33 289.57 208.3 303.65 217.26 303.65 217.26 289.36 202.33 289.57"/><polygon class="c" points="242.86 250.32 250.54 239.87 255.02 243.28 247.13 253.52 242.86 250.32"/><polygon class="c" points="134.06 195.92 146.44 194.43 146.65 205.09 138.97 208.08 134.06 195.92"/><polygon class="c" points="160.73 203.39 171.61 199.55 174.38 210.43 160.73 213.41 158.17 209.57 160.73 203.39"/><ellipse class="c" cx="173.64" cy="204.99" rx="5.65" ry="6.29"/><polygon class="c" points="251.82 267.6 256.09 274.21 273.16 264.4 268.89 258 251.82 267.6"/><polygon class="c" points="289.8 246.91 310.49 251.17 307.29 263.76 286.81 259.28 289.8 246.91"/><polygon class="c" points="263.77 223.01 275.08 223.01 275.08 232.61 263.98 232.61 263.77 223.01"/><polygon class="c" points="285.53 223.23 294.06 223.23 305.37 236.03 300.46 240.93 285.53 223.23"/><polygon class="c" points="333.1 218.11 343.13 213.63 351.24 218.53 350.6 235.17 341.85 246.69 336.73 244.13 330.33 228.35 333.1 218.11"/><polygon class="c" points="330.54 262.91 337.37 265.47 330.76 283.17 324.14 281.04 330.54 262.91"/><polygon class="c" points="287.24 271.01 294.06 273.57 289.58 286.8 298.33 296.83 273.8 297.25 275.93 291.92 281.48 289.15 287.24 271.01"/><polygon class="c" points="356.14 284.67 361.9 280.61 378.33 301.73 369.37 301.73 356.14 284.67"/><polygon class="c" points="398.17 301.73 398.17 294.27 405.21 294.27 406.7 276.99 410.12 275.28 441.48 272.93 441.48 301.52 398.17 301.73"/><polygon class="c" points="353.16 251.17 371.08 245.84 373.21 252.24 355.29 257.79 353.16 251.17"/><polygon class="c" points="375.77 266.11 394.76 267.6 393.9 274.43 374.92 272.72 375.77 266.11"/><polygon class="c" points="406.92 253.09 403.72 259.71 420.57 267.17 423.98 261.2 406.92 253.09"/><polygon class="c" points="367.02 217.04 377.9 214.27 377.9 219.81 368.3 222.16 367.02 217.04"/><polygon class="c" points="410.12 229.41 442.12 229.41 442.12 245.41 418.01 245.41 410.12 229.41"/><polygon class="c" points="344.62 164.13 361.69 171.17 359.56 177.57 341.85 170.32 344.62 164.13"/><polygon class="c" points="359.98 146.85 370.86 138.53 376.2 143.65 374.28 154.32 368.3 156.67 359.98 146.85"/><rect class="c" x="340.36" y="195.28" width="3.2" height="4.27"/><rect class="c" x="273.8" y="384.72" width="11.31" height="9.17"/><polyline class="d" points="51.5 212.56 95.45 212.56 95.45 188.88"/><line class="d" x1="54.28" y1="224.51" x2="54.28" y2="212.77"/><line class="d" x1="44.25" y1="232.4" x2="46.17" y2="232.4"/><line class="d" x1="53.21" y1="232.19" x2="54.7" y2="232.19"/><polyline class="d" points="50.86 295.12 77.96 295.12 89.9 309.2 89.9 331.6"/><line class="d" x1="128.94" y1="288.93" x2="144.73" y2="288.93"/><line class="d" x1="152.2" y1="288.93" x2="181.21" y2="288.93"/><line class="d" x1="190.38" y1="288.93" x2="217.48" y2="288.93"/><line class="d" x1="125.74" y1="232.19" x2="146.01" y2="232.19"/><line class="d" x1="166.06" y1="232.19" x2="198.17" y2="232.19"/><line class="d" x1="205.74" y1="232.19" x2="219.61" y2="232.19"/><polyline class="d" points="240.09 234.32 240.09 241.79 231.98 242 227.93 268.67 241.8 275.49"/><polyline class="d" points="256.09 222.37 303.24 222.37 306.86 218.75"/><polyline class="d" points="312.41 213.63 314.97 210.64 314.97 188.03"/><polyline class="d" points="321.16 127.01 321.16 181.84 314.97 190.8"/><polyline class="d" points="334.38 182.91 334.38 156.88 321.16 156.88"/><line class="d" x1="334.81" y1="140.03" x2="321.16" y2="140.03"/><line class="d" x1="343.34" y1="108.67" x2="343.34" y2="111.01"/><line class="d" x1="343.34" y1="119.97" x2="343.34" y2="131.49"/><line class="d" x1="343.34" y1="138.96" x2="343.34" y2="141.09"/><line class="d" x1="383.24" y1="115.71" x2="383.24" y2="154.11"/><line class="d" x1="396.25" y1="152.19" x2="383.24" y2="152.19"/><polyline class="d" points="402.44 152.4 423.13 152.4 423.13 140.24"/><line class="d" x1="404.14" y1="121.04" x2="414.81" y2="121.04"/><line class="d" x1="410.97" y1="167.33" x2="410.97" y2="152.4"/><line class="d" x1="383.02" y1="165.63" x2="383.02" y2="211.92"/><polyline class="d" points="397.1 228.56 387.08 228.56 378.33 220.67 378.33 212.13 387.93 212.13"/><line class="d" x1="403.08" y1="228.77" x2="442.54" y2="228.77"/><line class="d" x1="383.24" y1="168.4" x2="386.44" y2="168.4"/><line class="d" x1="388.36" y1="168.19" x2="391.13" y2="168.19"/><line class="d" x1="399.66" y1="168.4" x2="402.65" y2="168.4"/><line class="d" x1="404.78" y1="168.19" x2="407.77" y2="168.19"/><line class="d" x1="409.26" y1="168.4" x2="412.68" y2="168.4"/><polyline class="d" points="414.6 168.4 416.94 168.4 416.94 170.11"/><line class="d" x1="416.52" y1="171.39" x2="416.52" y2="174.16"/><line class="d" x1="416.52" y1="176.51" x2="416.52" y2="179.49"/><line class="d" x1="416.3" y1="181.2" x2="416.3" y2="184.61"/><line class="d" x1="416.3" y1="186.53" x2="416.3" y2="189.31"/><line class="d" x1="416.52" y1="191.23" x2="416.52" y2="194.64"/><line class="d" x1="416.3" y1="196.35" x2="416.3" y2="199.33"/><line class="d" x1="416.52" y1="201.25" x2="416.52" y2="204.45"/><line class="d" x1="416.73" y1="206.16" x2="416.73" y2="209.36"/><line class="d" x1="416.52" y1="211.07" x2="416.52" y2="214.48"/><line class="d" x1="416.73" y1="216.19" x2="416.73" y2="219.17"/><line class="d" x1="416.73" y1="220.88" x2="416.73" y2="224.08"/><line class="d" x1="416.73" y1="226.21" x2="416.73" y2="228.35"/><line class="d" x1="239.45" y1="180.35" x2="242.44" y2="180.35"/><line class="d" x1="244.14" y1="180.56" x2="247.98" y2="180.56"/><line class="d" x1="249.69" y1="180.56" x2="252.89" y2="180.56"/><line class="d" x1="254.17" y1="180.56" x2="258.01" y2="180.56"/><line class="d" x1="259.5" y1="180.56" x2="262.28" y2="180.77"/><line class="d" x1="264.84" y1="180.77" x2="268.04" y2="180.77"/><line class="d" x1="239.45" y1="203.39" x2="242.44" y2="203.39"/><line class="d" x1="244.14" y1="203.6" x2="247.98" y2="203.6"/><line class="d" x1="249.69" y1="203.6" x2="252.89" y2="203.6"/><line class="d" x1="254.17" y1="203.6" x2="258.01" y2="203.6"/><line class="d" x1="259.5" y1="203.6" x2="262.28" y2="203.81"/><line class="d" x1="264.84" y1="203.81" x2="268.04" y2="203.81"/><polyline class="d" points="268.04 186.43 268.04 173.09 315.08 173.09 315.08 185.57"/><polyline class="d" points="267.82 193.47 267.82 217.57 271.56 217.57 271.56 222.37"/><line class="d" x1="320.36" y1="308.35" x2="320.36" y2="317.47"/><polyline class="d" points="323.56 301.63 360.68 301.63 442.6 301.63"/><line class="d" x1="360.84" y1="319.55" x2="360.84" y2="301.63"/><polyline class="d" points="348.52 360.67 348.52 319.55 364.04 319.55 364.04 338.59"/><polyline class="d" points="361.8 360.03 361.8 338.91 367.24 338.91"/><line class="d" x1="388.04" y1="317.15" x2="388.04" y2="338.91"/><line class="d" x1="392.2" y1="326.59" x2="388.04" y2="326.59"/><line class="d" x1="417.64" y1="314.91" x2="417.64" y2="301.63"/><line class="d" x1="401.64" y1="326.59" x2="437.48" y2="326.59"/><line class="d" x1="449.96" y1="337.31" x2="449.96" y2="375.39"/><polyline class="d" points="449.96 380.99 449.96 393.79 475.72 393.79"/><line class="d" x1="390.6" y1="389.63" x2="390.6" y2="395.23"/><polyline class="d" points="305 405.15 285.48 405.15 285.48 359.39"/><polyline class="d" points="273.48 359.39 321 359.39 321 326.27 335.4 326.27"/><line class="d" x1="273.48" y1="330.43" x2="320.84" y2="330.43"/><line class="d" x1="315.4" y1="404.99" x2="320.52" y2="404.99"/><rect class="e" x="381.96" y="338.75" width="54.72" height="38.72"/><polygon class="f" points="96.3 189.31 96.3 149.18 117.35 149.18 117.35 233.18 124.55 233.18 124.55 185.66 178.79 185.66 192.23 197.18 203.75 186.14 221.03 186.14 221.03 233.18 255.59 233.18 255.59 222.14 239.27 222.14 239.27 125.66 320.86 125.66 320.86 107.9 331.9 106.46 341.02 96.86 364.06 96.86 367.9 98.78 369.34 96.86 382.78 102.14 382.78 95.91 406.78 95.91 406.78 100.7 415.42 100.7 415.42 121.82 423.1 121.82 423.1 139.1 473.98 139.1 473.98 170.3 461.02 170.3 461.02 191.9 473.5 191.9 473.5 228.86 442.78 228.86 442.78 302.29 449.5 302.29 449.5 327.25 476.38 327.25 476.38 409.81 449.5 409.81 449.5 391.09 437.5 391.09 437.5 399.73 390.46 399.73 390.46 394.93 362.14 394.93 362.14 360.85 348.22 360.85 348.22 373.81 320.86 373.81 320.86 416.05 258.95 416.05 258.95 360.37 273.35 360.37 273.35 308.53 319.9 308.53 319.9 301.81 323.26 301.81 323.26 297.97 254.63 297.97 236.87 289.33 218.63 289.33 218.63 345.49 200.39 345.49 186.47 336.37 169.19 341.17 165.35 346.45 144.71 345.97 136.55 336.37 128.39 336.37 128.39 289.33 121.19 289.33 121.19 283.57 117.83 283.57 117.83 335.89 90 335.89 90 331.09 50.64 331.09 50.64 295.1 35.76 295.1 35.76 213.5 50.64 213.5 50.64 189.31 96.3 189.31"/></svg>