<svg xmlns="http://www.w3.org/2000/svg" viewBox="0 0 512 512"><defs><style>.a,.c,.g{fill:#3c3c3b;}.b{fill:#565555;}.c{isolation:isolate;}.d{fill:#fff;}.e,.f{fill:none;}.e{stroke:#6a6a6b;stroke-width:0.36px;}.e,.f,.g{stroke-miterlimit:10;}.f,.g{stroke:#b33536;stroke-width:0.96px;}</style></defs><rect class="a" width="512" height="512"/><polygon class="b" points="32.17 358.45 78.14 358.45 78.14 391.92 111.61 391.92 111.61 389.59 147.2 389.59 147.2 359.72 160.33 359.72 160.33 372.01 190.83 372.01 190.83 354.64 203.75 354.64 203.75 362.26 267.94 362.26 267.94 313.76 276.41 313.76 277.68 311.85 285.1 322.02 285.1 365.02 325.77 365.02 325.77 334.51 346.53 334.51 346.53 324.98 380.84 324.98 380.84 356.33 475.95 356.33 475.95 323.92 446.3 323.92 446.3 343.62 425.33 343.62 425.33 312.49 340.38 312.49 340.38 303.8 325.56 303.8 325.56 255.29 346.53 255.29 346.53 198.73 383.6 198.73 383.6 222.88 395.25 222.88 395.25 186.66 346.31 186.66 338.26 177.34 325.56 177.34 325.56 124.38 256.08 124.38 256.08 151.28 242.94 151.28 242.94 126.92 210.75 126.92 210.75 130.1 182.36 130.1 182.36 127.14 170.29 127.14 170.29 129.89 148.26 129.89 148.26 176.92 163.08 176.92 163.08 183.69 166.9 183.69 166.9 194.71 183 194.71 183 183.69 188.08 183.69 188.08 273.93 192.95 273.93 192.95 297.66 208.63 313.12 205.87 315.66 205.87 332.19 190.62 332.19 183.42 327.1 147.41 327.1 147.41 297.23 109.26 297.23 109.26 294.67 78.28 294.67 78.28 328.98 32.17 328.98 32.17 358.45"/><rect class="c" x="206.08" y="144.08" width="5.08" height="39.4"/><rect class="c" x="206.08" y="175.38" width="7.71" height="8.1"/><rect class="d" x="234.26" y="327.84" width="10.49" height="10.49"/><rect class="d" x="241.67" y="297.55" width="3.18" height="3.18"/><rect class="d" x="281.92" y="225.21" width="3.18" height="3.18"/><rect class="d" x="281.92" y="207.26" width="3.18" height="3.18"/><rect class="d" x="281.92" y="190.26" width="3.18" height="3.18"/><rect class="d" x="270.27" y="150.86" width="3.18" height="3.18"/><rect class="d" x="306.38" y="126.04" width="3.18" height="39.25"/><rect class="d" x="306.38" y="200.93" width="3.71" height="38.19"/><rect class="d" x="306.38" y="252.08" width="3.92" height="7.06"/><rect class="d" x="306.38" y="280.36" width="4.02" height="12.78"/><rect class="d" x="306.38" y="313.83" width="3.81" height="6"/><rect class="d" x="306.38" y="339.25" width="3.81" height="11.29"/><rect class="d" x="224.2" y="149.12" width="3.18" height="4.96"/><rect class="d" x="329.1" y="210.12" width="3.18" height="3.18"/><rect class="d" x="329.1" y="233.31" width="3.18" height="3.18"/><rect class="d" x="241.35" y="313.86" width="3.18" height="3.18"/><rect class="d" x="252.79" y="313.86" width="3.18" height="3.18"/><rect class="d" x="252.79" y="335.68" width="3.18" height="3.18"/><rect class="d" x="252.79" y="347.22" width="3.18" height="3.18"/><rect class="d" x="241.51" y="347.22" width="3.18" height="3.18"/><rect class="d" x="219.64" y="347.22" width="3.18" height="3.18"/><rect class="d" x="219.64" y="335.79" width="3.18" height="3.18"/><rect class="d" x="393.13" y="326.25" width="17.48" height="11.76"/><rect class="d" x="222.82" y="225.85" width="8.26" height="16.84"/><rect class="d" x="197.72" y="243.01" width="7.31" height="12.07"/><rect class="d" x="213.92" y="252.86" width="7.31" height="10.49"/><rect class="d" x="207.89" y="213.14" width="7.63" height="23.2"/><rect class="d" x="189.46" y="183.27" width="7.63" height="26.05"/><polygon class="d" points="184.06 161.03 192.63 159.28 193.43 165.32 185.01 166.59 184.06 161.03"/><polyline class="e" points="162.66 172.68 162.66 183.48 169.01 183.48"/><polyline class="e" points="162.87 164.21 162.87 143.87 192.74 143.87"/><polyline class="e" points="202.91 144.08 211.59 144.08 211.59 175.01 214.13 175.01 214.13 183.48 205.87 183.48 187.66 183.48"/><line class="e" x1="205.66" y1="144.29" x2="205.66" y2="183.48"/><line class="e" x1="288.7" y1="125.23" x2="288.7" y2="252.11"/><line class="e" x1="282.77" y1="176.92" x2="288.7" y2="176.92"/><line class="e" x1="325.77" y1="177.55" x2="325.77" y2="255.5"/><line class="e" x1="325.55" y1="303.8" x2="325.55" y2="334.94"/><line class="e" x1="346.31" y1="321.38" x2="346.31" y2="325.41"/><line class="e" x1="345.89" y1="312.27" x2="345.89" y2="315.24"/><line class="e" x1="446.08" y1="342.78" x2="458.58" y2="342.78"/><polyline class="e" points="109.07 306.76 143.38 306.76 143.38 379.21 108.01 379.21"/><polyline class="e" points="160.33 327.52 160.33 338.96 152.28 338.96"/><line class="e" x1="143.38" y1="332.82" x2="160.33" y2="332.82"/><polyline class="e" points="151.86 347.86 160.54 347.86 160.54 359.93"/><line class="e" x1="143.38" y1="353.79" x2="160.75" y2="353.79"/><polyline class="e" points="92.33 357.6 92.33 366.08 127.07 366.08 132.58 361.2 132.58 325.19 127.5 319.9 92.12 319.9 92.12 326.46"/><rect class="e" x="306.28" y="200.85" width="4.02" height="65.67"/><rect class="e" x="306.28" y="273.25" width="4.02" height="56.75"/><rect class="e" x="306.28" y="339.1" width="4.02" height="25.67"/><line class="e" x1="192.79" y1="273.99" x2="195.81" y2="273.99"/><line class="e" x1="203.28" y1="273.99" x2="206.3" y2="273.99"/><line class="e" x1="209.47" y1="311.32" x2="208.36" y2="312.43"/><line class="e" x1="215.83" y1="305.12" x2="218.45" y2="302.5"/><polygon class="f" points="32.17 358.45 78.14 358.45 78.14 391.92 111.61 391.92 111.61 389.59 147.2 389.59 147.2 359.72 160.33 359.72 160.33 372.01 190.83 372.01 190.83 354.64 203.75 354.64 203.75 362.26 267.94 362.26 267.94 313.76 276.41 313.76 277.68 311.85 285.1 322.02 285.1 365.02 325.77 365.02 325.77 334.51 346.53 334.51 346.53 324.98 380.84 324.98 380.84 356.33 475.95 356.33 475.95 323.92 446.3 323.92 446.3 343.62 425.33 343.62 425.33 312.49 340.38 312.49 340.38 303.8 325.56 303.8 325.56 255.29 346.53 255.29 346.53 198.73 383.6 198.73 383.6 222.88 395.25 222.88 395.25 186.66 346.31 186.66 338.26 177.34 325.56 177.34 325.56 124.38 256.08 124.38 256.08 151.28 242.94 151.28 242.94 126.92 210.75 126.92 210.75 130.1 182.36 130.1 182.36 127.14 170.29 127.14 170.29 129.89 148.26 129.89 148.26 176.92 163.08 176.92 163.08 183.69 166.9 183.69 166.9 194.71 183 194.71 183 183.69 188.08 183.69 188.08 273.93 192.95 273.93 192.95 297.66 208.63 313.12 205.87 315.66 205.87 332.19 190.62 332.19 183.42 327.1 147.41 327.1 147.41 297.23 109.26 297.23 109.26 294.67 78.28 294.67 78.28 328.98 32.17 328.98 32.17 358.45"/><polygon class="g" points="228.11 175.65 228.11 183.91 232.99 183.91 232.99 274.78 205.66 274.78 205.66 291.73 217.31 302.95 219.01 301.05 233.62 301.05 233.62 287.91 237.01 287.91 237.01 284.95 253.96 284.95 253.96 300.2 267.51 300.2 267.51 301.47 275.77 301.47 277.89 303.17 285.52 292.57 285.52 260.8 288.49 260.8 288.49 252.12 274.72 252.12 274.72 245.76 265.82 233.47 265.82 176.92 272.39 176.92 272.39 171.62 255.65 171.62 255.65 163.99 243.15 163.99 243.15 175.65 228.11 175.65"/></svg>