<svg width="38" height="38" viewBox="0 0 38 38" fill="none" xmlns="http://www.w3.org/2000/svg">
<rect x="13.5" y="5.5" width="17" height="25" fill="white" stroke="black"/>
<rect x="15" y="7" width="14" height="23" fill="black"/>
<path d="M20.5 33V7.5V6.5L28.5 9.5V30.5L20.5 33Z" fill="white" stroke="black"/>
<path d="M24.5 19.5C24.5 20.0523 24.0523 20.5 23.5 20.5C22.9477 20.5 22.5 20.0523 22.5 19.5C22.5 18.9477 22.9477 18.5 23.5 18.5C24.0523 18.5 24.5 18.9477 24.5 19.5Z" fill="black"/>
<mask id="path-5-outside-1_602_436" maskUnits="userSpaceOnUse" x="6" y="10" width="13" height="20" fill="black">
<rect fill="white" x="6" y="10" width="13" height="20"/>
<path fill-rule="evenodd" clip-rule="evenodd" d="M9 11H11V14H13V12H15V14H18V16L15 18.6667V23H18V25H15V29H13V25H11V28H9V25H7V23L9 21.2222V16H7V14H9V11ZM11 22.2222V23H13V20.4444L11 22.2222ZM13 17.6667L11 19.4444V16H13V17.6667Z"/>
</mask>
<path fill-rule="evenodd" clip-rule="evenodd" d="M9 11H11V14H13V12H15V14H18V16L15 18.6667V23H18V25H15V29H13V25H11V28H9V25H7V23L9 21.2222V16H7V14H9V11ZM11 22.2222V23H13V20.4444L11 22.2222ZM13 17.6667L11 19.4444V16H13V17.6667Z" fill="white"/>
<path d="M11 11H12V10H11V11ZM9 11V10H8V11H9ZM11 14H10V15H11V14ZM13 14V15H14V14H13ZM13 12V11H12V12H13ZM15 12H16V11H15V12ZM15 14H14V15H15V14ZM18 14H19V13H18V14ZM18 16L18.6644 16.7474L19 16.4491V16H18ZM15 18.6667L14.3356 17.9193L14 18.2176V18.6667H15ZM15 23H14V24H15V23ZM18 23H19V22H18V23ZM18 25V26H19V25H18ZM15 25V24H14V25H15ZM15 29V30H16V29H15ZM13 29H12V30H13V29ZM13 25H14V24H13V25ZM11 25V24H10V25H11ZM11 28V29H12V28H11ZM9 28H8V29H9V28ZM9 25H10V24H9V25ZM7 25H6V26H7V25ZM7 23L6.33564 22.2526L6 22.5509V23H7ZM9 21.2222L9.66436 21.9696L10 21.6713V21.2222H9ZM9 16H10V15H9V16ZM7 16H6V17H7V16ZM7 14V13H6V14H7ZM9 14V15H10V14H9ZM11 22.2222L10.3356 21.4748L10 21.7732V22.2222H11ZM11 23H10V24H11V23ZM13 23V24H14V23H13ZM13 20.4444H14V18.2176L12.3356 19.697L13 20.4444ZM13 17.6667L13.6644 18.4141L14 18.1157V17.6667H13ZM11 19.4444H10V21.6713L11.6644 20.1919L11 19.4444ZM11 16V15H10V16H11ZM13 16H14V15H13V16ZM11 10H9V12H11V10ZM12 14V11H10V14H12ZM13 13H11V15H13V13ZM12 12V14H14V12H12ZM15 11H13V13H15V11ZM16 14V12H14V14H16ZM18 13H15V15H18V13ZM19 16V14H17V16H19ZM15.6644 19.4141L18.6644 16.7474L17.3356 15.2526L14.3356 17.9193L15.6644 19.4141ZM16 23V18.6667H14V23H16ZM18 22H15V24H18V22ZM19 25V23H17V25H19ZM15 26H18V24H15V26ZM16 29V25H14V29H16ZM13 30H15V28H13V30ZM12 25V29H14V25H12ZM11 26H13V24H11V26ZM12 28V25H10V28H12ZM9 29H11V27H9V29ZM8 25V28H10V25H8ZM7 26H9V24H7V26ZM6 23V25H8V23H6ZM8.33564 20.4748L6.33564 22.2526L7.66436 23.7474L9.66436 21.9696L8.33564 20.4748ZM8 16V21.2222H10V16H8ZM7 17H9V15H7V17ZM6 14V16H8V14H6ZM9 13H7V15H9V13ZM8 11V14H10V11H8ZM10 22.2222V23H12V22.2222H10ZM11 24H13V22H11V24ZM14 23V20.4444H12V23H14ZM11.6644 22.9696L13.6644 21.1919L12.3356 19.697L10.3356 21.4748L11.6644 22.9696ZM12.3356 16.9193L10.3356 18.697L11.6644 20.1919L13.6644 18.4141L12.3356 16.9193ZM10 16V19.4444H12V16H10ZM13 15H11V17H13V15ZM14 17.6667V16H12V17.6667H14Z" fill="black" mask="url(#path-5-outside-1_602_436)"/>
</svg>
