<svg width="38" height="38" viewBox="0 0 38 38" fill="none" xmlns="http://www.w3.org/2000/svg">
<path d="M10 31.25H18.5H27L21.5 24.75H15.5L10 31.25Z" fill="white" stroke="black"/>
<circle cx="19" cy="17.75" r="10.5" fill="white" stroke="black"/>
<path fill-rule="evenodd" clip-rule="evenodd" d="M20.9529 24.4738C21.9327 23.4017 22.4722 21.9606 22.3915 20.4627L22.3382 20.5064L22.2918 20.5435C21.5929 21.806 20.4021 22.7937 18.8984 23.1967C16.0964 23.9475 13.2199 22.3966 12.2763 19.703C13.3483 20.6828 14.7894 21.2224 16.2873 21.1417C16.2599 21.1087 16.233 21.0753 16.2063 21.0417C14.9441 20.3428 13.9564 19.1521 13.5535 17.6484C12.8027 14.8464 14.3536 11.9699 17.0471 11.0264C16.0673 12.0984 15.5277 13.5396 15.6085 15.0375C15.6414 15.0102 15.6745 14.9833 15.708 14.9567C16.4068 13.6943 17.5978 12.7065 19.1016 12.3035C21.9036 11.5527 24.7801 13.1036 25.7236 15.7972C24.6517 14.8174 23.2106 14.2778 21.7127 14.3585C21.7401 14.3915 21.767 14.4249 21.7937 14.4585C23.0559 15.1574 24.0436 16.3481 24.4465 17.8518C25.1973 20.6538 23.6464 23.5303 20.9529 24.4738Z" fill="black"/>
</svg>
