<svg width="38" height="38" viewBox="0 0 38 38" fill="none" xmlns="http://www.w3.org/2000/svg">
<path d="M32.1782 22.1263L22.1742 25.4341L27.1629 20.8524L24.5534 19.2781L30.9013 13.1807L35.7942 16.1325L29.5687 20.552L32.1782 22.1263Z" fill="white" stroke="black" stroke-miterlimit="5.25027"/>
<path d="M5.82185 22.1263L15.8258 25.4341L10.8372 20.8524L13.4467 19.2781L7.09871 13.1807L2.20588 16.1325L8.43137 20.552L5.82185 22.1263Z" fill="white" stroke="black" stroke-miterlimit="5.25027"/>
<rect x="15.0652" y="20" width="8" height="8" fill="black"/>
<path d="M13.5652 26.0403V20H15.0652L15.7395 24.1812C15.8153 24.651 16.0561 25.0784 16.4186 25.3866L17.7699 26.5352C18.5167 27.1701 19.6137 27.1701 20.3606 26.5352L21.7118 25.3866C22.0744 25.0784 22.3152 24.651 22.3909 24.1812L23.0652 20H24.5652V26.2768C24.5652 27.8475 23.9493 29.3555 22.8498 30.4771L21.945 31.4001C21.5688 31.7838 21.0541 32 20.5168 32H17.9946C17.5034 32 17.0293 31.8192 16.6628 31.4921L15.5699 30.5165C14.2945 29.3782 13.5652 27.7498 13.5652 26.0403Z" fill="white" stroke="black"/>
<path d="M20.7417 21.8182L21.8593 24H22.4182V20.7273H26.5728C26.7821 20.7273 26.9901 20.6943 27.1892 20.6295L27.2522 20.609C28.0352 20.3543 28.5652 19.6244 28.5652 18.801V18.019C28.5652 18.0069 28.5603 17.9952 28.5516 17.9867C28.203 17.6464 28.0064 17.1799 28.0064 16.6927V13.7811C28.0064 12.969 27.8133 12.1685 27.443 11.4457L26.6626 9.92221C26.4423 9.49208 26.1536 9.10058 25.8077 8.76301C25.046 8.01951 24.1425 7.43686 23.1509 7.04974L22.6305 6.84653C22.1174 6.64622 21.5874 6.49237 21.0469 6.38685L20.9779 6.37339C19.7147 6.12679 18.4157 6.12679 17.1525 6.37339C16.5661 6.48787 15.9911 6.65477 15.4345 6.87207L14.6637 7.17304C13.8806 7.4788 13.1669 7.93898 12.5653 8.5262C12.0875 8.99256 11.6873 9.53227 11.3799 10.1249L11.1607 10.5474C10.4796 11.8602 10.124 13.3175 10.124 14.7965V16.6927C10.124 17.1799 9.92747 17.6464 9.57885 17.9867C9.57013 17.9952 9.56522 18.0069 9.56522 18.019V18.801C9.56522 19.6244 10.0952 20.3543 10.8782 20.609L10.9412 20.6295C11.1403 20.6943 11.3483 20.7273 11.5577 20.7273H15.7123V24H16.2711L17.3887 21.8182L19.0652 21.2727L20.7417 21.8182Z" fill="white" stroke="black"/>
<path d="M12.857 14.472C12.3484 13.6133 14.3436 10.6656 16.5652 10.5C16.4492 10.9569 16.0395 13.383 15.7612 14.4796C15.4132 15.8503 13.3656 15.3306 12.857 14.472Z" fill="black"/>
<path d="M25.1652 14.4719C25.6738 13.6133 23.7869 10.6656 21.5652 10.5C21.6813 10.9569 21.9828 13.383 22.2611 14.4796C22.6091 15.8503 24.6567 15.3305 25.1652 14.4719Z" fill="black"/>
<path d="M17.5653 15C17.9653 13.8 18.7319 13.1667 19.0653 13C20.2653 14.6 20.2319 16.3333 20.0652 17H17.5653C17.3986 16.8333 17.1653 16.2 17.5653 15Z" fill="black"/>
</svg>
