<svg width="38" height="38" viewBox="0 0 38 38" fill="none" xmlns="http://www.w3.org/2000/svg">
<rect x="14.11" y="11" width="10" height="16" fill="#565555" stroke="white"/>
<mask id="path-2-inside-1_602_497" fill="white">
<path fill-rule="evenodd" clip-rule="evenodd" d="M14.61 10.9471C11.636 12.5229 9.60999 15.6498 9.60999 19.2499C9.60999 22.85 11.636 25.9768 14.61 27.5526V10.9471ZM17.3763 28.5C17.9037 28.5919 18.4463 28.6399 19 28.6399C19.5537 28.6399 20.0962 28.5919 20.6237 28.5H17.3763ZM23.61 27.4322C26.4635 25.8211 28.39 22.7605 28.39 19.2499C28.39 15.7393 26.4635 12.6786 23.61 11.0675V27.4322Z"/>
</mask>
<path fill-rule="evenodd" clip-rule="evenodd" d="M14.61 10.9471C11.636 12.5229 9.60999 15.6498 9.60999 19.2499C9.60999 22.85 11.636 25.9768 14.61 27.5526V10.9471ZM17.3763 28.5C17.9037 28.5919 18.4463 28.6399 19 28.6399C19.5537 28.6399 20.0962 28.5919 20.6237 28.5H17.3763ZM23.61 27.4322C26.4635 25.8211 28.39 22.7605 28.39 19.2499C28.39 15.7393 26.4635 12.6786 23.61 11.0675V27.4322Z" fill="white"/>
<path d="M14.61 10.9471H15.61V9.28561L14.1418 10.0635L14.61 10.9471ZM14.61 27.5526L14.1418 28.4362L15.61 29.2141V27.5526H14.61ZM17.3763 28.5V27.5L17.2046 29.4852L17.3763 28.5ZM20.6237 28.5L20.7954 29.4852L20.6237 27.5V28.5ZM23.61 27.4322H22.61V29.1452L24.1016 28.303L23.61 27.4322ZM23.61 11.0675L24.1016 10.1967L22.61 9.3545V11.0675H23.61ZM10.61 19.2499C10.61 16.0346 12.4183 13.2401 15.0782 11.8308L14.1418 10.0635C10.8536 11.8057 8.60999 15.265 8.60999 19.2499H10.61ZM15.0782 26.669C12.4183 25.2597 10.61 22.4652 10.61 19.2499H8.60999C8.60999 23.2347 10.8536 26.694 14.1418 28.4362L15.0782 26.669ZM15.61 27.5526V10.9471H13.61V27.5526H15.61ZM19 27.6399C18.5041 27.6399 18.019 27.597 17.548 27.5149L17.2046 29.4852C17.7885 29.5869 18.3884 29.6399 19 29.6399V27.6399ZM20.4519 27.5149C19.981 27.597 19.4959 27.6399 19 27.6399V29.6399C19.6115 29.6399 20.2115 29.5869 20.7954 29.4852L20.4519 27.5149ZM20.6237 27.5H17.3763V29.5H20.6237V27.5ZM27.39 19.2499C27.39 22.3853 25.6705 25.1204 23.1183 26.5615L24.1016 28.303C27.2564 26.5218 29.39 23.1356 29.39 19.2499H27.39ZM23.1183 11.9383C25.6705 13.3793 27.39 16.1144 27.39 19.2499H29.39C29.39 15.3641 27.2564 11.978 24.1016 10.1967L23.1183 11.9383ZM22.61 11.0675V27.4322H24.61V11.0675H22.61Z" fill="black" mask="url(#path-2-inside-1_602_497)"/>
<circle cx="19.11" cy="19" r="5" fill="white" stroke="black"/>
<rect x="14.11" y="27" width="10" height="3" fill="white" stroke="black"/>
<rect x="14.11" y="8" width="10" height="3" fill="white" stroke="black"/>
</svg>
