<svg width="38" height="38" viewBox="0 0 38 38" fill="none" xmlns="http://www.w3.org/2000/svg">
<mask id="path-1-outside-1_602_509" maskUnits="userSpaceOnUse" x="5.00003" y="10.5" width="28" height="17" fill="black">
<rect fill="white" x="5.00003" y="10.5" width="28" height="17"/>
<path d="M28 14.5H6.00003V17.5H10V20.5L7.00003 26.5H10.5L12 22.5H22L24 26.5H28L25 20V17.5L28 16.5H30L31 17.5L32 21.5V13.3028C32 13.1054 31.9416 12.9123 31.8321 12.7481C31.4363 12.1543 30.5638 12.1543 30.168 12.7481C30.0585 12.9123 30 13.1054 30 13.3028V15.5H28V14.5Z"/>
</mask>
<path d="M28 14.5H6.00003V17.5H10V20.5L7.00003 26.5H10.5L12 22.5H22L24 26.5H28L25 20V17.5L28 16.5H30L31 17.5L32 21.5V13.3028C32 13.1054 31.9416 12.9123 31.8321 12.7481C31.4363 12.1543 30.5638 12.1543 30.168 12.7481C30.0585 12.9123 30 13.1054 30 13.3028V15.5H28V14.5Z" fill="white"/>
<path d="M6.00003 14.5V13.5H5.00003V14.5H6.00003ZM28 14.5H29V13.5H28V14.5ZM28 15.5H27V16.5H28V15.5ZM30 15.5V16.5H31V15.5H30ZM32 21.5L31.0299 21.7425C31.1524 22.2325 31.621 22.5542 32.1222 22.4925C32.6235 22.4308 33 22.005 33 21.5H32ZM31 17.5L31.9702 17.2575L31.903 16.9888L31.7071 16.7929L31 17.5ZM30 16.5L30.7071 15.7929L30.4142 15.5H30V16.5ZM28 16.5V15.5H27.8378L27.6838 15.5513L28 16.5ZM25 17.5L24.6838 16.5513L24 16.7792V17.5H25ZM25 20H24V20.2196L24.0921 20.4191L25 20ZM28 26.5V27.5H29.5629L28.908 26.0809L28 26.5ZM24 26.5L23.1056 26.9472L23.382 27.5H24V26.5ZM22 22.5L22.8945 22.0528L22.6181 21.5H22V22.5ZM12 22.5V21.5H11.307L11.0637 22.1489L12 22.5ZM10.5 26.5V27.5H11.193L11.4364 26.8511L10.5 26.5ZM7.00003 26.5L6.1056 26.0528L5.382 27.5H7.00003V26.5ZM10 20.5L10.8945 20.9472L11 20.7361V20.5H10ZM10 17.5H11V16.5H10V17.5ZM6.00003 17.5H5.00003V18.5H6.00003V17.5ZM31.8321 12.7481L31 13.3028L31 13.3028L31.8321 12.7481ZM30.168 12.7481L31 13.3028L31 13.3028L30.168 12.7481ZM6.00003 15.5H28V13.5H6.00003V15.5ZM27 14.5V15.5H29V14.5H27ZM28 16.5H30V14.5H28V16.5ZM31 15.5V13.3028H29V15.5H31ZM31 13.3028V21.5H33V13.3028H31ZM32.9702 21.2575L31.9702 17.2575L30.0299 17.7425L31.0299 21.7425L32.9702 21.2575ZM31.7071 16.7929L30.7071 15.7929L29.2929 17.2071L30.2929 18.2071L31.7071 16.7929ZM30 15.5H28V17.5H30V15.5ZM27.6838 15.5513L24.6838 16.5513L25.3163 18.4487L28.3163 17.4487L27.6838 15.5513ZM24 17.5V20H26V17.5H24ZM24.0921 20.4191L27.0921 26.9191L28.908 26.0809L25.908 19.5809L24.0921 20.4191ZM28 25.5H24V27.5H28V25.5ZM24.8945 26.0528L22.8945 22.0528L21.1056 22.9472L23.1056 26.9472L24.8945 26.0528ZM22 21.5H12V23.5H22V21.5ZM11.0637 22.1489L9.5637 26.1489L11.4364 26.8511L12.9364 22.8511L11.0637 22.1489ZM10.5 25.5H7.00003V27.5H10.5V25.5ZM7.89446 26.9472L10.8945 20.9472L9.1056 20.0528L6.1056 26.0528L7.89446 26.9472ZM11 20.5V17.5H9.00003V20.5H11ZM10 16.5H6.00003V18.5H10V16.5ZM7.00003 17.5V14.5H5.00003V17.5H7.00003ZM31 13.3028L31 13.3028H33C33 12.9079 32.8832 12.5219 32.6641 12.1934L31 13.3028ZM31 13.3028L32.6641 12.1934C31.8725 11.0059 30.1276 11.0059 29.3359 12.1934L31 13.3028ZM31 13.3028L31 13.3028L29.3359 12.1934C29.1169 12.5219 29 12.9079 29 13.3028H31Z" fill="black" mask="url(#path-1-outside-1_602_509)"/>
<path d="M22 20.5V17.5H13V20.5H22Z" fill="black"/>
</svg>
