<svg width="38" height="38" viewBox="0 0 38 38" fill="none" xmlns="http://www.w3.org/2000/svg">
<path d="M20.2559 26.0204L20.6778 25.7774L20.4462 25.3491L19.0822 22.8278L21.8333 22.4582L22.1335 22.4179L22.2368 22.1332L24.3596 16.2825L24.4292 16.0907L24.3448 15.905L23.8824 14.8877L24.1284 12.3284L24.1811 11.7805H23.6307H21.4043H20.9043V12.2805V13.0564L20.8635 12.7776L20.801 12.35H20.3688H19.5404H18.9639L19.0454 12.9207L19.496 16.0751L18.8043 18.4269L15.0851 20.7081L14.6808 20.956L14.9071 21.3728L17.8583 26.8094L18.1029 27.2599L18.5473 27.0041L20.2559 26.0204Z" fill="white" stroke="black"/>
<path d="M19.5232 9.50602H11.1871V11.37H20.2372L26.8128 6.55475L25.6542 5.00822L19.5232 9.50602Z" fill="#565555" stroke="white"/>
<path d="M22.9053 31.9336L23.0517 32.0801L23.2588 32.0801L25.7259 32.0801L25.981 32.0801L27.1881 32.0801L26.3346 31.2265L20.1245 25.0165L19.771 24.6629L19.4174 25.0165L13.2074 31.2265L12.3538 32.0801L13.5609 32.0801L16.2831 32.0801L16.4902 32.0801L16.6366 31.9336L19.771 28.7993L22.9053 31.9336Z" fill="white" stroke="black"/>
</svg>
