<svg width="38" height="38" viewBox="0 0 38 38" fill="none" xmlns="http://www.w3.org/2000/svg">
<path d="M16.6366 26.4282L16.4902 26.2817H16.2831H13.8161H13.5609H12.3538L13.2074 27.1353L19.4174 33.3453L19.771 33.6989L20.1245 33.3453L26.3346 27.1353L27.1881 26.2817H25.981H23.2588H23.0517L22.9053 26.4282L19.771 29.5625L16.6366 26.4282Z" fill="white" stroke="black"/>
<path d="M20.2559 26.0204L20.6778 25.7774L20.4462 25.3491L19.0822 22.8278L21.8333 22.4582L22.1335 22.4179L22.2368 22.1332L24.3596 16.2825L24.4292 16.0907L24.3448 15.905L23.8824 14.8877L24.1284 12.3284L24.1811 11.7805H23.6307H21.4043H20.9043V12.2805V13.0564L20.8635 12.7776L20.801 12.35H20.3688H19.5404H18.9639L19.0454 12.9207L19.496 16.0751L18.8043 18.4269L15.0851 20.7081L14.6808 20.956L14.9071 21.3728L17.8583 26.8094L18.1029 27.2599L18.5473 27.0041L20.2559 26.0204Z" fill="white" stroke="black"/>
<path d="M19.5232 9.50602H11.1871V11.37H20.2372L26.8128 6.55475L25.6542 5.00822L19.5232 9.50602Z" fill="#565555" stroke="white"/>
</svg>
