<svg width="38" height="38" viewBox="0 0 38 38" fill="none" xmlns="http://www.w3.org/2000/svg">
<path d="M20.2559 29.2308L20.6778 28.9878L20.4462 28.5596L19.0822 26.0383L21.8333 25.6687L22.1335 25.6284L22.2368 25.3437L24.3596 19.4929L24.4292 19.3012L24.3448 19.1155L23.8824 18.0981L24.1284 15.5388L24.1811 14.991H23.6307H21.4043H20.9043V15.491V16.2669L20.8635 15.9881L20.801 15.5605H20.3688H19.5404H18.9639L19.0454 16.1312L19.496 19.2855L18.8043 21.6374L15.0851 23.9185L14.6808 24.1665L14.9071 24.5833L17.8583 30.0198L18.1029 30.4704L18.5473 30.2146L20.2559 29.2308Z" fill="white" stroke="black"/>
<path d="M19.5232 12.7165H11.1871V14.5804H20.2372L26.8128 9.7652L25.6542 8.21867L19.5232 12.7165Z" fill="#565555" stroke="white"/>
</svg>
