<svg xmlns="http://www.w3.org/2000/svg" viewBox="0 0 512 512">
	<defs>
		<style>
            .d{fill:none;}

			.a{fill:#3c3c3b;}
            .b{fill:#565555;}
            .c{fill:#fff;}
        </style>
        <style>
            .d{stroke:#b33536;}
            .d{stroke-miterlimit:}
            .d{10;stroke-width:0.96px;}
		</style>
	</defs>
	<rect class="a background-fill" width="512" height="512" />
	<path class="b field-fill" d="M153.5,260l1.15-.17,2.59-15.9,1.85-8.81,3-11.42,6-6.39-6.51-7.19,43.26-45,10.24-3.81,27.2-21.79,17.31,15.12-6.42,16.52c-1.69-.42-3.51-2.82-4.81-4.13L228.9,185.2h-6.46l-3.54,3.58.36,1.15,19,18.84h3.54l8.65,9.2,11.16.06L276.37,193H292v-15.6h10.84v-17.8h61.92v14h24.56v38.21H370.16v13.84l4.57,6.09v11.95l-4.51,5.79h-3.17v7.37l9.81,8.9v19.19H365.65v8.41h6.64l6.82,2.44,5.73,2.62,4,2.56,2.31,1.95,3.11-3.11,5.67,4.45,2.07,2.81.73,1.28-3.05,3c9.35,11.45,9.91,24,9.33,36.75l5.48,5.18,11.4-10.48,18.34.49L454,353.5l-33.88,34.32,4.14,3.47c-4.06,12.78,7.82,17,15.29,12.25,1.42-.91,2.69-4.08,2.79-6.78.12-2.86-.94-5.24.45-6l16,.07c1.11-.82.07,3.17-.41,6.45a36,36,0,0,1-3.14,11.16c-3.73,7.32-11.5,14.2-21.88,14.29-6.55.06-14.19-2.18-22.34-9.93l-5,5.19-8.48-8.44-2.31,2.29-.4,2.35L363.12,444l-10.87-10.82v-9.93l-3.14-3,6.26-5.83-2.54-2.64-12.93-5.16L337.42,409l-18.5-6-3.06,2.38-8.21-5.59,2.65-3.55-5.7-5.48-2.85,1.95L294.47,383l3.12-8.8-4.41-6.11-3.53-11.72,4.21-.13-.28-3.24-15.45-9.33-11.69,0,.12,4.89L261,354.17,243.82,354l-7.18-7.2h-48V319.2l-3.46-1.29-14.82.26,0-22.33-11.67-.07-3.41-3.39-.07-19.16,48.75-.06,2.69,1.39h4.93l-.07-26.18h18.18l8.74-8.48-.13-10.62-7.94-7.62c-1.35-1-.71-2.87-1-4.34l-19.49-19.1-3.71,3.71.24,6.41-23.67,22.75-6.26-6.39-10,29.55-.07,6.1-.62.83Z" />
	<path class="c building-fill" d="M156.18,259.88c-.08,0-.24.16-.36.34s0,.34.15.34a.35.35,0,0,0,.36-.34C156.33,260,156.26,259.88,156.18,259.88Zm1.85,0c-.38,0-.68.16-.68.34s.3.34.68.34.67-.15.67-.34S158.4,259.88,158,259.88Zm2.37,0c-.37,0-.68.16-.68.34s.31.34.68.34.68-.15.68-.34S160.77,259.88,160.4,259.88Zm-1.83-2.72,1.15,1.2c.64.65,1.17,1.18,1.19,1.18s.56-.53,1.19-1.18l1.15-1.2Zm3.69,3.08c-.11.17.11.32.5.32s.7-.06.7-.13C163.46,260.11,162.44,259.94,162.26,260.24Zm14,51.48c-.1-.24-.18,0-.18.42s.08.66.18.43A1.37,1.37,0,0,0,176.24,311.72Zm0-2c-.1-.23-.18,0-.18.43s.08.65.18.42A1.37,1.37,0,0,0,176.24,309.68Zm0-6.44c-.1-.24-.18-.05-.18.42s.08.66.18.42A1.34,1.34,0,0,0,176.24,303.24Zm0-2c-.1-.24-.18,0-.18.42s.08.66.18.42A1.34,1.34,0,0,0,176.24,301.2Zm0,12.92c-.11-.28-.19-.2-.2.2s.06.56.18.44A.67.67,0,0,0,176.24,314.12Zm0-6.45c-.11-.27-.19-.19-.2.2s.06.56.18.45A.69.69,0,0,0,176.24,307.67Zm0-2c-.11-.27-.19-.19-.2.21s.06.55.18.44A.68.68,0,0,0,176.24,305.63Zm0-6.45c-.11-.27-.19-.19-.2.21s.06.56.18.44A.68.68,0,0,0,176.24,299.18Zm0-2c-.11-.27-.19-.19-.2.2s.06.56.18.45A.69.69,0,0,0,176.24,297.15Zm12.67-3.33c-.51,0-.45-8.58.06-9.1.32-.31-1.85-.39-9.75-.33l-10.17.08,19.18.2v9.15h-8.49c-4.66,0-8.48.06-8.48.14,0,1,.54,1.21,2.58,1.21,1.5,0,2.18.14,2.2.43s.06.34.2,0,1.77-.43,6.59-.43c6.19,0,6.41,0,6.41-.67C189.24,294.12,189.09,293.82,188.91,293.82Zm2.28-9.37a.68.68,0,0,0-.65,0c-.27.11-.19.19.21.21S191.3,284.56,191.19,284.45Zm2,32.92a.66.66,0,0,0-.65,0c-.28.11-.2.19.2.21S193.34,317.48,193.23,317.37Zm.33-32.92a.66.66,0,0,0-.64,0c-.28.11-.19.19.2.21S193.68,284.56,193.56,284.45Zm1.7,32.92a.65.65,0,0,0-.65,0c-.27.11-.19.19.21.21S195.38,317.48,195.26,317.37Zm.52-32.94a1.37,1.37,0,0,0-.85,0c-.23.09,0,.17.42.17S196,284.52,195.78,284.43Zm1.7,32.92a1.24,1.24,0,0,0-.85,0c-.24.09,0,.17.42.17S197.71,317.44,197.48,317.35Zm.67-32.92a1.34,1.34,0,0,0-.84,0c-.24.09-.05.17.42.17S198.39,284.52,198.15,284.43Zm1.36,32.92a1.24,1.24,0,0,0-.85,0c-.23.09,0,.17.43.17S199.74,317.44,199.51,317.35Zm.84-32.9a.68.68,0,0,0-.65,0c-.27.11-.19.19.21.21S200.46,284.56,200.35,284.45Zm1.36,32.92a.65.65,0,0,0-.65,0c-.27.11-.19.19.2.21S201.82,317.48,201.71,317.37Zm.43-24.57c-.18,0-.34.23-.34.51s.16.51.34.51.34-.23.34-.51S202.33,292.8,202.14,292.8Zm-.25-8.48c-.51,0-.52.05-.09.33.64.42.68.42.68,0C202.48,284.47,202.21,284.32,201.89,284.32Zm.28,10.52c-.24,0-.27.56,0,1.27.11.36.36-.05.36-.6C202.48,295.14,202.34,294.84,202.17,294.84Zm0-4.09a.89.89,0,0,0-.15.76c.3.48.47.29.47-.49C202.47,290.42,202.4,290.36,202.16,290.75Zm.32,6.63c-.19-.12-.34-.05-.34.15a.35.35,0,0,0,.34.36c.19,0,.34-.07.34-.15S202.67,297.49,202.48,297.38Zm1.27,20a.68.68,0,0,0-.66,0c-.26.11-.18.19.21.21S203.86,317.48,203.75,317.37Zm.6-20.16c-.28,0-.51.15-.51.34s.23.34.51.34.51-.15.51-.34S204.63,297.21,204.35,297.21ZM206,317.35a1.24,1.24,0,0,0-.85,0c-.23.09,0,.17.43.17S206.19,317.44,206,317.35Zm.42-20.14c-.28,0-.5.15-.5.34s.22.34.5.34.51-.15.51-.34S206.66,297.21,206.38,297.21Zm1.78,20.16a.66.66,0,0,0-.65,0c-.27.11-.19.19.2.21S208.27,317.48,208.16,317.37Zm-.09-19.81c-.11.18.12.33.5.33s.7-.06.7-.13C209.27,297.43,208.25,297.27,208.07,297.56Zm2.13,19.81a.68.68,0,0,0-.66,0c-.27.11-.19.19.21.21S210.31,317.48,210.2,317.37Zm.85-19.71a1.37,1.37,0,0,0-.85,0c-.23.1,0,.18.42.18S211.28,297.76,211.05,297.66Zm1.36,19.69a1.24,1.24,0,0,0-.85,0c-.24.09,0,.17.42.17S212.64,317.44,212.41,317.35Zm.76-19.8a.7.7,0,0,0-.53-.34.33.33,0,0,0-.32.34c0,.19.24.34.53.34S213.29,297.74,213.17,297.55Zm-.81,33.26h-1.67l-3.93-4.16c-3.74-4-3.93-4.23-3.94-5.6,0-1.05-.14-1.44-.51-1.44s-.51.43-.51,1.83v1.83l4.11,4.28,4.11,4.27h2c1.55,0,2-.11,2-.5S213.61,330.81,212.36,330.81ZM227,317.24c-.32,0-.44-2.37-.5-10.1l-.09-10.1L220,297l-6.36-.1v21.06H220a42.23,42.23,0,0,0,6.88-.34C227.24,317.36,227.28,317.24,227,317.24Zm-1.78-.35h-5.09a26.8,26.8,0,0,1-5.13-.25c0-.14-.09-4.34-.15-9.33l-.11-9.08h10.48Zm2.2-19.68c-.28,0-.5.15-.5.34s.22.34.5.34.51-.15.51-.34S227.7,297.21,227.42,297.21Zm2,20.14a1.27,1.27,0,0,0-.86,0c-.23.09,0,.17.43.17S229.61,317.44,229.38,317.35Zm.08-19.92c-.28.1-.51.25-.51.33s.23.13.51.13.51-.15.51-.33S229.74,297.32,229.46,297.43Zm2.11,19.94a.65.65,0,0,0-.65,0c-.27.11-.19.19.21.21S231.69,317.48,231.57,317.37Zm.5-19.89c-.31-.32-.5-.32-.81,0s-.23.41.4.41S232.39,297.8,232.07,297.48Zm1-7.46-.11-2.51-1.46-.92-1.46-.93-13.87.09-13.87.09,0,1a6.9,6.9,0,0,1-.11,1.19,1.37,1.37,0,0,0,.19,1.62c.4.37.47.12.47-1.61V286h27l1.43,1.05,1.42,1.05v2.36c0,1.3.12,2.3.26,2.21A7.73,7.73,0,0,0,233.08,290Zm.53,27.35a.66.66,0,0,0-.65,0c-.27.11-.19.19.2.21S233.72,317.48,233.61,317.37Zm.5-19.89c-.32-.32-.5-.32-.82,0s-.22.41.41.41S234.43,297.8,234.11,297.48Zm1.71,19.87a1.24,1.24,0,0,0-.85,0c-.23.09,0,.17.43.17S236.05,317.44,235.82,317.35Zm.5-19.67a.68.68,0,0,0-.65,0c-.27.11-.19.19.21.2S236.44,297.8,236.32,297.68Zm1.54,19.67a1.24,1.24,0,0,0-.85,0c-.23.09,0,.17.42.17S238.09,317.44,237.86,317.35Zm.08-20.14c-.28,0-.51.15-.51.34s.23.34.51.34.51-.15.51-.34S238.22,297.21,237.94,297.21Zm2.12,20.16a.66.66,0,0,0-.65,0c-.27.11-.19.19.2.21S240.17,317.48,240.06,317.37Zm.11-20.16a.72.72,0,0,0-.53.34c-.12.19,0,.34.32.34s.53-.15.53-.34A.33.33,0,0,0,240.17,297.21Zm1.92,20.16a.65.65,0,0,0-.65,0c-.27.11-.19.19.21.21S242.2,317.48,242.09,317.37Zm.5-19.89c-.31-.32-.49-.32-.81,0s-.23.41.41.41S242.91,297.8,242.59,297.48Zm10.8-128c-.19-.12-.35,0-.35.31,0,.6.21.68.5.21A.38.38,0,0,0,253.39,169.45Zm-3.66,138-4.15-.07.07,4.84.08,4.83.1-4.65.11-4.66,4-.11,4-.1Zm4.32-140.06c-.18-.11-.33-.13-.33,0a3.47,3.47,0,0,1-.2.7c-.12.29-.05.54.13.54s.43-.23.53-.5A.6.6,0,0,0,254.05,167.4Zm.69-2.2c-.19,0-.34.32-.34.7s.15.61.34.49a.9.9,0,0,0,.34-.7C255.08,165.42,254.93,165.2,254.74,165.2Zm-.49-6.11c-.87-1.65-.85-1.66-1.71,1.19-.77,2.57-.8,2.54,1.2,1.52.74-.38,1.34-.8,1.33-.93A11.85,11.85,0,0,0,254.25,159.09Zm1.17,4.07c-.19,0-.34.32-.34.7s.15.61.34.49a.88.88,0,0,0,.34-.7C255.76,163.39,255.61,163.16,255.42,163.16Zm1-1.95c-.5.17-.78.94-.33.94.18,0,.42-.25.53-.54S256.62,161.12,256.37,161.21Zm.27-1.58c-.12.33-.05.49.2.4a.93.93,0,0,0,.54-.54C257.58,158.89,256.88,159,256.64,159.63Zm1.22-2.64c-.31-.32-.4-.23-.4.41s.09.72.4.4S258.18,157.31,257.86,157Zm.61-1.63a.34.34,0,0,0-.34.34.35.35,0,0,0,.34.34.34.34,0,0,0,.34-.34A.34.34,0,0,0,258.47,155.36Zm17.65,108.08-2.72-2.69-2.71,2.69-2.72,2.7,2.63,2.64a31,31,0,0,0,2.8,2.64,29,29,0,0,0,2.81-2.64l2.63-2.64ZM287,274l-2.71-2.7-2.72,2.7-2.71,2.7,2.62,2.64a29,29,0,0,0,2.81,2.64,31,31,0,0,0,2.8-2.64l2.63-2.64ZM290,249.19l-2.72-2.7-2.72,2.7-2.71,2.7,2.62,2.64a30.92,30.92,0,0,0,2.81,2.63,30.92,30.92,0,0,0,2.81-2.63l2.62-2.64Zm3.22-44.62c-.44,0-.51,1.28-.51,9.5s.07,9.5.51,9.5.51-1.28.51-9.5S293.7,204.57,293.26,204.57ZM290.82,303l-13-12.44,0-4.53-21.3-21.3,8.85-8.21L262.86,254l1.36-1.28-3.81-3.61-2.72,2.31-1.95-1.79-7.46.05-6.69,9.93-9,.07.17,12.62-8.33.1.07,2.73,7.08-.16,2.26-1.46h4.64l8.62,8.6,0,7.39-2.86,0-.2,3.06,2.89,2.86-.13,1.17,20,0-.13,22-19.86.07-.56,8.06-6.29,6,2.8,3,3.11-.66,5,4.21h1.36l10.09-9.21,5.09-.17,2.15,1.49h7.81l3.23-9.57,19.95-19.06Zm10.24-43.1-2.54-2.53-2.72,2.7-2.71,2.7,2.62,2.64a30.4,30.4,0,0,0,2.81,2.64,26.78,26.78,0,0,0,2.64-2.47,16.33,16.33,0,0,0,2.45-2.81A17.24,17.24,0,0,0,301.06,259.88ZM334,222.47c-.07-.79-.14-1.56-.16-1.7s-6.35-.25-14.1-.25H305.64V222c0,1.45.05,1.51,1.11,1.64.6.07,7,.16,14.24.2l13.13.06Zm11.44,174A56,56,0,0,1,336,393a61.82,61.82,0,0,1-9.06-5.72,6,6,0,0,0-2.1-1.28c-.31.31-7.53-6.87-9.94-9.87a15.44,15.44,0,0,1-2-2.84,6.49,6.49,0,0,0-1-2,43.9,43.9,0,0,1-6.14-16.5c-.52-3.1-.71-3.65-1.24-3.65s-.6.19-.4,1.61c.26,1.84,1.33,6.81,1.84,8.54a4.19,4.19,0,0,1,.26,1.24s-.87.46-1.83.95a8.39,8.39,0,0,0-2,1.2c-.16.27,2.31,4.84,5.3,9.78l.67,1.1,2-1,2-1,1.88,2.45a84.39,84.39,0,0,0,9.31,9.59c.41.29.76.68.76.87a10.51,10.51,0,0,1-1.42,2.21c-1.15,1.52-1.33,2-.94,2.17s2.4,1.65,4.73,3.33c3.29,2.37,4.32,3,4.59,2.62l1.44-2,1.09-1.57,2,1A50.23,50.23,0,0,0,346.28,398c.05,0,.09-.28.09-.65S346.07,396.59,345.43,396.45Zm6.44-168.11c-.23.36-.28.66-.11.66s.4-.25.52-.56C352.59,227.63,352.35,227.57,351.87,228.34Zm3.07,21.33-2.69,0-4.81-5.35-.05-12.4,2.33-3.62-1-.42-.05-2.3L287.48,225v4.58l-16.1.06-.13,5.07,1.59,1.75L270,239.35l3.86,4.15,2.48-2.05,1.63,1.72,8.64-7.94,20.92,21.48,5.21.68,9.9,10.59.7,13.5,9.6-8.81.89-2.94.35-1.05,9.31-9.49,11.71-2.47ZM353.56,226a5.71,5.71,0,0,1-2.76-.43c-.37-.34-.41-.34-.22,0s.08.43-.12.43-.36.3-.36.67c0,.63.23.68,2.89.68s2.88-.05,2.88-.68S355.64,226,353.56,226Zm13.86,180.26a98.72,98.72,0,0,0-9.15,8.16.26.26,0,0,0,.29.26.49.49,0,0,0,.42-.26c.06-.14,1.94-1.93,4.18-4l4.42-4C367.8,406.17,367.74,406.11,367.42,406.21Zm.87-181.62c-.07,0-.22.23-.33.51s0,.51.14.51.33-.23.33-.51S368.36,224.59,368.29,224.59ZM366.35,226c-2.45,0-2.68.05-2.68.67s.23.68,2.89.68a14.77,14.77,0,0,0,2.88-.14C369.44,226.15,368.92,226,366.35,226Zm-4.28,101.2a.55.55,0,0,0-.2.69c.14.25-.68.28-2.62.12l-2.83-.24-3.84,3.83-3.84,3.83v2.74a8.79,8.79,0,0,1-.35,3.09c-.36.36.44,1.19,7.76,8.05,2.56,2.4,3.25,2.89,3.65,2.57s.24-.67-1-2a26.84,26.84,0,0,1-2.61-3.55,8.65,8.65,0,0,1,2.73-12c2.85-1.88,7.88-1.3,10.65,1.22,3.54,3.22,3.56,3.24,4,2.83C374.13,337.79,362.68,326.65,362.07,327.15Zm3.56-137.46-13.92-.05h-2.29V176.06H352c2,0,2.54-.1,2.54-.51s-2.37-.51-19.34-.51-19.35.06-19.35.51,1.14.51,8.15.51h8.15V189H309.23l-2,1.94-2,1.94v14.54l1.89,2.15,1.89,2.16H321c6.55,0,11.83-.08,11.73-.17s-5.35-.18-11.68-.19h-11.5l-1.95-2.08-2-2.07v-14l1.79-1.76,1.79-1.77,23.4-.17,0-6.71,0-6.7h16.51v14.25h27.83v7.79l-4.33.1-4.32.11,4.49.07,4.5.08v-8.73Zm8.45,16.91c-3.42,0-6.29.07-6.37.16a4.36,4.36,0,0,0,0,1.52l.13,1.38H380.3V206.6ZM396,355.75l-.15-11c-.17-12.13-.34-13.45-2.36-18.41a29.29,29.29,0,0,0-7.33-10.5c-6.44-6.1-13.51-8.64-25.1-9l-5.88-.19.16-4.61c.09-2.54.19-5.46.23-6.49s.05-4.65,0-8.06l0-6.19h-6.17c-5.23,0-6.26-.08-6.78-.55s-.91-.27-6,4.54c-2.95,2.81-5.7,5.47-6.12,5.93a21.94,21.94,0,0,0-2.14,4.87L327,300.1l2.47,2.26c1.58,1.45,2.59,2.15,2.81,1.94s.19-.54-.06-.94,0-1,2.81-3.8c2.61-2.61,3.19-3.37,3.2-4.21a3.05,3.05,0,0,1,1.27-2.22l4.25-4.06,3-2.86,3.89,3.88c3.71,3.71,3.89,4,3.89,5.29v1.41l-3.31.41c-14.56,1.83-27.84,13.51-32.11,28.25-1.32,4.53-1.69,9-1.45,17.07.12,3.92.31,7.53.42,8,.16.71.05,1-.54,1.31-.41.22-.88.27-1,.11s-1-5.09-1.91-11L313,330.3l-2.38-2.67c-1.31-1.46-2.53-2.86-2.7-3.11-.34-.48-.28-.55,9.81-9.77l5.42-5,.78.73c.6.57.87.64,1.18.32s0-.82-1.44-2.29c-3.38-3.45-3.09-3.36-7.08-2l-3.43,1.16-5.95,5.5a64.94,64.94,0,0,0-5.85,5.78c.05.15,1.93,2.3,4.19,4.78s4.58,5.06,5.17,5.74c1.06,1.21,1.1,1.39,2.78,12.29,1.65,10.67,1.92,12.08,2.36,12.44a21,21,0,0,1,1.17,3.06,43.87,43.87,0,0,0,10,16.92,51.11,51.11,0,0,0,9.86,7.34,5.45,5.45,0,0,1,1.38.89c.39.6,4.87,2,11.18,3.46,7,1.64,12.5,2.87,13.06,2.92.2,0,4.82-4.45,10.26-9.89l9.93-9.92,1.3,1.28c1.06,1,1.39,1.19,1.69.82.56-.67-13.29-14.51-13.91-13.89-.33.33.4,1.24,3.58,4.43l4,4L377.78,367a14.91,14.91,0,0,1-2.67,1.9,22.47,22.47,0,0,1-7.87,1.22h-2.38l-1.21-1.94c-.91-1.45-3.83-4.31-11.48-11.21-8.58-7.75-10.34-9.19-10.76-8.85s-.38.52-.23.65c.79.67,14.33,12.86,17.33,15.61a32.19,32.19,0,0,1,4.36,4.67l.84,1.44h-5a30.54,30.54,0,0,1-7.9-.69,24.82,24.82,0,0,1-18.71-18.29c-.65-2.58-.7-3.51-.56-11.51.13-7.57.25-9.06.89-11.42,2.11-7.77,6.7-13.41,13.11-16.08a30.22,30.22,0,0,1,8.81-2.08h1.2v-3.13l6.36.17c7.83.2,11.17,1,17,3.84a22.71,22.71,0,0,1,6.56,4.47,29.52,29.52,0,0,1,9.66,19.37l.24,2.77h-7.38L378.77,329c-7.36-7.19-9.25-8.87-9.63-8.56s1.33,2.15,9,9.63l9.47,9.24h4.31l-.13,5.86c-.13,5.55-.18,5.93-1,7.59a20.16,20.16,0,0,1-2.54,3.53L386.56,358l-3.79-4c-3.4-3.58-4.51-4.35-4.5-3.13a88.6,88.6,0,0,0,6.78,7.19c5.37,5.37,6.86,6.69,7.19,6.36s.16-.68-.84-1.7l-1.25-1.28,2.91-2.88ZM338.25,381.7a15.87,15.87,0,0,1-2.06-1.08,38.72,38.72,0,0,1-16.12-17.19c-1.45-3-3.56-8.5-3.56-9.34,0-.23.51-.67,1.13-1l1.14-.55.43,1.93a36.22,36.22,0,0,0,18.25,24,5.4,5.4,0,0,1,1.78,1.21A4.16,4.16,0,0,1,338.25,381.7Zm17.2,4.4-5-1.18c-2.71-.64-6.25-1.57-7.87-2.07l-3-.9.49-.95.49-.94,2.07.84a58.54,58.54,0,0,0,10.92,2.7c1.94.22,1.95.23,1.95,1.37A4.16,4.16,0,0,1,355.45,386.1Zm-.6-84.07c0,2.15-.09,4.61-.21,5.48-.21,1.49-.28,1.57-1.45,1.74-11.91,1.69-19.14,8.12-22.14,19.69-.73,2.83-.79,3.73-.8,12.05,0,10.13.17,11.2,2.54,16.12,3.18,6.58,9.24,11.49,17,13.77,2.14.63,3.64.77,9.42.9l6.87.16v1.66c0,1.09.15,1.67.42,1.68s2.18,0,4.33,0l3.9,0-6.1,6.12c-3.36,3.36-6.34,6.1-6.62,6.08s-1.78-.34-3.33-.7l-2.81-.68.1-1.41.1-1.41L353.7,383c-11.15-1.1-21.7-6.88-27.9-15.29a35.56,35.56,0,0,1-6.51-16.77c-.13-1.65-.24-7-.23-11.82,0-7.92.08-9.12.74-11.75,3.89-15.41,17.82-27.89,32.42-29l2.63-.21Zm74.83,52.46c-.37.19-4.55,4.28-9.27,9.09l-8.59,8.73-1.66-1.64L408.5,369,395.6,381.9l-12.9,12.87,1.75,1.77c1.7,1.73,1.73,1.79,1.14,2.45-.34.37-5.56,5.6-11.6,11.62s-11,11.1-11,11.29,5.45-5.07,12.12-11.69,12.19-12.08,12.28-12.13a6.43,6.43,0,0,0-1.34-1.62l-1.5-1.53,12-12,12-12,1.21,1.18a7.41,7.41,0,0,0,1.41,1.19c.15,0,18.24-18,18.95-18.89C430.28,354.22,430.05,354.29,429.68,354.49Zm13.74,35.7a.35.35,0,0,0-.34.34.34.34,0,0,0,.34.34.34.34,0,0,0,.34-.34A.34.34,0,0,0,443.42,390.19Zm1.89,0a.93.93,0,0,0-.7.34c-.11.19.11.34.49.34s.7-.15.7-.34S445.58,390.19,445.31,390.19Zm2,0c-.27,0-.5.16-.5.34s.23.34.5.34.51-.15.51-.34S447.61,390.19,447.32,390.19Zm2,0c-.28,0-.51.16-.51.34s.23.34.51.34.51-.15.51-.34S449.64,390.19,449.36,390.19Zm2,0c-.28,0-.51.16-.51.34s.23.34.51.34.51-.15.51-.34S451.68,390.19,451.4,390.19Zm.14,3.11-1.37-1.15-.86.8a7.67,7.67,0,0,0-1.18,1.4c-.29.54-.09.59,2.24.59a6.71,6.71,0,0,0,2.55-.25A5.91,5.91,0,0,0,451.54,393.3Zm1.89-3.45c-.27,0-.51.16-.51.34s.24.34.51.34.51-.15.51-.34S453.72,389.85,453.43,389.85Zm2,0c-.28,0-.51.16-.51.34s.23.34.51.34.51-.15.51-.34S455.75,389.85,455.47,389.85Zm1.87,0a.34.34,0,0,0-.34.34.34.34,0,0,0,.34.34.34.34,0,0,0,.34-.34A.35.35,0,0,0,457.34,389.85Z" />
	<path class="a background-fill" d="M290.82,303l-13-12.44,0-4.53-21.3-21.3,8.85-8.21L262.86,254l1.36-1.28-3.81-3.61-2.72,2.31-1.95-1.79-7.46.05-6.69,9.93-9,.07.17,12.62-8.33.1.07,2.73,7.08-.16,2.26-1.46h4.64l8.62,8.6,0,7.39-2.86,0-.2,3.06,2.89,2.86-.13,1.17,20,0-.13,22-19.86.07-.56,8.06-6.29,6,2.8,3,3.11-.66,5,4.21h1.36l10.09-9.21,5.09-.17,2.15,1.49h7.81l3.23-9.57,19.95-19.06Zm64.12-53.31-2.69,0-4.81-5.35-.05-12.4,2.33-3.62-1-.42-.05-2.3L287.48,225v4.58l-16.1.06-.13,5.07,1.59,1.75L270,239.35l3.86,4.15,2.48-2.05,1.63,1.72,8.64-7.94,20.92,21.48,5.21.68,9.9,10.59.7,13.5,9.6-8.81.89-2.94.35-1.05,9.31-9.49,11.71-2.47Z" />
	<path class="d border-stroke no-fill" d="M253.19,171.17c-1.69-.42-3.51-2.82-4.81-4.13L228.9,185.2h-6.46l-3.54,3.58.36,1.15,19,18.84h3.54l8.65,9.2,11.16.06L276.37,193H292v-15.6h10.84v-17.8h61.92v14h24.56v38.21H370.16v13.84l4.57,6.09v11.95l-4.51,5.79h-3.17v7.37l9.81,8.9v19.19H365.65v8.41h6.64l6.82,2.44,5.73,2.62,4,2.56,2.31,1.95,3.11-3.11,5.67,4.45,2.07,2.81.73,1.28-3.05,3c9.35,11.45,9.91,24,9.33,36.75l5.48,5.18,11.4-10.48,18.34.49L454,353.5l-33.88,34.32,4.14,3.47c-4.06,12.78,7.82,17,15.29,12.25,1.42-.91,2.69-4.08,2.79-6.78.12-2.86-.94-5.24.45-6" />
	<path class="d border-stroke no-fill" d="M153.5,260l1.15-.17,2.59-15.9,1.85-8.81,3-11.42,6-6.39-6.51-7.19,43.26-45,10.24-3.81,27.2-21.79,17.31,15.12" />
	<path class="d border-stroke no-fill" d="M458.72,390.81c1.11-.82.07,3.17-.41,6.45a36,36,0,0,1-3.14,11.16c-3.73,7.32-11.5,14.2-21.88,14.29-6.55.06-14.19-2.18-22.34-9.93l-5,5.19-8.48-8.44-2.31,2.29-.4,2.35L363.12,444l-10.87-10.82v-9.93l-3.14-3,6.26-5.83-2.54-2.64-12.93-5.16L337.42,409l-18.5-6-3.06,2.38-8.21-5.59,2.65-3.55-5.7-5.48-2.85,1.95L294.47,383l3.12-8.8-4.41-6.11-3.53-11.72,4.21-.13-.28-3.24-15.45-9.33-11.69,0,.12,4.89L261,354.17,243.82,354l-7.18-7.2h-48V319.2l-3.46-1.29-14.82.26,0-22.33-11.67-.07-3.41-3.39-.07-19.16,48.75-.06,2.69,1.39h4.93l-.07-26.18h18.18l8.74-8.48-.13-10.62-7.94-7.62c-1.35-1-.71-2.87-1-4.34l-19.49-19.1-3.71,3.71.24,6.41-23.67,22.75-6.26-6.39-10,29.55-.07,6.1-.62.83" />
	<polygon class="d border-stroke no-fill" points="300.45 302.88 280.5 321.94 277.27 331.51 269.46 331.52 267.31 330.03 262.22 330.2 252.13 339.41 250.77 339.41 245.79 335.2 242.68 335.86 239.88 332.82 246.17 326.81 246.73 318.75 266.59 318.68 266.72 296.69 246.77 296.65 246.9 295.48 244.01 292.62 244.21 289.56 247.07 289.53 247.1 282.14 238.48 273.54 233.84 273.54 231.58 275 224.5 275.17 224.43 272.43 232.75 272.33 232.59 259.71 241.59 259.64 248.28 249.71 255.74 249.66 257.69 251.45 260.41 249.14 264.22 252.75 262.86 254.03 265.39 256.5 256.55 264.71 277.85 286.01 277.82 290.54 290.82 302.98 300.45 302.88" />
	<polygon class="d border-stroke no-fill" points="355.22 256.72 343.51 259.19 334.2 268.68 333.85 269.73 332.96 272.67 323.36 281.49 322.66 267.98 312.76 257.39 307.55 256.71 286.63 235.23 277.99 243.17 276.36 241.45 273.88 243.5 270.02 239.35 272.84 236.47 271.25 234.72 271.38 229.65 287.48 229.59 287.48 225.01 348.69 225.62 348.74 227.92 349.72 228.34 347.39 231.96 347.44 244.35 352.25 249.71 354.94 249.67 355.22 256.72" />
	<path class="d border-stroke no-fill" d="M299.48,303.81l3.74-2.93V289.44l6.6-6.33,11.46-.07,2.08-1.6" />
</svg>
