<svg xmlns="http://www.w3.org/2000/svg" viewBox="0 0 512 512"><defs><style>.a{fill:#3c3c3b;}.b{fill:#565555;}.c{fill:#6a6a6b;}.d{fill:#1f2223;stroke-width:0.32px;}.d,.e{stroke:#1f2223;}.d,.e,.g,.h,.i{stroke-miterlimit:10;}.e,.g,.h,.i{fill:none;}.e{stroke-width:2.24px;}.f{fill:#fff;}.g,.h{stroke:#6a6a6b;}.g{stroke-width:0.96px;}.h{stroke-width:0.32px;}.i{stroke:#b33536;stroke-width:0.96px;}</style></defs><rect class="a" width="512" height="512"/><path class="b" d="M471,208.32s19.84-61.44-56.32-85.76S247,97.6,221.44,100.8s-80,5.76-136.32,32.64S33.52,220.83,35.2,233.92c0,0,14.4,97.92,25,117.76s11.52,39,68.48,51.84,76.16,10.56,76.16,10.56h97.6s104,2.24,132.16-107.52Z"/><path class="c" d="M264.83,264.67s11,2.4,25.44,14.4,31.68-1.92,34.56-4.8,26.53-14.75,46.55,9.6c0,0,4.3,7,8.46,9.89s-1.6,13.44-1.6,13.44-5.12,10.56-6.72,14.4-17.92,15.36-31,14.72-21.76,3.52-26.24,10.24-27.2,8.36-23.36-13.12c0,0,11.52-30.72-12.8-16.32s-21.12,13.44-35.84,6.72c0,0-3.84-2.24-3.2-12.16,0,0-4.16-6.72-6.72-7.36,0,0-4.48-7-4.16-9.6a31.46,31.46,0,0,1-15-1s-25.28,1.6-33.28-.64S166.72,281,166.72,281s-1.28-9.6,3.84-25.28,16.64-27.84,16.64-27.84a16.35,16.35,0,0,0,5.12-10.56c.32-6.4,28.16-16.64,35.2-19.2s15-2.88,21.44-17,29.76-21.76,31.36-21.76,16-5.76,38.72,17.6,50.56,26.56,50.56,26.56,28.16,11.52,3.2,33c0,0-32.32,10.24-49.6-3.84s-33-14.08-33.92-13.76-15.36,0-27.52,10.56c0,0,1,13.12-2.88,14.4C258.88,243.84,265.66,253.5,264.83,264.67Z"/><path class="d" d="M58.88,156.16s14.72,6.72,25.6,7.36c0,0,19.2,8.32,24,13.76s17.6,17.92,7,34.24S105,227.2,103.36,233.28s-7.36,31.36-5.44,47h3.2s1-39.68,10.24-53.44,23.36-32.32-2.24-54.72c0,0-13.12-9.92-27.2-13.12,0,0-15.68-3.52-19.84-7.68Z"/><path class="d" d="M54.08,326.08l.64,5.12S68.08,336.61,72,351.68c4,15.36,19.39,25.19,34.88,28.48,15.84,3.36,27.84,4.32,78.08,13.92,0,0,25.28,2.56,49.28,14.88,0,0,16,2.88,25.6-6.4s16.64-11.52,41.92-8.32,59.84,2.88,65.6,0,12.16-9.28,15-7.68,6.72-4.48,6.72-4.48-10.88-3.2-21.12,7c0,0-2.56,4.64-41,3l-45.44-4.32a31.89,31.89,0,0,0-23.36,9.6C248,408,230.56,403.2,227,401s-13.22-5.91-31.52-9.6c-22.24-4.48-52.16-9.92-75.52-13.44,0,0-35.52-1.6-44.48-29.44C75.52,348.48,73.6,334.08,54.08,326.08Z"/><path class="e" d="M66.6,335.22s1-28.79,17.76-29.75l13.92.48"/><path class="e" d="M108.36,314.59l-.48,27.84s-.48,10.07,23.51,18.71c0,0,9.12,3.84,22.08-4.8,0,0,16.32-7.68,23,1.44s20.64,12.48,22.08,12.48,13.92,1,8.16,25"/><path class="e" d="M317.62,392.82s-1.25-9.35,7.71-11.91,9.18-4.27,10.46-5.12,18.13-14.72,18.13-14.72,4.05-3.84,4.91-13.66S375,332.91,375,332.91s29.87-10,35.63-12c0,0,11.94-2.13,14.5,8.75"/><path class="e" d="M420.69,322.67s-3.62-8.32-1.49-12.38"/><path class="e" d="M410.67,321s15.57-17.28,17.28-44.37,1.49-44.38-10.24-46.51-25.18-32.64-24.32-42-.43-19.84,18.13-27.94"/><path class="e" d="M395.31,198.51s-6.83,25.17-6.62,34.77,2.14,3.2,1.71,14.08-.21,45.44-.21,45.44"/><path class="e" d="M404.05,164.37s-11.52-25.6-26.45-17.92S349.23,142,349.23,142s-25-10.88-38.4-8.53-38.4-14.29-38.83-16.21-23-17.71-58.67-6.62c0,0-10.88,2.14-14.72,2.35s-12.8,4.27-16.64,14.93-18.13,26.24-35,24.54S125.44,148,125.44,148s-16.85-13.23-34.77,13.86"/><path class="b" d="M252.16,192.32s24.32-49.92,59.52-11.52c0,0,17.92,16.64,42.88,25.6s18.24,15,18.24,15-3.52,8-28.48,5.76c0,0-9.6-.64-30.72-15,0,0-26.24-12.8-47.36,1,0,0-11.52,7-14.4,6.72,0,0-1.6-11.84,2.88-16.64S252.16,192.32,252.16,192.32Z"/><path class="b" d="M247.68,195.2s-8.64,7.68-19.2,9.92-28.8,9.6-30.4,17.6a17.94,17.94,0,0,1-7.68,11.52s14.08-7.36,29.12-3.84c0,0,10.24,1,24.64-7.36,0,0,1.48-11.5,2.56-15.36C249,199.68,247.68,195.2,247.68,195.2Z"/><path class="b" d="M247.36,235.2l9.92-4.8s1,8-1.28,10.24Z"/><path class="b" d="M182.08,252.16s16.64-12.16,38.4-9c0,0,12.8-1.28,22.08-7.36a78.86,78.86,0,0,0,10.56,8.64c5.76,3.84,6.72,11.52,6.4,19.84,0,0-23,12.16-26.88,18.56,0,0-5.76,8.64-17,2.56,0,0-32.32,1.92-32.32,0C183.36,285.44,185,259.2,182.08,252.16Z"/><path class="b" d="M233,292.8S256.64,272.64,259.2,273s8.32-4.8,30.72,16c0,0,20.16,10.56,38.4-6.4s37.76,4.8,38.72,9.28,16,26.24-20.48,38.72c0,0-27.52-.64-32,8.64s-23,10.24-17.28-7-3.84-25.92-13.12-24.32S265,323.2,255,322.88s-11.84-9.28-11.52-10.24-1.6-8-4.48-9.28S233,292.8,233,292.8Z"/><polygon class="f" points="66.88 178.56 75.2 180.48 75.2 175.04 66.88 173.12 66.88 178.56"/><polygon class="f" points="66.88 187.84 75.2 189.76 75.2 184.32 66.88 182.4 66.88 187.84"/><polygon class="f" points="66.88 197.44 75.2 199.36 75.2 193.92 66.88 192 66.88 197.44"/><polygon class="f" points="66.88 206.08 75.2 208 75.2 202.56 66.88 200.64 66.88 206.08"/><polygon class="f" points="72.15 246.16 73.85 247.05 72.66 249.31 79.46 252.88 83.92 244.38 75.42 239.92 72.15 246.16"/><polygon class="f" points="69.64 261.48 71.56 261.59 71.41 264.15 79.08 264.59 79.63 255 70.04 254.45 69.64 261.48"/><polygon class="f" points="69.64 274.6 71.56 274.71 71.41 277.27 79.08 277.71 79.63 268.12 70.04 267.57 69.64 274.6"/><polygon class="f" points="72.88 287.97 74.76 287.58 75.28 290.08 82.8 288.52 80.84 279.12 71.44 281.08 72.88 287.97"/><polygon class="f" points="80.71 290.45 80.71 294.11 78.02 296.41 80.71 298.71 80.71 302.38 90.25 302.38 90.25 298.59 92.8 296.41 90.25 294.24 90.25 290.45 80.71 290.45"/><polygon class="f" points="402.13 270.1 402.13 274.05 399.33 276.52 402.13 279 402.13 282.95 412.07 282.95 412.07 278.87 414.72 276.52 412.07 274.18 412.07 270.1 402.13 270.1"/><rect class="d" x="95.68" y="280.32" width="21.44" height="35.2"/><rect class="f" x="94.72" y="275.84" width="2.24" height="3.84"/><rect class="f" x="98.18" y="178.53" width="4.59" height="3.9" transform="translate(-98.19 123.91) rotate(-45)"/><rect class="f" x="105.86" y="186.53" width="4.59" height="3.9" transform="translate(-101.6 131.68) rotate(-45)"/><rect class="f" x="109.41" y="195.79" width="3.9" height="4.59" transform="translate(-87.32 308.37) rotate(-89.69)"/><rect class="f" x="107.65" y="205.06" width="3.9" height="4.59" transform="matrix(0.51, -0.86, 0.86, 0.51, -124.61, 195)"/><rect class="f" x="103.49" y="213.71" width="3.9" height="4.59" transform="translate(-123.94 144.17) rotate(-46.59)"/><rect class="f" x="95.94" y="223.97" width="4.59" height="3.9" transform="translate(-130.98 135.64) rotate(-45)"/><rect class="f" x="142.08" y="215.22" width="4.48" height="3.81"/><rect class="f" x="174.61" y="174.59" width="3.81" height="4.48" transform="translate(-73.34 176.61) rotate(-45)"/><rect class="f" x="338.73" y="376.63" width="7.58" height="8.43" transform="translate(-146.1 227.19) rotate(-30.58)"/><rect class="f" x="323.52" y="368.41" width="4.79" height="7.11" transform="translate(-143.88 217.46) rotate(-30.57)"/><rect class="f" x="347.48" y="370.44" width="7.58" height="8.43" transform="translate(-141.74 230.77) rotate(-30.58)"/><rect class="f" x="225.71" y="334.93" width="3.81" height="4.48" transform="translate(-177.02 379.14) rotate(-61.9)"/><rect class="f" x="330.67" y="145.75" width="4.43" height="4.48" transform="translate(120.04 443.64) rotate(-78.22)"/><rect class="f" x="193.87" y="373.46" width="7.07" height="6.57" transform="matrix(0.2, -0.98, 0.98, 0.2, -211.28, 494.57)"/><rect class="f" x="193.58" y="374.61" width="4.07" height="6.57" transform="translate(-213.85 493.73) rotate(-78.43)"/><polygon class="f" points="204.71 340.13 202.87 345.32 200.04 344.34 198.13 349.86 200.91 350.82 199.03 356.11 215.59 361.99 221.27 346.01 204.71 340.13"/><rect class="f" x="166.56" y="252.81" width="3.2" height="1.9"/><rect class="f" x="141.6" y="204.18" width="4.48" height="7.33"/><polygon class="f" points="147.68 227.52 137.92 227.52 137.92 226.08 132.96 226.08 132.96 227.52 132.96 247.52 132.96 248.32 133.6 248.32 133.6 251.84 147.04 251.84 147.04 248.32 147.68 248.32 147.68 227.52"/><polygon class="f" points="114.56 273.28 108.16 273.28 108.16 278.72 109.16 278.72 109.16 279.84 113.56 279.84 113.56 278.72 114.56 278.72 114.56 273.28"/><polygon class="f" points="152.09 305.73 149.27 306.22 148.14 299.82 152.15 299.12 150.3 288.67 146.3 289.37 144.97 281.84 148.44 281.23 146.84 272.2 128.53 275.43 130.12 284.46 132.49 284.05 133.81 291.57 129.22 292.39 129.23 292.46 124.98 298.52 131.05 302.77 131.06 302.84 135.66 302.03 136.79 308.43 133.78 308.96 135.37 317.99 153.68 314.76 152.09 305.73"/><circle class="f" cx="183.04" cy="376.96" r="2.35"/><rect class="f" x="307.2" y="365.55" width="4.69" height="5.12"/><rect class="f" x="331.52" y="346.35" width="4.91" height="8.11"/><rect class="f" x="339.41" y="346.35" width="4.91" height="8.11"/><rect class="f" x="346.88" y="346.35" width="4.91" height="8.11"/><rect class="f" x="339.41" y="294.72" width="4.69" height="3.84"/><rect class="f" x="420.48" y="238.83" width="4.69" height="4.91"/><rect class="f" x="298.88" y="238.43" width="4.98" height="3.73"/><rect class="f" x="302.65" y="181.5" width="3.04" height="4.07" transform="translate(-14.82 339.91) rotate(-57.22)"/><rect class="f" x="298.88" y="244.03" width="4.98" height="3.73"/><rect class="f" x="280.64" y="228.83" width="11.22" height="6.77"/><rect class="f" x="208.16" y="124.81" width="11.22" height="8.27" transform="translate(-13.01 24.57) rotate(-6.38)"/><rect class="f" x="242.13" y="126.73" width="11.22" height="19.41" transform="translate(-28.12 74.05) rotate(-16.1)"/><rect class="f" x="223.32" y="139.8" width="6.26" height="8.27" transform="translate(-14.6 26.07) rotate(-6.38)"/><rect class="f" x="216.14" y="144.31" width="2.92" height="3.86" transform="translate(-14.91 25.1) rotate(-6.38)"/><rect class="f" x="210.91" y="145.8" width="2.92" height="3.86" transform="translate(-15.11 24.53) rotate(-6.38)"/><rect class="f" x="388.31" y="180.48" width="3.33" height="4.8"/><rect class="f" x="420.48" y="247.15" width="4.69" height="7.47"/><polygon class="f" points="377.6 261.87 377.6 266.61 374.88 268.27 375.05 274.52 377.6 275.9 377.6 280 386.56 280 386.56 261.87 377.6 261.87"/><rect class="f" x="425.24" y="151.87" width="9.6" height="6.71" transform="translate(-0.95 307.78) rotate(-39.34)"/><rect class="f" x="415.63" y="161.87" width="4.11" height="2.23" transform="translate(-8.67 301.7) rotate(-39.34)"/><rect class="f" x="417.71" y="164.75" width="4.11" height="2.23" transform="translate(-10.02 303.67) rotate(-39.34)"/><rect class="f" x="419.63" y="167.31" width="4.11" height="2.23" transform="translate(-11.21 305.47) rotate(-39.34)"/><rect class="f" x="423.95" y="173.22" width="4.11" height="2.23" transform="translate(-13.99 309.55) rotate(-39.34)"/><rect class="f" x="426.03" y="175.78" width="4.11" height="2.23" transform="translate(-15.14 311.45) rotate(-39.34)"/><rect class="f" x="427.79" y="178.34" width="4.11" height="2.23" transform="translate(-16.36 313.14) rotate(-39.34)"/><rect class="f" x="431" y="159.21" width="9.6" height="6.71" transform="translate(-4.3 313.1) rotate(-39.34)"/><rect class="f" x="436.47" y="166.07" width="9.6" height="6.71" transform="translate(-7.41 318.11) rotate(-39.34)"/><polygon class="f" points="412.49 146.32 408.75 141.76 408.75 141.76 405.44 137.72 396.38 145.13 399.7 149.18 402.5 146.88 406.24 151.44 412.49 146.32"/><rect class="f" x="419.88" y="129.8" width="1.92" height="4.8" transform="translate(5.49 280.76) rotate(-37.12)"/><rect class="f" x="423.56" y="134.44" width="1.92" height="4.8" transform="translate(3.44 283.92) rotate(-37.12)"/><polyline class="g" points="113.16 266.75 113.16 264.35 132.84 264.35 132.84 266.75"/><polyline class="g" points="134.72 266.75 134.72 264.35 146.47 264.35 146.47 266.75"/><polyline class="g" points="154.58 280.85 156.95 280.48 158.78 292.08 156.41 292.45"/><polyline class="g" points="160.42 297.75 160.82 300.12 153.96 301.28 153.56 298.92"/><polyline class="g" points="148.8 302.72 151.36 302.72 151.04 300.16"/><polyline class="g" points="144.96 282.56 150.72 281.28 151.04 283.84"/><polyline class="g" points="178.24 298.24 178.24 314.56 175.68 314.56 175.68 319.68 184.32 319.36"/><polyline class="g" points="181.12 298.24 181.12 315.2 183.36 315.2"/><polyline class="g" points="195.84 317.12 199.36 325.76 194.88 327.04 196.48 332.16"/><line class="g" x1="198.72" y1="329.6" x2="199.68" y2="331.84"/><polyline class="g" points="198.4 316.16 202.24 324.8 204.16 324.16 204.8 327.68 201.28 328.64 201.92 331.2"/><line class="g" x1="203.52" y1="336" x2="222.4" y2="343.04"/><polyline class="g" points="197.76 344 199.68 337.6 196.8 336.64"/><polyline class="g" points="195.84 348.8 194.24 353.92 191.36 353.28"/><polyline class="g" points="193.6 359.68 196.48 358.4 210.24 363.52 210.24 365.76"/><polyline class="g" points="209.28 367.68 212.8 368.32 214.4 361.92"/><polyline class="g" points="224 346.24 227.2 346.88 226.56 350.72"/><polyline class="g" points="224.96 344.32 227.84 344.64 230.08 342.4"/><polyline class="g" points="320.64 362.56 317.12 364.16 317.12 374.72"/><polyline class="g" points="324.16 359.36 328.32 357.44 349.12 357.76"/><line class="g" x1="322.56" y1="365.44" x2="328" y2="361.92"/><polyline class="g" points="327.68 364.48 332.16 361.92 338.56 370.88 335.04 373.76"/><polyline class="g" points="332.16 376.32 326.72 378.24 320.64 369.28 324.48 366.72"/><polyline class="g" points="387.2 288 376.64 287.68 376.64 279.36 372.16 279.36 372.16 264.64 376 264.64 376 261.76"/><line class="g" x1="386.88" y1="264" x2="388.48" y2="264"/><line class="g" x1="387.84" y1="267.84" x2="387.84" y2="280.32"/><polyline class="g" points="398.72 263.68 398.72 267.2 402.56 267.2"/><polyline class="g" points="405.44 266.88 411.2 266.88 411.2 264"/><polyline class="g" points="295.04 259.84 290.56 263.68 296.96 271.04 304.96 263.36"/><line class="g" x1="300.16" y1="255.36" x2="304.96" y2="260.48"/><polyline class="g" points="319.36 255.68 313.28 255.68 313.28 261.12 318.4 261.12"/><polyline class="g" points="356.16 255.68 350.08 255.68 350.08 261.12 355.2 261.12"/><polyline class="g" points="274.24 256 268.16 256 268.16 261.44 273.28 261.44"/><polyline class="g" points="235.84 256 229.76 256 229.76 261.44 234.88 261.44"/><polyline class="g" points="201.95 256 195.87 256 195.87 261.44 200.99 261.44"/><polyline class="g" points="398.4 279.68 398.4 282.88 411.84 282.88"/><polyline class="g" points="421.44 176.32 429.12 187.2 438.08 182.08"/><polyline class="g" points="413.76 159.68 411.52 161.92 419.52 174.4"/><polyline class="g" points="412.16 157.44 411.52 155.52 403.2 157.12 392.32 143.36 419.52 124.16"/><polyline class="g" points="423.04 125.76 426.24 130.56 432.32 130.24"/><line class="g" x1="441.28" y1="137.92" x2="443.84" y2="137.28"/><path class="g" d="M445.12,137.92s3.52,11.52,1.6,16l7.36,9.6s-4.16,8.32-8,9.92c0,0-5.76,4.48-6.4,6.4"/><polyline class="g" points="235.84 128 231.36 113.92 241.92 111.68"/><polyline class="g" points="237.44 134.4 243.84 158.4 251.2 156.8"/><line class="g" x1="254.4" y1="155.52" x2="267.2" y2="152.96"/><polyline class="g" points="213.12 117.76 201.6 120.96 206.4 139.52"/><polyline class="g" points="207.04 142.72 210.56 155.52 219.2 152.64"/><line class="g" x1="224" y1="152" x2="232" y2="149.76"/><polyline class="g" points="329.6 142.61 323.2 141.33 321.71 149.01 322.99 149.44"/><polyline class="g" points="324.69 150.08 335.36 152.85 337.92 144.96 331.95 143.25"/><path class="h" d="M126.59,138.43s2.4-2.4,2.88-4.8,4.8-.48,4.8-.48"/><path class="h" d="M224.51,158.11a6.64,6.64,0,0,1-2.4,4.8c-2.4,1.92.48,3.36,1.92,4.32"/><path class="h" d="M202.91,178.27s3.84,4.32,2.88,5.76,8.64-1.92,9.6,1.92,14.88-1.92,7.68-8.64"/><path class="h" d="M180.35,200.35s11-.48,16.8-6.72"/><path class="h" d="M161.63,320.83s.48-4.32,3.36-4.32c0,0,3.12-3,1.41-6.43s10.88-3.84,10.88-3.84"/><path class="h" d="M166.83,324.8s-3-7-1.71-9.17"/><path class="h" d="M184.75,310.72s1.92-5.12,5.12-1.71,3.2,2.14,3.84,1.71,4-1.92,5.33,0c0,0,1.71-2.13,3.2-1.92a39.67,39.67,0,0,0,5.12,0"/><path class="h" d="M209.07,308s8.53-1.07,2.13-2.14l-6.19.86-1.92,2.13"/><polyline class="h" points="219.09 311.15 222.72 310.72 227.41 307.73 231.25 307.95"/><line class="h" x1="227.63" y1="313.49" x2="222.72" y2="310.72"/><path class="h" d="M239.57,346.56s2.56-3.63,4.91-2.13,2.35-4.48,2.35-4.48l3.91-2.21,4.41-2.49"/><path class="h" d="M250.67,340.59s.85-2.35-.64-2.56"/><path class="h" d="M254.72,351.25s8.75-4.69,11.31,5.55"/><path class="h" d="M233.17,366.19l.43-3.2s4.27-.43,6.19-2.56,4.26-2.78,6-2.14,4.27-4.48,7.89-3"/><path class="h" d="M241.71,358.51a13.74,13.74,0,0,1-4.7,9.81"/><path class="h" d="M219.09,370l-.21-4.27s6.19-6,8.11-4.69"/><path class="h" d="M222.08,362.35s-.64-7.26,4.48-6.62"/><path class="h" d="M217.6,370.45s.85,4.06,3.41,2.56"/><path class="h" d="M235.31,399s-1.5-4.69-.64-7.89-3.63.64,0-7.26"/><path class="h" d="M254.29,384.53s-13.44-.42-7-9.81,9.18-3.84,9.18-3.84"/><polyline class="h" points="266.24 367.89 267.73 364.69 272.21 364.48 277.12 360.85 281.81 361.07"/><path class="h" d="M297.39,405.23s4.05-6.62,5.76-6.4,1.49-2.56,1.49-2.56"/><path class="h" d="M373.55,366.61s-.86-11.94,4.69-13.22"/><path class="h" d="M381.44,359.15s.85-4.91,3.84-3.84a2.37,2.37,0,0,0,3.41-1.92s2.78-1.5,3.84.42"/><path class="h" d="M394.24,353.6s6.4-.64,7.68,8.53"/><path class="h" d="M398.72,342.72a11.9,11.9,0,0,1,12.59.43"/><path class="h" d="M375,343.57,374,342.29l1.28-1.06L374,339.31s1.5-3.84,6.83-3"/><path class="h" d="M386.77,335.89s4.91-5.33,8.54-2.77"/><path class="h" d="M287.79,222.19s-7-2.14-15.58,8.1c0,0-.85,9,3.84,12.59,0,0,1.5,4.48.22,5.76"/><path class="h" d="M271.79,246.93s4.26,7,8.1,6.19,4.06.43,4.06.43l1.06-3.2"/><path class="h" d="M279.47,257.39s-5.55,4.9-.43,9.38"/><path class="h" d="M286.93,260.59s-2.34,9,3.2,10.24"/><path class="h" d="M356.69,260.59l.22,2.77s-4.06,4.91.64,6S368,272.53,370.13,280"/><path class="h" d="M421.55,224.32s2.77-5.12,4.48-4.91-.86-8.1,6.61-6"/><path class="h" d="M413.87,224.11s-5.34-2.56-4.91-5.34-3.84-3.62-3.84-3.62"/><path class="h" d="M391.89,226.67s3.2-10.67,7.47-10.67c0,0,6.19,10.24,9.81,10.88"/><path class="h" d="M401.07,205.76a16.3,16.3,0,0,0-1.5-4.48c-1.06-1.92-.85-3.63.22-4.48s-9.82-23.47,1.92-25c0,0,5.33-6.4,8.53-5.12s3.84,5.76,6.19,5.76"/><path class="h" d="M330.67,162.24s2.56,5.55,5.76,5.76l5.33,9.39s3.2,3.41,7.47-1.71"/><path class="h" d="M361.81,124.69a51.4,51.4,0,0,0-13.65,4.06c-6,3-4.91.21-4.91.21"/><path class="h" d="M306.13,111.47a18.78,18.78,0,0,1,8.11,12.8s1.49,3.41,9,3a162.85,162.85,0,0,1,16.85.22l1.07.85"/><path class="h" d="M322.13,118.72s5.76,7.68,10,8.53"/><path class="h" d="M300.16,157.33s9,.86,10.88,5.76,4.48,10.88,13.23,6.62"/><path class="h" d="M305.07,227.52s-1.71,5.33.85,6.4.85,4.05.85,4.05,0,2.14,1.28,2.35,1.28,3.84-.42,4.48-2.14,6,1.06,6.61"/><line class="h" x1="311.47" y1="235.2" x2="308.05" y2="240.32"/><path class="h" d="M326.27,287.71s-2.88,4.32-5.28,2.88-4.8,3.84-4.8,3.84L308,296.35l-1,3.84"/><path class="h" d="M332,295.39s1-6.72,3.36-6.72,1.91-4.8,1.91-4.8,3.36-3.36,4.8-2.88"/><path class="h" d="M342.1,308.35a55.28,55.28,0,0,0,3.36-5.28"/><path class="h" d="M352.66,306s2.4-4.8,4.32-3.84"/><path class="h" d="M306.11,316s-.48,7.2-1.92,8.16-1.92,4.32-1.92,4.32-1,3.83-3.84,5.75-1.92,7.2-.48,8.16"/><path class="h" d="M310,324.67s-5.28,1.44-7.68,3.84"/><path class="h" d="M242.27,294.91s-4.8,3.36-1.92,8.64"/><path class="h" d="M201.6,319s2.88-3.2,6.72-1.28,4.16-1,4.16-1"/><path class="h" d="M202.88,322.24s2.88-2.56,5.12-.64,6.4-1.6,6.4-1.6"/><path class="h" d="M196.16,321.28a10.6,10.6,0,0,0-6.4,3.2"/><path class="h" d="M189.76,322.56s-2.88-1-3.2,1.6"/><path class="h" d="M196.8,323.84a3.75,3.75,0,0,0-4.48,1"/><path class="a" d="M87.68,189.12s.64-2.88,1.6-2.24,1.49-1.07,1.49-1.39,1.82-1.17,2.78.86c0,0,3,0,2.66.85s.22,3.31,1.07,3.52,4,3.41,3.84,5.87a15.42,15.42,0,0,1-1.17,6.29,4.28,4.28,0,0,0-1.6,3.84s-.43.75-1,.75,1.6,5.12-2.24,5.12c0,0,0,2.77-2,2.66s-2.67.22-3-3-1.38-5.76-2.24-6.72-.32-4.06,0-4.38S85.12,196.05,87.68,189.12Z"/><path class="a" d="M307.52,403.84c.27-.82,1-3.09,5.65-2.88s2.56-1,2.56-1a2.82,2.82,0,0,1,2.88,1.92c.75,2.13,1.5,4.69-.53,4.69s.64,1.82,1.39,1.82-.43,3.41-3.42,1.92c0,0-3.94.1-4.9.32S306.13,408.11,307.52,403.84Z"/><path class="a" d="M405.6,236.48s2.08-.48,1.92,1.92,1,2.88,1,2.88.16,8-5.92,6.24-1.6-7.36-.32-7.52S405.92,237.76,405.6,236.48Z"/><path class="i" d="M471,208.32s19.84-61.44-56.32-85.76S247,97.6,221.44,100.8s-80,5.76-136.32,32.64S33.52,220.83,35.2,233.92c0,0,14.4,97.92,25,117.76s11.52,39,68.48,51.84,76.16,10.56,76.16,10.56h97.6s104,2.24,132.16-107.52Z"/></svg>