<svg xmlns="http://www.w3.org/2000/svg" viewBox="0 0 512 512">
	<defs>
        <style>
            .no-fill{fill:none;}
            .no-stroke{stroke:none;}
            
            .border-fill{fill:#b33536;}
            .road-fill{fill:#1f2223;}
			.background-fill{fill:#3c3c3b;}
            .field-fill{fill:#565555;}
            .feature-fill{fill:#6a6a6b;}
            .building-fill{fill:#fff;}
            
            .border-stroke{stroke:#b33536;}
            .road-stroke{stroke:#1f2223;}
			.background-stroke{stroke:#3c3c3b;}
            .field-stroke{stroke:#565555;}
            .feature-stroke{stroke:#6a6a6b;}
            .building-stroke{stroke:#fff;} 
        </style>
		<style>

            .c,.d,.f{;stroke-miterlimit:10;}
            .c{stroke-width:0.7px;}
            .d{stroke-width:1.07px;}
            .f{stroke-width:0.96px;}
		</style>
	</defs>
	<rect class="a background-fill" width="512" height="512" />
	<path class="b field-fill" d="M53.07,156.89l19.83-3.14s11-9.91,16.19-19.31c0,0,8.87-2.09,15.13,3.66l10.44-4.18s2.61,8.87,11,5.74l4.18,6.79,19.31-7.83,2.09-3.13s8.87,5.21,9.4-7.83,3.32-12.51,3.32-12.51-2.32-7.66,10-15.55l3-.23L179.7,95s10.44.47,17.63-7,13.46-13.45,16-9.28c0,0,7.51-6.86,14.15-2.55,4.64,3,20.88-4.17,20.88-4.17s14.15-3.48,20.88,1.16,24.13,6.26,26.68,5.8,14.15.23,27.14,7.65c0,0,14.39,3.71,18.33,2.09s4.18-2.78,7.19-.46,7.66,4.64,17.4,1.16A19.12,19.12,0,0,1,376,88c5.8.7,28.07-3,34.8-14.15,0,0,1.39-3.94,5.1-4.17s3.71-9.28,13.69-2.56,6.5,10,15.54,8.12c0,0,3.72,1.16,4.88,4a8.16,8.16,0,0,1,5.16,3.71s1.4,1.67,6.44,7.89c.94,1.16,4.05,2.23,4.87,3.48,1.06,1.61,1.24,5.69,2.09,7.42,1,2,4.22,5.36,5.39,7.31.5.82-.64,3.78,0,5.39,1,2.4,3.26,4.14,3.31,5.4a143.66,143.66,0,0,0,2.95,23.49c.33,1.53,3.3,3.92,4.18,6.61,1.43,4.34,0,10.26,0,10.26s6.09,5.75,6.44,9.57c.63,7,.52,19.49.52,19.49L491,212.53s-2.78,16.18-1.39,21.23c1.17,4.23.87,16.53.87,16.53a54.59,54.59,0,0,1,2.26,8.87c1.14,6.59,2,15.37,3,19,1.39,5-2.61,13.39-2.61,13.39s-12,45.94-50.29,45.07c-33.94-.77-42.8,14.79-42.8,14.79s-1.22,3.13.18,5.57c0,0-.7,5.39-5.57,6.09,0,0-3.66,8.18-14.79,13.4s-17.13,14.37-21.23,19.83c-9.83,13.11-33.41,30.8-59.68,27-27.94-4.07-26.28-7.13-38.8,1.91s-9.57,30.11-42.46,16.36c0,0-15.31-6.44-20.18-5.57s-16.88-6.44-16.88-6.44-5.4-2.08-8.35-1.39-10.62-3.48-11.31-4.35c0,0-7.14,5.74-9.22,5.57s-5.22,5.05-5.22,5.05H18.92V262.12s9.75-3.48,10.62-6.44V247l-4.87-4s-.53-14.79-4.18-19.84l8.7-9.57S35,221.05,37.37,215c.73-1.89-.18-5.91-6.61-4.69l-.18-16.88L45.72,189s3.31-15.49,4.87-18.45S54.5,158.66,53.07,156.89Z" />
	<polyline class="c feature-stroke no-fill" points="85.74 374.29 69.5 358.28 69.27 336.24 79.47 326.27 111.72 326.27" />
	<line class="c feature-stroke no-fill" x1="111.49" y1="314.43" x2="111.49" y2="342.97" />
	<polyline class="c feature-stroke no-fill" points="91.54 380.09 107.78 396.33 129.35 396.33 139.33 386.35 139.33 359.91" />
	<polyline class="c feature-stroke no-fill" points="118.92 336.01 118.92 343.9 144.2 343.9 144.2 319.31" />
	<polyline class="c feature-stroke no-fill" points="143.51 311.88 143.51 308.17 118.92 308.17 118.92 326.27" />
	<polyline class="c feature-stroke no-fill" points="69.27 279.63 66.25 279.63 66.25 273.14 72.75 273.14 72.75 279.4" />
	<polyline class="c feature-stroke no-fill" points="202.43 235.09 199.65 238.8 193.62 237.18 193.15 235.09 191.53 233.24 193.85 231.84" />
	<path class="c feature-stroke no-fill" d="M195.71,237.41s-5.8,10-8.36,10.44L176,256.2l-16.48,7-38,3.95-7.43-7.2-3.71-9.28.7-7.19,1.39-15.08A54.13,54.13,0,0,1,128,217l8.12,1.16S153,224.42,157,223.49l4.41,2.55,7.19-3.25,3.25,3.25,4.87,1.16" />
	<polyline class="c feature-stroke no-fill" points="66.95 192.4 71.12 199.13 79.24 194.49" />
	<polyline class="c feature-stroke no-fill" points="113.58 156.44 117.75 162.24 124.71 158.07" />
	<polyline class="c feature-stroke no-fill" points="121.7 151.57 117.75 144.61 110.56 148.09" />
	<path class="c feature-stroke no-fill" d="M144.2,142.76s-.46,3.71-3,4.4l-.47,4.88-4.17,3.48s-3.48,1.62-5.11,1.16l-5.33,6.49.69.93-3,2.09-9.52.23-2.78,2.09-5.1-.23" />
	<path class="c feature-stroke no-fill" d="M141.42,188.69a1.88,1.88,0,0,1,2.09-2.09c2.32,0,1.16-2.55,1.16-2.55s4.4-5.8,7.88-5.1c0,0,6-4.41,4.88-9l3-3.48,7.43-4.64a10.39,10.39,0,0,1,4.4-5.57c3.72-2.55,2.09-5.57,2.09-5.57s5.22-5.33,7.43-10.78l7-4.07,2-.11,9.28-4.76" />
	<path class="c feature-stroke no-fill" d="M255.68,139.86,243.85,139l-2.21,1.63-4.17-.24s-4.76,1.4-11.84,10.44l-.46,3.25" />
	<path class="c feature-stroke no-fill" d="M205.1,157.72s22.27-6.73,34.8-3" />
	<path class="c feature-stroke no-fill" d="M177,182l2.09,9.28s15.66,17.17,23.31,21.23L223,217.92s9.39,3,13.22.35,33.41-35.73,33.41-35.73l.35-3.48s-6.85-7.42-6.73-11.13" />
	<path class="c feature-stroke no-fill" d="M268,141.71a26.51,26.51,0,0,0,12.65,6.73" />
	<path class="c feature-stroke no-fill" d="M171,205.39s7.31,9.75,19.49-2.43" />
	<path class="c feature-stroke no-fill" d="M163.34,130.23s21.23-10.44,10.09-26.8" />
	<polyline class="c feature-stroke no-fill" points="193.97 106.22 190.14 99.25 196.75 95.08" />
	<polyline class="c feature-stroke no-fill" points="203.01 102.04 209.63 98.91 205.45 91.95" />
	<polyline class="c feature-stroke no-fill" points="327.95 96.82 327.25 101.34 343.95 104.47" />
	<polyline class="c feature-stroke no-fill" points="182.83 265.6 182.83 273.6 197.45 273.6" />
	<polyline class="c feature-stroke no-fill" points="204.75 273.95 229.81 273.95 229.81 266.64" />
	<polyline class="c feature-stroke no-fill" points="270.87 224.53 302.54 224.53 302.54 238.11" />
	<polyline class="c feature-stroke no-fill" points="328.99 238.45 328.99 228.01 353.7 228.01 353.7 231.49" />
	<polyline class="c feature-stroke no-fill" points="353.7 235.32 353.7 245.41 329.34 245.41 329.34 242.28" />
	<line class="c feature-stroke no-fill" x1="331.77" y1="293.79" x2="331.77" y2="310.14" />
	<line class="c feature-stroke no-fill" x1="330.03" y1="312.23" x2="330.03" y2="316.06" />
	<polyline class="c feature-stroke no-fill" points="294.89 291.7 312.29 291.7 312.29 330.32 293.84 330.32 293.84 336.59 298.02 336.59" />
	<polyline class="c feature-stroke no-fill" points="298.37 339.37 293.84 339.37 293.84 341.46 287.58 341.46 287.58 339.72 283.05 339.72" />
	<polyline class="c feature-stroke no-fill" points="283.4 336.24 286.88 336.24 286.88 330.32 269.48 330.32 269.48 317.45" />
	<polyline class="c feature-stroke no-fill" points="266.35 309.79 269.13 309.79 269.13 292.05 287.23 292.05" />
	<polyline class="c feature-stroke no-fill" points="318.2 328.58 325.16 328.58 329.34 324.41 329.34 321.97" />
	<polyline class="c feature-stroke no-fill" points="170.65 318.49 167.52 318.49 167.52 302.49" />
	<polyline class="c feature-stroke no-fill" points="186.31 324.41 186.31 322.32 175.87 322.32 175.87 297.27 213.8 297.27 213.8 288.22 237.81 288.22 237.81 307.71 213.8 307.71 213.8 300.05 201.62 300.05 201.62 324.41 181.79 324.41 181.79 328.58" />
	<line class="c feature-stroke no-fill" x1="177.96" y1="328.24" x2="177.96" y2="322.32" />
	<line class="c feature-stroke no-fill" x1="170.3" y1="353.99" x2="170.3" y2="363.04" />
	<polyline class="c feature-stroke no-fill" points="170.3 368.61 170.3 373.48 173.44 373.48" />
	<line class="c feature-stroke no-fill" x1="173.78" y1="363.39" x2="173.78" y2="354.69" />
	<polyline class="c feature-stroke no-fill" points="176.22 373.13 180.4 373.13 180.4 377.31 195.01 377.31" />
	<polyline class="c feature-stroke no-fill" points="193.27 387.05 203.36 387.05 203.36 397.14" />
	<polyline class="c feature-stroke no-fill" points="203.71 400.27 203.71 410.02 193.62 410.02" />
	<polyline class="c feature-stroke no-fill" points="186.66 410.37 176.57 410.37 176.57 402.01" />
	<polyline class="c feature-stroke no-fill" points="176.91 397.14 176.91 390.18 179 390.18" />
	<line class="c feature-stroke no-fill" x1="173.09" y1="394.01" x2="173.09" y2="405.14" />
	<line class="c feature-stroke no-fill" x1="207.54" y1="394.01" x2="207.54" y2="405.14" />
	<line class="c feature-stroke no-fill" x1="209.63" y1="357.47" x2="209.63" y2="365.47" />
	<line class="c feature-stroke no-fill" x1="209.63" y1="370" x2="209.63" y2="373.48" />
	<line class="c feature-stroke no-fill" x1="186.66" y1="351.21" x2="194.31" y2="351.21" />
	<polyline class="c feature-stroke no-fill" points="389.54 233.58 395.81 233.58 395.81 239.85" />
	<polyline class="c feature-stroke no-fill" points="426.78 265.6 434.95 257.42 444.52 246.11 446.61 236.71 452.18 237.76" />
	<polyline class="c feature-stroke no-fill" points="436.17 262.81 439.31 265.95 434.08 271.17" />
	<line class="c feature-stroke no-fill" x1="440.7" y1="263.51" x2="434.78" y2="257.59" />
	<polyline class="c feature-stroke no-fill" points="453.92 260.03 446.26 255.16 449.75 249.94" />
	<polyline class="c feature-stroke no-fill" points="456.36 239.5 462.97 241.93 467.14 213.4" />
	<polyline class="c feature-stroke no-fill" points="448.7 228.01 450.79 220.36 458.79 222.45" />
	<polyline class="c feature-stroke no-fill" points="452.53 205.05 452.88 212.7 458.44 213.05" />
	<polyline class="c feature-stroke no-fill" points="458.1 196 458.1 206.79 465.06 206.79" />
	<line class="c feature-stroke no-fill" x1="467.84" y1="209.57" x2="467.84" y2="201.57" />
	<polyline class="c feature-stroke no-fill" points="460.19 188.34 460.19 178.95 468.19 178.95 468.19 189.39" />
	<polyline class="c feature-stroke no-fill" points="450.09 165.72 450.09 161.2 456.7 161.2 456.7 170.59 446.96 170.59 446.96 161.2" />
	<line class="c feature-stroke no-fill" x1="450.44" y1="178.25" x2="450.44" y2="170.59" />
	<line class="c feature-stroke no-fill" x1="432.69" y1="196" x2="437.91" y2="196" />
	<line class="c feature-stroke no-fill" x1="438.26" y1="191.13" x2="438.26" y2="199.13" />
	<polyline class="c feature-stroke no-fill" points="389.19 209.22 389.19 212.7 389.19 218.27 391.28 218.27" />
	<line class="c feature-stroke no-fill" x1="395.46" y1="213.05" x2="389.19" y2="213.05" />
	<line class="c feature-stroke no-fill" x1="393.02" y1="217.57" x2="401.37" y2="217.57" />
	<polyline class="c feature-stroke no-fill" points="421.21 219.31 408.68 219.31 408.68 197.74 396.15 197.74 396.15 206.44 405.2 206.44" />
	<polyline class="c feature-stroke no-fill" points="417.73 205.39 428.17 205.39 428.17 215.14" />
	<polyline class="c feature-stroke no-fill" points="426.08 212.35 426.08 219.31 424.34 219.31" />
	<polyline class="c feature-stroke no-fill" points="429.56 170.94 429.56 166.77 418.43 166.77 418.43 174.77 432.35 174.77 432.35 168.85" />
	<polyline class="c feature-stroke no-fill" points="417.73 155.98 417.73 161.55 421.21 161.55" />
	<polyline class="c feature-stroke no-fill" points="378.4 165.38 380.84 165.38 380.84 157.37" />
	<polyline class="c feature-stroke no-fill" points="380.14 151.8 380.14 137.19 385.71 137.19" />
	<polyline class="c feature-stroke no-fill" points="384.67 146.93 397.2 146.93 397.2 144.15 407.29 144.15" />
	<polyline class="c feature-stroke no-fill" points="373.19 151.8 373.19 127.79 361.35 127.79" />
	<polyline class="c feature-stroke no-fill" points="365.53 130.92 361 130.92 361 139.28" />
	<line class="c feature-stroke no-fill" x1="371.79" y1="145.89" x2="375.97" y2="145.89" />
	<polygon class="c feature-stroke no-fill" points="96.92 356.28 109.44 369.33 112.31 366.46 99 353.15 96.92 356.28" />
	<path class="d road-stroke no-fill" d="M339.63,287.38v31.14a3.2,3.2,0,0,1-1,2.31l-2.74,2.62a3.17,3.17,0,0,1-1.51.8l-1.47.33a3.2,3.2,0,0,0-1.41.71L319.1,336.15a3.17,3.17,0,0,1-2.1.79h0a3.23,3.23,0,0,0-2.15.83L299.31,352a3,3,0,0,1-.54.4L291,357a3,3,0,0,0-.5.35l-14,12.25-.19.15-9,6.76a3.16,3.16,0,0,1-1.42.6l-10.1,1.58a4.21,4.21,0,0,1-.5,0H155.69" />
	<path class="d road-stroke no-fill" d="M342.21,288.91V319.8a3.2,3.2,0,0,1-.71,2l-4.53,5.6a3.23,3.23,0,0,1-1.71,1.09l-2.48.62a3.14,3.14,0,0,0-1.19.58l-10.43,8.15-.36.24-3.47,2a3.17,3.17,0,0,0-.89.78l-4.27,5.41a3.29,3.29,0,0,1-1.46,1l-9.21,3.18" />
	<path class="d road-stroke no-fill" d="M269.83,377.3,280.5,371a3.21,3.21,0,0,0,.82-.7l2.9-3.48a3,3,0,0,1,.51-.49L302.19,353" />
	<path class="d road-stroke no-fill" d="M345,288.22v33a3.17,3.17,0,0,1-1.14,2.44l-20.44,17.15L313.47,350a2.17,2.17,0,0,1-.29.24l-8.78,6.42a2,2,0,0,0-.23.18L290.11,369.3a3.15,3.15,0,0,1-1.85.78l-7.29.61" />
	<path class="d road-stroke no-fill" d="M348.48,289.61v31.82a3.17,3.17,0,0,1-1.27,2.54l-11.3,8.56a3.14,3.14,0,0,1-.67.38l-4.51,1.94" />
	<line class="d road-stroke no-fill" x1="341.17" y1="258.64" x2="341.17" y2="279.17" />
	<line class="d road-stroke no-fill" x1="343.61" y1="258.29" x2="343.61" y2="278.13" />
	<line class="d road-stroke no-fill" x1="347.09" y1="257.25" x2="347.09" y2="277.43" />
	<path class="d road-stroke no-fill" d="M156,381.83h91.88a3,3,0,0,1,.66.07l3.95.84a3,3,0,0,0,1.2,0l10.85-1.86A3.28,3.28,0,0,1,266,381l3.62,1.07a3.22,3.22,0,0,0,2.89-.56l14-11.15" />
	<rect class="e building-fill" x="63.93" y="266.41" width="9.74" height="9.05" />
	<rect class="e building-fill" x="28.78" y="334.39" width="4.64" height="17.17" />
	<rect class="e building-fill" x="56.28" y="319.42" width="4.06" height="11.02" />
	<rect class="e building-fill" x="75.88" y="310.66" width="11.02" height="3.24" transform="translate(-196.08 147.48) rotate(-44.68)" />
	<rect class="e building-fill" x="147.8" y="303.93" width="11.02" height="3.24" transform="translate(-185.5 351.05) rotate(-71)" />
	<rect class="e building-fill" x="143.98" y="319.25" width="11.5" height="3.24" transform="translate(-178.4 453.94) rotate(-87.06)" />
	<rect class="e building-fill" x="56.62" y="329.28" width="2.9" height="23.78" />
	<rect class="e building-fill" x="28.78" y="369.01" width="4.64" height="17.17" />
	<rect class="e building-fill" x="50.59" y="422.08" width="16.88" height="4.47" />
	<rect class="e building-fill" x="84" y="422.08" width="16.88" height="4.47" />
	<rect class="e building-fill" x="123.45" y="408.14" width="16.88" height="4.47" transform="translate(-42.92 16.36) rotate(-6.11)" />
	<rect class="e building-fill" x="134.05" y="406.73" width="11.66" height="3.03" transform="translate(-156.7 94.76) rotate(-24.5)" />
	<rect class="e building-fill" x="132.72" y="344.13" width="7.48" height="4.47" />
	<rect class="e building-fill" x="341.63" y="321.68" width="12.35" height="2.84" />
	<rect class="e building-fill" x="379.91" y="263.12" width="11.42" height="3.43" transform="translate(-14.1 21.81) rotate(-3.18)" />
	<rect class="e building-fill" x="54.44" y="382.13" width="8.5" height="14.07" transform="translate(-256.2 153.07) rotate(-44.56)" />
	<rect class="e building-fill" x="129.7" y="312.64" width="3.25" height="25.35" />
	<rect class="e building-fill" x="129.12" y="335.84" width="4.41" height="2.15" />
	<rect class="e building-fill" x="129.12" y="324.82" width="4.41" height="2.15" />
	<rect class="e building-fill" x="129.12" y="313.91" width="4.41" height="2.15" />
	<rect class="e building-fill" x="144.32" y="375.8" width="3.25" height="9.86" />
	<rect class="e building-fill" x="164.33" y="375.8" width="3.25" height="9.86" />
	<rect class="e building-fill" x="179.12" y="299.59" width="14.21" height="18.39" />
	<rect class="e building-fill" x="177.38" y="354.31" width="29.52" height="19.34" />
	<rect class="e building-fill" x="174.25" y="354.31" width="29.52" height="3.86" />
	<rect class="e building-fill" x="181.03" y="357.88" width="20.13" height="19.34" />
	<rect class="e building-fill" x="181.03" y="370.87" width="13.34" height="19.6" />
	<rect class="e building-fill" x="165.02" y="271.4" width="9.69" height="9.19" />
	<rect class="e building-fill" x="188.51" y="262.35" width="8.47" height="7.28" />
	<rect class="e building-fill" x="204.87" y="251.39" width="8.47" height="7.28" />
	<rect class="e building-fill" x="219.31" y="250" width="7.77" height="9.02" />
	<rect class="e building-fill" x="204.87" y="262" width="16.99" height="7.98" />
	<rect class="e building-fill" x="192.69" y="282.36" width="11.25" height="3.28" />
	<rect class="e building-fill" x="181.03" y="294.54" width="4.99" height="2.23" />
	<rect class="e building-fill" x="233.41" y="281.32" width="11.25" height="3.28" />
	<rect class="e building-fill" x="312.56" y="280.27" width="12.46" height="3.61" transform="translate(-72.37 114.2) rotate(-18.28)" />
	<rect class="e building-fill" x="245.59" y="293.84" width="14.56" height="9.02" />
	<rect class="e building-fill" x="220.99" y="294.42" width="11.43" height="2.64" />
	<rect class="e building-fill" x="220.99" y="299.64" width="11.43" height="2.64" />
	<rect class="e building-fill" x="220.99" y="294.31" width="7.48" height="7.98" />
	<rect class="e building-fill" x="273.19" y="296.05" width="4" height="8.67" />
	<rect class="e building-fill" x="275.29" y="319.96" width="2.03" height="6.08" transform="translate(-136.64 423.75) rotate(-63.17)" />
	<rect class="e building-fill" x="270.06" y="299.35" width="3.31" height="8.32" />
	<rect class="e building-fill" x="308.69" y="294.66" width="16.7" height="14.41" />
	<rect class="e building-fill" x="312.52" y="308.75" width="13.05" height="14.41" />
	<rect class="e building-fill" x="298.78" y="319.7" width="8.92" height="4.1" transform="matrix(0.5, -0.86, 0.86, 0.5, -127.4, 421.9)" />
	<rect class="e building-fill" x="281.3" y="367.79" width="3.34" height="10.01" transform="matrix(0.76, -0.65, 0.65, 0.76, -174.98, 276.2)" />
	<rect class="e building-fill" x="302.53" y="350.74" width="3.34" height="10.01" transform="translate(-158.64 285.93) rotate(-40.89)" />
	<rect class="e building-fill" x="319.4" y="336.64" width="3.34" height="10.01" transform="translate(-145.29 293.54) rotate(-40.89)" />
	<rect class="e building-fill" x="369.12" y="354.27" width="4.29" height="9.21" transform="translate(-126.2 497.28) rotate(-59.58)" />
	<rect class="e building-fill" x="320.52" y="301.09" width="13.05" height="12.15" />
	<rect class="e building-fill" x="305.21" y="290.65" width="14.79" height="9.19" />
	<rect class="e building-fill" x="338.1" y="276.73" width="13.4" height="14.07" />
	<rect class="e building-fill" x="339.49" y="251.33" width="10.61" height="7.8" />
	<rect class="e building-fill" x="301.73" y="254.81" width="12.53" height="4.67" />
	<rect class="e building-fill" x="298.95" y="245.24" width="14.09" height="4.15" />
	<rect class="e building-fill" x="311.47" y="221.05" width="7.83" height="11.11" />
	<rect class="e building-fill" x="274.06" y="225.06" width="9.05" height="5.71" />
	<rect class="e building-fill" x="304.22" y="110.68" width="11.37" height="3.16" />
	<rect class="e building-fill" x="295.57" y="92.89" width="3.16" height="11.37" transform="translate(51.58 292.77) rotate(-56.69)" />
	<rect class="e building-fill" x="255.62" y="224.19" width="9.05" height="3.97" />
	<rect class="e building-fill" x="289.55" y="226.1" width="4.35" height="8.5" />
	<rect class="e building-fill" x="234.22" y="238.28" width="57.25" height="20.16" />
	<rect class="e building-fill" x="246.57" y="233.06" width="18.44" height="20.16" />
	<rect class="e building-fill" x="259.62" y="245.07" width="19.84" height="20.5" />
	<rect class="e building-fill" x="261.71" y="252.03" width="17.23" height="17.55" />
	<rect class="e building-fill" x="261.71" y="255.16" width="8.87" height="17.55" />
	<rect class="e building-fill" x="381.89" y="188.81" width="9.57" height="14.76" />
	<rect class="e building-fill" x="393.49" y="225.23" width="10.27" height="8.96" />
	<rect class="e building-fill" x="415.74" y="184.48" width="4.43" height="8.77" transform="translate(-1.91 373.44) rotate(-48.05)" />
	<rect class="e building-fill" x="450.01" y="183.43" width="3.11" height="5.63" transform="translate(-27.72 91.97) rotate(-11.29)" />
	<rect class="e building-fill" x="449.91" y="194.86" width="5.63" height="3.11" transform="translate(255.67 648.86) rotate(-89.92)" />
	<rect class="e building-fill" x="435.76" y="112.78" width="8.39" height="12.67" transform="translate(78.28 396.5) rotate(-52.64)" />
	<rect class="e building-fill" x="416.21" y="236.09" width="12.82" height="8.82" transform="translate(-40 390.27) rotate(-47.58)" />
	<rect class="e building-fill" x="426.36" y="269.14" width="9.53" height="5.04" transform="translate(-60.22 406.72) rotate(-47.59)" />
	<rect class="e building-fill" x="423.93" y="266.03" width="8.81" height="4.71" transform="translate(-58.72 403.6) rotate(-47.59)" />
	<rect class="e building-fill" x="421.8" y="264.64" width="5.75" height="4.54" transform="translate(-63.97 380.12) rotate(-45.19)" />
	<rect class="e building-fill" x="408.57" y="202.03" width="10.27" height="17.08" />
	<rect class="e building-fill" x="403.69" y="202.03" width="10.27" height="4.76" />
	<rect class="e building-fill" x="460.07" y="178.6" width="8.64" height="4.52" />
	<rect class="e building-fill" x="463.37" y="178.6" width="5.16" height="5.92" />
	<rect class="e building-fill" x="459.89" y="187.47" width="8.82" height="14.44" />
	<rect class="e building-fill" x="463.72" y="194.26" width="4.99" height="14.09" />
	<rect class="e building-fill" x="461.98" y="196.35" width="10.38" height="4.35" />
	<rect class="e building-fill" x="454.67" y="161.2" width="9.34" height="12.35" />
	<rect class="e building-fill" x="417.44" y="166.59" width="9.34" height="12.35" />
	<rect class="e building-fill" x="400.04" y="158.94" width="12.47" height="16.01" />
	<rect class="e building-fill" x="405.09" y="162.76" width="6.38" height="16.01" />
	<rect class="e building-fill" x="379.68" y="164.85" width="14.56" height="11.83" />
	<rect class="e building-fill" x="388.9" y="137.53" width="9.34" height="9.74" />
	<rect class="e building-fill" x="355.5" y="138.06" width="17.34" height="11.14" />
	<rect class="e building-fill" x="338.62" y="234.1" width="10.27" height="5.02" />
	<rect class="e building-fill" x="209.57" y="375.8" width="2.73" height="9.86" />
	<rect class="e building-fill" x="230.8" y="375.8" width="2.73" height="9.86" />
	<ellipse class="e building-fill" cx="90.09" cy="346.59" rx="14.62" ry="14.53" />
	<ellipse class="e building-fill" cx="118.63" cy="375.13" rx="14.62" ry="14.53" />
	<ellipse class="e building-fill" cx="125.76" cy="315.27" rx="3.57" ry="3.55" />
	<ellipse class="e building-fill" cx="84" cy="233.58" rx="3.57" ry="3.55" />
	<ellipse class="e building-fill" cx="125.76" cy="325.98" rx="3.57" ry="3.55" />
	<ellipse class="e building-fill" cx="125.76" cy="336.76" rx="3.57" ry="3.55" />
	<ellipse class="e building-fill" cx="136.72" cy="315.27" rx="3.57" ry="3.55" />
	<ellipse class="e building-fill" cx="205.36" cy="303.8" rx="1.91" ry="1.9" />
	<ellipse class="e building-fill" cx="209.63" cy="303.8" rx="1.91" ry="1.9" />
	<ellipse class="e building-fill" cx="136.72" cy="325.98" rx="3.57" ry="3.55" />
	<ellipse class="e building-fill" cx="136.72" cy="336.76" rx="3.57" ry="3.55" />
	<ellipse class="e building-fill" cx="190.31" cy="399.4" rx="2.17" ry="2.16" />
	<polygon class="e building-fill" points="291.06 396.79 287.35 399.11 287.81 401.67 292.91 402.59 294.31 399.81 291.06 396.79" />
	<polygon class="e building-fill" points="291.99 385.19 293.15 384.26 292.68 382.41 294.07 381.94 295.93 383.8 295.47 385.66 293.84 387.05 291.99 385.19" />
	<polygon class="e building-fill" points="322.61 380.09 324.23 379.63 325.63 384.5 323.31 384.73 322.61 380.09" />
	<polygon class="e building-fill" points="340.24 378.93 343.72 381.94 340.71 385.66 337.46 386.12 335.83 383.8 340.24 378.93" />
	<circle class="e building-fill" cx="300.45" cy="370.69" r="2.67" />
	<ellipse class="e building-fill" cx="339.89" cy="353.52" rx="2.2" ry="1.74" />
	<path class="e building-fill" d="M247.91,311l3.24-2.08,1.86,1.85V313S247.44,318.15,247.91,311Z" />
	<path class="e building-fill" d="M287.58,206.55s4.41-.92,4.87,0,5.1-.69,5.1-.69l.24,3L295.93,210l.7,4.64s-6,4.18-10-2.32S287.58,206.55,287.58,206.55Z" />
	<path class="e building-fill" d="M408.45,228.36l2.09,3.95s9.74-.7,1.85-5.57Z" />
	<ellipse class="e building-fill" cx="382.7" cy="232.54" rx="2.32" ry="1.62" />
	<path class="e building-fill" d="M418.42,150l4.64,1.16S427,149,428.86,149s3.48,3.25,2.32,5.33-6,2.56-6.49.47-5.8-2.32-5.8-2.32Z" />
	<polygon class="e building-fill" points="193.27 231.15 191.88 233.58 194.66 237.06 199.19 237.76 201.62 232.89 193.27 231.15" />
	<ellipse class="e building-fill" cx="131.33" cy="223.32" rx="1.74" ry="2.61" />
	<path class="e building-fill" d="M114.62,225.23l-2.08-2.44,2.78-4.87s1.39-2.43,5.22,1.74S114.62,225.23,114.62,225.23Z" />
	<path class="e building-fill" d="M80.87,172.45,85.51,169,85,166.65l5.34-5.34-.46-1.62,11.6-3.71,6.26,3s4.64,9.28-1.62,12.07l1.16,1.85-4.18,8.59-13.22,5.57-7.43-4.88Z" />
	<polygon class="e building-fill" points="86.9 261.54 89.45 259.22 95.25 263.63 95.48 270.35 94.09 274.3 96.18 275.69 95.95 278.24 93.86 278.7 91.08 281.72 88.06 282.65 80.17 276.15 84.81 270.82 85.04 267.57 87.83 262.93 86.9 261.54" />
	<path class="e building-fill" d="M104.71,232.71l7.48-5.22,1.91,1.57,7.48.52a9.36,9.36,0,0,1,6.44,4l5.92,2.79s-1.74,5,1,7.48c0,0-3.13,7.13-7.48,7.83l-6.09-2.79-16.88-.52s-3.65-3.13-1.74-9.74A14.67,14.67,0,0,0,104.71,232.71Z" />
	<path class="e building-fill" d="M120.54,258.81s17.4.18,21.92-1.74l14.62.87s4.35,0,2.61,8l-4,3.3-2.26-1.39-8.53.52s-5.05,5.92-11.83,7.66l-2.26-1.39-7,.69S117.23,269.77,120.54,258.81Z" />
	<path class="e building-fill" d="M157.25,232s12.53-5.4,17.75,8.17A19.77,19.77,0,0,1,167,252l-16.71.34s-7-1.39-7.65-4.35-1.74-3.82-1.74-3.82-1.92-6.44,5.91-11.84Z" />
	<path class="e building-fill" d="M168.21,217.75l1.66,1.91,2.09.52s1,4.88.17,5.75-3.13,2.43-4.09.26-1.48-1.39-1.74-1.13-2.26-.44-1-2.44Z" />
	<path class="e building-fill" d="M185.27,218.44l8.09-4,10.35,9.31s2.52.61,3.22,2,.78,4,.35,4.44S202,235,202,235a8.57,8.57,0,0,1-7.05-.69c-3.56-2.09-10.52-8-10.52-8Z" />
	<path class="e building-fill" d="M174.57,229s2.34-3.39,3.3-3.22,10.09,4.87,7.74,20.53l1.83,1.66a14.65,14.65,0,0,1-9.48,9c-7.31,2.09,1.48-10.17,1.48-10.17s1.65-9.49-1.57-12.71S174.57,229,174.57,229Z" />
	<path class="e building-fill" d="M148.84,290.77s-6.84.7-8.12,1.28-3.13,3.13-11.83,2.08c0,0-3.13-5.68.58-7.88s1.74-3.48,7-3.72a18.34,18.34,0,0,0,3.48-3.48c.81-1.39,7.77.35,9.28,3.25S149.66,290.31,148.84,290.77Z" />
	<path class="e building-fill" d="M136.66,150.64l-2.08,2.55s1.74,4.06,4.64,3.6,1.5-4.76.92-5S136.66,150.64,136.66,150.64Z" />
	<path class="e building-fill" d="M162.42,168.62s-1.4,5-4.06,4.76-3.25-2-3.25-2l-.81-4.53s3.24-2.55,4.87-1.51A15.9,15.9,0,0,1,162.42,168.62Z" />
	<path class="e building-fill" d="M158,144.49h-1.74a31.55,31.55,0,0,0-3,2c-.46.46-1,4.06,3.83,3.13l1.51-2.44h2.32l2.78-2.78-.93-4.18-4.41,2.09Z" />
	<path class="e building-fill" d="M168.33,122.34s5.57-1.63,7,.69-.7,7-.7,7H170S167.17,128.37,168.33,122.34Z" />
	<path class="e building-fill" d="M202.2,135.79l-3.25-4.4.24-2.79s5.8-.93,7,2.09S202.2,135.79,202.2,135.79Z" />
	<path class="e building-fill" d="M167.87,196.11l-3-6.72s-4.18-.47-4.87-1.86-3.71.93-3.71.93-2.79,10.21,3.48,13.45l-.82,4.06,3.31,4.76s4.35-2.84,6.44-2.61,5.62-4.64,5.62-4.64,2-6-2.14-6.9S167.87,196.11,167.87,196.11Z" />
	<polygon class="e building-fill" points="184.51 197.68 184.57 204.06 190.02 204.29 184.51 197.68" />
	<path class="e building-fill" d="M201.8,212.24s.46-9.28,11.77-5.92,9.69,11.25,9.69,11.25-4.12,4.76-10.85,1.63c0,0-4.87-4.93-7.54-4.82A2.77,2.77,0,0,1,201.8,212.24Z" />
	<path class="e building-fill" d="M176,170.48l.69-7.54,5.57-3.25,6.15.7,7.77-4.64s10.56.46,10.67,4.75,0,3.83,0,3.83,7.31,3,6.38,7.77l12.53,6s1.86,3.6,1.28,5l-.58,1.39s1.85,9.17-1,10.68-13.92,5.33-13.92,5.33L205.22,197l-14.5-.69L178,184.86l-2.9-6.38-2.44-1.16,1.16-5.91Z" />
	<path class="e building-fill" d="M243.38,172.22l3.13,4.64L242.92,181s-8,.93-9.75-1.5,3.83-6.38,4.64-6.62S243.38,172.22,243.38,172.22Z" />
	<path class="e building-fill" d="M242,192.29l1.28,5.8-7.54,13.8v6.61s14.15.23,21.69-8.93c0,0,8.58-5,10.44-7.54s0-3.71,0-3.71,6-3.48,6.61-5.69-.23-2.66-.23-2.66l1.27-1.16s.93-6.38-3.13-6.38l-9.05,1a6.16,6.16,0,0,0-7.65-.35C251.62,186,242,192.29,242,192.29Z" />
	<path class="e building-fill" d="M252.31,161.2l7.2-1s5.45,3.48,3.94,9.17l-6.15,4.52-6-1.62S247,165.72,252.31,161.2Z" />
	<path class="e building-fill" d="M269.13,155.17s7.2-4.53,8.82-6.15,7.66-6.38,7.66-6.38h4.06l6.26,12.41-5.57,9.74s-8.81,1.05-13,4.53c0,0-3.6-4.64-6.5-4.64Z" />
	<path class="e building-fill" d="M287.23,169.32l2.78,2.2a7.12,7.12,0,0,1-.11,2.09c-.23.7-3.6,3.71-3.6,3.71h-2.78l-1.86-2.78S283.87,170.25,287.23,169.32Z" />
	<path class="e building-fill" d="M316.69,159c3.8,1.27,4.3,3.95,15.9,2l1.85,3.94.81-.7s6.15,1.86,3.48,6.5a37.32,37.32,0,0,1-4.64.7c-.58-.12-3.24,5.8-5.91,6s-8.82-2.32-8.82-2.32-.46-1.63-2,.69-5.77-1.62-5.16-5.42c0,0-1.63-4.32,1.22-7.74S316.35,158.88,316.69,159Z" />
	<path class="e building-fill" d="M167.26,337.63s3-1.48,4,.79-.52,2.69-.52,2.69l-1.31,1.74s-5.48,1.66-3.74-3.91A5.06,5.06,0,0,0,167.26,337.63Z" />
	<path class="e building-fill" d="M178.74,342.16l1.39-1.92s2.87-1.21,3.22,1.57-.78,3.57-2.78,2.78A2.49,2.49,0,0,1,178.74,342.16Z" />
	<path class="e building-fill" d="M214.41,351.29s-1.65-9.22-4.87-10.87c0,0-.78-.18-.52-1.74,0,0-.52-.87-2.53-.18s-2.61-3.13-.26-4.52h2.44s1-.87,1-7.22,7.3-5.48,7.3-5.48,5.46.58,6.38-2.9,7.43-4.88,8.82.23c0,0,4.41,0,6.73,2.78,0,0,2.9-3.13,8.81.12,0,0,2.56,1.62,4.18,1.28A2.54,2.54,0,0,1,254.4,324s4.18-1.28,5.34,1a26.78,26.78,0,0,1,1.74,6.5s2,8.46.35,10.32-2.44,10.09-2.44,10.09l-4.52,4.87-.24,3.6s-1.27,2-1.85,3.13a6.5,6.5,0,0,1-4.41,3.37c-2.09.23-2.67,4.87-2.67,4.87l-.11.58-9.28.11s-5.8-5.45-7.2-5-2.2-2-2.2-3.14a3.58,3.58,0,0,0-3.25-3.48C221.11,360.37,222.1,355.67,214.41,351.29Z" />
	<path class="e building-fill" d="M268.79,354.34s3.82-5.45,6.26,0c0,0-.35,3-2,4.41s-1.16-.47-3.83.92S268.21,354.45,268.79,354.34Z" />
	<path class="e building-fill" d="M304.75,379.51s3.36-3.71,5.33-3.6,4.64-2.08,4.64-2.08,3.95-1.75,3.37,2.66c0,0-5.69,6.15-11.72,7.77l-5.92.12s-1.74-3.48,2.32-4.58S304.75,379.51,304.75,379.51Z" />
	<path class="e building-fill" d="M328.41,361.65l5.74-3.43,2.84,3.14-7.36,5.22s-1.86.92-1.63,4-8.12,2.08-3.94-2.38c0,0,.12-.87-.17-1s.23-1.91.87-1.85-.29-.82-.29-.82-2.85-1.56-.58-4.34C323.89,360.2,326.21,358.57,328.41,361.65Z" />
	<path class="e building-fill" d="M384.15,285.61c2.86.9,13.05-2.26,9.92,6.44s-11.84,8-11.84,8l-2.78,1.74-3.83-2.44-1-1.74s-3.83,2.09-4.87-2.78c0,0-.35-1.48-1.4-1.39s.18-1.66.61-1.83-.43-1.48-1.56-1.83-7.14-8.44,1.56-13.39c0,0,6-4.09,7.05,1.21C376,277.6,378.93,284,384.15,285.61Z" />
	<path class="e building-fill" d="M389.43,312.23s5-2.67,4.52,2.32-3.48,2.78-4.52,1.86S387.34,314.2,389.43,312.23Z" />
	<path class="e building-fill" d="M408.68,322.09s3.95-5.45,6-.46a5.93,5.93,0,0,1-2,2.78,2.06,2.06,0,0,0-.41,1.83c.27,1.13-4.21.69-4.21.69s-1.83.44-2.35,1.48-4.83-3.3.21-6.09C406,322.32,407.59,321.38,408.68,322.09Z" />
	<ellipse class="e building-fill" cx="428.73" cy="307.44" rx="3.83" ry="3.48" />
	<ellipse class="e building-fill" cx="428.76" cy="315.23" rx="2.33" ry="3.48" />
	<ellipse class="e building-fill" cx="427.71" cy="308.45" rx="3.37" ry="4" />
	<path class="e building-fill" d="M455.83,267.69l.35-5.22,9.22-5.57s13.23-.87,15,4.87-3,9.92-3,9.92h-5.92l1.57,1.91-.52,6.27-4.7.34-3.65,3s-2.27-1.91-5.75.35-7.48.35-7.48.35l-.69-3.31-3-3.48,1-8.18Z" />
	<ellipse class="e building-fill" cx="344.21" cy="195.56" rx="2.17" ry="2" />
	<ellipse class="e building-fill" cx="347" cy="196.26" rx="2.17" ry="2.35" />
	<path class="e building-fill" d="M319.77,190.26h-3s-2.26-7.31.7-8.36,6.09,1.57,5.74,3.48-2.26,2.61-1.39,3.83a3.42,3.42,0,0,1,.52,2.61l-2.09.18Z" />
	<path class="e building-fill" d="M337.86,180.34l.35,3.3s2.79-.87,3,1.22l3.48-.87S342.21,176.34,337.86,180.34Z" />
	<path class="e building-fill" d="M361.18,195.65s3-6.44,6.44-7.31c0,0,6.61,2.44,4,5.74,0,0-2.61,3.66-2.44,4.53s-5.22.52-5.22.52Z" />
	<path class="e building-fill" d="M372.32,211.83l-1.57-6.09s-.35-4.35,5.92-2.78c0,0,3.48-.18,3.13,4l1.56,1.57s1.57,2.78-2.95,4l-.18,3.3-1.91,2.09-3-3,.87-1.56S375.27,212.35,372.32,211.83Z" />
	<path class="e building-fill" d="M350.91,216.7l1.57-1.21-1.91-3.14v-6.78s4-5.4,10.61-3.66l1.74,2.27s6.26,6.09,7.13,9.39-6.43,7.48-7,7.48-3.65-.52-3.65-.52l-1.91,1.74Z" />
	<path class="e building-fill" d="M312.63,142.75l7,4.7s10.27-1.39,12-8c0,0-6.79-11.66-9.05-12a42.74,42.74,0,0,0-7.31.18s-4,3.42-3.36,7.54,1.51,3.88,1.51,3.88S313.5,142.52,312.63,142.75Z" />
	<path class="f border-stroke no-fill" d="M53.07,156.89l19.83-3.14s11-9.91,16.19-19.31c0,0,8.87-2.09,15.13,3.66l10.44-4.18s2.61,8.87,11,5.74l4.18,6.79,19.31-7.83,2.09-3.13s8.87,5.21,9.4-7.83,3.32-12.51,3.32-12.51-2.32-7.66,10-15.55l3-.23L179.7,95s10.44.47,17.63-7,13.46-13.45,16-9.28c0,0,7.51-6.86,14.15-2.55,4.64,3,20.88-4.17,20.88-4.17s14.15-3.48,20.88,1.16,24.13,6.26,26.68,5.8,14.15.23,27.14,7.65c0,0,14.39,3.71,18.33,2.09s4.18-2.78,7.19-.46,7.66,4.64,17.4,1.16A19.12,19.12,0,0,1,376,88c5.8.7,28.07-3,34.8-14.15,0,0,1.39-3.94,5.1-4.17s3.71-9.28,13.69-2.56,6.5,10,15.54,8.12c0,0,3.72,1.16,4.88,4a8.16,8.16,0,0,1,5.16,3.71s1.4,1.67,6.44,7.89c.94,1.16,4.05,2.23,4.87,3.48,1.06,1.61,1.24,5.69,2.09,7.42,1,2,4.22,5.36,5.39,7.31.5.82-.64,3.78,0,5.39,1,2.4,3.26,4.14,3.31,5.4a143.66,143.66,0,0,0,2.95,23.49c.33,1.53,3.3,3.92,4.18,6.61,1.43,4.34,0,10.26,0,10.26s6.09,5.75,6.44,9.57c.63,7,.52,19.49.52,19.49L491,212.53s-2.78,16.18-1.39,21.23c1.17,4.23.87,16.53.87,16.53a54.59,54.59,0,0,1,2.26,8.87c1.14,6.59,2,15.37,3,19,1.39,5-2.61,13.39-2.61,13.39s-12,45.94-50.29,45.07c-33.94-.77-42.8,14.79-42.8,14.79s-1.22,3.13.18,5.57c0,0-.7,5.39-5.57,6.09,0,0-3.66,8.18-14.79,13.4s-17.13,14.37-21.23,19.83c-9.83,13.11-33.41,30.8-59.68,27-27.94-4.07-26.28-7.13-38.8,1.91s-9.57,30.11-42.46,16.36c0,0-15.31-6.44-20.18-5.57s-16.88-6.44-16.88-6.44-5.4-2.08-8.35-1.39-10.62-3.48-11.31-4.35c0,0-7.14,5.74-9.22,5.57s-5.22,5.05-5.22,5.05H18.92V262.12s9.75-3.48,10.62-6.44V247l-4.87-4s-.53-14.79-4.18-19.84l8.7-9.57S35,221.05,37.37,215c.73-1.89-.18-5.91-6.61-4.69l-.18-16.88L45.72,189s3.31-15.49,4.87-18.45S54.5,158.66,53.07,156.89Z" />
</svg>
