<svg xmlns="http://www.w3.org/2000/svg" viewBox="0 0 512 512"><defs><style>.a{fill:#3c3c3b;}.b{fill:#565555;}.c{fill:#fff;}.d{fill:none;stroke:#b33536;stroke-miterlimit:10;stroke-width:0.96px;}</style></defs><rect class="a" width="512" height="512"/><path class="b" d="M186.92,399.81l.17-54.81-27.67-.2.74-9.16-15-2.71,0-90.36-7.12.07L137.85,221l3.41-.15V113.45l148.43,0-.05,2.89h42l.2,115-12,0,.05,12.78,55,66-42.95,35.62-26.34-31.66-31.81,27,.1,17.94-29.52-.11.1,40.92Z"/><path class="c" d="M196.08,201.53a.81.81,0,1,1-.81-.8A.81.81,0,0,1,196.08,201.53Z"/><path class="c" d="M196.08,198.3a.81.81,0,1,1-1.61,0,.81.81,0,0,1,1.61,0Z"/><path class="c" d="M198.77,270.19c-1,0-1.14-.13-.65-.65s.79-.49,1.3,0S199.78,270.19,198.77,270.19Z"/><path class="c" d="M202.27,270.19c-.44,0-.8-.22-.8-.52s.36-.38.8-.22.81.4.81.54S202.72,270.19,202.27,270.19Z"/><path class="c" d="M205.24,262.92c0-.45.24-.81.53-.81s.54.36.54.81-.24.81-.54.81S205.24,263.37,205.24,262.92Z"/><path class="c" d="M205.24,259.69c0-.45.24-.81.53-.81s.54.36.54.81-.24.81-.54.81S205.24,260.14,205.24,259.69Z"/><path class="c" d="M206.31,249.46c0,.45-.24.81-.54.81s-.53-.36-.53-.81.24-.81.53-.81S206.31,249,206.31,249.46Z"/><path class="c" d="M206.31,236c0,.45-.24.8-.54.8s-.53-.35-.53-.8.24-.81.53-.81S206.31,235.55,206.31,236Z"/><path class="c" d="M206.31,222.53c0,.45-.24.81-.54.81s-.53-.36-.53-.81.24-.8.53-.8S206.31,222.09,206.31,222.53Z"/><path class="c" d="M206.31,209.07c0,.45-.24.81-.54.81s-.53-.36-.53-.81.24-.8.53-.8S206.31,208.62,206.31,209.07Z"/><path class="c" d="M205,269.65a1.17,1.17,0,0,1,.83-.54.53.53,0,0,1,.51.54c0,.29-.38.54-.83.54S204.79,269.94,205,269.65Z"/><path class="c" d="M206.31,225.74c0,.45-.24.83-.54.83a.52.52,0,0,1-.53-.51,1.16,1.16,0,0,1,.53-.83C206.07,225.05,206.31,225.27,206.31,225.74Z"/><path class="c" d="M206.31,212.28c0,.45-.24.83-.54.83a.52.52,0,0,1-.53-.51,1.14,1.14,0,0,1,.53-.83C206.07,211.59,206.31,211.81,206.31,212.28Z"/><path class="c" d="M206.31,239.21c0,.94-.31,1.07-.78.33a.62.62,0,0,1,.24-.85C206.07,238.51,206.31,238.73,206.31,239.21Z"/><path class="c" d="M206.31,215.78c0,1.3-.29,1.41-.72.32a1,1,0,0,1,.21-1.13C206.09,214.82,206.31,215.15,206.31,215.78Z"/><path class="c" d="M206.31,266.31c0,1.3-.27,1.5-.83.6a1,1,0,0,1,.23-1.18C206.16,265.28,206.31,265.43,206.31,266.31Z"/><path class="c" d="M206.31,256.08c0,1.3-.27,1.5-.83.6a1.06,1.06,0,0,1,.23-1.19C206.16,255.07,206.31,255.2,206.31,256.08Z"/><path class="c" d="M206.31,252.85c0,1.3-.27,1.5-.83.6a1.06,1.06,0,0,1,.23-1.19C206.16,251.84,206.31,252,206.31,252.85Z"/><path class="c" d="M206.31,242.62c0,1.3-.27,1.5-.83.6a1.06,1.06,0,0,1,.23-1.19C206.16,241.61,206.31,241.74,206.31,242.62Z"/><path class="c" d="M206.31,229.15c0,1.31-.27,1.51-.83.61a1.06,1.06,0,0,1,.23-1.19C206.16,228.14,206.31,228.28,206.31,229.15Z"/><path class="c" d="M205.55,233.1c-.45-.72,0-1.55.54-1a1.08,1.08,0,0,1,.11,1C206,233.66,205.89,233.66,205.55,233.1Z"/><path class="c" d="M205.55,219.64c-.45-.72,0-1.55.54-1a1.11,1.11,0,0,1,.11,1C206,220.2,205.89,220.2,205.55,219.64Z"/><path class="c" d="M206.36,206.36a.6.6,0,1,1,.2-.83A.62.62,0,0,1,206.36,206.36Z"/><path class="c" d="M199.58,322.42h-10v10.23c0,8.73-.11,10.23-.81,10.23s-.81-1.59-.81-11v-11h10.77c9.23,0,10.77.11,10.77.8S208.09,322.42,199.58,322.42Z"/><path class="c" d="M191.77,306.81h15.62v-4.58c0-2.69.22-4.58.54-4.58s.54,2,.54,4.85v4.84H192.85v1.89c0,1.86,0,1.88-2.29,1.79-2-.06-2.06-.11-.54-.29s1.75-.38,1.75-2.08Z"/><path class="c" d="M209.27,205.21c.45,0,.81.21.81.45s-.36.45-.81.45-.8-.2-.8-.45S208.83,205.21,209.27,205.21Z"/><path class="c" d="M212.51,205.21c.44,0,.8.21.8.45s-.36.45-.8.45-.81-.2-.81-.45S212.06,205.21,212.51,205.21Z"/><path class="c" d="M206,245.42h-10v-41.6l-1.21.34c-.67.18-12.54.34-26.39.34-22,0-25.17.11-25.17.8s1.21.81,7.76.81h7.79l0,12c0,10.9.3,13.73.95,11.87.2-.52,4.17-.67,17.43-.67h17.19v43.61H160V257.27c0-12.14-.15-15.62-.67-15.62s-.67,3.66-.67,16.42V274.5h20.06c17.47,0,20.05-.11,20.05-.81,0-.49-.51-.81-1.34-.81h-1.35V247h10c8.51,0,10-.12,10-.81S214.55,245.42,206,245.42Zm-11.57-17.77H160V206.11h34.47Z"/><path class="c" d="M216,205a.53.53,0,0,1,.51.54c0,.29-.38.54-.83.54s-.69-.25-.51-.54A1.17,1.17,0,0,1,216,205Z"/><path class="c" d="M220.07,205.6c.15.29-.18.51-.81.51-1.3,0-1.41-.29-.32-.72A1,1,0,0,1,220.07,205.6Z"/><path class="c" d="M223.3,205.6c.15.29-.18.51-.81.51-1.3,0-1.41-.29-.31-.72A1,1,0,0,1,223.3,205.6Z"/><path class="c" d="M224.08,361.19c.34,0,.54,3.5.54,9.43V380H205.24v-8.62c0-5.38.2-8.61.53-8.61s.54,3.14.54,8.34v8.35h17.23v-9.15C223.54,364.6,223.75,361.19,224.08,361.19Z"/><path class="c" d="M225.68,205a1.19,1.19,0,0,1,.83.54c.18.29,0,.54-.52.54s-.83-.25-.83-.54A.53.53,0,0,1,225.68,205Z"/><path class="c" d="M229.2,205c.45,0,.81.25.81.54s-.36.54-.81.54-.81-.25-.81-.54S228.75,205,229.2,205Z"/><path class="c" d="M232.43,205c.45,0,.81.25.81.54s-.36.54-.81.54-.81-.25-.81-.54S232,205,232.43,205Z"/><path class="c" d="M236.47,205.86c0,.14-.38.25-.83.25s-.7-.25-.52-.54C235.44,205.06,236.47,205.3,236.47,205.86Z"/><path class="c" d="M239.81,205.46c.49.52.36.65-.65.65s-1.14-.13-.65-.65S239.29,205,239.81,205.46Z"/><path class="c" d="M242.93,345.58c0,9.69-.11,11.3-.81,11.3s-.81-1.61-.81-11.3.12-11.31.81-11.31S242.93,335.88,242.93,345.58Z"/><path class="c" d="M242.37,205a1.17,1.17,0,0,1,.83.54c.18.29,0,.54-.52.54s-.83-.25-.83-.54A.53.53,0,0,1,242.37,205Z"/><path class="c" d="M245.6,205a1.17,1.17,0,0,1,.83.54c.18.29-.05.54-.52.54s-.83-.25-.83-.54A.53.53,0,0,1,245.6,205Z"/><path class="c" d="M249.12,205.21c.45,0,.81.21.81.45s-.36.45-.81.45-.81-.2-.81-.45S248.67,205.21,249.12,205.21Z"/><path class="c" d="M251,193.19h-1.62v-35H237.07l-.18-2.25c-.09-1.23-.47-2.35-.83-2.46-.51-.18-.67,2.17-.67,10.59v10.81H196.1l-.13-6.6c-.09-3.95-.38-6.59-.7-6.59s-.58,6.14-.67,17.09c-.13,15,0,17.1.67,17.1.45,0,.81-.25.81-.54s9.78-.54,28.27-.54c24.77,0,28.27-.11,28.27-.8C252.62,193.46,252.08,193.19,251,193.19Zm-15.62,0H196.08V176.5h39.31Zm12.39,0H237V159.26h10.77Z"/><path class="c" d="M251.81,205.57a1.19,1.19,0,0,1,.83-.54.53.53,0,0,1,.52.54c0,.29-.38.54-.83.54S251.63,205.86,251.81,205.57Z"/><path class="c" d="M255,205.6c.29-.48,1.91-.21,1.91.31,0,.11-.49.2-1.1.2S254.87,205.89,255,205.6Z"/><path class="c" d="M259.06,206.11c-.63,0-1-.22-.81-.51.3-.48,1.91-.21,1.91.31C260.16,206,259.67,206.11,259.06,206.11Z"/><path class="c" d="M263.39,205.86c0,.14-.38.25-.83.25s-.69-.25-.51-.54C262.36,205.06,263.39,205.3,263.39,205.86Z"/><path class="c" d="M228,246.09c-.18-.51,1.25-.67,5.94-.67h6.15l-1.26-2.51a12.59,12.59,0,0,1-1.28-4.49c0-2.18,2-6.51,3.24-6.91.44-.16.26.34-.43,1.26a8.76,8.76,0,0,0,.76,11.93,8.63,8.63,0,0,0,13.06-1.46l.83-1.32-1.32,1.14a7.9,7.9,0,0,1-6.06,2.36,8,8,0,0,1-6.91-11.85,10.09,10.09,0,0,0,1-2.42c0-1,2.56-1.86,5.56-1.88,3.77,0,6.24,1.48,7.76,4.69l1.08,2.26,3.64,0c2.87,0,3.63.21,3.63.83s-.74.81-3.5.81c-3.39,0-3.5.05-3.5,1.37,0,2.18-2,5.52-4.17,7a10,10,0,0,1-7.94,1.32,55.1,55.1,0,0,0-8.84-.65C230.23,246.81,228.14,246.59,228,246.09Z"/><path class="c" d="M265.81,205.21c.45,0,.81.21.81.45s-.36.45-.81.45-.8-.2-.8-.45S265.37,205.21,265.81,205.21Z"/><path class="c" d="M269.85,205.6c0,.29-.36.51-.8.51s-.81-.09-.81-.2.36-.36.81-.54S269.85,205.3,269.85,205.6Z"/><path class="c" d="M272.55,202.88c-.3,0-.54-.49-.54-1.12s.24-.94.54-.76a1.41,1.41,0,0,1,.53,1.1C273.08,202.52,272.84,202.88,272.55,202.88Z"/><path class="c" d="M273.08,197.72a1.45,1.45,0,0,1-.53,1.12c-.3.18-.54-.18-.54-.78s.24-1.1.54-1.1S273.08,197.29,273.08,197.72Z"/><path class="c" d="M271.74,205.57a1.2,1.2,0,0,1,.87-.54c.29,0,.38.25.2.54a1.19,1.19,0,0,1-.87.54C271.65,206.11,271.56,205.86,271.74,205.57Z"/><path class="c" d="M158.93,159.26c-.34,0-.54-3.14-.54-8.34v-8.35h36.08V128H237V134h38.23V149c0,8.28-.11,15.08-.27,15.08s-.27-6.55-.27-14.54V135H237.07l-.18,2.25c-.09,1.23-.44,2.35-.83,2.46s-.67-1.05-.67-4.93v-5.16H196.08v9.15c0,7.79-.11,9.16-.81,9.16s-.8-.61-.8-2.16v-2.15h-35v7.81C159.47,156.3,159.26,159.26,158.93,159.26Z"/><path class="c" d="M282.6,212.44a2.05,2.05,0,0,1,0,1.34c-.16.39-.27.07-.27-.67S282.44,212.08,282.6,212.44Z"/><path class="c" d="M282.6,210.55c-.16.39-.27.07-.27-.67s.11-1,.27-.67A2.05,2.05,0,0,1,282.6,210.55Z"/><path class="c" d="M282.28,206.34c0-.63.16-.77.32-.34a1.15,1.15,0,0,1,0,1C282.4,207.21,282.26,206.9,282.28,206.34Z"/><path class="c" d="M282.28,203.1c0-.62.16-.76.32-.33a1.15,1.15,0,0,1,0,1C282.4,204,282.26,203.67,282.28,203.1Z"/><path class="c" d="M284.39,200.73c0,.29-.49.54-1.07.54s-1.08-.25-1.08-.54.49-.54,1.08-.54S284.39,200.43,284.39,200.73Z"/><ellipse class="c" cx="284.66" cy="214.19" rx="0.81" ry="0.54"/><ellipse class="c" cx="287.89" cy="120.76" rx="0.81" ry="2.42"/><path class="c" d="M295.16,274.74c0,.95-.31,1.08-.78.34a.62.62,0,0,1,.24-.85C294.91,274.05,295.16,274.27,295.16,274.74Z"/><path class="c" d="M297.63,271.94c.13.13-.11.56-.56.94s-.83.45-.83.09C296.24,272.32,297.27,271.58,297.63,271.94Z"/><path class="c" d="M300.32,269.79c.14.13-.11.56-.56.94s-.83.45-.83.09C298.93,270.17,300,269.43,300.32,269.79Z"/><path class="c" d="M301.35,268a1.19,1.19,0,0,1,.88-.54c.29,0,.38.24.2.54a1.19,1.19,0,0,1-.87.53C301.26,268.57,301.17,268.33,301.35,268Z"/><path class="c" d="M304.32,265.59c.74-.87,1.41-.67.83.25a1.31,1.31,0,0,1-.92.58C303.87,266.42,303.91,266.11,304.32,265.59Z"/><path class="c" d="M307,263.44c.74-.88,1.41-.68.83.24a1.27,1.27,0,0,1-.92.59C306.56,264.27,306.6,264,307,263.44Z"/><path class="c" d="M310.55,260.63c.14.14-.11.56-.56.94s-.83.45-.83.09C309.16,261,310.19,260.27,310.55,260.63Z"/><path class="c" d="M317.6,244.7c-.41.41-8.82.54-19.34.29l-6.87-.13V230.25l-1.3,1.55c-2.56,3-12.7,7.25-12.7,5.25,0-.42,1-1,2.29-1.32a18.4,18.4,0,0,0,7.4-3.3c3.28-2.38,3.77-3.79,3.77-11,0-5.77-.06-6.21-1-6.21-1.41,0-2.74-.57-2.74-1.15,0-.25,1.22-.47,2.7-.47h2.69v15.08h8.08c6.82,0,8.07.13,8.07.81s-1.28.8-8.34.8h-8.35v14h13C312,244.34,317.6,244.5,317.6,244.7Z"/><path class="c" d="M311.85,259.13c.74-.88,1.42-.67.83.25a1.21,1.21,0,0,1-.92.58C311.41,260,311.45,259.64,311.85,259.13Z"/><path class="c" d="M315.09,187.8v-5.92H288.16V156.57c0-16.51-.18-25.31-.54-25.31s-.65,9.52-.54,41.06l.05,11.71H273.62v9.16H272q-1.62,0-1.62.81c0,.6.63.8,2.42.8h2.43v-9.15h11.84v7.22c0,5.25-.18,7.32-.67,7.54s-.54.38,0,.63a1.31,1.31,0,0,1,.67,1.08c0,.54.65.76,2.16.76s2.15-.22,2.15-.81-.54-.8-1.61-.8h-1.62V187.8Zm-26.93-4.3h25.31v2.69H288.16Z"/><path class="c" d="M315.62,256.68c0,.27-.36.61-.8.79s-.81.09-.81-.16.36-.6.81-.78S315.62,256.44,315.62,256.68Z"/><path class="c" d="M315.09,229.54c0-.5.51-.81,1.34-.81s1.35.31,1.35.81-.52.8-1.35.8S315.09,230,315.09,229.54Z"/><path class="c" d="M318.09,254.17c.14.14-.11.56-.56.94s-.83.45-.83.09C316.7,254.55,317.73,253.81,318.09,254.17Z"/><path class="c" d="M319.68,253a.61.61,0,1,1,.83.21A.62.62,0,0,1,319.68,253Z"/><path class="c" d="M322.09,255.4c-.41-.51-.45-.83-.09-.83a1.29,1.29,0,0,1,.92.59C323.5,256.08,322.83,256.28,322.09,255.4Z"/><path class="c" d="M298.48,279.23c.36.34.52.76.36.92-.36.36-1-.29-1-1C297.85,278.81,298.1,278.85,298.48,279.23Z"/><path class="c" d="M300.75,281.77c.16.45.07.8-.23.8s-.51-.35-.51-.8.09-.81.2-.81S300.57,281.32,300.75,281.77Z"/><path class="c" d="M302.7,284.19c0,.29-.11.54-.25.54s-.38-.25-.56-.54-.06-.54.25-.54A.56.56,0,0,1,302.7,284.19Z"/><path class="c" d="M319.1,255.11c-.51,0-.13.54,3.52,5.12a45.91,45.91,0,0,1,3.77,5.11c0,.81-8.14,7.68-8.55,7.21s-6.91-8.62-7.42-9.32a.3.3,0,0,0-.43,0,36.68,36.68,0,0,0,3.7,5.27l3.95,5.05-4.1,3.68a47.57,47.57,0,0,1-4.38,3.7,27.61,27.61,0,0,1-3-4c-1.48-2.22-2.89-4-3.14-4a39,39,0,0,0-4.89,2.45c-3.73,2.09-5,3.19-8,6.93a33.51,33.51,0,0,0-3.59,5,22.8,22.8,0,0,0,3.5,3.95c1.93,1.91,3.45,3.64,3.36,3.84-.25.65-30.4,25.57-30.94,25.57-.13-.13-.25-4.12-.27-8.9S262,303,261.71,303s-.47,4-.47,8.88v8.89H242.93v-6.73c0-4.13.2-6.74.54-6.74s.54-1,.54-2.15-.25-2.15-.54-2.15-.54.85-.54,1.88v1.89H223.54v-4.58c0-2.69-.22-4.58-.53-4.58s-.54,2-.54,4.85v4.84h19.38v13.47H231.62c-8.73,0-10.23.11-10.23.8s1.46.81,10,.81h10v1.35c0,.83.32,1.34.81,1.34s.81-.51.81-1.34v-1.35h9.74c6.21,0,10.12-.22,10.86-.6,3.79-2.05,64.48-54.52,64.48-55.76C328,265.7,319.39,255.11,319.1,255.11ZM307.68,282.6c-1.95,1.77-11.22,10-12.29,10.88s-1.19.85-4.45-2.51a22.78,22.78,0,0,1-3.32-4c0-.74,5.12-7.16,6.85-8.57a3,3,0,0,1,2.26-.86c.47.16.68.09.43-.15s1-1.24,2.65-2.2l3.07-1.75,2.87,4.13C308.47,281.5,308.58,281.79,307.68,282.6Z"/><path class="c" d="M324.55,258c-.29-.74-.2-.79.47-.2a2.43,2.43,0,0,1,.83.87C325.85,259.29,324.84,258.75,324.55,258Z"/><path class="c" d="M326.93,260.3c0-.34.25-.3.63.09s.52.76.36.92C327.56,261.66,326.93,261,326.93,260.3Z"/><path class="c" d="M330.16,187c0,.56-.56.8-1.88.8h-1.89v-5.92h1.89c1.32,0,1.88.25,1.88.81s-.47.81-1.07.81c-.79,0-1.08.35-1.08,1.34s.29,1.35,1.08,1.35C329.69,186.19,330.16,186.55,330.16,187Z"/><path class="c" d="M330.16,263.48c0,.14-.24.25-.54.25a.55.55,0,0,1-.53-.56c0-.32.24-.43.53-.25S330.16,263.37,330.16,263.48Z"/><path class="d" d="M186.92,399.81l.17-54.81-27.67-.2.74-9.16-15-2.71,0-90.36-7.12.07L137.85,221l3.41-.15V113.45l148.43,0-.05,2.89h42l.2,115-12,0,.05,12.78,55,66-42.95,35.62-26.34-31.66-31.81,27,.1,17.94-29.52-.11.1,40.92Z"/></svg>