<svg xmlns="http://www.w3.org/2000/svg" viewBox="0 0 512 512"><defs><style>.a{fill:#3c3c3b;}.b,.j{fill:none;stroke-miterlimit:10;}.b{stroke:#b33536;stroke-width:0.96px;}.c{fill:#565555;}.d{fill:#1f2323;}.e{fill:#a2a2a2;opacity:0.3;isolation:isolate;}.f{fill:#e8e8d3;}.g{fill:#6ccde4;}.h{fill:#fff;}.i{fill:#6a6a6b;}.j{stroke:#6a6a6b;stroke-width:0.36px;}</style></defs><rect class="a" width="512" height="512"/><path class="b" d="M41.8,217.8s-18.23-19.65-22.26-41.91c0,0-18.22-79.78,70.56-87.83H404s67.12,5,81,72.09V352.63S477.9,420.1,402.61,434c0,0-50.22,8.39-102.78,0-53.27-8.49-86.6-36.1-125.57-74.93l-50.78-54.33Z"/><path class="c" d="M54.82,211.88S48.67,200.52,39,196.73s-7.58-15.15-14.68-14.44c0,0-32-78.84,66.29-92.81l311.8.23s67.24,1.19,81.68,73.16V348s-.47,34.57-31.49,61.32c0,0-35-4.94-44.6,0h-6.39l-4.79,3.87s-18.11-2.13-17.58,5.33c0,0-12.79,3.2-13.32,0l-2.1,2.64s-9.47-.71-7.69,3.91c0,0-9.23-1.07-14.21,0,0,0-36.22,8.87-47.94,0,0,0-19.53-9.24-24.5-22.38,0,0-7.11-18.11-20.24-19.53,0,0-9.95-6.39-11.37-5.33,0,0-12.43-3.9-12.78-5s-17.4-5.68-18.47-13.49c0,0-8.88-12.79-13.85-13.85,0,0-3.91-4.44-3.91-5.33s-7.28-8-8.7-7.81l-9.23-8.7s-7.64-5.69-10.12-5.51a14,14,0,0,1-12.25-9.05c-3.73-9.06-5.69-7.28-8.53-7.82s-6.21-7.28-5.86-8.7c0,0-1.59-6.57-3.9-6.57,0,0-3.73-3.55-3.55-6.74,0,0-.71-2.85-2.14-2.85s-2.48-5.32-2.3-5.86-1.42-3-1.42-3-2.67-2.31-2.13-4.71l-13-14.83s-3.73-8-19.88-11.89C85.84,236.15,55.24,222.59,54.82,211.88Z"/><path class="d" d="M38.83,195.88S53.7,176,71.81,176s45.85,1.82,70.88,10.34c0,0,20.78,2.66,26.11,13.31l37.28,38.89s12.79,11.19,16,11.72,12.79,5.86,13.32,10.12c0,0,6.92,6.92,10.65,5.33,0,0,4.8,7.45,1.6,12.78a34.13,34.13,0,0,1-8.52,9.06S229,296,235.38,305.61,247.63,312,245,318.92l-6.39,6.39a13.5,13.5,0,0,1-6.4,2.14c-3.19,0-9.8,3.16-8.73,11.68l-33.74,33.56,2.84,3.2,32.85-33.2h9.94l38.89,41.72s7.28,8,15.09,7.11l.36-4.44s-5.86.35-9.77-3.38-5.32-5.15-5.32-5.15l4.26.54a42.27,42.27,0,0,0,16.33-.71c9.59-2.13,47.41-1.6,47.41-1.6s8.7.53,11.72-2.31c0,0-3.73,13.49-7.63,13.32v4.79l4.08-1.77s1.42.35,4.26-7.46l6.75-15.45,17.76-16s3.73-3,12.07-5.51c0,0,9.77-2,13.5-8.87l12.07-12.08s4.26-2.84,3.91-14.38,0-30.36,0-30.36,1.59-19,1.95-20.6-.36-4.62.53-8.35c0,0,.54-21.3-6.39-25.92l7.1-10.83s.89-3,4.26-.54,19.54,17.05,19.54,17.05a20.36,20.36,0,0,1,4.26,12.79c0,8,.71,17,.71,17v3.73l3.73-.18-.71-23.26s1.42-8.7-14.56-21.84c0,0-8.88-8.34-14-9.94l2.84-17.76s.18-2.13,4.26-5.68l7.64-8.52s3.37-7.64-1.6-11.9-26.46-27.17-26.46-27.17a8.41,8.41,0,0,0-11.72-.53c-6.57,5.15-27,25.39-27,25.39s-4.61,5.33-11.36-.71c0,0-1.24-3.2-10.3-3.37H337.44s-11.36-4.09-11.18-14l-.18-14.38s.71-8.17-8.52-8H301s-8,0-8,7.81v27.88l-16.51-.36s-6-3.73-7.28-6.75l-9.41-10.12s-10.48-10.12-23.44.89l2,3.2s9.59-8.35,16.16-3c0,0,10.12,8,11.72,11.54s2.49,5.15-.71,8.35l-4.62,4.79-21.48-20.6-.8.8,20.86,20.87-55.75,56.82s-1.24,1.59-5.33-3.38l-16.16-16.16-2.48-.17-.36-2.31-2.48-.89-10.84-11s-5.85-6.75-14.2-6.75l-21.49-5s-47.94-9.23-59.83-6.57c0,0-16.52,1.6-27.17,12.79L30.26,199.39l2.48,3.55Z"/><path class="c" d="M204.8,230.47l62.86-64.64s2.13-4.61,11.37-3.55c0,0,1.89-.12-4,10.54,0,0-7.57,11.83-5.44,22.49,0,0,15.39,18.46,27.7,27.22,0,0,22.49,16.81,24.38,19.89l-5.92,5.45s-.23,4.26-11.12-7.82l-14.68-14.67s-5.45-5.45-10.66,1.18l-14-13.26s-3.07-3.79-6.86-1l-14.68,14.21s-3.08,5.44,3.08,10.65c0,0,1.42-.23,1.18-2.84,0,0-5.68-3.08-.47-7.81l12.78-12.79s2.61-1.18,3.55-.23l13.26,14.68-26.51,27s-3.56,3.55-3.56,6.39l-4.49-.24s-5-2.6-5-4c0,0-7.34-9.24-11.83-9.24,0,0-8-3.78-10.42-6.63Z"/><path class="c" d="M255,256.83s-7.85,7.14-3.21,13.92c0,0,3.21,8.21-2.86,12.49l-10,9.28s-5.35,10,6.43,17.49c0,0,6.06,5,12.49-4.29l51-51.74s4.28-3.93-2.5-7.85l-18.2-18.2s-2.14-3.57-6.07,1.07Z"/><path class="c" d="M261.62,306.82l7.82,7.81,2.84-2.13-7.81-8.17,14.2-14.56s2.49-2.48,5,.71S302.46,310,302.46,310s3.2,2.13.71,4.62l-22,22a6.13,6.13,0,0,1-7.82,0l-18.11-18.11s-3.19-1.78.71-5.68Z"/><path class="c" d="M336.84,276.58a3.73,3.73,0,0,1-.28,5.26l-26.29,24.82a3.73,3.73,0,0,1-5.27,0l-18.77-19.88a3.72,3.72,0,0,1,.29-5.26l26.28-24.82a3.73,3.73,0,0,1,5.27,0Z"/><path class="c" d="M238.19,330.26v10.65l29.12,28.77s6,8.52,27.7,4.61c0,0,40.84-3.19,46.16-1.77s10.3,1.06,16-5.69l19.54-18.11s8.87-5.32,14.91-6.74c0,0,5.68-1.78,12.43-8.53s10.3-11,10.3-11,3.55-1.06,2.84-13.49c0,0,0-41.2,1.07-42.62s2.13-33-1.78-35.15c0,0-36.58,1.42-43.33-8.17s-10.65.71-13.14-18.82-1.42-6.4-1.42-6.4S356.09,190,343,187.14l-18.11-4.26s-7.11-1.78-9.24.71-5.32-1.78-5.32-1.78-3.91-4.26-5.69-1.06l-5,7.1,25.57,26.28,1.78,1.42a20.28,20.28,0,0,0,2.13,3.2c1.42,1.77,10.65,10.29-3.2,23.43l37.29,44.4s6,5.32.36,11.36c0,0-6.75,8.17-13.5,8.17s-11.36-1.78-17.4-7.1l-3.91-4.62-44.39,44.74s-6,6-14.2.36l-16-16.34s-3.91-4.26-8.17-1.06Z"/><path class="c" d="M317,250l6.4-5.68,38.71,44.74s5.32,3.55-2.85,10.3c0,0-8.52,8.52-18.82,2.13l-9.59-8.88,8.17-8.17s6.75-6-1.77-13.85Z"/><path class="c" d="M273.7,180.39s-5,11.37.35,17.05l20.25,19.89s7.81,5,9.58,7.1l19.54,16.33s15.62-9.23,2.84-21.66c0,0-31.61-35.16-35.52-35.51,0,0-6-7.1-9.94-3.2A18.25,18.25,0,0,1,273.7,180.39Z"/><path class="c" d="M282.58,162.64l-6.75,13.85s-2.13,4.61,4.26,1.06c0,0,7.81-.71,8.52,1.07s9.24,7.81,9.24,7.81l5.32-7.81s4.27-3.55,7.46.35,4.26,3.2,5.33,1.78,8.52-.36,8.52-.36l26.64,6.75s9.23,3.91,11,13.85.71,12.07,5.32,15.27c0,0,13.5,11.72,28.77,12.07l18.11.36s-1.78-5.68-5.68-6c0,0-12.08-10.3-18.47-21l-19.89-28.41s-7.81-11.72-19.17-9.94Z"/><circle class="c" cx="231.08" cy="334.87" r="3.2"/><path class="c" d="M297.14,136v-5s1.06-3.55,3.55-3.55H318.8s3.2-.36,3.2,2.13V136Z"/><rect class="c" x="297.31" y="139.37" width="24.86" height="5.86"/><path class="c" d="M297.31,148.79h25.4l.17,3.37a27.81,27.81,0,0,0,3.91,4.62c1.6,1.24-.71,2.48-1.78,2.66s-27.7,0-27.7,0Z"/><path class="c" d="M413.09,161.93l8.08-8.08s1.5-1.51,3.1.44l13.32,14s2.13,1.77,1.6,7.46l-7.64,7.28-19.17-17.94S410.78,163.35,413.09,161.93Z"/><path class="c" d="M428.71,186.07,409,166.9s-3.19-3,.18-6.93l10.3-10.3-8.88-9.41s-2.49-1.95-5.5,1.07l-26.64,25.21s-4.08,5.86-1.24,9.41,10.65,16.34,10.65,16.34,12.61,17.76,14,18.29A95.58,95.58,0,0,0,414,221.76s1.42,1.6,2.14-.88c0,0,12.6-18.65,9.94-28.06C426.05,192.82,426.05,188.38,428.71,186.07Z"/><path class="e" d="M353.6,233.19,348,227.74s-.53-.71.65-1.83l6-5.74a2.05,2.05,0,0,1,2.43.29l4.61,4.62-.53.65-4.62-4.32a1.16,1.16,0,0,0-1.65-.18c-1,.71-5.15,5.39-5.15,5.39s-.71.65-.06,1.12,4.67,4.5,4.67,4.5Z"/><path class="e" d="M328,207.15l-5.56-5.45s-.53-.71.65-1.84,6-5.74,6-5.74a2,2,0,0,1,2.43.3l4.61,4.62-.53.65L331,195.37a1.16,1.16,0,0,0-1.65-.18c-.95.71-5.15,5.38-5.15,5.38s-.71.66-.06,1.13,4.67,4.5,4.67,4.5Z"/><rect class="f" x="72.1" y="135.41" width="5.68" height="5.45"/><rect class="f" x="116.14" y="154.28" width="2.79" height="2.68"/><rect class="f" x="108.94" y="195.74" width="2.79" height="2.68"/><rect class="g" x="87.05" y="188.33" width="2.31" height="2.1"/><polygon class="f" points="90.39 188.52 89.8 188.52 89.8 188.33 88.65 188.33 88.65 187.79 87.05 187.79 87.05 190.31 88.2 190.31 88.2 191.1 89.8 191.1 89.8 189.32 90.39 189.32 90.39 188.52"/><rect class="f" x="110.34" y="158.52" width="4.02" height="5.45"/><rect class="f" x="73.52" y="160.86" width="1.42" height="4.93"/><rect class="f" x="79.11" y="175.75" width="1.42" height="4.93"/><rect class="f" x="82.67" y="175.75" width="0.89" height="4.26"/><rect class="f" x="79.11" y="160.86" width="1.42" height="4.26"/><rect class="f" x="72.1" y="146.77" width="8.29" height="7.58"/><rect class="f" x="287.31" y="152.69" width="2.49" height="2.72"/><rect class="f" x="343.72" y="169.6" width="6.45" height="10.39"/><rect class="f" x="394.86" y="172.68" width="4.79" height="3.06"/><rect class="f" x="401.64" y="172.68" width="4.79" height="3.06"/><rect class="f" x="407.32" y="195.44" width="2.3" height="1.8"/><rect class="f" x="415.66" y="185.95" width="3.25" height="4.17"/><rect class="f" x="415.66" y="191.86" width="3.25" height="4.17"/><rect class="f" x="355.97" y="153.39" width="6.45" height="4.24"/><rect class="f" x="439.07" y="247.9" width="6.45" height="4.18"/><rect class="f" x="445.34" y="291.94" width="7.39" height="11.99"/><rect class="f" x="439.19" y="309.98" width="11.89" height="6.03"/><rect class="f" x="454.34" y="321.77" width="4.55" height="4.18"/><rect class="f" x="439.4" y="269.85" width="3.84" height="3.62"/><rect class="f" x="393.11" y="232.8" width="2.39" height="2.64"/><rect class="f" x="410.06" y="141.72" width="2.96" height="3.37" transform="translate(-6.95 265.04) rotate(-35.42)"/><rect class="f" x="419.58" y="158.79" width="10.68" height="17.36" transform="translate(7.49 352.83) rotate(-45.45)"/><rect class="f" x="436.24" y="147.36" width="5.91" height="17.36" transform="translate(19.89 359.56) rotate(-45.45)"/><rect class="f" x="401.47" y="186.45" width="4.48" height="2.81" transform="translate(-13.36 343.83) rotate(-45.46)"/><rect class="f" x="389.47" y="239.48" width="1.95" height="3.47"/><polygon class="f" points="440.9 292.65 434.45 292.65 434.45 295.25 434.45 302.27 434.45 304.88 437.35 304.88 437.35 302.27 440.9 302.27 440.9 292.65"/><rect class="f" x="441.73" y="238.32" width="3.96" height="7.2"/><polygon class="f" points="288.97 128.07 288.97 135.17 290.63 135.17 290.63 128.07 287.9 128.07 287.9 128.07 288.97 128.07"/><polygon class="h" points="288.97 128.07 287.9 128.07 287.9 128.07 287.9 124.75 281.99 124.75 281.99 145.12 284.83 145.12 284.83 145.94 288.97 145.94 288.97 143.22 290.63 143.22 290.63 138.25 288.97 138.25 288.97 135.17 288.97 128.07"/><rect class="f" x="56.72" y="163.58" width="8.05" height="7.81"/><polygon class="f" points="263.1 297.14 270.29 290.68 267.48 287.55 268.5 286.71 266.38 284.11 265.24 285.05 263.24 282.82 256.66 288.73 255.19 287.08 248.52 293.07 250 294.71 248.56 296 250.45 298.11 248.9 299.37 250.61 301.48 252.27 300.13 254.37 302.47 256.3 300.74 257.45 302.02 260.29 299.47 257.66 296.55 260.38 294.11 263.1 297.14"/><polygon class="f" points="259.26 278.31 259.07 278.48 257.68 276.93 255.08 279.27 256.47 280.82 254.29 282.78 257.5 286.36 262.48 281.89 259.26 278.31"/><rect class="f" x="183.47" y="237.9" width="8.96" height="19.15" transform="translate(-117.24 188.9) rotate(-41.92)"/><rect class="f" x="173.15" y="248.19" width="2.73" height="5" transform="translate(-122.82 180.74) rotate(-41.92)"/><rect class="f" x="268.55" y="278.26" width="2.73" height="5" transform="translate(-118.5 252.18) rotate(-41.92)"/><rect class="f" x="239.5" y="328.68" width="3.97" height="1.81" transform="translate(-158.39 245.68) rotate(-41.92)"/><rect class="f" x="272.46" y="282.16" width="2.73" height="5" transform="translate(-120.11 255.78) rotate(-41.92)"/><rect class="f" x="275" y="280.18" width="2.28" height="5" transform="translate(-118.19 256.83) rotate(-41.92)"/><rect class="f" x="272.26" y="274.21" width="2.28" height="5" transform="translate(-8.19 545.08) rotate(-88.97)"/><rect class="f" x="276.71" y="278.07" width="5" height="2.28" transform="translate(-113.41 237.16) rotate(-38.89)"/><rect class="f" x="176.23" y="245.11" width="2.73" height="5" transform="translate(-119.98 182.01) rotate(-41.92)"/><rect class="f" x="305.84" y="262.89" width="2.73" height="5" transform="translate(-98.69 273.16) rotate(-41.92)"/><rect class="f" x="325.02" y="279.94" width="2.73" height="5" transform="translate(-105.17 290.33) rotate(-41.92)"/><rect class="f" x="316.73" y="259.1" width="2.73" height="5" transform="translate(-93.37 279.46) rotate(-41.92)"/><rect class="f" x="320.76" y="263.6" width="2.73" height="5" transform="translate(-95.34 283.31) rotate(-41.92)"/><rect class="f" x="313.18" y="264.31" width="2.73" height="5" transform="translate(-97.76 278.42) rotate(-41.92)"/><rect class="f" x="223.89" y="179.02" width="7.07" height="2.31" transform="translate(-61.93 201.61) rotate(-42.63)"/><rect class="f" x="232.21" y="171.36" width="7.07" height="2.31" transform="translate(-54.54 205.23) rotate(-42.63)"/><rect class="f" x="240.4" y="163.83" width="7.07" height="2.31" transform="translate(-47.28 208.78) rotate(-42.63)"/><rect class="f" x="194.97" y="208.26" width="7.81" height="2.65" transform="translate(-89.12 186.5) rotate(-41.92)"/><rect class="f" x="202.66" y="200.56" width="7.81" height="2.65" transform="translate(-82.01 189.67) rotate(-41.92)"/><rect class="f" x="211.07" y="192.16" width="7.81" height="2.65" transform="translate(-74.25 193.14) rotate(-41.92)"/><rect class="f" x="70.21" y="192.11" width="9.47" height="5.45" transform="translate(-128.97 150.17) rotate(-56.61)"/><rect class="f" x="97.53" y="209.54" width="5.21" height="4.37" transform="translate(-131.74 178.8) rotate(-56.61)"/><rect class="f" x="156.57" y="261.15" width="4.54" height="4.37" transform="translate(-137.24 180.19) rotate(-43.22)"/><polygon class="f" points="183.32 265.9 170.66 251.81 164 257.79 175.63 270.75 174.23 271.93 177.03 275.28 179.58 273.14 177.72 270.92 183.32 265.9"/><rect class="f" x="176.14" y="280.71" width="4.54" height="4.37" transform="translate(-145.33 198.93) rotate(-43.22)"/><rect class="f" x="209.65" y="248.16" width="4.54" height="4.37" transform="translate(-113.95 213.04) rotate(-43.22)"/><rect class="f" x="342.55" y="281.9" width="4.54" height="4.37" transform="translate(-101.01 313.15) rotate(-43.21)"/><rect class="f" x="399.37" y="361.8" width="4.54" height="4.37" transform="translate(-140.31 373.72) rotate(-43.21)"/><rect class="f" x="389.66" y="368.55" width="4.54" height="4.37" transform="translate(-147.56 368.9) rotate(-43.21)"/><rect class="f" x="367.88" y="293.5" width="4.54" height="4.37" transform="translate(-102.08 333.64) rotate(-43.21)"/><rect class="f" x="382.81" y="270.45" width="4.03" height="5.61" transform="translate(-82.74 337.63) rotate(-43.22)"/><rect class="f" x="380.62" y="211.67" width="3.02" height="3.59" transform="translate(-42.53 319.57) rotate(-43.22)"/><rect class="f" x="380.58" y="217.93" width="2.36" height="5.68" transform="translate(-47.62 321.33) rotate(-43.22)"/><rect class="f" x="375.14" y="212.72" width="2.36" height="5.68" transform="translate(-45.53 316.18) rotate(-43.22)"/><rect class="f" x="371.36" y="209.46" width="2.36" height="3.48" transform="translate(-43.58 312.39) rotate(-43.22)"/><rect class="f" x="368.39" y="206.93" width="2.36" height="2.56" transform="translate(-42.33 309.57) rotate(-43.22)"/><rect class="f" x="365.55" y="262.12" width="4.03" height="2.27" transform="translate(-80.58 323.07) rotate(-43.21)"/><rect class="f" x="355.5" y="253.51" width="4.03" height="4.91" transform="translate(-78.3 314.24) rotate(-43.22)"/><rect class="f" x="333.86" y="291.88" width="3.53" height="3.4" transform="translate(-110 309.45) rotate(-43.22)"/><rect class="f" x="307.38" y="317.57" width="2.69" height="3.56" transform="translate(-134.94 297.99) rotate(-43.21)"/><rect class="f" x="289.79" y="330.84" width="6.97" height="4.07" transform="translate(-148.39 291.08) rotate(-43.21)"/><polygon class="f" points="316.2 340.8 315.25 340.32 315.25 338.19 310.67 333.36 312.14 331.98 309.35 329.01 307.87 330.4 307.85 330.38 301.93 335.95 301.95 335.97 301.76 336.14 304.55 339.11 304.74 338.93 311.04 345.64 316.2 340.8"/><rect class="f" x="185.7" y="268.97" width="21.24" height="5.04" transform="translate(-134.6 219.13) rotate(-45.14)"/><rect class="f" x="297.05" y="271.82" width="15.72" height="10.23" transform="translate(-106.47 297.71) rotate(-45.14)"/><polygon class="f" points="358.29 334.16 358.26 334.19 352.69 328.64 347.08 334.26 352.66 339.81 340.12 352.42 347.37 359.63 365.54 341.38 358.29 334.16"/><polygon class="f" points="296.42 284.22 291.78 279.6 290.72 280.67 290.72 280.67 286.95 284.45 289.1 286.59 290.16 285.53 292.65 288.01 296.42 284.22"/><rect class="f" x="325.28" y="269.51" width="6.51" height="10.23" transform="translate(-97.87 313.77) rotate(-45.14)"/><rect class="f" x="315.95" y="268.28" width="4.5" height="2.53" transform="translate(-97.32 304.95) rotate(-45.14)"/><rect class="f" x="311.84" y="258.86" width="4.5" height="1.78" transform="translate(-91.59 299.15) rotate(-45.14)"/><rect class="f" x="104.69" y="188.93" width="3.95" height="4.37" transform="translate(-99.88 263.5) rotate(-80.15)"/><circle class="f" cx="85.48" cy="138.84" r="2.72"/><circle class="f" cx="301.22" cy="152.34" r="2.37"/><circle class="f" cx="309.03" cy="152.34" r="2.37"/><circle class="f" cx="316.85" cy="152.34" r="2.37"/><circle class="f" cx="301.22" cy="142.39" r="2.37"/><circle class="f" cx="309.03" cy="142.39" r="2.37"/><circle class="f" cx="316.85" cy="142.39" r="2.37"/><circle class="f" cx="301.22" cy="132.45" r="2.37"/><circle class="f" cx="303.35" cy="115.4" r="2.01"/><circle class="f" cx="297.67" cy="115.4" r="2.01"/><circle class="f" cx="309.92" cy="115.4" r="2.01"/><circle class="f" cx="309.03" cy="132.45" r="2.37"/><circle class="f" cx="316.85" cy="132.45" r="2.37"/><path class="f" d="M87.28,180.67a1.73,1.73,0,0,0-1.39-.66,1.58,1.58,0,0,0-1.66,1.49,1.42,1.42,0,0,0,.42,1v2.23H89.1v-4.05Z"/><ellipse class="f" cx="94.67" cy="184.18" rx="0.6" ry="0.54"/><circle class="f" cx="92.54" cy="154.19" r="4.34"/><circle class="f" cx="92.54" cy="165.79" r="4.34"/><path class="f" d="M191.85,195.51l-1,.88a2.43,2.43,0,0,0-1.47-.49,2.46,2.46,0,0,0-2.46,2.46,2.49,2.49,0,0,0,.34,1.25L186,200.72l8.68,9.67,5.82-5.22Z"/><path class="f" d="M199.45,188.1l-.83.75a2.44,2.44,0,0,0-1.59-.59,2.46,2.46,0,0,0-2,3.85l-1.36,1.21,8.68,9.67,5.82-5.22Z"/><path class="f" d="M208,179.58l-.83.75a2.42,2.42,0,0,0-1.59-.59,2.46,2.46,0,0,0-2.46,2.46,2.4,2.4,0,0,0,.42,1.38l-1.35,1.22,8.67,9.66,5.82-5.22Z"/><path class="f" d="M220.55,167.18l-.88.81a2.43,2.43,0,0,0-1.69-.68,2.46,2.46,0,0,0-2.46,2.46,2.42,2.42,0,0,0,.54,1.54l-.71.66,8.27,9,5.2-4.79Z"/><path class="f" d="M228.87,159.52l-.9.83a2.46,2.46,0,0,0-4.46,1.43,2.45,2.45,0,0,0,.86,1.88l-.7.65,8.27,9,5.2-4.79Z"/><path class="f" d="M237.06,152l-1,.95a2.46,2.46,0,1,0-3.45,3.17l-.72.67,8.28,9,5.2-4.79Z"/><polygon class="f" points="73.52 167.49 74.94 167.49 74.94 172.22 72.1 172.22 72.1 171.4 73.52 171.4 73.52 167.49"/><polygon class="f" points="79.11 167.02 80.39 167.02 80.39 170.12 84.65 170.12 84.65 171.4 79.11 171.4 79.11 167.02"/><path class="i" d="M105.49,211.72l1.06.75L95.19,227,71.63,208.34a4.21,4.21,0,0,0-2.49,0s-1.77.66-2.84-.15-1.42-.69-1.42-.69v-.95s2.19-.71,3,0l-.06.6h2.67a5.51,5.51,0,0,1,3.61,1.95L94.6,225.2Z"/><rect class="f" x="189.93" y="182.34" width="2.41" height="2.11" transform="translate(-73.36 168.85) rotate(-40.67)"/><rect class="f" x="216.39" y="155.73" width="2.41" height="2.11" transform="translate(-49.62 179.67) rotate(-40.67)"/><rect class="f" x="234.32" y="200.3" width="2.41" height="2.11" transform="translate(-16.08 20.5) rotate(-4.82)"/><rect class="f" x="205.61" y="255.58" width="2.41" height="2.11" transform="translate(-20.83 18.28) rotate(-4.82)"/><rect class="f" x="263.62" y="206.58" width="2.41" height="2.11" transform="translate(-16.5 22.98) rotate(-4.82)"/><rect class="f" x="231.2" y="143.22" width="4.45" height="2.11" transform="translate(-37.65 186.97) rotate(-40.67)"/><rect class="f" x="176.52" y="196.94" width="4.15" height="2.12" transform="translate(-85.9 164.21) rotate(-40.67)"/><rect class="f" x="206.17" y="227.13" width="4.15" height="2.12" transform="translate(-98.41 190.82) rotate(-40.67)"/><rect class="f" x="258.36" y="173.86" width="4.15" height="2.12" transform="translate(-51.09 211.99) rotate(-40.67)"/><rect class="f" x="314.94" y="242.16" width="4.15" height="2.12" transform="translate(-81.94 265.36) rotate(-40.67)"/><rect class="f" x="228.76" y="258.02" width="4.15" height="2.12" transform="translate(-113.09 213.03) rotate(-40.67)"/><rect class="f" x="259.19" y="217.86" width="6.64" height="4.26" transform="translate(-77.49 261.28) rotate(-46.89)"/><rect class="f" x="262.98" y="221.65" width="6.64" height="4.26" transform="translate(-79.06 265.24) rotate(-46.89)"/><rect class="f" x="267" y="225.67" width="6.64" height="4.26" transform="translate(-80.72 269.46) rotate(-46.89)"/><rect class="f" x="267.59" y="209.45" width="6.64" height="4.26" transform="translate(-68.7 264.75) rotate(-46.89)"/><rect class="f" x="272.33" y="213.95" width="6.64" height="4.26" transform="translate(-70.48 269.63) rotate(-46.89)"/><rect class="f" x="277.06" y="219.16" width="6.64" height="4.26" transform="translate(-72.79 274.74) rotate(-46.89)"/><rect class="f" x="286.84" y="229.37" width="3.45" height="6.96" transform="translate(-78.63 284.38) rotate(-46.89)"/><rect class="f" x="289.32" y="392.76" width="9.59" height="6.04"/><polygon class="f" points="307.55 401.4 299.03 401.4 299.03 403.89 299.03 408.38 299.03 410.87 304.71 410.87 304.71 408.38 307.55 408.38 307.55 401.4"/><rect class="f" x="308.86" y="392.76" width="8.17" height="4.97"/><rect class="f" x="319.16" y="392.76" width="8.17" height="4.97"/><rect class="f" x="335.31" y="378.13" width="6.75" height="4.04"/><rect class="f" x="314.24" y="367.71" width="6.75" height="4.04"/><rect class="f" x="337.09" y="396.42" width="5.68" height="4.04"/><polygon class="f" points="279.97 190.57 281.63 188.68 283.05 190.81 284.23 190.81 284.23 189.39 286.37 190.57 287.55 191.05 287.55 192.23 286.37 192.23 286.6 194.36 287.07 195.54 288.5 195.31 288.73 196.97 290.39 196.73 290.63 198.62 292.28 198.38 292.52 200.04 293.94 200.28 295.13 203.59 297.49 204.54 298.44 206.91 300.1 206.91 301.75 208.33 301.75 209.51 303.17 209.51 303.17 211.17 304.6 210.93 305.54 213.06 306.73 213.06 306.73 215.19 308.15 215.19 308.15 216.14 309.09 216.38 309.33 218.04 311.7 218.27 311.7 219.69 313.12 219.69 313.83 221.35 315.25 221.35 315.25 223.01 317.14 223.01 317.14 224.9 318.33 224.9 318.09 223.96 320.46 223.96 320.69 225.85 321.88 225.85 321.88 227.27 320.46 227.03 320.46 228.93 321.64 230.11 323.06 229.87 324.48 231.06 324.48 232.48 323.06 233.66 314.77 225.85 315.01 223.96 313.59 223.48 313 221.94 310.75 221.82 302.94 214.25 302.7 211.88 301.63 211.53 301.4 210.22 299.5 210.58 292.05 203.12 291.93 200.75 290.86 200.52 290.15 199.21 287.9 198.98 279.97 190.57"/><polygon class="f" points="387.34 295.33 386.87 293.68 388.29 294.15 388.29 292.02 386.63 290.13 385.21 290.13 385.21 292.02 383.79 291.78 380.32 287.38 372.98 279.8 372.98 277.91 371.09 277.91 371.09 276.25 369.67 276.25 368.96 274.59 367.54 274.59 362.57 270.09 362.24 268.82 357.6 264.41 356.21 265.15 358.93 267.87 358.78 269.15 366.59 276.72 368.84 276.84 369.43 278.38 370.85 278.85 370.62 280.75 377.16 287.4 377.51 288.94 378.94 288.94 379.65 288.23 381.66 290.84 380.47 291.55 389.59 299.95 391.37 298.18 387.34 295.33"/><polygon class="f" points="342.95 250.71 341.53 249.29 341.53 247.87 343.42 246.21 341.53 246.21 341.06 244.08 338.69 245.97 337.27 244.31 335.61 245.97 356.21 265.15 357.6 264.41 342.95 250.71"/><circle class="f" cx="260.38" cy="359.38" r="2.37"/><circle class="f" cx="386.98" cy="312.68" r="1.36"/><circle class="f" cx="389.53" cy="310.13" r="1.36"/><circle class="f" cx="402.85" cy="316.35" r="1.36"/><circle class="f" cx="421.31" cy="224.43" r="1.36"/><circle class="f" cx="251.03" cy="118.72" r="2.37"/><path class="i" d="M328,207.12l-5.15-5.06a1.25,1.25,0,0,1-.08-1.87c.88-1.15,5.85-5.77,5.85-5.77a1.94,1.94,0,0,1,2.49-.27c1.24,1,5,4.89,5,4.89l-.62.71L331,195.4s-1-.89-1.68-.18l-4.89,5.24s-1,.71-.09,1.33l4.49,4.48Z"/><path class="i" d="M353.78,232.86l-5.15-5.06a1.23,1.23,0,0,1-.09-1.86c.89-1.16,5.86-5.77,5.86-5.77a1.92,1.92,0,0,1,2.49-.27c1.24,1,5,4.88,5,4.88l-.62.71-4.53-4.35s-1-.88-1.69-.17l-4.88,5.23s-1,.71-.09,1.34l4.48,4.48Z"/><path class="i" d="M332.65,210.13l-1,.71,9.68,9.5-1.15.89.53.8,9.32-8.52L339.4,202.68l-1.07.88,9,8.88s1.24.8.09,1.51l-5,4.44s-.89,1.24-2.22-.35Z"/><path class="i" d="M358,235.7l-1,.71,9.68,9.5-1.15.89.53.8,9.32-8.52-10.65-10.83-1.07.88,9,8.88s1.24.8.09,1.51l-5,4.44s-.89,1.24-2.22-.35Z"/><path class="i" d="M367.63,246.45s-.89,1.59,2.13,1.24a17.17,17.17,0,0,0,6.22,1.06s4.79,2.85,5.86,4.8l-1.07.71s-4.26-5.15-6-4.26l-5.5-.71s-3.2-.36-3.11-1.69S367.63,246.45,367.63,246.45Z"/><path class="i" d="M389.29,250l.36-2.13-7.1-12.79s-2.49-4.26-6.75-4.44c0,0-4.8-1.24-6.75-4.08l1.07-.71a16.74,16.74,0,0,0,8.87,4.08s3.73,2,4.62,4.26l5.86,10.66h3.2l.71,3.19s-3.38-.17-2.84-.17.17,2.66.17,2.66Z"/><rect class="i" x="428.79" y="200.33" width="4.47" height="4.17"/><polygon class="i" points="450.73 159.17 450.46 159.17 450.59 159.04 426.02 134.81 426.05 134.77 425.24 133.96 417.17 142.04 417.99 142.86 425.39 135.44 449.58 159.29 449.58 185.14 436.25 198.5 404.95 198.5 384.14 176.71 391.56 169.26 390.74 168.45 382.68 176.53 382.73 176.58 382.71 176.6 404.65 199.58 404.65 199.66 436.7 199.66 436.71 199.67 436.73 199.66 436.76 199.66 436.76 199.63 450.68 185.67 450.55 185.54 450.73 185.54 450.73 159.17"/><rect class="i" x="391.34" y="167.02" width="2.26" height="1.15" transform="translate(-3.32 327.19) rotate(-45.09)"/><rect class="i" x="393.51" y="164.85" width="2.26" height="1.15" transform="translate(-1.14 328.09) rotate(-45.09)"/><rect class="i" x="395.55" y="162.8" width="2.26" height="1.15" transform="translate(0.9 328.94) rotate(-45.09)"/><rect class="i" x="397.46" y="160.9" width="2.26" height="1.15" transform="translate(2.82 329.73) rotate(-45.09)"/><rect class="i" x="399.55" y="158.81" width="2.26" height="1.15" transform="translate(4.91 330.59) rotate(-45.09)"/><rect class="i" x="401.46" y="156.9" width="2.26" height="1.15" transform="translate(6.82 331.38) rotate(-45.09)"/><rect class="i" x="403.46" y="154.9" width="2.26" height="1.15" transform="translate(8.82 332.21) rotate(-45.09)"/><rect class="i" x="405.36" y="152.99" width="2.26" height="1.15" transform="translate(10.73 333) rotate(-45.09)"/><rect class="i" x="407.32" y="151.04" width="2.26" height="1.15" transform="translate(12.69 333.81) rotate(-45.09)"/><rect class="i" x="409.32" y="149.04" width="2.26" height="1.15" transform="translate(14.69 334.64) rotate(-45.09)"/><rect class="i" x="411.27" y="147.09" width="2.26" height="1.15" transform="translate(16.65 335.45) rotate(-45.09)"/><rect class="i" x="413.45" y="145.12" width="1.84" height="1.15" transform="translate(18.63 336.26) rotate(-45.09)"/><polygon class="i" points="321.29 380.25 306.73 380.25 306.73 380.66 306.67 380.59 301.19 385.39 289 385.39 289 386.55 301.32 386.55 301.45 386.7 307.43 381.46 307.37 381.4 321.29 381.4 321.29 380.25"/><rect class="i" x="249.03" y="143" width="1.15" height="29.63" transform="translate(-37.92 225.16) rotate(-45.49)"/><polygon class="i" points="314.24 247.83 264.97 199.39 265.78 198.56 315.05 247.01 314.24 247.83"/><rect class="i" x="252.47" y="323.41" width="1.15" height="17.99" transform="translate(-161.39 279.8) rotate(-45.49)"/><polygon class="i" points="236.03 251.65 212.75 228.76 213.56 227.94 236.83 250.83 236.03 251.65"/><rect class="i" x="230.12" y="322.75" width="1.15" height="4.86" transform="translate(-162.92 261.71) rotate(-45.49)"/><rect class="i" x="239.35" y="331.98" width="1.15" height="4.86" transform="translate(-166.75 271.05) rotate(-45.49)"/><polygon class="i" points="266.16 175.3 266.97 174.48 263 170.57 262.19 171.39 265.34 174.49 252.85 187.19 252.88 187.21 252.84 187.25 262.61 196.86 263.41 196.03 254.44 187.21 266.16 175.3 266.16 175.3"/><rect class="i" x="207.01" y="230.92" width="5.62" height="1.15" transform="translate(-102.35 218.81) rotate(-45.49)"/><rect class="i" x="234.18" y="250.82" width="2.61" height="1.15" transform="translate(-108.87 243.07) rotate(-45.49)"/><polygon class="i" points="179.74 192.52 201.67 170.22 200.85 169.41 179.04 191.59 178.8 191.53 177.88 195.19 174.14 199 174.96 199.81 178.7 196 178.86 196.04 179.74 192.52"/><polygon class="i" points="231.26 143.5 233.81 140.91 232.99 140.1 230.73 142.4 227.62 142.68 227.6 142.66 227.58 142.68 227.35 142.7 227.37 142.89 204.62 166.03 205.44 166.84 228.1 143.79 231.02 143.53 231.13 143.64 231.26 143.51 231.26 143.51 231.26 143.5"/><polygon class="i" points="220.25 298.87 229.07 289.9 229.06 289.89 229.07 289.88 224.94 285.82 236.02 274.56 236.13 274.66 236.94 273.83 224.82 261.92 230.86 255.78 230.04 254.97 223.2 261.92 223.3 262.01 223.28 262.03 235.2 273.75 223.32 285.83 223.35 285.85 223.34 285.86 227.45 289.9 218.67 298.83 218.75 298.91 218.7 298.97 241.48 321.37 242.29 320.55 220.25 298.87"/><polygon class="i" points="351.77 283.97 317.1 249.88 316.29 250.7 350.17 284.01 336.56 297.85 337.39 298.66 351.65 284.15 351.63 284.12 351.77 283.97"/><polygon class="i" points="410.24 305.14 406.88 301.84 406.94 301.78 406.12 300.97 398.72 308.5 399.54 309.31 406.07 302.66 409.43 305.96 410.24 305.14"/><polygon class="i" points="407.29 322.74 406.47 321.93 399.8 328.71 394.72 323.7 393.91 324.53 399.72 330.24 399.8 330.16 399.89 330.26 407.29 322.74"/><polygon class="i" points="387.49 316.46 391.03 312.86 390.21 312.05 385.93 316.4 385.95 316.42 385.87 316.49 391.68 322.2 392.49 321.38 387.49 316.46"/><polygon class="i" points="384.07 313.04 385.41 311.68 384.59 310.87 382.51 312.98 382.57 313.04 382.5 313.12 384.95 315.53 385.76 314.71 384.07 313.04"/><polygon class="i" points="392.11 308.36 390.39 306.67 390.41 306.66 389.59 305.85 386.06 309.43 386.89 310.24 389.58 307.5 391.3 309.18 392.11 308.36"/><polygon class="i" points="416.77 311.63 416.75 311.65 412.57 307.54 411.76 308.36 415.94 312.47 409.37 319.15 410.19 319.96 417.59 312.44 416.77 311.63"/><polygon class="i" points="216.38 259.39 207.7 250.85 206.89 251.67 214.71 259.36 183.37 291.23 154.02 262.38 185.54 230.31 204.08 248.53 204.88 247.71 185.62 228.77 185.62 228.78 185.53 228.69 153.2 261.57 153.19 261.56 152.38 262.38 182.56 292.06 182.54 292.07 183.36 292.88 215.53 260.17 215.57 260.21 216.38 259.39"/><rect class="i" x="427" y="288.3" width="1.15" height="16.92"/><rect class="i" x="427" y="286.75" width="1.15" height="0.01"/><rect class="i" x="427" y="309.48" width="1.15" height="9.06"/><rect class="i" x="427" y="322.09" width="1.15" height="4.76"/><polygon class="i" points="428.16 288.3 445.77 288.3 445.77 286.76 445.76 286.76 445.76 286.39 449.1 286.39 449.1 285.07 445.76 285.07 445.76 285.07 444.51 285.07 444.51 285.07 444.51 286.39 444.51 286.76 442.43 286.76 442.43 276.99 441.27 276.99 441.27 286.76 428.16 286.76 427 286.76 426.98 286.76 426.98 288.3 427 288.3 428.16 288.3"/><polygon class="i" points="462.34 261.5 462.34 261.5 457.03 261.5 457.03 262.64 462.34 262.64 462.34 286.76 455.35 286.76 455.35 286.35 455.36 286.35 455.36 285.07 455.35 285.07 455.35 285.07 453.93 285.07 453.93 285.07 451.4 285.07 451.4 286.35 453.93 286.35 453.93 286.76 453.93 288.17 453.93 288.3 462.34 288.3 462.34 326.84 428.16 326.84 427 326.84 427 326.84 427 327.99 463.48 327.99 463.48 327.59 463.49 327.59 463.49 261.5 462.34 261.5"/><polygon class="i" points="442.43 262.64 452.92 262.64 452.92 261.5 441.32 261.5 441.32 261.54 441.27 261.54 441.27 267.4 442.43 267.4 442.43 262.64"/><polygon class="i" points="447.76 253.95 447.76 235.79 446.6 235.79 446.6 253.95 436.39 253.95 436.39 235.79 435.24 235.79 435.24 253.95 435.19 253.95 435.19 255.54 447.77 255.54 447.77 253.95 447.76 253.95"/><polygon class="i" points="346.5 385.48 346.5 385.28 330.56 385.28 330.58 380.14 330.28 380.14 330.28 380.07 324.36 380.07 324.36 381.22 329.42 381.22 329.4 386.38 329.43 386.38 329.43 386.43 345.56 386.43 345.56 388.69 346.71 388.69 346.72 385.48 346.5 385.48"/><polygon class="i" points="346.38 402.2 346.37 402.2 346.37 392.57 345.21 392.57 345.21 402.2 328.48 402.2 328.48 403.36 328.52 403.36 328.52 407.41 310.13 407.41 310.13 407.5 310.06 407.5 310.06 414.28 295.34 414.28 289.78 408.81 288.97 409.64 294.81 415.38 294.81 415.43 294.87 415.43 294.98 415.54 295.08 415.43 311.29 415.43 311.29 414.28 311.21 414.28 311.21 408.57 329.69 408.57 329.69 407.41 329.68 407.41 329.68 403.36 345.21 403.36 345.21 403.43 346.37 403.43 346.37 403.36 346.38 403.36 346.38 402.2"/><rect class="i" x="285.5" y="403.46" width="7.88" height="1.15" transform="translate(-115.55 692.13) rotate(-89.81)"/><polygon class="i" points="346.21 110.35 346.21 110.38 327.83 110.38 327.83 103.95 327.86 103.95 327.86 102.8 327.83 102.8 327.83 102.77 326.68 102.77 326.68 102.8 276.16 102.8 276.16 102.8 275.01 102.8 275.01 151.81 275.38 151.81 275.33 151.86 280.48 156.93 280.48 157.22 280.79 157.22 280.95 157.39 281.12 157.22 293.06 157.22 293.06 156.07 281.26 156.07 276.16 151.06 276.16 103.95 326.68 103.95 326.68 111.62 327.83 111.62 327.83 111.53 346.21 111.53 346.21 115.76 347.37 115.76 347.37 110.35 346.21 110.35"/><rect class="i" x="346.21" y="117.21" width="1.15" height="8.73"/><polygon class="i" points="346.21 132.16 332.57 132.16 332.57 132.25 332 132.25 332 148.74 328.11 152.5 328.91 153.33 333.13 149.26 333.16 149.26 333.16 149.23 333.17 149.23 333.16 149.22 333.16 133.31 347.28 133.31 347.28 133.28 347.37 133.28 347.37 127.28 346.21 127.28 346.21 132.16"/><polygon class="i" points="377.6 341.49 378.41 340.66 356.27 318.89 356.31 318.85 355.49 318.04 349.84 323.78 336.81 310.98 338.21 309.55 338.2 309.54 338.44 309.31 332.55 303.52 334.07 301.97 333.25 301.17 331 303.46 331.08 303.54 331.01 303.62 336.81 309.33 335.99 310.17 335.96 310.13 335.15 310.96 335.18 310.99 335.14 311.03 335.96 311.84 336 311.8 349.9 325.46 350.7 324.63 350.66 324.59 355.46 319.71 376.7 340.6 347.68 370.12 343.9 370.12 324.39 350.94 324.43 350.9 323.61 350.09 310.9 363.02 311.72 363.83 323.59 351.76 343.3 371.15 343.3 371.19 348.28 371.19 348.28 371.16 377.53 341.41 377.6 341.49"/><polygon class="i" points="288.97 345.57 288.98 345.58 278.19 356.56 262.06 340.71 261.25 341.53 278.14 358.13 278.19 358.09 278.25 358.14 289.8 346.39 308.59 364.87 309.4 364.05 289.78 344.75 288.97 345.57"/><rect class="j" x="328.01" y="201.12" width="3.95" height="3.95" transform="translate(-50.79 274.86) rotate(-42.28)"/><rect class="j" x="333.92" y="207.04" width="3.95" height="3.95" transform="translate(-53.23 280.38) rotate(-42.28)"/><rect class="j" x="337.83" y="211.18" width="3.95" height="3.95" transform="translate(-55 284.09) rotate(-42.28)"/><rect class="j" x="353.81" y="226.57" width="3.95" height="3.95" transform="translate(-61.2 298.84) rotate(-42.28)"/><rect class="j" x="359.73" y="232.49" width="3.95" height="3.95" transform="translate(-63.64 304.36) rotate(-42.28)"/><rect class="j" x="363.64" y="236.63" width="3.95" height="3.95" transform="translate(-65.41 308.07) rotate(-42.28)"/><path class="f" d="M264.11,304.33l5.06,5.15v1.07l1.24,1.51,1.25-.18,1.42,1.33,4.44-4.26,1,.53v.62h1.42v-.8l4.53-4.08.09-1-1.78-2-1.42-.09-1,1.25-5.42-5.24a2,2,0,0,0-1.51,0l-3.19,3.46-1.07-.89s-.35-.53-1.33,0Z"/></svg>