<svg width="38" height="38" viewBox="0 0 38 38" fill="none" xmlns="http://www.w3.org/2000/svg">
<mask id="path-1-outside-1_709_2" maskUnits="userSpaceOnUse" x="0.707083" y="1.54945" width="35.5176" height="35.5176" fill="black">
<rect fill="white" x="0.707083" y="1.54945" width="35.5176" height="35.5176"/>
<path fill-rule="evenodd" clip-rule="evenodd" d="M12.6705 24.0625C12.5198 26.8581 13.5269 29.5476 15.3553 31.5483C10.3284 29.7874 7.43405 24.4191 8.83523 19.1898C9.58719 16.3835 11.4306 14.161 13.7864 12.8568C13.8361 12.794 13.8864 12.7319 13.9375 12.6705C11.1419 12.5198 8.45241 13.5269 6.45174 15.3554C8.21266 10.3284 13.5809 7.43402 18.8102 8.8352C21.6168 9.58723 23.8394 11.4309 25.1436 13.7869C25.2061 13.8365 25.268 13.8867 25.3293 13.9375C25.48 11.1419 24.4729 8.4524 22.6445 6.4517C27.6714 8.21264 30.5657 13.5809 29.1646 18.8102C28.4126 21.6165 26.5692 23.839 24.2134 25.1432C24.1637 25.206 24.1134 25.2681 24.0623 25.3295C26.8579 25.4802 29.5473 24.4732 31.548 22.6448C29.7871 27.6717 24.4188 30.566 19.1896 29.1648C16.383 28.4128 14.1604 26.5691 12.8562 24.2131C12.7937 24.1636 12.7318 24.1134 12.6705 24.0625ZM18.2707 23.1612C20.1906 22.5285 21.9015 21.3378 23.1612 19.7287C22.5285 17.8091 21.3379 16.0984 19.7291 14.8388C17.8092 15.4715 16.0984 16.6622 14.8387 18.2712C15.4713 20.1909 16.6619 21.9016 18.2707 23.1612Z"/>
</mask>
<path fill-rule="evenodd" clip-rule="evenodd" d="M12.6705 24.0625C12.5198 26.8581 13.5269 29.5476 15.3553 31.5483C10.3284 29.7874 7.43405 24.4191 8.83523 19.1898C9.58719 16.3835 11.4306 14.161 13.7864 12.8568C13.8361 12.794 13.8864 12.7319 13.9375 12.6705C11.1419 12.5198 8.45241 13.5269 6.45174 15.3554C8.21266 10.3284 13.5809 7.43402 18.8102 8.8352C21.6168 9.58723 23.8394 11.4309 25.1436 13.7869C25.2061 13.8365 25.268 13.8867 25.3293 13.9375C25.48 11.1419 24.4729 8.4524 22.6445 6.4517C27.6714 8.21264 30.5657 13.5809 29.1646 18.8102C28.4126 21.6165 26.5692 23.839 24.2134 25.1432C24.1637 25.206 24.1134 25.2681 24.0623 25.3295C26.8579 25.4802 29.5473 24.4732 31.548 22.6448C29.7871 27.6717 24.4188 30.566 19.1896 29.1648C16.383 28.4128 14.1604 26.5691 12.8562 24.2131C12.7937 24.1636 12.7318 24.1134 12.6705 24.0625ZM18.2707 23.1612C20.1906 22.5285 21.9015 21.3378 23.1612 19.7287C22.5285 17.8091 21.3379 16.0984 19.7291 14.8388C17.8092 15.4715 16.0984 16.6622 14.8387 18.2712C15.4713 20.1909 16.6619 21.9016 18.2707 23.1612Z" fill="#421E6B"/>
<path d="M15.3553 31.5483L15.872 31.0761L17.7473 33.1279L15.1239 32.2089L15.3553 31.5483ZM12.6705 24.0625L11.9715 24.0248L12.0465 22.6341L13.1178 23.524L12.6705 24.0625ZM13.7864 12.8568L14.3352 13.2913L14.2481 13.4013L14.1254 13.4692L13.7864 12.8568ZM13.9375 12.6705L13.9752 11.9715L15.366 12.0465L14.4759 13.1178L13.9375 12.6705ZM6.45174 15.3554L6.92398 15.8721L4.87214 17.7473L5.7911 15.1239L6.45174 15.3554ZM18.8102 8.8352L18.9914 8.15905L18.9914 8.15905L18.8102 8.8352ZM25.1436 13.7869L24.709 14.3357L24.5991 14.2486L24.5312 14.1259L25.1436 13.7869ZM25.3293 13.9375L26.0283 13.9752L25.9533 15.3659L24.882 14.476L25.3293 13.9375ZM22.6445 6.4517L22.1277 6.92394L20.2525 4.8721L22.8759 5.79106L22.6445 6.4517ZM29.1646 18.8102L29.8407 18.9913L29.8407 18.9913L29.1646 18.8102ZM24.2134 25.1432L23.6646 24.7087L23.7517 24.5987L23.8744 24.5308L24.2134 25.1432ZM24.0623 25.3295L24.0246 26.0285L22.6338 25.9535L23.5239 24.8822L24.0623 25.3295ZM31.548 22.6448L31.0758 22.128L33.1276 20.2528L32.2087 22.8762L31.548 22.6448ZM12.8562 24.2131L13.2908 23.6643L13.4007 23.7514L13.4686 23.8741L12.8562 24.2131ZM18.2707 23.1612L18.4898 23.826L18.1341 23.9432L17.8392 23.7123L18.2707 23.1612ZM23.1612 19.7287L23.826 19.5096L23.9432 19.8653L23.7124 20.1602L23.1612 19.7287ZM19.7291 14.8388L19.5101 14.174L19.8658 14.0568L20.1607 14.2877L19.7291 14.8388ZM14.8387 18.2712L14.1739 18.4903L14.0566 18.1346L14.2875 17.8397L14.8387 18.2712ZM14.8386 32.0205C12.8867 29.8848 11.8104 27.0128 11.9715 24.0248L13.3695 24.1002C13.2291 26.7035 14.167 29.2104 15.872 31.0761L14.8386 32.0205ZM9.51137 19.371C8.2057 24.2439 10.9028 29.2469 15.5868 30.8877L15.1239 32.2089C9.75398 30.3279 6.6624 24.5943 8.15908 19.0087L9.51137 19.371ZM14.1254 13.4692C11.929 14.6852 10.2122 16.7556 9.51137 19.371L8.15908 19.0087C8.96223 16.0113 10.9322 13.6368 13.4473 12.2444L14.1254 13.4692ZM14.4759 13.1178C14.4284 13.1751 14.3814 13.2329 14.3352 13.2913L13.2376 12.4222C13.2907 12.3552 13.3445 12.2888 13.3991 12.2232L14.4759 13.1178ZM5.9795 14.8386C8.11523 12.8867 10.9872 11.8104 13.9752 11.9715L13.8998 13.3695C11.2965 13.2291 8.78959 14.167 6.92398 15.8721L5.9795 14.8386ZM18.629 9.51135C13.7562 8.20567 8.75315 10.9028 7.11238 15.5868L5.7911 15.1239C7.67217 9.75397 13.4057 6.66237 18.9914 8.15905L18.629 9.51135ZM24.5312 14.1259C23.3152 11.9293 21.2446 10.2122 18.629 9.51135L18.9914 8.15905C21.989 8.96226 24.3636 10.9325 25.7561 13.4479L24.5312 14.1259ZM24.882 14.476C24.8249 14.4286 24.7673 14.3818 24.709 14.3357L25.5782 13.2382C25.645 13.2911 25.7112 13.3447 25.7766 13.3991L24.882 14.476ZM24.6303 13.8998C24.7707 11.2965 23.8328 8.78957 22.1277 6.92394L23.1612 5.97947C25.1131 8.11522 26.1894 10.9873 26.0283 13.9752L24.6303 13.8998ZM22.8759 5.79106C28.2458 7.67215 31.3374 13.4057 29.8407 18.9913L28.4884 18.629C29.7941 13.7561 27.097 8.75313 22.413 7.11234L22.8759 5.79106ZM29.8407 18.9913C29.0376 21.9887 27.0676 24.3632 24.5525 25.7557L23.8744 24.5308C26.0708 23.3148 27.7876 21.2444 28.4884 18.629L29.8407 18.9913ZM23.5239 24.8822C23.5714 24.825 23.6183 24.7671 23.6646 24.7087L24.7622 25.5778C24.7091 25.6448 24.6553 25.7112 24.6007 25.7768L23.5239 24.8822ZM32.0202 23.1615C29.8845 25.1133 27.0125 26.1896 24.0246 26.0285L24.1 24.6305C26.7033 24.7709 29.2102 23.833 31.0758 22.128L32.0202 23.1615ZM19.3707 28.4887C24.2436 29.7943 29.2466 27.0972 30.8874 22.4133L32.2087 22.8762C30.3275 28.2461 24.5941 31.3376 19.0084 29.841L19.3707 28.4887ZM13.4686 23.8741C14.6846 26.0708 16.7552 27.7878 19.3707 28.4887L19.0084 29.841C16.0108 29.0377 13.6362 27.0675 12.2438 24.5521L13.4686 23.8741ZM12.4216 24.7618C12.3548 24.7089 12.2887 24.6553 12.2232 24.6009L13.1178 23.524C13.1749 23.5714 13.2325 23.6182 13.2908 23.6643L12.4216 24.7618ZM18.0516 22.4963C19.8416 21.9065 21.4364 20.7963 22.61 19.2972L23.7124 20.1602C22.3665 21.8793 20.5397 23.1505 18.4898 23.826L18.0516 22.4963ZM22.4963 19.9478C21.9065 18.1581 20.7964 16.5635 19.2976 15.39L20.1607 14.2877C21.8795 15.6334 23.1505 17.46 23.826 19.5096L22.4963 19.9478ZM19.9482 15.5037C18.1582 16.0935 16.5634 17.2037 15.3899 18.7027L14.2875 17.8397C15.6333 16.1207 17.4602 14.8495 19.5101 14.174L19.9482 15.5037ZM15.5035 18.0521C16.0933 19.8419 17.2034 21.4365 18.7023 22.61L17.8392 23.7123C16.1204 22.3666 14.8493 20.5399 14.1739 18.4903L15.5035 18.0521Z" fill="black" mask="url(#path-1-outside-1_709_2)"/>
<path fill-rule="evenodd" clip-rule="evenodd" d="M24.3281 19.9832C24.3271 19.9299 24.3253 19.8765 24.323 19.8231C24.9428 18.133 24.9017 16.2031 24.0536 14.4558C22.4733 11.2 18.6613 9.75377 15.3503 11.0638C17.1499 11.2746 18.8358 12.1931 19.9831 13.6718C19.9298 13.6729 19.8764 13.6746 19.823 13.677C18.133 13.0572 16.2031 13.0982 14.4557 13.9464C11.2 15.5267 9.75376 19.3385 11.0637 22.6495C11.2746 20.8499 12.1931 19.164 13.6719 18.0168C13.6729 18.07 13.6747 18.1233 13.677 18.1765C13.057 19.8667 13.098 21.7968 13.9462 23.5442C15.5266 26.8 19.3385 28.2463 22.6495 26.9362C20.8499 26.7254 19.164 25.807 18.0167 24.3282C18.0701 24.3271 18.1235 24.3254 18.1769 24.323C19.867 24.9429 21.7969 24.9019 23.5443 24.0537C26.8001 22.4733 28.2463 18.6614 26.9363 15.3504C26.7254 17.15 25.8069 18.836 24.3281 19.9832ZM16.578 20.4525C17.7379 21.1459 19.0882 21.4894 20.4526 21.4219C21.1459 20.2621 21.4893 18.9117 21.4218 17.5475C20.262 16.8541 18.9116 16.5106 17.5472 16.5782C16.8539 17.738 16.5105 19.0883 16.578 20.4525Z" fill="white"/>
<circle cx="3.17867" cy="3.17867" r="3.17867" transform="matrix(-0.965926 -0.258819 -0.258819 0.965926 22.8929 16.7523)" fill="#421E6B"/>
</svg>
