<svg width="38" height="38" viewBox="0 0 38 38" fill="none" xmlns="http://www.w3.org/2000/svg">
<mask id="path-1-outside-1_709_2" maskUnits="userSpaceOnUse" x="4.42805" y="5.19675" width="28.1691" height="28.1691" fill="black">
<rect fill="white" x="4.42805" y="5.19675" width="28.1691" height="28.1691"/>
<path fill-rule="evenodd" clip-rule="evenodd" d="M14.1056 22.9146C13.989 25.0765 14.7677 27.1562 16.1817 28.7033C12.2945 27.3416 10.0564 23.1905 11.1399 19.1468C11.7213 16.9767 13.1468 15.2581 14.9685 14.2495C15.0069 14.201 15.0459 14.153 15.0854 14.1055C12.9236 13.989 10.8438 14.7677 9.29676 16.1817C10.6584 12.2944 14.8096 10.0563 18.8533 11.1398C21.0236 11.7213 22.7423 13.147 23.7508 14.9688C23.7992 15.0072 23.847 15.046 23.8944 15.0854C24.011 12.9236 23.2323 10.8438 21.8183 9.29668C25.7055 10.6584 27.9437 14.8095 26.8602 18.8532C26.2787 21.0234 24.8531 22.742 23.0314 23.7505C22.993 23.799 22.9541 23.847 22.9146 23.8945C25.0764 24.011 27.1561 23.2323 28.7032 21.8183C27.3415 25.7056 23.1904 27.9437 19.1467 26.8602C16.9764 26.2787 15.2577 24.853 14.2492 23.0311C14.2008 22.9928 14.153 22.954 14.1056 22.9146ZM18.4361 22.2178C19.9208 21.7286 21.2437 20.8078 22.2178 19.5636C21.7286 18.0791 20.8079 16.7563 19.5639 15.7823C18.0792 16.2715 16.7563 17.1922 15.7822 18.4364C16.2714 19.9209 17.1921 21.2437 18.4361 22.2178Z"/>
</mask>
<path fill-rule="evenodd" clip-rule="evenodd" d="M14.1056 22.9146C13.989 25.0765 14.7677 27.1562 16.1817 28.7033C12.2945 27.3416 10.0564 23.1905 11.1399 19.1468C11.7213 16.9767 13.1468 15.2581 14.9685 14.2495C15.0069 14.201 15.0459 14.153 15.0854 14.1055C12.9236 13.989 10.8438 14.7677 9.29676 16.1817C10.6584 12.2944 14.8096 10.0563 18.8533 11.1398C21.0236 11.7213 22.7423 13.147 23.7508 14.9688C23.7992 15.0072 23.847 15.046 23.8944 15.0854C24.011 12.9236 23.2323 10.8438 21.8183 9.29668C25.7055 10.6584 27.9437 14.8095 26.8602 18.8532C26.2787 21.0234 24.8531 22.742 23.0314 23.7505C22.993 23.799 22.9541 23.847 22.9146 23.8945C25.0764 24.011 27.1561 23.2323 28.7032 21.8183C27.3415 25.7056 23.1904 27.9437 19.1467 26.8602C16.9764 26.2787 15.2577 24.853 14.2492 23.0311C14.2008 22.9928 14.153 22.954 14.1056 22.9146ZM18.4361 22.2178C19.9208 21.7286 21.2437 20.8078 22.2178 19.5636C21.7286 18.0791 20.8079 16.7563 19.5639 15.7823C18.0792 16.2715 16.7563 17.1922 15.7822 18.4364C16.2714 19.9209 17.1921 21.2437 18.4361 22.2178Z" fill="#421E6B"/>
<path d="M16.1817 28.7033L16.6984 28.2311L18.5736 30.2829L15.9503 29.364L16.1817 28.7033ZM14.1056 22.9146L13.4066 22.8769L13.4816 21.4862L14.5529 22.3762L14.1056 22.9146ZM14.9685 14.2495L15.5173 14.6841L15.4303 14.794L15.3076 14.862L14.9685 14.2495ZM15.0854 14.1055L15.123 13.4065L16.5139 13.4815L15.6238 14.5528L15.0854 14.1055ZM9.29676 16.1817L9.769 16.6984L7.71716 18.5736L8.63612 15.9502L9.29676 16.1817ZM18.8533 11.1398L19.0345 10.4636L18.8533 11.1398ZM23.7508 14.9688L23.3162 15.5176L23.2063 15.4305L23.1383 15.3079L23.7508 14.9688ZM23.8944 15.0854L24.5934 15.1231L24.5184 16.5138L23.4471 15.6238L23.8944 15.0854ZM21.8183 9.29668L21.3016 9.76892L19.4264 7.71706L22.0498 8.63604L21.8183 9.29668ZM26.8602 18.8532L27.5363 19.0344L26.8602 18.8532ZM23.0314 23.7505L22.4826 23.3159L22.5697 23.206L22.6924 23.1381L23.0314 23.7505ZM22.9146 23.8945L22.8769 24.5935L21.4861 24.5185L22.3762 23.4472L22.9146 23.8945ZM28.7032 21.8183L28.231 21.3016L30.2828 19.4264L29.3639 22.0498L28.7032 21.8183ZM14.2492 23.0311L14.6838 22.4824L14.7937 22.5694L14.8616 22.6921L14.2492 23.0311ZM18.4361 22.2178L18.6552 22.8826L18.2995 22.9998L18.0046 22.7689L18.4361 22.2178ZM22.2178 19.5636L22.8826 19.3445L22.9999 19.7002L22.769 19.9951L22.2178 19.5636ZM19.5639 15.7823L19.3448 15.1174L19.7005 15.0002L19.9954 15.2311L19.5639 15.7823ZM15.7822 18.4364L15.1174 18.6555L15.0001 18.2998L15.231 18.0049L15.7822 18.4364ZM15.665 29.1756C14.1276 27.4934 13.2796 25.2311 13.4066 22.8769L14.8046 22.9523C14.6984 24.9218 15.4079 26.819 16.6984 28.2311L15.665 29.1756ZM11.816 19.328C10.828 23.0152 12.8689 26.8011 16.4131 28.0427L15.9503 29.364C11.7201 27.8821 9.28472 23.3657 10.4637 18.9656L11.816 19.328ZM15.3076 14.862C13.6452 15.7823 12.3463 17.3489 11.816 19.328L10.4637 18.9656C11.0964 16.6045 12.6484 14.7339 14.6295 13.6371L15.3076 14.862ZM15.6238 14.5528C15.5878 14.5962 15.5523 14.6399 15.5173 14.6841L14.4198 13.815C14.4616 13.7622 14.504 13.7099 14.5469 13.6582L15.6238 14.5528ZM8.82452 15.665C10.5067 14.1276 12.7689 13.2796 15.123 13.4065L15.0477 14.8045C13.0782 14.6983 11.181 15.4079 9.769 16.6984L8.82452 15.665ZM18.6721 11.8159C14.9849 10.8279 11.1989 12.8689 9.9574 16.4131L8.63612 15.9502C10.118 11.72 14.6344 9.28463 19.0345 10.4636L18.6721 11.8159ZM23.1383 15.3079C22.2181 13.6453 20.6514 12.3463 18.6721 11.8159L19.0345 10.4636C21.3958 11.0963 23.2665 12.6486 24.3632 14.6298L23.1383 15.3079ZM23.4471 15.6238C23.4039 15.5879 23.3603 15.5525 23.3162 15.5176L24.1854 14.4201C24.238 14.4618 24.2902 14.5041 24.3417 14.5469L23.4471 15.6238ZM23.1954 15.0477C23.3017 13.0782 22.5921 11.181 21.3016 9.76892L22.3351 8.82445C23.8724 10.5066 24.7204 12.7689 24.5934 15.1231L23.1954 15.0477ZM22.0498 8.63604C26.28 10.1179 28.7153 14.6343 27.5363 19.0344L26.184 18.672C27.172 14.9848 25.1311 11.1989 21.5869 9.95732L22.0498 8.63604ZM27.5363 19.0344C26.9036 21.3955 25.3515 23.2662 23.3704 24.3629L22.6924 23.1381C24.3547 22.2178 25.6537 20.6512 26.184 18.672L27.5363 19.0344ZM22.3762 23.4472C22.4121 23.4039 22.4476 23.3601 22.4826 23.3159L23.5802 24.1851C23.5384 24.2379 23.496 24.2901 23.453 24.3418L22.3762 23.4472ZM29.1755 22.335C27.4933 23.8724 25.2311 24.7204 22.8769 24.5935L22.9523 23.1955C24.9218 23.3017 26.819 22.5921 28.231 21.3016L29.1755 22.335ZM19.3279 26.1841C23.0151 27.1721 26.8011 25.1311 28.0426 21.5869L29.3639 22.0498C27.882 26.28 23.3656 28.7154 18.9655 27.5364L19.3279 26.1841ZM14.8616 22.6921C15.7819 24.3546 17.3486 25.6537 19.3279 26.1841L18.9655 27.5364C16.6042 26.9037 14.7335 25.3514 13.6367 23.3701L14.8616 22.6921ZM13.8146 23.5798C13.7619 23.5382 13.7098 23.4959 13.6583 23.4531L14.5529 22.3762C14.5961 22.4121 14.6397 22.4474 14.6838 22.4824L13.8146 23.5798ZM18.2171 21.5529C19.5718 21.1065 20.7787 20.2663 21.6666 19.1321L22.769 19.9951C21.7088 21.3493 20.2698 22.3506 18.6552 22.8826L18.2171 21.5529ZM21.553 19.7827C21.1066 18.4281 20.2664 17.2213 19.1323 16.3334L19.9954 15.2311C21.3495 16.2912 22.3506 17.7301 22.8826 19.3445L21.553 19.7827ZM19.7829 16.4471C18.4282 16.8935 17.2213 17.7337 16.3334 18.868L15.231 18.0049C16.2912 16.6507 17.7302 15.6494 19.3448 15.1174L19.7829 16.4471ZM16.447 18.2173C16.8934 19.5719 17.7336 20.7787 18.8677 21.6666L18.0046 22.7689C16.6505 21.7088 15.6494 20.2699 15.1174 18.6555L16.447 18.2173Z" fill="black" mask="url(#path-1-outside-1_709_2)"/>
<path fill-rule="evenodd" clip-rule="evenodd" d="M23.1201 19.7603C23.1193 19.7191 23.1179 19.6779 23.1161 19.6367C23.5955 18.3297 23.5638 16.8373 22.9079 15.4861C21.6859 12.9684 18.7382 11.8501 16.1778 12.8631C17.5694 13.0262 18.8731 13.7363 19.7603 14.8798C19.719 14.8807 19.6777 14.882 19.6364 14.8838C18.3295 14.4045 16.8372 14.4363 15.486 15.0921C12.9684 16.3142 11.85 19.2618 12.863 21.8222C13.0261 20.4306 13.7363 19.1269 14.8798 18.2397C14.8807 18.2809 14.882 18.3221 14.8838 18.3633C14.4044 19.6702 14.4361 21.1627 15.092 22.5139C16.314 25.0316 19.2617 26.1499 21.822 25.1369C20.4305 24.9738 19.1268 24.2637 18.2396 23.1202C18.2809 23.1193 18.3222 23.118 18.3635 23.1162C19.6704 23.5955 21.1627 23.5638 22.5139 22.9079C25.0315 21.6859 26.1499 18.7382 25.1369 16.1779C24.9738 17.5695 24.2636 18.8732 23.1201 19.7603ZM17.1271 20.1232C18.024 20.6594 19.0683 20.925 20.1233 20.8728C20.6594 19.9759 20.925 18.9318 20.8728 17.8768C19.9759 17.3406 18.9316 17.075 17.8766 17.1273C17.3405 18.0241 17.0749 19.0683 17.1271 20.1232Z" fill="white"/>
<circle cx="2.458" cy="2.458" r="2.458" transform="matrix(-0.965926 -0.258819 -0.258819 0.965926 22.0104 17.2619)" fill="#421E6B"/>
</svg>
