<svg width="38" height="38" viewBox="0 0 38 38" fill="none" xmlns="http://www.w3.org/2000/svg">
<path d="M32.5 19L19 5.5L5.5 19L19 32.5L32.5 19Z" fill="#CC358B" stroke="black"/>
<path d="M15.6971 24.4422L16.656 13.4835L19.5817 10.6101L20.4915 9.71652L23.0942 8.55217L24.0531 10.3329L23.0942 26.3599L18.5053 27.7896L15.6971 24.4422Z" fill="white"/>
<path d="M20.4915 9.71652L23.0942 8.55217L24.0531 10.3329M20.4915 9.71652L19.5817 10.6101M20.4915 9.71652L21.5965 16.2161M24.0531 10.3329L23.0942 26.3599L18.5053 27.7896L15.6971 24.4422L16.656 13.4835L19.5817 10.6101M24.0531 10.3329L21.5965 16.2161M19.5817 10.6101L19.1369 20.6306M19.1369 20.6306L17.8126 19.9369V25.8019L20.9027 26.3599L20.4915 21.2612M19.1369 20.6306L20.4915 21.2612M20.4915 21.2612L21.5965 16.2161" stroke="black" stroke-width="0.7" stroke-miterlimit="16"/>
<path d="M11.5877 26.7024L10.2863 17.7985L10.5558 16.4629L10.8253 15.1273L14.1218 15.9492L17.3409 27.2503L15.7967 27.1032L13.0827 26.8448L11.5877 26.7024Z" fill="white"/>
<path d="M19.9436 26.3599L25.7654 15.9492L26.279 17.2163L26.7927 18.4834L25.7654 24.9216L24.0531 27.2503L23.0403 27.0309L19.9436 26.3599Z" fill="white"/>
<path d="M14.1218 15.9492L17.3409 27.2503L15.7967 27.1032M14.1218 15.9492L10.8253 15.1273L10.5558 16.4629M14.1218 15.9492L13.0827 17.7985L11.5877 18.108M10.5558 16.4629L10.2863 17.7985L11.5877 26.7024L13.0827 26.8448M10.5558 16.4629L11.5877 18.108M11.5877 18.108L13.0827 26.8448M13.0827 18.108L15.7967 27.1032M15.7967 27.1032L13.0827 26.8448M26.279 17.2163L26.7927 18.4834L25.7654 24.9216L24.0531 27.2503L23.0403 27.0309M26.279 17.2163L25.7654 15.9492L19.9436 26.3599L23.0403 27.0309M26.279 17.2163L23.0403 27.0309" stroke="black" stroke-width="0.7" stroke-miterlimit="16"/>
<path d="M26.7927 27.7896L29.4639 23.9627L24.5325 24.4422L20.9025 27.7896H26.7927Z" fill="white" stroke="black" stroke-width="0.7" stroke-miterlimit="16"/>
<path d="M19.2688 27.8967L7.75214 24.4422L11.5876 28.6201L19.2688 27.8967Z" fill="white" stroke="black" stroke-width="0.7" stroke-miterlimit="16"/>
<path d="M18.9162 24.4422L15.3547 28.2777L24.0531 28.6201L18.9162 24.4422Z" fill="white" stroke="black" stroke-width="0.7" stroke-miterlimit="16"/>
<path d="M18.1909 3.35086L16.6129 9.35238L19.926 5.28207L18.1909 3.35086Z" fill="white" stroke="black" stroke-width="0.7" stroke-miterlimit="16"/>
<path d="M25.8908 9.81631L28.3601 15.5093L28.3601 11.6242L25.8908 9.81631Z" fill="white" stroke="black" stroke-width="0.7" stroke-miterlimit="16"/>
</svg>
