<svg width="38" height="38" viewBox="0 0 38 38" fill="none" xmlns="http://www.w3.org/2000/svg">
<path d="M8.85 25.1242C8.85 20.0106 10.5377 15.04 13.6511 10.9836L15.6726 8.35H23.3113L25.2576 11.3084C27.7968 15.168 29.15 19.6868 29.15 24.3068V25C29.15 28.6727 26.1727 31.65 22.5 31.65H15.3758C11.7717 31.65 8.85 28.7283 8.85 25.1242Z" fill="black" stroke="white" stroke-width="0.7"/>
<rect x="22.85" y="18.35" width="7.3" height="3.3" fill="black" stroke="white" stroke-width="0.7"/>
<rect x="7.85" y="18.35" width="7.3" height="3.3" fill="black" stroke="white" stroke-width="0.7"/>
<rect x="22.85" y="23.35" width="7.3" height="3.3" fill="black" stroke="white" stroke-width="0.7"/>
<rect x="7.85" y="23.35" width="7.3" height="3.3" fill="black" stroke="white" stroke-width="0.7"/>
<path d="M25 12.5H22V8.5L24.5 6L28.5 9L25 12.5Z" fill="black" stroke="white" stroke-width="0.7"/>
<path d="M14 12.5H17V8.5L14.5 6L10.5 9L14 12.5Z" fill="black" stroke="white" stroke-width="0.7"/>
</svg>
