<svg width="38" height="38" viewBox="0 0 38 38" fill="none" xmlns="http://www.w3.org/2000/svg">
<mask id="path-1-outside-1_602_485" maskUnits="userSpaceOnUse" x="6.5" y="5" width="25" height="28" fill="black">
<rect fill="white" x="6.5" y="5" width="25" height="28"/>
<path fill-rule="evenodd" clip-rule="evenodd" d="M28.6565 18C28.0466 15.7608 27.1126 13.612 25.8755 11.6245L28.5 9L24.5 6L22.5 8H16.5L14.5 6L10.5 9L12.9039 11.4039C11.4563 13.4265 10.3459 15.6541 9.60224 18H7.5V22H8.7079C8.64543 22.4672 8.59688 22.937 8.56247 23.4088H7.5V27.4088H8.88865C9.83047 30.0832 12.3793 32 15.3758 32H22.5C25.5196 32 28.0926 30.0881 29.0745 27.4088H30.5V23.4088H29.4832C29.4656 22.9376 29.4341 22.4678 29.3889 22H30.5V18H28.6565Z"/>
</mask>
<path fill-rule="evenodd" clip-rule="evenodd" d="M28.6565 18C28.0466 15.7608 27.1126 13.612 25.8755 11.6245L28.5 9L24.5 6L22.5 8H16.5L14.5 6L10.5 9L12.9039 11.4039C11.4563 13.4265 10.3459 15.6541 9.60224 18H7.5V22H8.7079C8.64543 22.4672 8.59688 22.937 8.56247 23.4088H7.5V27.4088H8.88865C9.83047 30.0832 12.3793 32 15.3758 32H22.5C25.5196 32 28.0926 30.0881 29.0745 27.4088H30.5V23.4088H29.4832C29.4656 22.9376 29.4341 22.4678 29.3889 22H30.5V18H28.6565Z" fill="black"/>
<path d="M25.8755 11.6245L25.3805 11.1296L24.9875 11.5226L25.2812 11.9944L25.8755 11.6245ZM28.6565 18L27.9811 18.184L28.1217 18.7H28.6565V18ZM28.5 9L28.995 9.49497L29.5657 8.92426L28.92 8.44L28.5 9ZM24.5 6L24.92 5.44L24.4343 5.07574L24.005 5.50503L24.5 6ZM22.5 8V8.7H22.7899L22.995 8.49497L22.5 8ZM16.5 8L16.005 8.49497L16.2101 8.7H16.5V8ZM14.5 6L14.995 5.50503L14.5657 5.07574L14.08 5.44L14.5 6ZM10.5 9L10.08 8.44L9.43431 8.92426L10.005 9.49497L10.5 9ZM12.9039 11.4039L13.4732 11.8113L13.8186 11.3287L13.3989 10.909L12.9039 11.4039ZM9.60224 18V18.7H10.1147L10.2695 18.2115L9.60224 18ZM7.5 18V17.3H6.8V18H7.5ZM7.5 22H6.8V22.7H7.5V22ZM8.7079 22L9.40172 22.0928L9.50772 21.3H8.7079V22ZM8.56247 23.4088V24.1088H9.21327L9.26062 23.4597L8.56247 23.4088ZM7.5 23.4088V22.7088H6.8V23.4088H7.5ZM7.5 27.4088H6.8V28.1088H7.5V27.4088ZM8.88865 27.4088L9.5489 27.1762L9.38427 26.7088H8.88865V27.4088ZM29.0745 27.4088V26.7088H28.5856L28.4173 27.1679L29.0745 27.4088ZM30.5 27.4088V28.1088H31.2V27.4088H30.5ZM30.5 23.4088H31.2V22.7088H30.5V23.4088ZM29.4832 23.4088L28.7837 23.4349L28.8089 24.1088H29.4832V23.4088ZM29.3889 22V21.3H28.618L28.6921 22.0673L29.3889 22ZM30.5 22V22.7H31.2V22H30.5ZM30.5 18H31.2V17.3H30.5V18ZM25.2812 11.9944C26.4822 13.9239 27.389 16.01 27.9811 18.184L29.3319 17.816C28.7043 15.5115 27.7429 13.3001 26.4698 11.2546L25.2812 11.9944ZM28.005 8.50503L25.3805 11.1296L26.3704 12.1195L28.995 9.49497L28.005 8.50503ZM24.08 6.56L28.08 9.56L28.92 8.44L24.92 5.44L24.08 6.56ZM22.995 8.49497L24.995 6.49497L24.005 5.50503L22.005 7.50503L22.995 8.49497ZM16.5 8.7H22.5V7.3H16.5V8.7ZM16.995 7.50503L14.995 5.50503L14.005 6.49497L16.005 8.49497L16.995 7.50503ZM14.08 5.44L10.08 8.44L10.92 9.56L14.92 6.56L14.08 5.44ZM10.005 9.49497L12.409 11.8989L13.3989 10.909L10.995 8.50503L10.005 9.49497ZM10.2695 18.2115C10.9911 15.9353 12.0686 13.7739 13.4732 11.8113L12.3347 10.9965C10.8441 13.0792 9.70074 15.373 8.93497 17.7885L10.2695 18.2115ZM7.5 18.7H9.60224V17.3H7.5V18.7ZM8.2 22V18H6.8V22H8.2ZM8.7079 21.3H7.5V22.7H8.7079V21.3ZM9.26062 23.4597C9.29401 23.002 9.34111 22.5461 9.40172 22.0928L8.01407 21.9072C7.94975 22.3884 7.89976 22.8721 7.86433 23.3578L9.26062 23.4597ZM7.5 24.1088H8.56247V22.7088H7.5V24.1088ZM8.2 27.4088V23.4088H6.8V27.4088H8.2ZM8.88865 26.7088H7.5V28.1088H8.88865V26.7088ZM15.3758 31.3C12.6855 31.3 10.3952 29.5793 9.5489 27.1762L8.2284 27.6413C9.26577 30.587 12.0731 32.7 15.3758 32.7V31.3ZM22.5 31.3H15.3758V32.7H22.5V31.3ZM28.4173 27.1679C27.5332 29.5803 25.2165 31.3 22.5 31.3V32.7C25.8226 32.7 28.6521 30.5958 29.7318 27.6496L28.4173 27.1679ZM30.5 26.7088H29.0745V28.1088H30.5V26.7088ZM29.8 23.4088V27.4088H31.2V23.4088H29.8ZM29.4832 24.1088H30.5V22.7088H29.4832V24.1088ZM28.6921 22.0673C28.736 22.5214 28.7666 22.9775 28.7837 23.4349L30.1827 23.3826C30.1646 22.8976 30.1321 22.4142 30.0857 21.9327L28.6921 22.0673ZM30.5 21.3H29.3889V22.7H30.5V21.3ZM29.8 18V22H31.2V18H29.8ZM28.6565 18.7H30.5V17.3H28.6565V18.7Z" fill="black" mask="url(#path-1-outside-1_602_485)"/>
<path d="M8.5 25.1242C8.5 19.9336 10.2131 14.8881 13.3735 10.7705L15.5 8H23.5L25.55 11.116C28.1268 15.0328 29.5 19.6184 29.5 24.3068V25C29.5 28.866 26.366 32 22.5 32H15.3758C11.5784 32 8.5 28.9216 8.5 25.1242Z" fill="black" stroke="white" stroke-width="0.7"/>
<rect x="22.5" y="18" width="8" height="4" fill="black" stroke="white" stroke-width="0.7"/>
<rect x="7.5" y="18" width="8" height="4" fill="black" stroke="white" stroke-width="0.7"/>
<rect x="22.5" y="23.4088" width="8" height="4" fill="black" stroke="white" stroke-width="0.7"/>
<rect x="7.5" y="23.4088" width="8" height="4" fill="black" stroke="white" stroke-width="0.7"/>
<path d="M25 12.5H22V8.5L24.5 6L28.5 9L25 12.5Z" fill="black" stroke="white" stroke-width="0.7"/>
<path d="M14 12.5H17V8.5L14.5 6L10.5 9L14 12.5Z" fill="black" stroke="white" stroke-width="0.7"/>
</svg>
