<svg width="38" height="38" viewBox="0 0 38 38" fill="none" xmlns="http://www.w3.org/2000/svg">
<path d="M19.1738 22.2367L22.6649 25.6898L19.1738 29.1429L15.6826 25.6898L19.1738 22.2367ZM19.1738 18.4119L11.8157 25.6898L19.1738 32.9677L26.5318 25.6898L19.1738 18.4119Z" fill="white" stroke="black" stroke-width="0.7" stroke-miterlimit="10"/>
<path d="M29.4614 7.68332C29.4614 16.4879 24.1945 21.0232 20.9227 22.9385C20.6833 23.0781 20.4572 23.1978 20.2311 23.3175C20.0117 23.2045 19.7856 23.0781 19.5395 22.9385C16.2677 21.0299 11.0009 16.4879 11.0009 7.68332C14.552 7.68332 20.2245 4.49132 20.2245 2.56946C20.2245 4.48467 25.9036 7.68332 29.4481 7.68332H29.4614Z" fill="black"/>
<path d="M16.0749 20.6774H12.6169L12.0383 18.842L7.18383 18.8088L6.87128 16.5278C6.87128 15.9293 7.32348 15.4838 7.86878 15.4838C7.95523 15.4838 8.04168 15.4971 8.12813 15.517L8.50718 15.6168L17.4182 15.7365L17.478 15.2976L18.4822 15.3375C19.0009 15.3574 19.493 15.6234 19.7989 16.049C20.0649 16.4281 20.1713 16.8869 20.0849 17.3391C19.9984 17.798 19.7457 18.1837 19.36 18.443L18.7881 18.8221L21.0957 24.1355L17.0724 25.2061L16.0882 20.6708L16.0749 20.6774ZM15.8687 19.3541L15.7756 18.7157L15.0774 18.7423V19.3541H15.8687ZM13.7607 19.3541V18.7888L13.4215 18.8021L13.5944 19.3541H13.7607Z" fill="black"/>
<path d="M17.764 15.6367L18.4689 15.6633C18.8878 15.6833 19.2802 15.8894 19.5262 16.2352C19.9718 16.8603 19.8122 17.7381 19.1738 18.1637L18.3691 18.6957L20.6368 23.916L17.3251 24.8005L16.3542 20.3449H12.8696L12.291 18.5095L7.4764 18.4763L7.20375 16.4813C7.20375 16.1022 7.5163 15.8096 7.8754 15.8096C7.93525 15.8096 7.98845 15.8163 8.0483 15.8296L8.46726 15.9426L17.7108 16.069L17.764 15.6367ZM14.7515 19.6866H16.2544L16.0616 18.3699L14.7449 18.4164V19.6866M13.3484 19.6866H14.0932V18.443L12.9693 18.4829L13.3484 19.6866ZM17.1788 14.9451L17.1189 15.3973L8.54706 15.2776L8.2079 15.1845C8.09485 15.1513 7.97515 15.138 7.8621 15.138C7.1306 15.138 6.5321 15.7365 6.52545 16.468V16.5145V16.5611L6.7981 18.5561L6.8779 19.128H7.45645L11.7856 19.1612L12.2179 20.5311L12.3642 20.9966H15.8022L16.6601 24.9268L16.8064 25.6051L17.478 25.4256L20.7897 24.5411L21.5345 24.3416L21.2286 23.63L19.1871 18.9218L19.5262 18.6957C19.9851 18.3898 20.2976 17.9177 20.3974 17.3724C20.4971 16.8271 20.3774 16.2818 20.0582 15.8296C19.6991 15.3242 19.1073 15.005 18.4888 14.9784L17.7839 14.9518L17.1721 14.9252L17.1788 14.9451Z" fill="white"/>
</svg>
