<svg width="38" height="38" viewBox="0 0 38 38" fill="none" xmlns="http://www.w3.org/2000/svg">
<path d="M19 30.7214C25.4736 30.7214 30.7215 25.4736 30.7215 19C30.7215 12.5264 25.4736 7.27856 19 7.27856C12.5264 7.27856 7.27856 12.5264 7.27856 19C7.27856 25.4736 12.5264 30.7214 19 30.7214Z" fill="white" stroke="black" stroke-width="0.7" stroke-miterlimit="10"/>
<path d="M27.1948 14.2813C27.1948 22.0379 22.5549 26.0334 19.6725 27.7207C19.4616 27.8437 19.2624 27.9492 19.0632 28.0546C18.8699 27.955 18.6707 27.8437 18.4539 27.7207C15.5716 26.0393 10.9316 22.0379 10.9316 14.2813C14.0601 14.2813 19.0574 11.4692 19.0574 9.77612C19.0574 11.4634 24.0605 14.2813 27.1831 14.2813H27.1948Z" fill="black"/>
<path d="M17.373 25.7288H14.3266L13.8169 24.1118L9.54021 24.0826L9.26486 22.0731C9.26486 21.5458 9.66324 21.1533 10.1436 21.1533C10.2198 21.1533 10.296 21.165 10.3721 21.1826L10.7061 21.2705L18.5564 21.3759L18.6092 20.9893L19.4938 21.0244C19.9507 21.042 20.3843 21.2763 20.6538 21.6513C20.8881 21.9852 20.9818 22.3894 20.9057 22.7878C20.8295 23.1921 20.6069 23.5319 20.2671 23.7603L19.7633 24.0943L21.7962 28.7752L18.2518 29.7184L17.3847 25.7229L17.373 25.7288ZM17.1914 24.5629L17.1094 24.0005L16.4942 24.024V24.5629H17.1914ZM15.3343 24.5629V24.065L15.0355 24.0767L15.1878 24.5629H15.3343Z" fill="black"/>
<path d="M18.8611 21.2881L19.4821 21.3115C19.8511 21.3291 20.1968 21.5107 20.4136 21.8153C20.8061 22.366 20.6655 23.1393 20.1031 23.5143L19.3942 23.983L21.3919 28.5819L18.4744 29.3611L17.6191 25.4359H14.5492L14.0395 23.8189L9.79797 23.7896L9.55777 22.0321C9.55777 21.6981 9.83312 21.4404 10.1495 21.4404C10.2022 21.4404 10.2491 21.4462 10.3018 21.458L10.6709 21.5575L18.8142 21.6689L18.8611 21.2881ZM16.2072 24.8559H17.5312L17.3613 23.6959L16.2013 23.7369V24.8559M14.971 24.8559H15.6272V23.7603L14.6371 23.7955L14.971 24.8559ZM18.3455 20.6788L18.2928 21.0771L10.7412 20.9717L10.4424 20.8897C10.3428 20.8604 10.2374 20.8487 10.1378 20.8487C9.49333 20.8487 8.96606 21.3759 8.96021 22.0204V22.0614V22.1024L9.2004 23.8599L9.2707 24.3638H9.78039L13.5943 24.3931L13.9751 25.5999L14.104 26.01H17.1328L17.8885 29.4724L18.0174 30.0699L18.6091 29.9118L21.5267 29.1326L22.1828 28.9568L21.9133 28.33L20.1148 24.1821L20.4136 23.983C20.8178 23.7135 21.0931 23.2975 21.181 22.8171C21.2689 22.3367 21.1634 21.8563 20.8822 21.458C20.5659 21.0127 20.0445 20.7315 19.4996 20.7081L18.8786 20.6846L18.3396 20.6612L18.3455 20.6788Z" fill="white"/>
</svg>
