<svg width="38" height="38" viewBox="0 0 38 38" fill="none" xmlns="http://www.w3.org/2000/svg">
<path d="M19 23.8165L21.9772 26.7612L19 29.706L16.0228 26.7612L19 23.8165ZM19 20.5548L12.7252 26.7612L19 32.9677L25.2748 26.7612L19 20.5548Z" fill="white" stroke="black" stroke-width="0.7" stroke-miterlimit="10"/>
<path d="M19 28.4752C25.4736 28.4752 30.7215 23.2273 30.7215 16.7537C30.7215 10.2801 25.4736 5.03227 19 5.03227C12.5264 5.03227 7.27856 10.2801 7.27856 16.7537C7.27856 23.2273 12.5264 28.4752 19 28.4752Z" fill="white" stroke="black" stroke-width="0.7" stroke-miterlimit="10"/>
<path d="M27.7731 11.4056C27.7731 18.914 23.2816 22.7817 20.4915 24.4149C20.2873 24.534 20.0945 24.6361 19.9017 24.7382C19.7146 24.6418 19.5218 24.534 19.3119 24.4149C16.5218 22.7873 12.0303 18.914 12.0303 11.4056C15.0587 11.4056 19.896 8.6835 19.896 7.04458C19.896 8.67783 24.7391 11.4056 27.7618 11.4056H27.7731Z" fill="black"/>
<path d="M16.3573 22.4868H13.4084L12.915 20.9216L8.77517 20.8932L8.50864 18.9481C8.50864 18.4377 8.89427 18.0577 9.35929 18.0577C9.43301 18.0577 9.50674 18.069 9.58046 18.0861L9.90371 18.1711L17.5029 18.2732L17.5539 17.8989L18.4102 17.9329C18.8526 17.95 19.2722 18.1768 19.5331 18.5397C19.7599 18.863 19.8507 19.2543 19.777 19.6399C19.7032 20.0312 19.4877 20.3601 19.1588 20.5813L18.6711 20.9046L20.639 25.4357L17.208 26.3487L16.3687 22.4811L16.3573 22.4868ZM16.1815 21.3582L16.1021 20.8138L15.5067 20.8365V21.3582H16.1815ZM14.3838 21.3582V20.8762L14.0946 20.8875L14.242 21.3582H14.3838Z" fill="black"/>
<path d="M17.7977 18.1881L18.3989 18.2108C18.7561 18.2278 19.0907 18.4036 19.3006 18.6985C19.6805 19.2316 19.5444 19.9802 19 20.3431L18.3138 20.7968L20.2476 25.2486L17.4235 26.0028L16.5955 22.2032H13.6239L13.1305 20.638L9.02467 20.6097L8.79216 18.9084C8.79216 18.5851 9.0587 18.3356 9.36493 18.3356C9.41597 18.3356 9.46134 18.3413 9.51238 18.3526L9.86965 18.449L17.7524 18.5568L17.7977 18.1881ZM15.2288 21.6418H16.5104L16.346 20.5189L15.2231 20.5586V21.6418M14.0322 21.6418H14.6673V20.5813L13.7089 20.6153L14.0322 21.6418ZM17.2987 17.5983L17.2477 17.984L9.93771 17.8819L9.64848 17.8025C9.55208 17.7742 9.45 17.7628 9.35359 17.7628C8.72978 17.7628 8.21939 18.2732 8.21371 18.897V18.9367V18.9764L8.44623 20.6777L8.51428 21.1654H9.00766L12.6995 21.1938L13.0681 22.362L13.1929 22.759H16.1248L16.8564 26.1106L16.9811 26.689L17.5539 26.5359L20.3781 25.7816L21.0132 25.6115L20.7523 25.0047L19.0113 20.9896L19.3006 20.7968C19.6919 20.5359 19.9584 20.1333 20.0435 19.6683C20.1285 19.2032 20.0265 18.7382 19.7542 18.3526C19.448 17.9216 18.9433 17.6494 18.4159 17.6267L17.8148 17.604L17.293 17.5813L17.2987 17.5983Z" fill="white"/>
</svg>
