<svg width="38" height="38" viewBox="0 0 38 38" fill="none" xmlns="http://www.w3.org/2000/svg">
<path d="M21.6421 11.9263C24.0487 13.0178 25.7358 15.5546 25.7358 18.5103V36.2524H12.2642V18.5103C12.2642 15.6636 13.8288 13.2048 16.0942 12.0522V1.74756H21.6421V11.9263Z" fill="white"/>
<path d="M21.6421 11.9263H21.2515V12.178L21.4808 12.282L21.6421 11.9263ZM25.7358 36.2524V36.643H26.1264V36.2524H25.7358ZM12.2642 36.2524H11.8736V36.643H12.2642V36.2524ZM16.0942 12.0522L16.2714 12.4004L16.4848 12.2918V12.0522H16.0942ZM16.0942 1.74756V1.35696H15.7036V1.74756H16.0942ZM21.6421 1.74756H22.0327V1.35696H21.6421V1.74756ZM21.6421 11.9263L21.4808 12.282C23.7435 13.3082 25.3452 15.7032 25.3452 18.5103H25.7358H26.1264C26.1264 15.406 24.3539 12.7273 21.8034 11.5705L21.6421 11.9263ZM25.7358 18.5103H25.3452V36.2524H25.7358H26.1264V18.5103H25.7358ZM25.7358 36.2524V35.8618H12.2642V36.2524V36.643H25.7358V36.2524ZM12.2642 36.2524H12.6548V18.5103H12.2642H11.8736V36.2524H12.2642ZM12.2642 18.5103H12.6548C12.6548 15.8068 14.1401 13.4847 16.2714 12.4004L16.0942 12.0522L15.9171 11.7041C13.5174 12.925 11.8736 15.5203 11.8736 18.5103H12.2642ZM16.0942 12.0522H16.4848V1.74756H16.0942H15.7036V12.0522H16.0942ZM16.0942 1.74756V2.13816H21.6421V1.74756V1.35696H16.0942V1.74756ZM21.6421 1.74756H21.2515V11.9263H21.6421H22.0327V1.74756H21.6421Z" fill="#121212"/>
<rect x="12.2642" y="21.0587" width="13.4714" height="11.7632" fill="white" stroke="#121212" stroke-width="0.781206"/>
</svg>
