<svg width="38" height="38" viewBox="0 0 38 38" fill="none" xmlns="http://www.w3.org/2000/svg">
<rect x="2.20589" y="7.69484" width="28.2616" height="21.1079" rx="4.30293" fill="#121212" stroke="white" stroke-width="0.78235"/>
<path fill-rule="evenodd" clip-rule="evenodd" d="M14.5853 26.8019C19.309 26.8019 23.1384 22.9726 23.1384 18.2488C23.1384 13.525 19.309 9.69565 14.5853 9.69565C9.8615 9.69565 6.03213 13.525 6.03213 18.2488C6.03213 22.9726 9.8615 26.8019 14.5853 26.8019ZM14.5853 20.6609C15.9174 20.6609 16.9973 19.5809 16.9973 18.2488C16.9973 16.9167 15.9174 15.8367 14.5853 15.8367C13.2531 15.8367 12.1732 16.9167 12.1732 18.2488C12.1732 19.5809 13.2531 20.6609 14.5853 20.6609Z" fill="white"/>
<circle cx="14.5853" cy="18.2488" r="0.391175" stroke="white" stroke-width="0.765661"/>
<mask id="path-4-outside-1_867_76" maskUnits="userSpaceOnUse" x="16.7525" y="8.69565" width="11" height="16" fill="black">
<rect fill="white" x="16.7525" y="8.69565" width="11" height="16"/>
<path fill-rule="evenodd" clip-rule="evenodd" d="M25.9168 13.3626C26.7393 13.1714 27.3521 12.4339 27.3521 11.5532C27.3521 10.5273 26.5204 9.69565 25.4945 9.69565C24.4686 9.69565 23.6369 10.5273 23.6369 11.5532C23.6369 12.3108 24.0905 12.9625 24.7408 13.2515C24.2329 15.643 23.657 17.4335 22.7657 18.703C22.2454 19.4439 21.553 20.2931 20.7712 21.0396C20.7001 21.1075 20.6285 21.1744 20.5565 21.24C20.1642 21.1287 19.6787 21.2827 19.4279 21.6302C19.2536 21.8717 18.961 22.1008 18.6684 22.3299C18.2543 22.6541 17.84 22.9784 17.7603 23.3385C17.704 23.593 17.9643 23.8142 18.1369 23.8895C18.224 23.9275 18.4467 23.8854 18.7267 23.8112L18.7317 23.8242C18.7696 23.8095 18.8074 23.7945 18.8452 23.7789C18.985 23.7399 19.1353 23.6951 19.2877 23.6497L19.2879 23.6497C19.4061 23.6144 19.5255 23.5788 19.6423 23.5453C20.1518 23.3988 20.4972 23.2527 20.7943 22.8136C20.8888 22.6739 20.9738 22.5291 21.0341 22.3832C21.2221 22.223 21.4048 22.0572 21.5817 21.8883C22.4294 21.0788 23.1709 20.1681 23.7261 19.3773C24.7751 17.8832 25.3963 15.8503 25.9168 13.3626Z"/>
</mask>
<path fill-rule="evenodd" clip-rule="evenodd" d="M25.9168 13.3626C26.7393 13.1714 27.3521 12.4339 27.3521 11.5532C27.3521 10.5273 26.5204 9.69565 25.4945 9.69565C24.4686 9.69565 23.6369 10.5273 23.6369 11.5532C23.6369 12.3108 24.0905 12.9625 24.7408 13.2515C24.2329 15.643 23.657 17.4335 22.7657 18.703C22.2454 19.4439 21.553 20.2931 20.7712 21.0396C20.7001 21.1075 20.6285 21.1744 20.5565 21.24C20.1642 21.1287 19.6787 21.2827 19.4279 21.6302C19.2536 21.8717 18.961 22.1008 18.6684 22.3299C18.2543 22.6541 17.84 22.9784 17.7603 23.3385C17.704 23.593 17.9643 23.8142 18.1369 23.8895C18.224 23.9275 18.4467 23.8854 18.7267 23.8112L18.7317 23.8242C18.7696 23.8095 18.8074 23.7945 18.8452 23.7789C18.985 23.7399 19.1353 23.6951 19.2877 23.6497L19.2879 23.6497C19.4061 23.6144 19.5255 23.5788 19.6423 23.5453C20.1518 23.3988 20.4972 23.2527 20.7943 22.8136C20.8888 22.6739 20.9738 22.5291 21.0341 22.3832C21.2221 22.223 21.4048 22.0572 21.5817 21.8883C22.4294 21.0788 23.1709 20.1681 23.7261 19.3773C24.7751 17.8832 25.3963 15.8503 25.9168 13.3626Z" fill="white"/>
<path d="M25.9168 13.3626L25.8283 12.9816L25.5851 13.0381L25.5339 13.2825L25.9168 13.3626ZM24.7408 13.2515L25.1234 13.3328L25.1893 13.0228L24.8997 12.8941L24.7408 13.2515ZM22.7657 18.703L23.0858 18.9278L22.7657 18.703ZM20.7712 21.0396L20.501 20.7568H20.501L20.7712 21.0396ZM20.5565 21.24L20.4497 21.6163L20.659 21.6757L20.8199 21.5292L20.5565 21.24ZM19.4279 21.6302L19.1107 21.4013L19.4279 21.6302ZM18.6684 22.3299L18.4272 22.0219H18.4272L18.6684 22.3299ZM17.7603 23.3385L18.1422 23.4231L17.7603 23.3385ZM18.1369 23.8895L18.2933 23.531L18.2933 23.531L18.1369 23.8895ZM18.7267 23.8112L19.0917 23.6704L18.9654 23.3433L18.6265 23.4331L18.7267 23.8112ZM18.7317 23.8242L18.3668 23.965L18.5076 24.33L18.8726 24.1891L18.7317 23.8242ZM18.8452 23.7789L18.74 23.4022L18.7178 23.4084L18.6964 23.4172L18.8452 23.7789ZM19.2877 23.6497L19.1777 23.2743L19.1759 23.2748L19.2877 23.6497ZM19.2879 23.6497L19.3979 24.025L19.3996 24.0245L19.2879 23.6497ZM19.6423 23.5453L19.5343 23.1693H19.5343L19.6423 23.5453ZM20.7943 22.8136L21.1183 23.0329L21.1183 23.0329L20.7943 22.8136ZM21.0341 22.3832L20.7804 22.0854L20.7086 22.1466L20.6725 22.2338L21.0341 22.3832ZM21.5817 21.8883L21.3115 21.6054H21.3115L21.5817 21.8883ZM23.7261 19.3773L23.4059 19.1526H23.4059L23.7261 19.3773ZM26.9609 11.5532C26.9609 12.2479 26.4775 12.8307 25.8283 12.9816L26.0054 13.7436C27.0011 13.5122 27.7433 12.6198 27.7433 11.5532H26.9609ZM25.4945 10.0868C26.3044 10.0868 26.9609 10.7434 26.9609 11.5532H27.7433C27.7433 10.3113 26.7365 9.30447 25.4945 9.30447V10.0868ZM24.0281 11.5532C24.0281 10.7434 24.6847 10.0868 25.4945 10.0868V9.30447C24.2526 9.30447 23.2458 10.3113 23.2458 11.5532H24.0281ZM24.8997 12.8941C24.3854 12.6655 24.0281 12.1507 24.0281 11.5532H23.2458C23.2458 12.471 23.7955 13.2594 24.5819 13.609L24.8997 12.8941ZM24.3582 13.1703C23.8518 15.5543 23.2885 17.2776 22.4455 18.4782L23.0858 18.9278C24.0256 17.5893 24.6139 15.7318 25.1234 13.3328L24.3582 13.1703ZM22.4455 18.4782C21.937 19.2025 21.2608 20.0312 20.501 20.7568L21.0414 21.3225C21.8451 20.555 22.5539 19.6853 23.0858 18.9278L22.4455 18.4782ZM20.501 20.7568C20.4321 20.8226 20.3628 20.8873 20.2931 20.9508L20.8199 21.5292C20.8943 21.4614 20.9681 21.3925 21.0414 21.3225L20.501 20.7568ZM20.6633 20.8637C20.1185 20.7091 19.4612 20.9156 19.1107 21.4013L19.7451 21.8591C19.8961 21.6498 20.2099 21.5482 20.4497 21.6163L20.6633 20.8637ZM19.1107 21.4013C18.9758 21.5882 18.7346 21.7813 18.4272 22.0219L18.9095 22.6379C19.1875 22.4203 19.5314 22.1553 19.7451 21.8591L19.1107 21.4013ZM18.4272 22.0219C18.225 22.1802 17.9971 22.3579 17.8112 22.5453C17.6292 22.7287 17.4424 22.9647 17.3784 23.254L18.1422 23.4231C18.1579 23.3522 18.2181 23.246 18.3666 23.0962C18.5113 22.9504 18.6976 22.8038 18.9095 22.6379L18.4272 22.0219ZM17.3784 23.254C17.3145 23.5427 17.4388 23.782 17.561 23.9301C17.6831 24.0782 17.8428 24.188 17.9804 24.2481L18.2933 23.531C18.2795 23.525 18.2562 23.5123 18.2297 23.4928C18.2036 23.4735 18.181 23.4523 18.1645 23.4323C18.1274 23.3873 18.1498 23.3888 18.1422 23.4231L17.3784 23.254ZM17.9804 24.2481C18.0736 24.2887 18.1658 24.2946 18.2239 24.2949C18.2887 24.2953 18.3551 24.2886 18.4168 24.2794C18.5403 24.2611 18.6827 24.2276 18.8269 24.1893L18.6265 23.4331C18.4907 23.4691 18.3818 23.4937 18.3021 23.5055C18.2622 23.5114 18.239 23.5127 18.2289 23.5126C18.212 23.5125 18.2437 23.5094 18.2933 23.531L17.9804 24.2481ZM18.3618 23.9521L18.3668 23.965L19.0966 23.6833L19.0917 23.6704L18.3618 23.9521ZM18.8726 24.1891C18.9132 24.1734 18.9536 24.1573 18.994 24.1407L18.6964 23.4172C18.6612 23.4316 18.6261 23.4456 18.5909 23.4592L18.8726 24.1891ZM18.9504 24.1557C19.0941 24.1156 19.2478 24.0698 19.3994 24.0246L19.1759 23.2748C19.0228 23.3205 18.8759 23.3642 18.74 23.4022L18.9504 24.1557ZM19.3977 24.0251L19.3979 24.025L19.1779 23.2743L19.1777 23.2743L19.3977 24.0251ZM19.3996 24.0245C19.5181 23.9892 19.6357 23.9542 19.7504 23.9212L19.5343 23.1693C19.4153 23.2035 19.294 23.2396 19.1761 23.2748L19.3996 24.0245ZM19.7504 23.9212C20.289 23.7664 20.7435 23.5867 21.1183 23.0329L20.4703 22.5944C20.2508 22.9188 20.0147 23.0312 19.5343 23.1693L19.7504 23.9212ZM21.1183 23.0329C21.221 22.881 21.3215 22.7119 21.3956 22.5325L20.6725 22.2338C20.6261 22.3462 20.5567 22.4668 20.4703 22.5944L21.1183 23.0329ZM21.2878 22.6809C21.4819 22.5155 21.6701 22.3448 21.8519 22.1712L21.3115 21.6054C21.1396 21.7697 20.9622 21.9304 20.7804 22.0854L21.2878 22.6809ZM21.8519 22.1712C22.7216 21.3406 23.4793 20.4095 24.0462 19.6021L23.4059 19.1526C22.8624 19.9267 22.1373 20.8169 21.3115 21.6054L21.8519 22.1712ZM24.0462 19.6021C25.1442 18.0384 25.7777 15.9375 26.2997 13.4427L25.5339 13.2825C25.0149 15.763 24.4061 17.7281 23.4059 19.1526L24.0462 19.6021Z" fill="#121212" mask="url(#path-4-outside-1_867_76)"/>
<path d="M31.6206 10.7563L31.7856 10.7592V11.0307C31.9458 11.2869 32.13 11.5054 32.3481 11.7221L32.5366 11.8949C32.6643 12.0086 32.7961 12.1187 32.9321 12.225L33.1392 12.3813L33.146 12.3871L33.1528 12.392C33.4905 12.6626 33.8177 12.9549 34.1343 13.268C34.472 13.602 34.7654 14.0016 35.0171 14.4623C35.2807 14.9448 35.4599 15.5314 35.5649 16.2104C35.6629 16.8437 35.6679 17.4565 35.5767 18.0463C35.4859 18.6325 35.3083 19.1974 35.0444 19.7387L34.9546 19.9223L34.7524 19.9535L33.894 20.0863L33.2925 20.1791L33.4585 19.5932C33.5863 19.1408 33.6598 18.7147 33.6821 18.3139L33.6831 18.3022C33.7173 17.8971 33.704 17.5006 33.644 17.1127C33.569 16.6276 33.4373 16.2464 33.2612 15.9565L33.2554 15.9467C33.0852 15.6467 32.8855 15.4376 32.6636 15.3012C32.4934 15.1966 32.2877 15.0567 32.0757 14.9994C31.9773 14.9729 31.9115 14.9753 31.8696 14.9877C31.8487 14.994 31.82 15.0075 31.7856 15.0434V25.4858C31.7856 26.6367 31.539 27.6503 31.0317 28.5121L31.0327 28.5131C30.5658 29.3195 29.9707 30.0381 29.1616 30.5102L29.1538 30.5151C28.7836 30.7207 28.4834 30.8693 28.1606 30.9623C27.8337 31.0565 27.5051 31.0873 27.0806 31.0873C26.1662 31.0873 25.4041 30.8588 24.8608 30.3403L24.855 30.3334C24.3468 29.8253 24.1001 29.1735 24.1001 28.4125C24.1001 27.7068 24.2956 27.0609 24.686 26.4867C25.0642 25.9104 25.5549 25.4527 26.1548 25.1186C26.7755 24.7638 27.4212 24.5805 28.0854 24.5805C28.3618 24.5805 28.6371 24.6147 28.9106 24.683L28.9097 24.684C29.0991 24.7229 29.3752 24.8421 29.6157 24.9711C29.637 24.9826 29.6583 24.9951 29.6802 25.0072V10.7162L30.0796 10.725L31.0034 10.7436V9.69475L31.6206 10.7563Z" fill="white" stroke="#121212" stroke-width="0.78235"/>
</svg>
