<svg width="38" height="38" viewBox="0 0 38 38" fill="none" xmlns="http://www.w3.org/2000/svg">
<path d="M35 20.2736L19 4.27357L3 20.2736L19 36.2736L35 20.2736Z" fill="#35C2CC" stroke="black"/>
<path d="M15.0855 26.7235L16.222 13.7356L19.6894 10.33L20.7678 9.27093L23.8524 7.89096L24.9888 10.0015L23.8524 28.9964L18.4137 30.6909L15.0855 26.7235Z" fill="white"/>
<path d="M20.7678 9.27093L23.8524 7.89096L24.9888 10.0015M20.7678 9.27093L19.6894 10.33M20.7678 9.27093L22.0773 16.9741M24.9888 10.0015L23.8524 28.9964L18.4137 30.6909L15.0855 26.7235L16.222 13.7356L19.6894 10.33M24.9888 10.0015L22.0773 16.9741M19.6894 10.33L19.1623 22.2061M19.1623 22.2061L17.5927 21.384V28.3351L21.2551 28.9964L20.7678 22.9536M19.1623 22.2061L20.7678 22.9536M20.7678 22.9536L22.0773 16.9741" stroke="black" stroke-width="0.7" stroke-miterlimit="16"/>
<path d="M10.215 29.4023L8.67267 18.8496L8.99204 17.2666L9.31141 15.6837L13.2185 16.6578L17.0337 30.0517L15.2035 29.8774L11.9869 29.5711L10.215 29.4023Z" fill="white"/>
<path d="M20.1183 28.9964L27.0182 16.6578L27.627 18.1596L28.2358 19.6613L27.0182 27.2918L24.9888 30.0517L23.7885 29.7916L20.1183 28.9964Z" fill="white"/>
<path d="M13.2185 16.6578L17.0337 30.0517L15.2035 29.8774M13.2185 16.6578L9.31141 15.6837L8.99204 17.2666M13.2185 16.6578L11.9869 18.8496L10.215 19.2164M8.99204 17.2666L8.67267 18.8496L10.215 29.4023L11.9869 29.5711M8.99204 17.2666L10.215 19.2164M10.215 19.2164L11.9869 29.5711M11.9869 19.2164L15.2035 29.8774M15.2035 29.8774L11.9869 29.5711M27.627 18.1596L28.2358 19.6613L27.0182 27.2918L24.9888 30.0517L23.7885 29.7916M27.627 18.1596L27.0182 16.6578L20.1183 28.9964L23.7885 29.7916M27.627 18.1596L23.7885 29.7916" stroke="black" stroke-width="0.7" stroke-miterlimit="16"/>
<path d="M28.2358 30.6909L31.4017 26.1553L25.5571 26.7235L21.2548 30.6909H28.2358Z" fill="white" stroke="black" stroke-width="0.7" stroke-miterlimit="16"/>
<path d="M19.3186 30.8178L5.66922 26.7235L10.215 31.6752L19.3186 30.8178Z" fill="white" stroke="black" stroke-width="0.7" stroke-miterlimit="16"/>
<path d="M18.9007 26.7235L14.6796 31.2693L24.9888 31.6752L18.9007 26.7235Z" fill="white" stroke="black" stroke-width="0.7" stroke-miterlimit="16"/>
<path d="M18.0411 1.72644L16.1709 8.83935L20.0975 4.01528L18.0411 1.72644Z" fill="white" stroke="black" stroke-width="0.7" stroke-miterlimit="16"/>
<path d="M27.1668 9.3892L30.0934 16.1365L30.0934 11.5319L27.1668 9.3892Z" fill="white" stroke="black" stroke-width="0.7" stroke-miterlimit="16"/>
</svg>
