<svg width="38" height="38" viewBox="0 0 38 38" fill="none" xmlns="http://www.w3.org/2000/svg">
<path fill-rule="evenodd" clip-rule="evenodd" d="M13.746 11.2639C13.0742 10.3682 11.908 9.6082 10.5526 9.63644C9.97771 9.64842 9.085 9.79456 8.27636 10.0337C7.86391 10.1556 7.41717 10.3179 7.01427 10.531C6.65013 10.7236 6.13217 11.0545 5.80453 11.6006C5.30593 12.4316 5.5266 13.2921 5.71447 13.7648C5.91819 14.2775 6.24401 14.754 6.53856 15.1324C7.05728 15.7988 7.69423 16.4259 8.01148 16.7382C8.0579 16.7839 8.09747 16.8228 8.12882 16.8542C8.34924 17.0746 8.71621 17.4271 9.14368 17.7355C9.46024 17.9639 9.99341 18.3068 10.6346 18.4204C10.5835 18.423 10.5325 18.4257 10.4814 18.4285L10.2872 18.4391C9.79136 18.4666 9.53335 18.4809 9.24621 18.445C8.42418 18.3423 7.67449 18.9254 7.57174 19.7474C7.46898 20.5694 8.05207 21.3191 8.8741 21.4219C9.45017 21.4939 9.99678 21.4618 10.4569 21.4348C10.5207 21.431 10.5829 21.4274 10.6433 21.4241C11.6803 21.368 12.7087 21.3405 13.7707 21.3121L14.0887 21.3035C15.1686 21.2744 16.4016 21.0045 17.3256 20.8023C17.4505 20.7749 17.5706 20.7487 17.6831 20.7246C17.8842 20.6814 18.1111 20.6696 18.4775 20.6625L18.5617 20.6609C18.8834 20.6553 19.3269 20.6474 19.7788 20.5721C20.2414 20.495 20.6676 20.4104 21.0697 20.3306C21.8583 20.174 22.554 20.036 23.2482 20.0093C23.7444 19.9902 24.2255 19.9243 24.624 19.8698L24.7381 19.8542C25.1848 19.7936 25.5376 19.7516 25.8786 19.7516C26.707 19.7516 27.3786 19.08 27.3786 18.2516C27.3786 17.4232 26.707 16.7516 25.8786 16.7516C25.3123 16.7516 24.7772 16.8214 24.3349 16.8814L24.2412 16.8942C23.8156 16.9521 23.4759 16.9983 23.1329 17.0115C22.1961 17.0475 21.1001 17.2634 20.2013 17.4406C19.8615 17.5075 19.5498 17.5689 19.2856 17.6129C19.0598 17.6506 18.8254 17.6551 18.4456 17.6625L18.4191 17.663C18.0641 17.6699 17.5712 17.6804 17.0545 17.7911C16.9275 17.8184 16.8009 17.8458 16.675 17.8731C15.7086 18.0827 14.7814 18.2837 14.0077 18.3046L13.6863 18.3133C13.1417 18.3278 12.5935 18.3425 12.0419 18.3613C12.4163 18.2782 12.7472 18.1505 13.0454 18.0091C13.2935 17.8915 13.5283 17.7595 13.7195 17.652L13.7417 17.6396C13.95 17.5225 14.122 17.4265 14.3036 17.3391C14.7957 17.1022 15.2561 16.7824 15.586 16.253C15.8391 15.8466 15.9566 15.3861 16.029 15.1022L16.0464 15.0344C16.2223 14.356 15.9191 13.8292 15.7862 13.6315C15.6283 13.3967 15.4365 13.2175 15.2961 13.0989C15.0043 12.8522 14.648 12.6304 14.3384 12.4571C14.3103 12.4414 14.2821 12.4258 14.2538 12.4104C14.1919 11.8791 13.8979 11.4665 13.746 11.2639ZM10.2769 12.818C10.2769 12.7663 10.2795 12.7153 10.2846 12.665C9.97845 12.7047 9.55124 12.7851 9.12704 12.9105C8.97873 12.9544 8.84431 12.9999 8.72616 13.0453C8.77725 13.1195 8.83696 13.2011 8.90597 13.2897C9.29065 13.784 9.76572 14.2535 10.0969 14.5808C10.1524 14.6357 10.2038 14.6866 10.2501 14.7329C10.4348 14.9175 10.6677 15.1358 10.8989 15.3026C11.0119 15.3841 11.0979 15.4337 11.1538 15.4597C11.3586 15.4569 11.5305 15.4073 11.7602 15.2983C11.9073 15.2286 12.0584 15.1442 12.272 15.0242L12.2797 15.0199C12.3523 14.9791 12.4313 14.9347 12.5158 14.8883C12.4092 14.8362 12.3074 14.7898 12.2174 14.7516C12.1456 14.7212 12.0911 14.7001 12.0543 14.687C11.6976 14.6296 11.383 14.4464 11.1574 14.1844C10.6381 13.9486 10.2769 13.4255 10.2769 12.818ZM8.48585 12.6081C8.48625 12.6083 8.48822 12.6142 8.49059 12.625C8.48665 12.6133 8.48546 12.6078 8.48585 12.6081ZM11.188 15.4738C11.1881 15.4738 11.1868 15.4734 11.1843 15.4725L11.188 15.4738Z" fill="white"/>
<path d="M13.378 15.4067C13.3779 15.4067 13.376 15.4049 13.3726 15.4015M10.5526 9.63644C11.908 9.6082 13.0742 10.3682 13.746 11.2639C13.8979 11.4665 14.1919 11.8791 14.2538 12.4104C14.2821 12.4258 14.3103 12.4414 14.3384 12.4571C14.648 12.6304 15.0043 12.8522 15.2961 13.0989C15.4365 13.2175 15.6283 13.3967 15.7862 13.6315C15.9191 13.8292 16.2223 14.356 16.0464 15.0344L16.029 15.1022C15.9566 15.3861 15.8391 15.8466 15.586 16.253C15.2561 16.7824 14.7957 17.1022 14.3036 17.3391C14.122 17.4265 13.95 17.5225 13.7417 17.6396L13.7195 17.652C13.5283 17.7595 13.2935 17.8915 13.0454 18.0091C12.7472 18.1505 12.4163 18.2782 12.0419 18.3613C12.5935 18.3425 13.1417 18.3278 13.6863 18.3133L14.0077 18.3046C14.7814 18.2837 15.7086 18.0827 16.675 17.8731C16.8009 17.8458 16.9275 17.8184 17.0545 17.7911C17.5712 17.6804 18.0641 17.6699 18.4191 17.663L18.4456 17.6625C18.8254 17.6551 19.0598 17.6506 19.2856 17.6129C19.5498 17.5689 19.8615 17.5075 20.2013 17.4406C21.1001 17.2634 22.1961 17.0475 23.1329 17.0115C23.4759 16.9983 23.8156 16.9521 24.2412 16.8942L24.3349 16.8814C24.7772 16.8214 25.3123 16.7516 25.8786 16.7516C26.707 16.7516 27.3786 17.4232 27.3786 18.2516C27.3786 19.08 26.707 19.7516 25.8786 19.7516C25.5376 19.7516 25.1848 19.7936 24.7381 19.8542L24.624 19.8698C24.2255 19.9243 23.7444 19.9902 23.2482 20.0093C22.554 20.036 21.8583 20.174 21.0697 20.3306C20.6676 20.4104 20.2414 20.495 19.7788 20.5721C19.3269 20.6474 18.8834 20.6553 18.5617 20.6609L18.4775 20.6625C18.1111 20.6696 17.8842 20.6814 17.6831 20.7246C17.5706 20.7487 17.4505 20.7749 17.3256 20.8023C16.4016 21.0045 15.1686 21.2744 14.0887 21.3035L13.7707 21.3121C12.7087 21.3405 11.6803 21.368 10.6433 21.4241C10.5829 21.4274 10.5207 21.431 10.4569 21.4348C9.99678 21.4618 9.45017 21.4939 8.8741 21.4219C8.05207 21.3191 7.46898 20.5694 7.57174 19.7474C7.67449 18.9254 8.42418 18.3423 9.24621 18.445C9.53335 18.4809 9.79136 18.4666 10.2872 18.4391L10.4814 18.4285C10.5325 18.4257 10.5835 18.423 10.6346 18.4204C9.99341 18.3068 9.46024 17.9639 9.14368 17.7355C8.71621 17.4271 8.34924 17.0746 8.12882 16.8542C8.09747 16.8228 8.0579 16.7839 8.01148 16.7382C7.69423 16.4259 7.05728 15.7988 6.53856 15.1324C6.24401 14.754 5.91819 14.2775 5.71447 13.7648C5.5266 13.2921 5.30593 12.4316 5.80453 11.6006C6.13217 11.0545 6.65013 10.7236 7.01427 10.531C7.41717 10.3179 7.86391 10.1556 8.27636 10.0337C9.085 9.79456 9.97771 9.64842 10.5526 9.63644ZM10.2846 12.665C10.2795 12.7153 10.2769 12.7663 10.2769 12.818C10.2769 13.4255 10.6381 13.9486 11.1574 14.1844C11.383 14.4464 11.6976 14.6296 12.0543 14.687C12.0911 14.7001 12.1456 14.7212 12.2174 14.7516C12.3074 14.7898 12.4092 14.8362 12.5158 14.8883C12.4313 14.9347 12.3523 14.9791 12.2797 15.0199L12.272 15.0242C12.0584 15.1442 11.9073 15.2286 11.7602 15.2983C11.5305 15.4073 11.3586 15.4569 11.1538 15.4597C11.0979 15.4337 11.0119 15.3841 10.8989 15.3026C10.6677 15.1358 10.4348 14.9175 10.2501 14.7329C10.2038 14.6866 10.1524 14.6357 10.0969 14.5808C9.76572 14.2535 9.29065 13.784 8.90597 13.2897C8.83696 13.2011 8.77725 13.1195 8.72616 13.0453C8.84431 12.9999 8.97873 12.9544 9.12704 12.9105C9.55124 12.7851 9.97845 12.7047 10.2846 12.665ZM8.48585 12.6081C8.48625 12.6083 8.48822 12.6142 8.49059 12.625C8.48665 12.6133 8.48546 12.6078 8.48585 12.6081ZM11.188 15.4738C11.1881 15.4738 11.1868 15.4734 11.1843 15.4725L11.188 15.4738Z" stroke="black" stroke-linecap="round"/>
<path fill-rule="evenodd" clip-rule="evenodd" d="M36.3244 12.0996C36.3671 12.4763 36.2576 12.7661 36.191 12.9076C35.9592 13.4002 35.9002 13.7325 35.8038 14.2754C35.7577 14.5351 35.703 14.843 35.6168 15.2397C35.2811 16.7836 34.8506 17.9281 33.904 19.3216C33.8182 19.448 33.7606 19.5452 33.6862 19.6707C33.6275 19.7697 33.5584 19.8864 33.4566 20.0491C33.2808 20.3301 33.0344 20.6962 32.6926 21.0245C32.6925 21.0247 32.6928 21.0242 32.6926 21.0245C32.667 21.0618 32.6549 21.0809 32.6372 21.1089C32.6197 21.1365 32.5964 21.1735 32.548 21.247C32.4823 21.3468 32.3733 21.5072 32.228 21.6654C32.0912 21.8143 31.8848 22.0032 31.5962 22.1453C31.5608 22.1747 31.5116 22.2199 31.4275 22.3008C31.4159 22.312 31.4031 22.3244 31.3894 22.3376C31.3161 22.4085 31.2159 22.5053 31.1169 22.5936C30.9975 22.7003 30.8309 22.8398 30.6303 22.9628C30.2863 23.1739 29.9482 23.4444 29.6486 23.7441C29.0132 24.3795 28.1916 24.7656 27.2296 24.7656C26.6199 24.7656 26.0912 24.8926 25.3727 25.0653C25.1367 25.122 24.8803 25.1837 24.5938 25.2473C23.1316 25.5723 21.5406 25.728 20.0707 25.872C19.4011 25.9375 18.7566 26.0006 18.1608 26.0761C18.0355 26.092 17.9023 26.1099 17.7632 26.1285C17.1987 26.2042 16.5363 26.293 15.9013 26.317C15.6574 26.3262 15.4156 26.3672 15.0475 26.4297L15.0053 26.4368C14.6461 26.4977 14.1697 26.5768 13.6454 26.5768C12.9385 26.5768 12.2833 26.6268 11.5678 26.6814C11.1727 26.7116 10.7591 26.7432 10.3084 26.7685C9.83726 26.795 9.35004 26.8017 8.90188 26.8079C8.74678 26.81 8.59636 26.8121 8.4529 26.8149C7.86666 26.8264 7.34159 26.8498 6.84267 26.9211C6.77601 26.9306 6.69803 26.9431 6.61111 26.957C6.43883 26.9847 6.23142 27.0179 6.00737 27.0448C6.00154 27.0858 5.9934 27.1368 5.98293 27.1867C5.97679 27.216 5.96555 27.2661 5.94744 27.326C5.93443 27.3691 5.89367 27.5013 5.80621 27.6523C5.80561 27.6533 5.80484 27.6547 5.80389 27.6563C5.76528 27.7242 5.42848 28.3164 4.65828 28.3956C3.7647 28.4875 3.31116 27.8192 3.25686 27.7385C3.14258 27.5687 3.09048 27.4146 3.07542 27.3698C3.05309 27.3032 3.03927 27.2472 3.03172 27.2145C3.01645 27.1483 3.00678 27.0888 3.0012 27.0521C2.98935 26.9744 2.97866 26.8832 2.96864 26.7905C2.87582 25.9319 2.787 25.0797 2.69867 24.232C2.39997 21.3656 2.10676 18.552 1.68282 15.7257C1.55993 14.9065 2.12445 14.1427 2.94371 14.0198C3.74951 13.8989 4.50162 14.4431 4.64305 15.2405C4.80366 15.2622 4.95379 15.2857 5.08849 15.3069L5.10578 15.3096C5.53193 15.3765 5.82625 15.4215 6.09769 15.4266C6.72421 15.4382 7.396 15.3602 8.14533 15.2414C8.38441 15.2035 8.64481 15.1589 8.91516 15.1126C9.43072 15.0242 9.98243 14.9297 10.4914 14.8638C11.3154 14.7569 12.117 14.664 12.9046 14.5726C14.7945 14.3535 16.6046 14.1435 18.4543 13.7736C20.6413 13.3362 22.8923 13.0242 25.0914 12.7195C26.3017 12.5518 27.4964 12.3862 28.6559 12.2032C29.0613 12.1391 29.4542 12.0835 29.8351 12.0296C31.0517 11.8575 32.1457 11.7027 33.1312 11.3468C33.131 11.3469 33.1321 11.3464 33.1346 11.3454C33.1485 11.3398 33.2055 11.3167 33.3208 11.2681C33.3966 11.2361 33.4799 11.2007 33.5674 11.1635C33.6181 11.142 33.6701 11.1199 33.7229 11.0975C33.861 11.0389 34.0046 10.9784 34.1147 10.9337C34.1661 10.9129 34.2298 10.8876 34.2876 10.8668L34.2888 10.8664C34.309 10.8592 34.3755 10.8353 34.4549 10.8151L34.4563 10.8148C34.4737 10.8101 34.6306 10.7682 34.8273 10.7675C34.8903 10.7673 35.0008 10.7707 35.1351 10.7983C35.2564 10.8233 35.5036 10.8889 35.7537 11.0832C36.0463 11.3104 36.2752 11.6651 36.3244 12.0996ZM5.06478 18.3382C5.29692 20.2185 5.49253 22.0962 5.68704 23.9632C5.69043 23.9958 5.69382 24.0283 5.69721 24.0609C5.78196 24.0491 5.87379 24.0346 5.97975 24.0179C6.10311 23.9984 6.24562 23.9759 6.4184 23.9512C7.10482 23.8532 7.7788 23.8275 8.39417 23.8155C8.57611 23.8119 8.74984 23.8095 8.91814 23.8072C9.34523 23.8013 9.73735 23.7958 10.1401 23.7732C10.4643 23.755 10.8159 23.7285 11.1831 23.7009C11.9712 23.6415 12.831 23.5768 13.6454 23.5768C13.8898 23.5768 14.1414 23.5405 14.5038 23.479C14.5315 23.4743 14.5602 23.4694 14.5898 23.4644C14.9117 23.4092 15.3391 23.3361 15.7882 23.3191C16.2658 23.3011 16.7419 23.2376 17.2881 23.1649C17.4468 23.1437 17.6113 23.1218 17.7836 23.1C18.5676 23.0006 19.3092 22.9288 20.0251 22.8595C21.3863 22.7278 22.6543 22.6051 23.943 22.3188C24.1045 22.2829 24.2807 22.2399 24.4689 22.1941C25.2455 22.0048 26.2267 21.7656 27.2296 21.7656C27.3254 21.7656 27.4026 21.7475 27.5273 21.6227C27.9769 21.1731 28.4957 20.7537 29.0544 20.4101C29.0576 20.4076 29.0778 20.3925 29.119 20.3558C29.1699 20.3103 29.2192 20.2627 29.2914 20.193C29.3086 20.1765 29.3271 20.1586 29.3472 20.1393C29.4371 20.0527 29.5649 19.9307 29.7055 19.816C29.7965 19.7418 29.9177 19.6497 30.0651 19.5624C30.073 19.5501 30.0814 19.5369 30.0911 19.5218C30.0978 19.5114 30.105 19.5001 30.1131 19.4875C30.141 19.4441 30.178 19.3867 30.219 19.3271C30.2956 19.2155 30.4251 19.0368 30.6076 18.8674C30.6777 18.8023 30.7703 18.6865 30.9134 18.4578C30.9423 18.4116 30.9842 18.3418 31.0335 18.2599C31.1469 18.0709 31.2994 17.817 31.4224 17.636C32.1178 16.6121 32.4165 15.8384 32.6852 14.6024C32.6865 14.5968 32.6877 14.5911 32.6889 14.5855C31.7882 14.7885 30.8689 14.9171 30.0551 15.031C29.7245 15.0772 29.4112 15.1211 29.1238 15.1664C27.8407 15.369 26.5921 15.5416 25.3607 15.7117C23.2325 16.0057 21.156 16.2926 19.0426 16.7153C17.0652 17.1108 15.0648 17.3429 13.1255 17.568C12.3649 17.6562 11.6138 17.7434 10.877 17.8389C10.4195 17.8982 9.98695 17.9726 9.52017 18.053C9.23564 18.102 8.93839 18.1531 8.615 18.2044C7.81539 18.3311 6.93619 18.4426 6.04215 18.426C5.70082 18.4197 5.36292 18.3809 5.06478 18.3382ZM3.03601 26.631C3.03601 26.631 3.03611 26.6302 3.03632 26.6288L3.03601 26.631ZM6.05586 26.7007C6.05599 26.701 6.05476 26.707 6.05177 26.7178C6.05423 26.7057 6.05573 26.7003 6.05586 26.7007Z" fill="white"/>
<path d="M32.6926 21.0245C33.0344 20.6962 33.2808 20.3301 33.4566 20.0491C33.5584 19.8864 33.6275 19.7697 33.6862 19.6707C33.7606 19.5452 33.8182 19.448 33.904 19.3216C34.8506 17.9281 35.2811 16.7836 35.6168 15.2397C35.703 14.843 35.7577 14.5351 35.8038 14.2754C35.9002 13.7325 35.9592 13.4002 36.191 12.9076C36.2576 12.7661 36.3671 12.4763 36.3244 12.0996C36.2752 11.6651 36.0463 11.3104 35.7537 11.0832C35.5036 10.8889 35.2564 10.8233 35.1351 10.7983C35.0008 10.7707 34.8903 10.7673 34.8273 10.7675C34.6306 10.7682 34.4737 10.8101 34.4563 10.8148L34.4549 10.8151C34.3755 10.8353 34.309 10.8592 34.2888 10.8664L34.2876 10.8668C34.2298 10.8876 34.1661 10.9129 34.1147 10.9337C34.0046 10.9784 33.861 11.0389 33.7229 11.0975C33.6701 11.1199 33.6181 11.142 33.5674 11.1635C33.4799 11.2007 33.3966 11.2361 33.3208 11.2681C33.2055 11.3167 33.1485 11.3398 33.1346 11.3454C33.1321 11.3464 33.131 11.3469 33.1312 11.3468C32.1457 11.7027 31.0517 11.8575 29.8351 12.0296C29.4542 12.0835 29.0613 12.1391 28.6559 12.2032C27.4964 12.3862 26.3017 12.5518 25.0914 12.7195C22.8923 13.0242 20.6413 13.3362 18.4543 13.7736C16.6046 14.1435 14.7945 14.3535 12.9046 14.5726C12.117 14.664 11.3154 14.7569 10.4914 14.8638C9.98243 14.9297 9.43072 15.0242 8.91516 15.1126C8.64481 15.1589 8.38441 15.2035 8.14533 15.2414C7.396 15.3602 6.7242 15.4382 6.09769 15.4266C5.82625 15.4215 5.53193 15.3765 5.10578 15.3096L5.08849 15.3069C4.95379 15.2857 4.80366 15.2622 4.64305 15.2405C4.50162 14.4431 3.74951 13.8989 2.94371 14.0198C2.12445 14.1427 1.55993 14.9065 1.68282 15.7257C2.10676 18.552 2.39997 21.3656 2.69867 24.232C2.787 25.0797 2.87582 25.9319 2.96864 26.7905C2.97866 26.8832 2.98935 26.9744 3.0012 27.0521C3.00678 27.0888 3.01645 27.1483 3.03172 27.2145C3.03927 27.2472 3.05309 27.3032 3.07542 27.3698C3.09048 27.4146 3.14258 27.5687 3.25686 27.7385C3.31116 27.8192 3.7647 28.4875 4.65828 28.3956C5.42848 28.3164 5.76528 27.7242 5.80389 27.6563C5.80485 27.6547 5.80561 27.6533 5.80621 27.6523C5.89367 27.5013 5.93443 27.3691 5.94744 27.326C5.96555 27.2661 5.97679 27.216 5.98293 27.1867C5.9934 27.1368 6.00154 27.0858 6.00737 27.0448C6.23142 27.0179 6.43883 26.9847 6.61111 26.957C6.69803 26.9431 6.77601 26.9306 6.84267 26.9211C7.34159 26.8498 7.86666 26.8264 8.4529 26.8149C8.59636 26.8121 8.74678 26.81 8.90188 26.8079C9.35004 26.8017 9.83726 26.795 10.3084 26.7685C10.7591 26.7432 11.1727 26.7116 11.5678 26.6814C12.2833 26.6268 12.9385 26.5768 13.6454 26.5768C14.1697 26.5768 14.6461 26.4977 15.0053 26.4368L15.0475 26.4297C15.4156 26.3672 15.6574 26.3262 15.9013 26.317C16.5363 26.293 17.1987 26.2042 17.7632 26.1285C17.9023 26.1099 18.0355 26.092 18.1608 26.0761C18.7566 26.0006 19.4011 25.9375 20.0707 25.872C21.5406 25.728 23.1316 25.5723 24.5938 25.2473C24.8803 25.1837 25.1367 25.122 25.3727 25.0653C26.0912 24.8926 26.6199 24.7656 27.2296 24.7656C28.1916 24.7656 29.0132 24.3795 29.6486 23.7441C29.9482 23.4444 30.2863 23.1739 30.6303 22.9628C30.8309 22.8398 30.9975 22.7003 31.1169 22.5936C31.2159 22.5053 31.3161 22.4085 31.3894 22.3376C31.4031 22.3244 31.4159 22.312 31.4275 22.3008C31.5116 22.2199 31.5608 22.1747 31.5962 22.1453C31.8848 22.0032 32.0912 21.8143 32.228 21.6654C32.3733 21.5072 32.4823 21.3468 32.548 21.247C32.5964 21.1735 32.6197 21.1365 32.6372 21.1089C32.6549 21.0809 32.667 21.0618 32.6926 21.0245ZM32.6926 21.0245C32.6928 21.0242 32.6925 21.0247 32.6926 21.0245ZM6.09645 26.6692C6.09644 26.6692 6.0961 26.6698 6.09544 26.6709M31.6191 22.1273C31.6191 22.1273 31.6178 22.1283 31.6151 22.1302M32.7079 21.0032C32.7079 21.0032 32.7073 21.004 32.7062 21.0055M5.68704 23.9632C5.49253 22.0962 5.29692 20.2185 5.06478 18.3382C5.36292 18.3809 5.70081 18.4197 6.04215 18.426C6.93619 18.4426 7.81539 18.3311 8.615 18.2044C8.93839 18.1531 9.23564 18.102 9.52017 18.053C9.98695 17.9726 10.4195 17.8982 10.877 17.8389C11.6138 17.7434 12.3649 17.6562 13.1255 17.568C15.0648 17.3429 17.0652 17.1108 19.0426 16.7153C21.156 16.2926 23.2325 16.0057 25.3607 15.7117C26.5921 15.5416 27.8407 15.369 29.1238 15.1664C29.4112 15.1211 29.7245 15.0772 30.0551 15.031C30.8689 14.9171 31.7882 14.7885 32.6889 14.5855C32.6877 14.5911 32.6865 14.5968 32.6852 14.6024C32.4165 15.8384 32.1178 16.6121 31.4224 17.636C31.2994 17.817 31.1469 18.0709 31.0335 18.2599C30.9842 18.3418 30.9423 18.4116 30.9134 18.4578C30.7703 18.6865 30.6777 18.8023 30.6076 18.8674C30.4251 19.0368 30.2956 19.2155 30.219 19.3271C30.178 19.3867 30.141 19.4441 30.1131 19.4875C30.105 19.5001 30.0978 19.5114 30.0911 19.5218C30.0814 19.5369 30.073 19.5501 30.0651 19.5624C29.9177 19.6497 29.7965 19.7418 29.7055 19.816C29.5649 19.9307 29.4371 20.0527 29.3472 20.1393C29.3271 20.1586 29.3086 20.1765 29.2914 20.193C29.2192 20.2627 29.1699 20.3103 29.119 20.3558C29.0778 20.3925 29.0576 20.4076 29.0544 20.4101C28.4957 20.7537 27.9769 21.1731 27.5273 21.6227C27.4026 21.7475 27.3254 21.7656 27.2296 21.7656C26.2267 21.7656 25.2455 22.0048 24.4689 22.1941C24.2807 22.2399 24.1045 22.2829 23.943 22.3188C22.6543 22.6051 21.3863 22.7278 20.0251 22.8595C19.3092 22.9288 18.5676 23.0006 17.7836 23.1C17.6113 23.1218 17.4468 23.1437 17.2881 23.1649C16.7419 23.2376 16.2658 23.3011 15.7882 23.3191C15.3391 23.3361 14.9117 23.4092 14.5898 23.4644C14.5602 23.4694 14.5315 23.4743 14.5038 23.479C14.1414 23.5405 13.8898 23.5768 13.6454 23.5768C12.831 23.5768 11.9712 23.6415 11.1831 23.7009C10.8159 23.7285 10.4643 23.755 10.1401 23.7732C9.73735 23.7958 9.34523 23.8013 8.91814 23.8072C8.74984 23.8095 8.57611 23.8119 8.39417 23.8155C7.7788 23.8275 7.10482 23.8532 6.4184 23.9512C6.24562 23.9759 6.10311 23.9984 5.97975 24.0179C5.87379 24.0346 5.78196 24.0491 5.69721 24.0609C5.69382 24.0283 5.69043 23.9958 5.68704 23.9632ZM3.03601 26.631C3.03601 26.631 3.03611 26.6302 3.03632 26.6288L3.03601 26.631ZM6.05586 26.7007C6.05599 26.701 6.05476 26.707 6.05177 26.7178C6.05423 26.7057 6.05573 26.7003 6.05586 26.7007Z" stroke="black" stroke-linecap="round"/>
</svg>
