<svg width="38" height="38" viewBox="0 0 38 38" fill="none" xmlns="http://www.w3.org/2000/svg">
<mask id="path-1-outside-1_619_88" maskUnits="userSpaceOnUse" x="6.78442" y="1.61603" width="24" height="36" fill="black">
<rect fill="white" x="6.78442" y="1.61603" width="24" height="36"/>
<path fill-rule="evenodd" clip-rule="evenodd" d="M12.392 2.61603H16.252V7.68414H20.8511V2.61603H24.711V7.68414H29.5288V10.6046L24.711 16.1385V26.9001H29.5565V30.9569H24.711V36.025H20.8511V30.9569H16.252V36.025H12.392V30.9569H7.81215V28.0364L12.392 22.7706V11.741H7.78442V7.68414H12.392V2.61603ZM20.8511 26.9001V20.5723L16.252 25.8551V26.9001H20.8511ZM20.8511 11.741V13.0445L16.252 18.3325V11.741H20.8511Z"/>
</mask>
<path fill-rule="evenodd" clip-rule="evenodd" d="M12.392 2.61603H16.252V7.68414H20.8511V2.61603H24.711V7.68414H29.5288V10.6046L24.711 16.1385V26.9001H29.5565V30.9569H24.711V36.025H20.8511V30.9569H16.252V36.025H12.392V30.9569H7.81215V28.0364L12.392 22.7706V11.741H7.78442V7.68414H12.392V2.61603ZM20.8511 26.9001V20.5723L16.252 25.8551V26.9001H20.8511ZM20.8511 11.741V13.0445L16.252 18.3325V11.741H20.8511Z" fill="white"/>
<path d="M16.252 2.61603H17.252V1.61603H16.252V2.61603ZM12.392 2.61603V1.61603H11.392V2.61603H12.392ZM16.252 7.68414H15.252V8.68414H16.252V7.68414ZM20.8511 7.68414V8.68414H21.8511V7.68414H20.8511ZM20.8511 2.61603V1.61603H19.8511V2.61603H20.8511ZM24.711 2.61603H25.711V1.61603H24.711V2.61603ZM24.711 7.68414H23.711V8.68414H24.711V7.68414ZM29.5288 7.68414H30.5288V6.68414H29.5288V7.68414ZM29.5288 10.6046L30.283 11.2612L30.5288 10.9789V10.6046H29.5288ZM24.711 16.1385L23.9568 15.4819L23.711 15.7642V16.1385H24.711ZM24.711 26.9001H23.711V27.9001H24.711V26.9001ZM29.5565 26.9001H30.5565V25.9001H29.5565V26.9001ZM29.5565 30.9569V31.9569H30.5565V30.9569H29.5565ZM24.711 30.9569V29.9569H23.711V30.9569H24.711ZM24.711 36.025V37.025H25.711V36.025H24.711ZM20.8511 36.025H19.8511V37.025H20.8511V36.025ZM20.8511 30.9569H21.8511V29.9569H20.8511V30.9569ZM16.252 30.9569V29.9569H15.252V30.9569H16.252ZM16.252 36.025V37.025H17.252V36.025H16.252ZM12.392 36.025H11.392V37.025H12.392V36.025ZM12.392 30.9569H13.392V29.9569H12.392V30.9569ZM7.81215 30.9569H6.81215V31.9569H7.81215V30.9569ZM7.81215 28.0364L7.05761 27.3802L6.81215 27.6624V28.0364H7.81215ZM12.392 22.7706L13.1466 23.4268L13.392 23.1446V22.7706H12.392ZM12.392 11.741H13.392V10.741H12.392V11.741ZM7.78442 11.741H6.78442V12.741H7.78442V11.741ZM7.78442 7.68414V6.68414H6.78442V7.68414H7.78442ZM12.392 7.68414V8.68414H13.392V7.68414H12.392ZM20.8511 26.9001V27.9001H21.8511V26.9001H20.8511ZM20.8511 20.5723H21.8511V17.9007L20.0968 19.9157L20.8511 20.5723ZM16.252 25.8551L15.4978 25.1985L15.252 25.4808V25.8551H16.252ZM16.252 26.9001H15.252V27.9001H16.252V26.9001ZM20.8511 13.0445L21.6056 13.7008L21.8511 13.4185V13.0445H20.8511ZM20.8511 11.741H21.8511V10.741H20.8511V11.741ZM16.252 18.3325H15.252V21.006L17.0065 18.9887L16.252 18.3325ZM16.252 11.741V10.741H15.252V11.741H16.252ZM16.252 1.61603H12.392V3.61603H16.252V1.61603ZM17.252 7.68414V2.61603H15.252V7.68414H17.252ZM20.8511 6.68414H16.252V8.68414H20.8511V6.68414ZM21.8511 7.68414V2.61603H19.8511V7.68414H21.8511ZM20.8511 3.61603H24.711V1.61603H20.8511V3.61603ZM23.711 2.61603V7.68414H25.711V2.61603H23.711ZM29.5288 6.68414H24.711V8.68414H29.5288V6.68414ZM30.5288 10.6046V7.68414H28.5288V10.6046H30.5288ZM25.4653 16.7951L30.283 11.2612L28.7745 9.94798L23.9568 15.4819L25.4653 16.7951ZM23.711 16.1385V26.9001H25.711V16.1385H23.711ZM29.5565 25.9001H24.711V27.9001H29.5565V25.9001ZM30.5565 30.9569V26.9001H28.5565V30.9569H30.5565ZM24.711 31.9569H29.5565V29.9569H24.711V31.9569ZM23.711 30.9569V36.025H25.711V30.9569H23.711ZM24.711 35.025H20.8511V37.025H24.711V35.025ZM21.8511 36.025V30.9569H19.8511V36.025H21.8511ZM16.252 31.9569H20.8511V29.9569H16.252V31.9569ZM17.252 36.025V30.9569H15.252V36.025H17.252ZM12.392 37.025H16.252V35.025H12.392V37.025ZM11.392 30.9569V36.025H13.392V30.9569H11.392ZM7.81215 31.9569H12.392V29.9569H7.81215V31.9569ZM6.81215 28.0364V30.9569H8.81215V28.0364H6.81215ZM11.6375 22.1143L7.05761 27.3802L8.5667 28.6927L13.1466 23.4268L11.6375 22.1143ZM11.392 11.741V22.7706H13.392V11.741H11.392ZM7.78442 12.741H12.392V10.741H7.78442V12.741ZM6.78442 7.68414V11.741H8.78442V7.68414H6.78442ZM12.392 6.68414H7.78442V8.68414H12.392V6.68414ZM11.392 2.61603V7.68414H13.392V2.61603H11.392ZM21.8511 26.9001V20.5723H19.8511V26.9001H21.8511ZM17.0062 26.5117L21.6053 21.2289L20.0968 19.9157L15.4978 25.1985L17.0062 26.5117ZM17.252 26.9001V25.8551H15.252V26.9001H17.252ZM20.8511 25.9001H16.252V27.9001H20.8511V25.9001ZM21.8511 13.0445V11.741H19.8511V13.0445H21.8511ZM17.0065 18.9887L21.6056 13.7008L20.0965 12.3883L15.4974 17.6762L17.0065 18.9887ZM15.252 11.741V18.3325H17.252V11.741H15.252ZM20.8511 10.741H16.252V12.741H20.8511V10.741Z" fill="#30883C" mask="url(#path-1-outside-1_619_88)"/>
</svg>
