<svg width="38" height="38" viewBox="0 0 38 38" fill="none" xmlns="http://www.w3.org/2000/svg">
<path fill-rule="evenodd" clip-rule="evenodd" d="M17.3521 5.81667H20.4981V13.5939C21.8633 14.4277 22.8202 16.3666 22.8202 18.6255V32.1833H15.1798V18.6255C15.1798 16.4502 16.0672 14.5716 17.3521 13.6909V5.81667Z" fill="white"/>
<path d="M20.4981 5.81667H20.8887V5.42606H20.4981V5.81667ZM17.3521 5.81667V5.42606H16.9615V5.81667H17.3521ZM20.4981 13.5939H20.1075V13.813L20.2945 13.9272L20.4981 13.5939ZM22.8202 32.1833V32.5739H23.2108V32.1833H22.8202ZM15.1798 32.1833H14.7892V32.5739H15.1798V32.1833ZM17.3521 13.6909L17.5729 14.0131L17.7427 13.8967V13.6909H17.3521ZM20.4981 5.42606H17.3521V6.20727H20.4981V5.42606ZM20.8887 13.5939V5.81667H20.1075V13.5939H20.8887ZM20.2945 13.9272C21.5094 14.6693 22.4296 16.4573 22.4296 18.6255H23.2108C23.2108 16.2759 22.2172 14.1861 20.7017 13.2605L20.2945 13.9272ZM23.2108 32.1833V18.6255H22.4296V32.1833H23.2108ZM15.1798 32.5739H22.8202V31.7927H15.1798V32.5739ZM14.7892 18.6255V32.1833H15.5704V18.6255H14.7892ZM15.5704 18.6255C15.5704 16.5398 16.423 14.8013 17.5729 14.0131L17.1312 13.3687C15.7114 14.3419 14.7892 16.3606 14.7892 18.6255H15.5704ZM16.9615 5.81667V13.6909H17.7427V5.81667H16.9615Z" fill="#121212"/>
<rect x="15.1798" y="20.573" width="7.64034" height="8.98864" fill="white" stroke="#121212" stroke-width="0.781206"/>
</svg>
