<svg width="38" height="38" viewBox="0 0 38 38" fill="none" xmlns="http://www.w3.org/2000/svg">
<rect x="14.35" y="8.35" width="10.3" height="22.3" fill="#565555" stroke="black" stroke-width="0.7"/>
<path d="M12.3888 35.65L13.3151 26.85H25.6849L26.6112 35.65H12.3888Z" fill="white" stroke="black" stroke-width="0.7"/>
<rect x="13.35" y="5.35" width="12.3" height="3.3" fill="white" stroke="black" stroke-width="0.7"/>
<mask id="path-4-inside-1_619_3" fill="white">
<path fill-rule="evenodd" clip-rule="evenodd" d="M21.9556 14L21.6003 13.0179L19.8657 13.6456L18.2801 12.7029L17.509 14H16V15.0444L15.0179 15.3997L15.6456 17.1343L14.7029 18.7199L16 19.491V21H17.0444L17.3997 21.9821L19.1343 21.3544L20.7199 22.2971L21.491 21H23V19.9556L23.9821 19.6003L23.3544 17.8657L24.2971 16.2801L23 15.509V14H21.9556Z"/>
</mask>
<path fill-rule="evenodd" clip-rule="evenodd" d="M21.9556 14L21.6003 13.0179L19.8657 13.6456L18.2801 12.7029L17.509 14H16V15.0444L15.0179 15.3997L15.6456 17.1343L14.7029 18.7199L16 19.491V21H17.0444L17.3997 21.9821L19.1343 21.3544L20.7199 22.2971L21.491 21H23V19.9556L23.9821 19.6003L23.3544 17.8657L24.2971 16.2801L23 15.509V14H21.9556Z" fill="white"/>
<path d="M21.6003 13.0179L22.5406 12.6777L22.2004 11.7374L21.26 12.0776L21.6003 13.0179ZM21.9556 14L21.0153 14.3403L21.254 15H21.9556V14ZM19.8657 13.6456L19.3547 14.5051L19.7612 14.7468L20.206 14.5859L19.8657 13.6456ZM18.2801 12.7029L18.7912 11.8434L17.9316 11.3323L17.4206 12.1919L18.2801 12.7029ZM17.509 14V15H18.0779L18.3686 14.511L17.509 14ZM16 14V13H15V14H16ZM16 15.0444L16.3403 15.9847L17 15.746V15.0444H16ZM15.0179 15.3997L14.6777 14.4594L13.7374 14.7996L14.0776 15.74L15.0179 15.3997ZM15.6456 17.1343L16.5051 17.6453L16.7468 17.2388L16.5859 16.794L15.6456 17.1343ZM14.7029 18.7199L13.8434 18.2088L13.3323 19.0684L14.1919 19.5794L14.7029 18.7199ZM16 19.491H17V18.9221L16.511 18.6314L16 19.491ZM16 21H15V22H16V21ZM17.0444 21L17.9847 20.6597L17.746 20H17.0444V21ZM17.3997 21.9821L16.4594 22.3223L16.7996 23.2626L17.74 22.9224L17.3997 21.9821ZM19.1343 21.3544L19.6453 20.4949L19.2388 20.2532L18.794 20.4141L19.1343 21.3544ZM20.7199 22.2971L20.2088 23.1566L21.0684 23.6677L21.5794 22.8081L20.7199 22.2971ZM21.491 21V20H20.9221L20.6314 20.489L21.491 21ZM23 21V22H24V21H23ZM23 19.9556L22.6597 19.0153L22 19.254V19.9556H23ZM23.9821 19.6003L24.3223 20.5406L25.2626 20.2004L24.9224 19.26L23.9821 19.6003ZM23.3544 17.8657L22.4949 17.3547L22.2532 17.7612L22.4141 18.206L23.3544 17.8657ZM24.2971 16.2801L25.1566 16.7912L25.6677 15.9316L24.8081 15.4206L24.2971 16.2801ZM23 15.509H22V16.0779L22.489 16.3686L23 15.509ZM23 14H24V13H23V14ZM20.6599 13.3582L21.0153 14.3403L22.896 13.6597L22.5406 12.6777L20.6599 13.3582ZM20.206 14.5859L21.9405 13.9583L21.26 12.0776L19.5255 12.7053L20.206 14.5859ZM20.3767 12.786L18.7912 11.8434L17.7691 13.5625L19.3547 14.5051L20.3767 12.786ZM17.4206 12.1919L16.6494 13.489L18.3686 14.511L19.1397 13.214L17.4206 12.1919ZM17.509 13H16V15H17.509V13ZM15 14V15.0444H17V14H15ZM15.3582 16.3401L16.3403 15.9847L15.6597 14.104L14.6777 14.4594L15.3582 16.3401ZM16.5859 16.794L15.9583 15.0595L14.0776 15.74L14.7053 17.4745L16.5859 16.794ZM14.786 16.6232L13.8434 18.2088L15.5625 19.2309L16.5051 17.6453L14.786 16.6232ZM14.1919 19.5794L15.489 20.3506L16.511 18.6314L15.214 17.8603L14.1919 19.5794ZM15 19.491V21H17V19.491H15ZM16 22H17.0444V20H16V22ZM18.3401 21.6418L17.9847 20.6597L16.104 21.3403L16.4594 22.3223L18.3401 21.6418ZM18.794 20.4141L17.0595 21.0417L17.74 22.9224L19.4745 22.2948L18.794 20.4141ZM18.6233 22.214L20.2088 23.1566L21.2309 21.4375L19.6453 20.4949L18.6233 22.214ZM21.5794 22.8081L22.3506 21.511L20.6314 20.489L19.8603 21.786L21.5794 22.8081ZM21.491 22H23V20H21.491V22ZM24 21V19.9556H22V21H24ZM23.6418 18.6599L22.6597 19.0153L23.3403 20.896L24.3223 20.5406L23.6418 18.6599ZM22.4141 18.206L23.0417 19.9405L24.9224 19.26L24.2948 17.5255L22.4141 18.206ZM24.214 18.3767L25.1566 16.7912L23.4375 15.7691L22.4949 17.3547L24.214 18.3767ZM24.8081 15.4206L23.511 14.6494L22.489 16.3686L23.786 17.1397L24.8081 15.4206ZM24 15.509V14H22V15.509H24ZM23 13H21.9556V15H23V13Z" fill="black" mask="url(#path-4-inside-1_619_3)"/>
</svg>
