<svg width="38" height="38" viewBox="0 0 38 38" fill="none" xmlns="http://www.w3.org/2000/svg">
<path d="M19 24.0424L21.9772 26.9872L19 29.9319L16.0228 26.9872L19 24.0424ZM19 20.7807L12.7252 26.9872L19 33.1937L25.2748 26.9872L19 20.7807Z" fill="white" stroke="black" stroke-width="0.7" stroke-miterlimit="10"/>
<path d="M19 28.7011C25.4736 28.7011 30.7215 23.4532 30.7215 16.9796C30.7215 10.5061 25.4736 5.25821 19 5.25821C12.5264 5.25821 7.27856 10.5061 7.27856 16.9796C7.27856 23.4532 12.5264 28.7011 19 28.7011Z" fill="white" stroke="black" stroke-width="0.7" stroke-miterlimit="10"/>
<path d="M16.2908 13.2949C17.6658 15.0295 25.9215 22.1753 26.0672 22.7861C26.207 23.397 25.5428 24.0539 25.5428 24.0539C25.5428 24.0539 24.8786 24.7109 24.2669 24.5668C23.6493 24.4285 16.4306 16.2627 14.6711 14.8969C12.0843 15.0583 10.7151 13.1508 10.5578 11.7677C10.6918 11.6294 10.8783 11.4566 10.9657 11.3644C11.7289 12.8396 12.731 12.7013 13.4301 12.0732C14.071 11.3759 14.2109 10.3847 12.7193 9.62977C12.8126 9.54909 12.9815 9.35892 13.1214 9.23214C14.5255 9.38197 16.4539 10.7362 16.2908 13.2949Z" fill="black"/>
<path d="M23.9989 13.4908C22.2452 14.8508 13.5641 24.4285 12.9524 24.5668C12.3348 24.7051 11.6706 24.0482 11.6706 24.0482C11.6706 24.0482 11.0064 23.3912 11.1521 22.7861C11.2919 22.1753 20.9692 13.5888 22.3501 11.8542C22.7404 10.7881 21.6451 9.81417 20.7537 9.65282L21.1382 9.04197C21.1382 9.04197 23.5619 9.83146 24.8495 11.0186C25.5545 11.6525 27.4247 13.7271 27.4247 13.7271L25.8399 15.1159C25.8399 15.1159 24.3426 13.7674 24.0105 13.4908H23.9989Z" fill="black"/>
</svg>
