<svg width="38" height="38" viewBox="0 0 38 38" fill="none" xmlns="http://www.w3.org/2000/svg">
<path d="M19 30.7214C25.4736 30.7214 30.7214 25.4736 30.7214 19C30.7214 12.5264 25.4736 7.27856 19 7.27856C12.5264 7.27856 7.27855 12.5264 7.27855 19C7.27855 25.4736 12.5264 30.7214 19 30.7214Z" fill="white" stroke="black" stroke-width="0.7" stroke-miterlimit="10"/>
<path d="M16.2908 15.3152C17.6658 17.0498 25.9215 24.1956 26.0671 24.8065C26.207 25.4173 25.5428 26.0743 25.5428 26.0743C25.5428 26.0743 24.8786 26.7313 24.2669 26.5872C23.6493 26.4489 16.4306 18.2831 14.6711 16.9173C12.0843 17.0786 10.7151 15.1712 10.5578 13.7881C10.6918 13.6498 10.8783 13.4769 10.9656 13.3847C11.7289 14.86 12.731 14.7217 13.4301 14.0935C14.071 13.3962 14.2108 12.405 12.7193 11.6501C12.8126 11.5694 12.9815 11.3793 13.1213 11.2525C14.5255 11.4023 16.4539 12.7566 16.2908 15.3152Z" fill="black"/>
<path d="M23.9988 15.5112C22.2452 16.8712 13.5641 26.4489 12.9524 26.5872C12.3348 26.7255 11.6706 26.0685 11.6706 26.0685C11.6706 26.0685 11.0064 25.4116 11.1521 24.8065C11.2919 24.1956 20.9692 15.6091 22.35 13.8745C22.7404 12.8084 21.6451 11.8345 20.7537 11.6732L21.1382 11.0623C21.1382 11.0623 23.5619 11.8518 24.8495 13.0389C25.5544 13.6728 27.4247 15.7474 27.4247 15.7474L25.8399 17.1363C25.8399 17.1363 24.3426 15.7878 24.0105 15.5112H23.9988Z" fill="black"/>
</svg>
