<svg width="38" height="38" viewBox="0 0 38 38" fill="none" xmlns="http://www.w3.org/2000/svg">
<path d="M4.216 24.5627V4.56532C4.216 4.28918 4.43986 4.06532 4.716 4.06532H33.284C33.5601 4.06532 33.784 4.28918 33.784 4.56532V24.5627L19.0589 33.8689L4.216 24.5627Z" fill="black" stroke="#FFB904"/>
<circle cx="18.4726" cy="17.7185" r="9.68905" stroke="#FFB904" stroke-width="0.5"/>
<circle cx="18.4726" cy="17.7185" r="8.05016" stroke="#FFB904" stroke-width="0.5"/>
<path d="M8.12482 17.651L28.8253 17.651" stroke="#FFB904" stroke-width="0.5" stroke-linecap="round"/>
<path d="M18.4751 27.8786L18.4751 7.17805" stroke="#FFB904" stroke-width="0.5" stroke-linecap="round"/>
<path d="M19.6372 6.00727L19.6128 5.86104H19.4645H18.0142H17.7553L17.8518 6.10125L20.3314 12.2769L20.6664 12.1829L19.6372 6.00727ZM21.8506 5.86104H21.679L21.6756 6.03259L21.5353 13.1439L21.8723 13.2135L24.773 6.10214L24.8713 5.86104H24.6109H21.8506ZM26.9268 5.86104H26.8246L26.7744 5.95001L22.0329 14.3485L22.3087 14.5586L30.7463 6.16007L31.0467 5.86104H30.6228H26.9268ZM31.3271 11.3843L31.4354 11.3396V11.2225V8.50138V8.15621L31.157 8.36021L22.6569 14.588L22.8271 14.8909L31.3271 11.3843ZM31.2542 16.0542L31.4354 16.0606V15.8793V13.8875V13.668L31.2214 13.7169L23.6751 15.4422L23.708 15.7877L31.2542 16.0542ZM31.1696 21.0925L31.4354 21.2538V20.9429V18.5864V18.4529L31.3066 18.4176L24.2372 16.482L24.1002 16.8004L31.1696 21.0925Z" fill="#FFB904" stroke="black" stroke-width="0.35"/>
<path d="M23.5385 16.9742L23.5279 16.3744C23.3878 16.3744 23.1258 16.3348 22.8985 16.2672C22.8134 16.2419 22.7436 16.2156 22.6923 16.1912C22.6956 16.1848 22.6992 16.1781 22.7031 16.1713C22.7375 16.1121 22.8122 16.0201 22.9836 15.9286L23.9488 15.4139L22.8561 15.3643C22.6867 15.3566 22.4718 15.4193 22.3243 15.4708C22.2427 15.4993 22.1648 15.5306 22.1007 15.5598C22.0624 15.5772 22.0065 15.6036 21.9582 15.6359C21.9444 15.6399 21.9234 15.645 21.8964 15.6496C21.8323 15.6606 21.7527 15.6658 21.677 15.6567C21.6001 15.6475 21.5454 15.626 21.5107 15.5995C21.4834 15.5786 21.4526 15.5433 21.438 15.4632C21.4133 15.2857 21.3989 14.9257 21.4219 14.5471C21.4458 14.1544 21.5069 13.8039 21.6011 13.619L21.1631 13.2361C21.0807 13.2931 21.0146 13.3845 20.9727 13.4467C20.9364 13.5006 20.8998 13.5616 20.8647 13.6244C20.8575 13.4316 20.8262 13.1965 20.7454 12.8956L20.1556 12.9735C20.1556 13.1656 20.0879 13.316 20.0225 13.3884C20.0103 13.4019 20.0002 13.4105 19.9927 13.416C19.8121 13.2839 19.3589 13.037 18.8258 12.8235C18.2771 12.6038 17.5946 12.3991 16.988 12.4044C16.3855 12.4097 15.7915 12.5908 15.3071 12.8017C14.8219 13.0129 14.4254 13.2632 14.2125 13.4282C14.0264 13.5724 13.4982 13.9556 12.9787 14.3191C12.7197 14.5004 12.4655 14.6749 12.2596 14.8107C12.1565 14.8787 12.0672 14.9359 11.9964 14.979C11.9609 15.0006 11.9316 15.0177 11.9083 15.0305C11.8968 15.0369 11.8876 15.0418 11.8805 15.0453L11.8723 15.0493C11.8706 15.0501 11.8698 15.0504 11.8697 15.0504C11.8697 15.0504 11.8697 15.0504 11.8697 15.0504C11.8577 15.0554 11.8449 15.0606 11.8313 15.066C11.7208 15.1105 11.5631 15.1739 11.4478 15.2947C11.3008 15.4489 11.2495 15.6528 11.2335 15.8938C11.205 16.3213 11.1093 17.3743 11.0805 17.6721C11.0724 17.7552 10.9907 18.0196 10.7928 18.3087C10.6004 18.5899 10.3215 18.8593 9.95003 18.9951L9.59458 19.1251L9.80222 19.4415C9.92054 19.6218 10.1597 20.11 10.1663 20.5688C10.1696 20.8021 10.0604 20.9983 9.9041 21.2132C9.88262 21.2427 9.8582 21.2752 9.8327 21.3092C9.77649 21.384 9.71505 21.4658 9.66843 21.5379C9.59897 21.6453 9.51764 21.7942 9.51291 21.9689L9.4979 22.5243L9.97055 22.2322C10.1684 22.1098 10.3073 22.1222 10.385 22.1544C10.4694 22.1894 10.5294 22.2658 10.5457 22.3567L10.6528 22.9536L11.0623 22.5062C11.2805 22.2678 11.4361 22.2473 11.4998 22.2538C11.5353 22.2574 11.5607 22.2701 11.5773 22.2835C11.5857 22.2903 11.5917 22.2971 11.5956 22.3028C11.5975 22.3055 11.5988 22.3078 11.5996 22.3095C11.6004 22.3112 11.6007 22.3121 11.6007 22.312L11.7495 22.8143L12.1074 22.4318C12.1367 22.4005 12.1909 22.3773 12.3023 22.4115C12.3546 22.4276 12.4033 22.4529 12.4389 22.4781C12.4564 22.4906 12.4672 22.5005 12.4721 22.5057C12.4738 22.5075 12.4745 22.5084 12.4745 22.5084C12.4744 22.5084 12.467 22.4997 12.4591 22.4816L13.0339 22.3613C13.0339 22.4208 13.0107 22.4668 12.9893 22.494C12.9701 22.5183 12.9531 22.5276 12.9522 22.5281C12.9501 22.5292 12.9541 22.5268 12.9658 22.5235C12.9769 22.5203 12.9916 22.5173 13.0088 22.5153C13.0439 22.5114 13.0764 22.5134 13.0981 22.5181L13.4407 22.9397L13.5977 22.3903C13.5989 22.3892 13.6008 22.3875 13.6039 22.3853C13.6172 22.3757 13.6431 22.3632 13.6816 22.3564C13.7194 22.3496 13.7588 22.3503 13.7922 22.3571C13.8265 22.3641 13.8423 22.375 13.8455 22.3777L14.2762 22.747L14.3389 22.1831C14.3462 22.1176 14.3545 22.0131 14.357 21.904C14.3593 21.8009 14.3572 21.6685 14.3343 21.5597L14.3198 21.4909C14.3879 21.4863 14.4553 21.4798 14.522 21.4711L14.5512 21.666C14.5727 21.8096 14.6117 22.0385 14.6594 22.2626C14.7049 22.4766 14.7651 22.72 14.8349 22.8714C14.8654 22.9374 14.9049 23.007 14.9358 23.0614C14.9451 23.0779 14.9537 23.093 14.961 23.1061C14.9986 23.1742 15.0173 23.2162 15.0252 23.2481C15.0312 23.2722 15.0287 23.2807 15.0256 23.2886C15.0204 23.3016 14.9997 23.3416 14.9206 23.4045L14.7752 23.5202L14.8139 23.7018C14.8377 23.8132 14.8291 23.8779 14.8192 23.9093C14.8108 23.9359 14.8004 23.9446 14.7911 23.9503C14.7611 23.9686 14.6593 23.9917 14.496 23.9212L14.1507 24.3935C14.1704 24.4162 14.1968 24.459 14.2162 24.5133C14.2356 24.5678 14.2408 24.6141 14.2381 24.6431C14.2376 24.6484 14.237 24.6523 14.2364 24.6551C14.2246 24.6597 14.1954 24.6675 14.1374 24.6655L13.4997 24.6439L13.8898 25.1488C13.9007 25.1629 13.9125 25.1866 13.9184 25.2145C13.919 25.2173 13.9195 25.22 13.9199 25.2226C13.9134 25.2217 13.9061 25.2205 13.8978 25.2189L13.3465 25.1086L13.5618 25.628C13.5805 25.6731 13.5786 25.7015 13.5749 25.7174C13.5709 25.7351 13.5608 25.7541 13.5416 25.7723C13.4963 25.8153 13.4353 25.8242 13.4022 25.8136L12.7048 25.5896L13.0414 26.232C13.0409 26.2322 13.0467 26.2514 13.044 26.2927C13.0408 26.341 13.0274 26.3907 13.0069 26.4285C12.9872 26.465 12.9678 26.479 12.9548 26.4846C12.9445 26.4891 12.9077 26.502 12.8229 26.4757L12.0414 26.2332L12.4809 26.9233C12.5526 27.036 12.6819 27.2047 12.8498 27.3705C13.0167 27.5354 13.2363 27.7121 13.4905 27.822C13.6734 27.9011 13.856 27.9197 14.0292 27.8828C14.1989 27.8467 14.3408 27.7614 14.4544 27.6618C14.6761 27.4676 14.8214 27.1923 14.901 26.9775C14.901 26.9775 14.9021 26.9746 14.9052 26.9683C14.9083 26.9621 14.9127 26.9538 14.9189 26.9434C14.9313 26.9222 14.9487 26.8956 14.9719 26.8633C15.0183 26.7986 15.082 26.7193 15.1616 26.6276C15.3205 26.4446 15.5328 26.224 15.7735 25.9911C16.2559 25.5243 16.8368 25.0231 17.3045 24.6909L17.3122 24.6854L17.3196 24.6795C17.5646 24.4811 17.6427 24.1622 17.6549 23.9139C17.6672 23.6638 17.6183 23.3797 17.4949 23.1891C17.4714 23.1527 17.3987 23.0069 17.295 22.7765C17.2923 22.7705 17.2896 22.7644 17.2868 22.7583C17.6536 22.783 18.2138 22.782 18.8008 22.7054C19.4195 22.6247 20.1042 22.4557 20.6206 22.1156L20.6308 22.1089L20.6404 22.1014C21.6984 21.2744 22.2791 20.1561 22.599 19.2001C22.9192 18.243 22.9848 17.4285 22.9997 17.1835C23.0007 17.1672 23.0103 17.1178 23.1436 17.059C23.2694 17.0035 23.4305 16.978 23.5385 16.9742ZM14.2345 24.6614C14.2344 24.6613 14.2346 24.6609 14.235 24.6601L14.2345 24.6614Z" fill="#FFB904" stroke="black" stroke-width="0.6"/>
<path d="M12.7258 17.1999C12.5234 17.3884 12.0559 17.9397 11.7209 17.7722C11.7953 17.8885 11.9414 18.1993 11.9303 18.5119C11.9163 18.9027 11.4836 19.2726 11.5046 19.6843C11.5743 19.5029 11.8395 19.2307 12.007 19.2377C12.1745 19.2447 12.0977 19.3284 12.5444 19.3284C13.0049 19.3284 13.647 18.9446 13.6958 18.1211C13.7447 17.2976 12.9282 17.0115 12.7258 17.1999Z" fill="black"/>
<path d="M12.3316 24.6521L11.9216 23.8442H10.0422L8.40686 22.2992L14.3186 22.4041L14.6831 23.6392L12.2472 26.5936L11.3428 25.7253L12.3316 24.6521Z" fill="black"/>
<path d="M10.2751 22.0831C9.93022 22.03 10.0098 22.481 10.023 22.9586C10.2247 23.0966 10.5581 23.2018 10.6996 23.2372C10.704 23.0957 10.7102 22.7782 10.6996 22.6402C10.6863 22.4678 10.62 22.1361 10.2751 22.0831Z" fill="#FFB904"/>
<path d="M11.2568 22.2555C10.9915 22.229 10.9251 22.7198 10.9251 23.3035H11.6547C11.6592 23.2372 11.6654 23.0435 11.6547 22.7994C11.6415 22.4943 11.5221 22.282 11.2568 22.2555Z" fill="#FFB904"/>
<path d="M12.2321 22.3467C11.8417 22.3021 11.8864 22.9586 11.8864 23.3035H12.5891C12.5742 23.1885 12.5444 22.9268 12.5444 22.7994C12.5444 22.6402 12.6225 22.3913 12.2321 22.3467Z" fill="#FFB904"/>
<path d="M12.8181 23.3035L13.4424 22.985C13.4164 22.9086 13.3332 22.7022 13.2083 22.4876C13.0523 22.2193 12.8181 22.5412 12.8181 22.7265V23.3035Z" fill="#FFB904"/>
<path d="M13.5741 22.3467C13.5468 22.4837 13.5855 22.7806 13.6083 22.9119L14.135 22.5656C14.109 22.5266 14.0404 22.4282 13.9741 22.3467C13.8912 22.2448 13.6083 22.1754 13.5741 22.3467Z" fill="#FFB904"/>
<path d="M14.4374 24.0337C14.3672 23.9908 14.1838 23.8467 14.1009 23.7801C14.1675 23.6988 14.3204 23.5186 14.3984 23.4484C14.4959 23.3606 14.8081 23.4142 14.8325 23.5362C14.8569 23.6581 14.8374 23.8874 14.7642 23.9703C14.691 24.0532 14.5252 24.0873 14.4374 24.0337Z" fill="#FFB904"/>
<path d="M13.5449 24.2971L13.9741 23.8922C14.0163 23.9508 14.1175 24.0912 14.1838 24.1849C14.2667 24.3019 14.3448 24.5312 14.2862 24.6238C14.2277 24.7165 13.9741 24.6287 13.8912 24.5604C13.8248 24.5058 13.6327 24.3621 13.5449 24.2971Z" fill="#FFB904"/>
<path d="M13.4668 24.4431L13.1425 24.7886C13.193 24.8546 13.3443 25.0186 13.5449 25.1466C13.6692 25.2267 13.8912 25.2056 13.9302 25.1466C13.9693 25.0877 13.9429 24.8981 13.8333 24.7886C13.7457 24.7009 13.5525 24.5218 13.4668 24.4431Z" fill="#FFB904"/>
<path d="M12.5891 25.3446C12.5103 25.2637 12.8297 25.0189 12.9992 24.9065C13.0582 24.9627 13.2116 25.1146 13.3531 25.273C13.53 25.471 13.7027 25.808 13.6396 25.8796C13.5764 25.9512 13.3236 25.9555 13.1762 25.8796C13.0287 25.8038 12.9992 25.7954 12.5891 25.3446Z" fill="#FFB904"/>
<path d="M12.4347 25.4457L12.0177 25.9175C12.1567 26.0524 12.5249 26.3894 12.7338 26.4568C12.995 26.541 13.0751 26.2335 12.9992 26.124C12.9234 26.0144 12.6201 25.6185 12.4347 25.4457Z" fill="#FFB904"/>
</svg>
