<svg width="38" height="38" viewBox="0 0 38 38" fill="none" xmlns="http://www.w3.org/2000/svg">
<path d="M4.13022 24.5627V4.56532C4.13022 4.28918 4.35408 4.06532 4.63022 4.06532H33.1982C33.4743 4.06532 33.6982 4.28918 33.6982 4.56532V24.5627L18.9731 33.8689L4.13022 24.5627Z" fill="#A92004" stroke="#FFBA00"/>
<path d="M18.5701 13.3378C21.596 13.3378 24.422 14.6918 26.3242 17.0523L27.726 18.7922L26.7625 19.5752C25.7694 20.3831 24.6599 21.0044 23.465 21.4222C22.3102 21.8257 21.1012 22.03 19.8731 22.03C16.5466 22.03 13.4403 20.542 11.3497 17.9474L10.5704 16.98L12.3011 15.5713C13.2045 14.8358 14.2139 14.2705 15.3008 13.8911C16.3518 13.5244 17.4514 13.3378 18.5694 13.3378M18.5694 12.3448C16.1471 12.3448 13.7085 13.1484 11.6793 14.7996L9.18069 16.8338L10.5817 18.573C12.9427 21.503 16.3927 23.0237 19.8731 23.0237C22.5135 23.0237 25.1723 22.1478 27.3843 20.3476L29.1157 18.9397L27.0914 16.4281C24.926 13.74 21.7611 12.3448 18.5687 12.3455L18.5694 12.3448Z" fill="white"/>
<path d="M19.1616 22.823C21.9464 22.823 24.2039 20.5544 24.2039 17.7559C24.2039 14.9575 21.9464 12.6888 19.1616 12.6888C16.3768 12.6888 14.1193 14.9575 14.1193 17.7559C14.1193 20.5544 16.3768 22.823 19.1616 22.823Z" fill="white"/>
<path d="M22.5058 17.4559C22.5128 17.4211 22.5192 17.3871 22.5234 17.3538C22.8304 15.582 21.6828 13.8748 19.919 13.5102C18.1551 13.1456 16.4294 14.2599 16.0158 16.0097C16.0073 16.0416 15.9996 16.0756 15.9925 16.1104C15.5606 18.2233 16.2558 18.5907 15.8994 18.8269C15.5429 19.0631 15.7173 19.4639 16.4068 19.6064L16.704 19.6681C16.98 19.7249 17.1578 19.9965 17.1014 20.2739L16.9835 20.8505C16.927 21.1278 17.1049 21.3988 17.3809 21.4562L19.132 21.8179C19.408 21.8747 19.6776 21.696 19.7347 21.4186L19.8526 20.842C19.9091 20.5647 20.1794 20.3859 20.4554 20.4427L20.7525 20.5044C21.4428 20.6469 21.7604 20.3476 21.5261 19.9894C21.2911 19.6312 22.0731 19.5688 22.5058 17.4559ZM16.9574 18.4255C16.596 18.351 16.404 17.9496 16.4647 17.6531C16.5254 17.3566 17.2362 16.6424 18.0909 16.819C18.9456 16.9956 18.8045 17.6814 18.8045 17.6814C18.6845 18.2666 17.7789 18.595 16.9574 18.4255ZM18.8461 19.2979C18.2476 19.7759 18.1198 19.3539 18.3775 19.0979C18.6358 18.8411 19.0049 18.5219 19.0049 18.5219C19.0049 18.5219 19.2181 18.9617 19.355 19.2993C19.4912 19.6376 19.2082 19.9745 18.8461 19.2979ZM20.924 19.2454C20.1025 19.0759 19.3995 18.4148 19.5188 17.8297C19.5188 17.8297 19.6592 17.1431 20.5133 17.3197C21.3673 17.4963 21.7407 18.4333 21.68 18.7312C21.6193 19.0291 21.2854 19.3206 20.924 19.2454Z" fill="#A92004"/>
<path d="M26.7597 15.4444H28.0175L28.2857 13.7421L30.4666 13.6577L30.617 12.4441V14.062L28.856 14.2308V16.304L27.7161 16.5062L26.7597 15.4444Z" fill="#FFBA00"/>
<path d="M23.249 12.8711L24.3112 13.5229L25.5972 12.5902L24.7693 10.6014L26.4244 9.44389L25.6974 7.96079L26.044 9.33183L23.9308 10.2759L24.5455 12.1299L23.249 12.8711Z" fill="#FFBA00"/>
<path d="M20.2408 11.8377L18.9774 11.7249L19.8611 10.6575L18.6534 8.84881L20.1406 7.23095L19.3133 5.85992L20.5655 7.26429L19.4362 8.94953L20.8781 10.6355L20.2408 11.8377Z" fill="#FFBA00"/>
<path d="M14.5054 12.6129L15.5224 12.1519V10.7589L13.4318 10.3993L13.4876 8.30905L11.9673 7.96079L13.1749 8.52254L12.906 10.7702L14.5054 11.2866V12.6129Z" fill="#FFBA00"/>
<path d="M11.3468 14.2925L10.5189 14.9103L10.0721 13.967L8.2829 13.9216L7.79095 11.9108H6.71741L8.04787 11.6405L8.74098 13.3378L10.6756 13.0676L11.3468 14.2925Z" fill="#FFBA00"/>
<path d="M9.66983 18.4113L10.5973 19.405H9.30069L8.92025 21.1576L6.7527 21.0016L6.51343 22.5017L6.54307 20.7193L8.48829 20.6186L8.6351 18.4063L9.66983 18.4113Z" fill="#FFBA00"/>
<path d="M12.9491 21.3633L14.1454 22.0938L12.6025 22.779L13.1947 24.5657L11.0144 25.487L11.3497 26.8467L10.6566 25.2962L12.5129 24.2962L11.697 22.3073L12.9491 21.3633Z" fill="#FFBA00"/>
<path d="M17.0971 23.1727L18.3605 23.4422L17.354 24.487L18.5172 26.4197L16.8959 27.9142L17.7062 29.2398L16.4936 27.7454L17.7232 26.2736L16.3588 24.3862L17.0971 23.1727Z" fill="#FFBA00"/>
<path d="M21.9164 23.2174V24.8466L23.9512 25.2962L23.7946 27.3411L25.1589 27.7794L24.1079 27.1836L24.6112 24.948L22.8445 24.2288L23.1014 22.8691L21.9164 23.2174Z" fill="#FFBA00"/>
<path d="M26.411 21.5208L27.4175 20.8583L27.5072 21.8286H29.2512L29.6204 23.9706L31.0624 24.1054L29.475 24.2621L28.9047 22.5598L26.9143 22.7343L26.411 21.5208Z" fill="#FFBA00"/>
</svg>
