<svg width="38" height="38" viewBox="0 0 38 38" fill="none" xmlns="http://www.w3.org/2000/svg">
<g clip-path="url(#clip0_1237_206)">
<path d="M22.9391 31.167C24.043 30.5677 24.7916 29.3612 25.0477 27.7697C25.2829 26.307 25.0501 24.7478 24.425 23.5964C24.419 23.5854 24.4134 23.5751 24.4075 23.5641L24.3856 23.5288L24.3884 23.5273L22.1493 19.403L13.5051 24.096L15.7443 28.2203L15.7464 28.2191L15.7647 28.2563C15.7707 28.2673 15.7763 28.2776 15.7823 28.2886C16.4074 29.44 17.5889 30.4842 18.9429 31.084C20.4171 31.7361 21.8367 31.7656 22.9406 31.1662L22.9391 31.167Z" fill="white" stroke="black" stroke-width="0.7"/>
<path d="M19.6955 23.1649L11.0638 7.26577L9.36329 8.18898L17.9958 24.0895L19.3132 24.5695L19.6955 23.1649Z" fill="white" stroke="black" stroke-width="0.7"/>
<path d="M7.4611 8.0647L12.0666 5.56435L12.9995 7.2828L8.39406 9.78315L7.4611 8.0647Z" fill="white" stroke="black" stroke-width="0.7"/>
<path d="M7.58048 31.2122L2.43686 34.4269L0.722364 36.5701H36.5132L34.37 31.2122L28.7978 26.2829L24.7258 27.9974H17.439L11.0095 26.2829L7.58048 31.2122Z" fill="white" stroke="black" stroke-width="0.7"/>
</g>
<defs>
<clipPath id="clip0_1237_206">
<rect width="38" height="38" fill="white"/>
</clipPath>
</defs>
</svg>
