<svg width="38" height="38" viewBox="0 0 38 38" fill="none" xmlns="http://www.w3.org/2000/svg">
<path d="M2.133 22.9359L20.3803 6.10254L33.847 12.7685L34.7615 14.7056L35.867 17.0779L20.3803 31.8975H17.9196L2.133 25.9659V24.3499V22.9359Z" fill="white"/>
<path d="M2.133 22.9359L20.3803 6.10254L33.847 12.7685M2.133 22.9359L18.6297 28.7939L33.847 12.7685M2.133 22.9359V24.3499M33.847 12.7685L34.7615 14.7056M2.133 24.3499C2.72554 24.8347 13.5817 28.591 19.0132 30.4539L34.7615 14.7056M2.133 24.3499V25.9659L17.9196 31.8975H20.3803L35.867 17.0779L34.7615 14.7056M20.3803 9.63112L25.8375 12.4308M17.9196 12.1683L27.0623 16.5429M15.3824 14.7056L22.994 18.3364M12.2764 17.0779L21.8567 21.4861M9.69547 19.605L19.4069 24.0437" stroke="black"/>
</svg>
