<svg width="38" height="38" viewBox="0 0 38 38" fill="none" xmlns="http://www.w3.org/2000/svg">
<rect x="13.35" y="5.35" width="17.3" height="25.3" fill="white" stroke="black" stroke-width="0.7"/>
<rect x="15" y="7" width="14" height="23" fill="black"/>
<path d="M20.5 33V7.5V6.5L28.5 9.5V30.5L20.5 33Z" fill="white" stroke="black" stroke-width="0.7"/>
<path d="M24.5 19.5C24.5 20.0523 24.0523 20.5 23.5 20.5C22.9477 20.5 22.5 20.0523 22.5 19.5C22.5 18.9477 22.9477 18.5 23.5 18.5C24.0523 18.5 24.5 18.9477 24.5 19.5Z" fill="black"/>
<mask id="path-5-outside-1_602_436" maskUnits="userSpaceOnUse" x="6.00003" y="10" width="13" height="20" fill="black">
<rect fill="white" x="6.00003" y="10" width="13" height="20"/>
<path fill-rule="evenodd" clip-rule="evenodd" d="M9.00003 11H11V14H13V12H15V14H18V16L15 18.6667V23H18V25H15V29H13V25H11V28H9.00003V25H7.00003V23L9.00003 21.2222V16H7.00003V14H9.00003V11ZM11 22.2222V23H13V20.4444L11 22.2222ZM13 17.6667L11 19.4444V16H13V17.6667Z"/>
</mask>
<path fill-rule="evenodd" clip-rule="evenodd" d="M9.00003 11H11V14H13V12H15V14H18V16L15 18.6667V23H18V25H15V29H13V25H11V28H9.00003V25H7.00003V23L9.00003 21.2222V16H7.00003V14H9.00003V11ZM11 22.2222V23H13V20.4444L11 22.2222ZM13 17.6667L11 19.4444V16H13V17.6667Z" fill="white"/>
<path d="M11 11H11.7V10.3H11V11ZM9.00003 11V10.3H8.30003V11H9.00003ZM11 14H10.3V14.7H11V14ZM13 14V14.7H13.7V14H13ZM13 12V11.3H12.3V12H13ZM15 12H15.7V11.3H15V12ZM15 14H14.3V14.7H15V14ZM18 14H18.7V13.3H18V14ZM18 16L18.4651 16.5232L18.7 16.3143V16H18ZM15 18.6667L14.535 18.1435L14.3 18.3523V18.6667H15ZM15 23H14.3V23.7H15V23ZM18 23H18.7V22.3H18V23ZM18 25V25.7H18.7V25H18ZM15 25V24.3H14.3V25H15ZM15 29V29.7H15.7V29H15ZM13 29H12.3V29.7H13V29ZM13 25H13.7V24.3H13V25ZM11 25V24.3H10.3V25H11ZM11 28V28.7H11.7V28H11ZM9.00003 28H8.30003V28.7H9.00003V28ZM9.00003 25H9.70003V24.3H9.00003V25ZM7.00003 25H6.30003V25.7H7.00003V25ZM7.00003 23L6.53497 22.4768L6.30003 22.6857V23H7.00003ZM9.00003 21.2222L9.46508 21.7454L9.70003 21.5366V21.2222H9.00003ZM9.00003 16H9.70003V15.3H9.00003V16ZM7.00003 16H6.30003V16.7H7.00003V16ZM7.00003 14V13.3H6.30003V14H7.00003ZM9.00003 14V14.7H9.70003V14H9.00003ZM11 22.2222L10.535 21.699L10.3 21.9079V22.2222H11ZM11 23H10.3V23.7H11V23ZM13 23V23.7H13.7V23H13ZM13 20.4444H13.7V18.8857L12.535 19.9213L13 20.4444ZM13 17.6667L13.4651 18.1899L13.7 17.981V17.6667H13ZM11 19.4444H10.3V21.0032L11.4651 19.9676L11 19.4444ZM11 16V15.3H10.3V16H11ZM13 16H13.7V15.3H13V16ZM11 10.3H9.00003V11.7H11V10.3ZM11.7 14V11H10.3V14H11.7ZM13 13.3H11V14.7H13V13.3ZM12.3 12V14H13.7V12H12.3ZM15 11.3H13V12.7H15V11.3ZM15.7 14V12H14.3V14H15.7ZM18 13.3H15V14.7H18V13.3ZM18.7 16V14H17.3V16H18.7ZM15.4651 19.1899L18.4651 16.5232L17.535 15.4768L14.535 18.1435L15.4651 19.1899ZM15.7 23V18.6667H14.3V23H15.7ZM18 22.3H15V23.7H18V22.3ZM18.7 25V23H17.3V25H18.7ZM15 25.7H18V24.3H15V25.7ZM15.7 29V25H14.3V29H15.7ZM13 29.7H15V28.3H13V29.7ZM12.3 25V29H13.7V25H12.3ZM11 25.7H13V24.3H11V25.7ZM11.7 28V25H10.3V28H11.7ZM9.00003 28.7H11V27.3H9.00003V28.7ZM8.30003 25V28H9.70003V25H8.30003ZM7.00003 25.7H9.00003V24.3H7.00003V25.7ZM6.30003 23V25H7.70003V23H6.30003ZM8.53497 20.699L6.53497 22.4768L7.46508 23.5232L9.46508 21.7454L8.53497 20.699ZM8.30003 16V21.2222H9.70003V16H8.30003ZM7.00003 16.7H9.00003V15.3H7.00003V16.7ZM6.30003 14V16H7.70003V14H6.30003ZM9.00003 13.3H7.00003V14.7H9.00003V13.3ZM8.30003 11V14H9.70003V11H8.30003ZM10.3 22.2222V23H11.7V22.2222H10.3ZM11 23.7H13V22.3H11V23.7ZM13.7 23V20.4444H12.3V23H13.7ZM11.4651 22.7454L13.4651 20.9676L12.535 19.9213L10.535 21.699L11.4651 22.7454ZM12.535 17.1435L10.535 18.9213L11.4651 19.9676L13.4651 18.1899L12.535 17.1435ZM10.3 16V19.4444H11.7V16H10.3ZM13 15.3H11V16.7H13V15.3ZM13.7 17.6667V16H12.3V17.6667H13.7Z" fill="black" mask="url(#path-5-outside-1_602_436)"/>
</svg>
