<svg width="38" height="38" viewBox="0 0 38 38" fill="none" xmlns="http://www.w3.org/2000/svg">
<path d="M4.13022 24.5627V4.56532C4.13022 4.28918 4.35408 4.06532 4.63022 4.06532H33.1982C33.4743 4.06532 33.6982 4.28918 33.6982 4.56532V24.5627L18.9731 33.8689L4.13022 24.5627Z" fill="#D28F21" stroke="#725B32"/>
<circle cx="18.7351" cy="17.3114" r="8.79097" stroke="#725B32" stroke-width="0.6"/>
<circle cx="18.735" cy="17.3114" r="10.5209" stroke="#725B32" stroke-width="0.2"/>
<mask id="path-4-inside-1_1350_152" fill="white">
<path d="M18.4372 9.59808L18.7147 5.99049L19.0112 9.60049C23.0249 9.76451 26.2467 12.9995 26.3897 17.0186L30.0044 17.2974L26.3897 17.5762C26.2473 21.5793 23.0506 24.8045 19.0592 24.9923L18.7269 28.6323C18.6442 27.4828 18.44 25.0967 18.4276 24.9965C14.3705 24.86 11.1086 21.5864 10.991 17.5245L7.46582 17.2974L10.9935 16.9958C11.1487 12.9653 14.4005 9.72883 18.4372 9.59808Z"/>
</mask>
<path d="M18.4372 9.59808L18.4469 9.89792C18.528 9.89529 18.6094 9.89397 18.6912 9.89397V9.59397V9.29397C18.603 9.29397 18.5151 9.2954 18.4275 9.29823L18.4372 9.59808ZM18.6912 9.59397V9.89397C18.7943 9.89397 18.8969 9.89607 18.999 9.90024L19.0112 9.60049L19.0235 9.30074C18.9132 9.29624 18.8025 9.29397 18.6912 9.29397V9.59397ZM18.6912 25.0009V24.7009C18.6063 24.7009 18.5218 24.6995 18.4377 24.6966L18.4276 24.9965L18.4175 25.2963C18.5084 25.2994 18.5996 25.3009 18.6912 25.3009V25.0009ZM19.0592 24.9923L19.0451 24.6926C18.9279 24.6981 18.8099 24.7009 18.6912 24.7009V25.0009V25.3009C18.8193 25.3009 18.9467 25.2979 19.0733 25.2919L19.0592 24.9923ZM26.3897 17.0186L26.0899 17.0293C26.0931 17.1183 26.0947 17.2077 26.0947 17.2974H26.3946H26.6946C26.6946 17.2005 26.6929 17.104 26.6895 17.008L26.3897 17.0186ZM26.3946 17.2974H26.0947C26.0947 17.3872 26.0931 17.4766 26.0899 17.5656L26.3897 17.5762L26.6895 17.5869C26.6929 17.4908 26.6946 17.3943 26.6946 17.2974H26.3946ZM10.9877 17.2974H11.2877C11.2877 17.2003 11.2896 17.1035 11.2933 17.0073L10.9935 16.9958L10.6937 16.9842C10.6897 17.0881 10.6877 17.1926 10.6877 17.2974H10.9877ZM10.991 17.5245L11.2909 17.5159C11.2888 17.4433 11.2877 17.3705 11.2877 17.2974H10.9877H10.6877C10.6877 17.3763 10.6889 17.4549 10.6911 17.5332L10.991 17.5245ZM18.4372 9.59808L18.4566 10.1978L18.9942 10.1803L19.0355 9.64408L18.4372 9.59808ZM18.7147 5.99049L19.3127 5.94137L18.1164 5.94449L18.7147 5.99049ZM19.0112 9.60049L18.4132 9.64962L18.4567 10.1783L18.9867 10.2L19.0112 9.60049ZM18.4276 24.9965L19.023 24.9225L18.9598 24.414L18.4478 24.3968L18.4276 24.9965ZM18.7269 28.6323L18.1285 28.6754L19.3244 28.6869L18.7269 28.6323ZM19.0592 24.9923L19.031 24.3929L18.5092 24.4175L18.4617 24.9377L19.0592 24.9923ZM26.3897 17.0186L25.7901 17.04L25.8091 17.5756L26.3436 17.6169L26.3897 17.0186ZM30.0044 17.2974L30.0505 17.8957L30.0505 16.6992L30.0044 17.2974ZM26.3897 17.5762L26.3436 16.978L25.8091 17.0192L25.7901 17.5549L26.3897 17.5762ZM10.9935 16.9958L11.0446 17.5936L11.5727 17.5484L11.5931 17.0189L10.9935 16.9958ZM7.46582 17.2974L7.4147 16.6996L7.42724 17.8962L7.46582 17.2974ZM10.991 17.5245L11.5908 17.5072L11.5749 16.9609L11.0296 16.9258L10.991 17.5245ZM18.4372 9.59808L19.0355 9.64408L19.3129 6.0365L18.7147 5.99049L18.1164 5.94449L17.839 9.55207L18.4372 9.59808ZM18.7147 5.99049L18.1167 6.03962L18.4132 9.64962L19.0112 9.60049L19.6092 9.55137L19.3127 5.94137L18.7147 5.99049ZM18.4276 24.9965L17.8322 25.0704C17.8321 25.07 17.8355 25.1043 17.843 25.1881C17.8499 25.2643 17.8592 25.3695 17.8702 25.497C17.8923 25.7521 17.9216 26.095 17.953 26.4709C18.0159 27.2235 18.0874 28.1044 18.1285 28.6754L18.7269 28.6323L19.3254 28.5893C19.243 27.4439 19.0378 25.0412 19.023 24.9225L18.4276 24.9965ZM18.7269 28.6323L19.3244 28.6869L19.6567 25.0468L19.0592 24.9923L18.4617 24.9377L18.1294 28.5778L18.7269 28.6323ZM19.0112 9.60049L18.9867 10.2C22.6872 10.3512 25.6583 13.3345 25.7901 17.04L26.3897 17.0186L26.9893 16.9973C26.8352 12.6646 23.3626 9.17781 19.0357 9.00099L19.0112 9.60049ZM26.3897 17.0186L26.3436 17.6169L29.9583 17.8957L30.0044 17.2974L30.0505 16.6992L26.4358 16.4204L26.3897 17.0186ZM26.3897 17.5762L25.7901 17.5549C25.6588 21.2456 22.7109 24.2198 19.031 24.3929L19.0592 24.9923L19.0874 25.5916C23.3902 25.3892 26.8358 21.913 26.9893 17.5976L26.3897 17.5762ZM30.0044 17.2974L29.9583 16.6992L26.3436 16.978L26.3897 17.5762L26.4358 18.1745L30.0505 17.8957L30.0044 17.2974ZM10.9935 16.9958L11.5931 17.0189C11.7362 13.3028 14.7348 10.3183 18.4566 10.1978L18.4372 9.59808L18.4178 8.99839C14.0662 9.13934 10.5613 12.6277 10.394 16.9727L10.9935 16.9958ZM10.9935 16.9958L10.9424 16.398L7.4147 16.6996L7.46582 17.2974L7.51694 17.8952L11.0446 17.5936L10.9935 16.9958ZM18.4276 24.9965L18.4478 24.3968C14.7071 24.271 11.6992 21.2522 11.5908 17.5072L10.991 17.5245L10.3913 17.5419C10.518 21.9206 14.0338 25.4491 18.4074 25.5961L18.4276 24.9965ZM7.46582 17.2974L7.42724 17.8962L10.9524 18.1233L10.991 17.5245L11.0296 16.9258L7.50439 16.6987L7.46582 17.2974Z" fill="#725B32" mask="url(#path-4-inside-1_1350_152)"/>
<path d="M26.1924 6.63477L28.2734 9.1709L28.3027 9.20703L28.2695 9.23926L28.1113 9.38867L28.0752 9.42285L28.041 9.38574L27.6768 9L26.9736 9.65625L27.3975 10.2852L27.4189 10.3184L27.3936 10.3467L24.2793 13.8076C24.2783 13.8097 24.2778 13.8134 24.2764 13.8164C24.2717 13.8257 24.2648 13.8395 24.2568 13.8564C24.2407 13.891 24.2186 13.9397 24.1973 13.9951C24.1538 14.1079 24.114 14.2441 24.1152 14.3506C24.1166 14.4528 24.1565 14.5828 24.1992 14.6904C24.2202 14.7432 24.2421 14.7893 24.2578 14.8223C24.2656 14.8385 24.2719 14.8524 24.2764 14.8613C24.2784 14.8653 24.2801 14.8689 24.2812 14.8711L24.2832 14.874L25.2607 16.6309L25.2646 16.6377L25.2666 16.6455L25.3496 17.0684L25.3516 17.0781L25.3486 17.0889L25.2666 17.4785L25.2627 17.4941L25.25 17.5059L24.2119 18.4023C24.2112 18.4035 24.2108 18.4056 24.21 18.4072C24.2062 18.4136 24.2008 18.4237 24.1943 18.4355C24.1812 18.4596 24.1632 18.4936 24.1455 18.5322C24.1093 18.6114 24.0753 18.7048 24.0732 18.7783C24.0713 18.8571 24.1052 18.9588 24.1426 19.0449C24.1608 19.0869 24.1795 19.1242 24.1934 19.1504C24.2001 19.1632 24.206 19.1736 24.21 19.1807C24.2117 19.1837 24.2129 19.1867 24.2139 19.1885L24.2158 19.1904V19.1914L25.6914 21.6865L25.6982 21.6982V22.0557L27.209 24.7051L27.2158 24.7168V25.1748L27.1885 25.1885L26.3301 25.6328C26.3288 25.6404 26.3281 25.6504 26.3271 25.6602C26.3243 25.6892 26.3261 25.7148 26.332 25.7285C26.3383 25.7424 26.3578 25.7609 26.3828 25.7783C26.3941 25.7862 26.4051 25.7933 26.4131 25.7979C26.4167 25.7999 26.4198 25.8017 26.4219 25.8027L26.4248 25.8037L26.5049 25.8438L26.4297 25.8916L25.4346 26.5127L25.377 26.5488L25.3594 26.4834L25.3203 26.3369C25.3127 26.3381 25.3045 26.3409 25.2959 26.3418C25.2573 26.3459 25.199 26.3475 25.1533 26.3242C25.1152 26.3047 25.0842 26.2667 25.0654 26.2402C25.0587 26.2308 25.0527 26.2216 25.0479 26.2139H24.4824L24.4678 26.1982V26.1973L24.4658 26.1963C24.4645 26.1948 24.4623 26.192 24.46 26.1895C24.4552 26.1842 24.4485 26.1762 24.4404 26.167C24.4237 26.1479 24.4004 26.1212 24.376 26.0898C24.3279 26.028 24.2701 25.9432 24.2422 25.8652C24.228 25.8255 24.2162 25.7743 24.209 25.7354C24.2054 25.7158 24.2031 25.698 24.2012 25.6855C24.2002 25.6796 24.1987 25.6743 24.1982 25.6709V25.665L24.1934 25.6309L24.2227 25.6143L24.3848 25.5225L18.2754 15.1055H17.8545L17.8398 15.084L17.7812 15.001L17.7305 14.9287L17.8193 14.9229H17.8203C17.8213 14.9227 17.8233 14.9221 17.8252 14.9219C17.8291 14.9215 17.8348 14.9208 17.8418 14.9199C17.8564 14.9181 17.8767 14.915 17.8984 14.9102C17.9449 14.8998 17.9892 14.8838 18.0117 14.8623C18.0335 14.8411 18.0522 14.7987 18.0645 14.7539C18.0702 14.7329 18.0737 14.7124 18.0762 14.6982C18.0766 14.696 18.0768 14.6934 18.0771 14.6914L17.6914 14.0244L17.6748 13.9951L17.6963 13.9688L17.9424 13.6562C17.9434 13.6525 17.9449 13.6473 17.9463 13.6416C17.9498 13.6266 17.9543 13.6055 17.957 13.583C17.9598 13.5602 17.9609 13.5362 17.959 13.5146C17.957 13.4928 17.9529 13.4757 17.9463 13.4648C17.9337 13.4447 17.9025 13.4225 17.8672 13.4043C17.851 13.396 17.8354 13.3892 17.8242 13.3848C17.8189 13.3827 17.8145 13.381 17.8115 13.3799C17.81 13.3794 17.8083 13.3792 17.8076 13.3789H17.8066L17.7656 13.3643L17.7734 13.3213L17.7744 13.3193C17.7747 13.3174 17.7748 13.3139 17.7754 13.3105C17.7766 13.3033 17.7784 13.2923 17.7803 13.2793C17.7842 13.2523 17.7898 13.214 17.793 13.1719C17.7994 13.0853 17.7982 12.9859 17.7754 12.916C17.7435 12.8194 17.6493 12.7189 17.5557 12.6396C17.5101 12.601 17.4667 12.5683 17.4346 12.5459C17.4186 12.5348 17.4046 12.5264 17.3955 12.5205C17.3913 12.5177 17.388 12.5151 17.3857 12.5137C17.3846 12.513 17.3833 12.5121 17.3828 12.5117H17.3818L17.3584 12.4971V12.1367L17.4385 12.1973L18.1494 12.7285C18.1524 12.729 18.156 12.7298 18.1602 12.7305C18.1746 12.7328 18.1964 12.7359 18.2227 12.7393C18.2751 12.746 18.3482 12.7533 18.4287 12.7559C18.5928 12.761 18.7785 12.7458 18.8994 12.6748C19.0241 12.6012 19.1294 12.4389 19.2041 12.2861C19.2406 12.2114 19.269 12.1411 19.2881 12.0898C19.2976 12.0643 19.3048 12.0427 19.3096 12.0283C19.3101 12.0265 19.31 12.0241 19.3105 12.0225L18.8789 10.9629L18.874 10.9492L18.875 10.9482V10.9385C18.8745 10.932 18.8736 10.9223 18.873 10.9111C18.8719 10.8883 18.8713 10.8562 18.873 10.8213C18.8764 10.7542 18.8885 10.6616 18.9346 10.5986C18.9759 10.5426 19.0489 10.5028 19.1035 10.4785C19.1321 10.4658 19.1586 10.4557 19.1777 10.4492C19.1873 10.446 19.1956 10.4441 19.2012 10.4424C19.2039 10.4416 19.2065 10.4409 19.208 10.4404L19.209 10.4395H19.21L19.2412 10.4307L19.2617 10.4551L19.958 11.2734C19.9636 11.2752 19.971 11.2777 19.9795 11.2803C20.0018 11.2869 20.0329 11.2957 20.0684 11.3047C20.1407 11.3229 20.2274 11.34 20.2939 11.3408C20.3904 11.342 20.514 11.3097 20.6172 11.2744C20.6679 11.2571 20.7125 11.2397 20.7441 11.2266C20.7598 11.2201 20.7727 11.2147 20.7812 11.2109C20.7822 11.2104 20.7833 11.2094 20.7842 11.209L21.9883 9.8252L22.0176 9.79102L22.0547 9.81641L22.2051 9.92383C22.2206 9.892 22.2427 9.84641 22.2705 9.79102C22.3283 9.67587 22.411 9.51558 22.5078 9.33594C22.7013 8.97697 22.9558 8.53631 23.1963 8.21875C23.3828 7.97264 23.65 7.6832 23.8691 7.45605C23.9789 7.34227 24.0777 7.24293 24.1484 7.17285C24.1835 7.13814 24.2118 7.10993 24.2314 7.09082C24.2412 7.08133 24.2497 7.07334 24.2549 7.06836C24.2572 7.06622 24.2595 7.06466 24.2607 7.06348L24.2617 7.06152H24.2627V7.06055L24.2695 7.05371L24.2793 7.05078V7.0498H24.2812C24.2826 7.04932 24.2848 7.04871 24.2871 7.04785C24.2921 7.046 24.2998 7.04308 24.3086 7.04004C24.3264 7.03391 24.3516 7.02546 24.3799 7.01758C24.4354 7.00215 24.5103 6.98588 24.5732 6.98926C24.6236 6.99198 24.6829 7.00833 24.7266 7.02246C24.7488 7.02966 24.7683 7.03673 24.7822 7.04199C24.789 7.04454 24.7949 7.04631 24.7988 7.04785C24.8007 7.0486 24.8026 7.04936 24.8037 7.0498L24.8047 7.05078H24.8057L24.8164 7.05566L24.8242 7.06445L25.2031 7.49707L26.1201 6.62988L26.1582 6.59277L26.1924 6.63477ZM23.7002 15.2451C23.5306 15.2301 23.3144 15.2286 23.1533 15.293C23.0451 15.3363 22.9281 15.4225 22.8408 15.4951C22.7966 15.5319 22.7591 15.5668 22.7324 15.5918C22.7193 15.6041 22.7085 15.614 22.7012 15.6211L22.6895 15.6328L22.6748 15.6465V15.7422C22.6752 15.7886 22.6761 15.8535 22.6797 15.9268C22.6868 16.0725 22.7034 16.2565 22.7412 16.3975C22.775 16.5231 22.8418 16.6732 22.8984 16.79C22.9269 16.8487 22.9533 16.9001 22.9727 16.9365C22.9822 16.9546 22.9906 16.9695 22.9961 16.9795C22.9987 16.9842 23.0005 16.9886 23.002 16.9912C23.0026 16.9923 23.0036 16.9935 23.0039 16.9941V16.9951L23.0049 16.9961V16.9971L23.0059 16.998C23.0065 16.9989 23.0078 17.0003 23.0088 17.002C23.011 17.0057 23.0144 17.0116 23.0186 17.0186C23.0271 17.0328 23.0391 17.0538 23.0547 17.0791C23.086 17.13 23.1308 17.201 23.1826 17.2793C23.2859 17.4352 23.4212 17.6259 23.5449 17.7549L23.5547 17.7646L23.5693 17.7686H23.5713C23.5726 17.769 23.5748 17.77 23.5771 17.7705C23.5821 17.7717 23.5896 17.7734 23.5986 17.7754C23.6174 17.7795 23.6455 17.785 23.6787 17.791C23.7454 17.8031 23.838 17.8167 23.9404 17.8242C24.1426 17.8389 24.3988 17.83 24.5723 17.7188C24.7437 17.6087 24.8592 17.3833 24.9307 17.1963C24.967 17.1013 24.9935 17.0129 25.0107 16.9482C25.0193 16.9159 25.0251 16.8886 25.0293 16.8701C25.0314 16.861 25.0331 16.8536 25.0342 16.8486C25.0347 16.8463 25.0349 16.8441 25.0352 16.8428L25.0361 16.8418V16.8408L25.0391 16.8271L25.0342 16.8135L25.0332 16.8115C25.0327 16.81 25.0313 16.8074 25.0303 16.8047C25.0281 16.7988 25.0246 16.7901 25.0205 16.7793C25.0121 16.757 25.0003 16.7243 24.9844 16.6846C24.9523 16.6047 24.905 16.4937 24.8477 16.3711C24.7335 16.1272 24.5735 15.8301 24.3936 15.6338C24.3273 15.5616 24.2354 15.4778 24.1611 15.4131C24.1239 15.3806 24.0904 15.352 24.0664 15.332C24.0546 15.3222 24.0447 15.3141 24.0381 15.3086C24.035 15.3061 24.032 15.3041 24.0303 15.3027L24.0283 15.3008H24.0273L24.0186 15.293L24.0068 15.291V15.29H24.0049C24.004 15.2898 24.0025 15.2894 24.001 15.2891C23.9969 15.2882 23.99 15.2867 23.9824 15.2852C23.9672 15.2821 23.945 15.2781 23.918 15.2734C23.8631 15.2639 23.7861 15.2527 23.7002 15.2451Z" fill="#A3460F"/>
<path d="M23.5078 15.8007C23.1662 15.9188 22.756 16.425 22.756 16.425L22.6681 16.0348V15.6832C22.6681 15.6832 23.231 15.4282 23.5809 15.4414C23.7746 15.4487 23.8995 15.4553 24.0649 15.5507C24.2184 15.6392 24.3565 15.8593 24.3565 15.8593C24.3565 15.8593 24.1136 15.7393 23.9453 15.7265C23.7725 15.7135 23.6716 15.7441 23.5078 15.8007Z" fill="#A3460F" stroke="#A3460F" stroke-width="0.1"/>
<path d="M11.323 26.6635L9.24194 24.1273L9.21265 24.0912L9.24585 24.059L9.40405 23.9096L9.44019 23.8754L9.47437 23.9125L9.83862 24.2982L10.5417 23.642L10.1179 23.0131L10.0964 22.9799L10.1218 22.9516L13.2361 19.4906C13.2371 19.4886 13.2376 19.4849 13.239 19.4818C13.2436 19.4725 13.2506 19.4587 13.2585 19.4418C13.2747 19.4073 13.2967 19.3585 13.3181 19.3031C13.3616 19.1904 13.4014 19.0542 13.4001 18.9477C13.3987 18.8455 13.3589 18.7155 13.3162 18.6078C13.2952 18.555 13.2733 18.5089 13.2576 18.476C13.2498 18.4597 13.2435 18.4459 13.239 18.4369C13.237 18.4329 13.2353 18.4294 13.2341 18.4272L13.2322 18.4242L12.2546 16.6674L12.2507 16.6606L12.2488 16.6527L12.1658 16.2299L12.1638 16.2201L12.1667 16.2094L12.2488 15.8197L12.2527 15.8041L12.2654 15.7924L13.3035 14.8959C13.3042 14.8947 13.3046 14.8926 13.3054 14.891C13.3092 14.8846 13.3145 14.8745 13.321 14.8627C13.3342 14.8387 13.3522 14.8046 13.3699 14.766C13.4061 14.6868 13.4401 14.5934 13.4421 14.5199C13.4441 14.4412 13.4102 14.3395 13.3728 14.2533C13.3546 14.2114 13.3359 14.174 13.322 14.1479C13.3153 14.1351 13.3094 14.1246 13.3054 14.1176C13.3037 14.1145 13.3025 14.1115 13.3015 14.1098L13.2996 14.1078L13.2996 14.1068L11.824 11.6117L11.8171 11.6L11.8171 11.2426L10.3064 8.59317L10.2996 8.58145L10.2996 8.12344L10.3269 8.10977L11.1853 7.66544C11.1866 7.65789 11.1873 7.64785 11.1882 7.63809C11.191 7.60905 11.1893 7.58344 11.1834 7.56973C11.1771 7.55585 11.1576 7.53739 11.1326 7.51993C11.1213 7.51207 11.1102 7.50492 11.1023 7.5004C11.0986 7.49833 11.0956 7.4966 11.0935 7.49551L11.0906 7.49454L11.0105 7.4545L11.0857 7.40665L12.0808 6.78555L12.1384 6.74942L12.156 6.81485L12.1951 6.96133C12.2026 6.96016 12.2109 6.95739 12.2195 6.95645C12.2581 6.95233 12.3164 6.95076 12.3621 6.97403C12.4001 6.9935 12.4312 7.03159 12.45 7.05801C12.4566 7.06744 12.4627 7.07663 12.4675 7.08438L13.033 7.08438L13.0476 7.10001L13.0476 7.10098L13.0496 7.10196C13.0509 7.10343 13.0531 7.10628 13.0554 7.10879C13.0602 7.11406 13.0669 7.12202 13.075 7.13126C13.0917 7.15033 13.115 7.17705 13.1394 7.2084C13.1875 7.27027 13.2453 7.35504 13.2732 7.43301C13.2874 7.47277 13.2992 7.52394 13.3064 7.5629C13.31 7.58245 13.3123 7.60023 13.3142 7.6127C13.3151 7.61862 13.3166 7.6239 13.3171 7.62735L13.3171 7.63321L13.322 7.66739L13.2927 7.68399L13.1306 7.77579L19.24 18.1928L19.6609 18.1928L19.6755 18.2143L19.7341 18.2973L19.7849 18.3695L19.696 18.3754L19.6951 18.3754C19.6941 18.3755 19.6921 18.3762 19.6902 18.3764C19.6863 18.3767 19.6805 18.3774 19.6736 18.3783C19.659 18.3802 19.6387 18.3833 19.6169 18.3881C19.5705 18.3985 19.5261 18.4144 19.5037 18.4359C19.4819 18.4572 19.4632 18.4996 19.4509 18.5443C19.4452 18.5654 19.4417 18.5859 19.4392 18.6C19.4388 18.6023 19.4386 18.6049 19.4382 18.6068L19.824 19.2738L19.8406 19.3031L19.8191 19.3295L19.573 19.642C19.572 19.6457 19.5704 19.6509 19.5691 19.6566C19.5656 19.6716 19.5611 19.6927 19.5584 19.7152C19.5556 19.738 19.5545 19.7621 19.5564 19.7836C19.5583 19.8054 19.5625 19.8225 19.5691 19.8334C19.5816 19.8536 19.6129 19.8758 19.6482 19.894C19.6644 19.9023 19.68 19.909 19.6912 19.9135C19.6964 19.9156 19.7009 19.9173 19.7039 19.9184C19.7054 19.9189 19.7071 19.9191 19.7078 19.9193L19.7087 19.9193L19.7498 19.934L19.7419 19.977L19.741 19.9789C19.7407 19.9808 19.7406 19.9843 19.74 19.9877C19.7387 19.995 19.737 20.0059 19.7351 20.019C19.7311 20.046 19.7256 20.0842 19.7224 20.1264C19.716 20.2129 19.7171 20.3124 19.74 20.3822C19.7719 20.4788 19.8661 20.5793 19.9597 20.6586C20.0053 20.6972 20.0486 20.73 20.0808 20.7523C20.0968 20.7635 20.1108 20.7719 20.1199 20.7777C20.1241 20.7805 20.1274 20.7831 20.1296 20.7846C20.1308 20.7853 20.132 20.7862 20.1326 20.7865L20.1335 20.7865L20.157 20.8012L20.157 21.1615L20.0769 21.101L19.366 20.5697C19.363 20.5692 19.3594 20.5685 19.3552 20.5678C19.3408 20.5654 19.3189 20.5624 19.2927 20.559C19.2403 20.5522 19.1672 20.545 19.0867 20.5424C18.9226 20.5372 18.7368 20.5524 18.616 20.6234C18.4913 20.697 18.386 20.8594 18.3113 21.0121C18.2747 21.0868 18.2464 21.1571 18.2273 21.2084C18.2178 21.2339 18.2106 21.2556 18.2058 21.2699C18.2053 21.2718 18.2054 21.2742 18.2048 21.2758L18.6365 22.3354L18.6414 22.349L18.6404 22.35L18.6404 22.3598C18.6409 22.3663 18.6418 22.376 18.6423 22.3871C18.6435 22.4099 18.644 22.442 18.6423 22.477C18.639 22.5441 18.6269 22.6367 18.5808 22.6996C18.5395 22.7557 18.4665 22.7954 18.4119 22.8197C18.3833 22.8324 18.3568 22.8425 18.3376 22.849C18.3281 22.8523 18.3197 22.8542 18.3142 22.8559C18.3115 22.8567 18.3089 22.8574 18.3074 22.8578L18.3064 22.8588L18.3054 22.8588L18.2742 22.8676L18.2537 22.8432L17.5574 22.0248C17.5518 22.0231 17.5444 22.0205 17.5359 22.018C17.5136 22.0113 17.4825 22.0025 17.447 21.9936C17.3747 21.9753 17.2879 21.9583 17.2214 21.9574C17.125 21.9563 17.0014 21.9886 16.8982 22.0238C16.8475 22.0411 16.8029 22.0586 16.7712 22.0717C16.7556 22.0781 16.7427 22.0835 16.7341 22.0873C16.7332 22.0878 16.732 22.0889 16.7312 22.0893L15.5271 23.4731L15.4978 23.5072L15.4607 23.4818L15.3103 23.3744C15.2947 23.4063 15.2727 23.4518 15.2449 23.5072C15.1871 23.6224 15.1044 23.7827 15.0076 23.9623C14.8141 24.3213 14.5596 24.7619 14.3191 25.0795C14.1326 25.3256 13.8654 25.615 13.6462 25.8422C13.5365 25.956 13.4377 26.0553 13.3669 26.1254C13.3319 26.1601 13.3036 26.1883 13.2839 26.2074C13.2742 26.2169 13.2656 26.2249 13.2605 26.2299C13.2582 26.232 13.2559 26.2336 13.2546 26.2348L13.2537 26.2367L13.2527 26.2367L13.2527 26.2377L13.2458 26.2445L13.2361 26.2475L13.2361 26.2484L13.2341 26.2484C13.2328 26.2489 13.2306 26.2495 13.2283 26.2504C13.2233 26.2522 13.2156 26.2552 13.2068 26.2582C13.189 26.2643 13.1638 26.2728 13.1355 26.2807C13.08 26.2961 13.0051 26.3124 12.9421 26.309C12.8918 26.3063 12.8325 26.2899 12.7888 26.2758C12.7666 26.2686 12.7471 26.2615 12.7332 26.2563C12.7264 26.2537 12.7205 26.2519 12.7166 26.2504C12.7147 26.2496 12.7128 26.2489 12.7117 26.2484L12.7107 26.2475L12.7097 26.2475L12.699 26.2426L12.6912 26.2338L12.3123 25.8012L11.3953 26.6684L11.3572 26.7055L11.323 26.6635ZM13.8152 18.0531C13.9848 18.0682 14.201 18.0697 14.3621 18.0053C14.4703 17.9619 14.5873 17.8757 14.6746 17.8031C14.7187 17.7664 14.7562 17.7314 14.783 17.7065C14.7961 17.6941 14.8069 17.6843 14.8142 17.6772L14.8259 17.6654L14.8406 17.6518L14.8406 17.5561C14.8402 17.5096 14.8393 17.4447 14.8357 17.3715C14.8286 17.2257 14.8119 17.0418 14.7742 16.9008C14.7404 16.7751 14.6736 16.625 14.6169 16.5082C14.5885 16.4496 14.5621 16.3982 14.5427 16.3617C14.5331 16.3437 14.5248 16.3288 14.5193 16.3188C14.5167 16.314 14.5149 16.3096 14.5134 16.307C14.5128 16.306 14.5118 16.3047 14.5115 16.3041L14.5115 16.3031L14.5105 16.3022L14.5105 16.3012L14.5095 16.3002C14.5089 16.2993 14.5076 16.2979 14.5066 16.2963C14.5044 16.2925 14.501 16.2866 14.4968 16.2797C14.4883 16.2655 14.4763 16.2444 14.4607 16.2191C14.4293 16.1683 14.3846 16.0972 14.3328 16.019C14.2294 15.863 14.0942 15.6724 13.9705 15.5434L13.9607 15.5336L13.946 15.5297L13.9441 15.5297C13.9428 15.5293 13.9406 15.5283 13.9382 15.5277C13.9333 15.5266 13.9258 15.5248 13.9167 15.5229C13.8979 15.5188 13.8699 15.5132 13.8367 15.5072C13.77 15.4952 13.6774 15.4815 13.575 15.474C13.3728 15.4593 13.1166 15.4682 12.9431 15.5795C12.7717 15.6895 12.6562 15.915 12.5847 16.102C12.5484 16.1969 12.5219 16.2853 12.5046 16.35C12.496 16.3824 12.4903 16.4096 12.4861 16.4281C12.484 16.4372 12.4823 16.4447 12.4812 16.4496C12.4807 16.4519 12.4805 16.4542 12.4802 16.4555L12.4792 16.4565L12.4792 16.4574L12.4763 16.4711L12.4812 16.4848L12.4822 16.4867C12.4827 16.4882 12.4841 16.4908 12.4851 16.4936C12.4873 16.4995 12.4908 16.5081 12.4949 16.519C12.5033 16.5413 12.5151 16.574 12.531 16.6137C12.563 16.6936 12.6104 16.8046 12.6677 16.9272C12.7819 17.171 12.9419 17.4682 13.1218 17.6645C13.1881 17.7367 13.28 17.8204 13.3542 17.8852C13.3915 17.9176 13.425 17.9462 13.449 17.9662C13.4607 17.976 13.4706 17.9842 13.4773 17.9897C13.4804 17.9922 13.4833 17.9941 13.4851 17.9955L13.4871 17.9975L13.488 17.9975L13.4968 18.0053L13.5085 18.0072L13.5085 18.0082L13.5105 18.0082C13.5114 18.0084 13.5129 18.0089 13.5144 18.0092C13.5185 18.0101 13.5254 18.0116 13.533 18.0131C13.5482 18.0162 13.5704 18.0201 13.5974 18.0248C13.6523 18.0343 13.7293 18.0455 13.8152 18.0531Z" fill="#A3460F"/>
<path d="M14.0076 17.4975C14.3492 17.3794 14.7594 16.8732 14.7594 16.8732L14.8473 17.2634L14.8473 17.6151C14.8473 17.6151 14.2843 17.87 13.9345 17.8569C13.7408 17.8496 13.6159 17.8429 13.4504 17.7475C13.2969 17.659 13.1589 17.4389 13.1589 17.4389C13.1589 17.4389 13.4018 17.559 13.5701 17.5717C13.7429 17.5848 13.8438 17.5541 14.0076 17.4975Z" fill="#A3460F" stroke="#A3460F" stroke-width="0.1"/>
</svg>
