<svg width="38" height="38" viewBox="0 0 38 38" fill="none" xmlns="http://www.w3.org/2000/svg">
<mask id="path-1-outside-1_704_26" maskUnits="userSpaceOnUse" x="2" y="8.5" width="32" height="20" fill="black">
<rect fill="white" x="2" y="8.5" width="32" height="20"/>
<path d="M9.25 14.4091L11.1591 18.4659L13.1705 14.4091H17.8409L14.3295 20.9545L18.0114 27.5H13.375L11.1591 23.3409L9.01136 27.5H4.30682L8.02273 20.9545L4.54545 14.4091H9.25ZM19.4794 27.5V24.0909L25.9908 18.7045C26.4226 18.3466 26.7919 18.0114 27.0987 17.6989C27.4112 17.3807 27.6499 17.054 27.8146 16.7188C27.9851 16.3835 28.0703 16.0114 28.0703 15.6023C28.0703 15.1534 27.9737 14.7699 27.7805 14.4517C27.593 14.1335 27.3317 13.8892 26.9964 13.7188C26.6612 13.5426 26.2749 13.4545 25.8374 13.4545C25.3999 13.4545 25.0135 13.5426 24.6783 13.7188C24.3487 13.8949 24.093 14.1534 23.9112 14.4943C23.7294 14.8352 23.6385 15.25 23.6385 15.7386H19.1385C19.1385 14.5114 19.4141 13.4545 19.9652 12.5682C20.5163 11.6818 21.2947 11 22.3004 10.5227C23.3061 10.0455 24.4851 9.80682 25.8374 9.80682C27.2351 9.80682 28.4453 10.0312 29.468 10.4801C30.4964 10.9233 31.2891 11.5483 31.8459 12.3551C32.4084 13.1619 32.6896 14.108 32.6896 15.1932C32.6896 15.8636 32.5504 16.5312 32.272 17.196C31.9936 17.8551 31.4936 18.5852 30.772 19.3864C30.0504 20.1875 29.0249 21.142 27.6953 22.25L26.0589 23.6136V23.7159H32.8771V27.5H19.4794Z"/>
</mask>
<path d="M9.25 14.4091L11.1591 18.4659L13.1705 14.4091H17.8409L14.3295 20.9545L18.0114 27.5H13.375L11.1591 23.3409L9.01136 27.5H4.30682L8.02273 20.9545L4.54545 14.4091H9.25ZM19.4794 27.5V24.0909L25.9908 18.7045C26.4226 18.3466 26.7919 18.0114 27.0987 17.6989C27.4112 17.3807 27.6499 17.054 27.8146 16.7188C27.9851 16.3835 28.0703 16.0114 28.0703 15.6023C28.0703 15.1534 27.9737 14.7699 27.7805 14.4517C27.593 14.1335 27.3317 13.8892 26.9964 13.7188C26.6612 13.5426 26.2749 13.4545 25.8374 13.4545C25.3999 13.4545 25.0135 13.5426 24.6783 13.7188C24.3487 13.8949 24.093 14.1534 23.9112 14.4943C23.7294 14.8352 23.6385 15.25 23.6385 15.7386H19.1385C19.1385 14.5114 19.4141 13.4545 19.9652 12.5682C20.5163 11.6818 21.2947 11 22.3004 10.5227C23.3061 10.0455 24.4851 9.80682 25.8374 9.80682C27.2351 9.80682 28.4453 10.0312 29.468 10.4801C30.4964 10.9233 31.2891 11.5483 31.8459 12.3551C32.4084 13.1619 32.6896 14.108 32.6896 15.1932C32.6896 15.8636 32.5504 16.5312 32.272 17.196C31.9936 17.8551 31.4936 18.5852 30.772 19.3864C30.0504 20.1875 29.0249 21.142 27.6953 22.25L26.0589 23.6136V23.7159H32.8771V27.5H19.4794Z" fill="white"/>
<path d="M9.25 14.4091L10.1548 13.9833L9.88461 13.4091H9.25V14.4091ZM11.1591 18.4659L10.2543 18.8917L11.1356 20.7645L12.055 18.9101L11.1591 18.4659ZM13.1705 14.4091V13.4091H12.5501L12.2745 13.9649L13.1705 14.4091ZM17.8409 14.4091L18.7221 14.8818L19.5122 13.4091H17.8409V14.4091ZM14.3295 20.9545L13.4483 20.4818L13.1886 20.966L13.458 21.4448L14.3295 20.9545ZM18.0114 27.5V28.5H19.7212L18.8829 27.0097L18.0114 27.5ZM13.375 27.5L12.4924 27.9702L12.7747 28.5H13.375V27.5ZM11.1591 23.3409L12.0416 22.8707L11.1453 21.1882L10.2706 22.8821L11.1591 23.3409ZM9.01136 27.5V28.5H9.62043L9.89989 27.9588L9.01136 27.5ZM4.30682 27.5L3.43718 27.0063L2.5892 28.5H4.30682V27.5ZM8.02273 20.9545L8.89236 21.4482L9.16357 20.9705L8.90584 20.4854L8.02273 20.9545ZM4.54545 14.4091V13.4091H2.88185L3.66234 14.8782L4.54545 14.4091ZM8.34518 14.8349L10.2543 18.8917L12.0639 18.0401L10.1548 13.9833L8.34518 14.8349ZM12.055 18.9101L14.0664 14.8533L12.2745 13.9649L10.2632 18.0217L12.055 18.9101ZM13.1705 15.4091H17.8409V13.4091H13.1705V15.4091ZM16.9597 13.9364L13.4483 20.4818L15.2108 21.4273L18.7221 14.8818L16.9597 13.9364ZM13.458 21.4448L17.1398 27.9903L18.8829 27.0097L15.2011 20.4643L13.458 21.4448ZM18.0114 26.5H13.375V28.5H18.0114V26.5ZM14.2576 27.0298L12.0416 22.8707L10.2765 23.8111L12.4924 27.9702L14.2576 27.0298ZM10.2706 22.8821L8.12284 27.0412L9.89989 27.9588L12.0476 23.7997L10.2706 22.8821ZM9.01136 26.5H4.30682V28.5H9.01136V26.5ZM5.17645 27.9937L8.89236 21.4482L7.15309 20.4608L3.43718 27.0063L5.17645 27.9937ZM8.90584 20.4854L5.42857 13.9399L3.66234 14.8782L7.13961 21.4237L8.90584 20.4854ZM4.54545 15.4091H9.25V13.4091H4.54545V15.4091ZM19.4794 27.5H18.4794V28.5H19.4794V27.5ZM19.4794 24.0909L18.842 23.3204L18.4794 23.6203V24.0909H19.4794ZM25.9908 18.7045L26.6282 19.4751L26.629 19.4744L25.9908 18.7045ZM27.0987 17.6989L26.3853 16.9982L26.3852 16.9983L27.0987 17.6989ZM27.8146 16.7188L26.9232 16.2655L26.9172 16.2776L27.8146 16.7188ZM27.7805 14.4517L26.9189 14.9594L26.9258 14.9707L27.7805 14.4517ZM26.9964 13.7188L26.5313 14.6041L26.5432 14.6101L26.9964 13.7188ZM24.6783 13.7188L24.2131 12.8335L24.2069 12.8368L24.6783 13.7188ZM23.9112 14.4943L23.0289 14.0237H23.0289L23.9112 14.4943ZM23.6385 15.7386V16.7386H24.6385V15.7386H23.6385ZM19.1385 15.7386H18.1385V16.7386H19.1385V15.7386ZM19.9652 12.5682L19.116 12.0401L19.116 12.0401L19.9652 12.5682ZM22.3004 10.5227L22.7292 11.4262L22.3004 10.5227ZM29.468 10.4801L29.0661 11.3958L29.0723 11.3985L29.468 10.4801ZM31.8459 12.3551L31.0228 12.9231L31.0256 12.927L31.8459 12.3551ZM32.272 17.196L33.1932 17.5851L33.1944 17.5823L32.272 17.196ZM30.772 19.3864L31.515 20.0556H31.5151L30.772 19.3864ZM27.6953 22.25L28.3355 23.0182L27.6953 22.25ZM26.0589 23.6136L25.4188 22.8454L25.0589 23.1453V23.6136H26.0589ZM26.0589 23.7159H25.0589V24.7159H26.0589V23.7159ZM32.8771 23.7159H33.8771V22.7159H32.8771V23.7159ZM32.8771 27.5V28.5H33.8771V27.5H32.8771ZM20.4794 27.5V24.0909H18.4794V27.5H20.4794ZM20.1168 24.8614L26.6282 19.4751L25.3534 17.934L18.842 23.3204L20.1168 24.8614ZM26.629 19.4744C27.0802 19.1004 27.476 18.742 27.8123 18.3995L26.3852 16.9983C26.1078 17.2808 25.765 17.5928 25.3526 17.9347L26.629 19.4744ZM27.8122 18.3996C28.1854 18.0196 28.4921 17.6074 28.7121 17.1599L26.9172 16.2776C26.8076 16.5006 26.6371 16.7418 26.3853 16.9982L27.8122 18.3996ZM28.706 17.172C28.954 16.6843 29.0703 16.1548 29.0703 15.6023H27.0703C27.0703 15.8679 27.0162 16.0828 26.9232 16.2655L28.706 17.172ZM29.0703 15.6023C29.0703 15.0082 28.9414 14.4368 28.6353 13.9327L26.9258 14.9707C27.0061 15.103 27.0703 15.2986 27.0703 15.6023H29.0703ZM28.6421 13.944C28.356 13.4585 27.9515 13.0825 27.4497 12.8274L26.5432 14.6101C26.7118 14.6959 26.8301 14.8086 26.919 14.9594L28.6421 13.944ZM27.4616 12.8335C26.9621 12.571 26.4116 12.4545 25.8374 12.4545V14.4545C26.1381 14.4545 26.3604 14.5142 26.5313 14.604L27.4616 12.8335ZM25.8374 12.4545C25.2631 12.4545 24.7127 12.571 24.2131 12.8335L25.1434 14.604C25.3143 14.5142 25.5366 14.4545 25.8374 14.4545V12.4545ZM24.2069 12.8368C23.6964 13.1096 23.3006 13.5143 23.0289 14.0237L24.7936 14.9649C24.8855 14.7925 25.001 14.6801 25.1496 14.6007L24.2069 12.8368ZM23.0289 14.0237C22.752 14.5428 22.6385 15.1283 22.6385 15.7386H24.6385C24.6385 15.3717 24.7068 15.1276 24.7936 14.9649L23.0289 14.0237ZM23.6385 14.7386H19.1385V16.7386H23.6385V14.7386ZM20.1385 15.7386C20.1385 14.6647 20.378 13.798 20.8144 13.0962L19.116 12.0401C18.4501 13.1111 18.1385 14.358 18.1385 15.7386H20.1385ZM20.8144 13.0962C21.2575 12.3837 21.8847 11.8269 22.7292 11.4262L21.8717 9.6193C20.7048 10.1731 19.7752 10.9799 19.116 12.0401L20.8144 13.0962ZM22.7292 11.4262C23.5752 11.0246 24.6021 10.8068 25.8374 10.8068V8.80682C24.3681 8.80682 23.037 9.06627 21.8717 9.6193L22.7292 11.4262ZM25.8374 10.8068C27.1304 10.8068 28.1977 11.0146 29.0662 11.3958L29.8699 9.56442C28.6929 9.04785 27.3397 8.80682 25.8374 8.80682V10.8068ZM29.0723 11.3985C29.9533 11.7781 30.5873 12.292 31.0229 12.9231L32.6689 11.7871C31.9909 10.8046 31.0396 10.0684 29.8638 9.56176L29.0723 11.3985ZM31.0256 12.927C31.4591 13.5488 31.6896 14.2904 31.6896 15.1932H33.6896C33.6896 13.9255 33.3577 12.7751 32.6662 11.7832L31.0256 12.927ZM31.6896 15.1932C31.6896 15.7213 31.5807 16.258 31.3496 16.8097L33.1944 17.5823C33.5202 16.8045 33.6896 16.006 33.6896 15.1932H31.6896ZM31.3508 16.8069C31.1319 17.3253 30.7099 17.9611 30.029 18.7171L31.5151 20.0556C32.2773 19.2093 32.8553 18.385 33.1932 17.5851L31.3508 16.8069ZM30.029 18.7171C29.3524 19.4683 28.3671 20.3884 27.0551 21.4818L28.3355 23.0182C29.6826 21.8956 30.7484 20.9067 31.515 20.0556L30.029 18.7171ZM27.0551 21.4818L25.4188 22.8454L26.6991 24.3819L28.3355 23.0182L27.0551 21.4818ZM25.0589 23.6136V23.7159H27.0589V23.6136H25.0589ZM26.0589 24.7159H32.8771V22.7159H26.0589V24.7159ZM31.8771 23.7159V27.5H33.8771V23.7159H31.8771ZM32.8771 26.5H19.4794V28.5H32.8771V26.5Z" fill="#30883C" mask="url(#path-1-outside-1_704_26)"/>
</svg>
