<svg width="38" height="38" viewBox="0 0 38 38" fill="none" xmlns="http://www.w3.org/2000/svg">
<g clip-path="url(#clip0_1034_2)">
<path fill-rule="evenodd" clip-rule="evenodd" d="M3.01788 22.6316L13.6988 9.38985L20.3109 7.96321L26.2396 13.1628L25.9859 18.7674L15.0901 32.5199L3.01788 22.6316ZM23.0709 11.4598C23.3978 12.2614 23.0129 13.1761 22.2114 13.503C21.4098 13.8298 20.4951 13.445 20.1682 12.6434C19.8414 11.8419 20.2262 10.9271 21.0278 10.6003C21.8293 10.2734 22.7441 10.6583 23.0709 11.4598Z" fill="white"/>
<path d="M13.6988 9.38985L13.5934 8.9011L13.4206 8.93837L13.3096 9.07594L13.6988 9.38985ZM3.01788 22.6316L2.6287 22.3177L2.31714 22.7039L2.70104 23.0184L3.01788 22.6316ZM20.3109 7.96321L20.6406 7.5873L20.4514 7.42139L20.2055 7.47446L20.3109 7.96321ZM26.2396 13.1628L26.7391 13.1854L26.7499 12.9453L26.5693 12.7869L26.2396 13.1628ZM25.9859 18.7674L26.3778 19.0779L26.4781 18.9513L26.4854 18.79L25.9859 18.7674ZM15.0901 32.5199L14.7733 32.9067L15.1664 33.2287L15.482 32.8304L15.0901 32.5199ZM13.3096 9.07594L2.6287 22.3177L3.40705 22.9455L14.088 9.70376L13.3096 9.07594ZM20.2055 7.47446L13.5934 8.9011L13.8043 9.8786L20.4164 8.45197L20.2055 7.47446ZM26.5693 12.7869L20.6406 7.5873L19.9812 8.33912L25.9099 13.5387L26.5693 12.7869ZM26.4854 18.79L26.7391 13.1854L25.7401 13.1402L25.4864 18.7448L26.4854 18.79ZM15.482 32.8304L26.3778 19.0779L25.594 18.4569L14.6982 32.2094L15.482 32.8304ZM2.70104 23.0184L14.7733 32.9067L15.4069 32.1331L3.33471 22.2448L2.70104 23.0184ZM22.4002 13.966C23.4574 13.5349 23.965 12.3283 23.5339 11.271L22.6079 11.6486C22.8305 12.1945 22.5684 12.8174 22.0226 13.04L22.4002 13.966ZM19.7052 12.8322C20.1363 13.8895 21.3429 14.3971 22.4002 13.966L22.0226 13.04C21.4767 13.2626 20.8538 13.0005 20.6312 12.4546L19.7052 12.8322ZM20.839 10.1373C19.7817 10.5684 19.2741 11.7749 19.7052 12.8322L20.6312 12.4546C20.4086 11.9088 20.6707 11.2858 21.2166 11.0633L20.839 10.1373ZM23.5339 11.271C23.1028 10.2138 21.8963 9.70616 20.839 10.1373L21.2166 11.0633C21.7624 10.8407 22.3854 11.1027 22.6079 11.6486L23.5339 11.271Z" fill="#30883C"/>
<path d="M22.3919 9.36515L23.1723 8.15361C23.1915 8.12376 23.2139 8.09604 23.239 8.07092L25.1525 6.15625L27.1429 4.47704L28.6582 3.44746C29.0454 3.18437 29.5494 3.55 29.4196 3.99974L28.9158 5.74447C28.9083 5.77019 28.8989 5.79528 28.8874 5.81948L27.5473 8.6537C27.5207 8.71 27.4838 8.76084 27.4385 8.80359L25.8886 10.2664L24.1235 11.6179C24.0882 11.6449 24.0495 11.6671 24.0083 11.6838L22.5325 12.2856C22.4437 12.3218 22.3464 12.3317 22.2521 12.3142L21.8236 12.2344C21.5403 12.1816 21.3602 11.9009 21.4301 11.6214L21.6861 10.5988" stroke="#30883C"/>
</g>
<defs>
<clipPath id="clip0_1034_2">
<rect width="38" height="38" fill="white"/>
</clipPath>
</defs>
</svg>
