<svg width="38" height="38" viewBox="0 0 38 38" fill="none" xmlns="http://www.w3.org/2000/svg">
<g clip-path="url(#clip0_619_83)">
<path d="M24.4841 5.37973L25.472 10.6379L14.2691 27.0248L15.2385 27.6875L15.3382 28.4169L13.961 27.4754L13.525 27.1773L7.20253 36.4253L5.05764 34.9589L11.3801 25.7109L10.8379 25.3403L9.66264 24.5368L10.3204 24.3253L11.146 24.8897L24.4841 5.37973Z" fill="white"/>
<path d="M11.3801 25.7109L10.8379 25.3403L9.66264 24.5368L10.3204 24.3253L11.146 24.8897M11.3801 25.7109L5.05764 34.9589L7.20253 36.4253L13.525 27.1773M11.3801 25.7109L13.525 27.1773M13.525 27.1773L13.961 27.4754C14.4988 27.8431 14.8003 28.0492 15.3382 28.4169L15.2385 27.6875L14.2691 27.0248M14.2691 27.0248L25.472 10.6379L24.4841 5.37973L11.146 24.8897M14.2691 27.0248L11.146 24.8897" stroke="#30883C"/>
<path d="M11.5644 4.58218L11.1578 9.9169L24.0867 24.9794L23.1957 25.7442L23.1764 26.4801L24.4422 25.3936L24.843 25.0495L32.1395 33.5501L34.1111 31.8578L26.8146 23.3573L27.3129 22.9295L28.3932 22.0022L27.7162 21.864L26.9574 22.5153L11.5644 4.58218Z" fill="white"/>
<path d="M26.8146 23.3573L27.3129 22.9295L28.3932 22.0022L27.7162 21.864L26.9574 22.5153M26.8146 23.3573L34.1111 31.8578L32.1395 33.5501L24.843 25.0495M26.8146 23.3573L24.843 25.0495M24.843 25.0495L24.4422 25.3936C23.9479 25.8179 23.6707 26.0558 23.1764 26.4801L23.1957 25.7442L24.0867 24.9794M24.0867 24.9794L11.1578 9.9169L11.5644 4.58218L26.9574 22.5153M24.0867 24.9794L26.9574 22.5153" stroke="#30883C"/>
</g>
<defs>
<clipPath id="clip0_619_83">
<rect width="38" height="38" fill="white"/>
</clipPath>
</defs>
</svg>
