<svg width="38" height="38" viewBox="0 0 38 38" fill="none" xmlns="http://www.w3.org/2000/svg">
<mask id="path-1-outside-1_1240_2" maskUnits="userSpaceOnUse" x="6.68817" y="4.83876" width="25" height="28" fill="black">
<rect fill="white" x="6.68817" y="4.83876" width="25" height="28"/>
<path fill-rule="evenodd" clip-rule="evenodd" d="M28.8447 17.8388C28.2348 15.5996 27.3007 13.4508 26.0636 11.4633L28.6882 8.83876L24.6882 5.83876L22.6882 7.83876H16.6882L14.6882 5.83876L10.6882 8.83876L13.0921 11.2427C11.6445 13.2653 10.5341 15.4929 9.79041 17.8388H7.68817V21.8388H8.89607C8.8336 22.306 8.78506 22.7758 8.75065 23.2475H7.68817V27.2475H9.07682C10.0186 29.9219 12.5675 31.8388 15.564 31.8388H22.6882C25.7078 31.8388 28.2808 29.9268 29.2627 27.2475H30.6882V23.2475H29.6714C29.6537 22.7763 29.6222 22.3065 29.5771 21.8388H30.6882V17.8388H28.8447Z"/>
</mask>
<path fill-rule="evenodd" clip-rule="evenodd" d="M28.8447 17.8388C28.2348 15.5996 27.3007 13.4508 26.0636 11.4633L28.6882 8.83876L24.6882 5.83876L22.6882 7.83876H16.6882L14.6882 5.83876L10.6882 8.83876L13.0921 11.2427C11.6445 13.2653 10.5341 15.4929 9.79041 17.8388H7.68817V21.8388H8.89607C8.8336 22.306 8.78506 22.7758 8.75065 23.2475H7.68817V27.2475H9.07682C10.0186 29.9219 12.5675 31.8388 15.564 31.8388H22.6882C25.7078 31.8388 28.2808 29.9268 29.2627 27.2475H30.6882V23.2475H29.6714C29.6537 22.7763 29.6222 22.3065 29.5771 21.8388H30.6882V17.8388H28.8447Z" fill="black"/>
<path d="M26.0636 11.4633L25.5687 10.9683L25.1757 11.3613L25.4694 11.8332L26.0636 11.4633ZM28.8447 17.8388L28.1693 18.0227L28.3098 18.5388H28.8447V17.8388ZM28.6882 8.83876L29.1831 9.33374L29.7539 8.76302L29.1082 8.27876L28.6882 8.83876ZM24.6882 5.83876L25.1082 5.27876L24.6225 4.9145L24.1932 5.34379L24.6882 5.83876ZM22.6882 7.83876V8.53876H22.9781L23.1831 8.33374L22.6882 7.83876ZM16.6882 7.83876L16.1932 8.33374L16.3982 8.53876H16.6882V7.83876ZM14.6882 5.83876L15.1831 5.34379L14.7539 4.9145L14.2682 5.27876L14.6882 5.83876ZM10.6882 8.83876L10.2682 8.27876L9.62249 8.76302L10.1932 9.33374L10.6882 8.83876ZM13.0921 11.2427L13.6613 11.6501L14.0068 11.1674L13.5871 10.7477L13.0921 11.2427ZM9.79041 17.8388V18.5388H10.3028L10.4577 18.0503L9.79041 17.8388ZM7.68817 17.8388V17.1388H6.98817V17.8388H7.68817ZM7.68817 21.8388H6.98817V22.5388H7.68817V21.8388ZM8.89607 21.8388L9.5899 21.9315L9.69589 21.1388H8.89607V21.8388ZM8.75065 23.2475V23.9475H9.40144L9.44879 23.2984L8.75065 23.2475ZM7.68817 23.2475V22.5475H6.98817V23.2475H7.68817ZM7.68817 27.2475H6.98817V27.9475H7.68817V27.2475ZM9.07682 27.2475L9.73708 27.015L9.57245 26.5475H9.07682V27.2475ZM29.2627 27.2475V26.5475H28.7737L28.6055 27.0066L29.2627 27.2475ZM30.6882 27.2475V27.9475H31.3882V27.2475H30.6882ZM30.6882 23.2475H31.3882V22.5475H30.6882V23.2475ZM29.6714 23.2475L28.9719 23.2737L28.9971 23.9475H29.6714V23.2475ZM29.5771 21.8388V21.1388H28.8062L28.8803 21.906L29.5771 21.8388ZM30.6882 21.8388V22.5388H31.3882V21.8388H30.6882ZM30.6882 17.8388H31.3882V17.1388H30.6882V17.8388ZM25.4694 11.8332C26.6704 13.7627 27.5772 15.8488 28.1693 18.0227L29.5201 17.6548C28.8924 15.3503 27.9311 13.1388 26.6579 11.0934L25.4694 11.8332ZM28.1932 8.34379L25.5687 10.9683L26.5586 11.9583L29.1831 9.33374L28.1932 8.34379ZM24.2682 6.39876L28.2682 9.39876L29.1082 8.27876L25.1082 5.27876L24.2682 6.39876ZM23.1831 8.33374L25.1831 6.33374L24.1932 5.34379L22.1932 7.34379L23.1831 8.33374ZM16.6882 8.53876H22.6882V7.13876H16.6882V8.53876ZM17.1831 7.34379L15.1831 5.34379L14.1932 6.33374L16.1932 8.33374L17.1831 7.34379ZM14.2682 5.27876L10.2682 8.27876L11.1082 9.39876L15.1082 6.39876L14.2682 5.27876ZM10.1932 9.33374L12.5971 11.7377L13.5871 10.7477L11.1831 8.34379L10.1932 9.33374ZM10.4577 18.0503C11.1793 15.7741 12.2567 13.6126 13.6613 11.6501L12.5229 10.8353C11.0323 12.9179 9.88892 15.2117 9.12314 17.6272L10.4577 18.0503ZM7.68817 18.5388H9.79041V17.1388H7.68817V18.5388ZM8.38817 21.8388V17.8388H6.98817V21.8388H8.38817ZM8.89607 21.1388H7.68817V22.5388H8.89607V21.1388ZM9.44879 23.2984C9.48218 22.8407 9.52928 22.3849 9.5899 21.9315L8.20224 21.746C8.13792 22.2271 8.08793 22.7108 8.0525 23.1966L9.44879 23.2984ZM7.68817 23.9475H8.75065V22.5475H7.68817V23.9475ZM8.38817 27.2475V23.2475H6.98817V27.2475H8.38817ZM9.07682 26.5475H7.68817V27.9475H9.07682V26.5475ZM15.564 31.1388C12.8736 31.1388 10.5833 29.4181 9.73708 27.015L8.41657 27.48C9.45395 30.4258 12.2613 32.5388 15.564 32.5388V31.1388ZM22.6882 31.1388H15.564V32.5388H22.6882V31.1388ZM28.6055 27.0066C27.7213 29.4191 25.4047 31.1388 22.6882 31.1388V32.5388C26.0108 32.5388 28.8402 30.4346 29.92 27.4884L28.6055 27.0066ZM30.6882 26.5475H29.2627V27.9475H30.6882V26.5475ZM29.9882 23.2475V27.2475H31.3882V23.2475H29.9882ZM29.6714 23.9475H30.6882V22.5475H29.6714V23.9475ZM28.8803 21.906C28.9242 22.3602 28.9547 22.8163 28.9719 23.2737L30.3709 23.2213C30.3527 22.7364 30.3203 22.2529 30.2738 21.7715L28.8803 21.906ZM30.6882 21.1388H29.5771V22.5388H30.6882V21.1388ZM29.9882 17.8388V21.8388H31.3882V17.8388H29.9882ZM28.8447 18.5388H30.6882V17.1388H28.8447V18.5388Z" fill="black" mask="url(#path-1-outside-1_1240_2)"/>
<path d="M8.68817 24.9629C8.68817 19.7723 10.4013 14.7268 13.5617 10.6093L15.6882 7.83876H23.6882L25.7382 10.9548C28.315 14.8715 29.6882 19.4572 29.6882 24.1456V24.8388C29.6882 28.7048 26.5542 31.8388 22.6882 31.8388H15.564C11.7666 31.8388 8.68817 28.7603 8.68817 24.9629Z" fill="black" stroke="#D3642B" stroke-width="0.7"/>
<rect x="22.6882" y="17.8388" width="8" height="4" fill="black" stroke="#D3642B" stroke-width="0.7"/>
<rect x="7.68817" y="17.8388" width="8" height="4" fill="black" stroke="#D3642B" stroke-width="0.7"/>
<rect x="22.6882" y="23.2475" width="8" height="4" fill="black" stroke="#D3642B" stroke-width="0.7"/>
<rect x="7.68817" y="23.2475" width="8" height="4" fill="black" stroke="#D3642B" stroke-width="0.7"/>
<path d="M25.1882 12.3388H22.1882V8.33876L24.6882 5.83876L28.6882 8.83876L25.1882 12.3388Z" fill="black" stroke="#D3642B" stroke-width="0.7"/>
<path d="M14.1882 12.3388H17.1882V8.33876L14.6882 5.83876L10.6882 8.83876L14.1882 12.3388Z" fill="black" stroke="#D3642B" stroke-width="0.7"/>
</svg>
