<svg width="38" height="38" viewBox="0 0 38 38" fill="none" xmlns="http://www.w3.org/2000/svg">
<path d="M4.13022 24.5627V4.56532C4.13022 4.28918 4.35408 4.06532 4.63022 4.06532H33.1982C33.4743 4.06532 33.6982 4.28918 33.6982 4.56532V24.5627L18.9731 33.8689L4.13022 24.5627Z" fill="#A92004" stroke="#EEC48A"/>
<rect x="16.2507" y="7.17424" width="5.3266" height="20.128" fill="#EEC48A"/>
<rect x="28.978" y="14.5749" width="5.3266" height="20.128" transform="rotate(90 28.978 14.5749)" fill="#EEC48A"/>
<path d="M13.4758 25.9403C13.3559 26.0602 13.1615 26.0603 13.0415 25.9403L10.6722 23.571C10.5523 23.4511 10.5523 23.2567 10.6722 23.1368L19.3652 14.4438L20.7543 13.6557L22.9569 15.8583L22.1659 17.2446L13.4758 25.9403Z" fill="#A92004" stroke="#EEC48A" stroke-width="0.61404" stroke-miterlimit="10"/>
<path d="M22.957 15.8583L20.7543 13.6557C22.8438 11.5662 24.8183 10.1046 27.3467 8.54874C27.6292 8.37396 27.929 8.36324 28.0906 8.52482C28.2522 8.6864 28.243 8.97913 28.0667 9.26877C26.5086 11.8008 25.0658 13.7551 22.9598 15.8611L22.957 15.8583Z" fill="#A92004" stroke="#EEC48A" stroke-width="0.61404" stroke-miterlimit="10"/>
</svg>
