<svg width="38" height="38" viewBox="0 0 38 38" fill="none" xmlns="http://www.w3.org/2000/svg">
<path d="M29.3436 30.5143C29.3436 30.7423 29.1736 31.0417 28.6611 31.3784C28.1628 31.7057 27.4187 32.014 26.4678 32.2782C24.571 32.8053 21.9306 33.1357 19 33.1357C16.0694 33.1357 13.429 32.8053 11.5322 32.2782C10.5813 32.014 9.83716 31.7057 9.3389 31.3784C8.82641 31.0417 8.65637 30.7423 8.65637 30.5143C8.65637 30.2863 8.82641 29.9869 9.3389 29.6502C9.83716 29.3229 10.5813 29.0146 11.5322 28.7504C13.429 28.2233 16.0694 27.8929 19 27.8929C21.9306 27.8929 24.571 28.2233 26.4678 28.7504C27.4187 29.0146 28.1628 29.3229 28.6611 29.6502C29.1736 29.9869 29.3436 30.2863 29.3436 30.5143Z" fill="white" stroke="black" stroke-width="0.7"/>
<path d="M22.8584 10.9718L22.9609 11.0743L23.1059 11.0743L25.5729 11.0743L25.8281 11.0743L26.6731 11.0743L26.0756 10.4768L19.8655 4.26679L19.618 4.01931L19.3706 4.26679L13.1605 10.4768L12.563 11.0743L13.408 11.0743L16.1302 11.0743L16.2751 11.0743L16.3777 10.9718L19.618 7.73143L22.8584 10.9718Z" fill="white" stroke="black" stroke-width="0.7"/>
<path d="M19.5746 26.4691L19.8303 26.7209L20.0756 26.4589L21.4232 25.0197L21.6562 24.7709L21.4137 24.5315L19.2192 22.3647L21.9407 21.1186L22.1335 21.0304L22.1446 20.8187L22.4695 14.6032L22.4769 14.4606L22.3825 14.3535L21.617 13.4851L21.0983 10.9259L21.0218 10.5483L20.6533 10.6606L18.5236 11.3097L18.1888 11.4117L18.2908 11.7465L18.9737 13.9871L18.9045 14.0082L18.1176 12.3417L17.9884 12.0681L17.6991 12.1563L16.9066 12.3979L16.5206 12.5155L16.6917 12.881L18.0562 15.7965L18.081 18.3381L15.1501 21.6477L14.93 21.8962L15.1666 22.1291L19.5746 26.4691Z" fill="white" stroke="black" stroke-width="0.7"/>
</svg>
