<svg width="38" height="38" viewBox="0 0 38 38" fill="none" xmlns="http://www.w3.org/2000/svg">
<path d="M29.3436 28.4852C29.3436 28.7133 29.1736 29.0126 28.6611 29.3493C28.1628 29.6767 27.4187 29.9849 26.4678 30.2491C24.571 30.7762 21.9306 31.1066 19 31.1066C16.0694 31.1066 13.429 30.7762 11.5322 30.2491C10.5813 29.9849 9.83716 29.6767 9.3389 29.3493C8.82641 29.0126 8.65637 28.7133 8.65637 28.4852C8.65637 28.2572 8.82641 27.9578 9.3389 27.6211C9.83716 27.2938 10.5813 26.9856 11.5322 26.7213C13.429 26.1943 16.0694 25.8638 19 25.8638C21.9306 25.8638 24.571 26.1943 26.4678 26.7213C27.4187 26.9856 28.1628 27.2938 28.6611 27.6211C29.1736 27.9578 29.3436 28.2572 29.3436 28.4852Z" fill="white" stroke="black" stroke-width="0.7"/>
<path d="M15.7596 6.29587L15.6571 6.19335H15.5121H13.0451H12.7899H11.945L12.5425 6.79084L18.7525 13.0009L19 13.2484L19.2475 13.0009L25.4575 6.79084L26.055 6.19335H25.2101H22.4879H22.3429L22.2404 6.29587L19 9.53626L15.7596 6.29587Z" fill="white" stroke="black" stroke-width="0.7"/>
<path d="M18.0689 27.393L18.3246 27.6448L18.5699 27.3829L19.9176 25.9438L20.1506 25.695L19.9081 25.4555L17.7138 23.2886L20.4354 22.0427L20.6282 21.9545L20.6393 21.7428L20.9647 15.5273L20.9721 15.3847L20.8777 15.2776L20.1123 14.4091L19.5938 11.8499L19.5173 11.4723L19.1488 11.5846L17.0191 12.2335L16.6843 12.3355L16.7863 12.6703L17.469 14.911L17.3998 14.9321L16.613 13.2655L16.4838 12.9919L16.1945 13.0801L15.402 13.3216L15.016 13.4392L15.187 13.8047L16.5513 16.7203L16.5759 19.2619L13.6448 22.5712L13.4246 22.8198L13.6612 23.0527L18.0689 27.393Z" fill="white" stroke="black" stroke-width="0.7"/>
</svg>
