<svg width="38" height="38" viewBox="0 0 38 38" fill="none" xmlns="http://www.w3.org/2000/svg">
<g clip-path="url(#clip0_619_103)">
<path d="M16.2609 31.461H11.719V21.0422L12.2058 16.6817H15.7741L16.2609 21.0422V31.461Z" fill="white" stroke="#30883C" stroke-miterlimit="10"/>
<path d="M15.7741 16.6817H12.2058V13.7277C12.2058 13.6501 12.2196 13.5774 12.2426 13.5046L13.409 10.1044C13.4963 9.84735 13.7305 9.67273 13.9923 9.67273C14.254 9.67273 14.4837 9.8425 14.5755 10.1044L15.742 13.5046C15.7649 13.5774 15.7787 13.6501 15.7787 13.7277V16.6817H15.7741Z" fill="white" stroke="#30883C" stroke-miterlimit="10"/>
<path d="M11.719 31.461H16.2609V32.5184C16.2609 32.8968 15.9716 33.2072 15.6088 33.2072H12.3711C12.0129 33.2072 11.719 32.9016 11.719 32.5184V31.461Z" fill="white" stroke="#30883C" stroke-miterlimit="10"/>
<path d="M21.7446 31.099H16.2609V18.5198L16.8487 13.2551H21.1569L21.7391 18.5198L21.7446 31.099Z" fill="white" stroke="#30883C" stroke-miterlimit="10"/>
<path d="M21.1569 13.2551H16.8487V9.68862C16.8487 9.59492 16.8653 9.50707 16.893 9.41923L18.3014 5.31402C18.4067 5.00364 18.6895 4.79282 19.0055 4.79282C19.3216 4.79282 19.5988 4.99778 19.7097 5.31402L21.1181 9.41923C21.1458 9.50707 21.1624 9.59492 21.1624 9.68862V13.2551H21.1569Z" fill="white" stroke="#30883C" stroke-miterlimit="10"/>
<path d="M16.2609 31.099H21.7446V32.3756C21.7446 32.8324 21.3953 33.2072 20.9573 33.2072H17.0427C16.6102 33.2072 16.2554 32.8383 16.2554 32.3756V31.099H16.2609Z" fill="white" stroke="#30883C" stroke-miterlimit="10"/>
<path d="M26.281 31.461H21.7437V21.0422L22.2259 16.6817H25.7988L26.281 21.0422V31.461Z" fill="white" stroke="#30883C" stroke-miterlimit="10"/>
<path d="M25.7988 16.6817H22.2305V13.7277C22.2305 13.6501 22.2442 13.5774 22.2672 13.5046L23.4337 10.1044C23.5209 9.84735 23.7552 9.67273 24.0169 9.67273C24.2787 9.67273 24.5083 9.8425 24.6002 10.1044L25.7666 13.5046C25.7896 13.5774 25.8034 13.6501 25.8034 13.7277V16.6817H25.7988Z" fill="white" stroke="#30883C" stroke-miterlimit="10"/>
<path d="M21.7437 31.461H26.2856V32.5184C26.2856 32.8968 25.9963 33.2072 25.6335 33.2072H22.3912C22.033 33.2072 21.7391 32.9016 21.7391 32.5184V31.461H21.7437Z" fill="white" stroke="#30883C" stroke-miterlimit="10"/>
</g>
<defs>
<clipPath id="clip0_619_103">
<rect width="17" height="29" fill="white" transform="translate(10.5 4.5)"/>
</clipPath>
</defs>
</svg>
