<svg width="38" height="38" viewBox="0 0 38 38" fill="none" xmlns="http://www.w3.org/2000/svg">
<mask id="path-1-outside-1_704_24" maskUnits="userSpaceOnUse" x="6.5" y="4" width="25" height="29" fill="black">
<rect fill="white" x="6.5" y="4" width="25" height="29"/>
<path fill-rule="evenodd" clip-rule="evenodd" d="M28.6565 18C28.0466 15.7608 27.1126 13.612 25.8755 11.6245L28.5 9L24.5 6L22.5 8H16.5L14.5 6L10.5 9L12.9039 11.4039C11.4563 13.4265 10.3459 15.6541 9.60224 18H7.5V22H8.7079C8.64543 22.4672 8.59688 22.937 8.56247 23.4088H7.5V27.4088H8.88865C9.83047 30.0832 12.3793 32 15.3758 32H22.5C25.5196 32 28.0926 30.0881 29.0745 27.4088H30.5V23.4088H29.4832C29.4656 22.9376 29.4341 22.4678 29.3889 22H30.5V18H28.6565Z"/>
</mask>
<path fill-rule="evenodd" clip-rule="evenodd" d="M28.6565 18C28.0466 15.7608 27.1126 13.612 25.8755 11.6245L28.5 9L24.5 6L22.5 8H16.5L14.5 6L10.5 9L12.9039 11.4039C11.4563 13.4265 10.3459 15.6541 9.60224 18H7.5V22H8.7079C8.64543 22.4672 8.59688 22.937 8.56247 23.4088H7.5V27.4088H8.88865C9.83047 30.0832 12.3793 32 15.3758 32H22.5C25.5196 32 28.0926 30.0881 29.0745 27.4088H30.5V23.4088H29.4832C29.4656 22.9376 29.4341 22.4678 29.3889 22H30.5V18H28.6565Z" fill="white"/>
<path d="M25.8755 11.6245L25.1684 10.9174L24.6069 11.4789L25.0265 12.153L25.8755 11.6245ZM28.6565 18L27.6917 18.2628L27.8924 19H28.6565V18ZM28.5 9L29.2071 9.70711L30.0224 8.89181L29.1 8.2L28.5 9ZM24.5 6L25.1 5.2L24.4062 4.67962L23.7929 5.29289L24.5 6ZM22.5 8V9H22.9142L23.2071 8.70711L22.5 8ZM16.5 8L15.7929 8.70711L16.0858 9H16.5V8ZM14.5 6L15.2071 5.29289L14.5938 4.67962L13.9 5.2L14.5 6ZM10.5 9L9.9 8.2L8.97759 8.89181L9.79289 9.70711L10.5 9ZM12.9039 11.4039L13.7171 11.986L14.2106 11.2964L13.611 10.6968L12.9039 11.4039ZM9.60224 18V19H10.3343L10.5555 18.3022L9.60224 18ZM7.5 18V17H6.5V18H7.5ZM7.5 22H6.5V23H7.5V22ZM8.7079 22L9.69908 22.1325L9.8505 21H8.7079V22ZM8.56247 23.4088V24.4088H9.49219L9.55982 23.4815L8.56247 23.4088ZM7.5 23.4088V22.4088H6.5V23.4088H7.5ZM7.5 27.4088H6.5V28.4088H7.5V27.4088ZM8.88865 27.4088L9.83187 27.0766L9.59668 26.4088H8.88865V27.4088ZM29.0745 27.4088V26.4088H28.376L28.1356 27.0647L29.0745 27.4088ZM30.5 27.4088V28.4088H31.5V27.4088H30.5ZM30.5 23.4088H31.5V22.4088H30.5V23.4088ZM29.4832 23.4088L28.4839 23.4462L28.5199 24.4088H29.4832V23.4088ZM29.3889 22V21H28.2877L28.3935 22.0961L29.3889 22ZM30.5 22V23H31.5V22H30.5ZM30.5 18H31.5V17H30.5V18ZM25.0265 12.153C26.212 14.0576 27.1072 16.1169 27.6917 18.2628L29.6214 17.7372C28.9861 15.4047 28.0131 13.1664 26.7244 11.0961L25.0265 12.153ZM27.7929 8.29289L25.1684 10.9174L26.5826 12.3316L29.2071 9.70711L27.7929 8.29289ZM23.9 6.8L27.9 9.8L29.1 8.2L25.1 5.2L23.9 6.8ZM23.2071 8.70711L25.2071 6.70711L23.7929 5.29289L21.7929 7.29289L23.2071 8.70711ZM16.5 9H22.5V7H16.5V9ZM17.2071 7.29289L15.2071 5.29289L13.7929 6.70711L15.7929 8.70711L17.2071 7.29289ZM13.9 5.2L9.9 8.2L11.1 9.8L15.1 6.8L13.9 5.2ZM9.79289 9.70711L12.1968 12.111L13.611 10.6968L11.2071 8.29289L9.79289 9.70711ZM10.5555 18.3022C11.2676 16.0558 12.3309 13.9227 13.7171 11.986L12.0908 10.8219C10.5817 12.9303 9.42423 15.2525 8.64899 17.6978L10.5555 18.3022ZM7.5 19H9.60224V17H7.5V19ZM8.5 22V18H6.5V22H8.5ZM8.7079 21H7.5V23H8.7079V21ZM9.55982 23.4815C9.59277 23.0298 9.63926 22.5799 9.69908 22.1325L7.71672 21.8675C7.6516 22.3545 7.60099 22.8443 7.56512 23.336L9.55982 23.4815ZM7.5 24.4088H8.56247V22.4088H7.5V24.4088ZM8.5 27.4088V23.4088H6.5V27.4088H8.5ZM8.88865 26.4088H7.5V28.4088H8.88865V26.4088ZM15.3758 31C12.8167 31 10.6372 29.3634 9.83187 27.0766L7.94543 27.7409C9.02376 30.8029 11.9419 33 15.3758 33V31ZM22.5 31H15.3758V33H22.5V31ZM28.1356 27.0647C27.2934 29.3627 25.0866 31 22.5 31V33C25.9525 33 28.8918 30.8134 30.0135 27.7529L28.1356 27.0647ZM30.5 26.4088H29.0745V28.4088H30.5V26.4088ZM29.5 23.4088V27.4088H31.5V23.4088H29.5ZM29.4832 24.4088H30.5V22.4088H29.4832V24.4088ZM28.3935 22.0961C28.4368 22.5444 28.467 22.9946 28.4839 23.4462L30.4825 23.3713C30.4641 22.8805 30.4313 22.3912 30.3843 21.9039L28.3935 22.0961ZM30.5 21H29.3889V23H30.5V21ZM29.5 18V22H31.5V18H29.5ZM28.6565 19H30.5V17H28.6565V19Z" fill="white" mask="url(#path-1-outside-1_704_24)"/>
<path d="M8.5 25.1242C8.5 19.9336 10.2131 14.8881 13.3735 10.7705L15.5 8H23.5L25.55 11.116C28.1268 15.0328 29.5 19.6184 29.5 24.3068V25C29.5 28.866 26.366 32 22.5 32H15.3758C11.5784 32 8.5 28.9216 8.5 25.1242Z" fill="white" stroke="#30883C"/>
<rect x="22.5" y="18" width="8" height="4" fill="white" stroke="#30883C"/>
<rect x="7.5" y="18" width="8" height="4" fill="white" stroke="#30883C"/>
<rect x="22.5" y="23.4088" width="8" height="4" fill="white" stroke="#30883C"/>
<rect x="7.5" y="23.4088" width="8" height="4" fill="white" stroke="#30883C"/>
<path d="M25 12.5H22V8.5L24.5 6L28.5 9L25 12.5Z" fill="white" stroke="#30883C"/>
<path d="M14 12.5H17V8.5L14.5 6L10.5 9L14 12.5Z" fill="white" stroke="#30883C"/>
</svg>
