<svg width="38" height="38" viewBox="0 0 38 38" fill="none" xmlns="http://www.w3.org/2000/svg">
<path d="M4.13022 24.5627V4.06532H33.6982V24.5627L18.9731 33.8689L4.13022 24.5627Z" fill="#6D5023" stroke="#D3A92B"/>
<path d="M10.5646 9.91702L11.8479 14.6655L20.9599 23.7774L27.5051 26.6008L25.3233 21.2107H31.3552L25.3233 17.2322L31.3552 14.6655H25.3233L31.3552 7.60695L23.655 12.4838L24.6817 6.06691L21.6016 10.8154L19.9332 7.60695L18.7781 10.8154L14.4147 5.16855L15.3 11.7313L10.5646 9.91702Z" fill="#D3A92B"/>
<path d="M16.917 24.5057L14.3645 27.0582C13.8472 27.5754 13.0879 27.7577 12.4565 27.3884C11.8782 27.0502 11.0986 26.5073 10.2014 25.6586C8.26564 23.8274 8.66437 22.923 8.66437 22.923C9.15425 22.2824 10.2923 20.8429 10.9253 20.2098C10.021 19.3054 11.2389 15.2891 11.8297 14.1052C12.7975 12.1659 15.8108 11.8197 16.917 12.974C17.443 12.9691 17.885 12.9747 18.1605 12.9747C19.404 12.9747 23.1347 12.8616 24.1521 18.401C25.1696 23.9404 20.7606 25.6362 16.917 24.5057Z" fill="#6D5023"/>
<path d="M16.917 24.5057L14.3645 27.0582C13.8472 27.5754 13.0879 27.7577 12.4565 27.3884C11.8782 27.0502 11.0986 26.5073 10.2014 25.6586C8.26564 23.8274 8.66437 22.923 8.66437 22.923C9.15425 22.2824 10.2923 20.8429 10.9253 20.2098M16.917 24.5057C20.7606 25.6362 25.1696 23.9404 24.1521 18.401C23.1347 12.8616 19.404 12.9747 18.1605 12.9747C17.885 12.9747 17.443 12.9691 16.917 12.974M16.917 24.5057C12.3182 21.4193 15.6203 16.9506 16.2387 16.8183M10.9253 20.2098C10.021 19.3054 11.2389 15.2891 11.8297 14.1052C12.7975 12.1659 15.8108 11.8197 16.917 12.974M10.9253 20.2098C12.1011 20.7677 12.8952 21.8272 13.1259 22.3836M16.917 12.974C18.8388 15.2357 17.8021 16.4841 16.2387 16.8183M16.2387 16.8183C15.1266 17.9137 13.8188 17.5751 13.3039 17.269" stroke="#D3A92B" stroke-linecap="round"/>
<path d="M20.1279 15.1599C21.5502 16.8667 22.9725 19.6166 23.0673 20.9441C23.7311 18.6683 22.4036 15.7289 20.1279 15.1599Z" fill="#D3A92B"/>
<path d="M12.6454 14.7631C12.9493 14.2519 13.7893 13.2295 14.7178 13.2295C14.1209 13.8595 13.0875 14.5144 12.6454 14.7631Z" fill="#D3A92B"/>
</svg>
