<svg width="38" height="38" viewBox="0 0 38 38" fill="none" xmlns="http://www.w3.org/2000/svg">
<path d="M3 19L19 3L35 19L19 35L3 19Z" fill="#CC358B" stroke="black"/>
<path d="M6.49157 19.0366C8.19805 20.5861 13.1277 23.7542 19.1942 24.0303C21.6198 24.1407 23.613 23.7758 25.2243 23.3549C28.6504 22.4598 30.3492 21.3113 30.8035 23.9406C30.8836 24.4042 30.8542 24.8868 30.7321 25.3757C30.268 27.2322 28.4646 29.1795 26.2261 30.5242C24.1389 31.7781 21.6735 32.5081 19.563 32.1523C14.5928 31.3143 9.64562 28.8128 7.4193 25.6757C5.63825 23.166 6.0587 20.204 6.49157 19.0366Z" fill="white"/>
<path d="M6.49157 19.0366C8.19805 20.5861 13.1277 23.7542 19.1942 24.0303C21.6198 24.1407 23.613 23.7758 25.2243 23.3549M6.49157 19.0366C6.0587 20.204 5.63825 23.166 7.4193 25.6757C9.64562 28.8128 14.5928 31.3143 19.563 32.1523C21.6735 32.5081 24.1389 31.7781 26.2261 30.5242C28.4646 29.1795 30.268 27.2322 30.7321 25.3757M6.49157 19.0366L8.03362 23.6742L10.2736 22.3395L13.3134 28.5557L15.4363 24.5554L19.2129 29.647L20.0306 25.4459L22.7203 29.1569L25.2243 23.3549M25.2243 23.3549C28.6504 22.4598 30.3492 21.3113 30.8035 23.9406C30.8836 24.4042 30.8542 24.8868 30.7321 25.3757M25.2243 23.3549L27.2501 27.7576L28.5487 24.2556L29.5978 26.2801L30.7321 25.3757" stroke="black" stroke-width="0.7" stroke-miterlimit="16"/>
<path d="M11.5561 19.0555C14.5309 19.3832 17.208 17.2374 17.5358 14.2627C17.8636 11.288 15.7178 8.61079 12.7431 8.28302C9.76834 7.95526 7.09114 10.101 6.76338 13.0758C6.43561 16.0505 8.5814 18.7277 11.5561 19.0555Z" fill="white" stroke="black" stroke-width="0.7"/>
<line x1="9.3747" y1="10.4951" x2="14.597" y2="17.0107" stroke="black" stroke-width="0.7"/>
<line x1="15.4518" y1="10.9613" x2="8.93611" y2="16.1836" stroke="black" stroke-width="0.7"/>
<line y1="-0.7" x2="12.0846" y2="-0.7" transform="matrix(-0.780296 0.62541 0.62541 0.780296 32.1725 12.0846)" stroke="black" stroke-width="1.4"/>
<line y1="-0.7" x2="12.0846" y2="-0.7" transform="matrix(0.62541 0.780296 0.780296 -0.62541 23.5202 10.1162)" stroke="black" stroke-width="1.4"/>
</svg>
