<svg width="38" height="38" viewBox="0 0 38 38" fill="none" xmlns="http://www.w3.org/2000/svg">
<path d="M5.5 19L19 5.5L32.5 19L19 32.5L5.5 19Z" fill="#CC358B" stroke="black"/>
<path d="M8.44603 19.0309C9.88588 20.3383 14.0452 23.0113 19.1639 23.2443C21.2104 23.3375 22.8923 23.0296 24.2517 22.6744C27.1426 21.9192 28.5759 20.9502 28.9592 23.1686C29.0268 23.5598 29.002 23.967 28.8989 24.3795C28.5074 25.9459 26.9858 27.5889 25.097 28.7236C23.336 29.7815 21.2558 30.3975 19.475 30.0972C15.2815 29.3902 11.1073 27.2796 9.22881 24.6326C7.72604 22.5151 8.0808 20.0158 8.44603 19.0309Z" fill="white"/>
<path d="M8.44603 19.0309C9.88588 20.3383 14.0452 23.0113 19.1639 23.2443C21.2104 23.3375 22.8923 23.0296 24.2517 22.6744M8.44603 19.0309C8.0808 20.0158 7.72604 22.5151 9.22881 24.6326C11.1073 27.2796 15.2815 29.3902 19.475 30.0972C21.2558 30.3975 23.336 29.7815 25.097 28.7236C26.9858 27.5889 28.5074 25.9459 28.8989 24.3795M8.44603 19.0309L9.74713 22.9439L11.6371 21.8177L14.2019 27.0626L15.9931 23.6874L19.1796 27.9834L19.8696 24.4388L22.139 27.5699L24.2517 22.6744M24.2517 22.6744C27.1426 21.9192 28.5759 20.9502 28.9592 23.1686C29.0268 23.5598 29.002 23.967 28.8989 24.3795M24.2517 22.6744L25.961 26.3892L27.0567 23.4345L27.9419 25.1426L28.8989 24.3795" stroke="black" stroke-width="0.7" stroke-miterlimit="16"/>
<circle cx="13.22" cy="14.5022" r="4.62681" transform="rotate(6.28769 13.22 14.5022)" fill="white" stroke="black" stroke-width="0.7"/>
<line x1="10.9213" y1="11.7898" x2="15.3277" y2="17.2874" stroke="black" stroke-width="0.7"/>
<line x1="16.0404" y1="12.26" x2="10.5428" y2="16.6663" stroke="black" stroke-width="0.7"/>
<line y1="-0.7" x2="10.1964" y2="-0.7" transform="matrix(-0.780296 0.62541 0.62541 0.780296 30.1143 13.1651)" stroke="black" stroke-width="1.4"/>
<line y1="-0.7" x2="10.1964" y2="-0.7" transform="matrix(0.62541 0.780296 0.780296 -0.62541 22.814 11.5043)" stroke="black" stroke-width="1.4"/>
</svg>
