<svg width="39" height="38" viewBox="0 0 39 38" fill="none" xmlns="http://www.w3.org/2000/svg">
<path d="M6 19L19.5 5.5L33 19L19.5 32.5L6 19Z" fill="#35C2CC" stroke="black"/>
<path d="M8.94603 19.0309C10.3859 20.3383 14.5452 23.0113 19.6639 23.2443C21.7104 23.3375 23.3923 23.0296 24.7517 22.6744C27.6426 21.9192 29.0759 20.9502 29.4592 23.1686C29.5268 23.5598 29.502 23.967 29.3989 24.3795C29.0074 25.9459 27.4858 27.5889 25.597 28.7236C23.836 29.7815 21.7558 30.3975 19.975 30.0972C15.7815 29.3902 11.6073 27.2796 9.72881 24.6326C8.22604 22.5151 8.5808 20.0158 8.94603 19.0309Z" fill="white"/>
<path d="M8.94603 19.0309C10.3859 20.3383 14.5452 23.0113 19.6639 23.2443C21.7104 23.3375 23.3923 23.0296 24.7517 22.6744M8.94603 19.0309C8.5808 20.0158 8.22604 22.5151 9.72881 24.6326C11.6073 27.2796 15.7815 29.3902 19.975 30.0972C21.7558 30.3975 23.836 29.7815 25.597 28.7236C27.4858 27.5889 29.0074 25.9459 29.3989 24.3795M8.94603 19.0309L10.2471 22.9439L12.1371 21.8177L14.7019 27.0626L16.4931 23.6874L19.6796 27.9834L20.3696 24.4388L22.639 27.5699L24.7517 22.6744M24.7517 22.6744C27.6426 21.9192 29.0759 20.9502 29.4592 23.1686C29.5268 23.5598 29.502 23.967 29.3989 24.3795M24.7517 22.6744L26.461 26.3892L27.5567 23.4345L28.4419 25.1426L29.3989 24.3795" stroke="black" stroke-width="0.7" stroke-miterlimit="16"/>
<circle cx="13.72" cy="14.5022" r="4.62681" transform="rotate(6.28769 13.72 14.5022)" fill="white" stroke="black" stroke-width="0.7"/>
<line x1="11.4213" y1="11.7898" x2="15.8277" y2="17.2874" stroke="black" stroke-width="0.7"/>
<line x1="16.5404" y1="12.26" x2="11.0428" y2="16.6663" stroke="black" stroke-width="0.7"/>
<line y1="-0.7" x2="10.1964" y2="-0.7" transform="matrix(-0.780296 0.62541 0.62541 0.780296 30.6143 13.1651)" stroke="black" stroke-width="1.4"/>
<line y1="-0.7" x2="10.1964" y2="-0.7" transform="matrix(0.62541 0.780296 0.780296 -0.62541 23.314 11.5043)" stroke="black" stroke-width="1.4"/>
</svg>
