<svg width="39" height="38" viewBox="0 0 39 38" fill="none" xmlns="http://www.w3.org/2000/svg">
<path d="M3.5 19L19.5 3L35.5 19L19.5 35L3.5 19Z" fill="#35C2CC" stroke="black"/>
<path d="M6.99157 19.0366C8.69805 20.5861 13.6277 23.7542 19.6942 24.0303C22.1198 24.1407 24.113 23.7758 25.7243 23.3549C29.1504 22.4598 30.8492 21.3113 31.3035 23.9406C31.3836 24.4042 31.3542 24.8868 31.2321 25.3757C30.768 27.2322 28.9646 29.1795 26.7261 30.5242C24.6389 31.7781 22.1735 32.5081 20.063 32.1523C15.0928 31.3143 10.1456 28.8128 7.9193 25.6757C6.13825 23.166 6.5587 20.204 6.99157 19.0366Z" fill="white"/>
<path d="M6.99157 19.0366C8.69805 20.5861 13.6277 23.7542 19.6942 24.0303C22.1198 24.1407 24.113 23.7758 25.7243 23.3549M6.99157 19.0366C6.5587 20.204 6.13825 23.166 7.9193 25.6757C10.1456 28.8128 15.0928 31.3143 20.063 32.1523C22.1735 32.5081 24.6389 31.7781 26.7261 30.5242C28.9646 29.1795 30.768 27.2322 31.2321 25.3757M6.99157 19.0366L8.53362 23.6742L10.7736 22.3395L13.8134 28.5557L15.9363 24.5554L19.7129 29.647L20.5306 25.4459L23.2203 29.1569L25.7243 23.3549M25.7243 23.3549C29.1504 22.4598 30.8492 21.3113 31.3035 23.9406C31.3836 24.4042 31.3542 24.8868 31.2321 25.3757M25.7243 23.3549L27.7501 27.7576L29.0487 24.2556L30.0978 26.2801L31.2321 25.3757" stroke="black" stroke-width="0.7" stroke-miterlimit="16"/>
<path d="M12.0561 19.0555C15.0309 19.3832 17.708 17.2374 18.0358 14.2627C18.3636 11.288 16.2178 8.61079 13.2431 8.28302C10.2683 7.95526 7.59114 10.101 7.26338 13.0758C6.93561 16.0505 9.0814 18.7277 12.0561 19.0555Z" fill="white" stroke="black" stroke-width="0.7"/>
<line x1="9.8747" y1="10.4951" x2="15.097" y2="17.0107" stroke="black" stroke-width="0.7"/>
<line x1="15.9518" y1="10.9613" x2="9.43611" y2="16.1836" stroke="black" stroke-width="0.7"/>
<line y1="-0.7" x2="12.0846" y2="-0.7" transform="matrix(-0.780296 0.62541 0.62541 0.780296 32.6725 12.0846)" stroke="black" stroke-width="1.4"/>
<line y1="-0.7" x2="12.0846" y2="-0.7" transform="matrix(0.62541 0.780296 0.780296 -0.62541 24.0202 10.1162)" stroke="black" stroke-width="1.4"/>
</svg>
