<svg width="38" height="38" viewBox="0 0 38 38" fill="none" xmlns="http://www.w3.org/2000/svg">
<path d="M31.6056 31.6662L33.8602 24.9022H4.13973L6.39436 31.6662H31.6056Z" fill="white"/>
<path d="M33.8602 24.9022L31.6056 20.0854H29.4172L31.1185 23.4516H6.88143L8.42871 20.0854H6.39436L4.13973 24.9022H33.8602Z" fill="white"/>
<path d="M29.4172 20.0854H31.6056H33.5037L34.2084 17.4345H3.79156L4.49627 20.0854H6.39436H8.42871H29.4172Z" fill="white"/>
<path d="M34.2084 17.4345L30.8475 13.4773H7.15247L3.79156 17.4345H34.2084Z" fill="white"/>
<path d="M29.4172 20.0854L31.1185 23.4516H6.88143L8.42871 20.0854H29.4172Z" fill="black"/>
<path d="M33.8602 24.9022L31.6056 31.6662H6.39436L4.13973 24.9022M33.8602 24.9022L31.6056 20.0854M33.8602 24.9022H4.13973M31.6056 20.0854H29.4172M31.6056 20.0854H33.5037L34.2084 17.4345M29.4172 20.0854L31.1185 23.4516H6.88143L8.42871 20.0854M29.4172 20.0854H8.42871M34.2084 17.4345L30.8475 13.4773H7.15247L3.79156 17.4345M34.2084 17.4345H3.79156M4.13973 24.9022L6.39436 20.0854M6.39436 20.0854H8.42871M6.39436 20.0854H4.49627L3.79156 17.4345" stroke="black"/>
<path d="M21.4189 29.2852H21.9189V28.7852V23.0647V22.5647H21.4189H15.6984H15.1984V23.0647V28.7852V29.2852H15.6984H21.4189Z" fill="white" stroke="black"/>
<path d="M21.903 22.8576V22.3576V21.3576C21.903 20.7428 22.0174 20.2514 22.2092 19.8511C22.4698 19.3212 22.7848 18.8457 23.1537 18.4201C23.5666 17.9436 24.0254 17.4791 24.5314 17.0269C25.1359 16.4867 25.6918 15.9117 26.1979 15.3018C26.7337 14.6561 27.1817 13.9538 27.5399 13.1971C27.9694 12.3039 28.1608 11.314 28.1608 10.2658C28.1608 8.19805 27.4917 6.40301 26.057 5.04544C24.6133 3.67942 22.6842 3.08811 20.4733 3.08811C18.1303 3.08811 16.1031 3.74098 14.6016 5.22709L14.6016 5.22709L14.5998 5.22892L14.5962 5.23253C14.5962 5.23253 14.5962 5.23254 14.5962 5.23254C13.1651 6.66368 12.3826 8.56354 12.1439 10.7916L12.0419 11.7439L11.9909 12.22L12.4644 12.2915L17.8112 13.0991L18.3236 13.1765L18.3826 12.6617L18.5006 11.6319C18.6083 10.6923 18.8648 10.1235 19.1471 9.78474L19.1471 9.78476L19.15 9.78128L19.1557 9.77431L19.1557 9.7743C19.3019 9.59557 19.632 9.35764 20.5084 9.35764C21.0124 9.35764 21.2217 9.48546 21.3203 9.57626L21.3202 9.57629L21.3251 9.58061L21.3347 9.58924C21.3781 9.62821 21.4198 9.67995 21.4537 9.76609C21.4893 9.8569 21.5221 10.0014 21.5221 10.2307C21.5221 10.5999 21.4336 10.9119 21.2612 11.1992L21.2612 11.1992L21.257 11.2063L21.2569 11.2063L21.2528 11.2134L21.2487 11.2205C21.2487 11.2205 21.2487 11.2205 21.2487 11.2205C21.0113 11.6314 20.694 12.0529 20.2841 12.4827C19.8206 12.9688 19.3272 13.4623 18.8036 13.9631C18.212 14.529 17.6553 15.1437 17.1333 15.8059C16.5627 16.5295 16.0963 17.3353 15.7306 18.2158L15.7306 18.2158L15.7291 18.2194L15.7261 18.2267C15.3363 19.1862 15.1588 20.2387 15.1588 21.3576V22.3576V22.8576H15.6588H21.403H21.903Z" fill="white" stroke="black"/>
</svg>
