<svg width="38" height="38" viewBox="0 0 38 38" fill="none" xmlns="http://www.w3.org/2000/svg">
<path d="M36.0474 19C36.0474 23.2815 31.8201 26.9692 24.9586 26.9692C21.5436 26.9692 18.4746 26.0434 16.2738 24.5729C14.0696 23.1001 12.7836 21.12 12.7836 19C12.7836 16.88 14.0696 14.8999 16.2738 13.4271C18.4746 11.9566 21.5436 11.0308 24.9586 11.0308C31.8201 11.0308 36.0474 14.7185 36.0474 19Z" fill="white" stroke="#30883C"/>
<rect x="3.60674" y="12.1375" width="10.4966" height="13.7249" fill="white" stroke="#30883C"/>
<line x1="16.7097" y1="13.3188" x2="14.3693" y2="12.0794" stroke="#30883C"/>
<line y1="-0.5" x2="2.64828" y2="-0.5" transform="matrix(-0.883738 0.467983 0.467983 0.883738 16.9437 25.1231)" stroke="#30883C"/>
<line x1="14.0622" y1="19.026" x2="17.99" y2="19.026" stroke="#30883C"/>
<line x1="22.9947" y1="15.2456" x2="26.9224" y2="15.2456" stroke="#30883C"/>
<line x1="22.9947" y1="21.1861" x2="26.9224" y2="21.1861" stroke="#30883C"/>
<line x1="24.994" y1="10.933" x2="24.994" y2="27.067" stroke="#30883C"/>
<line x1="3.58224" y1="13.3463" x2="14.0622" y2="13.3463" stroke="#30883C"/>
<line x1="4.12334" y1="19.026" x2="14.6033" y2="19.026" stroke="#30883C"/>
<line x1="3.58224" y1="24.6231" x2="14.0622" y2="24.6231" stroke="#30883C"/>
</svg>
