<svg width="38" height="38" viewBox="0 0 38 38" fill="none" xmlns="http://www.w3.org/2000/svg">
<path d="M27.8663 26.4406L28.3369 30.9397L25.4599 26.4406H12.5401L9.6631 30.9397L10.1337 26.4406H10.1016L8.53476 18.0307H13.8021C13.6578 17.532 13.5882 17.0166 13.5882 16.4787C13.5882 14.5457 14.508 12.8424 15.9144 11.8171H10.7861V7.06029H27.2139V11.8171H22.0856C23.492 12.8424 24.4118 14.5457 24.4118 16.4787C24.4118 17.0166 24.3422 17.532 24.1979 18.0307H29.4652L27.8984 26.4406H27.8663Z" fill="white" stroke="black" stroke-linejoin="round"/>
<path d="M27.8663 26.4406L28.3369 30.9397L25.4545 26.4406H12.5401L9.65775 30.9397L10.1283 26.4406H10.0963L8.53476 18.0307H13.8021C14.4385 20.4063 16.5187 22.1432 19 22.1432C21.4813 22.1432 23.5615 20.4007 24.1979 18.0307H29.4652L27.8984 26.4406H27.8663Z" fill="white"/>
<path d="M27.2139 7.06029H10.7861V11.8171H27.2139V7.06029Z" fill="white"/>
<path d="M23.862 17.9267L23.8619 17.9267L23.8598 17.9345C23.2609 20.1701 21.3098 21.7876 19 21.7876C16.6905 21.7876 14.7391 20.1648 14.1402 17.9343L14.1402 17.9343L14.138 17.9267C14.0038 17.4682 13.9382 16.9861 13.9382 16.4787C13.9382 14.7002 14.7697 13.1284 16.0304 12.1671H21.9699C23.2348 13.1279 24.0618 14.6994 24.0618 16.4787C24.0618 16.9861 23.9962 17.4682 23.862 17.9267Z" fill="black" stroke="white" stroke-width="0.7"/>
</svg>
