<svg width="38" height="38" viewBox="0 0 38 38" fill="none" xmlns="http://www.w3.org/2000/svg">
<path d="M9.17401 10.6884L15.3563 17.8662L20.5955 19.5951L28.0352 10.6884" stroke="black"/>
<path d="M18.9829 15.3509L19.0955 15.7187L19.8624 18.2162L20.7082 19.0048L20.813 19.1018L20.8196 19.245L21.1036 25.4624L21.1133 25.6741L20.9303 25.7808L18.343 27.2861L20.7393 29.2283L21.004 29.4429L20.7968 29.713L19.5963 31.2777L19.3772 31.5623L19.0983 31.3365L14.2873 27.4483L14.0291 27.2393L14.2243 26.971L16.8164 23.39L16.5428 20.8632L14.9014 18.0956L14.6949 17.7489L16.1126 17.1599L16.2669 17.4194L17.2139 19.0013L17.2806 18.9736L16.2477 16.4873L18.9829 15.3509Z" fill="white" stroke="black" stroke-width="0.7"/>
<path d="M18.2635 6.21179L7.95453 10.005L8.79851 11.5773L18.2635 8.08068L28.0902 11.5773L30.0455 10.005L18.2635 6.21179Z" fill="#565555" stroke="white" stroke-width="0.7"/>
</svg>
