<svg width="38" height="38" viewBox="0 0 38 38" fill="none" xmlns="http://www.w3.org/2000/svg">
<path d="M4.13022 24.5627V4.56532C4.13022 4.28918 4.35408 4.06532 4.63022 4.06532H33.1982C33.4743 4.06532 33.6982 4.28918 33.6982 4.56532V24.5627L18.9731 33.8689L4.13022 24.5627Z" fill="#5F1CA1" stroke="#A471D7"/>
<circle cx="19.0372" cy="16.6528" r="1.64893" fill="white"/>
<path d="M28.4781 16.6528C28.4781 18.3185 28.0374 19.9544 27.2009 21.3947C26.3643 22.835 25.1616 24.0283 23.7148 24.8535L20.3605 18.9728C20.7698 18.7394 21.11 18.4018 21.3467 17.9943C21.5833 17.5869 21.708 17.124 21.708 16.6528H28.4781Z" fill="white"/>
<path d="M14.277 8.49983C15.7154 7.66002 17.3504 7.21569 19.016 7.21195C20.6816 7.20821 22.3185 7.64519 23.7607 8.47854L20.3735 14.3403C19.9655 14.1046 19.5024 13.981 19.0312 13.982C18.56 13.9831 18.0974 14.1088 17.6905 14.3464L14.277 8.49983Z" fill="white"/>
<path d="M7.93466 15.7204C8.07208 14.0842 8.5694 12.4987 9.39106 11.0772C10.2127 9.6557 11.3384 8.43336 12.6875 7.49765L13.0938 8.0834C11.831 8.95925 10.7773 10.1034 10.0082 11.4339C9.23914 12.7645 8.77363 14.2486 8.645 15.78L7.93466 15.7204Z" fill="white"/>
<path d="M6.69369 15.6545C6.84261 13.8132 7.4016 12.0285 8.3297 10.4312C9.25779 8.83398 10.5315 7.46458 12.0574 6.42339L12.4263 6.96404C10.981 7.9502 9.77465 9.24722 8.8956 10.7601C8.01656 12.2729 7.48712 13.9633 7.34606 15.7073L6.69369 15.6545Z" fill="white"/>
<path d="M30.1397 15.7204C30.0023 14.0842 29.505 12.4987 28.6833 11.0772C27.8617 9.6557 26.736 8.43336 25.3869 7.49765L24.9806 8.0834C26.2434 8.95925 27.2971 10.1034 28.0662 11.4339C28.8353 12.7645 29.3008 14.2486 29.4294 15.78L30.1397 15.7204Z" fill="white"/>
<path d="M31.3807 15.6545C31.2318 13.8132 30.6728 12.0285 29.7447 10.4312C28.8166 8.83398 27.5429 7.46458 26.017 6.42339L25.6481 6.96404C27.0934 7.9502 28.2998 9.24722 29.1788 10.7601C30.0578 12.2729 30.5873 13.9633 30.7283 15.7073L31.3807 15.6545Z" fill="white"/>
<path d="M14.2934 26.7341C15.779 27.4332 17.4008 27.7953 19.0427 27.7945C20.6845 27.7937 22.306 27.43 23.7909 26.7295L23.4868 26.0848C22.0968 26.7405 20.5791 27.0809 19.0423 27.0816C17.5055 27.0824 15.9875 26.7434 14.5969 26.0891L14.2934 26.7341Z" fill="white"/>
<path d="M13.7293 27.8414C15.3983 28.6332 17.2234 29.0416 19.0707 29.0366C20.918 29.0316 22.7408 28.6134 24.4056 27.8126L24.1218 27.2228C22.5451 27.9813 20.8186 28.3774 19.0689 28.3821C17.3192 28.3868 15.5907 28 14.0098 27.2501L13.7293 27.8414Z" fill="white"/>
<path d="M14.3361 24.8401C12.8917 24.0107 11.6924 22.814 10.8599 21.3713C10.0275 19.9286 9.59152 18.2914 9.59629 16.6258L16.3668 16.6452C16.3654 17.1163 16.4887 17.5794 16.7242 17.9875C16.9597 18.3955 17.2989 18.7341 17.7075 18.9686L14.3361 24.8401Z" fill="white"/>
</svg>
