<svg width="38" height="38" viewBox="0 0 38 38" fill="none" xmlns="http://www.w3.org/2000/svg">
<path d="M10 31.25H18.5H27L21.5 24.75H15.5L10 31.25Z" fill="white" stroke="black" stroke-width="0.7"/>
<circle cx="19" cy="17.75" r="10.65" fill="white" stroke="black" stroke-width="0.7"/>
<path fill-rule="evenodd" clip-rule="evenodd" d="M20.9529 24.4738C21.9327 23.4017 22.4723 21.9606 22.3915 20.4626C22.3587 20.4899 22.3255 20.5168 22.292 20.5433C21.5932 21.8058 20.4022 22.7937 18.8983 23.1966C16.0964 23.9474 13.2199 22.3966 12.2764 19.703C13.3484 20.6827 14.7895 21.2224 16.2874 21.1416C16.2601 21.1087 16.2331 21.0754 16.2065 21.0418C14.9442 20.343 13.9564 19.1521 13.5535 17.6483C12.8027 14.8464 14.3535 11.9699 17.0471 11.0263C16.0673 12.0984 15.5277 13.5395 15.6085 15.0375C15.6413 15.0102 15.6745 14.9833 15.708 14.9568C16.4068 13.6943 17.5978 12.7064 19.1017 12.3035C21.9036 11.5527 24.7801 13.1036 25.7236 15.7971C24.6516 14.8174 23.2105 14.2778 21.7126 14.3585C21.7399 14.3914 21.7669 14.4247 21.7935 14.4583C23.0558 15.1571 24.0436 16.348 24.4465 17.8518C25.1973 20.6538 23.6465 23.5302 20.9529 24.4738Z" fill="black"/>
</svg>
