<svg width="38" height="38" viewBox="0 0 38 38" fill="none" xmlns="http://www.w3.org/2000/svg">
<path d="M7.87726 34.1393H18.3821H28.8869L22.0897 26.1062H14.6745L7.87726 34.1393Z" fill="white" stroke="black" stroke-width="0.7"/>
<circle cx="19" cy="17.4552" r="13.2445" fill="white" stroke="black" stroke-width="0.7"/>
<mask id="path-3-inside-1_1243_63" fill="white">
<path fill-rule="evenodd" clip-rule="evenodd" d="M21.4135 25.7649C22.6244 24.44 23.2912 22.6589 23.1914 20.8076C23.1508 20.8413 23.1099 20.8746 23.0684 20.9074C22.2048 22.4676 20.733 23.6885 18.8744 24.1865C15.4115 25.1143 11.8566 23.1977 10.6905 19.8688C12.0154 21.0796 13.7964 21.7465 15.6477 21.6467C15.6139 21.606 15.5805 21.5649 15.5476 21.5234C13.9876 20.6597 12.7668 19.188 12.2688 17.3295C11.341 13.8667 13.2576 10.3118 16.5865 9.14565C15.3756 10.4705 14.7088 12.2516 14.8086 14.1029C14.8492 14.0692 14.8902 14.0359 14.9316 14.0031C15.7952 12.4429 17.2671 11.222 19.1256 10.724C22.5885 9.79615 26.1434 11.7128 27.3095 15.0417C25.9846 13.8309 24.2036 13.164 22.3523 13.2638C22.3861 13.3045 22.4195 13.3456 22.4524 13.3871C24.0124 14.2508 25.2332 15.7225 25.7312 17.581C26.659 21.0438 24.7424 24.5987 21.4135 25.7649Z"/>
</mask>
<path fill-rule="evenodd" clip-rule="evenodd" d="M21.4135 25.7649C22.6244 24.44 23.2912 22.6589 23.1914 20.8076C23.1508 20.8413 23.1099 20.8746 23.0684 20.9074C22.2048 22.4676 20.733 23.6885 18.8744 24.1865C15.4115 25.1143 11.8566 23.1977 10.6905 19.8688C12.0154 21.0796 13.7964 21.7465 15.6477 21.6467C15.6139 21.606 15.5805 21.5649 15.5476 21.5234C13.9876 20.6597 12.7668 19.188 12.2688 17.3295C11.341 13.8667 13.2576 10.3118 16.5865 9.14565C15.3756 10.4705 14.7088 12.2516 14.8086 14.1029C14.8492 14.0692 14.8902 14.0359 14.9316 14.0031C15.7952 12.4429 17.2671 11.222 19.1256 10.724C22.5885 9.79615 26.1434 11.7128 27.3095 15.0417C25.9846 13.8309 24.2036 13.164 22.3523 13.2638C22.3861 13.3045 22.4195 13.3456 22.4524 13.3871C24.0124 14.2508 25.2332 15.7225 25.7312 17.581C26.659 21.0438 24.7424 24.5987 21.4135 25.7649Z" fill="#50809C"/>
<path d="M23.1914 20.8076L23.6907 20.7807L23.6371 19.7873L22.8719 20.423L23.1914 20.8076ZM21.4135 25.7649L21.0444 25.4275L21.5788 26.2367L21.4135 25.7649ZM23.0684 20.9074L22.758 20.5154L22.6795 20.5776L22.631 20.6652L23.0684 20.9074ZM10.6905 19.8688L11.0278 19.4997L10.2186 20.0341L10.6905 19.8688ZM15.6477 21.6467L15.6746 22.146L16.668 22.0924L16.0322 21.3272L15.6477 21.6467ZM15.5476 21.5234L15.9396 21.213L15.8774 21.1345L15.7898 21.086L15.5476 21.5234ZM12.2688 17.3295L11.7859 17.4589L11.7859 17.4589L12.2688 17.3295ZM16.5865 9.14565L16.9556 9.48296L16.4212 8.67376L16.5865 9.14565ZM14.8086 14.1029L14.3093 14.1298L14.3629 15.1232L15.1281 14.4875L14.8086 14.1029ZM14.9316 14.0031L15.242 14.3951L15.3205 14.3329L15.369 14.2453L14.9316 14.0031ZM19.1256 10.724L18.9962 10.2411L18.9962 10.2411L19.1256 10.724ZM27.3095 15.0417L26.9722 15.4108L27.7814 14.8764L27.3095 15.0417ZM22.3523 13.2638L22.3254 12.7645L21.332 12.8181L21.9678 13.5833L22.3523 13.2638ZM22.4524 13.3871L22.0604 13.6975L22.1226 13.776L22.2102 13.8245L22.4524 13.3871ZM25.7312 17.581L26.2141 17.4516L26.2141 17.4516L25.7312 17.581ZM22.6921 20.8345C22.7846 22.5485 22.1671 24.1991 21.0444 25.4275L21.7826 26.1022C23.0816 24.6808 23.7979 22.7694 23.6907 20.7807L22.6921 20.8345ZM23.3789 21.2993C23.4233 21.2641 23.4674 21.2284 23.5109 21.1922L22.8719 20.423C22.8343 20.4542 22.7964 20.485 22.758 20.5154L23.3789 21.2993ZM19.0038 24.6694C20.9988 24.1349 22.5792 22.8236 23.5059 21.1495L22.631 20.6652C21.8304 22.1116 20.4671 23.2421 18.745 23.7035L19.0038 24.6694ZM10.2186 20.0341C11.4706 23.608 15.2863 25.6655 19.0038 24.6694L18.745 23.7035C15.5367 24.5632 12.2427 22.7874 11.1624 19.7035L10.2186 20.0341ZM15.6207 21.1474C13.9068 21.2399 12.2562 20.6224 11.0278 19.4997L10.3532 20.2379C11.7745 21.5369 13.6859 22.2532 15.6746 22.146L15.6207 21.1474ZM15.1557 21.8338C15.191 21.8784 15.2268 21.9226 15.2631 21.9662L16.0322 21.3272C16.001 21.2895 15.9701 21.2515 15.9396 21.213L15.1557 21.8338ZM11.7859 17.4589C12.3204 19.4538 13.6316 21.0342 15.3055 21.9609L15.7898 21.086C14.3436 20.2853 13.2132 18.9221 12.7518 17.2001L11.7859 17.4589ZM16.4212 8.67376C12.8473 9.9257 10.7898 13.7415 11.7859 17.4589L12.7518 17.2001C11.8921 13.9918 13.6679 10.6978 16.7518 9.61753L16.4212 8.67376ZM15.3079 14.076C15.2154 12.362 15.8329 10.7114 16.9556 9.48296L16.2174 8.80834C14.9184 10.2297 14.2021 12.1411 14.3093 14.1298L15.3079 14.076ZM14.6212 13.6112C14.5767 13.6464 14.5326 13.6821 14.4891 13.7183L15.1281 14.4875C15.1657 14.4563 15.2036 14.4255 15.242 14.3951L14.6212 13.6112ZM18.9962 10.2411C17.0012 10.7756 15.4208 12.0869 14.4941 13.761L15.369 14.2453C16.1697 12.7989 17.5329 11.6684 19.255 11.207L18.9962 10.2411ZM27.7814 14.8764C26.5295 11.3025 22.7137 9.24497 18.9962 10.2411L19.255 11.207C22.4633 10.3473 25.7573 12.1231 26.8376 15.207L27.7814 14.8764ZM22.3793 13.7631C24.0932 13.6706 25.7438 14.2881 26.9722 15.4108L27.6468 14.6726C26.2255 13.3736 24.3141 12.6573 22.3254 12.7645L22.3793 13.7631ZM22.8443 13.0767C22.809 13.0321 22.7732 12.9879 22.7369 12.9443L21.9678 13.5833C21.9991 13.621 22.0299 13.659 22.0604 13.6975L22.8443 13.0767ZM26.2141 17.4516C25.6796 15.4567 24.3684 13.8763 22.6945 12.9496L22.2102 13.8245C23.6564 14.6252 24.7868 15.9884 25.2482 17.7104L26.2141 17.4516ZM21.5788 26.2367C25.1527 24.9848 27.2102 21.169 26.2141 17.4516L25.2482 17.7104C26.1079 20.9187 24.3321 24.2127 21.2482 25.293L21.5788 26.2367Z" fill="black" mask="url(#path-3-inside-1_1243_63)"/>
</svg>
