<svg width="38" height="38" viewBox="0 0 38 38" fill="none" xmlns="http://www.w3.org/2000/svg">
<path d="M7.87723 34.1393H18.3821H28.8869L22.0897 26.1062H14.6745L7.87723 34.1393Z" fill="white" stroke="black" stroke-width="0.7"/>
<circle cx="19" cy="17.4552" r="13.2445" fill="white" stroke="black" stroke-width="0.7"/>
<path fill-rule="evenodd" clip-rule="evenodd" d="M21.4135 25.7649C22.6243 24.44 23.2912 22.6589 23.1914 20.8076C23.1508 20.8413 23.1098 20.8746 23.0684 20.9074C22.2048 22.4676 20.7329 23.6885 18.8744 24.1865C15.4115 25.1143 11.8566 23.1977 10.6905 19.8688C12.0154 21.0796 13.7964 21.7465 15.6476 21.6467C15.6139 21.606 15.5805 21.5649 15.5476 21.5234C13.9876 20.6597 12.7668 19.188 12.2688 17.3295C11.341 13.8667 13.2576 10.3118 16.5865 9.14566C15.3756 10.4705 14.7088 12.2516 14.8086 14.1029C14.8492 14.0692 14.8901 14.0359 14.9316 14.0031C15.7952 12.4429 17.267 11.222 19.1256 10.724C22.5885 9.79615 26.1434 11.7128 27.3095 15.0417C25.9846 13.8309 24.2036 13.164 22.3524 13.2638C22.3861 13.3045 22.4195 13.3456 22.4524 13.3871C24.0124 14.2508 25.2332 15.7225 25.7312 17.581C26.659 21.0438 24.7424 24.5987 21.4135 25.7649Z" fill="black"/>
</svg>
