<svg width="38" height="38" viewBox="0 0 38 38" fill="none" xmlns="http://www.w3.org/2000/svg">
<mask id="path-1-outside-1_628_39" maskUnits="userSpaceOnUse" x="6.08005" y="5.5952" width="21" height="27" fill="black">
<rect fill="white" x="6.08005" y="5.5952" width="21" height="27"/>
<path fill-rule="evenodd" clip-rule="evenodd" d="M16.9123 6.5952H15.6609V17.9078H8.9193H7.66793H7.08003V20.0922H7.08006V24.7569H7.66793V31.4048H8.9193V24.7569H9.50727V20.0922H15.6609H16.9123L23.066 20.0922V24.7569H23.6539V31.4048H24.9052V24.7569H25.4932V20.0922V17.9078H24.9052H23.6539H23.066H16.9123V6.5952Z"/>
</mask>
<path fill-rule="evenodd" clip-rule="evenodd" d="M16.9123 6.5952H15.6609V17.9078H8.9193H7.66793H7.08003V20.0922H7.08006V24.7569H7.66793V31.4048H8.9193V24.7569H9.50727V20.0922H15.6609H16.9123L23.066 20.0922V24.7569H23.6539V31.4048H24.9052V24.7569H25.4932V20.0922V17.9078H24.9052H23.6539H23.066H16.9123V6.5952Z" fill="white"/>
<path d="M15.6609 6.5952V5.8952H14.9609V6.5952H15.6609ZM16.9123 6.5952H17.6123V5.8952H16.9123V6.5952ZM15.6609 17.9078V18.6078H16.3609V17.9078H15.6609ZM7.08003 17.9078V17.2078H6.38003V17.9078H7.08003ZM7.08003 20.0922H6.38003V20.7922H7.08003V20.0922ZM7.08006 20.0922H7.78006V19.3922H7.08006V20.0922ZM7.08006 24.7569H6.38006V25.4569H7.08006V24.7569ZM7.66793 24.7569H8.36793V24.0569H7.66793V24.7569ZM7.66793 31.4048H6.96793V32.1048H7.66793V31.4048ZM8.9193 31.4048V32.1048H9.6193V31.4048H8.9193ZM8.9193 24.7569V24.0569H8.2193V24.7569H8.9193ZM9.50727 24.7569V25.4569H10.2073V24.7569H9.50727ZM9.50727 20.0922V19.3922H8.80727V20.0922H9.50727ZM16.9123 20.0922V19.3922V20.0922ZM23.066 20.0922H23.766V19.3922H23.066V20.0922ZM23.066 24.7569H22.366V25.4569H23.066V24.7569ZM23.6539 24.7569H24.3539V24.0569H23.6539V24.7569ZM23.6539 31.4048H22.9539V32.1048H23.6539V31.4048ZM24.9052 31.4048V32.1048H25.6052V31.4048H24.9052ZM24.9052 24.7569V24.0569H24.2052V24.7569H24.9052ZM25.4932 24.7569V25.4569H26.1932V24.7569H25.4932ZM25.4932 17.9078H26.1932V17.2078H25.4932V17.9078ZM16.9123 17.9078H16.2123V18.6078H16.9123V17.9078ZM15.6609 7.2952H16.9123V5.8952H15.6609V7.2952ZM16.3609 17.9078V6.5952H14.9609V17.9078H16.3609ZM8.9193 18.6078H15.6609V17.2078H8.9193V18.6078ZM7.66793 18.6078H8.9193V17.2078H7.66793V18.6078ZM7.08003 18.6078H7.66793V17.2078H7.08003V18.6078ZM7.78003 20.0922V17.9078H6.38003V20.0922H7.78003ZM7.08006 19.3922H7.08003V20.7922H7.08006V19.3922ZM7.78006 24.7569V20.0922H6.38006V24.7569H7.78006ZM7.66793 24.0569H7.08006V25.4569H7.66793V24.0569ZM8.36793 31.4048V24.7569H6.96793V31.4048H8.36793ZM8.9193 30.7048H7.66793V32.1048H8.9193V30.7048ZM8.2193 24.7569V31.4048H9.6193V24.7569H8.2193ZM9.50727 24.0569H8.9193V25.4569H9.50727V24.0569ZM8.80727 20.0922V24.7569H10.2073V20.0922H8.80727ZM15.6609 19.3922H9.50727V20.7922H15.6609V19.3922ZM16.9123 19.3922H15.6609V20.7922H16.9123V19.3922ZM23.066 19.3922L16.9123 19.3922V20.7922L23.066 20.7922V19.3922ZM23.766 24.7569V20.0922H22.366V24.7569H23.766ZM23.6539 24.0569H23.066V25.4569H23.6539V24.0569ZM24.3539 31.4048V24.7569H22.9539V31.4048H24.3539ZM24.9052 30.7048H23.6539V32.1048H24.9052V30.7048ZM24.2052 24.7569V31.4048H25.6052V24.7569H24.2052ZM25.4932 24.0569H24.9052V25.4569H25.4932V24.0569ZM24.7932 20.0922V24.7569H26.1932V20.0922H24.7932ZM24.7932 17.9078V20.0922H26.1932V17.9078H24.7932ZM24.9052 18.6078H25.4932V17.2078H24.9052V18.6078ZM23.6539 18.6078H24.9052V17.2078H23.6539V18.6078ZM23.066 18.6078H23.6539V17.2078H23.066V18.6078ZM16.9123 18.6078H23.066V17.2078H16.9123V18.6078ZM16.2123 6.5952V17.9078H17.6123V6.5952H16.2123Z" fill="black" mask="url(#path-1-outside-1_628_39)"/>
<rect x="14.723" y="6.2452" width="3.12721" height="7.54914" fill="white" stroke="black" stroke-width="0.7"/>
<path d="M30.92 16.9645L20.6599 26.0846L23.5099 18.6745H18.9499L22.3699 8.98449H30.92L26.3599 16.9645H30.92Z" fill="white" stroke="black" stroke-width="0.7" stroke-miterlimit="5.25027"/>
</svg>
