<svg width="38" height="38" viewBox="0 0 38 38" fill="none" xmlns="http://www.w3.org/2000/svg">
<rect x="10.2599" y="18.1613" width="18.9638" height="12.3762" fill="white" stroke="black" stroke-width="0.7"/>
<rect x="15.8253" y="24.6993" width="11.5781" height="4.22346" fill="white" stroke="black" stroke-width="0.7"/>
<rect x="8.64486" y="13.3283" width="15.9424" height="11.1874" transform="rotate(-15.3286 8.64486 13.3283)" stroke="black" stroke-width="0.7"/>
<circle cx="25.8364" cy="14.4161" r="5.59372" transform="rotate(-15.3286 25.8364 14.4161)" fill="white" stroke="black" stroke-width="0.7"/>
<circle cx="9.78604" cy="18.8156" r="5.59372" transform="rotate(-15.3286 9.78604 18.8156)" fill="white" stroke="black" stroke-width="0.7"/>
<path d="M9.19165 15.2493H9.78602H10.3804L9.78602 18.2212L9.19165 15.2493Z" stroke="black" stroke-width="0.7"/>
<path d="M10.3804 22.3818L9.78603 22.3818L9.19166 22.3818L9.78603 19.4099L10.3804 22.3818Z" stroke="black" stroke-width="0.7"/>
<path d="M13.3523 18.2212L13.3523 18.8156L13.3523 19.4099L10.3804 18.8156L13.3523 18.2212Z" stroke="black" stroke-width="0.7"/>
<path d="M6.21982 19.4099L6.21982 18.8156L6.21982 18.2212L9.19168 18.8156L6.21982 19.4099Z" stroke="black" stroke-width="0.7"/>
<path d="M25.242 10.8498H25.8364H26.4308L25.8364 13.8217L25.242 10.8498Z" stroke="black" stroke-width="0.7"/>
<path d="M26.4308 17.9823L25.8364 17.9823L25.242 17.9823L25.8364 15.0105L26.4308 17.9823Z" stroke="black" stroke-width="0.7"/>
<path d="M29.4026 13.8217L29.4026 14.4161L29.4026 15.0105L26.4308 14.4161L29.4026 13.8217Z" stroke="black" stroke-width="0.7"/>
<path d="M22.2702 15.0105L22.2702 14.4161L22.2702 13.8217L25.242 14.4161L22.2702 15.0105Z" stroke="black" stroke-width="0.7"/>
<path d="M31.1125 25.9162V21.5938L35.1675 19.5663V27.9436L31.1125 25.9162Z" fill="white" stroke="black" stroke-width="0.7"/>
<rect x="29.8709" y="21.6747" width="0.594372" height="4.16061" fill="white" stroke="black" stroke-width="0.594372"/>
</svg>
