<svg width="38" height="38" viewBox="0 0 38 38" fill="none" xmlns="http://www.w3.org/2000/svg">
<path d="M4.13022 24.5627V4.56532C4.13022 4.28918 4.35408 4.06532 4.63022 4.06532H33.1982C33.4743 4.06532 33.6982 4.28918 33.6982 4.56532V24.5627L18.9731 33.8689L4.13022 24.5627Z" fill="#1987B0" stroke="#54E3E6"/>
<path d="M17.0154 18.7728C16.7143 17.6491 16.6757 16.4711 16.9027 15.3302C17.1296 14.1892 17.616 13.1157 18.3242 12.1927C19.0324 11.2698 19.9434 10.5221 20.9868 10.0076C22.0302 9.49306 23.1779 9.22544 24.3413 9.22544" stroke="url(#paint0_linear_809_105)" stroke-width="4.31256"/>
<path d="M25.7717 20.9958H27.1729V26.0062L25.7717 26.7662V20.9958Z" fill="white"/>
<path d="M22.3418 20.9958H24.0255V27.7865L22.3418 28.6472V20.9958Z" fill="white"/>
<circle cx="24.6702" cy="9.22544" r="2.46934" fill="white" stroke="#1987B0" stroke-width="0.623203"/>
<path d="M20.2494 15.6325C20.2494 14.0158 21.4859 12.6676 23.0967 12.5281L26.82 12.2058C28.2761 12.0798 29.5278 13.2278 29.5278 14.6894V19.7493L20.2494 20.5101V15.6325Z" fill="white"/>
<path d="M9.3846 15.2401C9.3846 13.9809 10.2893 12.9037 11.5295 12.6861C12.7992 12.4633 13.9624 13.4403 13.9624 14.7293V19.7823L9.3846 20.7979V15.2401Z" fill="white" stroke="white" stroke-width="0.623203"/>
<path d="M11.8936 12.6603L10.9404 12.7532C9.34402 12.9087 8.12648 14.2506 8.12648 15.8545V21.1751" stroke="white" stroke-width="0.623203"/>
<path d="M9.8844 21.4239L21.3728 29.4848H15.8507V26.7556H13.6292L13.1214 25.5813H10.5826L8.17067 22.6934L8.77365 21.6778L9.8844 21.4239Z" fill="white"/>
<path d="M14.5813 19.8372L21.3728 23.7464V22.0269L19.6908 21.6778L18.8339 19.8372H17.2471L16.0094 18.06L14.5813 18.7581V19.8372Z" fill="white"/>
<rect x="22.3418" y="19.2808" width="4.83112" height="1.72309" fill="white"/>
<path d="M28.2706 14.9908C28.2706 14.6877 28.0248 14.442 27.7217 14.442C27.4186 14.442 27.1729 14.6877 27.1729 14.9908V21.0039H28.2706V14.9908Z" fill="#1987B0"/>
<path d="M22.3418 15.9269C22.3418 15.6934 22.1525 15.5042 21.919 15.5042C21.6855 15.5042 21.4962 15.6934 21.4962 15.9269V21.0039H22.3418V15.9269Z" fill="#1987B0"/>
<defs>
<linearGradient id="paint0_linear_809_105" x1="24.3413" y1="9.22544" x2="19.5185" y2="17.8873" gradientUnits="userSpaceOnUse">
<stop stop-color="white"/>
<stop offset="1" stop-color="white" stop-opacity="0"/>
</linearGradient>
</defs>
</svg>
