<svg width="38" height="38" viewBox="0 0 38 38" fill="none" xmlns="http://www.w3.org/2000/svg">
<path d="M32.1782 22.1263L22.1742 25.4341L27.1629 20.8524L24.5533 19.2781L30.9013 13.1807L35.7941 16.1326L29.5686 20.552L32.1782 22.1263Z" fill="white" stroke="black" stroke-width="0.7" stroke-miterlimit="5.25027"/>
<path d="M5.82184 22.1263L15.8258 25.4341L10.8371 20.8524L13.4467 19.2781L7.0987 13.1807L2.20586 16.1326L8.43135 20.552L5.82184 22.1263Z" fill="white" stroke="black" stroke-width="0.7" stroke-miterlimit="5.25027"/>
<rect x="15.0652" y="20" width="8" height="8" fill="black"/>
<path d="M13.5652 26.0403V20H15.0652L15.7395 24.1812C15.8152 24.651 16.056 25.0784 16.4186 25.3866L17.7699 26.5353C18.5167 27.1701 19.6137 27.1701 20.3605 26.5353L21.7118 25.3866C22.0744 25.0784 22.3152 24.651 22.3909 24.1812L23.0652 20H24.5652V26.2769C24.5652 27.8475 23.9493 29.3555 22.8498 30.4771L21.945 31.4001C21.5688 31.7838 21.0541 32 20.5168 32H17.9946C17.5034 32 17.0293 31.8192 16.6628 31.4921L15.5698 30.5166C14.2944 29.3782 13.5652 27.7498 13.5652 26.0403Z" fill="white" stroke="black" stroke-width="0.7"/>
<path d="M20.7417 21.8182L21.8593 24H22.4181V20.7273H26.5728C26.7821 20.7273 26.9901 20.6943 27.1892 20.6295L27.2522 20.609C28.0352 20.3543 28.5652 19.6245 28.5652 18.8011V18.0191C28.5652 18.0069 28.5603 17.9952 28.5516 17.9867C28.2029 17.6464 28.0064 17.1799 28.0064 16.6927V13.7811C28.0064 12.969 27.8133 12.1685 27.443 11.4457L26.6626 9.92222C26.4423 9.49209 26.1535 9.1006 25.8077 8.76303C25.046 8.01953 24.1425 7.43688 23.1509 7.04975L22.6304 6.84654C22.1174 6.64623 21.5874 6.49239 21.0468 6.38686L20.9779 6.3734C19.7147 6.12681 18.4157 6.1268 17.1525 6.3734C16.5661 6.48788 15.9911 6.65478 15.4345 6.87209L14.6637 7.17306C13.8805 7.47881 13.1669 7.93899 12.5653 8.52621C12.0875 8.99257 11.6873 9.53228 11.3799 10.1249L11.1607 10.5474C10.4796 11.8602 10.124 13.3175 10.124 14.7965V16.6927C10.124 17.1799 9.92745 17.6464 9.57883 17.9867C9.57012 17.9952 9.5652 18.0069 9.5652 18.0191V18.8011C9.5652 19.6245 10.0952 20.3543 10.8782 20.609L10.9412 20.6295C11.1403 20.6943 11.3483 20.7273 11.5576 20.7273H15.7123V24H16.2711L17.3887 21.8182L19.0652 21.2727L20.7417 21.8182Z" fill="white" stroke="black" stroke-width="0.7"/>
<path d="M12.857 14.4719C12.3484 13.6133 14.3436 10.6656 16.5652 10.5C16.4492 10.9569 16.0395 13.383 15.7611 14.4796C15.4132 15.8503 13.3656 15.3306 12.857 14.4719Z" fill="black"/>
<path d="M25.1652 14.4719C25.6738 13.6133 23.7869 10.6656 21.5652 10.5C21.6813 10.9569 21.9828 13.383 22.2611 14.4796C22.6091 15.8503 24.6567 15.3306 25.1652 14.4719Z" fill="black"/>
<path d="M17.5652 15C17.9652 13.8 18.7319 13.1667 19.0652 13C20.2652 14.6 20.2319 16.3333 20.0652 17H17.5652C17.3986 16.8333 17.1652 16.2 17.5652 15Z" fill="black"/>
</svg>
