<svg width="38" height="38" viewBox="0 0 38 38" fill="none" xmlns="http://www.w3.org/2000/svg">
<mask id="path-1-inside-1_803_2" fill="white">
<path fill-rule="evenodd" clip-rule="evenodd" d="M28.8969 9.74219H9.10303V30.8509C9.10301 30.854 9.103 30.8571 9.103 30.8602C9.103 30.8632 9.10301 30.8663 9.10303 30.8694V30.9006H9.10349C9.15699 33.0972 13.5673 34.8712 19 34.8712C24.4326 34.8712 28.8429 33.0972 28.8964 30.9006H28.8969V9.74219Z"/>
</mask>
<path fill-rule="evenodd" clip-rule="evenodd" d="M28.8969 9.74219H9.10303V30.8509C9.10301 30.854 9.103 30.8571 9.103 30.8602C9.103 30.8632 9.10301 30.8663 9.10303 30.8694V30.9006H9.10349C9.15699 33.0972 13.5673 34.8712 19 34.8712C24.4326 34.8712 28.8429 33.0972 28.8964 30.9006H28.8969V9.74219Z" fill="white"/>
<path d="M9.10303 9.74219V8.74219H8.10303V9.74219H9.10303ZM28.8969 9.74219H29.8969V8.74219H28.8969V9.74219ZM9.10303 30.8509L10.103 30.8565V30.8509H9.10303ZM9.10303 30.8694L10.103 30.8694L10.103 30.8638L9.10303 30.8694ZM9.10303 30.9006H8.10303V31.9006H9.10303V30.9006ZM9.10349 30.9006L10.1032 30.8762L10.0794 29.9006H9.10349V30.9006ZM28.8964 30.9006V29.9006H27.9205L27.8967 30.8762L28.8964 30.9006ZM28.8969 30.9006V31.9006H29.8969V30.9006H28.8969ZM9.10303 10.7422H28.8969V8.74219H9.10303V10.7422ZM10.103 30.8509V9.74219H8.10303V30.8509H10.103ZM10.103 30.8602C10.103 30.8589 10.103 30.8577 10.103 30.8565L8.10304 30.8453C8.10302 30.8503 8.103 30.8552 8.103 30.8602H10.103ZM10.103 30.8638C10.103 30.8626 10.103 30.8614 10.103 30.8602H8.103C8.103 30.8651 8.10302 30.87 8.10304 30.875L10.103 30.8638ZM10.103 30.9006V30.8694H8.10303V30.9006H10.103ZM9.10349 29.9006H9.10303V31.9006H9.10349V29.9006ZM19 33.8712C16.3793 33.8712 14.0506 33.4416 12.4072 32.7817C11.583 32.4508 10.9783 32.0807 10.5931 31.7189C10.2092 31.3582 10.108 31.072 10.1032 30.8762L8.10379 30.9249C8.12577 31.8275 8.59588 32.5867 9.22374 33.1765C9.85025 33.7651 10.6977 34.2505 11.6619 34.6376C13.5952 35.4139 16.1879 35.8712 19 35.8712V33.8712ZM27.8967 30.8762C27.892 31.072 27.7907 31.3582 27.4068 31.7189C27.0216 32.0807 26.4169 32.4508 25.5928 32.7817C23.9493 33.4416 21.6206 33.8712 19 33.8712V35.8712C21.812 35.8712 24.4048 35.4139 26.338 34.6376C27.3022 34.2505 28.1497 33.7651 28.7762 33.1765C29.4041 32.5867 29.8742 31.8275 29.8961 30.9249L27.8967 30.8762ZM28.8969 29.9006H28.8964V31.9006H28.8969V29.9006ZM27.8969 9.74219V30.9006H29.8969V9.74219H27.8969Z" fill="#30883C" mask="url(#path-1-inside-1_803_2)"/>
<path d="M28.3969 9.74219C28.3969 10.1167 28.2117 10.5223 27.7733 10.9425C27.3335 11.3639 26.6706 11.7664 25.8104 12.1151C24.0925 12.8113 21.6849 13.2533 19 13.2533C16.315 13.2533 13.9074 12.8113 12.1896 12.1151C11.3293 11.7664 10.6665 11.3639 10.2267 10.9425C9.78819 10.5223 9.603 10.1167 9.603 9.74219C9.603 9.36768 9.78819 8.96207 10.2267 8.54191C10.6665 8.12049 11.3293 7.71794 12.1896 7.36931C13.9074 6.67309 16.315 6.23109 19 6.23109C21.6849 6.23109 24.0925 6.67309 25.8104 7.36931C26.6706 7.71794 27.3335 8.12049 27.7733 8.54191C28.2117 8.96207 28.3969 9.36768 28.3969 9.74219Z" fill="white" stroke="#30883C"/>
<path fill-rule="evenodd" clip-rule="evenodd" d="M25.4707 7.07166C26.1883 7.2978 26.9533 6.89942 27.1795 6.18184C27.4056 5.46427 27.0072 4.69924 26.2897 4.4731C25.5721 4.24697 24.8071 4.64535 24.5809 5.36293C24.3548 6.0805 24.7532 6.84553 25.4707 7.07166ZM28.4009 6.56678C28.2927 6.91013 28.1209 7.21582 27.9026 7.47495L27.9068 7.47842L25.674 10.192C25.2286 10.9325 24.3195 11.3005 23.459 11.0294C22.4509 10.7117 21.8912 9.63687 22.2089 8.62875L22.2125 8.61741L23.358 4.98259L23.3595 4.97799C23.7982 3.58583 25.2824 2.81292 26.6746 3.25165C28.0668 3.69038 28.8397 5.17461 28.4009 6.56678ZM23.844 9.80791C24.1775 9.91302 24.5331 9.72785 24.6382 9.39432C24.7433 9.06079 24.5581 8.70521 24.2246 8.6001C23.8911 8.49499 23.5355 8.68016 23.4304 9.01369C23.3253 9.34722 23.5104 9.7028 23.844 9.80791Z" fill="white"/>
<path d="M27.1795 6.18184L26.7026 6.03156L26.7026 6.03156L27.1795 6.18184ZM25.4707 7.07166L25.3205 7.54854L25.3205 7.54854L25.4707 7.07166ZM26.2897 4.4731L26.4399 3.99622L26.4399 3.99622L26.2897 4.4731ZM24.5809 5.36293L25.0578 5.51321L25.0578 5.51321L24.5809 5.36293ZM27.9026 7.47495L27.5202 7.15278L27.1943 7.53964L27.5849 7.86105L27.9026 7.47495ZM28.4009 6.56678L27.9241 6.41649L27.9241 6.41649L28.4009 6.56678ZM27.9068 7.47842L28.2929 7.79612L28.6106 7.41002L28.2245 7.09232L27.9068 7.47842ZM25.674 10.192L25.2879 9.87426L25.2645 9.9027L25.2455 9.93427L25.674 10.192ZM23.459 11.0294L23.6093 10.5525L23.6093 10.5525L23.459 11.0294ZM22.2089 8.62875L21.7325 8.47702L21.732 8.47847L22.2089 8.62875ZM22.2125 8.61741L22.689 8.76915L22.6894 8.7677L22.2125 8.61741ZM23.358 4.98259L23.8349 5.13287L23.835 5.13245L23.358 4.98259ZM23.3595 4.97799L22.8826 4.82771L22.8825 4.82813L23.3595 4.97799ZM26.6746 3.25165L26.8249 2.77477L26.8249 2.77477L26.6746 3.25165ZM24.6382 9.39432L25.1151 9.54461L25.1151 9.54461L24.6382 9.39432ZM23.844 9.80791L23.6937 10.2848L23.6937 10.2848L23.844 9.80791ZM24.2246 8.6001L24.3749 8.12322L24.3749 8.12322L24.2246 8.6001ZM23.4304 9.01369L22.9535 8.8634L22.9535 8.8634L23.4304 9.01369ZM26.7026 6.03156C26.5595 6.48576 26.0752 6.73792 25.621 6.59478L25.3205 7.54854C26.3014 7.85768 27.3472 7.31307 27.6564 6.33213L26.7026 6.03156ZM26.1394 4.94998C26.5936 5.09312 26.8457 5.57736 26.7026 6.03156L27.6564 6.33213C27.9655 5.35118 27.4209 4.30536 26.4399 3.99622L26.1394 4.94998ZM25.0578 5.51321C25.2009 5.05901 25.6852 4.80685 26.1394 4.94998L26.4399 3.99622C25.459 3.68709 24.4132 4.23169 24.104 5.21264L25.0578 5.51321ZM25.621 6.59478C25.1668 6.45165 24.9147 5.96741 25.0578 5.51321L24.104 5.21264C23.7949 6.19359 24.3395 7.23941 25.3205 7.54854L25.621 6.59478ZM28.285 7.79712C28.5451 7.48839 28.7494 7.12449 28.8778 6.71706L27.9241 6.41649C27.8361 6.69577 27.6968 6.94325 27.5202 7.15278L28.285 7.79712ZM28.2245 7.09232L28.2203 7.08885L27.5849 7.86105L27.5891 7.86452L28.2245 7.09232ZM26.06 10.5097L28.2929 7.79612L27.5207 7.16072L25.2879 9.87426L26.06 10.5097ZM23.3088 11.5062C24.3947 11.8485 25.5407 11.3836 26.1024 10.4497L25.2455 9.93427C24.9165 10.4813 24.2444 10.7526 23.6093 10.5525L23.3088 11.5062ZM21.732 8.47847C21.3313 9.74996 22.0373 11.1055 23.3088 11.5062L23.6093 10.5525C22.8646 10.3178 22.4511 9.52379 22.6858 8.77904L21.732 8.47847ZM21.7361 8.46568L21.7325 8.47702L22.6853 8.78049L22.689 8.76915L21.7361 8.46568ZM22.8811 4.8323L21.7357 8.46713L22.6894 8.7677L23.8349 5.13287L22.8811 4.8323ZM22.8825 4.82813L22.881 4.83272L23.835 5.13245L23.8365 5.12786L22.8825 4.82813ZM26.8249 2.77477C25.1693 2.25304 23.4043 3.17217 22.8826 4.82771L23.8363 5.12828C24.1921 3.99949 25.3955 3.3728 26.5243 3.72853L26.8249 2.77477ZM28.8778 6.71706C29.3996 5.06152 28.4804 3.2965 26.8249 2.77477L26.5243 3.72853C27.6531 4.08426 28.2798 5.2877 27.9241 6.41649L28.8778 6.71706ZM24.1613 9.24404C24.1392 9.31419 24.0644 9.35314 23.9943 9.33103L23.6937 10.2848C24.2906 10.4729 24.927 10.1415 25.1151 9.54461L24.1613 9.24404ZM24.0743 9.07698C24.1445 9.09908 24.1834 9.17388 24.1613 9.24404L25.1151 9.54461C25.3032 8.9477 24.9718 8.31133 24.3749 8.12322L24.0743 9.07698ZM23.9073 9.16397C23.9294 9.09382 24.0042 9.05487 24.0743 9.07698L24.3749 8.12322C23.778 7.93511 23.1416 8.2665 22.9535 8.8634L23.9073 9.16397ZM23.9943 9.33103C23.9241 9.30892 23.8852 9.23413 23.9073 9.16397L22.9535 8.8634C22.7654 9.4603 23.0968 10.0967 23.6937 10.2848L23.9943 9.33103Z" fill="#30883C"/>
</svg>
