<svg width="38" height="38" viewBox="0 0 38 38" fill="none" xmlns="http://www.w3.org/2000/svg">
<mask id="path-1-outside-1_619_144" maskUnits="userSpaceOnUse" x="0.707064" y="1.54949" width="35.5175" height="35.5177" fill="black">
<rect fill="white" x="0.707064" y="1.54949" width="35.5175" height="35.5177"/>
<path fill-rule="evenodd" clip-rule="evenodd" d="M12.6706 24.0628C12.5199 26.8582 13.5268 29.5474 15.3551 31.5481C10.3283 29.787 7.43417 24.4188 8.83531 19.1896C9.58727 16.3832 11.4306 14.1608 13.7864 12.8565C13.836 12.7938 13.8863 12.7318 13.9373 12.6704C11.1419 12.5197 8.45267 13.5267 6.45206 15.355C8.21312 10.3282 13.5813 7.43394 18.8104 8.8351C21.6169 9.5871 23.8394 11.4306 25.1436 13.7865C25.2062 13.8361 25.2681 13.8863 25.3294 13.9372C25.4801 11.1418 24.4731 8.45254 22.6449 6.45191C27.6716 8.21303 30.5657 13.5812 29.1646 18.8104C28.4126 21.6167 26.5692 23.8392 24.2135 25.1435C24.1639 25.2062 24.1135 25.2682 24.0625 25.3296C26.8579 25.4802 29.5472 24.4732 31.5478 22.645C29.7868 27.6718 24.4186 30.566 19.1895 29.1649C16.383 28.4128 14.1605 26.5693 12.8563 24.2134C12.7937 24.1639 12.7318 24.1137 12.6706 24.0628ZM18.2708 23.1612C20.1907 22.5286 21.9015 21.3378 23.1612 19.7288C22.5285 17.8091 21.3379 16.0984 19.7291 14.8388C17.8092 15.4714 16.0984 16.6622 14.8387 18.2712C15.4713 20.1909 16.6619 21.9016 18.2708 23.1612Z"/>
</mask>
<path fill-rule="evenodd" clip-rule="evenodd" d="M12.6706 24.0628C12.5199 26.8582 13.5268 29.5474 15.3551 31.5481C10.3283 29.787 7.43417 24.4188 8.83531 19.1896C9.58727 16.3832 11.4306 14.1608 13.7864 12.8565C13.836 12.7938 13.8863 12.7318 13.9373 12.6704C11.1419 12.5197 8.45267 13.5267 6.45206 15.355C8.21312 10.3282 13.5813 7.43394 18.8104 8.8351C21.6169 9.5871 23.8394 11.4306 25.1436 13.7865C25.2062 13.8361 25.2681 13.8863 25.3294 13.9372C25.4801 11.1418 24.4731 8.45254 22.6449 6.45191C27.6716 8.21303 30.5657 13.5812 29.1646 18.8104C28.4126 21.6167 26.5692 23.8392 24.2135 25.1435C24.1639 25.2062 24.1135 25.2682 24.0625 25.3296C26.8579 25.4802 29.5472 24.4732 31.5478 22.645C29.7868 27.6718 24.4186 30.566 19.1895 29.1649C16.383 28.4128 14.1605 26.5693 12.8563 24.2134C12.7937 24.1639 12.7318 24.1137 12.6706 24.0628ZM18.2708 23.1612C20.1907 22.5286 21.9015 21.3378 23.1612 19.7288C22.5285 17.8091 21.3379 16.0984 19.7291 14.8388C17.8092 15.4714 16.0984 16.6622 14.8387 18.2712C15.4713 20.1909 16.6619 21.9016 18.2708 23.1612Z" fill="#B33536"/>
<path d="M15.3551 31.5481L15.8718 31.0759L17.7468 33.1277L15.1236 32.2087L15.3551 31.5481ZM12.6706 24.0628L11.9716 24.0251L12.0465 22.6343L13.1179 23.5243L12.6706 24.0628ZM13.7864 12.8565L14.3351 13.2911L14.2481 13.401L14.1254 13.4689L13.7864 12.8565ZM13.9373 12.6704L13.975 11.9714L15.3658 12.0463L14.4758 13.1177L13.9373 12.6704ZM6.45206 15.355L6.92428 15.8717L4.87239 17.7468L5.79143 15.1235L6.45206 15.355ZM25.1436 13.7865L24.709 14.3353L24.5991 14.2482L24.5312 14.1256L25.1436 13.7865ZM25.3294 13.9372L26.0284 13.9749L25.9534 15.3657L24.8821 14.4757L25.3294 13.9372ZM22.6449 6.45191L22.1282 6.92412L20.2531 4.8722L22.8764 5.79128L22.6449 6.45191ZM29.1646 18.8104L29.8407 18.9915L29.8407 18.9915L29.1646 18.8104ZM24.2135 25.1435L23.6647 24.7089L23.7518 24.599L23.8744 24.5311L24.2135 25.1435ZM24.0625 25.3296L24.0249 26.0286L22.634 25.9536L23.5241 24.8823L24.0625 25.3296ZM31.5478 22.645L31.0756 22.1282L33.1275 20.2531L32.2084 22.8764L31.5478 22.645ZM12.8563 24.2134L13.2908 23.6647L13.4008 23.7517L13.4687 23.8744L12.8563 24.2134ZM18.2708 23.1612L18.4898 23.8261L18.1341 23.9433L17.8392 23.7124L18.2708 23.1612ZM23.1612 19.7288L23.826 19.5097L23.9432 19.8654L23.7124 20.1603L23.1612 19.7288ZM19.7291 14.8388L19.51 14.1739L19.8657 14.0567L20.1606 14.2876L19.7291 14.8388ZM14.8387 18.2712L14.1739 18.4903L14.0566 18.1346L14.2875 17.8397L14.8387 18.2712ZM14.8383 32.0203C12.8867 29.8846 11.8106 27.0128 11.9716 24.0251L13.3695 24.1005C13.2293 26.7035 14.167 29.2103 15.8718 31.0759L14.8383 32.0203ZM9.51146 19.3708C8.20581 24.2436 10.9028 29.2465 15.5865 30.8874L15.1236 32.2087C9.75391 30.3274 6.66253 24.594 8.15917 19.0084L9.51146 19.3708ZM14.1254 13.4689C11.929 14.6849 10.2122 16.7554 9.51146 19.3708L8.15917 19.0084C8.9623 16.011 10.9322 13.6366 13.4473 12.2441L14.1254 13.4689ZM14.4758 13.1177C14.4283 13.1749 14.3814 13.2327 14.3351 13.2911L13.2376 12.4219C13.2906 12.3549 13.3444 12.2886 13.3989 12.223L14.4758 13.1177ZM5.97984 14.8382C8.1155 12.8865 10.9873 11.8104 13.975 11.9714L13.8997 13.3694C11.2966 13.2291 8.78983 14.1668 6.92428 15.8717L5.97984 14.8382ZM18.6292 9.51125C13.7565 8.20559 8.75359 10.9026 7.11269 15.5864L5.79143 15.1235C7.67264 9.75375 13.406 6.66229 18.9916 8.15895L18.6292 9.51125ZM24.5312 14.1256C23.3152 11.929 21.2447 10.2121 18.6292 9.51125L18.9916 8.15895C21.9891 8.96213 24.3636 10.9322 25.756 13.4475L24.5312 14.1256ZM24.8821 14.4757C24.825 14.4282 24.7673 14.3814 24.709 14.3353L25.5782 13.2378C25.6451 13.2907 25.7112 13.3444 25.7767 13.3988L24.8821 14.4757ZM24.6304 13.8996C24.7707 11.2965 23.833 8.78969 22.1282 6.92412L23.1617 5.9797C25.1133 8.11539 26.1894 10.9872 26.0284 13.9749L24.6304 13.8996ZM22.8764 5.79128C28.246 7.67257 31.3373 13.406 29.8407 18.9915L28.4884 18.6292C29.7941 13.7564 27.0971 8.7535 22.4135 7.11254L22.8764 5.79128ZM29.8407 18.9915C29.0376 21.9889 27.0676 24.3634 24.5526 25.7559L23.8744 24.5311C26.0708 23.315 27.7876 21.2446 28.4884 18.6292L29.8407 18.9915ZM23.5241 24.8823C23.5716 24.8251 23.6185 24.7673 23.6647 24.7089L24.7623 25.578C24.7092 25.645 24.6555 25.7113 24.601 25.7769L23.5241 24.8823ZM32.02 23.1617C29.8844 25.1134 27.0126 26.1896 24.0249 26.0286L24.1002 24.6306C26.7033 24.7709 29.21 23.8331 31.0756 22.1282L32.02 23.1617ZM19.3706 28.4887C24.2434 29.7944 29.2463 27.0973 30.8872 22.4135L32.2084 22.8764C30.3272 28.2462 24.5939 31.3377 19.0083 29.841L19.3706 28.4887ZM13.4687 23.8744C14.6847 26.0709 16.7552 27.7879 19.3706 28.4887L19.0083 29.841C16.0108 29.0378 13.6363 27.0677 12.2438 24.5524L13.4687 23.8744ZM12.4217 24.7622C12.3548 24.7092 12.2887 24.6556 12.2233 24.6012L13.1179 23.5243C13.1749 23.5717 13.2326 23.6185 13.2908 23.6647L12.4217 24.7622ZM18.0517 22.4964C19.8417 21.9065 21.4364 20.7963 22.61 19.2973L23.7124 20.1603C22.3665 21.8794 20.5397 23.1506 18.4898 23.8261L18.0517 22.4964ZM22.4964 19.9479C21.9065 18.1581 20.7964 16.5634 19.2976 15.3899L20.1606 14.2876C21.8795 15.6334 23.1506 17.4601 23.826 19.5097L22.4964 19.9479ZM19.9482 15.5036C18.1582 16.0934 16.5634 17.2037 15.3899 18.7027L14.2875 17.8397C15.6333 16.1206 17.4602 14.8494 19.51 14.1739L19.9482 15.5036ZM15.5035 18.0521C16.0934 19.8419 17.2035 21.4366 18.7023 22.6101L17.8392 23.7124C16.1204 22.3666 14.8493 20.5399 14.1739 18.4903L15.5035 18.0521Z" fill="black" mask="url(#path-1-outside-1_619_144)"/>
<path fill-rule="evenodd" clip-rule="evenodd" d="M24.3279 19.9835C24.3268 19.9302 24.3251 19.8769 24.3228 19.8236C24.9427 18.1335 24.9017 16.2034 24.0535 14.456C22.4732 11.2001 18.6612 9.75389 15.3502 11.0639C17.1498 11.2748 18.8358 12.1932 19.983 13.672C19.9297 13.6731 19.8763 13.6748 19.8228 13.6772C18.1328 13.0574 16.2029 13.0984 14.4555 13.9465C11.1997 15.5269 9.75352 19.3389 11.0635 22.6499C11.2744 20.8503 12.1928 19.1644 13.6716 18.0171C13.6727 18.0704 13.6744 18.1237 13.6767 18.177C13.0569 19.8671 13.0979 21.7971 13.946 23.5445C15.5264 26.8004 19.3383 28.2466 22.6493 26.9366C20.8497 26.7257 19.1638 25.8073 18.0165 24.3285C18.0699 24.3274 18.1232 24.3257 18.1766 24.3233C19.8667 24.9432 21.7966 24.9022 23.544 24.054C26.7998 22.4736 28.246 18.6617 26.936 15.3507C26.7251 17.1503 25.8067 18.8362 24.3279 19.9835ZM16.5778 20.4528C17.7377 21.1462 19.0881 21.4897 20.4525 21.4222C21.1458 20.2623 21.4892 18.912 21.4217 17.5477C20.2618 16.8543 18.9114 16.5108 17.547 16.5784C16.8538 17.7382 16.5103 19.0886 16.5778 20.4528Z" fill="white"/>
<ellipse cx="3.17867" cy="3.17871" rx="3.17867" ry="3.17871" transform="matrix(-0.965925 -0.258822 -0.258816 0.965927 22.8929 16.7526)" fill="#B33536"/>
</svg>
