<svg width="38" height="38" viewBox="0 0 38 38" fill="none" xmlns="http://www.w3.org/2000/svg">
<rect x="12.85" y="5.35" width="17.3" height="25.3" fill="white" stroke="black" stroke-width="0.7"/>
<rect x="14.5" y="7" width="14" height="23" fill="black"/>
<path d="M20.8928 30.7479L21.1988 30.9354L21.3786 30.6248L22.7101 28.325L22.8808 28.03L22.5905 27.8515L18.8994 25.5818L22.2333 23.0097L22.4011 22.8802L22.3641 22.6714L20.899 14.4112L20.8741 14.2706L20.7579 14.1876L19.4621 13.2614L17.9886 10.0293L17.8288 9.67872L17.4951 9.87136L14.8963 11.3718L14.5932 11.5468L14.7682 11.8499L16.4076 14.6896L15.8646 15.0031L15.7834 15.05L15.7365 15.1312L12.6638 20.4523L12.555 20.6406L12.6756 20.8215L13.6756 22.3215L13.979 22.7766L14.2652 22.3105L16.2935 19.0056L16.5314 20.6307L13.6592 25.9255L13.5009 26.2173L13.784 26.3908L20.8928 30.7479Z" fill="white" stroke="black" stroke-width="0.7"/>
<path d="M20 33V7.5V6.5L28 9.5V30.5L20 33Z" fill="white" stroke="black" stroke-width="0.7"/>
<path d="M24 19.5C24 20.0523 23.5523 20.5 23 20.5C22.4477 20.5 22 20.0523 22 19.5C22 18.9477 22.4477 18.5 23 18.5C23.5523 18.5 24 18.9477 24 19.5Z" fill="black"/>
</svg>
