<svg width="38" height="38" viewBox="0 0 38 38" fill="none" xmlns="http://www.w3.org/2000/svg">
<path d="M5.34286 32.6555C6.58192 33.8946 8.49233 34.4178 10.7225 34.1297C12.7722 33.8647 14.7655 32.9354 16.0579 31.6431C16.0702 31.6307 16.0818 31.6192 16.0941 31.6068L16.1326 31.5635L16.1358 31.5667L20.7651 26.9374L11.0625 17.2349L6.43327 21.8642L6.43565 21.8666L6.39317 21.9059C6.38082 21.9182 6.36925 21.9298 6.35691 21.9421C5.06457 23.2345 4.13611 25.2286 3.87032 27.2774C3.58221 29.5076 4.10538 31.4181 5.34445 32.6571L5.34286 32.6555Z" fill="white" stroke="black" stroke-width="0.7"/>
<path d="M14.761 25.146L32.6068 7.30022L30.6981 5.39153L12.8508 23.2389L12.7308 25.1912L14.761 25.146Z" fill="white" stroke="black" stroke-width="0.7"/>
<path d="M30.1106 2.79796L35.28 7.96735L33.3511 9.89621L28.1817 4.72682L30.1106 2.79796Z" fill="white" stroke="black" stroke-width="0.7"/>
</svg>
