<svg width="38" height="38" viewBox="0 0 38 38" fill="none" xmlns="http://www.w3.org/2000/svg">
<path d="M4.13022 24.5627V4.56532C4.13022 4.28918 4.35408 4.06532 4.63022 4.06532H33.1982C33.4743 4.06532 33.6982 4.28918 33.6982 4.56532V24.5627L18.9731 33.8689L4.13022 24.5627Z" fill="#185C13" stroke="#37B728"/>
<path d="M14.8934 20.1772L5.92271 23.4526L5.91319 23.869L8.65795 25.5537L16.3687 23.0374L14.8934 20.1772Z" fill="url(#paint0_linear_809_115)"/>
<path d="M18.91 23.4859L16.2016 24.5829L10.257 26.54L13.3652 28.4514L21.189 25.7066L18.91 23.4859Z" fill="url(#paint1_linear_809_115)"/>
<path d="M21.4269 26.1754L13.9743 28.8261L15.3866 29.6947L22.4799 27.1456L21.4269 26.1754Z" fill="url(#paint2_linear_809_115)"/>
<path d="M15.2182 17.8846L5.91022 21.3242V22.8417L15.4264 19.4217L15.2182 17.8846Z" fill="url(#paint3_linear_809_115)"/>
<path d="M15.9119 9.98286L5.91022 13.5938V14.9298L16.6465 11.1375L15.9119 9.98286Z" fill="url(#paint4_linear_809_115)"/>
<path d="M19.659 6.23219L15.9493 7.75388L16.3568 9.03702L20.3193 7.63728L19.659 6.23219Z" fill="url(#paint5_linear_809_115)"/>
<path d="M15.988 7.21788L5.91022 10.5575V12.0441L16.6513 8.34576L15.988 7.21788Z" fill="url(#paint6_linear_809_115)"/>
<path d="M12.8447 15.1113L5.91022 17.674V20.4211L15.4734 16.7775L12.8447 15.1113Z" fill="url(#paint7_linear_809_115)"/>
<path d="M19.032 23.3093L19.0261 23.3033C15.9767 20.0803 15.2593 19.5217 13.831 18.4081C13.6163 18.2409 13.386 18.0613 13.1302 17.859C12.3123 17.2124 11.536 16.2386 11.8114 15.4456C11.9322 15.0988 12.2439 14.8835 12.6258 14.8835C12.903 14.8835 13.2052 14.9947 13.5003 15.2059C14.7102 16.0714 17.6013 17.9286 18.8744 18.7287C17.8357 17.7002 14.2129 14.103 13.3396 13.1197C12.6115 12.2999 12.3379 11.5105 12.5877 10.9543C12.7388 10.6188 13.0684 10.4183 13.4705 10.4183C13.9791 10.4183 14.5568 10.7217 15.0969 11.2726C15.7834 11.9727 18.5341 14.5795 20.0064 15.9715C19.3407 14.9299 17.0945 11.4707 15.7322 9.58371C15.3741 9.08759 14.828 8.14828 15.1939 7.43324C15.3705 7.08821 15.7162 6.89071 16.1427 6.89071C16.7435 6.89071 17.3747 7.27084 17.8304 7.90735C18.2729 8.52543 19.0112 9.53017 19.7928 10.5938C20.3955 11.4135 20.9802 12.2101 21.4395 12.8413C21.1194 11.9668 20.6739 10.7883 20.1147 9.37729C19.6049 8.09117 19.5864 6.80326 20.0665 6.09655C20.2747 5.79019 20.5638 5.62125 20.8797 5.62125C21.1956 5.62125 21.8196 5.80982 22.2889 7.07393C23.3103 9.82523 26.0724 16.3724 26.8255 17.5033C26.9569 17.3528 27.1437 16.9655 27.2026 16.307C27.2651 15.6068 27.5798 13.8876 29.158 13.0411C29.6244 12.7907 30.0431 12.664 30.4024 12.664C30.7885 12.664 31.0955 12.821 31.2454 13.0947C31.4018 13.3808 31.362 13.7467 31.1365 14.0994C30.3251 15.3653 28.7713 20.248 29.92 24.2635C30.0027 24.5532 29.7909 24.6858 29.5232 24.8542C29.3805 24.944 29.1699 25.0731 28.898 25.2373C28.4429 25.5121 27.807 25.891 27.0087 26.364C25.6506 27.1676 24.2723 27.9749 24.2586 27.9832L24.0052 28.1319L19.0314 23.3099L19.032 23.3093Z" fill="white"/>
<path d="M20.8803 6.00732C21.2217 6.00732 21.6149 6.36722 21.9267 7.20778C22.8446 9.68067 26.2794 17.9613 26.738 17.9613C26.738 17.9613 26.7392 17.9613 26.7398 17.9613C27.1979 17.9423 27.5125 17.1886 27.5881 16.3403C27.6636 15.492 28.0402 14.0786 29.3412 13.3814C29.7772 13.1476 30.1359 13.05 30.403 13.05C30.9331 13.05 31.1044 13.432 30.8111 13.89C29.8688 15.3599 28.3989 20.3492 29.5482 24.3693C29.5649 24.4264 24.0635 27.6489 24.0635 27.6489L19.3068 23.0374C15.7822 19.3129 15.3491 19.1196 13.37 17.555C11.8132 16.3242 11.947 15.2695 12.6264 15.2695C12.8102 15.2695 13.0345 15.3469 13.276 15.52C14.765 16.5848 18.6477 19.0541 19.2128 19.3932C19.383 19.4955 19.5412 19.5461 19.6572 19.5461C19.9273 19.5461 19.9719 19.2713 19.4199 18.724C19.4199 18.724 14.6323 13.9935 13.6293 12.8627C12.555 11.6521 12.7721 10.805 13.4711 10.805C13.8304 10.805 14.3176 11.0293 14.8215 11.5432C15.7828 12.5236 20.6828 17.141 20.6828 17.141C20.7678 17.1939 20.8309 17.2177 20.8755 17.2177C21.1081 17.2177 20.8345 16.5699 20.5132 16.0476C20.2789 15.6669 17.6108 11.5242 16.0463 9.35706C15.0761 8.01264 15.4544 7.27738 16.1427 7.27738C16.5639 7.27738 17.101 7.5528 17.5163 8.13221C18.6096 9.65866 21.5876 13.6544 21.9832 14.2767C22.1825 14.5902 22.3199 14.7312 22.3877 14.7312C22.4555 14.7312 22.4537 14.5949 22.3788 14.3516C22.2283 13.8615 21.5305 11.9013 20.4746 9.23511C19.7429 7.38802 20.2116 6.00791 20.8797 6.00791M20.8803 5.23398C20.4383 5.23398 20.0254 5.46895 19.747 5.87882C19.1884 6.70094 19.192 8.09592 19.756 9.51946C19.8636 9.79191 19.9677 10.0572 20.0683 10.3142C19.3009 9.27021 18.5799 8.28807 18.1456 7.6813C17.6174 6.94365 16.869 6.50344 16.1433 6.50344C15.5752 6.50344 15.0915 6.78482 14.85 7.25655C14.6091 7.7277 14.5121 8.55279 15.4193 9.80917C16.1207 10.7806 17.0576 12.1708 17.8904 13.4314C16.7947 12.388 15.7572 11.3927 15.3729 11.0013C14.7596 10.3761 14.0838 10.0316 13.4705 10.0316C12.9113 10.0316 12.4497 10.3172 12.2349 10.7961C12.0499 11.2077 11.9096 12.0911 13.0505 13.3766C13.5252 13.9114 14.8001 15.2065 16.0374 16.448C15.1278 15.8531 14.2611 15.2749 13.7251 14.8912C13.364 14.633 12.9839 14.4968 12.6258 14.4968C12.0743 14.4968 11.6222 14.8115 11.4461 15.3189C11.1558 16.1553 11.6954 17.2183 12.8905 18.163C13.1481 18.3664 13.3747 18.5431 13.5936 18.7139C15.0065 19.8156 15.7162 20.3682 18.7453 23.5698L18.7566 23.5817L18.7685 23.593L23.5251 28.2045L23.9469 28.6138L24.4543 28.3169C24.468 28.3086 25.8469 27.5014 27.2056 26.6971C28.0051 26.2242 28.6416 25.8446 29.0979 25.5686C29.3715 25.4032 29.5839 25.2735 29.729 25.1819C29.8135 25.129 29.8772 25.0874 29.9242 25.0558C29.9593 25.032 29.9872 25.0118 30.011 24.9928C30.3239 24.7477 30.3614 24.4003 30.2918 24.157C29.6945 22.0695 29.8891 19.8245 30.1568 18.3082C30.4857 16.445 31.0639 14.9287 31.4619 14.3076C31.7665 13.8329 31.8111 13.3231 31.5845 12.9091C31.365 12.5075 30.9343 12.2773 30.4024 12.2773C29.9783 12.2773 29.4982 12.4195 28.9747 12.7003C27.2306 13.6354 26.8849 15.5099 26.8171 16.2725C26.8064 16.3927 26.791 16.5021 26.7725 16.6009C26.4489 15.9661 25.9094 14.8252 25.0343 12.7883C24.0242 10.4368 23.0528 8.01978 22.6518 6.93949C22.468 6.44455 22.2431 6.05074 21.9826 5.76877C21.5757 5.32737 21.1581 5.23517 20.8803 5.23517V5.23398Z" fill="#175C12"/>
<path d="M12.3438 21.2252L12.781 20.7594C12.9607 20.5738 13.2022 20.4715 13.4604 20.4715C13.5669 20.4715 13.671 20.4893 13.7691 20.5232L24.9492 9.08078L29.1758 13.2866L17.8434 24.6005C17.9458 24.9223 17.8702 25.2858 17.6221 25.544L17.223 25.977L12.3426 21.2258L12.3438 21.2252Z" fill="white"/>
<path d="M24.954 9.63045L28.6291 13.2871L17.3705 24.5273C17.5531 24.745 17.5442 25.0704 17.3419 25.2787L17.2093 25.4226L12.8857 21.2133L13.0588 21.0289C13.1689 20.9158 13.3146 20.8587 13.461 20.8587C13.5966 20.8587 13.7322 20.9075 13.8393 21.0057L24.954 9.63045ZM15.2968 22.1466C15.367 22.1466 15.4366 22.1199 15.4901 22.0663L25.5048 11.9653C25.5578 11.9124 25.5839 11.8428 25.5839 11.7738C25.5839 11.7048 25.5572 11.6346 25.5036 11.5816C25.4507 11.5287 25.3811 11.5025 25.3121 11.5025C25.2425 11.5025 25.1723 11.5293 25.1193 11.5828L15.104 21.6844C15.0517 21.7374 15.0255 21.8064 15.0255 21.8754C15.0255 21.9444 15.0523 22.0152 15.1058 22.0681C15.1587 22.1205 15.2278 22.1466 15.2968 22.1466ZM16.5406 23.5095C16.6108 23.5095 16.6804 23.4827 16.734 23.4292L26.7487 13.3282C26.8016 13.2753 26.8278 13.2057 26.8278 13.1366C26.8278 13.0676 26.8011 12.9969 26.7475 12.9439C26.6946 12.8916 26.6256 12.8654 26.5566 12.8654C26.4876 12.8654 26.4168 12.8922 26.3632 12.9457L16.3479 23.0467C16.2956 23.0996 16.2694 23.1686 16.2694 23.2376C16.2694 23.3066 16.2961 23.3774 16.3497 23.431C16.4026 23.4833 16.4716 23.5095 16.5406 23.5095ZM24.9462 8.53172L24.4007 9.08971L13.6448 20.0979C13.5841 20.0896 13.5228 20.0854 13.461 20.0854C13.0969 20.0854 12.7572 20.2293 12.5038 20.4905L12.4997 20.4953L12.4955 20.5L12.3224 20.6844L11.8025 21.2383L12.3468 21.7677L16.6703 25.977L17.2396 26.5315L17.778 25.9467L17.9053 25.8087C18.1908 25.5089 18.3128 25.1103 18.2658 24.726L29.1752 13.8344L29.7243 13.286L29.174 12.7387L25.4989 9.08198L24.9456 8.53172H24.9462Z" fill="#175C12"/>
<defs>
<linearGradient id="paint0_linear_809_115" x1="5.91319" y1="22.8655" x2="16.3687" y2="22.8655" gradientUnits="userSpaceOnUse">
<stop stop-color="white" stop-opacity="0"/>
<stop offset="1" stop-color="white" stop-opacity="0.9"/>
</linearGradient>
<linearGradient id="paint1_linear_809_115" x1="10.257" y1="25.9686" x2="21.189" y2="25.9686" gradientUnits="userSpaceOnUse">
<stop stop-color="white" stop-opacity="0"/>
<stop offset="1" stop-color="white" stop-opacity="0.9"/>
</linearGradient>
<linearGradient id="paint2_linear_809_115" x1="13.9743" y1="27.935" x2="22.4799" y2="27.935" gradientUnits="userSpaceOnUse">
<stop stop-color="white" stop-opacity="0"/>
<stop offset="1" stop-color="white" stop-opacity="0.9"/>
</linearGradient>
<linearGradient id="paint3_linear_809_115" x1="5.91022" y1="20.3631" x2="15.4264" y2="20.3631" gradientUnits="userSpaceOnUse">
<stop stop-color="white" stop-opacity="0"/>
<stop offset="1" stop-color="white" stop-opacity="0.9"/>
</linearGradient>
<linearGradient id="paint4_linear_809_115" x1="5.91022" y1="12.4564" x2="16.6465" y2="12.4564" gradientUnits="userSpaceOnUse">
<stop stop-color="white" stop-opacity="0"/>
<stop offset="1" stop-color="white" stop-opacity="0.9"/>
</linearGradient>
<linearGradient id="paint5_linear_809_115" x1="15.9493" y1="7.6346" x2="20.3193" y2="7.6346" gradientUnits="userSpaceOnUse">
<stop stop-color="white" stop-opacity="0"/>
<stop offset="1" stop-color="white" stop-opacity="0.9"/>
</linearGradient>
<linearGradient id="paint6_linear_809_115" x1="5.91022" y1="9.63069" x2="16.6513" y2="9.63069" gradientUnits="userSpaceOnUse">
<stop stop-color="white" stop-opacity="0"/>
<stop offset="1" stop-color="white" stop-opacity="0.9"/>
</linearGradient>
<linearGradient id="paint7_linear_809_115" x1="5.91022" y1="17.7662" x2="15.4734" y2="17.7662" gradientUnits="userSpaceOnUse">
<stop stop-color="white" stop-opacity="0"/>
<stop offset="1" stop-color="white" stop-opacity="0.9"/>
</linearGradient>
</defs>
</svg>
