<svg width="38" height="38" viewBox="0 0 38 38" fill="none" xmlns="http://www.w3.org/2000/svg">
<path d="M4.13022 24.5627V4.56532C4.13022 4.28918 4.35408 4.06532 4.63022 4.06532H33.1982C33.4743 4.06532 33.6982 4.28918 33.6982 4.56532V24.5627L18.9731 33.8689L4.13022 24.5627Z" fill="#C9651C" stroke="#F7977B"/>
<circle cx="24.1267" cy="9.45238" r="1.86263" fill="white"/>
<path d="M22.925 14.1991L23.8787 14.9555C24.336 15.3182 24.9867 15.3035 25.427 14.9205L27.4314 13.1777" stroke="white" stroke-width="1.81788" stroke-linecap="round"/>
<path d="M19.6416 11.6786L16.7514 14.8839C16.4001 15.2735 16.2057 15.7795 16.2057 16.3041V17.0155C16.2057 17.3007 16.3978 17.5005 16.587 17.5963C16.7761 17.692 17.0354 17.7244 17.2621 17.6033C17.786 17.3237 18.6411 17.0237 19.8381 16.9432C20.31 16.9114 20.7858 16.7545 21.1664 16.4326C22.0909 15.6507 22.8966 14.9138 23.4363 14.4025C23.851 14.0097 23.9942 13.4185 23.8278 12.8803C23.7445 12.6105 23.5877 12.3693 23.375 12.1835L22.5953 11.5025C22.2592 11.209 21.8386 11.0296 21.3941 10.9902C20.7342 10.9317 20.0852 11.1867 19.6416 11.6786Z" fill="white" stroke="#C9651C" stroke-width="0.605959"/>
<path d="M21.5165 12.1835L18.1284 9.85678C17.6378 9.51988 16.9752 9.58905 16.5647 10.02L14.8736 11.7957" stroke="white" stroke-width="1.81788" stroke-linecap="round"/>
<path d="M10.3652 22.5387C12.751 20.2333 16.0207 17.365 20.9002 17.365C24.3519 17.365 25.0016 19.7358 25.0016 20.7545C25.0016 22.4077 22.8411 24.5922 20.4944 25.5072C21.4593 24.8072 22.1575 24.1375 22.7404 23.3515C20.7194 24.9487 17.5574 26.6401 14.1449 26.6401C11.8396 26.6401 10.3652 26.2975 10.3652 25.0644C10.3652 23.8313 14.547 19.724 19.0774 19.724C20.5785 19.724 21.4899 20.2065 21.4899 20.9571C21.4899 21.7077 19.2918 24.9245 14.4934 24.9245C13.2871 24.9245 13.5016 24.4688 13.5016 24.2811C13.5016 24.0935 14.9223 21.8953 17.7638 21.8953C18.8629 21.8953 18.8862 22.3861 18.8862 22.6809C18.8862 23.462 16.764 24.1199 16.3619 24.1199C16.8712 24.1199 20.4002 23.2846 20.4002 21.1669C20.4002 20.5235 20.2032 20.3405 19.0774 20.3405C16.4504 20.3405 11.5061 23.7095 11.5061 25.0644C11.5061 25.5294 12.2649 25.7581 14.2218 25.7581C18.0973 25.7581 23.4018 22.8029 23.4018 20.3405C23.4018 18.8179 21.1199 18.3129 20.2085 18.3129C16.5138 18.3129 13.8748 19.8963 10.3652 22.5387Z" fill="white"/>
</svg>
