<svg width="38" height="38" viewBox="0 0 38 38" fill="none" xmlns="http://www.w3.org/2000/svg">
<g clip-path="url(#clip0_1185_4)">
<path d="M35 17.6932L19 1.69321L3 17.6932L19 33.6932L35 17.6932Z" fill="#CC358B" stroke="black"/>
<path d="M7.18124 31.3414L13.7955 24.7271L13.8373 25.1452L15.0603 25.9919L15.8233 27.403L17.6316 25.5947L15.9981 25.054L15.1753 23.8073L32.0207 6.9618L34.4757 2.2961L29.7943 4.73539L12.9488 21.5808L11.5662 20.6221L11.0985 19.0616L9.29027 20.8699L10.6284 21.5599L11.6109 22.9188L12.0081 22.9397L5.39384 29.554L7.18124 31.3414Z" fill="white"/>
<path d="M13.7955 24.7271L7.18124 31.3414L5.39384 29.554L12.0081 22.9397M13.7955 24.7271L12.0081 22.9397M13.7955 24.7271L13.8373 25.1452L15.0603 25.9919L15.8233 27.403L17.6316 25.5947L15.9981 25.054L15.1753 23.8073M12.0081 22.9397L11.6109 22.9188L10.6284 21.5599L9.29027 20.8699L11.0985 19.0616L11.5662 20.6221L12.9488 21.5808M12.9488 21.5808L29.7943 4.73539L34.4757 2.2961L32.0207 6.9618L15.1753 23.8073M12.9488 21.5808L15.1753 23.8073" stroke="black"/>
<path d="M34.0379 2.65535L14.0164 22.6768" stroke="black" stroke-width="0.5"/>
</g>
<defs>
<clipPath id="clip0_1185_4">
<rect width="38" height="38" fill="white"/>
</clipPath>
</defs>
</svg>
