<svg width="38" height="38" viewBox="0 0 38 38" fill="none" xmlns="http://www.w3.org/2000/svg">
<g clip-path="url(#clip0_1193_2)">
<path d="M35 17.6932L19 1.69321L3 17.6932L19 33.6932L35 17.6932Z" fill="#CC358B" stroke="black"/>
<path d="M7.18124 31.3414L13.7955 24.7271L13.8373 25.1452L15.0603 25.9919L15.8233 27.403L17.6316 25.5947L15.9981 25.054L15.1753 23.8073L32.0207 6.9618L34.4757 2.2961L29.7943 4.73539L12.9488 21.5808L11.5662 20.6221L11.0985 19.0616L9.29027 20.8699L10.6284 21.5599L11.6109 22.9188L12.0081 22.9397L5.39384 29.554L7.18124 31.3414Z" fill="white"/>
<path d="M13.7955 24.7271L7.18124 31.3414L5.39384 29.554L12.0081 22.9397M13.7955 24.7271L12.0081 22.9397M13.7955 24.7271L13.8373 25.1452L15.0603 25.9919L15.8233 27.403L17.6316 25.5947L15.9981 25.054L15.1753 23.8073M12.0081 22.9397L11.6109 22.9188L10.6284 21.5599L9.29027 20.8699L11.0985 19.0616L11.5662 20.6221L12.9488 21.5808M12.9488 21.5808L29.7943 4.73539L34.4757 2.2961L32.0207 6.9618L15.1753 23.8073M12.9488 21.5808L15.1753 23.8073" stroke="black"/>
<path d="M33.9997 29.5119L27.3854 22.8977L27.8035 22.8559L28.6502 21.6329L30.0613 20.8699L28.253 19.0616L27.7123 20.6951L26.4656 21.5179L9.62009 4.67246L4.9544 2.21747L7.39368 6.89887L24.2391 23.7443L23.2804 25.127L21.7199 25.5947L23.5282 27.4029L24.2182 26.0648L25.5771 25.0823L25.598 24.6851L32.2123 31.2993L33.9997 29.5119Z" fill="white"/>
<path d="M27.3854 22.8977L33.9997 29.5119L32.2123 31.2993L25.598 24.6851M27.3854 22.8977L25.598 24.6851M27.3854 22.8977L27.8035 22.8559L28.6502 21.6329L30.0613 20.8699L28.253 19.0616L27.7123 20.6951L26.4656 21.5179M25.598 24.6851L25.5771 25.0823L24.2182 26.0648L23.5282 27.4029L21.7199 25.5947L23.2804 25.127L24.2391 23.7443M24.2391 23.7443L7.39368 6.89887L4.9544 2.21747L9.62009 4.67246L26.4656 21.5179M24.2391 23.7443L26.4656 21.5179" stroke="black"/>
</g>
<defs>
<clipPath id="clip0_1193_2">
<rect width="38" height="38" fill="white"/>
</clipPath>
</defs>
</svg>
