<svg width="39" height="38" viewBox="0 0 39 38" fill="none" xmlns="http://www.w3.org/2000/svg">
<g clip-path="url(#clip0_1193_2)">
<path d="M35.5 17.6932L19.5 1.69321L3.5 17.6932L19.5 33.6932L35.5 17.6932Z" fill="#35C2CC" stroke="black"/>
<path d="M7.68124 31.3414L14.2955 24.7271L14.3373 25.1452L15.5603 25.9919L16.3233 27.403L18.1316 25.5947L16.4981 25.054L15.6753 23.8073L32.5207 6.9618L34.9757 2.2961L30.2943 4.73539L13.4488 21.5808L12.0662 20.6221L11.5985 19.0616L9.79027 20.8699L11.1284 21.5599L12.1109 22.9188L12.5081 22.9397L5.89384 29.554L7.68124 31.3414Z" fill="white"/>
<path d="M14.2955 24.7271L7.68124 31.3414L5.89384 29.554L12.5081 22.9397M14.2955 24.7271L12.5081 22.9397M14.2955 24.7271L14.3373 25.1452L15.5603 25.9919L16.3233 27.403L18.1316 25.5947L16.4981 25.054L15.6753 23.8073M12.5081 22.9397L12.1109 22.9188L11.1284 21.5599L9.79027 20.8699L11.5985 19.0616L12.0662 20.6221L13.4488 21.5808M13.4488 21.5808L30.2943 4.73539L34.9757 2.2961L32.5207 6.9618L15.6753 23.8073M13.4488 21.5808L15.6753 23.8073" stroke="black"/>
<path d="M34.4997 29.5119L27.8854 22.8977L28.3035 22.8559L29.1502 21.6329L30.5613 20.8699L28.753 19.0616L28.2123 20.6951L26.9656 21.5179L10.1201 4.67246L5.4544 2.21747L7.89368 6.89887L24.7391 23.7443L23.7804 25.127L22.2199 25.5947L24.0282 27.4029L24.7182 26.0648L26.0771 25.0823L26.098 24.6851L32.7123 31.2993L34.4997 29.5119Z" fill="white"/>
<path d="M27.8854 22.8977L34.4997 29.5119L32.7123 31.2993L26.098 24.6851M27.8854 22.8977L26.098 24.6851M27.8854 22.8977L28.3035 22.8559L29.1502 21.6329L30.5613 20.8699L28.753 19.0616L28.2123 20.6951L26.9656 21.5179M26.098 24.6851L26.0771 25.0823L24.7182 26.0648L24.0282 27.4029L22.2199 25.5947L23.7804 25.127L24.7391 23.7443M24.7391 23.7443L7.89368 6.89887L5.4544 2.21747L10.1201 4.67246L26.9656 21.5179M24.7391 23.7443L26.9656 21.5179" stroke="black"/>
</g>
<defs>
<clipPath id="clip0_1193_2">
<rect width="38" height="38" fill="white" transform="translate(0.5)"/>
</clipPath>
</defs>
</svg>
