<svg width="38" height="38" viewBox="0 0 38 38" fill="none" xmlns="http://www.w3.org/2000/svg">
<path d="M20.6376 22L21.6376 24.5H23.1376L24.1376 21L25.1376 23.5L27.1376 22.5L28.1376 20L28.6376 22L29.6376 21C30.1376 20.3333 30.5376 18.8 28.1376 18C25.7376 17.2 21.1376 17.6667 19.1376 18V17L20.1376 14L21.6376 16.5H23.1376L24.1376 13L25.1376 16H27.1376L28.1376 13.5L28.6376 16H29.6376L31.1376 14.5C31.1376 16.6667 31.6376 21 31.1376 22.5C29.1376 26.5 22.1376 27 17.6376 26.5C10.6376 25.7222 6.63758 22.5 6.13758 21C5.73758 19.8 6.30424 16.8333 6.63758 15.5L8.13758 11.5V14.5L9.13758 14L11.1376 10V14H13.1376L13.6376 11L15.1376 14.5L16.1376 15.5L17.6376 13L18.6376 17L16.6376 18.5C14.8042 17.6667 10.5376 16.1 8.13758 16.5V19.5L10.1376 18L10.6376 22H11.6376L13.1376 19L14.1376 23.5L16.1376 22.5V24.5H17.6376H20.1376L20.6376 22Z" fill="white"/>
<path d="M17.6376 26.5C22.1376 27 29.1376 26.5 31.1376 22.5C31.6376 21 31.1376 16.6667 31.1376 14.5L29.6376 16H28.6376L28.1376 13.5L27.1376 16H25.1376L24.1376 13L23.1376 16.5H21.6376L20.1376 14L19.1376 17V18C21.1376 17.6667 25.7376 17.2 28.1376 18C30.5376 18.8 30.1376 20.3333 29.6376 21L28.6376 22L28.1376 20L27.1376 22.5L25.1376 23.5L24.1376 21L23.1376 24.5H21.6376L20.6376 22L20.1376 24.5H17.6376M17.6376 26.5V24.5M17.6376 26.5C10.6376 25.7222 6.63758 22.5 6.13758 21C5.73758 19.8 6.30424 16.8333 6.63758 15.5L8.13758 11.5V14.5L9.13758 14L11.1376 10V14H13.1376L13.6376 11L15.1376 14.5L16.1376 15.5L17.6376 13L18.6376 17L16.6376 18.5C14.8042 17.6667 10.5376 16.1 8.13758 16.5V19.5L10.1376 18L10.6376 22H11.6376L13.1376 19L14.1376 23.5L16.1376 22.5V24.5H17.6376" stroke="black" stroke-width="0.5" stroke-miterlimit="6.07152"/>
<path d="M16.6376 18.5L16.1376 24.5H19.1376L19.6376 18C19.1376 16.5 18.1376 16.5 17.6376 17C17.1376 17.5 16.6376 18.5 16.6376 18.5Z" fill="white" stroke="black" stroke-width="0.5" stroke-miterlimit="4.62751"/>
<path d="M22.8876 20.5C22.8876 20.6853 22.7947 20.887 22.5729 21.0969C22.3505 21.3072 22.0152 21.5081 21.5803 21.6821C20.7117 22.0295 19.4946 22.25 18.1376 22.25C16.7805 22.25 15.5635 22.0295 14.6949 21.6821C14.2599 21.5081 13.9247 21.3072 13.7023 21.0969C13.4804 20.887 13.3876 20.6853 13.3876 20.5C13.3876 20.3147 13.4804 20.113 13.7023 19.9031C13.9247 19.6928 14.2599 19.4919 14.6949 19.3179C15.5635 18.9705 16.7805 18.75 18.1376 18.75C19.4946 18.75 20.7117 18.9705 21.5803 19.3179C22.0152 19.4919 22.3505 19.6928 22.5729 19.9031C22.7947 20.113 22.8876 20.3147 22.8876 20.5Z" fill="white" stroke="black" stroke-width="0.5"/>
</svg>
