<svg width="38" height="38" viewBox="0 0 38 38" fill="none" xmlns="http://www.w3.org/2000/svg">
<path d="M7.50803 4.73329V29.4797H30.3729V4.73329H7.50803ZM21.9117 6.66846C22.5012 6.36479 23.1621 6.19211 23.8826 6.19211C24.3887 6.19211 24.8829 6.28143 25.3474 6.45411C26.9848 7.04359 28.1578 8.61555 28.1578 10.4674C28.1578 10.5388 28.1578 10.6043 28.1519 10.6758C28.0983 11.9083 27.5148 13.0099 26.6216 13.7423C25.8833 14.3794 24.9187 14.7486 23.8826 14.7486C23.0311 14.7486 22.2392 14.5044 21.5782 14.0698C20.5779 13.4446 19.8753 12.4144 19.6728 11.2117C19.6193 10.9735 19.6014 10.7234 19.6014 10.4674C19.6014 8.818 20.5362 7.38299 21.9117 6.66846ZM27.223 17.1065V27.7827H10.2113V17.1065H27.223ZM11.2891 6.66846C11.8785 6.36479 12.5395 6.19211 13.254 6.19211C13.7661 6.19211 14.2603 6.28143 14.7188 6.45411C16.3622 7.04359 17.5352 8.61555 17.5352 10.4674C17.5352 10.5388 17.5352 10.6043 17.5233 10.6758C17.4757 11.9083 16.8921 13.0099 15.999 13.7542C15.2606 14.3794 14.296 14.7486 13.254 14.7486C12.4085 14.7486 11.6166 14.5044 10.9497 14.0698C9.95528 13.4446 9.24671 12.4144 9.04426 11.2117C8.99067 10.9735 8.97281 10.7234 8.97281 10.4674C8.97281 8.818 9.9136 7.38299 11.2891 6.66846Z" fill="white" stroke="black" stroke-width="0.7" stroke-miterlimit="10"/>
<path d="M22.0367 17.1065H12.0572C11.0378 17.1065 10.2113 17.9329 10.2113 18.9524V25.9369C10.2113 26.9563 11.0378 27.7827 12.0572 27.7827H22.0367C23.0562 27.7827 23.8826 26.9563 23.8826 25.9369V18.9524C23.8826 17.9329 23.0562 17.1065 22.0367 17.1065Z" fill="white" stroke="black" stroke-width="0.7" stroke-miterlimit="10"/>
<path d="M27.223 26.1929H23.8826V27.7827H27.223V26.1929Z" fill="white" stroke="black" stroke-width="0.7" stroke-miterlimit="10"/>
<path d="M27.223 24.6924H23.8826V26.1929H27.223V24.6924Z" fill="white" stroke="black" stroke-width="0.7" stroke-miterlimit="10"/>
<path d="M27.223 23.1919H23.8826V24.6924H27.223V23.1919Z" fill="white" stroke="black" stroke-width="0.7" stroke-miterlimit="10"/>
<path d="M27.223 21.6973H23.8826V23.1919H27.223V21.6973Z" fill="white" stroke="black" stroke-width="0.7" stroke-miterlimit="10"/>
<path d="M27.223 20.1968H23.8826V21.6973H27.223V20.1968Z" fill="white" stroke="black" stroke-width="0.7" stroke-miterlimit="10"/>
<path d="M27.223 18.6844H23.8826V20.1968H27.223V18.6844Z" fill="white" stroke="black" stroke-width="0.7" stroke-miterlimit="10"/>
<path d="M27.223 17.1065H23.8826V18.6844H27.223V17.1065Z" fill="white" stroke="black" stroke-width="0.7" stroke-miterlimit="10"/>
<path d="M17.5292 10.6758C17.4757 11.9083 16.8921 13.0158 16.0049 13.7542L13.26 12.0512L10.9556 14.0698C9.96122 13.4446 9.25265 12.4085 9.0502 11.2117L11.8904 9.68734L11.2891 6.66846C11.8785 6.37074 12.5395 6.19211 13.254 6.19211C13.7661 6.19211 14.2603 6.28143 14.7188 6.45411L14.6235 9.68138L17.5292 10.6698V10.6758Z" fill="white" stroke="black" stroke-width="0.7" stroke-miterlimit="10"/>
<path d="M11.8905 9.68734L9.05021 11.2117C8.99662 10.9735 8.97876 10.7234 8.97876 10.4733C8.97876 8.82395 9.9136 7.38299 11.2891 6.66846L11.8905 9.68734Z" fill="black" stroke="black" stroke-width="0.7" stroke-miterlimit="10"/>
<path d="M15.999 13.7542C15.2607 14.3794 14.296 14.7486 13.254 14.7486C12.4085 14.7486 11.6106 14.5044 10.9497 14.0698L13.254 12.0512L15.999 13.7542Z" fill="black" stroke="black" stroke-width="0.7" stroke-miterlimit="10"/>
<path d="M17.5352 10.4674C17.5352 10.5388 17.5352 10.5984 17.5293 10.6698L14.6235 9.68138L14.7188 6.45411C16.3622 7.04359 17.5352 8.61555 17.5352 10.4674Z" fill="black" stroke="black" stroke-width="0.7" stroke-miterlimit="10"/>
<path d="M10.9575 14.0698L10.9437 14.0836" stroke="black" stroke-width="0.7" stroke-miterlimit="10"/>
<path d="M17.536 10.6758H17.5293" stroke="black" stroke-width="0.7" stroke-miterlimit="10"/>
<path d="M9.05209 11.2117H9.0383" stroke="black" stroke-width="0.7" stroke-miterlimit="10"/>
<path d="M28.1519 10.6758C28.0983 11.9083 27.5148 13.0158 26.6276 13.7482L23.8826 12.0512L21.5783 14.0698C20.5839 13.4446 19.8753 12.4085 19.6729 11.2117L22.5131 9.68734L21.9117 6.66846C22.5012 6.37074 23.1621 6.19211 23.8766 6.19211C24.3887 6.19211 24.8829 6.28143 25.3414 6.45411L25.2462 9.68138L28.1519 10.6698V10.6758Z" fill="white" stroke="black" stroke-width="0.7" stroke-miterlimit="10"/>
<path d="M22.5131 9.68734L19.6729 11.2117C19.6193 10.9735 19.6014 10.7234 19.6014 10.4733C19.6014 8.82395 20.5362 7.38299 21.9117 6.66846L22.5131 9.68734Z" fill="black" stroke="black" stroke-width="0.7" stroke-miterlimit="10"/>
<path d="M26.6276 13.7423C25.8893 14.3794 24.9246 14.7486 23.8826 14.7486C23.0371 14.7486 22.2392 14.5044 21.5783 14.0698L23.8826 12.0512L26.6276 13.7482V13.7423Z" fill="black" stroke="black" stroke-width="0.7" stroke-miterlimit="10"/>
<path d="M28.1579 10.4674C28.1579 10.5388 28.1579 10.5984 28.1519 10.6698L25.2462 9.68138L25.3415 6.45411C26.9849 7.04359 28.1579 8.61555 28.1579 10.4674Z" fill="black" stroke="black" stroke-width="0.7" stroke-miterlimit="10"/>
<path d="M26.6345 13.7561L26.6276 13.7423" stroke="black" stroke-width="0.7" stroke-miterlimit="10"/>
<path d="M21.5801 14.0698L21.5663 14.0836" stroke="black" stroke-width="0.7" stroke-miterlimit="10"/>
<path d="M28.1586 10.6758H28.1519" stroke="black" stroke-width="0.7" stroke-miterlimit="10"/>
<path d="M19.6748 11.2117H19.661" stroke="black" stroke-width="0.7" stroke-miterlimit="10"/>
<path d="M31.6174 29.6822V33.2667H6.38266V29.6822H7.07932L10.6877 27.9018H27.2052L30.8076 29.6822H31.6174Z" fill="white" stroke="black" stroke-width="0.7" stroke-miterlimit="10"/>
</svg>
