<svg width="38" height="38" viewBox="0 0 38 38" fill="none" xmlns="http://www.w3.org/2000/svg">
<rect x="13.96" y="10.85" width="10.3" height="16.3" fill="#565555" stroke="white" stroke-width="0.7"/>
<mask id="path-2-inside-1_602_497" fill="white">
<path fill-rule="evenodd" clip-rule="evenodd" d="M14.61 10.9471C11.636 12.5229 9.60999 15.6498 9.60999 19.2499C9.60999 22.85 11.636 25.9768 14.61 27.5526V10.9471ZM17.3763 28.5C17.9037 28.5919 18.4463 28.6399 19 28.6399C19.5537 28.6399 20.0962 28.5919 20.6237 28.5H17.3763ZM23.61 27.4322C26.4635 25.8211 28.39 22.7605 28.39 19.2499C28.39 15.7393 26.4635 12.6786 23.61 11.0675V27.4322Z"/>
</mask>
<path fill-rule="evenodd" clip-rule="evenodd" d="M14.61 10.9471C11.636 12.5229 9.60999 15.6498 9.60999 19.2499C9.60999 22.85 11.636 25.9768 14.61 27.5526V10.9471ZM17.3763 28.5C17.9037 28.5919 18.4463 28.6399 19 28.6399C19.5537 28.6399 20.0962 28.5919 20.6237 28.5H17.3763ZM23.61 27.4322C26.4635 25.8211 28.39 22.7605 28.39 19.2499C28.39 15.7393 26.4635 12.6786 23.61 11.0675V27.4322Z" fill="white"/>
<path d="M14.61 10.9471H15.31V9.78407L14.2823 10.3286L14.61 10.9471ZM14.61 27.5526L14.2823 28.1711L15.31 28.7157V27.5526H14.61ZM17.3763 28.5V27.8L17.2561 29.1896L17.3763 28.5ZM20.6237 28.5L20.7439 29.1896L20.6237 27.8V28.5ZM23.61 27.4322H22.91V28.6313L23.9541 28.0418L23.61 27.4322ZM23.61 11.0675L23.9541 10.458L22.91 9.8684V11.0675H23.61ZM10.31 19.2499C10.31 15.9191 12.1836 13.0249 14.9377 11.5657L14.2823 10.3286C11.0883 12.0209 8.90999 15.3804 8.90999 19.2499H10.31ZM14.9377 26.9341C12.1836 25.4748 10.31 22.5806 10.31 19.2499H8.90999C8.90999 23.1193 11.0883 26.4789 14.2823 28.1711L14.9377 26.9341ZM15.31 27.5526V10.9471H13.91V27.5526H15.31ZM19 27.9399C18.4867 27.9399 17.9844 27.8955 17.4965 27.8104L17.2561 29.1896C17.823 29.2884 18.4058 29.3399 19 29.3399V27.9399ZM20.5035 27.8104C20.0156 27.8955 19.5132 27.9399 19 27.9399V29.3399C19.5942 29.3399 20.1769 29.2884 20.7439 29.1896L20.5035 27.8104ZM20.6237 27.8H17.3763V29.2H20.6237V27.8ZM27.69 19.2499C27.69 22.4979 25.9084 25.3306 23.2658 26.8227L23.9541 28.0418C27.0185 26.3116 29.09 23.0231 29.09 19.2499H27.69ZM23.2658 11.6771C25.9084 13.1691 27.69 16.0019 27.69 19.2499H29.09C29.09 15.4767 27.0185 12.1882 23.9541 10.458L23.2658 11.6771ZM22.91 11.0675V27.4322H24.31V11.0675H22.91Z" fill="black" mask="url(#path-2-inside-1_602_497)"/>
<circle cx="19.11" cy="19" r="3.9024" fill="white" stroke="black" stroke-width="0.7"/>
<rect x="13.96" y="26.85" width="10.3" height="3.3" fill="white" stroke="black" stroke-width="0.7"/>
<rect x="13.96" y="7.85" width="10.3" height="3.3" fill="white" stroke="black" stroke-width="0.7"/>
</svg>
