<svg width="38" height="38" viewBox="0 0 38 38" fill="none" xmlns="http://www.w3.org/2000/svg">
<circle cx="19" cy="19" r="15.65" fill="white" stroke="#CC358B" stroke-width="0.7"/>
<path fill-rule="evenodd" clip-rule="evenodd" d="M21.8406 28.7801C23.2657 27.2207 24.0506 25.1245 23.9331 22.9456C23.8853 22.9853 23.8371 23.0244 23.7883 23.063C22.7719 24.8993 21.0396 26.3363 18.8522 26.9224C14.7766 28.0144 10.5926 25.7586 9.22018 21.8407C10.7795 23.2658 12.8756 24.0507 15.0545 23.9332C15.0147 23.8854 14.9755 23.837 14.9367 23.7881C13.1006 22.7716 11.6639 21.0394 11.0778 18.8521C9.98572 14.7765 12.2415 10.5926 16.1594 9.22014C14.7343 10.7795 13.9494 12.8757 14.067 15.0546C14.1147 15.0149 14.1629 14.9758 14.2117 14.9372C15.2281 13.1009 16.9604 11.6639 19.1479 11.0778C23.2234 9.98574 27.4074 12.2415 28.7798 16.1594C27.2205 14.7344 25.1244 13.9495 22.9456 14.067C22.9853 14.1148 23.0246 14.1632 23.0633 14.2121C24.8994 15.2286 26.3362 16.9608 26.9223 19.1481C28.0143 23.2237 25.7585 27.4076 21.8406 28.7801Z" fill="#CC358B"/>
</svg>
