<svg width="38" height="38" viewBox="0 0 38 38" fill="none" xmlns="http://www.w3.org/2000/svg">
<circle cx="19" cy="19" r="10.65" fill="white" stroke="black" stroke-width="0.7"/>
<path fill-rule="evenodd" clip-rule="evenodd" d="M20.9529 25.7238C21.9327 24.6517 22.4723 23.2106 22.3915 21.7126C22.3587 21.7399 22.3255 21.7668 22.292 21.7933C21.5931 23.0558 20.4022 24.0437 18.8983 24.4466C16.0964 25.1974 13.2199 23.6466 12.2764 20.953C13.3484 21.9327 14.7895 22.4724 16.2874 22.3916C16.2601 22.3587 16.2331 22.3254 16.2065 22.2918C14.9442 21.593 13.9564 20.4021 13.5535 18.8983C12.8027 16.0964 14.3535 13.2199 17.0471 12.2763C16.0673 13.3484 15.5277 14.7895 15.6085 16.2875C15.6413 16.2602 15.6745 16.2333 15.708 16.2068C16.4068 14.9443 17.5978 13.9564 19.1017 13.5535C21.9036 12.8027 24.7801 14.3536 25.7236 17.0471C24.6516 16.0674 23.2105 15.5278 21.7126 15.6085C21.7399 15.6414 21.7669 15.6747 21.7935 15.7083C23.0558 16.4071 24.0436 17.598 24.4465 19.1018C25.1973 21.9038 23.6465 24.7802 20.9529 25.7238Z" fill="black"/>
</svg>
