<svg width="38" height="38" viewBox="0 0 38 38" fill="none" xmlns="http://www.w3.org/2000/svg">
<path d="M19 28.6458C24.86 28.6458 29.6104 23.8954 29.6104 18.0354C29.6104 12.1754 24.86 7.425 19 7.425C13.14 7.425 8.38959 12.1754 8.38959 18.0354C8.38959 23.8954 13.14 28.6458 19 28.6458Z" fill="white" stroke="black" stroke-width="0.7" stroke-miterlimit="10"/>
<path d="M19 26.7167C23.7945 26.7167 27.6812 22.8299 27.6812 18.0354C27.6812 13.2409 23.7945 9.35417 19 9.35417C14.2055 9.35417 10.3188 13.2409 10.3188 18.0354C10.3188 22.8299 14.2055 26.7167 19 26.7167Z" stroke="black" stroke-width="0.7" stroke-miterlimit="10"/>
<path d="M19 24.7875C22.7291 24.7875 25.7521 21.7645 25.7521 18.0354C25.7521 14.3063 22.7291 11.2833 19 11.2833C15.2709 11.2833 12.2479 14.3063 12.2479 18.0354C12.2479 21.7645 15.2709 24.7875 19 24.7875Z" stroke="black" stroke-width="0.7" stroke-miterlimit="10"/>
<path d="M19 22.8583C21.6636 22.8583 23.8229 20.699 23.8229 18.0354C23.8229 15.3718 21.6636 13.2125 19 13.2125C16.3364 13.2125 14.1771 15.3718 14.1771 18.0354C14.1771 20.699 16.3364 22.8583 19 22.8583Z" stroke="black" stroke-width="0.7" stroke-miterlimit="10"/>
<path fill-rule="evenodd" clip-rule="evenodd" d="M20.8709 20.2431C21.4966 19.7123 21.8938 18.9202 21.8938 18.0354C21.8938 16.4372 20.5982 15.1417 19 15.1417C17.4018 15.1417 16.1063 16.4372 16.1063 18.0354C16.1063 18.9202 16.5034 19.7123 17.1291 20.2431L14.1771 30.575H17.0708L17.622 28.6458H20.378L20.9292 30.575H23.8229L20.8709 20.2431ZM19.2756 24.7875L19 23.8229L18.7244 24.7875H19.2756Z" fill="white"/>
<path d="M20.8709 20.2431L20.6445 19.9762L20.4724 20.1222L20.5344 20.3392L20.8709 20.2431ZM17.1291 20.2431L17.4656 20.3392L17.5276 20.1222L17.3555 19.9762L17.1291 20.2431ZM14.1771 30.575L13.8406 30.4788L13.7131 30.925H14.1771V30.575ZM17.0708 30.575V30.925H17.3348L17.4074 30.6711L17.0708 30.575ZM17.622 28.6458V28.2958H17.358L17.2855 28.5497L17.622 28.6458ZM20.378 28.6458L20.7145 28.5497L20.642 28.2958H20.378V28.6458ZM20.9292 30.575L20.5926 30.6711L20.6652 30.925H20.9292V30.575ZM23.8229 30.575V30.925H24.2869L24.1594 30.4788L23.8229 30.575ZM19 23.8229L19.3365 23.7268L19 22.5489L18.6635 23.7268L19 23.8229ZM19.2756 24.7875V25.1375H19.7396L19.6121 24.6913L19.2756 24.7875ZM18.7244 24.7875L18.3879 24.6913L18.2604 25.1375H18.7244V24.7875ZM21.0973 20.51C21.7981 19.9155 22.2438 19.0273 22.2438 18.0354H21.5438C21.5438 18.8131 21.1952 19.509 20.6445 19.9762L21.0973 20.51ZM22.2438 18.0354C22.2438 16.2439 20.7915 14.7917 19 14.7917V15.4917C20.4049 15.4917 21.5438 16.6305 21.5438 18.0354H22.2438ZM19 14.7917C17.2085 14.7917 15.7563 16.2439 15.7563 18.0354H16.4563C16.4563 16.6305 17.5951 15.4917 19 15.4917V14.7917ZM15.7563 18.0354C15.7563 19.0273 16.2019 19.9155 16.9027 20.51L17.3555 19.9762C16.8048 19.509 16.4563 18.8131 16.4563 18.0354H15.7563ZM16.7925 20.1469L13.8406 30.4788L14.5136 30.6711L17.4656 20.3392L16.7925 20.1469ZM14.1771 30.925H17.0708V30.225H14.1771V30.925ZM17.4074 30.6711L17.9586 28.742L17.2855 28.5497L16.7343 30.4788L17.4074 30.6711ZM17.622 28.9958H20.378V28.2958H17.622V28.9958ZM20.0414 28.742L20.5926 30.6711L21.2657 30.4788L20.7145 28.5497L20.0414 28.742ZM20.9292 30.925H23.8229V30.225H20.9292V30.925ZM24.1594 30.4788L21.2075 20.1469L20.5344 20.3392L23.4864 30.6711L24.1594 30.4788ZM18.6635 23.9191L18.9391 24.8837L19.6121 24.6913L19.3365 23.7268L18.6635 23.9191ZM19.0609 24.8837L19.3365 23.9191L18.6635 23.7268L18.3879 24.6913L19.0609 24.8837ZM19.2756 24.4375H18.7244V25.1375H19.2756V24.4375Z" fill="black"/>
</svg>
