<svg width="38" height="38" viewBox="0 0 38 38" fill="none" xmlns="http://www.w3.org/2000/svg">
<mask id="path-1-inside-1_645_7" fill="white">
<path fill-rule="evenodd" clip-rule="evenodd" d="M7 26C9.33421 23.011 13.697 21 18.6939 21C23.6908 21 28.0537 23.011 30.3879 26C28.0537 28.989 23.6908 31 18.6939 31C13.697 31 9.33421 28.989 7 26Z"/>
</mask>
<path fill-rule="evenodd" clip-rule="evenodd" d="M7 26C9.33421 23.011 13.697 21 18.6939 21C23.6908 21 28.0537 23.011 30.3879 26C28.0537 28.989 23.6908 31 18.6939 31C13.697 31 9.33421 28.989 7 26Z" fill="white"/>
<path d="M7 26L6.21185 25.3845L5.7312 26L6.21185 26.6155L7 26ZM30.3879 26L31.176 26.6155L31.6567 26L31.176 25.3845L30.3879 26ZM7.78815 26.6155C9.89599 23.9164 13.9396 22 18.6939 22V20C13.4544 20 8.77244 22.1056 6.21185 25.3845L7.78815 26.6155ZM18.6939 22C23.4483 22 27.4919 23.9164 29.5997 26.6155L31.176 25.3845C28.6154 22.1056 23.9334 20 18.6939 20V22ZM29.5997 25.3845C27.4919 28.0836 23.4483 30 18.6939 30V32C23.9334 32 28.6154 29.8944 31.176 26.6155L29.5997 25.3845ZM18.6939 30C13.9396 30 9.89599 28.0836 7.78815 25.3845L6.21185 26.6155C8.77244 29.8944 13.4544 32 18.6939 32V30Z" fill="black" mask="url(#path-1-inside-1_645_7)"/>
<circle cx="16" cy="26" r="4" fill="black"/>
<path d="M16.5 8.5C12.5 8.5 10.5 10.5 10 11.5L8.5 9.5C11.5 4.5 19.1635 4.05295 21.5 6C24.5 8.50001 24 14.5 23.5 16.5C23.1 18.1 20.3333 17.8333 19 17.5V20H17C16.8333 20 16.6 19.4 17 17C17.5 14 21.5 16.5 21.5 14C21.5 11.5 21.5 8.5 16.5 8.5Z" fill="white" stroke="black" stroke-miterlimit="5.02447"/>
</svg>
