<svg width="38" height="38" viewBox="0 0 38 38" fill="none" xmlns="http://www.w3.org/2000/svg">
<mask id="path-1-inside-1_645_7" fill="white">
<path fill-rule="evenodd" clip-rule="evenodd" d="M7 26C9.33421 23.011 13.697 21 18.6939 21C23.6908 21 28.0537 23.011 30.3879 26C28.0537 28.989 23.6908 31 18.6939 31C13.697 31 9.33421 28.989 7 26Z"/>
</mask>
<path fill-rule="evenodd" clip-rule="evenodd" d="M7 26C9.33421 23.011 13.697 21 18.6939 21C23.6908 21 28.0537 23.011 30.3879 26C28.0537 28.989 23.6908 31 18.6939 31C13.697 31 9.33421 28.989 7 26Z" fill="white"/>
<path d="M7 26L6.4483 25.5692L6.11184 26L6.4483 26.4308L7 26ZM30.3879 26L30.9396 26.4308L31.276 26L30.9396 25.5692L30.3879 26ZM7.5517 26.4308C9.72746 23.6447 13.8668 21.7 18.6939 21.7V20.3C13.5272 20.3 8.94097 22.3772 6.4483 25.5692L7.5517 26.4308ZM18.6939 21.7C23.521 21.7 27.6604 23.6448 29.8362 26.4308L30.9396 25.5692C28.4469 22.3772 23.8607 20.3 18.6939 20.3V21.7ZM29.8362 25.5692C27.6604 28.3553 23.521 30.3 18.6939 30.3V31.7C23.8607 31.7 28.4469 29.6228 30.9396 26.4308L29.8362 25.5692ZM18.6939 30.3C13.8668 30.3 9.72746 28.3553 7.5517 25.5692L6.4483 26.4308C8.94097 29.6228 13.5272 31.7 18.6939 31.7V30.3Z" fill="black" mask="url(#path-1-inside-1_645_7)"/>
<circle cx="16" cy="26" r="4" fill="black"/>
<path d="M16.5 8.5C12.5 8.5 10.5 10.5 10 11.5L8.5 9.5C11.5 4.5 19.1635 4.05295 21.5 6C24.5 8.50001 24 14.5 23.5 16.5C23.1 18.1 20.3333 17.8333 19 17.5V20H17C16.8333 20 16.6 19.4 17 17C17.5 14 21.5 16.5 21.5 14C21.5 11.5 21.5 8.5 16.5 8.5Z" fill="white" stroke="black" stroke-width="0.7" stroke-miterlimit="5.02447"/>
</svg>
