<svg width="38" height="38" viewBox="0 0 38 38" fill="none" xmlns="http://www.w3.org/2000/svg">
<path d="M4.13022 24.5627V4.06532H33.6982V24.5627L18.9731 33.8689L4.13022 24.5627Z" fill="black" stroke="#FFFF55"/>
<path d="M10 19.3794V7H28V19.3794L19.0359 25L10 19.3794Z" fill="#FFFF55"/>
<path fill-rule="evenodd" clip-rule="evenodd" d="M10 21.3794V24.3794L19.0359 30L28 24.3794V21.3794L19.0359 27L10 21.3794ZM10 14H28V13H10V14Z" fill="#FFFF55"/>
<path fill-rule="evenodd" clip-rule="evenodd" d="M12.2672 14.8063C12.2672 13.1261 14.1779 12.2366 14.6721 12.2366C14.9152 12.2366 14.9909 12.3881 15.0639 12.5342C15.1392 12.685 15.2117 12.8302 15.4628 12.7967C15.8581 12.744 16.4841 12.5112 16.7476 12.4013L16.7374 12.412C16.2865 12.8833 16.0305 13.1509 15.1663 13.1917L12.992 14.5427C12.9151 14.7404 12.7482 15.1819 12.6955 15.3664C12.8308 15.3664 12.9299 15.2988 13.0279 15.232C13.0869 15.1917 13.1456 15.1517 13.2115 15.127C13.6016 15.127 13.8873 14.9402 14.1356 14.7778C14.3264 14.6531 14.4951 14.5427 14.6721 14.5427C14.8565 14.5427 14.9444 14.5854 15.0512 14.6373C15.2497 14.7337 15.5134 14.8618 16.5829 14.8063C18.3427 14.7149 20.2306 18.5716 20.3715 19.9786C20.474 21.0013 21.5856 21.6588 22.2884 21.8564C22.2884 18.6654 22.5297 18.0019 25.4618 18.0019C23.6608 18.3102 23.7037 19.3087 23.7698 20.8486C23.7833 21.1625 23.7978 21.4988 23.7978 21.8564C23.7978 23.1479 26.609 20.8791 28.0147 19.5833C28.5089 16.9367 29.1253 11.8691 27.6758 11.8691C25.8641 11.8691 25.8641 13.3196 25.8641 14.0775V14.0778C25.8641 14.8356 25.4308 16.2011 24.4754 16.2011C24.4754 9.87578 22.3812 8.31622 19.9103 8.31622C17.9336 8.31622 15.924 9.65596 15.1663 10.3258C14.76 10.4576 13.7623 10.9489 13.2615 11.3178C11.6472 11.2519 10.8016 13.6171 12.2672 14.8063ZM15.8058 10.495H16.4476C16.7476 9.47293 17.4697 9.18769 18.2066 9.18769C18.9434 9.18769 19.3 9.70502 19.3 10.3258C19.3 10.9467 18.6196 11.4458 17.6836 11.4458C16.7476 11.4458 15.8058 10.9942 15.8058 10.495ZM14.5338 11.1476C14.6127 10.9517 14.6894 10.7613 14.7981 10.7534C14.3667 10.7706 13.9944 11.0442 14.0088 11.3178C14.0114 11.3678 14.0116 11.4082 14.0118 11.4409C14.0122 11.5044 14.0124 11.5387 14.0296 11.5572C14.0499 11.579 14.0936 11.5788 14.1888 11.5786L14.226 11.5785C14.3601 11.5785 14.4483 11.3598 14.5338 11.1476Z" fill="black"/>
</svg>
