<svg width="38" height="38" viewBox="0 0 38 38" fill="none" xmlns="http://www.w3.org/2000/svg">
<path d="M29.1103 16.2619L31.2057 15.4049L31.235 12.4643L31.5989 11.8773C29.8678 11.2319 29.2053 10.6814 28.8168 9.21256L27.2496 9.15974L25.389 9.86408L8.03867 10.0578L7.4165 9.48843L6.89411 9.46495L5.09216 10.903V11.9536L5.47368 12.523L5.56173 15.3814L12.0476 15.3051L15.1877 15.9684L16.0447 16.7373L16.3734 19.5312H22.9355L24.8079 28.8403L32.9079 26.7448L29.0985 16.2619H29.1103ZM20.0301 17.2597L19.1966 18.1636L17.383 18.2105L17.1834 15.7864L19.6251 15.6867L20.124 16.3499L20.036 17.2597H20.0301ZM20.576 18.2692L20.8166 18.0227L21.4388 17.424L21.4858 15.5869L22.7536 15.9449L22.9179 18.3573L20.5818 18.2692H20.576Z" fill="black" stroke="black" stroke-width="1.4" stroke-miterlimit="10"/>
<path d="M29.1103 16.2619L31.2057 15.4049L31.235 12.4643L31.5989 11.8773C29.8678 11.2319 29.2053 10.6814 28.8168 9.21256L27.2496 9.15974L25.389 9.86408L8.03867 10.0578L7.4165 9.48843L6.89411 9.46495L5.09216 10.903V11.9536L5.47368 12.523L5.56173 15.3814L12.0476 15.3051L15.1878 15.9684L16.0447 16.7373L16.3734 19.5312H22.9355L24.8079 28.8403L32.9079 26.7448L29.1103 16.2619ZM19.1966 18.1636L17.383 18.2105L17.1834 15.7864L19.6251 15.6867L20.124 16.3499L20.036 17.2597L19.1966 18.1636ZM20.8166 18.0227L21.4388 17.424L21.4858 15.5869L22.7536 15.9449L22.9179 18.3573L20.5818 18.2692L20.8166 18.0227Z" stroke="white" stroke-width="0.7" stroke-miterlimit="10"/>
</svg>
