<svg width="38" height="38" viewBox="0 0 38 38" fill="none" xmlns="http://www.w3.org/2000/svg">
<mask id="path-1-outside-1_602_509" maskUnits="userSpaceOnUse" x="5.00004" y="11.4999" width="28" height="16" fill="black">
<rect fill="white" x="5.00004" y="11.4999" width="28" height="16"/>
<path d="M28 14.4999H6.00004V17.4999H10V20.4999L7.00004 26.4999H10.5L12 22.4999H22L24 26.4999H28L25 19.9999V17.4999L28 16.4999H30L31 17.4999L32 21.4999V13.3027C32 13.1053 31.9416 12.9123 31.8321 12.748C31.4363 12.1543 30.5638 12.1543 30.168 12.748C30.0585 12.9123 30 13.1053 30 13.3027V15.4999H28V14.4999Z"/>
</mask>
<path d="M28 14.4999H6.00004V17.4999H10V20.4999L7.00004 26.4999H10.5L12 22.4999H22L24 26.4999H28L25 19.9999V17.4999L28 16.4999H30L31 17.4999L32 21.4999V13.3027C32 13.1053 31.9416 12.9123 31.8321 12.748C31.4363 12.1543 30.5638 12.1543 30.168 12.748C30.0585 12.9123 30 13.1053 30 13.3027V15.4999H28V14.4999Z" fill="white"/>
<path d="M6.00004 14.4999V13.7999H5.30004V14.4999H6.00004ZM28 14.4999H28.7V13.7999H28V14.4999ZM28 15.4999H27.3V16.1999H28V15.4999ZM30 15.4999V16.1999H30.7V15.4999H30ZM32 21.4999L31.3209 21.6697C31.4067 22.0127 31.7347 22.2379 32.0856 22.1947C32.4364 22.1515 32.7 21.8535 32.7 21.4999H32ZM31 17.4999L31.6791 17.3302L31.6321 17.1421L31.495 17.005L31 17.4999ZM30 16.4999L30.495 16.005L30.29 15.7999H30V16.4999ZM28 16.4999V15.7999H27.8864L27.7787 15.8359L28 16.4999ZM25 17.4999L24.7787 16.8359L24.3 16.9954V17.4999H25ZM25 19.9999H24.3V20.1537L24.3645 20.2933L25 19.9999ZM28 26.4999V27.1999H29.0941L28.6356 26.2066L28 26.4999ZM24 26.4999L23.3739 26.813L23.5674 27.1999H24V26.4999ZM22 22.4999L22.6261 22.1869L22.4327 21.7999H22V22.4999ZM12 22.4999V21.7999H11.5149L11.3446 22.2542L12 22.4999ZM10.5 26.4999V27.1999H10.9851L11.1555 26.7457L10.5 26.4999ZM7.00004 26.4999L6.37394 26.1869L5.86742 27.1999H7.00004V26.4999ZM10 20.4999L10.6261 20.813L10.7 20.6652V20.4999H10ZM10 17.4999H10.7V16.7999H10V17.4999ZM6.00004 17.4999H5.30004V18.1999H6.00004V17.4999ZM31.8321 12.748L31.2497 13.1363L31.2497 13.1363L31.8321 12.748ZM30.168 12.748L30.7504 13.1363L30.7504 13.1363L30.168 12.748ZM6.00004 15.1999H28V13.7999H6.00004V15.1999ZM27.3 14.4999V15.4999H28.7V14.4999H27.3ZM28 16.1999H30V14.7999H28V16.1999ZM30.7 15.4999V13.3027H29.3V15.4999H30.7ZM31.3 13.3027V21.4999H32.7V13.3027H31.3ZM32.6791 21.3302L31.6791 17.3302L30.3209 17.6697L31.3209 21.6697L32.6791 21.3302ZM31.495 17.005L30.495 16.005L29.5051 16.9949L30.5051 17.9949L31.495 17.005ZM30 15.7999H28V17.1999H30V15.7999ZM27.7787 15.8359L24.7787 16.8359L25.2214 18.164L28.2214 17.164L27.7787 15.8359ZM24.3 17.4999V19.9999H25.7V17.4999H24.3ZM24.3645 20.2933L27.3645 26.7933L28.6356 26.2066L25.6356 19.7066L24.3645 20.2933ZM28 25.7999H24V27.1999H28V25.7999ZM24.6261 26.1869L22.6261 22.1869L21.3739 22.813L23.3739 26.813L24.6261 26.1869ZM22 21.7999H12V23.1999H22V21.7999ZM11.3446 22.2542L9.84461 26.2542L11.1555 26.7457L12.6555 22.7457L11.3446 22.2542ZM10.5 25.7999H7.00004V27.1999H10.5V25.7999ZM7.62614 26.813L10.6261 20.813L9.37394 20.1869L6.37394 26.1869L7.62614 26.813ZM10.7 20.4999V17.4999H9.30004V20.4999H10.7ZM10 16.7999H6.00004V18.1999H10V16.7999ZM6.70004 17.4999V14.4999H5.30004V17.4999H6.70004ZM31.2497 13.1363C31.2825 13.1856 31.3 13.2435 31.3 13.3027H32.7C32.7 12.9671 32.6007 12.639 32.4145 12.3597L31.2497 13.1363ZM30.7504 13.1363C30.8692 12.9582 31.1309 12.9582 31.2497 13.1363L32.4145 12.3597C31.7416 11.3504 30.2585 11.3504 29.5856 12.3597L30.7504 13.1363ZM30.7 13.3027C30.7 13.2435 30.7176 13.1856 30.7504 13.1363L29.5856 12.3597C29.3994 12.639 29.3 12.9671 29.3 13.3027H30.7Z" fill="black" mask="url(#path-1-outside-1_602_509)"/>
<path d="M22 20.4999V17.4999H13V20.4999H22Z" fill="black"/>
</svg>
