<svg width="38" height="38" viewBox="0 0 38 38" fill="none" xmlns="http://www.w3.org/2000/svg">
<path d="M4.13022 24.5627V4.06532H33.6982V24.5627L18.9731 33.8689L4.13022 24.5627Z" fill="black" stroke="white"/>
<mask id="mask0_808_41" style="mask-type:alpha" maskUnits="userSpaceOnUse" x="4" y="4" width="30" height="29">
<path d="M4.13022 22.8234V4.06532H33.6982V22.8234L18.9731 32.1297L4.13022 22.8234Z" fill="#D9D9D9"/>
</mask>
<g mask="url(#mask0_808_41)">
<mask id="path-3-inside-1_808_41" fill="white">
<path fill-rule="evenodd" clip-rule="evenodd" d="M28.8112 12.8709C24.7147 16.7878 13.2306 16.5292 9.01727 12.8709V33.9796C9.01725 33.9827 9.01724 33.9858 9.01724 33.9889C9.01724 33.992 9.01725 33.9951 9.01727 33.9982V34.0293H9.01773C9.07123 36.226 13.4815 38 18.9142 38C24.3469 38 28.7572 36.226 28.8107 34.0293H28.8112V12.8709Z"/>
</mask>
<path fill-rule="evenodd" clip-rule="evenodd" d="M28.8112 12.8709C24.7147 16.7878 13.2306 16.5292 9.01727 12.8709V33.9796C9.01725 33.9827 9.01724 33.9858 9.01724 33.9889C9.01724 33.992 9.01725 33.9951 9.01727 33.9982V34.0293H9.01773C9.07123 36.226 13.4815 38 18.9142 38C24.3469 38 28.7572 36.226 28.8107 34.0293H28.8112V12.8709Z" fill="white"/>
<path d="M9.01727 12.8709L9.54175 12.2669L8.21727 11.1169V12.8709H9.01727ZM28.8112 12.8709H29.6112V10.9992L28.2583 12.2927L28.8112 12.8709ZM9.01727 33.9796L9.81727 33.9841V33.9796H9.01727ZM9.01727 33.9982L9.81728 33.9982L9.81725 33.9937L9.01727 33.9982ZM9.01727 34.0293H8.21727V34.8293H9.01727V34.0293ZM9.01773 34.0293L9.81749 34.0098L9.79848 33.2293H9.01773V34.0293ZM28.8107 34.0293V33.2293H28.0299L28.0109 34.0098L28.8107 34.0293ZM28.8112 34.0293V34.8293H29.6112V34.0293H28.8112ZM8.49278 13.475C10.8128 15.4894 14.9699 16.4786 18.9514 16.5116C20.9666 16.5282 22.9925 16.3015 24.7935 15.8095C26.5855 15.32 28.2097 14.5529 29.364 13.4492L28.2583 12.2927C27.3644 13.1474 26.0169 13.8167 24.3719 14.2661C22.7358 14.713 20.8592 14.9273 18.9647 14.9116C15.1267 14.8799 11.4351 13.9107 9.54175 12.2669L8.49278 13.475ZM9.81727 33.9796V12.8709H8.21727V33.9796H9.81727ZM9.81724 33.9889C9.81724 33.9873 9.81724 33.9857 9.81725 33.9841L8.21728 33.9752C8.21725 33.9798 8.21724 33.9843 8.21724 33.9889H9.81724ZM9.81725 33.9937C9.81724 33.9921 9.81724 33.9905 9.81724 33.9889H8.21724C8.21724 33.9935 8.21725 33.998 8.21728 34.0026L9.81725 33.9937ZM9.81727 34.0293V33.9982H8.21727V34.0293H9.81727ZM9.01773 33.2293H9.01727V34.8293H9.01773V33.2293ZM18.9142 37.2C16.2744 37.2 13.9193 36.7676 12.2469 36.096C11.4087 35.7595 10.7798 35.3779 10.3704 34.9934C9.96211 34.6098 9.82398 34.2763 9.81749 34.0098L8.21797 34.0488C8.23823 34.8807 8.67145 35.5926 9.27491 36.1595C9.8773 36.7254 10.7005 37.1992 11.6507 37.5808C13.555 38.3454 16.1213 38.8 18.9142 38.8V37.2ZM28.0109 34.0098C28.0044 34.2763 27.8663 34.6098 27.458 34.9934C27.0486 35.3779 26.4197 35.7595 25.5815 36.096C23.9091 36.7676 21.554 37.2 18.9142 37.2V38.8C21.7071 38.8 24.2735 38.3454 26.1777 37.5808C27.1279 37.1992 27.9511 36.7254 28.5535 36.1595C29.157 35.5926 29.5902 34.8807 29.6104 34.0488L28.0109 34.0098ZM28.8112 33.2293H28.8107V34.8293H28.8112V33.2293ZM28.0112 12.8709V34.0293H29.6112V12.8709H28.0112Z" fill="black" mask="url(#path-3-inside-1_808_41)"/>
<path d="M18.9977 16.3922L18.9352 16.3794L18.8713 16.3827L10.3217 16.8263V16.8218V16.8145V16.8071V16.7996V16.7922V16.7846V16.7771V16.7695V16.7618V16.7542V16.7465V16.7387V16.7309V16.7231V16.7152V16.7074V16.6994V16.6915V16.6835V16.6754V16.6673V16.6592V16.6511V16.6429V16.6347V16.6265V16.6182V16.6099V16.6015V16.5932V16.5847V16.5763V16.5678V16.5593V16.5508V16.5422V16.5336V16.525V16.5163V16.5076V16.4989V16.4901V16.4814V16.4725V16.4637V16.4548V16.4459V16.437V16.428V16.4191V16.4101V16.401V16.3919V16.3828V16.3737V16.3646V16.3554V16.3462V16.337V16.3277V16.3184V16.3091V16.2998V16.2905V16.2811V16.2717V16.2623V16.2528V16.2433V16.2338V16.2243V16.2148V16.2052V16.1956V16.186V16.1764V16.1667V16.1571V16.1474V16.1376V16.1279V16.1182V16.1084V16.0986V16.0888V16.0789V16.0691V16.0592V16.0493V16.0394V16.0295V16.0195V16.0096V15.9996V15.9896V15.9796V15.9695V15.9595V15.9494V15.9393V15.9292V15.9191V15.909V15.8988V15.8887V15.8785V15.8683V15.8581V15.8479V15.8377V15.8274V15.8172V15.8069V15.7966V15.7863V15.776V15.7657V15.7554V15.7451V15.7347V15.7243V15.714V15.7036V15.6932V15.6828V15.6724V15.662V15.6515V15.6411V15.6306V15.6202V15.6097V15.5992V15.5888V15.5783V15.5678V15.5573V15.5467V15.5362V15.5257V15.5152V15.5046V15.4941V15.4836V15.473V15.4624V15.4519V15.4413V15.4307V15.4202V15.4096V15.399V15.3884V15.3778V15.3672V15.3567V15.3461V15.3355V15.3249V15.3143V15.3037V15.2931V15.2825V15.2719V15.2613V15.2506V15.24V15.2294V15.2188V15.2082V15.1976V15.187V15.1764V15.1658V15.1552V15.1447V15.1341V15.1235V15.1129V15.1023V15.0917V15.0812V15.0706V15.06V15.0495V15.0389V15.0284V15.0178V15.0073V14.9968V14.9862V14.9757V14.9652V14.9547V14.9442V14.9337V14.9232V14.9127V14.9023V14.8918V14.8813V14.8709V14.8605V14.85V14.8396V14.8292V14.8188V14.8084V14.798V14.7877V14.7773V14.767V14.7566V14.7463V14.736V14.7257V14.7154V14.7051V14.6949V14.6846V14.6744V14.6642V14.654V14.6438V14.6336V14.6234V14.6133V14.6031V14.593V14.5829V14.5728V14.5627V14.5527V14.5426V14.5326V14.5226V14.5126V14.5026V14.4927V14.4828V14.4728V14.4629V14.453V14.4432V14.4333V14.4235V14.4137V14.4039V14.3941V14.3844V14.3747V14.365V14.3553V14.3456V14.336V14.3264V14.3168V14.3072V14.2976V14.2881V14.2786V14.2691V14.2596V14.2502V14.2408V14.2314V14.222V14.2127V14.2034V14.1941V14.1848V14.1756V14.1664V14.1572V14.148V14.1389V14.1298V14.1207V14.1116V14.1026V14.0936V14.0846V14.0757V14.0668V14.0579V14.049V14.0402V14.0314V14.0226V14.0139V14.0052V13.9965V13.9879V13.9792V13.9707V13.9621V13.9536V13.9451V13.9366V13.9282V13.9198V13.9114V13.9031V13.8948V13.8866V13.8783V13.8701V13.862V13.8539V13.8458V13.8377V13.8297V13.8217V13.8138V13.8058V13.798V13.7901V13.7823V13.7745V13.7668V13.7591V13.7515V13.7439V13.7363V13.7287V13.7212V13.7138V13.7063V13.699V13.6916V13.6843V13.677V13.6698V13.6626V13.6555V13.6484V13.6413V13.6343V13.6273V13.6204V13.6135V13.6066V13.5998V13.5931V13.5864V13.5797V13.573V13.5664V13.5599V13.5534V13.5469V13.5405V13.5342V13.5278V13.5216V13.5153V13.5091V13.503V13.4969V13.4909V13.4849V13.4789V13.473V13.4671V13.4613V13.4556V13.4499V13.4442V13.4386V13.433V13.4275V13.422V13.4166V13.4113V13.406V13.4007V13.3955V13.3903V13.3852V13.3801V13.3751C10.3217 13.0794 10.4749 12.7422 10.8722 12.3792C11.2697 12.0161 11.8727 11.666 12.6601 11.3618C14.2317 10.7545 16.4367 10.3682 18.8972 10.3682C21.3578 10.3682 23.5628 10.7545 25.1344 11.3618C25.9218 11.666 26.5248 12.0161 26.9223 12.3792C27.3196 12.7422 27.4728 13.0794 27.4728 13.3751V13.3815V13.3879V13.3944V13.401V13.4076V13.4143V13.4211V13.4279V13.4349V13.4419V13.4489V13.4561V13.4633V13.4705V13.4779V13.4853V13.4928V13.5003V13.5079V13.5156V13.5233V13.5312V13.539V13.547V13.555V13.5631V13.5712V13.5794V13.5877V13.596V13.6044V13.6129V13.6214V13.63V13.6387V13.6474V13.6561V13.665V13.6739V13.6828V13.6918V13.7009V13.71V13.7192V13.7285V13.7378V13.7472V13.7566V13.7661V13.7756V13.7852V13.7949V13.8046V13.8143V13.8242V13.834V13.844V13.854V13.864V13.8741V13.8842V13.8944V13.9047V13.915V13.9254V13.9358V13.9462V13.9567V13.9673V13.9779V13.9886V13.9993V14.0101V14.0209V14.0317V14.0426V14.0536V14.0646V14.0757V14.0868V14.0979V14.1091V14.1203V14.1316V14.143V14.1543V14.1658V14.1772V14.1887V14.2003V14.2119V14.2235V14.2352V14.2469V14.2587V14.2705V14.2823V14.2942V14.3062V14.3181V14.3301V14.3422V14.3543V14.3664V14.3786V14.3908V14.403V14.4153V14.4276V14.44V14.4524V14.4648V14.4773V14.4898V14.5023V14.5149V14.5275V14.5401V14.5528V14.5655V14.5782V14.591V14.6038V14.6167V14.6295V14.6424V14.6554V14.6683V14.6813V14.6944V14.7074V14.7205V14.7336V14.7468V14.7599V14.7731V14.7864V14.7996V14.8129V14.8262V14.8395V14.8529V14.8663V14.8797V14.8932V14.9066V14.9201V14.9336V14.9472V14.9607V14.9743V14.9879V15.0015V15.0152V15.0289V15.0426V15.0563V15.07V15.0838V15.0976V15.1114V15.1252V15.139V15.1529V15.1667V15.1806V15.1945V15.2085V15.2224V15.2364V15.2504V15.2644V15.2784V15.2924V15.3064V15.3205V15.3346V15.3486V15.3627V15.3769V15.391V15.4051V15.4193V15.4334V15.4476V15.4618V15.476V15.4902V15.5044V15.5187V15.5329V15.5471V15.5614V15.5757V15.5899V15.6042V15.6185V15.6328V15.6471V15.6614V15.6758V15.6901V15.7044V15.7187V15.7331V15.7474V15.7618V15.7761V15.7905V15.8049V15.8192V15.8336V15.848V15.8623V15.8767V15.8911V15.9055V15.9198V15.9342V15.9486V15.963V15.9774V15.9917V16.0061V16.0205V16.0349V16.0492V16.0636V16.078V16.0923V16.1067V16.121V16.1354V16.1497V16.1641V16.1784V16.1927V16.207V16.2214V16.2357V16.25V16.2643V16.2786V16.2928V16.3071V16.3214V16.3356V16.3499V16.3641V16.3783V16.3925V16.4068V16.4209V16.4351V16.4493V16.4635V16.4776V16.4917V16.5059V16.52V16.5341V16.5481V16.5622V16.5762V16.5903V16.6043V16.6183V16.6323V16.6463V16.6602V16.6742V16.6881V16.702V16.7159V16.7297V16.7436V16.7574V16.7712V16.785V16.7988V16.8125V16.8263V16.84V16.8537V16.8673V16.881V16.8946V16.9082V16.9218V16.9353V16.9488V16.9623V16.9758V16.9893V17.0027V17.0161V17.0295V17.0428V17.0562V17.0695V17.0827V17.096V17.1092V17.1224V17.1355V17.1487V17.1618V17.1748V17.1879V17.2009V17.2139V17.2268V17.2397V17.2526V17.2655V17.2783V17.2911V17.3039V17.3166V17.3293V17.3419V17.3546V17.3672V17.3797V17.3922V17.4047V17.4172V17.4296V17.442V17.4543V17.4666V17.4789V17.4911V17.5033V17.5154V17.5276V17.5396V17.5517V17.5637V17.5756V17.5875V17.5994V17.6112V17.623V17.6348V17.6465V17.6581V17.6697V17.6813V17.6929V17.7043V17.7158V17.7272V17.7385V17.7499V17.7611V17.7723V17.7835V17.7946V17.8057V17.8167V17.8277V17.8387V17.8496V17.8604V17.8712V17.8819V17.8926V17.9033V17.9138V17.9244V17.9349V17.9453V17.9557V17.966V17.9763V17.9866V17.9967V18.0069V18.0169V18.0269V18.0369V18.0468V18.0567V18.0665V18.0762V18.0859V18.0955V18.1051V18.1146V18.1241V18.1311L18.9977 16.3922Z" stroke="white"/>
<path d="M28.3112 12.8709C28.3112 13.2454 28.126 13.6511 27.6875 14.0712C27.2477 14.4926 26.5848 14.8952 25.7246 15.2438C24.0068 15.94 21.5991 16.382 18.9142 16.382C16.2292 16.382 13.8216 15.94 12.1038 15.2438C11.2436 14.8952 10.5807 14.4926 10.1409 14.0712C9.70242 13.6511 9.51723 13.2454 9.51723 12.8709C9.51723 12.4964 9.70242 12.0908 10.1409 11.6707C10.5807 11.2492 11.2436 10.8467 12.1038 10.4981C13.8216 9.80184 16.2292 9.35985 18.9142 9.35985C21.5991 9.35985 24.0068 9.80184 25.7246 10.4981C26.5848 10.8467 27.2477 11.2492 27.6875 11.6707C28.126 12.0908 28.3112 12.4964 28.3112 12.8709Z" stroke="black"/>
<path fill-rule="evenodd" clip-rule="evenodd" d="M25.385 10.2004C26.1026 10.4266 26.8676 10.0282 27.0937 9.3106C27.3199 8.59302 26.9215 7.828 26.2039 7.60186C25.4863 7.37572 24.7213 7.77411 24.4952 8.49168C24.269 9.20925 24.6674 9.97428 25.385 10.2004ZM28.3152 9.69553C28.207 10.0389 28.0352 10.3446 27.8168 10.6037L27.8211 10.6072L25.5882 13.3207C25.1428 14.0612 24.2338 14.4293 23.3733 14.1581C22.3652 13.8404 21.8055 12.7656 22.1232 11.7575L22.1268 11.7462L23.2723 8.11132L23.2737 8.10675C23.7124 6.71458 25.1967 5.94167 26.5888 6.3804C27.981 6.81913 28.7539 8.30336 28.3152 9.69553ZM23.7582 12.9367C24.0917 13.0418 24.4473 12.8566 24.5524 12.5231C24.6575 12.1895 24.4724 11.834 24.1388 11.7288C23.8053 11.6237 23.4497 11.8089 23.3446 12.1424C23.2395 12.476 23.4247 12.8316 23.7582 12.9367Z" fill="white"/>
</g>
</svg>
