<svg width="38" height="38" viewBox="0 0 38 38" fill="none" xmlns="http://www.w3.org/2000/svg">
<path d="M17.9902 26.7378L18.1614 27.0532L18.4724 26.8741L20.181 25.8904L20.4764 25.7203L20.3142 25.4205L18.8469 22.7081L21.8134 22.3096L22.0235 22.2814L22.0958 22.0821L24.2186 16.2313L24.2674 16.0971L24.2083 15.9671L23.7292 14.9133L23.9791 12.314L24.016 11.9305H23.6308H21.4044H21.0544V12.2805V14.6229H20.982L20.7151 12.7994L20.6713 12.5H20.3688H19.5404H19.1369L19.1939 12.8995L19.6492 16.0862L18.932 18.5246L15.1635 20.8359L14.8805 21.0095L15.0389 21.3013L17.9902 26.7378Z" fill="white" stroke="black" stroke-width="0.7"/>
<path d="M19.5232 9.50602H11.1871V11.37H20.2372L26.8128 6.55475L25.6542 5.00822L19.5232 9.50602Z" fill="#565555" stroke="white" stroke-width="0.7"/>
<path d="M23.0114 31.8276L23.1139 31.9301L23.2588 31.9301L25.7259 31.9301L25.981 31.9301L26.826 31.9301L26.2285 31.3326L20.0185 25.1225L19.771 24.875L19.5235 25.1225L13.3134 31.3326L12.7159 31.9301L13.5609 31.9301L16.2831 31.9301L16.4281 31.9301L16.5306 31.8276L19.771 28.5872L23.0114 31.8276Z" fill="white" stroke="black" stroke-width="0.7"/>
</svg>
