<svg width="38" height="38" viewBox="0 0 38 38" fill="none" xmlns="http://www.w3.org/2000/svg">
<path d="M17.9902 29.9483L18.1614 30.2637L18.4724 30.0846L20.181 29.1009L20.4764 28.9308L20.3142 28.631L18.8469 25.9186L21.8134 25.5201L22.0235 25.4919L22.0958 25.2926L24.2186 19.4418L24.2674 19.3076L24.2083 19.1776L23.7292 18.1238L23.9791 15.5245L24.016 15.141H23.6308H21.4044H21.0544V15.491V17.8334H20.982L20.7151 16.0099L20.6713 15.7105H20.3688H19.5404H19.1369L19.1939 16.11L19.6492 19.2967L18.932 21.7351L15.1635 24.0464L14.8805 24.22L15.0389 24.5118L17.9902 29.9483Z" fill="white" stroke="black" stroke-width="0.7"/>
<path d="M19.5232 12.7165H11.1871V14.5805H20.2372L26.8128 9.76524L25.6542 8.21871L19.5232 12.7165Z" fill="#565555" stroke="white" stroke-width="0.7"/>
</svg>
