<svg width="38" height="38" viewBox="0 0 38 38" fill="none" xmlns="http://www.w3.org/2000/svg">
<path d="M16.5306 26.5343L16.4281 26.4318H16.2831H13.8161H13.5609H12.716L13.3134 27.0293L19.5235 33.2393L19.771 33.4868L20.0185 33.2393L26.2285 27.0293L26.826 26.4318H25.981H23.2589H23.1139L23.0114 26.5343L19.771 29.7747L16.5306 26.5343Z" fill="white" stroke="black" stroke-width="0.7"/>
<path d="M17.9902 26.7378L18.1614 27.0532L18.4724 26.8741L20.181 25.8904L20.4764 25.7203L20.3142 25.4205L18.8469 22.7081L21.8134 22.3096L22.0235 22.2814L22.0958 22.0821L24.2186 16.2313L24.2674 16.0971L24.2083 15.9671L23.7292 14.9133L23.9791 12.314L24.016 11.9305H23.6308H21.4044H21.0544V12.2805V14.6229H20.982L20.7151 12.7994L20.6713 12.5H20.3688H19.5404H19.1369L19.1939 12.8995L19.6492 16.0862L18.932 18.5246L15.1635 20.8359L14.8805 21.0095L15.0389 21.3013L17.9902 26.7378Z" fill="white" stroke="black" stroke-width="0.7"/>
<path d="M19.5232 9.50602H11.1871V11.37H20.2372L26.8128 6.55475L25.6542 5.00822L19.5232 9.50602Z" fill="#565555" stroke="white" stroke-width="0.7"/>
</svg>
